<svg width="151" height="150" fill="none" xmlns="http://www.w3.org/2000/svg"><path d="M75.875 146.166c39.715 0 71.91-18.588 71.91-41.517 0-22.93-32.195-41.517-71.91-41.517-39.715 0-71.91 18.588-71.91 41.517 0 22.929 32.195 41.517 71.91 41.517z" fill="#F5F5F5"/><path d="M57.176 83.76l12.657-7.308-17.196-9.918-12.654 7.308 17.193 9.918z" fill="#E6E6E6"/><path d="M22.07 100.752c3.48 2.031 3.48 5.325 0 7.359s-9.123 2.031-12.6 0c-3.477-2.031-3.48-5.328 0-7.359 3.48-2.031 9.12-2.031 12.6 0zm110.127 9.387l13.8-7.947a.357.357 0 00.176-.543.35.35 0 00-.176-.129l-34.089-19.746a1.279 1.279 0 00-1.161 0l-13.8 7.947a.354.354 0 000 .672l34.077 19.743a1.297 1.297 0 001.173.003zM95.43 88.149l10.865-6.249a.28.28 0 00.189-.264.278.278 0 00-.189-.264l-11.652-6.753a1 1 0 00-.9 0l-10.878 6.249c-.255.144-.255.381 0 .528l11.65 6.753a1.005 1.005 0 00.914 0z" fill="#E0E0E0"/><path d="M31.457 98.037l-13.092-7.542a.339.339 0 010-.639L39.75 77.442a1.2 1.2 0 011.101 0l13.092 7.545a.336.336 0 010 .636L32.558 98.037a1.2 1.2 0 01-1.1 0z" fill="#E6E6E6"/><path d="M66.824 141.948c12.62 0 22.851-5.907 22.851-13.194 0-7.287-10.23-13.194-22.85-13.194-12.621 0-22.852 5.907-22.852 13.194 0 7.287 10.23 13.194 22.851 13.194z" fill="#E0E0E0"/><path d="M88.454 130.605c11.928 0 21.597-5.583 21.597-12.471s-9.669-12.471-21.597-12.471c-11.927 0-21.597 5.583-21.597 12.471s9.67 12.471 21.597 12.471z" fill="#E0E0E0"/><path d="M57.017 82.581v-8.472l11.007-6.357v8.475l-11.007 6.354z" fill="#F0F0F0"/><path d="M57.017 74.109L41.79 65.328v8.475l15.228 8.778v-8.472z" fill="#E6E6E6"/><path d="M57.017 74.109l11.334-6.546-15.555-8.97-11.334 6.546 15.555 8.97z" fill="#FAFAFA"/><path d="M57.017 74.109v2.118l11.334-6.543v-2.121l-11.334 6.546z" fill="#F0F0F0"/><path d="M41.462 65.139l15.555 8.97v2.118L41.462 67.26v-2.121z" fill="#E6E6E6"/><path opacity=".1" d="M57.017 76.227v.465l11.007-6.354v-.465l-11.007 6.354zM41.79 67.914l15.228 8.778v-.465L41.79 67.446v.468z" fill="#000"/><path d="M60.64 75.396l3.76-2.172c.162-.093.3-.015.3.171v2.223a.648.648 0 01-.3.507L60.64 78.3c-.161.093-.3.018-.3-.168V75.9a.649.649 0 01.3-.504z" fill="#E0E0E0"/><path opacity=".1" d="M60.64 75.396l3.76-2.172c.162-.093.3-.015.3.171v2.223a.648.648 0 01-.3.507L60.64 78.3c-.161.093-.3.018-.3-.168V75.9a.649.649 0 01.3-.504z" fill="#000"/><path d="M60.875 75.648l3.3-1.893c.108-.063.195 0 .195.114v1.668a.427.427 0 01-.195.336l-3.3 1.893c-.108.063-.195 0-.195-.111v-1.668a.436.436 0 01.195-.339z" fill="#F5F5F5"/><path d="M60.974 76.089a.048.048 0 01-.042-.024.048.048 0 01-.005-.037.047.047 0 01.023-.029l3.096-1.8a.044.044 0 01.051.002.046.046 0 01.012.013.047.047 0 01.008.018.046.046 0 01-.01.036.045.045 0 01-.016.012l-3.093 1.8-.024.009zm0 .411a.048.048 0 01-.046-.06.045.045 0 01.022-.027l3.096-1.8a.045.045 0 01.063.018.04.04 0 01.007.017.042.042 0 01-.025.046l-3.093 1.8a.039.039 0 01-.024.006zm0 .408a.048.048 0 01-.024-.09l3.096-1.8a.048.048 0 01.063.018.045.045 0 01-.003.054.045.045 0 01-.015.012l-3.093 1.8-.024.006zm0 .408a.048.048 0 01-.046-.06.045.045 0 01.022-.027l3.096-1.8a.046.046 0 01.035-.004.046.046 0 01.033.04v.017a.047.047 0 01-.023.028l-3.093 1.8-.024.006z" opacity=".2" fill="#000"/><path opacity=".1" d="M42.368 64.617l15.282 8.814 10.43-6.024-15.284-8.814-10.428 6.024z" fill="#000"/><path d="M57.743 72.762v-8.475l11.007-6.354v8.472l-11.007 6.357z" fill="#F0F0F0"/><path d="M57.743 64.287l-15.225-8.778v8.472l15.225 8.781v-8.475z" fill="#E6E6E6"/><path d="M57.743 64.287l11.334-6.546-15.552-8.97-11.334 6.546 15.552 8.97z" fill="#FAFAFA"/><path d="M57.743 64.287v2.118l11.334-6.543v-2.121l-11.334 6.546z" fill="#F0F0F0"/><path d="M42.19 55.317l15.553 8.97v2.118L42.19 57.438v-2.121z" fill="#E6E6E6"/><path opacity=".1" d="M57.743 66.405v.468l11.007-6.357v-.465l-11.007 6.354zm-15.225-8.313l15.225 8.781v-.468l-15.228-8.778.003.465z" fill="#000"/><path d="M61.367 65.574l3.762-2.169c.162-.093.3-.018.3.168v2.223a.645.645 0 01-.3.51l-3.762 2.169c-.162.096-.3.018-.3-.168v-2.223a.654.654 0 01.3-.51z" fill="#E0E0E0"/><path opacity=".1" d="M61.367 65.574l3.762-2.169c.162-.093.3-.018.3.168v2.223a.645.645 0 01-.3.51l-3.762 2.169c-.162.096-.3.018-.3-.168v-2.223a.654.654 0 01.3-.51z" fill="#000"/><path d="M61.607 65.829l3.28-1.893c.107-.063.194 0 .194.111v1.668a.435.435 0 01-.195.339l-3.279 1.893c-.108.06-.195 0-.195-.114v-1.668a.425.425 0 01.195-.336z" fill="#F5F5F5"/><path d="M61.7 66.267a.048.048 0 01-.048-.041.045.045 0 01.024-.046l3.096-1.8a.041.041 0 01.036-.006.04.04 0 01.016.009c.005.004.009.01.011.015a.045.045 0 010 .063l-3.096 1.8a.036.036 0 01-.039.006zm0 .411a.048.048 0 01-.047-.036.048.048 0 01.023-.054l3.1-1.788a.049.049 0 01.048.084l-3.097 1.8-.027-.006zm0 .408a.048.048 0 01-.042-.024.051.051 0 01.018-.066l3.1-1.785a.042.042 0 01.062.018.045.045 0 010 .063l-3.096 1.8-.042-.006zm0 .414a.045.045 0 01-.042-.021.048.048 0 01-.005-.037.049.049 0 01.023-.029l3.096-1.8a.045.045 0 01.052.004.047.047 0 01.011.014.048.048 0 010 .066l-3.096 1.8a.036.036 0 01-.039.003z" opacity=".2" fill="#000"/><path d="M31.859 97.206l-12.081-6.975V52.365l12.08 6.975v37.866z" fill="#E0E0E0"/><path d="M31.859 59.34l20.718-11.961v37.866L31.859 97.206V59.34z" fill="#EBEBEB"/><path d="M52.577 47.379L31.859 59.34l-12.081-6.975 20.715-11.961 12.084 6.975z" fill="#F5F5F5"/><path d="M33.584 83.883l17.265-9.969v9.597l.318.183-17.265 9.969-.318-.186v-9.594z" fill="#E0E0E0"/><path d="M33.902 84.066l17.265-9.969v9.597l-17.265 9.969v-9.597z" fill="#F5F5F5"/><path d="M40.535 81.864l2.346-1.356c.3-.177.552-.096.552.18a1.101 1.101 0 01-.552.816l-2.346 1.356c-.3.177-.552.096-.552-.18a1.1 1.1 0 01.552-.816zm-6.951-9.57l17.265-9.966v9.594l.318.186-17.265 9.966-.318-.183v-9.597z" fill="#E0E0E0"/><path d="M33.902 72.477l17.265-9.966v9.597l-17.265 9.966v-9.597z" fill="#F5F5F5"/><path d="M40.535 70.275l2.346-1.356c.3-.174.552-.093.552.18a1.107 1.107 0 01-.552.819l-2.346 1.353c-.3.177-.552.096-.552-.177a1.107 1.107 0 01.552-.819zm-6.951-9.567l17.265-9.969v9.597l.318.183-17.265 9.969-.318-.186v-9.594z" fill="#E0E0E0"/><path d="M33.902 60.891l17.265-9.969v9.597l-17.265 9.969v-9.597z" fill="#F5F5F5"/><path d="M40.532 58.689l2.349-1.356c.3-.177.552-.096.552.18a1.1 1.1 0 01-.552.816L40.532 59.7c-.3.177-.552.096-.552-.18a1.11 1.11 0 01.552-.831z" fill="#E0E0E0"/><path d="M10.175 104.301c-3-3.084-4.746-13.143-1.83-15.6h14.841c2.916 2.445 1.161 12.498-1.827 15.6l-.08.084-.103.102a3.39 3.39 0 01-.27.243l-.072.057c-.072.057-.147.117-.225.171-.13.094-.259.178-.387.252-2.46 1.434-6.447 1.434-8.904 0a4.321 4.321 0 01-.39-.252c-.075-.054-.14-.108-.21-.162l-.09-.069a5.016 5.016 0 01-.258-.234l-.12-.117-.075-.075z" fill="#EBEBEB"/><path d="M21.9 87.726c3.383 1.977 3.383 5.181 0 7.158-3.385 1.977-8.875 1.977-12.259 0-3.384-1.977-3.387-5.181 0-7.158 3.387-1.977 8.874-1.977 12.258 0z" fill="#F5F5F5"/><path d="M20.27 88.677c2.487 1.452 2.487 3.804 0 5.256-2.487 1.452-6.516 1.452-9 0s-2.484-3.804 0-5.256c2.484-1.452 6.516-1.452 9 0z" fill="#E0E0E0"/><path d="M11.267 91.17c2.487-1.449 6.52-1.449 9 0 .607.33 1.123.805 1.5 1.383a4.125 4.125 0 01-1.5 1.38c-2.484 1.452-6.516 1.452-9 0a4.125 4.125 0 01-1.5-1.38 4.159 4.159 0 011.5-1.383z" fill="#FAFAFA"/><path d="M20.033 68.721l-3.99 4.119 4.047-2.556a12 12 0 01-.213 4.179 26.555 26.555 0 00-3.042 2.82l3.132-1.74s.513 2.148.045 5.589c-.123.9-.882 2.7-1.338 4.011a14.215 14.215 0 01-.74 1.785c0 .036-.037.072-.055.108-.81-.334-1.65-.649-2.52-.945-.678-1.05-1.73-3.717-2.28-5.943-2.1-8.523 3.801-14.337 8.838-16.689 0 0-1.509 2.502-1.884 5.262z" fill="#EBEBEB"/><path d="M16.355 69.57c-.789 1.035-1.164 2.31-1.413 3.567a17.603 17.603 0 00-.3 3.846 16.33 16.33 0 001.932 7.383.126.126 0 11-.222.12 16.54 16.54 0 01-1.836-7.5 17.77 17.77 0 01.363-3.861c.273-1.26.67-2.532 1.476-3.555z" fill="#fff"/><path d="M2.45 72.03c.093.162 1.617 2.799 3.693 7.776l4.632 1.617H7.148l1.36 3.327 4.523 1.8-3.756-.057s.387 3.759 2.745 5.715c1.305 1.08 1.93 1.2 2.5.993.695-.264 1.175-1.239 1.7-2.724.525-1.485.54-4.674-.375-7.938a9.624 9.624 0 00-1.11-2.475c-2.799-4.482-9.03-7.509-12.285-8.034z" fill="#F0F0F0"/><path d="M7.175 74.475a19.734 19.734 0 015.826 5.757A13.284 13.284 0 0114.675 84c.34 1.34.457 2.726.345 4.104a16.117 16.117 0 00-.576-4.035 14.926 14.926 0 00-1.599-3.732c-1.416-2.334-3.429-4.269-5.658-5.85v-.021l-.012.009z" fill="#fff"/><path d="M32.093 73.647c-.48-.006-.96.016-1.437.066-1.882.22-3.73.67-5.502 1.341a23.61 23.61 0 00-1.965.831 19.23 19.23 0 00-.96.489 15.86 15.86 0 00-4.215 3.186 10.106 10.106 0 00-1.452 2.04c-.051.093-.105.186-.153.285a16.04 16.04 0 00-.339.744c-1.2 2.745-1.317 4.653-1.239 6.768.057 1.638.6 3.513.936 3.822.042.04.09.076.141.105.468.3 1.2.126 2.601-.651 2.787-1.56 3.879-5.505 3.879-5.505l-3.87-.657 4.971-.993 2.019-3.147-3.717-.678 5.049-.777c3.063-4.701 5.121-7.116 5.235-7.26l.018-.009z" fill="#F0F0F0"/><path d="M30.656 73.713c-1.882.22-3.73.67-5.502 1.341a23.61 23.61 0 00-1.965.831 19.23 19.23 0 00-.96.489 15.86 15.86 0 00-4.215 3.186 10.106 10.106 0 00-1.452 2.04c-.051.093-.105.186-.153.285a16.04 16.04 0 00-.339.744c-1.2 2.745-1.317 4.653-1.239 6.768.057 1.638.6 3.513.936 3.822a.867.867 0 00.441.219c-.345-2.544.9-9 2.799-11.643 1.968-2.757 6.654-6.759 13.068-8.139-.474-.007-.948.012-1.419.057z" fill="#E6E6E6"/><path d="M87.245 49.077l6.102-3.525a3.736 3.736 0 013.366 0l6.102 3.525a3.724 3.724 0 011.683 2.913v29.034L95.03 86.49l-9.468-5.466V51.99a3.72 3.72 0 011.683-2.913z" fill="#F5F5F5"/><path d="M95.03 57.456a3.72 3.72 0 00-1.683-2.913l-6.102-3.522c-.93-.537-1.683-.102-1.683.969v29.034l9.468 5.466V57.456z" fill="#EBEBEB"/><path d="M104.498 51.99v29.034L95.03 86.49V57.456a3.577 3.577 0 00-.684-1.956l9.465-5.466c.416.57.655 1.25.687 1.956z" fill="#E0E0E0"/><path d="M86.351 56.013l7.89 4.557v10.488l-7.89-4.557V56.013z" fill="#F5F5F5"/><path d="M88.532 65.241v-7.977l5.71 3.306v7.977l-5.71-3.306z" fill="#E0E0E0"/><path d="M88.532 65.241l-2.18 1.26 7.89 4.557v-2.511l-5.71-3.306z" fill="#EBEBEB"/><path d="M87.512 56.682l.3 1.392.3.18a.966.966 0 00.966 0l.06-.033.12-.531-1.746-1.008zm3.816 2.202l.3 1.416.3.177a.966.966 0 00.966 0l.06-.033.12-.543-1.746-1.017z" fill="#FAFAFA"/><path d="M102.974 46.521c0-1.047-.792-2.1-2.172-2.901-1.5-.87-3.6-1.368-5.769-1.368s-4.26.498-5.766 1.368c-1.38.798-2.172 1.854-2.172 2.901v1.293c0 1.047.792 2.1 2.172 2.901 1.5.87 3.6 1.368 5.766 1.368s4.263-.498 5.769-1.368c1.38-.798 2.172-1.854 2.172-2.901v-1.293z" fill="#E0E0E0"/><path d="M95.033 50.79c-2.157 0-4.26-.498-5.766-1.368-1.38-.795-2.172-1.854-2.172-2.901 0-1.047.792-2.1 2.172-2.901 1.5-.87 3.6-1.368 5.766-1.368s4.263.498 5.769 1.368c1.38.798 2.172 1.854 2.172 2.901 0 1.047-.792 2.1-2.172 2.901-1.506.87-3.609 1.368-5.769 1.368z" fill="#FAFAFA"/><path d="M103.688 44.745V27.972c.168-1.398-.663-2.829-2.514-3.9-3.39-1.959-8.889-1.959-12.279 0-1.7.981-2.547 2.268-2.544 3.555v17.865h.024c.156 1.146.99 2.271 2.511 3.147 3.39 1.959 8.89 1.959 12.279 0 1.521-.876 2.352-2.001 2.511-3.147v-.048c.031-.232.035-.466.012-.699z" fill="#E6E6E6"/><path opacity=".4" d="M95.033 48.996c-2.127 0-4.107-.468-5.58-1.32-1.152-.663-1.851-1.5-1.965-2.334l-.021-.159V33.621c0-.9.72-1.857 1.986-2.589 1.473-.849 3.453-1.317 5.58-1.317 2.127 0 4.11.468 5.583 1.317 1.368.792 2.085 1.8 1.965 2.799V44.88c.018.145.018.29 0 .435v.072c-.132.825-.825 1.638-1.956 2.289-1.482.852-3.45 1.32-5.592 1.32z" fill="#fff"/><path d="M100.616 31.032a11.764 11.764 0 00-5.583-1.317 13.23 13.23 0 00-5.58 1.317c-1.272.6-1.998 1.659-1.986 2.799.012 1.14.714 2.199 1.986 2.796a13.23 13.23 0 005.58 1.317c2.127 0 4.11-.468 5.583-1.317 1.368-.792 1.965-1.773 1.965-2.796.066-1.062-.564-2.031-1.965-2.799z" fill="#F5F5F5"/><path d="M95.033 31.89c-2.157 0-4.26-.498-5.766-1.368-1.38-.798-2.172-1.854-2.172-2.901 0-1.047.792-2.1 2.172-2.901 1.5-.87 3.6-1.371 5.766-1.371s4.263.501 5.769 1.368c1.38.798 2.172 1.857 2.172 2.904s-.792 2.1-2.172 2.901c-1.506.87-3.609 1.368-5.769 1.368z" fill="#F0F0F0"/><path d="M92.006 56.073l-.336.195.015.03a.448.448 0 00-.06.243 1.155 1.155 0 00.519.9.45.45 0 00.243.069v.03l.339-.195a.367.367 0 00.15-.336 1.146 1.146 0 00-.52-.9.37.37 0 00-.35-.036z" fill="#E0E0E0"/><path d="M92.555 57.204c0 .33-.234.465-.519.3a1.146 1.146 0 01-.519-.9c0-.33.231-.465.52-.3a1.155 1.155 0 01.518.9z" fill="#FAFAFA"/><path d="M88.175 53.892l-.336.195.015.03a.476.476 0 00-.057.243 1.142 1.142 0 00.52.9c.071.045.154.07.24.072l.017.027.336-.195a.365.365 0 00.153-.336 1.15 1.15 0 00-.519-.9.367.367 0 00-.369-.036z" fill="#E0E0E0"/><path d="M88.736 55.023c0 .333-.23.465-.519.3a1.149 1.149 0 01-.519-.9c0-.33.234-.465.52-.3a1.152 1.152 0 01.518.9z" fill="#FAFAFA"/><path d="M129.278 102.453l1.185 5.874 1.152.666 1.14-.66 1.194-5.88-2.334-1.35-2.337 1.35z" fill="#E0E0E0"/><path opacity=".05" d="M129.278 102.453l1.185 5.874 1.152.666 1.14-.66 1.194-5.88-2.334-1.35-2.337 1.35z" fill="#000"/><path d="M131.615 108.993V103.8l-2.337-1.347 1.185 5.874 1.152.666z" fill="#EBEBEB"/><path opacity=".05" d="M129.278 102.453l.765 3.792 1.572.909 1.563-.903.771-3.798-2.334-1.35-2.337 1.35z" fill="#000"/><path d="M139.547 96.525l1.185 5.874 1.152.663 1.14-.657 1.194-5.88-2.334-1.35-2.337 1.35z" fill="#E0E0E0"/><path opacity=".05" d="M139.547 96.525l1.185 5.874 1.152.663 1.14-.657 1.194-5.88-2.334-1.35-2.337 1.35z" fill="#000"/><path d="M141.884 103.062v-5.19l-2.337-1.347 1.185 5.874 1.152.663z" fill="#EBEBEB"/><path opacity=".05" d="M139.547 96.525l.765 3.792 1.572.906 1.563-.903.771-3.795-2.334-1.35-2.337 1.35zm-40.644-11.61l1.185 5.874 1.152.666 1.14-.66 1.194-5.88-2.334-1.35-2.337 1.35z" fill="#000"/><path d="M101.24 91.455v-5.193l-2.337-1.347 1.185 5.874 1.152.666z" fill="#EBEBEB"/><path opacity=".05" d="M98.903 84.915l.765 3.792 1.572.909 1.563-.903.771-3.798-2.334-1.35-2.337 1.35z" fill="#000"/><path d="M131.615 106.206l12.726-7.35V71.313l-12.726 7.347v27.546z" fill="#E0E0E0"/><path d="M131.615 78.66L98.243 59.394v27.543l33.372 19.269V78.66z" fill="#EBEBEB"/><path d="M98.243 59.394l33.372 19.266 12.726-7.347-33.372-19.266-12.726 7.347z" fill="#F5F5F5"/><path d="M129.797 92.307l-29.736-17.169v10.107l-.336.195 29.739 17.166.333-.192V92.307z" fill="#E0E0E0"/><path d="M129.464 92.499L99.725 75.33v10.11l29.739 17.166V92.499z" fill="#F5F5F5"/><path d="M115.175 86.154l-2.472-1.428c-.321-.183-.582-.099-.582.189a1.168 1.168 0 00.582.861l2.472 1.428c.321.186.582.102.582-.189a1.168 1.168 0 00-.582-.861zm14.622-6.054l-29.736-17.169v10.11l-.336.192 29.739 17.169.333-.195V80.1z" fill="#E0E0E0"/><path d="M129.464 80.295L99.725 63.126v10.107l29.739 17.169V80.295z" fill="#F5F5F5"/><path d="M115.175 73.95l-2.472-1.428c-.321-.186-.582-.102-.582.189a1.17 1.17 0 00.582.861L115.175 75c.321.186.582.099.582-.189a1.168 1.168 0 00-.582-.861z" fill="#E0E0E0"/><path d="M143.876 54.672l-.687.045-33.882-19.575.342-.249 34.227 19.779z" fill="#FAFAFA"/><path d="M109.649 34.893l33.54 19.383V25.878l-33.54-19.38v28.395z" fill="#fff"/><path d="M108.62 35.538l35.256 20.37V25.482L108.62 5.115v30.423zm.687-29.238l33.882 19.578v28.839l-33.882-19.575V6.3z" fill="#F0F0F0"/><path d="M109.307 35.142l.342-.249V6.498l-.342-.195v28.839z" fill="#E0E0E0"/><path d="M108.62 5.115l.342-.198 35.256 20.367-.342.198L108.62 5.115z" fill="#FAFAFA"/><path d="M144.218 25.284l-.342.198v30.426l.342-.198V25.284z" fill="#E0E0E0"/><path d="M143.189 40.041l-33.54-19.386-.342.204 33.882 19.575v-.393z" fill="#FAFAFA"/><path d="M109.307 20.859v.768l33.882 19.575v-.768l-33.882-19.575zm33.882 5.595l-33.54-19.38-.18.804 33.72 19.491v-.915z" fill="#F0F0F0"/><path d="M143.189 26.454v.366L109.58 7.395l.069-.321 33.54 19.38z" fill="#E0E0E0"/><path d="M143.189 27.735l-33.54-19.38-.18.804 33.72 19.491v-.915z" fill="#F0F0F0"/><path d="M143.189 27.735v.366L109.58 8.676l.069-.321 33.54 19.38z" fill="#E0E0E0"/><path d="M143.189 29.016l-33.54-19.38-.18.804 33.72 19.491v-.915z" fill="#F0F0F0"/><path d="M143.189 29.016v.366L109.58 9.957l.069-.321 33.54 19.38z" fill="#E0E0E0"/><path d="M143.189 30.294l-33.54-19.377-.18.804 33.72 19.491v-.918z" fill="#F0F0F0"/><path d="M143.189 30.294v.369L109.58 11.235l.069-.318 33.54 19.377z" fill="#E0E0E0"/><path d="M143.189 31.575l-33.54-19.377-.18.804 33.72 19.491v-.918z" fill="#F0F0F0"/><path d="M143.189 31.575v.369L109.58 12.516l.069-.318 33.54 19.377z" fill="#E0E0E0"/><path d="M143.189 32.856l-33.54-19.377-.18.804 33.72 19.491v-.918z" fill="#F0F0F0"/><path d="M143.189 32.856v.369L109.58 13.797l.069-.318 33.54 19.377z" fill="#E0E0E0"/><path d="M143.189 34.137l-33.54-19.377-.18.804 33.72 19.488v-.915z" fill="#F0F0F0"/><path d="M143.189 34.137v.369L109.58 15.078l.069-.318 33.54 19.377z" fill="#E0E0E0"/><path d="M143.189 35.418l-33.54-19.377-.18.804 33.72 19.488v-.915z" fill="#F0F0F0"/><path d="M143.189 35.418v.369L109.58 16.359l.069-.318 33.54 19.377z" fill="#E0E0E0"/><path d="M143.189 36.699l-33.54-19.377-.18.804 33.72 19.488v-.915z" fill="#F0F0F0"/><path d="M143.189 36.699v.369L109.58 17.64l.069-.318 33.54 19.377z" fill="#E0E0E0"/><path d="M143.189 37.98l-33.54-19.377-.18.804 33.72 19.488v-.915z" fill="#F0F0F0"/><path d="M143.189 37.98v.369L109.58 18.921l.069-.318 33.54 19.377z" fill="#E0E0E0"/><path d="M8.405 54.672l.687.045 33.88-19.575-.343-.249L8.405 54.672z" fill="#FAFAFA"/><path d="M42.63 34.893L9.091 54.276V25.878L42.63 6.498v28.395z" fill="#fff"/><path d="M43.658 5.115L8.405 25.482v30.426l35.253-20.37V5.115zm-.687 30.027L9.092 54.717V25.878L42.972 6.3v28.842z" fill="#F0F0F0"/><path d="M42.97 35.142l-.341-.249V6.498l.342-.195v28.839z" fill="#E0E0E0"/><path d="M43.658 5.115l-.342-.198L8.06 25.284l.345.198L43.658 5.115z" fill="#FAFAFA"/><path d="M8.06 25.284l.345.198v30.426l-.345-.198V25.284z" fill="#E0E0E0"/><path d="M9.092 40.041L42.63 20.655l.342.204-33.88 19.575v-.393z" fill="#FAFAFA"/><path d="M42.971 20.859v.768L9.092 41.202v-.768l33.88-19.575zM9.092 26.454L42.63 7.074l.18.804L9.092 27.369v-.915z" fill="#F0F0F0"/><path d="M9.092 26.454v.366l33.61-19.425-.073-.321-33.537 19.38z" fill="#E0E0E0"/><path d="M9.092 27.735L42.63 8.355l.18.804L9.092 28.65v-.915z" fill="#F0F0F0"/><path d="M9.092 27.735v.366l33.61-19.425-.073-.321-33.537 19.38z" fill="#E0E0E0"/><path d="M9.092 29.016L42.63 9.636l.18.804L9.092 29.931v-.915z" fill="#F0F0F0"/><path d="M9.092 29.016v.366l33.61-19.425-.073-.321-33.537 19.38z" fill="#E0E0E0"/><path d="M9.092 30.294L42.63 10.917l.18.804L9.092 31.212v-.918z" fill="#F0F0F0"/><path d="M9.092 30.294v.369l33.61-19.428-.073-.318L9.092 30.294z" fill="#E0E0E0"/><path d="M9.092 31.575L42.63 12.198l.18.804L9.092 32.493v-.918z" fill="#F0F0F0"/><path d="M9.092 31.575v.369l33.61-19.428-.073-.318L9.092 31.575z" fill="#E0E0E0"/><path d="M9.092 32.856L42.63 13.479l.18.804L9.092 33.774v-.918z" fill="#F0F0F0"/><path d="M9.092 32.856v.369l33.61-19.428-.073-.318L9.092 32.856z" fill="#E0E0E0"/><path d="M9.092 34.137L42.63 14.76l.18.804L9.092 35.052v-.915z" fill="#F0F0F0"/><path d="M9.092 34.137v.369l33.61-19.428-.073-.318L9.092 34.137z" fill="#E0E0E0"/><path d="M9.092 35.418L42.63 16.041l.18.804L9.092 36.333v-.915z" fill="#F0F0F0"/><path d="M9.092 35.418v.369l33.61-19.428-.073-.318L9.092 35.418z" fill="#E0E0E0"/><path d="M9.092 36.699L42.63 17.322l.18.804L9.092 37.614v-.915z" fill="#F0F0F0"/><path d="M9.092 36.699v.369l33.61-19.428-.073-.318L9.092 36.699z" fill="#E0E0E0"/><path d="M9.092 37.98L42.63 18.603l.18.804L9.092 38.895v-.915z" fill="#F0F0F0"/><path d="M9.092 37.98v.369l33.61-19.428-.073-.318L9.092 37.98z" fill="#E0E0E0"/><path d="M73.703 116.715c0 .579-.108.801.6 1.323.708.522 2.238.759 3.402.444 1.02-.273 1.392-.567 1.881-1.134.4-.525.764-1.075 1.092-1.647.207-.261 1.152-.759 2.067-1.164.963-.429 2.808-1.278 3.468-2.841.66-1.563.204-2.679.204-2.679l-12.714 7.698z" fill="#263238"/><path d="M79.853 108.789c-1.863 1.218-3.432 4.275-5.979 3.345-.129 1.5-.525 3.111-.17 4.581 1.085 1.344 3.467 1.602 4.835.636.69-.6 1.077-1.278 1.743-1.899a6.7 6.7 0 011.833-1.116c.765-.36 1.506-.77 2.217-1.227 4.12-3.039 2.076-8.601-4.479-4.32z" fill="#455A64"/><path d="M86.426 123.3c0 .624.039 1.095.423 1.359s3.24.735 3.999.822c.759.087.87-.411 1.404-.234.534.177 1.773 1.086 3.636 1.5 1.863.414 3.39.852 5.973 0 2.583-.852 2.841-1.854 2.808-2.727-.033-.873-18.243-.72-18.243-.72z" fill="#263238"/><path d="M86.798 117.447c-.417 1.8-.858 4.473-.372 5.838.519.516 2.265.819 3.789 1.026 1.408.17 2.773.595 4.029 1.254 2.958 1.233 8.154 1.683 10.227-1.101 2.067-3.714-8.7-2.799-10.014-7.098-.48-1.566-5.703.504-7.659.081z" fill="#455A64"/><path d="M72.875 96.756c1.44-15.273.696-27.477 2.067-39.771 0 0 20.382-2.355 20.91 4.929.528 7.284.6 27.792.447 31.002-.075 3.249-1.245 23.1-1.245 25.38-5.328 2.646-8.631.648-8.631.648.033-2.958-2.28-14.019-1.026-21.234l-.852-14.064s-3.654 23.754-4.272 29.667c-1.572 2.334-6.04 1.8-6.783.381 0 .006-1.116-12.441-.615-16.938z" fill="#37474F"/><path d="M84.548 83.646l-.945-11.793s-4.04-.753-6.378-3.666c.636 2.337 3.174 4.368 4.782 4.938l1.605 10.011-.666 11.064 1.602-10.554z" fill="#263238"/><path d="M81.695 81.333c-.252 4.044-.513 8.226-.867 10.2-.552 3.081-2.1 19.287-2.472 23.127.12-.039.24-.084.357-.132.393-4.11 1.911-19.908 2.454-22.935.357-1.992.621-6.186.873-10.239.192-3.051.372-5.934.57-7.431l-.342-.048c-.201 1.512-.393 4.401-.573 7.458zm10.653 37.986c.462-6.915 1.566-22.182 1.48-29.178-.109-8.352-.388-23.172-1.066-28.569l-.342.042c.675 5.382.954 20.187 1.062 28.533.09 7.02-1.029 22.422-1.485 29.256.117-.024.234-.051.351-.084z" fill="#263238"/><path d="M93.095 70.161c1.887-1.905 1.626-5.886 1.458-8.37 0-.207-.027-.405-.04-.6l.346-.021c0 .186.027.381.039.6.18 2.649.468 6.963-1.8 8.874l-.003-.483z" fill="#263238"/><path d="M79.523 31.5c.74-.627 1.155-2.595.783-3.666-.372-1.071-1.878-3.615-2.082-6.684-.204-3.069 3.933-7.8 7.5-7.416 3.567.384 5.45 2.343 6.41 5.007.586 1.623-.014 1.938.21 2.871.445 1.839 1.105 3.258.25 6.771-.3 1.284-1.398 1.779-2.421 2.028a7.306 7.306 0 01-2.307.078 22.913 22.913 0 00-.015 2.382 1.098 1.098 0 001.032 1.062s-10.098-1.803-9.36-2.433z" fill="#FFA8A7"/><path d="M89.939 26.478a1.097 1.097 0 01-1.77.623 1.096 1.096 0 01-.33-1.223l2.1.6z" fill="#B16668"/><path d="M89.114 27.24a1.548 1.548 0 00-1.32-.999 1.099 1.099 0 00.786.987c.174.049.358.053.534.012z" fill="#F28F8F"/><path d="M87.662 22.29a.57.57 0 11-.72-.393.582.582 0 01.72.393zm-.045-2.124l-1.3.495a.732.732 0 01.415-.921.678.678 0 01.885.426zm4.41.498l-1.305-.51a.67.67 0 01.885-.414.74.74 0 01.42.924zm-.435 1.356a.525.525 0 11-.522-.549.537.537 0 01.522.549z" fill="#263238"/><path d="M92.126 24.576l-2.031.9-.642-3.987c.753-.261 1.722 1.569 2.673 3.087zm-4.251 5.913s-1.923-.3-2.47-.6c-1.481-.846-2.018-1.5-2.351-2.424a3.945 3.945 0 002.18 2.946c.837.353 1.708.618 2.599.792l.042-.714z" fill="#F28F8F"/><path d="M82.538 25.728c.024.57-.084 1.542-.666 1.965-.582.423-.927.636-1.476.486-.186-.513-.765-1.842-1.326-2.967s-3.057-5.364-.67-6.975c-.521-1.725.3-3.459 1.816-4.521 1.272-.9 4.25-.939 6.267-.621 4.758.753 5.51-.558 6.186-.228.675.33.204 1.977-.333 2.46.74-.156 1.29.234.9 1.152-.39.918-1.398 1.554-3.096 1.818a11.61 11.61 0 01-6.027-.6 9.53 9.53 0 01.65 2.067 2.163 2.163 0 01-.533 1.776c-.366.348.156 1.263.078 1.65s-.546 1.143-1.254-.324-2.235-1.5-2.856-.768-.6 1.5 0 2.805c.477 1.053 1.677 1.47 2.34.825z" fill="#263238"/><path d="M74.195 32.052c-2.178.459-3.252 2.904-3.3 7.32a49.84 49.84 0 00.999 11.004c.408 1.827 1.335 2.7 4.767 2.256 5.73-.744 12.213-2.076 12.213-2.076l-.996-4.5-9.957.642-3.726-14.646z" fill="#37474F"/><path d="M75.875 31.977c3.126-.651 8.238.15 12.876 2.4 2.184 1.062 3.807 1.656 5.205 2.436 1.398.78 2.052 3.645 2.205 5.847.38 5.622.06 8.64 0 12.279-.096 5.421 0 8.346 0 8.346s-6.52 3.579-16.86.453c-5.037-1.521-4.84-4.038-4.86-5.838-.021-1.8.183-7.989-.99-13.065s-1.383-12.069 2.424-12.858z" fill="#F0F0F0"/><path d="M89.756 34.854c-1.62-1.458-1.131-1.536-2.181-2.4-1.308-1.077-7.026-2.4-7.485-1.947a6.184 6.184 0 01-1.69 1.251s.274.879 3.727 1.713c3.29.798 4.593.687 7.629 1.383z" fill="#F0F0F0"/><path d="M79.439 31.092c1.902.318 5.328 1.242 7.13 1.734 1.804.492 4.276 2.124 4.276 2.124s3.462 1.5 3.9 1.983c.438.483 1.296 2.658 1.644 7.404.348 4.746.435 24.663.435 24.663-.69.21-1.391.383-2.1.516l-.663-5.4-.73 5.664s-6.518.444-11.975-.696-7.881-4.671-7.881-4.671.813-11.439.6-13.383c-.213-1.944-1.923-10.158-1.734-13.386.189-3.228.71-5.589 2.7-5.886 2.424-.36 4.398-.666 4.398-.666z" fill="#455A64"/><path d="M78.515 32.076c.492.192.999.342 1.5.489.5.147 1.014.3 1.524.435 1.02.276 2.04.552 3.066.807 1.026.255 2.052.453 3.096.633l3.135.51a43.716 43.716 0 01-3.168-.282 25.252 25.252 0 01-3.135-.57 48.813 48.813 0 01-3.06-.879 20.891 20.891 0 01-2.958-1.143zm1.968 6.582c.438 2.136.78 4.293 1.008 6.465.238 2.174.308 4.364.21 6.549l-.366 6.528-.21 3.261-.24 3.261.093-3.267.126-3.267.3-6.531a44.971 44.971 0 00-.138-6.513 73.897 73.897 0 00-.34-3.246 163.54 163.54 0 00-.443-3.24zM94.316 60.3c1.875-.3 2.508-.9 2.508-.9v1.389s-1.383.723-2.508.774V60.3zm.42-23.367c-.966-.6-2.5-.3-3.534 2.88-1.035 3.18-.657 4.68-.357 6.465.183 1.11 4.653 9.939 5.979 11.361 1.326 1.422 3.48 1.518 4.5.243s1.614-3.036 0-7.05c-1.614-4.014-5.28-12.591-6.588-13.899z" fill="#37474F"/><path d="M99.683 47.001c.135.381.126.6-.318.9-.444.3-1.221.81-1.698 1.137a.577.577 0 00-.165.9c.12.141.417.138 1.473-.258s1.518-.486 1.632-.318a.952.952 0 01-.192 1.035c-.333.351-1.815.966-2.01 1.374-.195.408-.126.987.74.645.868-.342 1.801-.9 2.128-1.056.213-.093.282 0 .342.39a.667.667 0 01-.21.675c-.33.273-1.104.843-1.341 1.2-.3.441-.18.987.285.78a15.386 15.386 0 001.638-1.023c.621-.411.996-.69 1.044-1.572.048-.882 0-1.425-.186-1.548s-.081-.669-.342-.867c-.261-.198-.711-.162-.723-.729-.012-.567-.189-1.047-.702-1.173-.513-.126-.69-.276-.72-.9-.03-.624-.318-.684-1.2-.999-.882-.315-1.002-.366-1.224-.438-.222-.072-.504.618.2.987a48.01 48.01 0 011.549.858z" fill="#FFA8A7"/><path d="M79.055 120.075c.147.828.423 1.785.654 3.477.23 1.692-.141 1.755.933 6 .645 2.544.519 3.555-1.05 5.682-1.68 2.277-3.414 1.8-4.527-.753-.951-2.181-.9-3.189-.873-5.442.027-2.253 0-2.907-.093-4.692-.078-1.575.06-2.649-.03-3.855l4.986-.417z" fill="#37474F"/><path d="M79.523 126.249c-.3-2.184-.35-4.446-.453-5.919-.228-3.3.492-9.831.057-14.802l-8.367-.9c.267 1.938 2.514 10.716 3.315 16.011 0 0 .28 7.179.714 10.341a.595.595 0 00.303.456.597.597 0 00.547.021 5.503 5.503 0 013.791-.216.602.602 0 00.748-.29.603.603 0 00.065-.283c-.012-1.179-.498-2.781-.72-4.419zm-24.627-21.951c.12 6.879.132 12.966-.09 14.754-.222 1.788-.318 2.4-.76 3.645-.44 1.245-1.2 2.925-1.856 3.738 0 0-1.938 2.121-1.5 2.331.438.21 4.56.6 6.396 0 1.836-.6 2.01-2.145 2.6-5.007.592-2.862 1.078-7.038 1.078-7.038a1.797 1.797 0 01-.195-.48c-.255-.819.465-2.97.627-5.043l-6.3-6.9z" fill="#B16668"/><path d="M62.654 120.972c-.114.666-.675 1.428-.918 2.469a18.306 18.306 0 00-.489 3.6l-.072 1.698-.462-.018.13-3.096c.038-.945-.025-1.635-.472-1.758 0 .015.051-2.991 2.283-2.895z" fill="#263238"/><path d="M60.686 116.349c.3.783 1.326 1.878 1.764 2.625.225.393.352.835.369 1.287a1.345 1.345 0 01-.393 1.017 14.69 14.69 0 00-1.41 1.602c-.555.762-1.587 2.541-1.866 3.792-.279 1.251-.432 2.349-1.5 2.982-.828.492-4.242 1.2-5.973 1.341-2.364.18-3-.948-2.118-1.869.882-.921 2.358-2.493 2.625-2.7a4.304 4.304 0 012.202.279c1.332.552 1.764 1.317 3.147.6 1.251-.642 1.722-2.979 1.572-6.327-.165-3.789 1.581-4.629 1.581-4.629z" fill="#37474F"/><path d="M72.926 57.18c.162.861.345 1.668.66 2.1 1.92 2.619 3.88 5.793 4.26 10.698.554 7.742.69 15.508.408 23.265.096 1.044.921 3.573 1.11 9.54.15 4.755-.072 12.15-.072 12.15s-3.393 1.695-6.369.6c-1.224-4.527-3.3-15.417-4.5-20.598-1.278-5.463-2.595-11.979-2.595-11.979l-1.926 9.585a27.642 27.642 0 010 6.18c-.339 3.18-2.778 14.4-2.778 14.4s-3.77 1.2-6.339-.552c0 0-.426-15.837-.474-19.332-.048-3.495.363-24.273 2.445-33.426a19.87 19.87 0 00.111-2.127c2.508 2.043 12.741 1.767 16.06-.504z" fill="#459AE9"/><path d="M79.34 113.286c-1.284 1.2-5.25 1.542-6.813.726l.5 2.466s1.033.687 3.3.468c2.269-.219 2.968-1.131 2.968-1.131l.045-2.529z" fill="#459AE9"/><path d="M79.34 113.286c-1.284 1.2-5.25 1.542-6.813.726l.5 2.466s1.033.687 3.3.468c2.269-.219 2.968-1.131 2.968-1.131l.045-2.529z" fill="#fff" opacity=".2"/><path d="M61.475 111.543c-1.34.462-5.343.279-6.819-.6l.09 2.124s.834.783 3.09.993c2.256.21 3.231-.432 3.231-.432l.408-2.085z" fill="#459AE9"/><path d="M61.475 111.543c-1.34.462-5.343.279-6.819-.6l.09 2.124s.834.783 3.09.993c2.256.21 3.231-.432 3.231-.432l.408-2.085z" fill="#fff" opacity=".2"/><path d="M65.816 82.947l-1.626-11.7a7.403 7.403 0 01-5.949-2.775s-.06 2.928 4.77 4.2l1.902 10.776-1.023 9.066 1.926-9.567z" fill="#000" opacity=".2"/><path d="M56.774 59.637s2.448 1.8 8.166 1.5c5.718-.3 8.469-2.154 8.43-2.253a8.024 8.024 0 01-.402-1.5 1.885 1.885 0 01-.042-.216c-3.318 2.271-13.548 2.547-16.068.501 0 0 0 1.368-.084 1.956v.012z" fill="#263238"/><path d="M61.592 38.529c-2.658.798-3.183.84-4.605 1.704-1.422.864-2.526 2.1-5.45 8.847-1.39 3.204-2.632 8.16-1.462 9.459 1.17 1.299 4.36 1.08 4.36 1.08l1.394-3.519 5.763-17.571z" fill="#459AE9"/><path opacity=".2" d="M61.592 38.529c-2.658.798-3.183.84-4.605 1.704-1.422.864-2.526 2.1-5.45 8.847-1.39 3.204-2.632 8.16-1.462 9.459 1.17 1.299 4.36 1.08 4.36 1.08l1.394-3.519 5.763-17.571z" fill="#fff"/><path opacity=".8" d="M56.177 53.178a9.108 9.108 0 00-4.8 2.04s.822-2.196 4.86-3.069l-.06 1.029z" fill="#459AE9"/><path d="M68.339 37.236l5.304 1.647c.9.3 4.35 2.4 3.147 7.59-.399 1.71-.939 4.116-1.428 6.516-.375 1.836.999 5.37 2.1 10.995 0 0-4.548 3.618-13.587 2.598-6.9-.78-7.641-3.36-7.641-3.36.192-6.42.759-8.898.747-11.337 0 0-1.008-1.23-1.05-3.411-.045-2.289.558-3.519 2.607-6.114 1.953-2.469 3.153-3.756 3.153-3.756l6.648-1.368z" fill="#FAFAFA"/><path d="M56.813 54.819c-.147 1.527-.348 3.441-.486 6.252a35.435 35.435 0 003.948-.378s3.264 2.874 10.128 4.575c.651.159 1.9.366 3.243.537 2.547-.804 3.825-1.821 3.825-1.821-.6-3.039-1.275-5.463-1.71-7.341l-18.948-1.824z" fill="#E0E0E0"/><path d="M63.992 37.878c-.246.09-2.4.651-2.4.651-2.784 2.352-4.584 5.1-5.262 6.666-.816 1.875-.924 3.942-.972 6.9-.042 2.565-.732 10.059-.732 13.8.279.99 1.956 1.92 1.956 1.92.12 1.302.675-12.81 1.371-19.629.9-6 5.4-9.09 6.387-9.777l-.348-.531z" fill="#459AE9"/><path opacity=".5" d="M63.992 37.878c-.246.09-2.4.651-2.4.651-2.784 2.352-4.584 5.1-5.262 6.666-.816 1.875-.924 3.942-.972 6.9-.042 2.565-.732 10.059-.732 13.8.279.99 1.956 1.92 1.956 1.92.12 1.302.675-12.81 1.371-19.629.9-6 5.4-9.09 6.387-9.777l-.348-.531z" fill="#fff"/><path opacity=".4" d="M62.114 38.853c-.3.3-.585.561-.879.84-.294.279-.6.549-.9.825l.033-.105.231.75.021.072-.06.054c-.744.672-1.496 1.335-2.256 1.989l.048-.09c-.132.873-.258 1.743-.405 2.613l-.41 2.613c0-.441.041-.882.071-1.323.03-.441.081-.879.126-1.317.087-.879.204-1.755.327-2.628v-.054l.042-.036c.756-.66 1.518-1.311 2.286-1.953l-.036.126-.189-.759v-.066l.048-.039c.315-.255.624-.516.945-.765.321-.249.633-.504.957-.747z" fill="#459AE9"/><path d="M70.814 37.44l.021.777c-1.326 4.362-1.29 9.948-1.32 14.031-.063 8.571 1.185 17.67 1.185 17.67s5.376.957 7.8-2.319c0 0-1.416-5.229-2.229-10.2-.483-2.943 1.479-10.146.972-14.4-.213-1.782-.693-3.261-2.031-3.678-1.104-.36-4.398-1.881-4.398-1.881z" fill="#459AE9"/><path opacity=".5" d="M70.814 37.44l.021.777c-1.326 4.362-1.29 9.948-1.32 14.031-.063 8.571 1.185 17.67 1.185 17.67s5.376.957 7.8-2.319c0 0-1.416-5.229-2.229-10.2-.483-2.943 1.479-10.146.972-14.4-.213-1.782-.693-3.261-2.031-3.678-1.104-.36-4.398-1.881-4.398-1.881z" fill="#fff"/><path opacity=".4" d="M69.512 51.396c.089-.643.23-1.277.423-1.896.19-.618.4-1.23.621-1.839.222-.609.471-1.2.723-1.8.252-.6.501-1.2.783-1.773v.114l-.915-2.43-.033-.09.07-.054 1.145-.9-.03.105c-.132-.435-.267-.867-.39-1.302-.123-.435-.255-.87-.375-1.308.168.423.324.849.483 1.272.16.423.3.852.462 1.278l.021.06-.05.042-1.105.948.04-.144.95 2.418.024.057-.027.057c-.264.6-.54 1.17-.795 1.761a185.81 185.81 0 00-.753 1.779c-.249.594-.486 1.2-.702 1.8a14.57 14.57 0 00-.57 1.845z" fill="#459AE9"/><path d="M68.948 18.771c-1.173.495-1.683.9-2.679-.198-1.173-1.002-2.976-.66-3.9.516-.318.384-.642.9-1.13.873-.274 0-.622-.192-1.114-.255a1.917 1.917 0 00-1.863 1.017c-.162.411-.042.882 0 1.326a1.172 1.172 0 01-.489 1.122.7.7 0 01-1.005-.417c-.435.351-.348 1.128.057 1.524a1.991 1.991 0 001.557.435c-1.008.147-1.91 1.266-1.437 2.322.213.462.678.792.777 1.296.123.624-.327 1.275-.324 1.908a1.74 1.74 0 001.32 1.599c.517.122.99.38 1.371.75.501.495.72 1.254 1.2 1.8 2.361 2.466 3.93-.954 6.3.246.313.191.605.413.873.663.12.102.237.198.36.3.114.063.215.145.3.243a.922.922 0 00.684.39c.264.018.53-.004.786-.066.828-.153 1.707-.369 2.283-1.011a6.64 6.64 0 00.498-.705 2.5 2.5 0 011.215-1.059c.6-.189 1.281 0 1.8-.33.382-.299.644-.725.738-1.2.098-.473.279-.925.534-1.335a1.5 1.5 0 011.5-.549 2.455 2.455 0 00-.9-1.431c-.3-.231-.657-.381-.978-.579a1.706 1.706 0 01-.3-.225 1.499 1.499 0 01-.252-.327 2.399 2.399 0 01-.282-.801 2.83 2.83 0 01-.042-.315c-.054-.579 0-1.164-.063-1.743-.11-.933-.6-1.857-1.407-2.283-.366-.192-.774-.276-1.152-.435a1.73 1.73 0 01-.699-.492c-.078-.096-.144-.201-.225-.3a1.097 1.097 0 01-.17-.3 4.379 4.379 0 00-.622-1.248c-.744-.966-2.07-1.116-3.12-.726z" fill="#263238"/><path d="M71.717 33.786c.642 0 1.317-.477 1.725-1.053.64-.9.813-2.244.333-3.039-.396-.651-1.179-1.137-1.884-.711-.756.456-.765.798-1.056 1.32-.29.522-.867.6-1.095-1.533-.213-1.995-.486-3.822-1.446-4.734-1.434-1.365-2.727-.6-3.78.255-.579-.936-1.827-1.581-2.604-1.05-.9.624-1.524 1.587-1.923 5.355-.408 3.843.46 6.258 1.332 6.918.66.501 1.407.735 2.85.822l-.186 2.379s-1.578 4.266-1.623 7.566a50.434 50.434 0 014.467-4.752c2.148-1.929 3.648-3.108 3.648-3.108l.19-5.262a1.218 1.218 0 001.052.627z" fill="#B16668"/><path d="M62.375 46.281c-.78-1.968-.852-2.772-.6-3.753.252-.981 1.146-4.17 2.328-5.352l-.117 1.539a30.408 30.408 0 00-1.61 7.566z" fill="#EBEBEB"/><path d="M62.376 46.281c.38-.645.69-1.329.924-2.04.27-.939.585-1.455 2.355-2.7s4.5-4.047 4.883-4.725l.016-.468s.272.039.281.9v.954c-1.194 1.998-4.928 5.073-8.46 8.079z" fill="#EBEBEB"/><path d="M60.99 27.102l1.385-.657a.731.731 0 00-.99-.375.801.801 0 00-.396 1.032zm4.811.177l1.5.6a.78.78 0 00-.426-1.05.855.855 0 00-1.074.45z" fill="#263238"/><path d="M65.769 32.187l-1.894.513a.98.98 0 001.284.666.918.918 0 00.61-1.179z" fill="#9A4A4D"/><path d="M64.628 33.381a1.026 1.026 0 011.077-.858l.093.018a.867.867 0 01-.633.813 1.098 1.098 0 01-.537.027z" fill="#FFA8A7"/><path d="M64.451 27.693l-.858 3.708-1.95-1.02 2.808-2.688z" fill="#9A4A4D"/><path d="M66.911 28.77a.555.555 0 11-1.106-.092.555.555 0 011.106.092zm-4.587-.303a.555.555 0 11-1.107-.093.555.555 0 011.107.093z" fill="#263238"/><path d="M64.175 36.336c1.557.183 3.6-.486 4.317-.993.423-.3.795-1.08 1.36-2.019 0 0-.283 2.238-1.336 2.844-1.602.921-4.41 1.008-4.41 1.008l.07-.84z" fill="#9A4A4D"/><path d="M71.73 33.201a.468.468 0 100-.936.468.468 0 000 .936z" fill="#FAFAFA"/><path d="M59.948 54.027c-.717-1.341-1.686-3.054-2.136-4.017-.45-.963-.549-1.122-1.296-1.614-.702-.47-1.431-.9-2.184-1.284-.384-.192-.483.267-.207.837.24.501 1.425 1.176 1.425 1.176s-1.047-.066-1.524-.06c-.339 0-.795.228-1.329.459-.534.231-.579.408-.45.576.129.168.372.318.9.255a16.744 16.744 0 001.041-.162l1.182.117.129.159s-.792.099-1.431.255a3.17 3.17 0 00-1.245.6c-.486.3-.786.468-.807.6-.021.132.042.489.684.432a3.22 3.22 0 001.242-.435l1.377-.177.648.54s-.78.048-1.233.105a5.657 5.657 0 00-1.446.483c-.183.111.081.516.435.621.354.105 1.29-.24 1.8-.147.475.114.94.261 1.395.441l3.03.24z" fill="#B16668"/><path d="M59.948 54.027a6.58 6.58 0 01-.3-.6 26.402 26.402 0 01-2.787-.165 6.043 6.043 0 00-1.71.057.903.903 0 01.174 0c.5.09 1.614.453 1.614.453l3.009.255zm-1.992-2.58a5.711 5.711 0 01-.558-.672c-.168-.237-.3-.489-.48-.723a1.847 1.847 0 00-.576-.6 2.593 2.593 0 00-.792-.324c.296.015.585.095.846.234.259.152.477.364.636.618.16.246.3.495.453.741.153.246.31.483.471.726zm.159.894a4.353 4.353 0 01-.675-.465c-.213-.171-.414-.357-.618-.537-.204-.18-.396-.378-.6-.552a1.074 1.074 0 00-.71-.318.994.994 0 01.776.237c.225.168.411.36.621.534.402.36.79.75 1.206 1.101zm-.723.558c-.246-.111-.456-.27-.684-.384a1.68 1.68 0 00-.345-.153 2.265 2.265 0 00-.381-.084.966.966 0 01.405-.018c.134.025.264.07.384.135a2.6 2.6 0 01.62.504z" fill="#9A4A4D"/><path d="M71.531 56.073a88.697 88.697 0 00-3.186-.435c-1.257-.15-6.558-1.233-7.82-1.32l-4.2 3c1.14.696 4.2 1.917 5.804 2.484 2.277.81 4.9 1.734 7.24 2.457-.049-2.049.98-4.959 2.162-6.186z" fill="#B16668"/><path d="M60.524 54.318l-4.2 3c1.14.696 4.2 1.917 5.805 2.484l1.5.528c2.055-.786 4.641-2.223 7.08-3.117l.054-.048a5.53 5.53 0 01.777-1.086 88.697 88.697 0 00-3.186-.435c-1.266-.144-6.579-1.239-7.83-1.326z" fill="#9A4A4D"/><path d="M79.322 43.833c-.54-2.631-1.58-4.104-4.11-4.524-2.33.933-2.874 5.178-2.832 9.798l.735 6.966a7.764 7.764 0 01-1.584 0c-1.182 1.227-2.454 4.254-2.4 6.3 1.943.436 3.92.699 5.91.786 2.568.03 4.8-.051 5.025-2.43a53.3 53.3 0 00-.042-9.528c-.348-4.446-.33-5.55-.702-7.368z" fill="#459AE9"/><path opacity=".2" d="M79.322 43.833c-.54-2.631-1.58-4.104-4.11-4.524-2.33.933-2.874 5.178-2.832 9.798l.735 6.966a7.764 7.764 0 01-1.584 0c-1.182 1.227-2.454 4.254-2.4 6.3 1.943.436 3.92.699 5.91.786 2.568.03 4.8-.051 5.025-2.43a53.3 53.3 0 00-.042-9.528c-.348-4.446-.33-5.55-.702-7.368z" fill="#fff"/><path opacity=".8" d="M70.7 57.207a9.497 9.497 0 011.746-.3c1.668-.207 3.85.342 4.344 1.374 0 0-.6-1.8-3.675-2.211-.56.075-1.124.115-1.689.12a6.561 6.561 0 00-.726 1.017z" fill="#459AE9"/><path d="M67.958 57.321c-1.749.471-8.355 2.439-14.457 2.313-.429-.735-.369-2.049-.027-3.27.483-1.713 1.041-2.454 1.836-3.036 4.8.6 8.1.123 13.059.519 2.031.162 4.674 1.545 4.674 1.545l.072.681s-3.411.777-5.157 1.248z" fill="#B16668"/><path d="M39.632 68.268l2.436-.939 2.151 1.476a.387.387 0 00.6-.339l-.138-2.607 2.067-1.59a.384.384 0 00-.135-.678l-2.52-.675-.876-2.457a.384.384 0 00-.687-.081l-1.419 2.19-2.607.072a.385.385 0 00-.3.627l1.644 2.028-.726 2.505a.387.387 0 00.51.468zm1.173-12.369l-.855-1.245h-1.5a.328.328 0 01-.3-.186.336.336 0 01.036-.354l.918-1.2-.465-1.437a.341.341 0 01.084-.345.345.345 0 01.348-.075l1.422.504 1.224-.9a.332.332 0 01.531.279l-.039 1.5 1.221.9a.336.336 0 01-.102.6l-1.446.429-.48 1.431a.337.337 0 01-.375.228.342.342 0 01-.222-.129zm1.023-5.055l-1.31.951-1.528-.54a.126.126 0 00-.167.088.129.129 0 00.002.071l.501 1.539-.987 1.287a.117.117 0 000 .132.125.125 0 00.114.072h1.62l.9 1.335a.123.123 0 00.123.054.125.125 0 00.105-.087l.501-1.539 1.551-.459a.128.128 0 00.09-.102.123.123 0 00-.05-.126l-1.318-.951.042-1.62a.123.123 0 00-.069-.114.107.107 0 00-.039 0 .117.117 0 00-.08.009zM49.175 75.6l-.855-1.245h-1.5a.328.328 0 01-.3-.186.335.335 0 01.036-.354l.918-1.2-.465-1.437a.342.342 0 01.084-.345.345.345 0 01.348-.075l1.422.504 1.224-.885a.33.33 0 01.484.099.34.34 0 01.047.174l-.039 1.5 1.221.9a.336.336 0 01-.102.6l-1.446.429-.477 1.44a.336.336 0 01-.6.081zm1.02-5.055l-1.32.957-1.527-.54a.125.125 0 00-.132.027.128.128 0 00-.033.132l.492 1.539-.987 1.287a.117.117 0 000 .132.126.126 0 00.114.072h1.617l.918 1.335a.122.122 0 00.123.054.126.126 0 00.105-.087l.501-1.539 1.551-.459a.128.128 0 00.09-.102.117.117 0 00-.05-.123l-1.309-.954.042-1.62a.123.123 0 00-.069-.114.107.107 0 00-.039 0 .126.126 0 00-.096.009l.01-.006zm62.541-12.288a.499.499 0 01-.285-.123l-1.917-1.68-2.472.624a.5.5 0 01-.615-.41.505.505 0 01.036-.271l1.005-2.34-1.359-2.16a.497.497 0 01.202-.71.5.5 0 01.269-.052l2.541.234 1.629-1.959a.497.497 0 01.87.21l.564 2.487 2.367.945a.495.495 0 01.3.426.487.487 0 01-.243.465l-2.19 1.305-.168 2.544a.496.496 0 01-.534.465zm-2.142-2.052l2.007 1.761a.265.265 0 00.285.045.26.26 0 00.168-.234l.177-2.661 2.292-1.365a.268.268 0 00.103-.11.27.27 0 00-.023-.288.267.267 0 00-.119-.091l-2.478-.99-.6-2.604a.274.274 0 00-.477-.114l-1.695 2.046-2.658-.243a.27.27 0 00-.258.129.267.267 0 00-.045.15c0 .053.015.106.045.15l1.422 2.259-1.053 2.451a.268.268 0 00.042.3.273.273 0 00.276.09l2.589-.681zm-2.058 5.817l-.219 1.5 1.104 1.029a.33.33 0 01-.004.497.338.338 0 01-.167.079l-1.5.255-.636 1.368a.332.332 0 01-.295.192.333.333 0 01-.305-.177l-.699-1.338-1.5-.18a.336.336 0 01-.201-.567l1.056-1.08-.3-1.482a.341.341 0 01.126-.333.333.333 0 01.351-.033l1.356.669 1.317-.735a.331.331 0 01.354.018.269.269 0 01.075.069.33.33 0 01.087.249zm3.474-21.105l-.219 1.5 1.107 1.029a.33.33 0 01.093.342.325.325 0 01-.264.234l-1.5.255-.636 1.368a.34.34 0 01-.295.192.336.336 0 01-.305-.177l-.702-1.335-1.5-.183a.336.336 0 01-.201-.567l1.056-1.08-.3-1.482a.336.336 0 01.477-.366l1.353.669 1.32-.735a.337.337 0 01.429.09.317.317 0 01.087.246z" fill="#455A64"/></svg>