<svg width="151" height="150" fill="none" xmlns="http://www.w3.org/2000/svg"><path d="M75.9 142.089c40.379 0 73.113-19.766 73.113-44.148 0-24.382-32.734-44.148-73.113-44.148-40.38 0-73.113 19.766-73.113 44.148 0 24.382 32.734 44.148 73.113 44.148z" fill="#F5F5F5"/><path d="M6.96 101.139L72 138.693a2.8 2.8 0 002.526 0l34.2-19.746c.699-.405.699-1.056 0-1.461L43.692 79.932a2.801 2.801 0 00-2.53 0l-34.2 19.749c-.701.402-.701 1.056-.002 1.458zm68.193-39.087c2.616 1.527 2.616 4.002 0 5.529-2.616 1.527-6.855 1.527-9.471 0-2.616-1.527-2.616-4.002 0-5.529 2.616-1.527 6.855-1.527 9.47 0zm63.249 20.181L97.2 58.44a1.633 1.633 0 00-1.521-.024L72.756 71.7c-.423.246-.423.639 0 .885l9.918 5.715-8.574 5.784c-2.748 1.851-3.339 4.299-1.32 5.463 2.02 1.164 6.759 1.248 9.729-.222l9.831-5.454 4.116 2.376 17.43 10.074a1.704 1.704 0 001.533 0l22.986-13.2c.408-.228.414-.621-.003-.888z" fill="#E0E0E0"/><path d="M105.189 118.263l-30.24 17.457a3.243 3.243 0 01-3.153.057l-60.88-35.151c-.96-.552-1.736-1.8-1.736-2.766s.777-2.211 1.734-2.766l30.129-17.4a3.846 3.846 0 013.47 0l60.676 35.037c.96.555 1.737 1.8 1.737 2.766s-.777 2.214-1.737 2.766z" fill="#459AE9"/><path opacity=".5" d="M41.043 77.7l-30.13 17.4c-.956.555-1.736 1.8-1.733 2.766.003.966.777 2.214 1.734 2.766l60.882 35.145c.463.241.977.37 1.5.375V94.323L44.496 77.7a3.846 3.846 0 00-3.453 0z" fill="#000"/><path opacity=".4" d="M74.949 135.72l30.24-17.457c.96-.552 1.737-1.8 1.737-2.766s-.777-2.211-1.737-2.766L73.305 94.323v41.829a3.194 3.194 0 001.644-.432z" fill="#000"/><path d="M74.231 132.6a3.395 3.395 0 01-3.063 0l-60.26-34.8c-1.296-.75-1.296-1.974 0-2.721L41.038 77.7a3.852 3.852 0 013.474 0l60.673 35.031c.957.552.957 1.455 0 2.004L74.231 132.6z" fill="#459AE9"/><path opacity=".3" d="M74.231 132.6a3.395 3.395 0 01-3.063 0l-60.26-34.8c-1.296-.75-1.296-1.974 0-2.721L41.038 77.7a3.852 3.852 0 013.474 0l60.673 35.031c.957.552.957 1.455 0 2.004L74.231 132.6z" fill="#000"/><path d="M71.304 129.105a3.64 3.64 0 01-3.3 0L16.152 99.168c-.9-.525-.9-1.38 0-1.905l28.344-16.365a3.677 3.677 0 013.3 0l51.852 29.937c.9.525.9 1.383 0 1.908l-28.344 16.362z" fill="#37474F"/><path d="M46.047 80.511a3.36 3.36 0 00-1.551.387L16.152 97.263c-.9.525-.9 1.38 0 1.905l5.619 3.243L46.047 86.91v-6.399z" fill="#263238"/><path d="M47.817 82.137a3.672 3.672 0 00-3.3 0L16.17 98.502c-.16.091-.306.208-.43.345.12.128.258.237.412.321l51.852 29.937a3.64 3.64 0 003.3 0l28.347-16.362c.159-.091.303-.206.426-.342a1.667 1.667 0 00-.408-.327L47.817 82.137z" fill="#459AE9"/><path opacity=".75" d="M47.817 82.137a3.672 3.672 0 00-3.3 0L16.17 98.502c-.16.091-.306.208-.43.345.12.128.258.237.412.321l51.852 29.937a3.64 3.64 0 003.3 0l28.347-16.362c.159-.091.303-.206.426-.342a1.667 1.667 0 00-.408-.327L47.817 82.137z" fill="#fff"/><path d="M26.51 89.61l5.026-2.91c.3-.174.3-.444.033-.6a1.158 1.158 0 00-1.05.021l-5.02 2.901c-.3.171-.3.444-.032.6a1.167 1.167 0 001.044-.012zm8.629-4.974a.3.3 0 000-.6 1.124 1.124 0 00-1.017 0 .3.3 0 000 .6 1.126 1.126 0 001.017 0zm2.037-1.179a.3.3 0 000-.585 1.113 1.113 0 00-1.02 0 .3.3 0 000 .585 1.113 1.113 0 001.02 0zm-16.293 9.408a.3.3 0 100-.6 1.124 1.124 0 00-1.017 0 .3.3 0 000 .6 1.126 1.126 0 001.017 0zm2.037-1.176c.282-.165.282-.426 0-.6a1.124 1.124 0 00-1.017 0c-.282.162-.282.423 0 .6a1.124 1.124 0 001.017 0z" fill="#37474F"/><path d="M30 109.662a1.157 1.157 0 01.543.9.343.343 0 01-.15.318c-.066.036-.3.183-.381.219a.386.386 0 01-.39-.045l-7.047-4.074a1.169 1.169 0 01-.543-.9.346.346 0 01.135-.3l.393-.228a.4.4 0 01.393.045L30 109.662z" fill="#459AE9"/><path opacity=".4" d="M30 109.662a1.157 1.157 0 01.543.9.343.343 0 01-.15.318c-.066.036-.3.183-.381.219a.386.386 0 01-.39-.045l-7.047-4.074a1.169 1.169 0 01-.543-.9.346.346 0 01.135-.3l.393-.228a.4.4 0 01.393.045L30 109.662z" fill="#000"/><path d="M29.634 109.881l-7.06-4.077c-.3-.174-.542-.051-.542.273a1.167 1.167 0 00.543.9l7.059 4.074c.3.174.543.051.543-.273a1.16 1.16 0 00-.543-.897z" fill="#459AE9"/><path opacity=".3" d="M29.634 109.881l-7.06-4.077c-.3-.174-.542-.051-.542.273a1.167 1.167 0 00.543.9l7.059 4.074c.3.174.543.051.543-.273a1.16 1.16 0 00-.543-.897z" fill="#000"/><path d="M20.562 104.205a1.167 1.167 0 01.543.9.335.335 0 01-.15.318l-.381.222a.406.406 0 01-.39-.045l-3.33-1.923a1.167 1.167 0 01-.543-.9.344.344 0 01.138-.3c.069-.042.324-.192.393-.228a.4.4 0 01.393.042l3.327 1.914z" fill="#459AE9"/><path opacity=".4" d="M20.562 104.205a1.167 1.167 0 01.543.9.335.335 0 01-.15.318l-.381.222a.406.406 0 01-.39-.045l-3.33-1.923a1.167 1.167 0 01-.543-.9.344.344 0 01.138-.3c.069-.042.324-.192.393-.228a.4.4 0 01.393.042l3.327 1.914z" fill="#000"/><path d="M20.183 104.424l-3.33-1.923c-.3-.171-.543-.048-.543.276a1.167 1.167 0 00.544.9l3.33 1.923c.3.171.543.048.543-.276a1.156 1.156 0 00-.544-.9z" fill="#459AE9"/><path opacity=".3" d="M20.183 104.424l-3.33-1.923c-.3-.171-.543-.048-.543.276a1.167 1.167 0 00.544.9l3.33 1.923c.3.171.543.048.543-.276a1.156 1.156 0 00-.544-.9z" fill="#000"/><path opacity=".15" d="M47.22 112.686l7.845 4.548a.934.934 0 00.855 0l22.517-12.981a.26.26 0 000-.495l-7.844-4.548a.945.945 0 00-.856 0L47.22 112.2a.262.262 0 00-.12.39c.029.043.07.077.12.096z" fill="#000"/><path d="M77.52 103.089a.303.303 0 00-.175-.243l-7.017-4.05a.915.915 0 00-.837 0L48.074 111.18a.302.302 0 00-.174.243v.735a.302.302 0 00.174.243l7.017 4.05a.935.935 0 00.837 0L77.345 104.1a.305.305 0 00.174-.24v-.771z" fill="#263238"/><path d="M55.092 115.695l-7.017-4.032a.257.257 0 01-.174-.242.254.254 0 01.173-.241l21.418-12.384a.915.915 0 01.837 0l7.017 4.05a.257.257 0 01.173.241.254.254 0 01-.174.242L55.93 115.695a.91.91 0 01-.837 0z" fill="#37474F"/><path d="M55.481 115.8v.753a.853.853 0 01-.393-.096l-7.01-4.05a.304.304 0 01-.174-.243v-.744a.304.304 0 00.173.243l7.011 4.035a.912.912 0 00.393.102z" fill="#263238"/><path d="M69.857 99.435l.696.399-.942.546-.72-.405.942-.543.024.003zm1.09.627l.692.402-.738.426-.702-.39.741-.429.006-.009zm-2.4.132h.014l.696.402-.74.426-.718-.399.738-.429h.01zm3.491.495l.696.402-1.2.69-.717-.402 1.2-.69h.021zm-2.202.015l.696.402-.6.339-.717-.402.6-.339h.021zm-2.4.135h.015l.696.399-.74.429-.718-.405.738-.426.01.003zm1.44.423h.018l.693.399L69 102l-.717-.402.6-.339-.006.003zm4.254.057l.693.399-.924.549-.717-.405.942-.543h.006zm-6.807.162l.693.402-5.346 3.087-.72-.405 5.35-3.084h.023zm4.15.114h.014l.696.402-.6.339-.72-.402.6-.339h.01zm-2.557.222l.696.399-.6.339-.72-.402.6-.339.024.003zm6.3.129l.696.402-.6.339-.72-.405.6-.339.024.003zm-2.4.132h.015l.693.402-.6.339-.717-.405.6-.339.01.003zm-2.304.075h.015l.696.399-.6.339-.72-.402.6-.339.01.003zm-2.556.219l.696.402-.6.339-.72-.405.6-.339.024.003zm6.3.129h.018l.693.402-.6.339-.717-.405.6-.339.006.003zm-2.4.132h.015l.696.402-.6.339-.72-.405.6-.339.01.003zm-2.304.075h.018l.693.399-.6.339-.717-.402.6-.339.006.003zm6.99 0h.015l.696.399-.74.429-.718-.405.738-.426.01.003zm-9.546.219H66l.693.402-.6.339-.693-.402.585-.339h.012zm6.303.129l.693.402-.6.339-.693-.402.6-.339zm-2.403.132l.696.402-.6.339-.693-.399.6-.339-.003-.003zm-2.3.075h.014l.693.402-.6.339-.717-.405.6-.339.01.003zm-2.557.219l.693.402-.6.339-.717-.405.6-.339.024.003zm8.973.111l.696.399-.6.342-.72-.405.6-.339.024.003zm-2.673.018l.696.402-.6.339-.72-.402.6-.339h.024zm-2.4.132h.018l.693.402-.6.339-.729-.384.6-.339.018-.018zm-2.3.075l.695.402-.6.339-.72-.405.6-.339.024.003zm-2.557.219h.015l.696.402-.6.339-.72-.402.6-.339h.01zm8.973.111h.018l.693.402-.6.339-.717-.405.585-.339.021.003zm-2.673.018h.015l.696.402-.6.339-.72-.402.6-.339h.01zm-2.4.135l.696.399-.6.339-.72-.402.6-.339.024.003zm-2.304.072l.696.402-.6.339-.717-.414.585-.339.036.012zm-2.556.222h.015l.696.399-.6.339-.717-.402.585-.339.021.003zm8.976.108l.693.402-.6.339-.717-.405.6-.339.024.003zm-2.676.021h.018l.693.399-.6.339-.717-.402.6-.339.006.003zm-8.805.06H60.6l.696.402-.74.426-.718-.402.738-.429.042.003zm6.402.072h.015l.696.399-.6.342-.72-.405.6-.339.01.003zm-2.3.072h.014l.693.402-.6.339-.717-.402.6-.339h.01zm-2.557.222l.693.399-.6.339-.717-.402.6-.339.024.003zm8.973.108h.015l.696.402-.6.339-.747-.399.6-.339.036-.003zm-2.673.021l.696.399-.6.342-.717-.405.6-.339.021.003zm-2.4.132h.018l.693.402-.6.339-.717-.405.6-.339.006.003zm-6.552.018h.015l.696.399-.74.429-.718-.405.738-.426.01.003zm4.251.054l.678.417-.6.339-.72-.402.6-.339.042-.015zm-2.556.222H61.2l.696.402-.6.339-.72-.405.6-.339.03.003zm6.3.129H67.5l.696.402-.6.339-.72-.405.6-.339.03.003zm-2.4.132l.696.402-.6.339-.717-.405.6-.339.021.003zm-2.304.075h.015l.696.399-.6.339-.72-.402.6-.339.01.003zm6.963 0l.693.402-.6.339-.717-.405.6-.339.024.003zm-11.364.015l.693.402-.738.426-.72-.405.741-.426.024.003zm1.845.189h.015l.696.402-.6.339-.717-.405.585-.339.021.003zm6.3.129h.018l.693.402-.6.339-.717-.405.585-.339.021.003zm-2.4.132h.015l.696.402-.6.339-.72-.405.6-.339.01.003zm-2.304.075h.018l.693.402-.6.339-.753-.387.6-.339.042-.015zm6.963.015h.015l.696.402-.6.339-.72-.405.6-.339.01.003zm-11.517.102l.696.402-.942.543-.72-.402.942-.543h.024zm1.998.102h.018l.693.402-1.893 1.098-.717-.405 1.854-1.071.045-.024zm6.3.129h.015l.693.402-.6.339-.717-.405.6-.336h.01zm-2.4.132h.018l.693.402-.6.339-.717-.402.585-.339h.021zm-2.3.075h.014l.696.402-.6.339-.72-.405.6-.339.01.003zm6.96.015h.014l.696.402-.6.339-.756-.384.585-.339.06-.018zm-3.217.333h.015l.696.402-.6.339-.72-.402.6-.339h.01zm-8.856.093l.696.399-.6.339-.72-.402.6-.339.024.003zm6.453.042h.015l.693.399-.6.339-.717-.402.6-.339.01.003zm-2.304.072h.015l.696.402-.537.3a.118.118 0 00-.043.041.114.114 0 00.046.16l.9.525-.69.399-1.8-1.032 1.398-.807.015.012zm6.963.015h.015l.693.402-.6.339-.717-.402.6-.339h.01zm-3.219.336l.696.399-.6.339-.717-.402.6-.339.021.003zm-8.856.09h.015l.696.399-.62.369-.718-.405.585-.339.042-.024zm6.453.042h.015l.696.399-.6.339-.72-.402.6-.339.01.003zm4.24.33h.017l.693.402-.6.339-.717-.405.585-.339.021.003zm-2.797.093h.015l.693.399-.6.342-.717-.405.6-.339.01.003zm-8.859.09h.018l.693.402-.6.339-.717-.405.6-.339.006.003zm2.052.072h.015l.693.402-.6.339-.717-.405.6-.339.01.003zm8.643.3h.015l.693.402-.6.339-.75-.384.6-.339.042-.018zm-2.799.093h.015l.696.399-1.044.6-.72-.402 1.044-.6.01.003zm-9.06.207h.015l.696.402-1.55.9-.718-.405 1.548-.9.01.003zm6.351.099h.018l.693.402-.6.339-.717-.402.6-.339h.006zm4.545.159h.015l.696.402-.6.339-.72-.402.6-.339h.01zm-9.807.369h.015l.693.402-.6.339-.717-.402.6-.339h.01zm4.302.03h.015l.693.399-.6.339-.717-.402.6-.339.01.003zm2.05.072l.695.399-.6.342-.72-.405.6-.339.024.003zm2.492.084l.696.399-.6.339-.717-.402.6-.339.021.003zm-11.856.3h.015l.696.402-.6.339-.72-.402.6-.339h.01zm2.05.075h.014l.696.399-.6.339-.72-.402.6-.339.01.003zm4.301.027h.015l.654.426-.6.342-.72-.405.6-.339.051-.024zm-2.253.045h.015l.696.399-.6.339-.717-.402.585-.339.021.003zm4.302.027h.015l.696.402-.6.339-.72-.405.6-.339.01.003zm2.283.207h.015l.693.399-.6.342-.717-.405.6-.339.01.003zm-11.646.177h.015l1.782 1.026-.6.342-1.8-1.032.6-.339.003.003zm2.05.072h.017l.693.399-.6.342-.717-.405.6-.339.006.003zm2.048.072h.018l.693.399-.6.342-.717-.405.6-.339.006.003zm4.302.027h.018l.693.402-.6.339-.717-.405.585-.339.021.003zm-2.25.045h.015l.693.402-.6.339-.747-.387.6-.339.04-.015zm4.533.162l.696.402-.6.339-.72-.405.6-.339.024.003zm-7.545.321h.015l.696.402-.6.339-.72-.405.6-.339.01.003zm2.05.072h.014l.696.402-.6.339-.72-.405.6-.339.01.003zm2.015.099l.696.402-.6.339-.72-.405.6-.339.024.003zm2.484.09h.015l.696.402-.6.339-.717-.405.585-.339.021.003zm-7.545.321h.015l1.782 1.029-.6.339-1.8-1.032.6-.339.003.003zm2.05.072l.695.402-.6.339-.684-.417.6-.336-.012.012zm2.048.072h.015l.696.402-.6.339-.717-.402.6-.339h.006zm2.553.345l.3.171-.6.339-.324-.174.6-.339.024.003zm-3.522.186h.015l.693.402-.6.339-.717-.402.6-.339h.01zm2.56.369h.017l.3.171-.6.339-.32-.174.581-.339.021.003zm-3.523.189h.015l.696.399-.6.339-.72-.402.6-.339.01.003zm2.562.366h.015l.3.171-.6.339-.32-.174.6-.336h.005zm-.963.555l.3.171-.6.339-.324-.174.6-.336h.024z" fill="#459AE9"/><path opacity=".1" d="M29.7 104.184c.324.819 1.023 1.245 2.058 1.707 3.03 1.365 10.293 3 14.37 3.726 2.373.423 4.8 1.2 7.224 1.305 2.169.087 4.419-.3 6.219-1.524a1.35 1.35 0 00.582-.633 1.024 1.024 0 00-.507-1.125 3.061 3.061 0 00-1.281-.339 52.248 52.248 0 01-14.043-3.723c2.013-.213 4.059-.432 5.93-1.2 1.873-.768 3.6-2.169 4.249-4.083.132-.384.24-.81.558-1.065a1.29 1.29 0 011.224-.114c1.317.471 1.839 2.013 2.229 3.357.39 1.344 1.038 2.877 2.4 3.186-.495-.3-.3-1.158.222-1.365.522-.207 1.16.117 1.479.6.318.483.399 1.032.663 1.521.264.489.83.9 1.344.699.27-.136.483-.363.6-.642.726-1.419.6-3.168-.042-4.629-.642-1.461-1.72-2.685-2.871-3.786-1.605-1.533-3.411-2.91-5.49-3.69-4.35-1.635-9.243-.444-13.554 1.296a56.335 56.335 0 00-9.327 4.815 15.637 15.637 0 00-3.072 2.4c-.657.702-1.347 1.698-1.278 2.7.007.207.045.411.114.606z" fill="#000"/><path d="M66.57 99.513c-.636-.984-1.776-3-2.133-3.414-.975-1.11-2.985-2.865-2.985-2.865-1.896-1.545-7.72-6.687-7.72-6.687s-.9-11.4-1.907-13.224c-1.164-2.124-3.378-2.211-5.67-2.349 0 0-.6 2.475-.834 4.5 0 0 2.06 12.786 2.307 13.974.246 1.188.849 1.71 2.076 2.499 1.875 1.2 8.658 4.845 8.658 4.845l.333.231c.228.161.4.39.492.654.088.263.147.534.177.81.108.945 0 1.2.08 2.232.082 1.032.3.999.706 1.884.363.819.47 1.332.77 1.362.3.03.685-.636.685-1.311 0-.675-.411-1.419-.426-1.704-.015-.285.135-.639.777-.261s1.242 1.527 1.719 2.322c.477.795.732 1.845 1.215 2.418.483.573.663-.063.885-.6.222-.537 1.305-1.413 1.59-2.271.285-.858-.165-2.058-.795-3.045z" fill="#FFA8A7"/><path d="M46.155 70.902c1.578 0 2.859-.174 4.248.672 1.389.846 1.764 2.004 2.079 3.804.285 1.638.864 7.278.864 7.278s-4.008 2.211-7.5.801l.309-12.555z" fill="#37474F"/><path d="M49.473 63.168a8.896 8.896 0 011.902.882 1.677 1.677 0 01.579 2.274l-.723-.144s.372-.849-.063-1.302c-.435-.453-1.707-.846-1.707-.846l.012-.864z" fill="#263238"/><path d="M51.654 65.853c-.6-.285-.87.081-1.284 1.077-.414.996-.13 1.269.375 1.467.504.198.9-.135 1.2-.96.348-.927.339-1.275-.291-1.584z" fill="#459AE9"/><path opacity=".1" d="M51.702 65.862c-.6-.285-.87.081-1.284 1.077-.414.996-.129 1.269.375 1.467.504.198.9-.135 1.2-.96.351-.927.342-1.275-.291-1.584z" fill="#000"/><path d="M39.645 71.628c-3.3.741-6.846 1.8-9.504 2.955 0 0-.213 11.373 1.629 16.8 1.842 5.427 1.31 11.61 1.31 11.61 9 1.455 19.918-2.727 19.648-7.263A20.09 20.09 0 0051.21 93s-.225-3.645-.126-5.268c6.6-6.177-2.565-14.1-4.93-16.818-1.44.186-3.554.051-6.51.714z" fill="#455A64"/><path d="M39.102 54.915c-.426.765-.25 1.668-.075 2.478.135.618.504 1.383.348 2.01a4.066 4.066 0 01-1.5 2.154 4.41 4.41 0 01-.567.402c-.171.093-.37.135-.543.231-.37.217-.675.527-.885.9a6.786 6.786 0 00-.642 1.704 5.944 5.944 0 01-.675 1.689 3.493 3.493 0 01-3.102 1.467 4.2 4.2 0 01-1.87-.6 4.954 4.954 0 01-.8-.6 2.031 2.031 0 01-.528-.702c-.088.8.112 1.605.564 2.271a3.977 3.977 0 01-4.635-4.461c.108-.768.435-1.5.6-2.247.456-2.04-1.374-3.156-1.674-5.016a2.883 2.883 0 011.47-2.94c.627-.33 1.452-.495 1.713-1.152.2-.504-.045-1.065-.036-1.608 0-1.074 1.014-1.893 2.034-2.217 1.02-.324 2.127-.321 3.156-.627 1.098-.324 2.1-.993 3.216-1.2a4.145 4.145 0 013.66 1.248c.423.45.654.975 1.029 1.44.375.465.948.705 1.224 1.251a2.524 2.524 0 01.078 2.322c-.375.717-1.17 1.11-1.56 1.803z" fill="#37474F"/><path d="M49.25 57.339c-.125-3.57-2.198-8.664-9.87-8.013-7.475.636-9.674 7.305-9 10.926.952 4.998 4.588 5.319 5.533 8.586L49.25 57.339z" fill="#455A64"/><path d="M32.532 60.069a1.799 1.799 0 011.878-.624c.361.102.684.311.924.6.345.381.339.9.582 1.335a.988.988 0 00.732.531c1.029.093.645-1.578.702-2.172 1.944-.69 1.89-1.41 2.154-3.126 1.362-1.47 3.726-1.686 5.772-.279 1.248-2.4 2.6-2.1 3.186-1.359a9.6 9.6 0 01.873 2.793c.283 1.45.393 2.93.327 4.407-.252 5.733-2.142 7.11-3.084 7.5-.942.39-2.1.108-3.831-.219V72.9c1.8 3.435 3.237 8.634 3.168 12.03-2.77-5.244-7.104-8.049-9.153-9.954a7.842 7.842 0 01-1.24-1.428V64.5s-.755.807-1.955-.147c-1.605-1.284-2.097-3.084-1.035-4.284z" fill="#FFA8A7"/><path d="M42.747 69.462c-1.5-.39-3.105-.957-4.2-1.8a5.185 5.185 0 01-1.626-2.283s.129 2.211 1.242 3.207 4.596 2.145 4.596 2.145l-.012-1.269z" fill="#F28F8F"/><path d="M42.98 61.47a.795.795 0 11-.9-.711.808.808 0 01.9.711zm5.635-.699a.729.729 0 01-.6.837.69.69 0 01-.816-.645.722.722 0 011.428-.192h-.012z" fill="#263238"/><path d="M44.646 59.778l.564 4.776 2.454-.936-3.018-3.84z" fill="#F28F8F"/><path d="M42.555 59.061l-1.8.822a1.032 1.032 0 01.501-1.341.967.967 0 011.299.519z" fill="#263238"/><path d="M41.976 65.154l2.583.876a1.431 1.431 0 01-1.782.87 1.332 1.332 0 01-.801-1.746z" fill="#B16668"/><path d="M42.039 65.757a1.34 1.34 0 011.266 1.2 1.297 1.297 0 01-1.398-1.188.913.913 0 01.132-.012z" fill="#F28F8F"/><path d="M48.846 59.268l-1.818-.798a.952.952 0 011.278-.531 1.044 1.044 0 01.54 1.329zm-6.099 11.295c1.158.336 4.542 4.914 5.64 6.564l-1.242 3.168c.743.769 1.4 1.617 1.959 2.529l-2.53 7.365s.229-9.813-3.827-17.28v-2.346z" fill="#263238"/><path d="M46.239 84.573c.9 2.337 1.026 7.755 1.026 7.755s-.9-5.055-5.151-6.825c0-.243.045-3.705.045-3.705s-5.7-1.446-6.9-1.989l-1.227-6.6s.819-2.046 1.5-2.1v1.425a66.283 66.283 0 015.379 4.734c3.108 2.997 4.434 4.968 5.328 7.305z" fill="#37474F"/><path d="M60.975 107.871c-.918-.771-2.247-1.839-3.3-2.1a5.962 5.962 0 00-.747-.165 7.935 7.935 0 001.047-.3c.343-.137.639-.37.852-.672.078-.123.126-.3 0-.396a.252.252 0 00-.153-.042c-.777.039-1.398-.03-2.1-.024a3.03 3.03 0 00-.948.096 16.85 16.85 0 00-.84.333c-1.251.552-2.4 1.05-4.248.777l-.774-.204-13.014-6.705-2.47-13.44s-.6-8.334-3.974-10.356c-1.8.684-3.771 2.376-4.305 4.2-.63 2.169-.384 5.25.69 10.029.9 3.999 1.839 8.1 2.856 11.145s1.407 4.122 3.405 4.719c3.35 1.002 15.44 4.317 15.44 4.317.248.096.5.179.757.249.417.117.807.405 1.8.621 1.179.258 2.613-.279 3.6-.417.987-.138 2.72.186 3.678.486.957.3 1.95-1.218 2.427-1.083.477.135 1.242-.294.32-1.068z" fill="#FFA8A7"/><path d="M56.442 105.096a3.518 3.518 0 00-1.395.345 7.72 7.72 0 011.869.168 7.935 7.935 0 001.047-.3c.301-.123.568-.318.777-.567-.54.426-1.62.366-2.298.354z" fill="#F28F8F"/><path d="M30.14 74.583c-2.33.996-3.875 2.214-4.5 4.779-.623 2.565-.182 4.818.343 7.533.525 2.715 1.755 7.128 1.755 7.128s4.989.3 7.866-1.695l-1.575-10.236s-.831-6.078-3.73-7.416" fill="#37474F"/><path d="M34.152 50.517c-1.752 1.623-3.432 3.924-2.187 9.249a2.888 2.888 0 00-.723 3c.48 1.644 2.058 2.727 3.525 2.4 1.467-.327 2.262-1.893 1.782-3.54-.363-1.23-1.683-2.421-2.77-2.343 0 0-1.04-2.277-.065-5.505 1.332-4.398 6.459-4.764 8.715-4.407-.756-1.071-5.961-.999-8.277 1.146z" fill="#459AE9"/><path opacity=".4" d="M34.152 50.517c-1.752 1.623-3.432 3.924-2.187 9.249a2.888 2.888 0 00-.723 3c.48 1.644 2.058 2.727 3.525 2.4 1.467-.327 2.262-1.893 1.782-3.54-.363-1.23-1.683-2.421-2.77-2.343 0 0-1.04-2.277-.065-5.505 1.332-4.398 6.459-4.764 8.715-4.407-.756-1.071-5.961-.999-8.277 1.146z" fill="#000"/><path d="M36.86 61.569c-.533-1.824-2.282-3.021-3.9-2.679-.246.052-.484.14-.704.264-.183.102-.735.48-.843.552-1.038.687-1.5 2.1-1.09 3.552.535 1.824 2.284 3.021 3.9 2.679.299-.063.583-.179.84-.342.133-.084.649-.429.775-.519.993-.699 1.44-2.076 1.023-3.507z" fill="#459AE9"/><path opacity=".3" d="M36.86 61.569c-.533-1.824-2.282-3.021-3.9-2.679-.246.052-.484.14-.704.264-.183.102-.735.48-.843.552-1.038.687-1.5 2.1-1.09 3.552.535 1.824 2.284 3.021 3.9 2.679.299-.063.583-.179.84-.342.133-.084.649-.429.775-.519.993-.699 1.44-2.076 1.023-3.507z" fill="#000"/><path d="M36.198 62.013c-.534-1.821-2.283-3.021-3.9-2.676-1.617.345-2.508 2.1-1.974 3.921.534 1.821 2.283 3.021 3.9 2.679 1.617-.342 2.508-2.1 1.974-3.924z" fill="#459AE9"/><path opacity=".1" d="M36.198 62.013c-.534-1.821-2.283-3.021-3.9-2.676-1.617.345-2.508 2.1-1.974 3.921.534 1.821 2.283 3.021 3.9 2.679 1.617-.342 2.508-2.1 1.974-3.924z" fill="#000"/><path d="M34.647 62.343c-.252-.861-1.08-1.425-1.845-1.263-.765.162-1.2.99-.933 1.851.267.861 1.08 1.425 1.845 1.263.765-.162 1.185-.993.933-1.851z" fill="#37474F"/><path opacity=".1" d="M70.425 126.852l-6.066-3.552a.301.301 0 01-.212-.512.301.301 0 01.212-.088l23.787-13.734a1.104 1.104 0 011.008 0l6.06 3.525a.302.302 0 01.227.291.302.302 0 01-.227.291L71.43 126.855a1.11 1.11 0 01-1.005-.003z" fill="#000"/><path d="M92.561 106.842l1.593-18.9a1.617 1.617 0 00-.708-1.416 1.8 1.8 0 00-1.62.03l-23.76 13.719a2.07 2.07 0 00-.918 1.446l-1.59 18.9a1.605 1.605 0 00.705 1.416 1.796 1.796 0 001.623-.03l23.76-13.707a2.06 2.06 0 00.915-1.458z" fill="#263238"/><path d="M94.151 87.939l-1.59 18.9 1.155-18.762c.043-.531-.15-.732-.6-.468l-23.469 13.563c-.244.156-.45.367-.6.615l-1.569-.9c.15-.244.356-.45.6-.6l23.757-13.719a1.814 1.814 0 011.627-.03 1.612 1.612 0 01.69 1.401z" fill="#37474F"/><path d="M67.127 121.527l1.594-18.9a2.06 2.06 0 01.914-1.446L93.105 87.6c.462-.267.653-.063.6.468l-1.156 18.762a2.06 2.06 0 01-.915 1.449l-23.76 13.716c-.45.279-.788.066-.746-.468z" fill="#455A64"/><path d="M78.8 110.103l-.183 5.694 6.6-3.795-1.608-4.662-4.809 2.763z" fill="#263238"/><path d="M79.763 110.73l4.608-2.676-.785-.453-4.605 2.679.782.45z" fill="#455A64"/><path d="M86.891 116.049l-2.52-7.995-4.608 2.679-.78-.456.516 6.156.13 1.77.074.378-.336-.192-1.5-.858a.252.252 0 00-.225-.03.23.23 0 00-.105.219v.135a.72.72 0 00.324.57l2.466 1.425a.73.73 0 00.3.078.683.683 0 00.357-.081l5.613-3.24a.58.58 0 00.294-.558zm-3.543-.684a.97.97 0 01-1.5-.6 1.858 1.858 0 01.825-1.962.962.962 0 011.5.6 1.853 1.853 0 01-.825 1.962z" fill="#37474F"/><path d="M77.648 117.504l1.914-1.104.387 2.574-2.3-1.47z" fill="#000"/><path d="M79.763 110.733l-.782-.453.648 7.92c.041.21-.079.3-.258.186l-1.5-.858c-.183-.108-.33-.018-.33.192v.132a.722.722 0 00.318.573l2.472 1.425a.697.697 0 00.3.078l-.868-9.195zm3.585 4.632a.962.962 0 01-1.254-.135c.245.026.491-.031.7-.162a1.846 1.846 0 00.824-1.959 1.142 1.142 0 00-.249-.477.977.977 0 01.801.771 1.854 1.854 0 01-.822 1.962z" fill="#263238"/><path d="M79.4 103.335l-.3 3.645c-.02.24.111.351.3.246a.856.856 0 00.366-.621l.3-3.642c.021-.243-.11-.351-.3-.249a.882.882 0 00-.366.621zm1.182-.681l-.3 3.642c-.02.24.112.351.3.249a.882.882 0 00.367-.624l.3-3.642c.02-.24-.111-.351-.3-.246a.869.869 0 00-.367.621zm1.183-.684l-.3 3.645c-.021.24.11.351.3.246a.857.857 0 00.366-.621l.3-3.642c.02-.243-.111-.351-.3-.249a.882.882 0 00-.366.621zm1.181-.681l-.3 3.642c-.018.24.111.351.3.249a.882.882 0 00.366-.624l.3-3.642c.021-.24-.11-.351-.3-.246a.869.869 0 00-.366.621zM66.825 65.421c-1.92-1.983-3.051-10.053-1.176-11.628h9.537c1.875 1.572.747 9.642-1.173 11.625l-.054.054-.066.066a2.198 2.198 0 01-.174.156l-.045.036a2.907 2.907 0 01-.393.273c-1.581.921-4.143.921-5.724 0-.087-.048-.168-.105-.252-.162-.084-.057-.09-.069-.135-.105-.045-.036-.04-.027-.057-.045-.018-.018-.114-.099-.168-.15l-.075-.075-.045-.045z" fill="#459AE9"/><path opacity=".3" d="M66.825 65.421c-1.92-1.983-3.051-10.053-1.176-11.628h9.537c1.875 1.572.747 9.642-1.173 11.625l-.054.054-.066.066a2.198 2.198 0 01-.174.156l-.045.036a2.907 2.907 0 01-.393.273c-1.581.921-4.143.921-5.724 0-.087-.048-.168-.105-.252-.162-.084-.057-.09-.069-.135-.105-.045-.036-.04-.027-.057-.045-.018-.018-.114-.099-.168-.15l-.075-.075-.045-.045z" fill="#000"/><path d="M74.358 53.16c2.175 1.272 2.175 3.33 0 4.602-2.175 1.272-5.7 1.269-7.881 0s-2.175-3.33 0-4.602c2.175-1.272 5.706-1.26 7.88 0z" fill="#459AE9"/><path opacity=".1" d="M74.358 53.16c2.175 1.272 2.175 3.33 0 4.602-2.175 1.272-5.7 1.269-7.881 0s-2.175-3.33 0-4.602c2.175-1.272 5.706-1.26 7.88 0z" fill="#000"/><path d="M73.31 53.772c1.6.933 1.6 2.445 0 3.378-1.598.933-4.2.933-5.786 0-1.587-.933-1.6-2.445 0-3.378 1.599-.933 4.19-.933 5.787 0z" fill="#455A64"/><path d="M67.524 55.374c1.599-.933 4.2-.933 5.787 0 .39.215.718.525.957.9a2.635 2.635 0 01-.957.9c-1.596.933-4.2.933-5.787 0a2.658 2.658 0 01-.957-.9 2.7 2.7 0 01.957-.9z" fill="#F5F5F5"/><path d="M75.705 39.717l-3.813 2.607 3.6-1.365a6.562 6.562 0 01-.714 2.772s-2.382 1.155-3.675 2.373l3.17-.996a15.494 15.494 0 01-.512 3.492c-.273 1.008-1.2 2.883-1.77 3.852-.263.449-.555.88-.873 1.29-.018.027-.04.051-.06.078-.6-.393-1.2-.78-1.836-1.155-.37-.936-.771-3.21-.846-5.055-.276-7.065 5.307-10.707 9.663-11.754a12.744 12.744 0 00-2.334 3.861z" fill="#459AE9"/><path opacity=".2" d="M75.705 39.717l-3.813 2.607 3.6-1.365a6.562 6.562 0 01-.714 2.772s-2.382 1.155-3.675 2.373l3.17-.996a15.494 15.494 0 01-.512 3.492c-.273 1.008-1.2 2.883-1.77 3.852-.263.449-.555.88-.873 1.29-.018.027-.04.051-.06.078-.6-.393-1.2-.78-1.836-1.155-.37-.936-.771-3.21-.846-5.055-.276-7.065 5.307-10.707 9.663-11.754a12.744 12.744 0 00-2.334 3.861z" fill="#000"/><path d="M72.663 39.795a5.277 5.277 0 00-.99 1.2c-.268.446-.501.911-.7 1.392a14.38 14.38 0 00-.854 2.985 13.2 13.2 0 00.336 6.141.103.103 0 01-.07.111.102.102 0 01-.122-.051 13.34 13.34 0 01-.24-6.219c.19-1.03.492-2.035.9-3 .205-.48.447-.943.723-1.386.28-.438.623-.833 1.017-1.173z" fill="#FAFAFA"/><path d="M58.8 41.808a54.334 54.334 0 013.618 5.43l3.654.705-2.721.39 1.383 2.346 3.6.861-2.835.372s.699 2.778 2.682 3.987c1.095.669 1.638.783 1.983.474.24-.216.336-1.536.567-2.7.23-1.164.3-3.087-.735-5.436a7.204 7.204 0 00-1.104-1.734c-2.577-3.063-7.584-4.653-10.092-4.695z" fill="#459AE9"/><path opacity=".3" d="M58.8 41.808a54.334 54.334 0 013.618 5.43l3.654.705-2.721.39 1.383 2.346 3.6.861-2.835.372s.699 2.778 2.682 3.987c1.095.669 1.638.783 1.983.474.24-.216.336-1.536.567-2.7.23-1.164.3-3.087-.735-5.436a7.204 7.204 0 00-1.104-1.734c-2.577-3.063-7.584-4.653-10.092-4.695z" fill="#fff"/><path opacity=".1" d="M69.228 49.437c.394.979.647 2.01.75 3.06a32.852 32.852 0 01-.018 3.984.617.617 0 00.207-.117c.24-.216.336-1.536.567-2.7.23-1.164.3-3.087-.735-5.436a7.202 7.202 0 00-1.104-1.734c-2.583-3.06-7.59-4.65-10.09-4.692 3.817.747 7.86 3.423 9.805 6.453.24.375.446.77.618 1.182z" fill="#000"/><path d="M62.616 43.128a14.97 14.97 0 014.998 3.687 9.9 9.9 0 011.671 2.649c.401.966.64 1.992.705 3.036a12.134 12.134 0 00-.873-2.964 11.516 11.516 0 00-1.605-2.628 13.261 13.261 0 00-2.247-2.13 17.685 17.685 0 00-2.637-1.641s-.018-.009-.012-.009z" fill="#FAFAFA"/><path d="M81.6 44.415a7.783 7.783 0 00-.924 0c-1.215.07-2.416.29-3.576.654-.432.135-.864.3-1.29.465-.216.087-.426.18-.636.279a10.318 10.318 0 00-2.82 1.896 6.47 6.47 0 00-1.002 1.257l-.111.177c-.087.156-.165.3-.243.462a8.843 8.843 0 00-1.035 4.302c-.021 1.056.27 2.277.465 2.487a.505.505 0 00.087.072c.3.21.774.123 1.692-.327 1.845-.9 2.7-3.393 2.7-3.393l-2.46-.561 3.225-.459 1.407-1.95-2.38-.576 3.259-.3a48.302 48.302 0 013.624-4.476l.018-.009z" fill="#459AE9"/><path opacity=".1" d="M80.664 44.4c-1.211.076-2.408.3-3.564.669-.432.135-.864.3-1.29.465-.216.087-.426.18-.636.279a10.32 10.32 0 00-2.82 1.896 6.47 6.47 0 00-1.002 1.257l-.111.177c-.087.156-.165.3-.243.462a8.844 8.844 0 00-1.035 4.302c-.021 1.056.27 2.277.465 2.487a.505.505 0 00.087.072c.057.04.123.07.192.084-.13-1.644.9-5.739 2.21-7.374 1.366-1.701 4.5-4.101 8.68-4.761a7.604 7.604 0 00-.933-.015z" fill="#000"/><path d="M70.683 56.553a14.006 14.006 0 01.435-3.6 11.646 11.646 0 011.386-3.357c.337-.51.73-.981 1.173-1.404.435-.425.904-.815 1.4-1.167a13.433 13.433 0 013.223-1.689 17.7 17.7 0 00-3.1 1.839c-.484.354-.946.738-1.382 1.149a7.956 7.956 0 00-1.176 1.347 11.625 11.625 0 00-1.425 3.3 14.055 14.055 0 00-.51 3.57l-.024.012zM98.78 81.69h3.046l-.489 2.97a.546.546 0 01-.3.369 1.635 1.635 0 01-1.473 0 .554.554 0 01-.3-.369l-.483-2.97zm16.72-8.958h3.045l-.486 2.97a.554.554 0 01-.3.366 1.631 1.631 0 01-1.473 0 .553.553 0 01-.3-.366l-.486-2.97zm-39.276-3.675h3.045l-.486 2.97a.536.536 0 01-.3.366 1.613 1.613 0 01-1.473 0 .536.536 0 01-.3-.366l-.486-2.97zm15.489-9.009h3.045l-.486 2.97a.544.544 0 01-.3.366 1.633 1.633 0 01-1.473 0 .543.543 0 01-.3-.366l-.486-2.97z" fill="#FAFAFA"/><path d="M73.8 53.448v14.184a3.278 3.278 0 001.47 2.568l1.2.696h.02a3.336 3.336 0 001.846.315l18.075 9.564a3.3 3.3 0 001.458 2.454h.015l1.2.69a.675.675 0 00.11.06l.064.03h.018a3.349 3.349 0 002.547.012 1.377 1.377 0 00.213-.108l17.4-10.014a3.27 3.27 0 001.476-2.556l.024-17.955v-6.813a3.3 3.3 0 00-1.476-2.559l-19.452-11.208a3.052 3.052 0 00-2.85.048l-1.2.693a3.927 3.927 0 00-1.701 2.544l-1.158 7.599-1.071-.618a3.204 3.204 0 00-3.213 0L75.27 50.892a3.28 3.28 0 00-1.47 2.556z" fill="#37474F"/><path d="M95.955 33.549l1.2-.693a3.051 3.051 0 012.85-.048l19.449 11.208c.087.051.18.117.153.096a3.375 3.375 0 011.308 2.214c-.108-.756-.723-1.029-1.458-.6l-1.2.696a3.26 3.26 0 01-2.952 0l-19.347-11.16c-.82-.462-.82-1.242-.003-1.713z" fill="#455A64"/><path d="M73.8 53.448v14.184a3.279 3.279 0 001.47 2.568l1.2.696h.02c.535.27 1.136.384 1.732.327.42-.025.829-.141 1.2-.339L93.096 63a3.278 3.278 0 001.476-2.559v-14.19a3.273 3.273 0 00-1.476-2.559l-1.071-.618a3.204 3.204 0 00-3.213 0L75.27 50.892a3.279 3.279 0 00-1.47 2.556z" fill="#263238"/><path d="M92.022 43.074l1.074.618c.813.468.813 1.236 0 1.704l-13.668 7.893a3.276 3.276 0 00-1.48 2.559v14.181c0 .939-.665 1.323-1.478.855l-1.2-.696a3.279 3.279 0 01-1.476-2.556V53.448a3.3 3.3 0 011.476-2.559l13.542-7.8a3.198 3.198 0 013.21-.015z" fill="#455A64"/><path d="M77.949 55.848v14.181c0 .939-.666 1.323-1.48.855l-1.2-.696a3.28 3.28 0 01-1.475-2.556V53.448a3.04 3.04 0 01.435-1.455l4.155 2.4c-.267.44-.416.94-.435 1.455z" fill="#37474F"/><path d="M78.564 71.223c.141.294.323.566.54.81.417.385.884.712 1.389.972 5.193 3 8.94 5.154 14.133 8.154a1.638 1.638 0 001.476 0l4.8-2.775 9.6-5.544a2.773 2.773 0 001.079-3.884 2.772 2.772 0 00-1.079-1.021L105.06 64.8l-4.155-2.4-4.515-2.598a3.26 3.26 0 00-2.955 0L79.77 67.686a3.168 3.168 0 00-1.479 2.451c.012.377.105.748.273 1.086z" fill="#263238"/><path d="M94.626 77.961l-15.6-9c-.405-.234-.738-.042-.738.429v1.5a1.644 1.644 0 00.738 1.278l15.6 9c.408.234.738.042.738-.426v-1.5a1.626 1.626 0 00-.738-1.281zm1.764-25.482l14.121 8.142a3.258 3.258 0 011.476 2.559v3a3.27 3.27 0 01-1.476 2.556L96.84 76.617a3.26 3.26 0 01-2.952 0l-14.121-8.145a3.27 3.27 0 01-1.476-2.556v-3a3.273 3.273 0 011.476-2.559l13.671-7.89a3.262 3.262 0 012.952.012z" fill="#37474F"/><path d="M95.364 70.569v6.402a3 3 0 001.476-.357l13.671-7.89a3.278 3.278 0 001.476-2.556v-3a3.3 3.3 0 00-1.326-2.463c.66.474.6 1.17-.15 1.611l-13.671 7.89a3 3 0 01-1.476.363z" fill="#263238"/><path d="M93.9 70.218l-14.12-8.145c-.814-.471-.814-1.233 0-1.704l13.67-7.89a3.26 3.26 0 012.952 0l14.121 8.142c.816.471.816 1.236 0 1.707l-13.67 7.89a3.26 3.26 0 01-2.953 0z" fill="#455A64"/><path d="M83.805 70.995s1.14 3.648 1.098 5.046c-.048 1.458.264 1.968-.117 3.525-.081.339-.321 1.011-.387 1.287a.41.41 0 00.327.546c.618.183 1.764-.9 2.37-2.157a38.548 38.548 0 001.629-4.428 2.002 2.002 0 00-.114-1.032 3 3 0 00-.246-.552c-.156-.648-.153-1.857-.258-2.7l-4.302.465z" fill="#E2B3B5"/><path d="M89.844 76.239c.07.154.114.32.129.489 0 .3-.744 1.2-1.03 1.515a2.331 2.331 0 00-.6 1.608 4.023 4.023 0 01-1.184 2.499 6.396 6.396 0 01-3.34 1.8c-1.565.342-2.04-.468-2.04-.468s-.413-.777-.101-1.056c.312-.279 8.166-6.387 8.166-6.387z" fill="#263238"/><path d="M88.365 73.23c.048 0 .129 0 .237.153.042.057.26.768.462 1.149.2.381.75 1.116.78 1.707-.45 1.101-1.578 1.8-1.827 2.856-.25 1.056-.375 2.295-2.127 3.465-1.752 1.17-3.453 1.164-4.032.765-.58-.399-.468-1.044.483-2.211 1.008-1.239 1.854-4.038 1.854-4.038.112-.394.2-.795.26-1.2.03-.4.03-.8 0-1.2a.9.9 0 01.124-.537.933.933 0 01.477-.276c.281-.103.573-.175.87-.213.299-.04.602.023.86.177.165.14.337.27.514.393a.784.784 0 00.819-.075.676.676 0 00.282-.723 1.74 1.74 0 00-.036-.192z" fill="#455A64"/><path d="M86.94 81.6a2.63 2.63 0 00-2.274-1.5c-1.746-.138-2.424.699-2.733 1.2-.37.6-.792 1.695-.1 2.079.748.414 1.657.384 3.136-.207s1.97-1.572 1.97-1.572zm.123-5.289a.185.185 0 01-.16-.015c-.257-.159-1.658-.579-2.552.123-.102-.096-.066-.252.09-.462 1.026-.537 2.352-.147 2.664.048a.167.167 0 01.048.237.182.182 0 01-.09.069zm-2.979 1.11a.546.546 0 01.144-.471 3.26 3.26 0 012.532.111.168.168 0 01.048.237.183.183 0 01-.246.054c-.252-.153-1.581-.552-2.478.069zm-.909 2.298a1.01 1.01 0 01.276-.615c1.017-.501 2.313-.12 2.622.069a.172.172 0 01.074.178.17.17 0 01-.026.062.186.186 0 01-.249.054c-.27-.168-1.815-.624-2.697.252zm3.201-1.296a.174.174 0 01-.16 0c-.254-.159-1.625-.567-2.522.099a.6.6 0 01.189-.504 3.26 3.26 0 012.532.111.174.174 0 01-.04.3v-.006z" fill="#FAFAFA"/><path d="M81.9 75.195s-1.077 4.245-2.01 5.847c-.933 1.602-1.41 2.376-2.61 3.546-.261.255-.846.72-1.06.927a.431.431 0 000 .666c.448.507 2.5.789 3.727.021 1.227-.768 2.436-2.523 3.183-3.162.282-.24.546-.486.804-.75s.207-.522.252-.825c.02-.15.033-.555.033-.555.219-.711.744-1.8 1.029-2.499L81.9 75.195z" fill="#E2B3B5"/><path d="M84.33 84.195a1.575 1.575 0 01-.1.522c-.137.27-1.232.792-1.65.972a2.448 2.448 0 00-1.28 1.251 4.2 4.2 0 01-2.238 1.833 6.663 6.663 0 01-3.966.216c-1.635-.378-1.72-1.356-1.72-1.356s-.044-.918.376-1.044 10.578-2.394 10.578-2.394z" fill="#263238"/><path d="M84.273 80.7c.045.024.126.057.159.249 0 .075-.096.846-.075 1.293.02.447.21 1.392-.027 1.965-.918.843-2.298.999-3 1.887s-1.377 2.007-3.561 2.331c-2.184.324-3.786-.444-4.155-1.077-.37-.633.02-1.2 1.443-1.878 1.5-.723 3.558-3 3.56-3 .282-.322.543-.662.78-1.017.206-.37.383-.753.532-1.149a.939.939 0 01.354-.453.963.963 0 01.576-.045c.312.028.62.089.918.183.3.098.558.293.735.555.117.192.174.42.3.6a.825.825 0 00.81.3.699.699 0 00.6-.558 1.7 1.7 0 00.05-.186z" fill="#455A64"/><path d="M79.2 87.966a2.746 2.746 0 00-1.485-2.424c-1.59-.915-2.604-.426-3.12-.09-.615.399-1.5 1.248-1.023 1.923.522.726 1.398 1.101 3.06 1.2 1.662.099 2.568-.609 2.568-.609zm2.466-4.944a.191.191 0 01-.144-.084c-.171-.267-1.311-1.29-2.472-1.026-.051-.135.05-.267.3-.396 1.2-.048 2.289.9 2.499 1.233a.174.174 0 01-.063.246.195.195 0 01-.12.027zm-3.312-.282a.563.563 0 01.342-.381 3.433 3.433 0 012.349 1.236.175.175 0 01-.01.2.172.172 0 01-.053.046.192.192 0 01-.258-.057c-.165-.258-1.248-1.227-2.37-1.044zm-1.89 1.77c.122-.21.311-.371.537-.459 1.2-.018 2.244.921 2.448 1.239a.175.175 0 01-.06.246.192.192 0 01-.114.024.183.183 0 01-.144-.084c-.183-.276-1.431-1.404-2.667-.966zm3.609.204a.18.18 0 01-.144-.084c-.17-.264-1.287-1.263-2.433-1.032a.641.641 0 01.402-.393 3.445 3.445 0 012.35 1.236.176.176 0 01-.06.249.192.192 0 01-.115.024z" fill="#FAFAFA"/><path d="M93.45 51.492c-1.875 1.143-8.32 4.173-11.007 6.273-.777.6-1.09 1.464-1.074 3.393.02 2.619 1.317 11.643 1.317 11.643.24.525.813-.384.813-.384l10.779-11.538-.828-9.387z" fill="#459AE9"/><path opacity=".3" d="M93.45 51.492c-1.875 1.143-8.32 4.173-11.007 6.273-.777.6-1.09 1.464-1.074 3.393.02 2.619 1.317 11.643 1.317 11.643.24.525.813-.384.813-.384l10.779-11.538-.828-9.387z" fill="#000"/><path opacity=".3" d="M83.34 70.08c2.4-1.692 10.659-12.561 10.659-12.561-.921-.921-1.2-3.867-1.2-3.867-.486 1.086-.216 2.811.039 3.453-.615.447-4.077 2.838-6.477 4.428a3.225 3.225 0 00-1.5 1.902c-.663 2.394-1.53 6.147-1.521 6.645z" fill="#000"/><path d="M93.45 51.492l12.3 3.831c-.804 2.25-1.08 3.423-1.821 4.581-.741 1.158-1.563 2.4-4.956 3.726-3.27 1.281-7.24 2.55-8.037 2.85-.6.225-.972 1.359-1.362 2.835-.405 1.548-.534 2.778-2.367 5.943-1.8 3.102-2.163 3.774-2.163 3.774s-2.376.045-3.825-1.461c0 0 3.066-10.893 3.69-12.849.348-1.092.402-1.677 1.887-2.784 1.275-.951 6.9-4.5 6.9-4.5s-1.86-3.012-.246-5.946z" fill="#459AE9"/><path opacity=".3" d="M93.45 51.492l12.3 3.831c-.804 2.25-1.08 3.423-1.821 4.581-.741 1.158-1.563 2.4-4.956 3.726-3.27 1.281-7.24 2.55-8.037 2.85-.6.225-.972 1.359-1.362 2.835-.405 1.548-.534 2.778-2.367 5.943-1.8 3.102-2.163 3.774-2.163 3.774s-2.376.045-3.825-1.461c0 0 3.066-10.893 3.69-12.849.348-1.092.402-1.677 1.887-2.784 1.275-.951 6.9-4.5 6.9-4.5s-1.86-3.012-.246-5.946z" fill="#000"/><path d="M94.089 34.5c-.237-.141-.342-1.722-.09-2.85.252-1.128-.27-1.404-.528-1.05a1.849 1.849 0 00-.318.657 3.144 3.144 0 00-1.47.783c-.633.627-1.377 1.392-1.158 3.063.07.556.03 1.12-.114 1.662-.9 2.454-4.098 5.526-4.818 8.799-.666 3 1.683 3.3 3.735 2.4 2.358-1.059 6.876-5.07 6.876-5.07l1.959-6.573c-1.245 0-2.172.201-3.825 1.8-.276.267-1.425 1.248-1.425 1.248a13.5 13.5 0 011.176-2.304" fill="#E2B3B5"/><path d="M91.245 43.683a14.29 14.29 0 01-1.2 2.175 4.287 4.287 0 001.539-1.8l-.34-.375z" fill="#C38688"/><path d="M98.433 36.318c-1.35-.126-2.442.084-3.5 1.107-.976.945-2.02 1.941-2.02 1.941-.699 1.626-1.2 3.204-1.668 4.317.231.873.66 1.68 1.254 2.361l5.472-4.395.462-5.331z" fill="#FAFAFA"/><path d="M93.375 36.321c.378-.6-.177-1.182-.177-1.182l.9-.6V34.5l-3.6-.162a4.32 4.32 0 00.033.771c.027.26.036.52.027.78l.468.279a.35.35 0 00.336 0l1.515-.783c.519.219.498.936.498.936z" fill="#C38688"/><path d="M90.471 31.308l6.3-2.973a.35.35 0 01.354 0c.078.051.402.252.492.3a.336.336 0 01.16.3l.203 3.261a.802.802 0 01-.432.714l-6.3 2.973a.372.372 0 01-.333 0c-.09-.051-.44-.267-.534-.327a.354.354 0 01-.138-.276c-.05-.819-.153-2.442-.204-3.261a.797.797 0 01.432-.711z" fill="#37474F"/><path d="M97.545 32.271a.44.44 0 01-.216.357l-5.961 2.817v.144l-.243-3.471a.428.428 0 01.213-.351l6.096-2.889-.132.063.243 3.33z" fill="#459AE9"/><path opacity=".75" d="M97.545 32.271a.44.44 0 01-.216.357l-5.961 2.817v.144l-.243-3.471a.428.428 0 01.213-.351l6.096-2.889-.132.063.243 3.33z" fill="#fff"/><path d="M97.692 32.352a.444.444 0 01-.216.354l-6.099 2.883v-.144l5.961-2.817a.441.441 0 00.216-.357l-.234-3.327.132-.063.24 3.471zm-6.759 3.543h-.018c-.09-.051-.44-.267-.534-.327a.355.355 0 01-.138-.276c-.05-.819-.153-2.442-.204-3.261a.786.786 0 01.22-.552l.512.3a.783.783 0 00-.222.555l.204 3.264a.334.334 0 00.18.297z" fill="#263238"/><path d="M97.62 28.635a.375.375 0 00-.324 0l-6.3 2.976a.672.672 0 00-.213.156l-.516-.3a.74.74 0 01.216-.162l6.3-2.973a.363.363 0 01.351 0c.066.054.366.24.486.303z" fill="#455A64"/><path opacity=".35" d="M90.984 33.69a.234.234 0 00-.123.213.09.09 0 00.094.097.09.09 0 00.047-.016.24.24 0 00.123-.213.09.09 0 00-.045-.085.09.09 0 00-.096.004z" fill="#000"/><path d="M94.2 34.5c.189-.156.258-.645.579-1.086.372-.507 1.23-.375.963.036s-.36.783-.555 1.83c-.195 1.047-.615 1.2-1.083 1.8v-2.523l.096-.057z" fill="#E2B3B5"/><path d="M102.873 36.819c1.035.273 4.38 1.593 4.38 1.593.72.564.417 1.8.405 3.219-.279 10.29-2.061 14.874-2.061 14.874-4.026.882-11.379-1.677-12.747-4.749 1.23-1.869 2.058-4.662 2.232-10.146.13-4.071 1.98-5.301 3.18-5.292a19.75 19.75 0 014.611.501z" fill="#EBEBEB"/><path d="M97.743 28.353c.06-.236.06-.484 0-.72-.072-.255-.168-.501-.231-.756a17.33 17.33 0 00-.276-1.029 4.944 4.944 0 01-.336-1.464.9.9 0 01.249-.651.9.9 0 01.876-.147c.29.111.56.273.795.477a1.659 1.659 0 01.3-1.035.96.96 0 01.969-.366c.336.093.567.396.837.618.492.405 1.14.549 1.758.708a4.366 4.366 0 011.785.759 2.79 2.79 0 011.056 2.1c0 .3-.126 1.041-.174 1.437-.075.6-.138 1.2-.234 1.779-.492 3-1.473 5.178-4.5 4.956-1.152-.087-2.76-.801-3.06-2.055a4.37 4.37 0 01-.057-.657c-.03-.441-.042-.9-.033-1.326.019-.882.111-1.761.276-2.628z" fill="#263238"/><path d="M105.537 26.856s.582.021.9.78c.267.66.39 1.701-.258 3.3-.684 1.695-1.221 2.226-1.593 2.856-.267.453-.693 1.305-.693 1.305l.189-1.992.171-1.383s-.852-.195-1.098-1.578c-.279-1.554.015-1.749.015-1.749l2.367-1.539z" fill="#455A64"/><path d="M104.181 31.56a.343.343 0 00.327-.024c.276-.162.405-.51.639-.72.3-.273 1.248-.6 1.635.39s-.585 2.292-1.293 2.562c-1.041.396-1.419-.651-1.419-.651l-.402 4.2c-1.2 1.836-2.487 1.983-3.717 1.896-1.23-.087-1.137-1.23-.348-2.016l.105-1.368a8.034 8.034 0 01-1.686-.036c-.9-.21-1.335-.933-1.54-1.947a13.497 13.497 0 01-.143-3.561 14.79 14.79 0 01.69-3.228s.522-.474 2.037-.498c1.071 0 2.421-.09 2.982.582a1.534 1.534 0 001.11 1.278c-.324 2.148.843 3.063 1.023 3.141z" fill="#E2B3B5"/><path d="M102.087 27.315c-.222-.408-1.011-.6-1.467-.534-.632.134-1.25.324-1.848.57-.446.152-.915.23-1.386.231a2.499 2.499 0 01-1.29-.33 1.5 1.5 0 01-.063-2.322.617.617 0 00.3.504c.176.103.368.176.567.216a1.119 1.119 0 01-.375-1.053 1.473 1.473 0 01.861-.987c.36-.102.777-.21 1.575.45.798.66 3.51 1.056 3.126 3.255z" fill="#263238"/><path d="M99.708 35.817s2.073-.261 2.814-.6c.436-.187.806-.5 1.062-.9-.139.41-.36.787-.648 1.11-.57.63-3.27.924-3.27.924l.042-.534z" fill="#C38688"/><path d="M100.563 30.513a.41.41 0 00.237.386.41.41 0 00.562-.505.408.408 0 00-.661-.17.42.42 0 00-.138.289zm.267-1.518l.87.474a.525.525 0 00-.213-.696.49.49 0 00-.657.222z" fill="#263238"/><path d="M100.641 33.078l-1.761.522a.9.9 0 001.122.654.958.958 0 00.639-1.176z" fill="#C38688"/><path d="M100.002 34.248a.9.9 0 01-.477 0 .831.831 0 011.116-.687.95.95 0 01-.639.687z" fill="#F28F8F"/><path d="M96.9 29.1l.972-.3a.481.481 0 00-.6-.351.531.531 0 00-.372.651zm.3 1.152a.415.415 0 00.378.456.426.426 0 10-.378-.456z" fill="#263238"/><path d="M99.345 29.775l-.297 2.772-1.39-.591 1.687-2.181z" fill="#C38688"/><path d="M100.563 83.079V68.895a3.296 3.296 0 011.476-2.559l13.689-7.899a.97.97 0 00.485-.843.976.976 0 00-.485-.843l-.336-.192 1.161-7.599a3.932 3.932 0 011.701-2.544l1.2-.693c.813-.471 1.476-.087 1.476.852V53.4l-.03 17.958a3.27 3.27 0 01-1.476 2.556l-17.4 10.017c-.795.468-1.461.084-1.461-.852z" fill="#263238"/><path d="M96.41 66.495v14.28a3.3 3.3 0 001.459 2.454h.015l1.2.69a.68.68 0 00.11.06l.064.03h.018a3.427 3.427 0 002.29.105c.086-.026.172-.057.257-.093-.711.3-1.26-.108-1.263-.957V68.895a3.274 3.274 0 011.476-2.559l2.682-1.548 11.007-6.351a.978.978 0 00.355-1.33.978.978 0 00-.355-.356l-1.221-.705a3.281 3.281 0 00-2.952 0L100.563 62.4l-2.676 1.545a3.27 3.27 0 00-1.476 2.55z" fill="#455A64"/><path d="M100.563 68.895v14.181c0 .849.552 1.248 1.263.957-.084.036-.17.067-.258.093a3.426 3.426 0 01-2.289-.105h-.018l-.063-.03a.675.675 0 01-.11-.06l-1.2-.69h-.016a3.299 3.299 0 01-1.458-2.454V66.495a3.023 3.023 0 01.432-1.455l4.155 2.4c-.268.44-.419.94-.438 1.455z" fill="#37474F"/><path d="M112.761 52.8c-.399-3.126-.732-4.752-1.143-6.849-.957-4.866-.732-6.264-4.251-7.179 0 0-1.275 1.122-1.329 4.002-.039 2.175.6 3.372.6 3.372l1.5 7.2c-1.299 1.2-4.629 3.816-5.442 4.245-1.095.582-2.31.807-3.48 1.2-.777.267-1.5.6-2.262.918a.3.3 0 00-.114.063.234.234 0 00-.048.249.453.453 0 00.174.201 1.457 1.457 0 001.26.171c.357-.081.663-.27 1.086-.258.08 0 .168.024.135.126a.729.729 0 01-.13.192 2.93 2.93 0 01-1.181.57c-.41.115-.834.176-1.26.18a5.103 5.103 0 00-1.026.069.78.78 0 00-.3.129c-.465.363.273.642.423.9.078.132.216.366.3.489a.996.996 0 00.36.228c.168.106.329.222.483.348.398.245.861.365 1.329.345a7.45 7.45 0 001.182-.123 5.041 5.041 0 002.283-.888c.278-.22.539-.462.78-.723.21-.219.417-.444.642-.654.369-.314.756-.607 1.158-.879.585-.339 3.939-1.926 7.302-4.272 1.476-1.035 1.146-2.004.969-3.372z" fill="#E2B3B5"/><path d="M107.253 38.4c2.493.81 3.171 1.863 3.408 2.661.345 1.149.6 2.46 1.014 4.401.6 2.904.708 4.053.708 4.053s-1.374 1.113-4.944 1.068l-1.2-4.722s-1.737-4.131 1.014-7.461z" fill="#FAFAFA"/><path d="M110.892 85.416l1.911-1.104-1.911-.552v1.656z" fill="#459AE9"/><path opacity=".6" d="M110.892 85.416l1.911-1.104-1.911-.552v1.656z" fill="#fff"/><path opacity=".05" d="M110.892 85.416l1.911-1.104-1.911-.552v1.656z" fill="#000"/><path d="M110.892 85.416l-.957-.552v-1.656l.957.552v1.656z" fill="#459AE9"/><path opacity=".75" d="M110.892 85.416l-.957-.552v-1.656l.957.552v1.656z" fill="#fff"/><path d="M120.468 89.289v1.761l13.83-7.983v-1.761l-13.83 7.983z" fill="#459AE9"/><path opacity=".6" d="M120.468 89.289v1.761l13.83-7.983v-1.761l-13.83 7.983z" fill="#fff"/><path opacity=".1" d="M120.468 89.289v1.761l13.83-7.983v-1.761l-13.83 7.983z" fill="#000"/><path d="M120.468 91.05l-.957-.552v-1.76l.957.551v1.761z" fill="#459AE9"/><path opacity=".75" d="M120.468 91.05l-.957-.552v-1.76l.957.551v1.761z" fill="#fff"/><path d="M135.255 67.509l-13.833 7.983v14.349l13.833-7.983V67.509z" fill="#459AE9"/><path opacity=".6" d="M135.255 67.509l-13.833 7.983v14.349l13.833-7.983V67.509z" fill="#fff"/><path d="M121.422 75.492l-12.444-7.185v14.349l12.444 7.185V75.492z" fill="#459AE9"/><path opacity=".75" d="M121.422 75.492l-12.444-7.185v14.349l12.444 7.185V75.492z" fill="#fff"/><path d="M108.978 68.307l13.833-7.983 12.444 7.185-13.833 7.983-12.444-7.185z" fill="#459AE9"/><path opacity=".85" d="M108.978 68.307l13.833-7.983 12.444 7.185-13.833 7.983-12.444-7.185z" fill="#fff"/><path d="M120.468 80.46l-10.533-6.081v7.725l10.533 6.081V80.46z" fill="#459AE9"/><path opacity=".7" d="M120.468 80.46l-10.533-6.081v7.725l10.533 6.081V80.46z" fill="#fff"/><path opacity=".1" d="M109.935 82.104l6.645-3.888 3.888 2.244v7.725l-10.533-6.08z" fill="#000"/><path opacity=".05" d="M109.935 82.104l6.645-3.888-6.645-3.837v7.725z" fill="#000"/><path d="M120.468 76.044l-10.533-6.081v3.312l10.533 6.081v-3.312z" fill="#459AE9"/><path opacity=".85" d="M120.468 76.044l-10.533-6.081v3.312l10.533 6.081v-3.312z" fill="#fff"/><path d="M117.201 74.856c0 .153-.456 0-1.017-.3l-1.785-1.056c-.564-.324-1.02-.711-1.02-.864v-.276l3.822 2.208v.288z" fill="#455A64"/><path d="M128.349 69.387a4.745 4.745 0 002.598-.708c.6-.402.939-.9.939-1.419s-.333-1.017-.939-1.419a5.126 5.126 0 00-5.199 0c-.6.402-.939.9-.939 1.419s.333 1.017.939 1.419c.78.482 1.684.728 2.601.708z" fill="#000" opacity=".1"/><path d="M126.024 67.089c0-.061.006-.123.018-.183.15-.68.551-1.277 1.122-1.674h2.349c.571.397.972.995 1.122 1.674a.968.968 0 01.018.186v.03a1.182 1.182 0 01-.675.9 3.617 3.617 0 01-3.273 0 1.18 1.18 0 01-.681-.933z" fill="#37474F"/><path d="M129.45 65.193c.615.357.615.93 0 1.287a2.465 2.465 0 01-2.226 0c-.6-.357-.6-.93 0-1.287a2.465 2.465 0 012.226 0z" fill="#455A64"/><path d="M128.019 57.363h.639v8.229a.146.146 0 01-.021.087.15.15 0 01-.069.057.5.5 0 01-.453 0 .143.143 0 01-.068-.057.14.14 0 01-.022-.087l-.006-8.229z" fill="#263238"/><path d="M123.618 56.13l2.223-5.667h4.998l2.223 5.667c.315.9-.12 1.845-1.311 2.535-1.884 1.086-4.935 1.086-6.819 0-1.194-.69-1.632-1.647-1.314-2.535z" fill="#459AE9"/><path d="M130.146 51.819a3.995 3.995 0 01-3.615 0c-.999-.576-.999-1.5 0-2.1a3.994 3.994 0 013.615 0c.999.588.999 1.524 0 2.1z" fill="#459AE9"/><path opacity=".3" d="M130.146 51.819a3.995 3.995 0 01-3.615 0c-.999-.576-.999-1.5 0-2.1a3.994 3.994 0 013.615 0c.999.588.999 1.524 0 2.1z" fill="#fff"/><path d="M128.337 51.957a3.394 3.394 0 001.662-.393c.387-.225.6-.504.6-.789a.998.998 0 00-.6-.786 3.703 3.703 0 00-3.321 0 .991.991 0 00-.6.786c0 .285.213.564.6.789a3.4 3.4 0 001.659.393z" fill="#459AE9"/><path opacity=".15" d="M128.337 51.957a3.394 3.394 0 001.662-.393c.387-.225.6-.504.6-.789a.998.998 0 00-.6-.786 3.703 3.703 0 00-3.321 0 .991.991 0 00-.6.786c0 .285.213.564.6.789a3.4 3.4 0 001.659.393z" fill="#000"/><path d="M77.115 14.595l10.968 6.33a.492.492 0 01.222.384v7.68a.49.49 0 01-.222.381l-.783.453a.486.486 0 01-.441 0L75.882 23.49a.497.497 0 01-.22-.384v-7.692a.477.477 0 01.223-.378l.789-.444a.486.486 0 01.44.003z" fill="#459AE9"/><path d="M87.072 29.7v-7.698a.492.492 0 00-.222-.384L75.882 15.3c-.12-.072-.22-.015-.22.126V23.1a.498.498 0 00.22.384L86.85 29.82c.123.072.222.015.222-.12z" fill="#459AE9"/><path d="M87.072 29.7v-7.698a.492.492 0 00-.222-.384L75.882 15.3c-.12-.072-.22-.015-.22.126V23.1a.498.498 0 00.22.384L86.85 29.82c.123.072.222.015.222-.12z" fill="#459AE9"/><path opacity=".2" d="M86.85 29.82a.501.501 0 00.444 0l.789-.453a.49.49 0 00.222-.381V21.3a.423.423 0 00-.072-.225L87 21.783a.47.47 0 01.066.219V29.7c.006.123-.087.195-.216.12z" fill="#000"/><path opacity=".4" d="M75.665 15.375c.018-.111.108-.15.216-.087l10.969 6.33a.459.459 0 01.156.165l1.23-.699a.435.435 0 00-.154-.159l-10.967-6.33a.485.485 0 00-.441 0l-.775.438a.49.49 0 00-.234.342z" fill="#fff"/><path d="M88.908 26.904l1.2-.684a.203.203 0 00.088-.237.204.204 0 00-.046-.078l-1.875-2.34-1.2.69 1.872 2.34a.206.206 0 01-.04.309z" fill="#459AE9"/><path opacity=".4" d="M88.908 26.904l1.2-.684a.203.203 0 00.088-.237.204.204 0 00-.046-.078l-1.875-2.34-1.2.69 1.872 2.34a.206.206 0 01-.04.309z" fill="#fff"/><path d="M87.072 24.255l1.875 2.34a.198.198 0 01-.126.339l-1.75.189v-2.868z" fill="#459AE9"/><path d="M84.435 23.1c0 .3-.216.402-.48.246l-6.093-3.51a1.06 1.06 0 01-.48-.816c0-.3.216-.402.48-.246l6.093 3.516a1.059 1.059 0 01.48.81zm1.365 3.15c0 .3-.216.402-.48.246L77.862 22.2a1.06 1.06 0 01-.48-.816c0-.3.216-.402.48-.246l7.452 4.299a1.06 1.06 0 01.486.813z" fill="#FAFAFA"/><path d="M39 38.151l-1.2-2.214.948-2.736v-1.677l-2.901 1.677v1.674l1.245 2.16c.02.034.05.06.087.075l1.82 1.041z" fill="#459AE9"/><path opacity=".2" d="M39 38.151l-1.2-2.214.948-2.736v-1.677l-2.901 1.677v1.674l1.245 2.16c.02.034.05.06.087.075l1.82 1.041z" fill="#000"/><path d="M46.5 21.378a1.93 1.93 0 00-.87-1.5l-.708-.408a1.914 1.914 0 00-1.74 0L29.34 27.453a1.921 1.921 0 00-.87 1.5v8.484a1.92 1.92 0 00.87 1.5l.708.411a1.932 1.932 0 001.74 0l5.892-3.429 1.245 2.154a.186.186 0 00.336-.03l1.314-3.798 5.049-2.886a1.929 1.929 0 00.87-1.5l.006-8.481z" fill="#459AE9"/><path opacity=".2" d="M28.47 37.443a1.92 1.92 0 00.87 1.5l.708.411a1.953 1.953 0 001.59.069c-.408.156-.72-.075-.72-.573v-8.478a1.75 1.75 0 01.255-.855l-2.448-1.416a1.77 1.77 0 00-.255.858v8.484z" fill="#000"/><path opacity=".4" d="M46.467 21.132c-.102-.369-.438-.486-.84-.255L31.8 28.866c-.253.162-.46.386-.6.651l-2.445-1.413c.14-.264.347-.488.6-.648l13.836-7.992a1.932 1.932 0 011.74 0l.71.411a1.925 1.925 0 01.826 1.257z" fill="#fff"/><path d="M34.452 31.236a2.559 2.559 0 00-1.161 2.01c0 .741.519 1.041 1.16.669a2.558 2.558 0 001.161-2.01c0-.741-.513-1.041-1.16-.669zm4.278-2.475a2.568 2.568 0 00-1.161 2.01c0 .738.522 1.038 1.16.669a2.558 2.558 0 001.17-2.01c0-.741-.527-1.041-1.17-.669zm4.28-2.478a2.569 2.569 0 00-1.16 2.01c0 .741.519 1.041 1.16.672a2.568 2.568 0 001.162-2.01c0-.741-.52-1.041-1.161-.672z" fill="#FAFAFA"/></svg>