<svg width="151" height="150" fill="none" xmlns="http://www.w3.org/2000/svg"><path d="M23.625 134.892c-28.581-16.5-28.581-43.257 0-59.757s74.919-16.5 103.5 0c28.581 16.5 28.584 43.254 0 59.757s-74.919 16.5-103.5 0zm115.173-72.06l-.651.39-22.854-13.197.654-.39 22.851 13.197z" fill="#FAFAFA"/><path d="M115.947 49.635l22.2 12.819V24.717l-22.2-12.813v37.731z" fill="#fff"/><path d="M114.075 50.736l25.314 14.619V24L114.075 9.39v41.346zm1.23-39.213l22.854 13.2v38.499l-22.854-13.2V11.523z" fill="#F0F0F0"/><path d="M115.293 50.025l.654-.39V11.904l-.654-.381v38.502z" fill="#E0E0E0"/><path d="M138.147 49.743v.765l-22.854-13.194.654-.39 22.2 12.819zm0-14.496v.765l-22.854-13.194.654-.39 22.2 12.819zM114.063 9.39l.663-.381 25.314 14.619-.663.378L114.063 9.39z" fill="#FAFAFA"/><path d="M140.04 23.628l-.663.378v41.349l.663-.381V23.628zm-12.042-4.77l-.663-.384v38.505l.663-.378V18.858z" fill="#E0E0E0"/><path d="M126.105 17.766l1.23.708v38.505l-1.23-.714V17.766z" fill="#F0F0F0"/><path d="M114.063 22.107v1.419l25.314 14.619v-1.422l-25.314-14.616zm0 14.493v1.419l25.314 14.619v-1.422L114.063 36.6z" fill="#F0F0F0"/><path d="M127.335 29.769l.663-.384 10.149 5.862v.765l-10.812-6.243zm0 14.487l.663-.381 10.149 5.859v.768l-10.812-6.246z" fill="#FAFAFA"/><path d="M117.234 105.501L69.009 133.38a.703.703 0 01-.636 0L32.742 112.8a.2.2 0 01-.093-.071.197.197 0 010-.224.2.2 0 01.093-.071l48.225-27.879a.7.7 0 01.636 0l35.631 20.592a.197.197 0 01.113.177.195.195 0 01-.113.177z" fill="#E0E0E0"/><path d="M39.417 109.299L13.875 94.815c-.513-.3-.516-.768 0-1.068L38.67 79.2a2.037 2.037 0 011.848 0l25.54 14.487c.512.3.515.768 0 1.068l-24.793 14.532a2.05 2.05 0 01-1.848.012zm71.637 22.65l25.536-14.484c.513-.3.516-.771 0-1.068l-24.798-14.541a2.045 2.045 0 00-1.848 0L84.405 116.34c-.51.3-.516.771 0 1.068l24.798 14.541a2.053 2.053 0 001.851 0z" fill="#E0E0E0"/><path d="M137.346 106.959c2.616 1.527 2.616 4.002 0 5.529-2.616 1.527-6.855 1.527-9.471 0-2.616-1.527-2.613-4.002 0-5.529 2.613-1.527 6.855-1.527 9.471 0zm-126.171.237c-3.096 1.8-3.096 4.722 0 6.522 3.096 1.8 8.1 1.8 11.202 0 3.102-1.8 3.096-4.722 0-6.522-3.096-1.8-8.118-1.803-11.202 0z" fill="#E0E0E0"/><path d="M128.592 110.7c-2.148-2.22-3.411-11.64-1.314-13.401h10.668c2.1 1.758.834 11.178-1.314 13.398l-.06.06-.072.075c-.063.057-.126.117-.195.174l-.051.042-.162.123a4.084 4.084 0 01-.279.18c-1.767 1.032-4.635 1.032-6.402 0a3.234 3.234 0 01-.282-.183l-.15-.114-.063-.051a3.423 3.423 0 01-.189-.168l-.084-.084-.051-.051z" fill="#EBEBEB"/><path d="M137.019 96.6c2.433 1.422 2.433 3.726 0 5.145-2.433 1.419-6.381 1.422-8.814 0s-2.433-3.723 0-5.145c2.433-1.422 6.381-1.425 8.814 0z" fill="#FAFAFA"/><path d="M135.849 97.281c1.785 1.044 1.785 2.736 0 3.78-1.785 1.044-4.686 1.041-6.474 0-1.788-1.041-1.8-2.736 0-3.78 1.8-1.044 4.686-1.044 6.474 0z" fill="#EBEBEB"/><path d="M129.375 99.075c1.8-1.044 4.686-1.044 6.474 0a2.98 2.98 0 011.071.993 3.044 3.044 0 01-1.071.993c-1.8 1.041-4.686 1.041-6.474 0-.433-.239-.8-.58-1.071-.993a2.98 2.98 0 011.071-.993z" fill="#fff"/><path d="M131.151 85.824c-.72.9-2.883 1.311-3.96-.918-1.011-2.1-2.082-4.062-2.4-4.833a.805.805 0 01-.012-.64.81.81 0 01.453-.452s-.027-1.2 2.04-.54c2.067.66 3.576 1.761 4.599 3.663 1.023 1.902.603 3.354-.72 3.72z" fill="#F0F0F0"/><path d="M132.252 88.8c-.066-.4-.155-.796-.267-1.185a17.011 17.011 0 00-.84-2.262 17.15 17.15 0 00-2.652-4.113 15 15 0 00-1.986-1.935c-.021 0-.033.03-.021.045a18.119 18.119 0 013.165 3.735 18.505 18.505 0 011.998 4.359c.132.426.258.858.372 1.293.114.435.198.9.3 1.332 0 .045.084.066.081 0a8.328 8.328 0 00-.15-1.269z" fill="#E0E0E0"/><path opacity=".1" d="M132.252 88.8c-.066-.4-.155-.796-.267-1.185a17.011 17.011 0 00-.84-2.262 17.15 17.15 0 00-2.652-4.113 15 15 0 00-1.986-1.935c-.021 0-.033.03-.021.045a18.119 18.119 0 013.165 3.735 18.505 18.505 0 011.998 4.359c.132.426.258.858.372 1.293.114.435.198.9.3 1.332 0 .045.084.066.081 0a8.328 8.328 0 00-.15-1.269z" fill="#000"/><path d="M133.497 84.228c-1.878.582-3.273-.885-2.79-3.183.483-2.298 2.898-4.848 3.81-4.161.567-.57 1.824-.366 2.4 1.5.576 1.866.066 6.66-3.42 5.844z" fill="#E0E0E0"/><path d="M134.598 78.282a25.192 25.192 0 00-1.248 4.128 41.05 41.05 0 00-.726 4.323 67.67 67.67 0 00-.375 8.469c0 .783.018 1.563.03 2.346.012.783 0 1.617.072 2.418.027.3.465.225.471-.054.027-1.407-.051-2.82-.066-4.23-.015-1.41 0-2.781.027-4.173.048-2.835.302-5.662.759-8.46.135-.78.282-1.557.465-2.328.183-.771.426-1.605.639-2.4.006-.042-.03-.084-.048-.039z" fill="#E0E0E0"/><path opacity=".1" d="M134.598 78.282a25.192 25.192 0 00-1.248 4.128 41.05 41.05 0 00-.726 4.323 67.67 67.67 0 00-.375 8.469c0 .783.018 1.563.03 2.346.012.783 0 1.617.072 2.418.027.3.465.225.471-.054.027-1.407-.051-2.82-.066-4.23-.015-1.41 0-2.781.027-4.173.048-2.835.302-5.662.759-8.46.135-.78.282-1.557.465-2.328.183-.771.426-1.605.639-2.4.006-.042-.03-.084-.048-.039z" fill="#000"/><path d="M130.005 90.516c-.54 1.116-2.373 1.539-4.032.279-1.659-1.26-4.053-7.056-2.238-7.149.138-.9 5.4-.3 7.089 3.459 1.233 2.724-.819 3.411-.819 3.411z" fill="#E0E0E0"/><path d="M132.207 92.961a9.271 9.271 0 00-.537-1.029 22.834 22.834 0 00-4.569-5.532 20.947 20.947 0 00-2.085-1.701c-.021-.015-.021.033 0 .042.6.498 1.2.987 1.746 1.524a28.16 28.16 0 011.644 1.761 29.834 29.834 0 012.718 3.747c.228.375.438.759.669 1.131.231.372.516.756.738 1.152.033.057.12.057.087-.021-.147-.357-.261-.72-.411-1.074z" fill="#E0E0E0"/><path opacity=".1" d="M132.207 92.961a9.271 9.271 0 00-.537-1.029 22.834 22.834 0 00-4.569-5.532 20.947 20.947 0 00-2.085-1.701c-.021-.015-.021.033 0 .042.6.498 1.2.987 1.746 1.524a28.16 28.16 0 011.644 1.761 29.834 29.834 0 012.718 3.747c.228.375.438.759.669 1.131.231.372.516.756.738 1.152.033.057.12.057.087-.021-.147-.357-.261-.72-.411-1.074z" fill="#000"/><path d="M133.443 90.045c-1.071-.243-1.125-1.533.216-3.114s4.719-2.271 4.878-1.605c.753 0 .753 2.352-.9 4.515s-4.092 1.659-4.194.204z" fill="#E0E0E0"/><path d="M135.546 87.747a8.444 8.444 0 00-3.105 4.008c-.036.09.123.225.162.126a9.83 9.83 0 012.949-4.113s.006-.03-.006-.021z" fill="#E0E0E0"/><path opacity=".1" d="M135.546 87.747a8.444 8.444 0 00-3.105 4.008c-.036.09.123.225.162.126a9.83 9.83 0 012.949-4.113s.006-.03-.006-.021z" fill="#000"/><path d="M134.67 97.896c-1.5.6-.849 2.37.6 3.714a6.652 6.652 0 004.524 1.629c.996-.072 1.251-.21 1.251-.21.088-.817.088-1.64 0-2.457a4.758 4.758 0 00-3.504-3.774c-2.316-.627-2.871.213-2.871 1.098z" fill="#F0F0F0"/><path d="M138.783 100.5a11.949 11.949 0 00-2.277-2.1c-.846-.558-1.974-1.032-3-.684-.393.132-1.005.525-.93 1.011 0 .048.093.168.15.102.157-.226.337-.435.537-.624.234-.17.51-.274.798-.3.725-.05 1.45.115 2.082.474 1.005.534 1.8 1.359 2.616 2.151.021.009.03-.015.024-.03z" fill="#E0E0E0"/><path opacity=".1" d="M138.783 100.5a11.949 11.949 0 00-2.277-2.1c-.846-.558-1.974-1.032-3-.684-.393.132-1.005.525-.93 1.011 0 .048.093.168.15.102.157-.226.337-.435.537-.624.234-.17.51-.274.798-.3.725-.05 1.45.115 2.082.474 1.005.534 1.8 1.359 2.616 2.151.021.009.03-.015.024-.03z" fill="#000"/><path d="M129.021 92.1c.015-.63-1.128-1.923-3.915-1.704-1.269.102-2.436.447-3.369 1.344a1.917 1.917 0 00-.618 1.119.852.852 0 00.069.495c.06.106.142.2.24.273.666.534 1.533.393 2.319.6 1.215.3 3.774 1.419 5.247.681 1.473-.738.909-2.361.027-2.808z" fill="#F0F0F0"/><path d="M131.475 93.822c-1.59-2.172-4.695-2.355-7.122-1.896a9.625 9.625 0 00-2.313.741v.027a12.8 12.8 0 013.951-.765 8.366 8.366 0 013.87.732c.595.297 1.126.71 1.56 1.215.054.051.099-.012.054-.054z" fill="#E0E0E0"/><path opacity=".1" d="M131.475 93.822c-1.59-2.172-4.695-2.355-7.122-1.896a9.625 9.625 0 00-2.313.741v.027a12.8 12.8 0 013.951-.765 8.366 8.366 0 013.87.732c.595.297 1.126.71 1.56 1.215.054.051.099-.012.054-.054z" fill="#000"/><path d="M136.11 86.73c-.039 1.065 1.458 1.683 2.91.762 1.452-.921 2.973-1.818 4.317-2.166 1.344-.348 1.983-1.443 1.557-1.974-.426-.531-1.098-1.869-4.635-1.434-3.537.435-4.8 2.031-5.271 3.156-.471 1.125.588 1.962 1.122 1.656z" fill="#F0F0F0"/><path d="M141.864 83.346a3.9 3.9 0 00-1.518.159 7.85 7.85 0 00-1.296.465 7.172 7.172 0 00-2.712 2.202c-.148.19-.27.397-.363.618-.021.072.081.186.141.114.177-.201.3-.447.471-.66a7.145 7.145 0 011.932-1.725 8.44 8.44 0 011.5-.735 8.97 8.97 0 01.879-.264 3.02 3.02 0 01.963-.132s.018-.039.003-.042z" fill="#E0E0E0"/><path opacity=".1" d="M141.864 83.346a3.9 3.9 0 00-1.518.159 7.85 7.85 0 00-1.296.465 7.172 7.172 0 00-2.712 2.202c-.148.19-.27.397-.363.618-.021.072.081.186.141.114.177-.201.3-.447.471-.66a7.145 7.145 0 011.932-1.725 8.44 8.44 0 011.5-.735 8.97 8.97 0 01.879-.264 3.02 3.02 0 01.963-.132s.018-.039.003-.042z" fill="#000"/><path d="M133.575 92.481c-.495-.495-1.839-.381-2.478 1.083-.639 1.464.702 3.066.849 3.516.615-.354 1.092-.141 2.175-.354a2.697 2.697 0 002.073-2.7c-.075-1.326-.639-2.226-2.619-1.545z" fill="#F0F0F0"/><path d="M133.554 92.334a2.035 2.035 0 00-.657.678 3.803 3.803 0 00-.426.822 3.494 3.494 0 00-.186 1.863c0 .024.024 0 .024 0a3.803 3.803 0 01.3-1.842 3.748 3.748 0 01.747-1.086c.104-.084.2-.178.285-.282.045-.069-.012-.189-.087-.153z" fill="#E0E0E0"/><path opacity=".1" d="M133.554 92.334a2.035 2.035 0 00-.657.678 3.803 3.803 0 00-.426.822 3.494 3.494 0 00-.186 1.863c0 .024.024 0 .024 0a3.803 3.803 0 01.3-1.842 3.748 3.748 0 01.747-1.086c.104-.084.2-.178.285-.282.045-.069-.012-.189-.087-.153z" fill="#000"/><path d="M131.529 96.414c-.276-1.056-1.614-1.647-3.363-1.776a4.567 4.567 0 00-4.347 2.229c-.915 1.566-1.293 2.808-.738 3.015.555.207 2.904.528 4.419.663 1.515.135 3.411-.138 4.647-1.29 1.236-1.152.828-2.598-.618-2.841z" fill="#E0E0E0"/><path d="M131.595 96.276a4.611 4.611 0 00-1.89-.09 8.48 8.48 0 00-1.782.411c-.61.214-1.2.48-1.764.795-.3.162-.6.333-.873.516-.273.16-.534.34-.78.54v.036c.3-.129.555-.3.831-.465.276-.165.6-.327.9-.483a13.355 13.355 0 011.749-.741 8.364 8.364 0 011.857-.396c.589-.031 1.18-.017 1.767.045.126.006.057-.144-.015-.168z" fill="#E0E0E0"/><path opacity=".1" d="M131.595 96.276a4.611 4.611 0 00-1.89-.09 8.48 8.48 0 00-1.782.411c-.61.214-1.2.48-1.764.795-.3.162-.6.333-.873.516-.273.16-.534.34-.78.54v.036c.3-.129.555-.3.831-.465.276-.165.6-.327.9-.483a13.355 13.355 0 011.749-.741 8.364 8.364 0 011.857-.396c.589-.031 1.18-.017 1.767.045.126.006.057-.144-.015-.168z" fill="#000"/><path d="M134.709 93.825c-1.2-.954-.801-3.243 3.402-3.366 4.203-.123 7.2.975 7.071 2.328.678.675.333 2.571-3.069 3.162-3.402.591-8.274.297-7.404-2.124z" fill="#E0E0E0"/><path d="M143.205 92.802a17.867 17.867 0 00-3.756-.219 14.467 14.467 0 00-3.474.396c-.29.08-.574.186-.846.315-.126.06-.249.126-.369.198-.096.057-.201.108-.237.219a.105.105 0 00.004.053.115.115 0 00.122.082c.256-.1.502-.222.735-.366.237-.104.48-.193.729-.264.477-.139.965-.24 1.458-.3a26.017 26.017 0 013.549-.195c.69 0 1.38.06 2.067.117.03.012.039-.033.018-.036z" fill="#E0E0E0"/><path opacity=".1" d="M143.205 92.802a17.867 17.867 0 00-3.756-.219 14.467 14.467 0 00-3.474.396c-.29.08-.574.186-.846.315-.126.06-.249.126-.369.198-.096.057-.201.108-.237.219a.105.105 0 00.004.053.115.115 0 00.122.082c.256-.1.502-.222.735-.366.237-.104.48-.193.729-.264.477-.139.965-.24 1.458-.3a26.017 26.017 0 013.549-.195c.69 0 1.38.06 2.067.117.03.012.039-.033.018-.036z" fill="#000"/><path d="M54.207 35.592l-.2-.117a1.215 1.215 0 01-.553-.954v-7.458a1.2 1.2 0 01.552-.963l7.758-4.47a1.221 1.221 0 011.098 0l.204.117a1.22 1.22 0 01.55.951v7.461a1.216 1.216 0 01-.54.951l-1.564.9a3.298 3.298 0 00-.822.9l-2.013 2.79a3.234 3.234 0 01-.723.81 1.108 1.108 0 01-.978-.069l-.138-.081a1.2 1.2 0 01-.549-.951v.261c0-.351-.246-.495-.549-.318l-.423.246a1.228 1.228 0 01-1.11-.006z" fill="#459AE9"/><path opacity=".25" d="M54.207 35.592l-.2-.117a1.215 1.215 0 01-.553-.954v-7.458a1.2 1.2 0 01.552-.963l7.758-4.47a1.221 1.221 0 011.098 0l.204.117a1.22 1.22 0 01.55.951v7.461a1.216 1.216 0 01-.54.951l-1.564.9a3.298 3.298 0 00-.822.9l-2.013 2.79a3.273 3.273 0 01-.723.81 1.108 1.108 0 01-.978-.069l-.138-.081a1.2 1.2 0 01-.549-.951v.261c0-.351-.246-.495-.549-.318l-.423.246a1.228 1.228 0 01-1.11-.006z" fill="#000"/><path d="M63.615 22.698c0-.348-.246-.489-.549-.3l-7.758 4.467a1.05 1.05 0 00-.333.336l-1.299-.75c.081-.14.194-.261.33-.351l7.758-4.47a1.222 1.222 0 011.098 0l.204.117a1.215 1.215 0 01.549.951z" fill="#459AE9"/><path opacity=".45" d="M63.615 22.698c0-.348-.246-.489-.549-.3l-7.758 4.467a1.05 1.05 0 00-.333.336l-1.299-.75c.081-.14.194-.261.33-.351l7.758-4.47a1.222 1.222 0 011.098 0l.204.117a1.215 1.215 0 01.549.951z" fill="#fff"/><path d="M57.789 36.444a.126.126 0 01-.105-.069.475.475 0 01-.06-.258V34.95c0-.3-.165-.501-.411-.501a.6.6 0 00-.3.09l-1.659.96a.406.406 0 01-.192.06c-.177 0-.198-.198-.198-.3v-7.443a1.115 1.115 0 01.495-.858l7.761-4.482a.405.405 0 01.192-.06c.177 0 .195.198.195.282v7.461a1.122 1.122 0 01-.495.858l-1.563.9a3.392 3.392 0 00-.864.939c-.243.333-1.857 2.559-2.016 2.787a3.11 3.11 0 01-.675.765.234.234 0 01-.105.036z" fill="#FAFAFA"/><path d="M63.312 22.524c.075 0 .087.108.087.174v7.461a1.018 1.018 0 01-.44.765l-1.564.9c-.36.268-.665.602-.9.984-.258.36-1.869 2.583-2.013 2.79-.173.27-.386.512-.633.717a.157.157 0 01-.05.018s-.058-.075-.058-.219V34.95a.543.543 0 00-.519-.6.713.713 0 00-.354.105l-1.659.96a.3.3 0 01-.138.045c-.078 0-.09-.111-.09-.177v-7.467a1.008 1.008 0 01.441-.765l7.761-4.482a.3.3 0 01.138-.045m0-.216a.491.491 0 00-.246.075l-7.77 4.482a1.2 1.2 0 00-.549.951v7.458c0 .249.126.393.3.393a.51.51 0 00.246-.075l1.66-.96a.501.501 0 01.245-.075c.18 0 .3.144.3.393v1.167c0 .27.114.432.273.432a.319.319 0 00.156-.045c.285-.228.53-.501.723-.81.165-.24 1.701-2.361 2.013-2.79.209-.354.489-.66.822-.9l1.563-.9a1.215 1.215 0 00.55-.951v-7.455c0-.246-.124-.39-.3-.39h.014z" fill="#E6E6E6"/><path d="M58.707 32.475l-2.541-1.656.759-1.167 1.278.834 2.676-4.935 1.224.666-3.396 6.258zm-15.099-5.871l-.201-.117a1.221 1.221 0 01-.55-.954v-9.384a1.22 1.22 0 01.55-.951l11.4-6.6a1.2 1.2 0 011.098 0l.204.117a1.2 1.2 0 01.549.951v9.396a1.2 1.2 0 01-.55.951l-4.29 2.487a2.37 2.37 0 00-.821.9l-2.022 3.438a2.727 2.727 0 01-.702.822 1.088 1.088 0 01-.978-.069l-.138-.078a1.22 1.22 0 01-.55-.951v-.414c0-.351-.245-.492-.548-.3l-1.338.771a1.227 1.227 0 01-1.113-.015z" fill="#459AE9"/><path opacity=".25" d="M43.608 26.604l-.201-.117a1.221 1.221 0 01-.55-.954v-9.384a1.22 1.22 0 01.55-.951l11.4-6.6a1.2 1.2 0 011.098 0l.204.117a1.2 1.2 0 01.549.951v9.396a1.2 1.2 0 01-.55.951l-4.29 2.487a2.37 2.37 0 00-.821.9l-2.022 3.438a2.757 2.757 0 01-.702.822 1.088 1.088 0 01-.978-.069l-.138-.078a1.22 1.22 0 01-.55-.951v-.414c0-.351-.245-.492-.548-.3l-1.338.771a1.227 1.227 0 01-1.113-.015z" fill="#000"/><path d="M56.67 9.678c0-.348-.246-.492-.552-.3l-11.4 6.6a1.08 1.08 0 00-.345.336l-1.299-.75c.086-.138.203-.254.342-.339l11.4-6.6a1.22 1.22 0 011.098 0l.204.117a1.2 1.2 0 01.552.936z" fill="#459AE9"/><path opacity=".45" d="M56.67 9.678c0-.348-.246-.492-.552-.3l-11.4 6.6a1.08 1.08 0 00-.345.336l-1.299-.75c.086-.138.203-.254.342-.339l11.4-6.6a1.22 1.22 0 011.098 0l.204.117a1.2 1.2 0 01.552.936z" fill="#fff"/><path d="M48.105 27.6a.123.123 0 01-.105-.066.494.494 0 01-.06-.261v-1.839c0-.3-.165-.498-.411-.498a.621.621 0 00-.3.087l-2.574 1.5a.405.405 0 01-.192.06c-.177 0-.198-.198-.198-.285v-9.396a1.116 1.116 0 01.51-.858l11.4-6.6a.381.381 0 01.192-.063c.177 0 .195.201.195.285v9.396a1.103 1.103 0 01-.495.858l-4.302 2.487c-.366.23-.664.553-.864.936l-2.037 3.45a2.59 2.59 0 01-.657.774.213.213 0 01-.102.033z" fill="#FAFAFA"/><path d="M56.364 9.501c.078 0 .087.111.087.177v9.384a1 1 0 01-.441.765l-4.299 2.487a2.562 2.562 0 00-.9.984l-2.034 3.45c-.15.279-.355.526-.6.726a.102.102 0 01-.051.018s-.057-.072-.057-.216v-1.842a.544.544 0 00-.519-.6.711.711 0 00-.354.102l-2.574 1.5a.3.3 0 01-.138.045c-.078 0-.09-.111-.09-.177v-9.402a1.009 1.009 0 01.444-.765l11.4-6.6a.3.3 0 01.138-.048m0-.213a.501.501 0 00-.246.075l-11.4 6.6a1.2 1.2 0 00-.552.951v9.384c0 .249.126.393.3.393a.51.51 0 00.246-.075l2.574-1.5a.491.491 0 01.246-.075c.18 0 .3.141.3.39v1.842c0 .267.114.432.273.432a.3.3 0 00.156-.048 2.73 2.73 0 00.702-.807c.153-.255 2.034-3.447 2.034-3.447a2.37 2.37 0 01.822-.9l4.299-2.487a1.199 1.199 0 00.549-.951V9.678c0-.249-.123-.39-.3-.39l-.003-.012z" fill="#E6E6E6"/><path d="M47.733 16.701a.624.624 0 00-.42-.069 1.483 1.483 0 00-.552.21 2.604 2.604 0 00-.408.3 4.13 4.13 0 00-.351.339c-.107.123-.207.25-.3.384a4.92 4.92 0 00-.264.405l.27.393c.045.081.114.093.207.039a.384.384 0 00.123-.12l.147-.189a1.5 1.5 0 01.498-.435c.15-.087.27-.105.354-.051.084.054.129.168.129.342 0 .147-.024.294-.075.432a2.76 2.76 0 01-.189.405 7.352 7.352 0 01-.237.384c-.084.122-.16.248-.231.378a1.89 1.89 0 00-.162.378.965.965 0 00-.033.393l.072.657.693-.399.09-.663a.947.947 0 01.108-.3c.054-.105.12-.216.195-.333l.237-.378a3.198 3.198 0 00.402-.96c.047-.196.07-.398.069-.6a1.531 1.531 0 00-.093-.579.63.63 0 00-.279-.363zm2.85 3.129a.321.321 0 00-.183-.054.516.516 0 00-.225.072.855.855 0 00-.228.192 1.352 1.352 0 00-.303.561c-.03.104-.045.21-.045.318a.719.719 0 00.045.267.381.381 0 00.12.168.3.3 0 00.183.051.507.507 0 00.228-.075.927.927 0 00.225-.186 1.42 1.42 0 00.303-.564 1.2 1.2 0 00.045-.318.7.7 0 00-.045-.267.348.348 0 00-.12-.165zm-3.564 2.07a.321.321 0 00-.183-.054.503.503 0 00-.225.072.855.855 0 00-.228.192 1.237 1.237 0 00-.183.261c-.05.095-.09.196-.12.3a1.18 1.18 0 00-.045.318.72.72 0 00.045.267.381.381 0 00.12.168.3.3 0 00.183.051.507.507 0 00.228-.075.988.988 0 00.225-.186 1.42 1.42 0 00.303-.564c.027-.108.04-.219.036-.33a.7.7 0 00-.045-.267.37.37 0 00-.111-.153zm4.278-7.245a.624.624 0 00-.42-.069 1.483 1.483 0 00-.552.21 2.607 2.607 0 00-.408.285c-.12.102-.235.21-.342.327-.107.123-.207.25-.3.384-.095.13-.182.265-.261.405l.261.393c.045.081.114.093.207.039a.384.384 0 00.123-.12l.147-.189a1.5 1.5 0 01.498-.435c.15-.087.27-.105.354-.051.084.054.129.168.129.342 0 .147-.024.294-.075.432a2.76 2.76 0 01-.189.405 5.76 5.76 0 01-.237.384 5.112 5.112 0 00-.231.378c-.067.12-.121.247-.162.378a.918.918 0 00-.03.393l.066.654.693-.399.09-.66a.937.937 0 01.108-.3c.054-.105.12-.216.195-.333l.237-.378a3.387 3.387 0 00.405-.96c.045-.197.067-.398.066-.6a1.531 1.531 0 00-.093-.579.63.63 0 00-.279-.348v.012zm3.828-1.725a.6.6 0 00-.684-.402 1.5 1.5 0 00-.552.21c-.144.081-.28.177-.405.285a3.406 3.406 0 00-.651.723c-.09.132-.183.267-.261.405l.267.393c.045.081.114.093.207.039a.423.423 0 00.126-.12l.144-.189a1.43 1.43 0 01.498-.435c.15-.087.267-.105.351-.051.084.054.129.168.129.342 0 .147-.024.294-.075.432a2.76 2.76 0 01-.189.405 5.082 5.082 0 01-.237.384 5.112 5.112 0 00-.231.378 1.95 1.95 0 00-.159.378.876.876 0 00-.048.393l.072.657.69-.399.09-.66c.02-.105.056-.206.108-.3.054-.105.12-.216.195-.333.075-.117.156-.243.237-.378a3.387 3.387 0 00.405-.96c.045-.197.067-.398.066-.6a1.54 1.54 0 00-.093-.609v.012zm-.978 4.854a.32.32 0 00-.183-.054.516.516 0 00-.225.072.855.855 0 00-.228.192c-.07.08-.13.167-.18.261a1.595 1.595 0 00-.123.3c-.029.104-.043.21-.042.318a.722.722 0 00.042.267.383.383 0 00.123.168.282.282 0 00.18.051.507.507 0 00.228-.075.927.927 0 00.225-.186 1.519 1.519 0 00.306-.564c.027-.104.04-.21.042-.318a.767.767 0 00-.042-.267.375.375 0 00-.123-.177v.012z" fill="#459AE9"/><path d="M58.701 97.545l-3.54-20.4-2.238-.114 4.65 20.52a.299.299 0 00.147.201.883.883 0 00.798.039.27.27 0 00.177-.237l.006-.009z" fill="#263238"/><path d="M25.416 73.782h-2.24l-5.272 21.201a.272.272 0 00.162.246.9.9 0 00.801 0 .3.3 0 00.16-.192l6.39-21.255zm15.501 33.489l-.099-22.857-2.238-.114 1.2 22.968a.304.304 0 00.15.201.882.882 0 00.798.039.267.267 0 00.174-.237h.015z" fill="#37474F"/><path d="M37.647 66.669h-2.24l-3.6 22.527a.269.269 0 00.161.246.9.9 0 00.798 0 .3.3 0 00.162-.192l4.72-22.581z" fill="#263238"/><path d="M18.975 49.026a12.65 12.65 0 00-.9 3.933c-.255 3.018.765 12.786 1.38 17.154.9 7.299 1.974 7.311 3.558 8.532 2.718 2.1 10.542 6.222 13.125 7.239 4.683 1.842 8.511-.999 11.364-2.4a65.9 65.9 0 007.56-4.476c.714-.519 1.083-1.044 1.074-1.599v-1.344c0-.705-.621-1.461-1.932-2.31-2.418-1.569-11.157-6.666-14.544-8.544a.036.036 0 00-.03-.027c-2.604-1.581-4.173-12.336-5.979-18.057a5.533 5.533 0 00-.117-.357c-.042-.114-.063-.18-.093-.264-.114-.3-.231-.6-.354-.858" fill="#459AE9"/><path d="M56.127 76.053c0-.705-.62-1.461-1.932-2.31-2.418-1.569-11.157-6.666-14.544-8.544a.036.036 0 00-.03-.027c-2.604-1.581-4.173-12.336-5.979-18.057a9.996 9.996 0 00-.378-1.053c0-.027-.02-.051-.033-.078-.033-.075-.066-.153-.102-.231-.036-.078-.033-.081-.05-.117a5.494 5.494 0 00-1.2-1.74 2.815 2.815 0 00-.6-.414c-.3-.165-.9-.507-1.063-.6-1.773-1.059-4.092.21-6.987 1.8-1.8.984-3.336 2.157-4.269 4.344a12.65 12.65 0 00-.9 3.933c-.255 3.018.765 12.786 1.38 17.154.9 7.299 1.974 7.311 3.558 8.532 2.718 2.1 10.542 6.222 13.125 7.239 4.683 1.842 8.511-.999 11.364-2.4a65.9 65.9 0 007.56-4.476c.714-.519 1.083-1.044 1.074-1.599.003-.228.006-1.125.006-1.356z" fill="#459AE9"/><path opacity=".3" d="M56.127 76.053c0-.705-.62-1.461-1.932-2.31-2.418-1.569-11.157-6.666-14.544-8.544a.036.036 0 00-.03-.027c-2.604-1.581-4.173-12.336-5.979-18.057a9.996 9.996 0 00-.378-1.053c0-.027-.02-.051-.033-.078-.033-.075-.066-.153-.102-.231-.036-.078-.033-.081-.05-.117a5.494 5.494 0 00-1.2-1.74 2.815 2.815 0 00-.6-.414c-.3-.165-.9-.507-1.063-.6-1.773-1.059-4.092.21-6.987 1.8-1.8.984-3.336 2.157-4.269 4.344a12.65 12.65 0 00-.9 3.933c-.255 3.018.765 12.786 1.38 17.154.9 7.299 1.974 7.311 3.558 8.532 2.718 2.1 10.542 6.222 13.125 7.239 4.683 1.842 8.511-.999 11.364-2.4a65.9 65.9 0 007.56-4.476c.714-.519 1.083-1.044 1.074-1.599.003-.228.006-1.125.006-1.356z" fill="#000"/><path d="M47.49 82.116a66.309 66.309 0 007.56-4.479c1.623-1.179 1.473-2.4-.852-3.9-3.234-2.1-16.407-9.573-16.407-9.573s-16.656 9.837-15.939 11.652c.717 1.815 11.025 7.428 14.274 8.7 4.683 1.848 8.511-.99 11.364-2.4z" fill="#459AE9"/><path d="M47.49 82.116a66.309 66.309 0 007.56-4.479c1.623-1.179 1.473-2.4-.852-3.9-3.234-2.1-16.407-9.573-16.407-9.573s-16.656 9.837-15.939 11.652c.717 1.815 11.025 7.428 14.274 8.7 4.683 1.848 8.511-.99 11.364-2.4z" fill="#fff" opacity=".2"/><path d="M31.275 43.482c-1.755-.921-4.032.33-6.852 1.875-1.8.99-3.342 2.163-4.278 4.356l-1.2-.687c.933-2.187 2.47-3.357 4.27-4.344 2.894-1.587 5.213-2.856 6.986-1.8.174.093.774.435 1.074.6z" fill="#459AE9"/><path opacity=".5" d="M31.275 43.482c-1.755-.921-4.032.33-6.852 1.875-1.8.99-3.342 2.163-4.278 4.356l-1.2-.687c.933-2.187 2.47-3.357 4.27-4.344 2.894-1.587 5.213-2.856 6.986-1.8.174.093.774.435 1.074.6z" fill="#fff"/><path d="M33.642 47.115c-.036-.123-.642-2.223-1.77-3.219a2.874 2.874 0 00-1.917-.729c-1.533 0-3.369 1.011-5.526 2.19-.18.099-.357.201-.531.3l-.201.12a6.336 6.336 0 00-.237.15l-.177.114c-.379.25-.74.526-1.083.825-.057.047-.11.097-.162.15-.22.199-.427.412-.618.639l-.102.12-.123.153-.12.156-.114.159c-.15.219-.3.447-.429.69l-.051.093a5.414 5.414 0 00-.24.495 12.42 12.42 0 00-.966 4.116c-.417 4.956 1.281 21.333 2.985 22.746 0 0-.261-1.602 3.165-3.762 2.331-1.464 3.966-2.7 6.453-3.9 6.057-2.976 7.755-3.534 7.755-3.534-2.616-1.587-4.185-12.351-5.991-18.072z" fill="#459AE9"/><path d="M43.41 93.066c-.633.786-1.539 3.324-1.539 3.324a1.89 1.89 0 00.681 1.602l2.1-3.504-1.242-1.422z" fill="#263238"/><path d="M42.552 97.992l3.9 1.029 1.977-2.34-3.774-2.193-2.103 3.504z" fill="#000"/><path d="M45.561 89.076c.048-.141.1-.3.16-.45a.461.461 0 01.6-.285c-.03.117-.082.273-.088.336.04.108.093.315.66.75.25.197.525.359.82.48.3.117.6.282.9.399a.8.8 0 01.24.126.71.71 0 01.15.522v1.596c-.025.165-.02.332.014.495a.103.103 0 00.07-.063 7.046 7.046 0 011.571-1.887.339.339 0 01.13-.078.138.138 0 01.17.111c0 .069-.6 2.079-.9 3.774a16.556 16.556 0 00-.3 3.69c.15 2.586.951 4.899 1.248 6.132.4 1.65-1.2 2.181-3.9.15-1.338-1.011-2.925-3.117-3.066-4.401-.14-1.284.528-3.048.372-4.017-.156-.969-1.2-2.433-1.044-3.39a.334.334 0 010-.051 4.78 4.78 0 01.384-1.17c.232-.438.502-.855.807-1.245l.1-.141c.146-.213.3-.429.443-.642.148-.202.273-.42.375-.648l.084-.093z" fill="#263238"/><path d="M57.957 72.546c-1.296-1.347-2.133-1.824-7.32-4.422-4.764-2.382-10.374-4.41-10.374-4.41l-4.5 7.008L41.57 74.7l8.4 3.546a10.433 10.433 0 00-1.5 3.384c-.165.66-1.464 7.905-1.464 7.905l4.722 3.987s4.245-9.675 6.033-14.34c1.689-4.383.68-6.132.195-6.636z" fill="#B16668"/><path d="M39.252 60.762c1.443.972 4.11 2.073 7.872 4.113 3.387 1.836 9.6 4.848 11.331 6.777 1.53 1.716.99 3.993-.138 7.38-1.128 3.387-6.75 15.222-6.75 15.222l-4.77-4.137s.918-7.467 1.67-9.552c.6-1.638 1.2-2.178 1.2-2.178l-12.656-4.125-3.186-6.495c.483-3.669 1.92-5.835 5.427-7.005z" fill="#37474F"/><path d="M51.567 94.254l-4.77-4.137s.918-7.467 1.671-9.552c.19-.545.437-1.069.735-1.563 1.176 1.239 1.857 1.926 2.778 5.226.417 1.5.975 3.873 1.458 6.03a576.448 576.448 0 01-1.872 3.996zm-9.882-30.192c1.479 3.81.3 6.231.3 6.231l7.674 8.1-12.657-4.125 4.683-10.206zm7.503 4.722a32.957 32.957 0 014.62 2.625 13.564 13.564 0 012.007 1.68c.292.303.546.64.756 1.005.093.168.157.35.189.54.025.204.032.41.021.615a13.514 13.514 0 01-.447 2.568c-.21.858-.468 1.707-.726 2.553a192.767 192.767 0 01-1.689 5.067 46.269 46.269 0 002.1-4.923c.3-.84.582-1.695.825-2.559.254-.88.416-1.786.483-2.7.008-.24-.003-.48-.033-.717a2.3 2.3 0 00-.255-.714 5.016 5.016 0 00-.861-1.11 12.169 12.169 0 00-2.145-1.671 23.076 23.076 0 00-4.845-2.259z" fill="#263238"/><path d="M59.937 108.363c-1.533-1.554-2.829-4.392-3.798-6.129-.41-.741-1.023-2.493-1.665-4.539l-5.949.705a69.146 69.146 0 011.605 3.999l.075.855c.037.441.228.856.54 1.17.327.351.67.681 1.03.999.956.852 2.801 2.799 4.067 4.2 1.827 2.013 3.954 2.346 5.865 2.178 1.911-.168 1.125-.825.882-1.068-.243-.243-2.316-2.031-2.652-2.37z" fill="#FFA8A7"/><path d="M50.691 107.925c-.033 1.011.816 3.57.816 3.57a1.951 1.951 0 001.599.834l-.459-4.065-1.956-.339z" fill="#263238"/><path d="M53.106 112.329l4.563-1.971-.438-2.721-4.584.627.459 4.065z" fill="#000"/><path d="M49.965 103.449c-.051-.144-.114-.3-.153-.456a.48.48 0 01.152-.512.475.475 0 01.166-.088c.051.111.105.267.141.318.102.06.279.192 1.038.18.337 0 .672-.045.996-.135.33-.096 1.296-.492 1.629-.6a.865.865 0 01.285-.051.726.726 0 01.456.315l.696.834c.111.138.225.273.339.408.114.135.207.324.33.381a.104.104 0 00.018-.093 6.68 6.68 0 01.126-2.463.302.302 0 01.06-.141.137.137 0 01.046-.038.147.147 0 01.167.02 22.666 22.666 0 001.656 3.513 11.112 11.112 0 002.862 3.27c2.64 1.965 3.693 2.598 4.521 3.393 1.254 1.2 0 2.367-3.504 3.021-2.4.444-5.067-.279-6-1.2-.933-.921-1.5-2.724-2.244-3.39-.744-.666-2.553-1.173-3.042-2.01l-.027-.045a4.474 4.474 0 01-.423-1.158 7.937 7.937 0 01-.111-1.482v-.171c0-.261-.024-.522-.033-.783a3.416 3.416 0 00-.096-.741.9.9 0 00-.051-.096zM24.91 62.118c-.646 2.673-1.327 4.623-1.303 7.698 0 1.836.675 5.214 4.8 8.01 4.125 2.796 13.407 6.885 13.917 7.728.51.843.693 3.681 2.796 7.626a183.485 183.485 0 004.086 7.248c2.454.3 4.62-.366 5.88-1.665 0 0-1.242-5.349-2.019-9.348-1.404-7.224-2.034-9.075-3.56-10.626-1.528-1.551-8.776-8.259-8.776-8.259s.747-1.2 1.035-4.518a9.448 9.448 0 00-.705-4.251s-8.604 1.662-16.152.357z" fill="#37474F"/><path d="M30.612 65.247c.018.9.167 1.792.441 2.649.264.862.615 1.696 1.047 2.487.428.79.93 1.538 1.5 2.232a11.826 11.826 0 001.92 1.875 46.931 46.931 0 01-1.572-2.136 25.524 25.524 0 01-1.37-2.238 23.008 23.008 0 01-1.129-2.364 22.547 22.547 0 01-.837-2.505zM30 65.34a8.724 8.724 0 00-.264 2.265c0 .763.062 1.524.183 2.277.123.75.3 1.492.531 2.217.22.73.529 1.429.921 2.082a39.013 39.013 0 01-.498-2.193c-.147-.732-.3-1.461-.402-2.196-.102-.735-.219-1.47-.3-2.208a33.987 33.987 0 01-.17-2.244zm12.768 11.07c1.065 1.101 2.17 2.166 3.228 3.261a23.657 23.657 0 011.5 1.701 7.754 7.754 0 011.134 1.893c.255.699.51 1.431.753 2.151l.747 2.169a124.06 124.06 0 001.566 4.32 65.514 65.514 0 00-1.134-4.458c-.432-1.473-.876-2.928-1.419-4.386a7.592 7.592 0 00-1.248-2.01 16.995 16.995 0 00-1.605-1.677c-1.128-1.053-2.319-2.013-3.522-2.964zm12.135 21.42c-.78 1.5-4.758 2.256-6.279 1.8l.9 1.872s.9.438 3.225-.135 2.589-1.65 2.589-1.65l-.435-1.887z" fill="#263238"/><path d="M25.212 60.321c1.341.738 3.654 1.587 7.29 1.518 3.636-.069 7.473-1.167 8.526-2.226l.387 2.385s-2.214 1.947-8.457 2.064c-5.646.105-8.049-1.944-8.049-1.944l.303-1.797z" fill="#455A64"/><path d="M36.33 47.493c4.416 1.122 12.066-2.484 9.492-7.719-.501-.705-1.161-1.164-1.092-2.118 1.34-4.47-.54-3.351-2.586-6.018-.786-1.023.74-2.595-.183-3.729-1.935-3.45-12.183-4.5-13.17 1.344-3.6 1.335-2.631 11.265.453 14.43 1.58 2.058 4.605 3.384 7.086 3.81z" fill="#37474F"/><path d="M45.201 46.317c1.239 1.611 3.3 3.825 5.31 6.3l.459-.399a164.37 164.37 0 002.919-2.607 54.47 54.47 0 001.476-1.407c.18-.18.357-.363.528-.555.441-.498.363-1.236.411-1.848.035-.77.171-1.533.405-2.268.084-.237.183-.468.27-.702a6.742 6.742 0 00.366-1.554c.006-.142.04-.28.102-.408.174-.3.522-.138.708.051.177.22.275.494.279.777.057.6-.072 1.182-.06 1.779 0 .225.072.498.3.555a.382.382 0 00.333-.096c.26-.258.488-.547.678-.861.237-.333.477-.666.717-.996.414-.576.825-1.17 1.29-1.704.6-.702 1.074-.774 1.305-.486.129.165-.195.69-.867 1.815-.672 1.125-1.2 1.845-1.128 1.899.072.054.516-.783 1.398-1.782.81-.921 1.218-1.314 1.722-1.467.504-.153.648.219.429.534-.273.393-.573.861-1.698 2.256-.358.417-.684.86-.975 1.326.06.102.717-.615 1.662-1.365a11.027 11.027 0 011.716-1.227.3.3 0 01.417.39c-.285.442-.618.85-.993 1.218-.54.6-.783.78-1.221 1.2-.3.3-.684.675-.645.738.039.063 1.8-1.038 2.361-1.218.633-.201.729.315.333.693-.228.222-1.122.876-1.935 1.644-.6.555-1.251 1.311-1.599 1.635-1.701 1.587-1.968 1.437-2.73 2.256-.762.819-2.1 2.787-3.732 4.8-1.35 1.653-2.808 3.276-3.384 3.813-1.725 1.605-2.73.762-4.683-.966-2.205-1.95-5.1-5.613-5.574-6.378l-3.807-9.081c3.033-.087 5.007.915 7.137 3.696z" fill="#FFA8A7"/><path d="M59.019 45v.021c.144.263.245.548.3.843.068.284.09.576.066.867a2.726 2.726 0 01-.321 1.116 5.315 5.315 0 00-.321.57c0 .03.015.09.054.069a1.09 1.09 0 00.333-.339c.107-.142.2-.294.279-.453a2.77 2.77 0 00.3-.996 1.965 1.965 0 00-.69-1.698z" fill="#F28F8F"/><path d="M38.328 42.36c2.229.21 3.282.669 4.58 1.587 1.3.918 1.939 1.626 3.058 3.024 1.119 1.398 4.548 5.487 4.548 5.487a6.672 6.672 0 00-1.75 3.177 6.252 6.252 0 00.268 3.747s-.99-.36-2.862-2.274a2334.173 2334.173 0 00-4.641-4.725L38.328 42.36z" fill="#EBEBEB"/><path d="M50.298 51.852c.273.345.3.231.55.123a.327.327 0 01.374.03l-.348.324a6.922 6.922 0 00.192 3.45 3.883 3.883 0 001.977 2.298l.33-.363a.798.798 0 01-.138 1.143c-.186.162-.423.246-.6.393-.177.147-.393.387-.6.567-.17.17-.35.33-.54.477a1.635 1.635 0 01-1.728-.111c-.234-.15-.44-.342-.684-.474-.243-.132-.453-.183-.672-.3a2.099 2.099 0 01-1.113-1.5 4.8 4.8 0 01.018-1.602c.107-.576.27-1.14.486-1.683a8.7 8.7 0 011.5-2.7c.573-.681.852-.255.996-.072zm-25.401 7.521a1.147 1.147 0 00.396.954c1.329.9 3.654 1.986 7.44 2.244 3.786.258 7.227-.93 8.418-1.938a1.14 1.14 0 00.429-.969c-.066-1.566.054-1.992.3-3.729 2.793-2.793 1.986-5.25 1.596-6.621-.963-3.369-5.145-6.954-5.145-6.954l-2.238-.078c-1.845-.093-2.832-.207-4.395-.108-1.563.099-5.244 1.461-5.244 1.461.339 2.85.804 4.173.042 6.33a5.52 5.52 0 01-1.9 2.499c.431 2.277.532 4.604.3 6.909z" fill="#E0E0E0"/><path opacity=".1" d="M37.128 55.659s-1.599 1.737-4.731.99c-3.132-.747-3.6-3.183-3.6-3.183s-.402 3.063 3.345 3.942c3.699.867 4.986-1.749 4.986-1.749z" fill="#000"/><path d="M51.375 62.577a2.508 2.508 0 00-1.401.048c-1.314.318-2.616.774-3.969.822a.502.502 0 01-.429-.126c-.258-.333 1.617-.921 1.857-1.044a2.451 2.451 0 001.2-1.158c.066-.153.093-.354-.033-.459a.437.437 0 00-.384-.024c-.78.189-1.581.285-2.373.45-.43.046-.855.12-1.275.219-.663.225-1.275.582-1.92.855a3.99 3.99 0 01-1.683.396c-.657-.027-1.329-.366-1.926-.624-1.716-.738-3.405-1.542-5.13-2.265l-5.283 3.258c.9 1.023 1.47 1.524 3.486 2.169s4.026 1.137 6.054 1.596c1.917.435 3.672 1.2 5.682 1.263a9.942 9.942 0 002.901-.3c.464-.122.91-.304 1.326-.543.354-.201.819-.3 1.044-.675a4.17 4.17 0 01.282-.522c.198-.243.552-.342.699-.621.234-.441.3-1.083.675-1.443.195-.14.409-.252.636-.33.213-.108.42-.318.378-.555a.566.566 0 00-.414-.387z" fill="#FFA8A7"/><path d="M26.451 43.635c-1.476.501-2.943 1.332-3.018 4.776-.045 2.058.735 4.593 2.166 8.367.978 2.574 1.893 4.968 2.334 5.961 1.107-1.773 3.72-4.665 5.025-4.023l-2.778-8.775s-1.527-5.01-3.729-6.306z" fill="#EBEBEB"/><path d="M33.39 58.605c-.273-.225-1.752-.6-3.387.759s-2.22 2.604-2.244 3.081c-.024.477.357.66.669.921.312.261.447.996 1.01 1.134.46.128.9.316 1.309.561a.9.9 0 00.984-.096l-.456-.165s-.321-1.599 1.065-3.327 2.274-1.518 2.274-1.518l.372.162a.717.717 0 00-.405-.6c-.387-.159-.645-.207-.78-.372a2.346 2.346 0 00-.411-.54z" fill="#E0E0E0"/><path d="M31.059 36.762l-.651 5.664c.477 1.833 3.543 2.448 7.476 5.271.216-2.484-1.8-4.815-1.8-4.815l.228-1.527-5.253-4.593z" fill="#FFA8A7"/><path d="M38.847 28.869v.018a4.077 4.077 0 01-1.8 2.307c-1.098.702-1.893.927-3.56.984 0 .432.035 1.479-.958 1.629.02.283.005.567-.045.846-.058.32-.227.61-.477.819-.258.204-.528.123-.576-.201a2.493 2.493 0 00-.255-.885 1.426 1.426 0 00-1.53-.681 1.8 1.8 0 00-1.296 1.464 3.021 3.021 0 00.9 2.4 1.552 1.552 0 001.257.282c.678-.207.792-.6.792-.6l-.399-.186.72 1.395a8.33 8.33 0 001.437 2.1c.6.363 2.556.87 3.21.966 1.2.183 2.22.084 3.081-.396.687-.384 1.911-2.136 1.461-6.069-.063-.534-.255-1.143-.26-1.593-.03-3.3-1.567-4.437-1.702-4.599z" fill="#FFA8A7"/><path d="M31.362 37.944a4.124 4.124 0 001.5 2.979 6.567 6.567 0 003.3 1.137l.075-.54a8.285 8.285 0 01-2.79-.825c-1.248-.684-1.725-1.695-2.085-2.751z" fill="#F28F8F"/><path d="M35.937 34.362a.55.55 0 01-.297.537.553.553 0 11.297-.537zm3.996-.429a.556.556 0 11-1.107.098.556.556 0 011.107-.098zM35.52 32.76l-1.2.696a.723.723 0 01.255-.966.673.673 0 01.945.27zm4.413-.195l-1.371-.18a.662.662 0 01.75-.6.73.73 0 01.621.78z" fill="#263238"/><path d="M36.939 33.654l.657 3.333 1.665-.801s-1.686-2.736-2.322-2.532z" fill="#F28F8F"/><path d="M35.904 37.719l2.076.3a1.053 1.053 0 01-1.29.867.984.984 0 01-.786-1.167z" fill="#B16668"/><path d="M37.275 38.853a1.104 1.104 0 00-1.254-.783.948.948 0 00-.1.03.921.921 0 00.775.789c.193.037.392.024.579-.036z" fill="#F28F8F"/><path d="M71.649 93.834l-1.092-.63-2.832 35.664 1.092.63 2.832-35.664z" fill="#455A64"/><path d="M71.649 93.834l1.632-.942-3.375 35.976-1.09.63 2.833-35.664z" fill="#37474F"/><path d="M102.753 75.882l-1.092-.63 3.375 32.082 1.092.63-3.375-32.082z" fill="#455A64"/><path d="M102.753 75.882l1.635-.942 2.832 32.394-1.092.63-3.375-32.082z" fill="#37474F"/><path d="M47.604 79.95l-1.092-.63-2.832 35.664 1.092.63 2.832-35.664z" fill="#455A64"/><path d="M47.604 79.95l1.632-.942-3.375 35.976-1.089.63 2.832-35.664z" fill="#37474F"/><path d="M78.708 61.998l-1.092-.63 3.375 32.082 1.092.63-3.375-32.082z" fill="#455A64"/><path d="M78.708 61.998l1.635-.942 2.832 32.394-1.092.63-3.375-32.082z" fill="#37474F"/><path d="M32.556 82.2v-1.293a.744.744 0 01.333-.576L83.66 51a.738.738 0 01.663 0l32.259 18.666a.734.734 0 01.333.576v1.29a.742.742 0 01-.333.576L65.81 101.433a.741.741 0 01-.666 0L32.889 82.767a.732.732 0 01-.333-.567z" fill="#459AE9"/><path opacity=".2" d="M32.556 82.2v-1.293a.744.744 0 01.333-.576L83.66 51a.738.738 0 01.663 0l32.259 18.666a.734.734 0 01.333.576v1.29a.742.742 0 01-.333.576L65.81 101.433a.741.741 0 01-.666 0L32.889 82.767a.732.732 0 01-.333-.567z" fill="#fff"/><path d="M65.475 99.453v2.058a.701.701 0 01-.333-.078L32.889 82.77a.738.738 0 01-.333-.576v-1.293a.731.731 0 01.27-.531c-.12.102-.1.246.063.339l32.256 18.666c.102.054.215.08.33.078z" fill="#459AE9"/><path d="M32.889 80.7l32.256 18.675a.745.745 0 00.666 0l50.772-29.322a.202.202 0 00.135-.192.205.205 0 00-.135-.192L84.324 51a.738.738 0 00-.663 0L32.889 80.325a.203.203 0 000 .375z" fill="#459AE9"/><path opacity=".5" d="M32.889 80.7l32.256 18.675a.745.745 0 00.666 0l50.772-29.322a.202.202 0 00.135-.192.205.205 0 00-.135-.192L84.324 51a.738.738 0 00-.663 0L32.889 80.325a.203.203 0 000 .375z" fill="#fff"/><path d="M69.534 82.098L57.944 88.8a.477.477 0 01-.431 0l-15.636-9.024a.495.495 0 01-.216-.378v-.051a.478.478 0 01.216-.375l11.598-6.696a.483.483 0 01.435 0L69.534 81.3a.468.468 0 01.216.375v.051a.478.478 0 01-.216.372z" fill="#459AE9"/><path opacity=".45" d="M69.534 82.098L57.944 88.8a.477.477 0 01-.431 0l-15.636-9.024a.495.495 0 01-.216-.378v-.051a.478.478 0 01.216-.375l11.598-6.696a.483.483 0 01.435 0L69.534 81.3a.468.468 0 01.216.375v.051a.478.478 0 01-.216.372z" fill="#000"/><path d="M53.895 72.267a.487.487 0 00-.501.057l-11.43 6.6a.183.183 0 000 .345L57.432 88.2a.6.6 0 00.6 0l11.433-6.6a.2.2 0 00.098-.172.2.2 0 00-.098-.173l-15.57-8.988z" fill="#459AE9"/><path opacity=".3" d="M53.895 72.267a.487.487 0 00-.501.057l-11.43 6.6a.183.183 0 000 .345L57.432 88.2a.6.6 0 00.6 0l11.433-6.6a.2.2 0 00.098-.172.2.2 0 00-.098-.173l-15.57-8.988z" fill="#000"/><path d="M69.534 81.3l-.072-.042a.202.202 0 010 .345l-11.433 6.6a.6.6 0 01-.3.078v.57a.442.442 0 00.222-.051l11.589-6.699a.477.477 0 00.216-.375v-.051a.468.468 0 00-.222-.375z" fill="#459AE9"/><path opacity=".2" d="M69.534 81.3l-.072-.042a.202.202 0 010 .345l-11.433 6.6a.6.6 0 01-.3.078v.57a.442.442 0 00.222-.051l11.589-6.699a.477.477 0 00.216-.375v-.051a.468.468 0 00-.222-.375z" fill="#000"/><path opacity=".25" d="M54.03 73.089a.473.473 0 00-.495.054l-10.383 6c-.162.096-.165.249 0 .342l13.656 7.884a.6.6 0 00.6 0l10.383-6a.197.197 0 000-.342l-.19-.111-13.571-7.827z" fill="#000"/><path d="M57.189 87.276L67.533 81.3a.206.206 0 00.09-.153v-.117a.194.194 0 00-.09-.153l-13.728-7.92a.204.204 0 00-.177 0L43.275 78.93a.192.192 0 00-.087.153v.117a.203.203 0 00.087.156l13.728 7.923a.186.186 0 00.186-.003z" fill="#F5F5F5"/><path d="M43.275 78.942l-.024.024a.232.232 0 00-.024.048v.186a.205.205 0 00.09.153l13.728 7.926a.172.172 0 00.087.021v-.318a.21.21 0 01-.09-.021l-13.767-7.929c-.033-.024-.039-.06 0-.09z" fill="#E0E0E0"/><path d="M67.623 81.036v.117a.206.206 0 01-.09.153l-10.344 5.97a.186.186 0 01-.177 0l-1.704-.981v-.321l10.521-6.075 1.704.984a.194.194 0 01.09.153z" fill="#459AE9"/><path opacity=".4" d="M67.623 81.036v.117a.206.206 0 01-.09.153l-10.344 5.97a.186.186 0 01-.177 0l-1.704-.981v-.321l10.521-6.075 1.704.984a.194.194 0 01.09.153z" fill="#fff"/><path d="M67.554 80.898c.027.03.021.063-.02.087l-10.345 5.973a.207.207 0 01-.087.021v.321a.17.17 0 00.087-.021L67.533 81.3a.195.195 0 00.087-.153v-.117a.21.21 0 00-.066-.132z" fill="#459AE9"/><path opacity=".6" d="M67.554 80.898c.027.03.021.063-.02.087l-10.345 5.973a.207.207 0 01-.087.021v.321a.17.17 0 00.087-.021L67.533 81.3a.195.195 0 00.087-.153v-.117a.21.21 0 00-.066-.132z" fill="#fff"/><path d="M57.012 87.276l-1.704-.984v-.318l1.704.984a.21.21 0 00.09.021v.321a.175.175 0 01-.09-.024z" fill="#459AE9"/><path d="M66.075 82.5l-.801-.462a.794.794 0 00-.726 0l-1.8 1.035a.6.6 0 01-.321.036.972.972 0 00-.264 0 1.71 1.71 0 00-.666.372 1.3 1.3 0 00-.153.162l-.054.072a1.8 1.8 0 01-.414.432l-2.1 1.2a.345.345 0 00-.138.132.225.225 0 00-.036.12.3.3 0 00.174.255l.8.462a.796.796 0 00.727 0l.702-.408a.072.072 0 00.018-.096.069.069 0 00-.09-.03l-.702.408a.658.658 0 01-.576 0l-.78-.456c-.063-.036-.096-.078-.096-.12 0-.042.036-.087.096-.123l2.1-1.2c.179-.129.333-.288.456-.471l.054-.069c.041-.05.085-.098.132-.144.174-.153.379-.267.6-.336a.8.8 0 01.225 0 .673.673 0 00.405-.057l1.8-1.035a.656.656 0 01.576 0l.8.465a.15.15 0 01.097.12.157.157 0 01-.096.123l-.6.354c.03.04.054.083.072.129l.6-.351a.3.3 0 00.174-.252.3.3 0 00-.195-.267z" fill="#000" opacity=".25"/><path d="M65.4 83.619a.18.18 0 00.08-.171.6.6 0 00-.266-.462.193.193 0 00-.19-.018l-4.247 2.454.375.651 4.248-2.454z" fill="#37474F"/><path d="M60.975 85.746l4.437-2.562c.05.08.078.17.08.264v.027l-4.37 2.523-.147-.252z" fill="#455A64"/><path d="M61.23 85.899c0 .171-.117.24-.264.156a.599.599 0 01-.267-.462c0-.171.12-.237.267-.153a.599.599 0 01.264.459z" fill="#263238"/><path d="M66.05 82.398l-.8-.462a.796.796 0 00-.726 0l-1.8 1.035a.564.564 0 01-.321.036.995.995 0 00-.267 0 1.722 1.722 0 00-.666.375c-.054.05-.104.102-.15.159l-.054.072a1.733 1.733 0 01-.414.432l-2.1 1.2a.371.371 0 00-.141.129.261.261 0 00-.033.123.3.3 0 00.17.252l.805.462a.79.79 0 00.723 0l.705-.405a.075.075 0 00.018-.096.075.075 0 00-.093-.03l-.69.42a.642.642 0 01-.573 0l-.804-.462c-.06-.036-.096-.081-.096-.123 0-.042.036-.087.099-.123l2.1-1.2c.179-.13.333-.29.456-.474a1.2 1.2 0 01.189-.21 1.61 1.61 0 01.6-.339c.076-.008.152-.008.228 0a.68.68 0 00.405-.057l1.8-1.032a.648.648 0 01.576 0l.8.462c.06.036.097.081.097.123 0 .042-.036.087-.096.123l-.6.351a.63.63 0 01.075.132l.6-.354a.3.3 0 00.17-.252.3.3 0 00-.191-.267z" fill="#455A64"/><path opacity=".2" d="M92.4 65.613l-12.3-7.107a.705.705 0 00-.705 0l-21.357 12.33a.158.158 0 000 .273L70.452 78.3 92.4 65.613z" fill="#000"/><path d="M90.654 64.575v.264a1.092 1.092 0 01-.543.945L71.034 76.8a1.068 1.068 0 01-.543.144c-.192 0-.382-.05-.55-.144l-10.397-6a1.095 1.095 0 01-.543-.945v-.366a.132.132 0 00.069.12l11.418 6.6 20.166-11.634z" fill="#37474F"/><path d="M90.657 64.575l-11.313-6.531a.642.642 0 00-.648 0L59.073 69.375a.144.144 0 000 .249l11.418 6.6 20.166-11.649z" fill="#455A64"/><path d="M70.386 75.258l-6.102-3.519L82.122 61.44l6.135 3.501-17.871 10.317z" fill="#37474F"/><path d="M88.257 64.941l-.234.132-5.901-3.366-17.604 10.167-.231-.135L82.122 61.44l6.135 3.501zm-20.871.528l.114.066 2.991 1.725 5.316-3.069.111-.063-3.102-1.791-5.43 3.132z" fill="#263238"/><path d="M67.5 65.535l2.991 1.725 5.316-3.069-2.991-1.728-5.316 3.072z" fill="#37474F"/><path d="M70.491 76.218v.723c.19.001.378-.048.543-.144l19.077-11.013a1.095 1.095 0 00.546-.945v-.264L70.491 76.218z" fill="#263238"/><path d="M70.797 76.377a1.285 1.285 0 001.113-.084l18.993-10.965a1.296 1.296 0 00.627-.9l2.079-12.402a1.293 1.293 0 00-.363-1.128l-19.737 11.4a.957.957 0 00-.465.666l-2.247 13.413z" fill="#37474F"/><path d="M70.491 76.218l.129.075c.057.031.117.06.177.084l2.247-13.419a.956.956 0 01.465-.666l19.737-11.4a1.338 1.338 0 00-.264-.201L73.206 62.1a.964.964 0 00-.465.669l-2.25 13.449z" fill="#455A64"/><path d="M73.227 62.544l-.3-.177a.973.973 0 00-.18.414l-2.25 13.437.129.075c.057.031.116.06.177.084l2.247-13.419a.975.975 0 01.177-.414z" fill="#263238"/><path d="M81.495 64.932c.138-.831.996-1.932 1.914-2.463.918-.531 1.548-.3 1.41.543-.138.843-.996 1.932-1.914 2.463-.918.531-1.551.288-1.41-.543z" fill="#459AE9"/><path d="M9.975 109.65c0-2.1 3.036-3.813 6.783-3.813 3.747 0 6.786 1.707 6.786 3.813v.501c0 2.1-3.039 3.816-6.786 3.816-3.747 0-6.783-1.71-6.783-3.816v-.501z" fill="#E0E0E0"/><path d="M9.975 109.65c0-2.1 3.036-3.813 6.783-3.813 3.747 0 6.786 1.707 6.786 3.813v.501c0 2.1-3.039 3.816-6.786 3.816-3.747 0-6.783-1.71-6.783-3.816v-.501z" fill="#000" opacity=".25"/><path d="M9.975 109.65c0 2.1 3.036 3.816 6.783 3.816 3.747 0 6.786-1.707 6.786-3.816s-3.039-3.813-6.786-3.813c-3.747 0-6.783 1.707-6.783 3.813z" fill="#F5F5F5"/><path d="M23.067 98.664a.147.147 0 00.144-.126l.882-6.471a.144.144 0 00-.229-.136.147.147 0 00-.056.094l-.9 6.471a.144.144 0 00.123.165l.036.003zm-1.428 1.509c.035 0 .07-.014.096-.038a.145.145 0 00.048-.091l.873-8.34a.147.147 0 00-.236-.129.14.14 0 00-.052.099l-.873 8.34a.14.14 0 00.031.106.147.147 0 00.098.053h.015zm-1.764.858a.147.147 0 00.144-.138l.645-10.2a.141.141 0 00-.135-.153.138.138 0 00-.153.135l-.645 10.2a.14.14 0 00.035.106.131.131 0 00.045.035.134.134 0 00.055.015h.009zm-2.043.423a.143.143 0 00.144-.141l.213-11.1a.144.144 0 00-.14-.147.13.13 0 00-.142.083.133.133 0 00-.009.058l-.21 11.1a.143.143 0 00.04.104.163.163 0 00.046.032.15.15 0 00.055.011h.003zm-7.53-2.79a.147.147 0 01-.144-.126l-.885-6.471a.147.147 0 01.123-.165.15.15 0 01.165.123l.882 6.471a.144.144 0 01-.12.165l-.02.003zm1.425 1.509a.146.146 0 01-.141-.129l-.873-8.34a.143.143 0 01.129-.159.143.143 0 01.159.129l.873 8.34a.15.15 0 01-.129.159h-.018zm1.773.858a.143.143 0 01-.144-.138l-.648-10.2a.143.143 0 01.135-.153.135.135 0 01.153.135l.648 10.2a.147.147 0 01-.135.156H13.5zm2.034.423a.143.143 0 01-.144-.141l-.21-11.1a.14.14 0 01.086-.136.14.14 0 01.055-.011.131.131 0 01.139.084c.007.018.01.038.008.057l.213 11.1a.147.147 0 01-.04.103.147.147 0 01-.1.044h-.007zm7.677 8.568l1.764-12.096a.152.152 0 00-.241-.142.151.151 0 00-.059.1l-1.77 12.096a.144.144 0 00.123.165h.021a.144.144 0 00.144-.123m-1.553 1.635a.146.146 0 00.096-.039.145.145 0 00.047-.093l1.263-12.093a.142.142 0 00-.129-.159.143.143 0 00-.142.075.144.144 0 00-.017.054l-1.263 12.093a.143.143 0 00.03.107.142.142 0 00.1.052l.014.003zm-1.765.843a.145.145 0 00.144-.135l.756-12.084a.149.149 0 00-.037-.104.149.149 0 00-.205-.015.136.136 0 00-.049.101l-.759 12.096a.144.144 0 00.044.103.159.159 0 00.05.03.155.155 0 00.056.008z" fill="#EBEBEB"/><path d="M17.832 112.938a.143.143 0 00.144-.141l.255-12.096a.15.15 0 00-.042-.103.15.15 0 00-.102-.044.137.137 0 00-.105.037.134.134 0 00-.042.104l-.252 12.105a.143.143 0 00.04.104.163.163 0 00.046.032.15.15 0 00.055.011l.003-.009zm-2.13 0a.15.15 0 00.102-.044.15.15 0 00.042-.103l-.255-12.096a.143.143 0 10-.285.006l.252 12.099a.145.145 0 00.144.138zm-2.034-.438a.147.147 0 00.054-.014.16.16 0 00.045-.034.146.146 0 00.036-.105l-.76-12.096a.134.134 0 00-.047-.101.123.123 0 00-.048-.028.136.136 0 00-.057-.006.147.147 0 00-.055.014.16.16 0 00-.044.034.144.144 0 00-.036.105l.756 12.096a.142.142 0 00.05.1.125.125 0 00.05.028.137.137 0 00.056.007zm-1.773-.843h.015a.142.142 0 00.129-.159l-1.263-12.093a.15.15 0 00-.3.03l1.263 12.093a.145.145 0 00.156.129zm-1.428-1.512h.02a.147.147 0 00.121-.108.144.144 0 00.003-.057L8.84 97.884a.141.141 0 00-.162-.12.141.141 0 00-.123.162l1.77 12.096a.14.14 0 00.141.123z" fill="#EBEBEB"/><path d="M7.329 95.556a3.6 3.6 0 00.57 1.329 6.336 6.336 0 002.148 1.908c3.711 2.139 9.729 2.139 13.443 0a6.365 6.365 0 002.148-1.893 3.69 3.69 0 00.567-1.329c.33-1.611-.576-3.3-2.718-4.527-3.714-2.145-9.732-2.145-13.443 0-2.139 1.221-3.045 2.901-2.715 4.512zm3.846 2.586c-1.2-.693-1.926-1.545-2.199-2.439.267-.957 1.002-1.881 2.199-2.625 3.096-1.917 8.1-1.917 11.205 0 1.2.744 1.935 1.668 2.199 2.628-.27.9-1.008 1.746-2.199 2.436-3.105 1.788-8.121 1.788-11.205 0z" fill="#F5F5F5"/><path d="M7.899 96.9a6.345 6.345 0 002.145 1.905c3.714 2.142 9.735 2.142 13.446 0a6.3 6.3 0 002.145-1.905c.276-.4.47-.853.57-1.329l-.423 1.677c-.192 1.167-1.062 2.304-2.613 3.198-3.537 2.04-9.27 2.04-12.81 0-1.527-.885-2.4-2.007-2.604-3.156l-.021-.15-.408-1.569c.099.477.294.93.573 1.329z" fill="#E0E0E0"/><path d="M8.886 95.373c.021.111.048.222.078.33.267-.957 1.002-1.881 2.2-2.625 3.095-1.917 8.1-1.917 11.204 0 1.2.744 1.935 1.668 2.2 2.628a2.28 2.28 0 00.08-.336c.231-1.317-.528-2.682-2.28-3.696-3.093-1.8-8.1-1.8-11.205 0-1.749 1.026-2.508 2.379-2.277 3.699z" fill="#E0E0E0"/><path d="M91.773 120.195l3.537-20.4 2.241-.114-4.653 20.523a.296.296 0 01-.15.198.878.878 0 01-.798.042.267.267 0 01-.174-.237l-.003-.012z" fill="#263238"/><path d="M125.058 96.432h2.241l5.268 21.198a.277.277 0 01-.162.249.902.902 0 01-.801 0 .292.292 0 01-.159-.195l-6.387-21.252zm-15.504 33.489l.099-22.86 2.241-.114-1.2 22.971a.29.29 0 01-.054.115.285.285 0 01-.096.083.87.87 0 01-.795.042.273.273 0 01-.177-.237h-.018z" fill="#37474F"/><path d="M112.824 89.319h2.241l3.6 22.524a.27.27 0 01-.044.148.257.257 0 01-.118.098.864.864 0 01-.798 0 .297.297 0 01-.159-.192l-4.722-22.578z" fill="#263238"/><path d="M131.511 71.673c.507 1.256.811 2.585.9 3.936.255 3.018-.765 12.786-1.38 17.151-.9 7.296-1.974 7.311-3.555 8.532-2.721 2.1-10.545 6.222-13.128 7.239-4.683 1.842-8.511-.999-11.364-2.4a66.114 66.114 0 01-7.56-4.479c-.711-.519-1.083-1.044-1.074-1.596v-1.347c0-.705.62-1.458 1.932-2.307 2.418-1.569 11.16-6.669 14.547-8.544a.027.027 0 01.027-.027c2.607-1.584 4.173-12.336 5.979-18.06.039-.12.075-.24.117-.354.042-.114.063-.18.093-.267.114-.3.231-.6.354-.855" fill="#459AE9"/><path d="M94.344 98.7c0-.705.621-1.458 1.932-2.307 2.418-1.569 11.16-6.669 14.547-8.544a.027.027 0 01.027-.027c2.607-1.584 4.173-12.336 5.979-18.06.018-.054.144-.492.378-1.053 0-.024.021-.048.033-.075l.102-.234a5.55 5.55 0 011.251-1.854c.179-.166.381-.306.6-.414.3-.168.9-.51 1.062-.6 1.77-1.059 4.092.213 6.984 1.8 1.8.987 3.336 2.16 4.269 4.344.507 1.256.811 2.585.9 3.936.255 3.018-.765 12.786-1.38 17.151-.9 7.296-1.974 7.311-3.555 8.532-2.721 2.1-10.545 6.222-13.128 7.239-4.683 1.842-8.511-.999-11.364-2.4a66.12 66.12 0 01-7.56-4.479c-.711-.519-1.083-1.044-1.074-1.596.003-.231-.003-1.128-.003-1.359z" fill="#459AE9"/><path opacity=".3" d="M94.344 98.7c0-.705.621-1.458 1.932-2.307 2.418-1.569 11.16-6.669 14.547-8.544a.027.027 0 01.027-.027c2.607-1.584 4.173-12.336 5.979-18.06.018-.054.144-.492.378-1.053 0-.024.021-.048.033-.075l.102-.234a5.55 5.55 0 011.251-1.854c.179-.166.381-.306.6-.414.3-.168.9-.51 1.062-.6 1.77-1.059 4.092.213 6.984 1.8 1.8.987 3.336 2.16 4.269 4.344.507 1.256.811 2.585.9 3.936.255 3.018-.765 12.786-1.38 17.151-.9 7.296-1.974 7.311-3.555 8.532-2.721 2.1-10.545 6.222-13.128 7.239-4.683 1.842-8.511-.999-11.364-2.4a66.12 66.12 0 01-7.56-4.479c-.711-.519-1.083-1.044-1.074-1.596.003-.231-.003-1.128-.003-1.359z" fill="#000"/><path d="M102.975 104.763a66.548 66.548 0 01-7.56-4.476c-1.623-1.179-1.473-2.4.855-3.9 3.23-2.1 16.404-9.573 16.404-9.573s16.656 9.828 15.939 11.643c-.717 1.815-11.025 7.431-14.274 8.7-4.677 1.857-8.505-.984-11.364-2.394z" fill="#459AE9"/><path d="M102.975 104.763a66.548 66.548 0 01-7.56-4.476c-1.623-1.179-1.473-2.4.855-3.9 3.23-2.1 16.404-9.573 16.404-9.573s16.656 9.828 15.939 11.643c-.717 1.815-11.025 7.431-14.274 8.7-4.677 1.857-8.505-.984-11.364-2.394z" fill="#fff" opacity=".2"/><path d="M119.193 66.132c1.752-.921 4.029.33 6.849 1.875 1.8.987 3.342 2.16 4.278 4.356l1.2-.69c-.933-2.184-2.469-3.357-4.269-4.344-2.892-1.584-5.214-2.856-6.984-1.8-.168.093-.792.435-1.074.603z" fill="#459AE9"/><path opacity=".5" d="M119.193 66.132c1.752-.921 4.029.33 6.849 1.875 1.8.987 3.342 2.16 4.278 4.356l1.2-.69c-.933-2.184-2.469-3.357-4.269-4.344-2.892-1.584-5.214-2.856-6.984-1.8-.168.093-.792.435-1.074.603z" fill="#fff"/><path d="M110.85 87.822s1.698.555 7.758 3.534c2.487 1.218 4.122 2.451 6.45 3.915 3.429 2.157 3.168 3.759 3.168 3.759 1.701-1.41 3.399-17.787 2.982-22.743a12.413 12.413 0 00-.975-4.125c-.048-.096-.093-.195-.141-.3-.048-.105-.066-.132-.102-.195l-.051-.09a7.824 7.824 0 00-.429-.69l-.114-.159c-.042-.054-.078-.108-.12-.159l-.12-.15c-.033-.042-.069-.081-.105-.123a7.828 7.828 0 00-.78-.789 10.021 10.021 0 00-1.26-.936c-.06-.036-.156-.102-.237-.15l-.201-.12a11.496 11.496 0 00-.531-.3c-2.154-1.179-3.993-2.19-5.523-2.19a2.85 2.85 0 00-1.917.729c-1.131.996-1.734 3.096-1.773 3.216-1.806 5.73-3.372 16.482-5.979 18.066z" fill="#459AE9"/><path d="M100.635 112.263s1.44 4.995 1.44 6.921c0 2.01.438 2.7.018 4.857-.093.471-.369 1.413-.447 1.8a.567.567 0 00.456.732c.81.219 2.247-1.353 2.979-3.099a55.074 55.074 0 001.908-6.192 2.868 2.868 0 00-.195-1.413 4.365 4.365 0 00-.345-.744c-.231-.885-.3-2.547-.465-3.705l-5.349.843z" fill="#C8856A"/><path d="M108.522 119.181c.099.21.163.435.189.666 0 .399-.9 1.677-1.266 2.142a3.343 3.343 0 00-.72 2.247c0 1.284-.6 2.49-1.425 3.51a8.318 8.318 0 01-4.257 2.67c-2.022.555-2.676-.534-2.676-.534s-.57-1.047-.18-1.446c.39-.399 10.335-9.255 10.335-9.255z" fill="#37474F"/><path d="M106.458 115.122c.06 0 .168 0 .315.195.057.078.378 1.044.657 1.554s1.026 1.5 1.092 2.31c-.534 1.542-1.968 2.568-2.244 4.035-.276 1.467-.375 3.18-2.601 4.89-2.226 1.71-4.437 1.8-5.208 1.278-.771-.522-.657-1.41.525-3.072 1.254-1.761 2.223-5.661 2.223-5.664a14.22 14.22 0 00.282-1.665c.016-.555-.008-1.11-.072-1.662a1.289 1.289 0 01.135-.747c.155-.192.364-.333.6-.405a4.95 4.95 0 011.116-.342 1.65 1.65 0 011.131.198c.24.15.432.384.687.51a.964.964 0 001.059-.15.96.96 0 00.333-1.011l-.03-.252z" fill="#459AE9"/><path opacity=".4" d="M106.458 115.122c.06 0 .168 0 .315.195.057.078.378 1.044.657 1.554s1.026 1.5 1.092 2.31c-.534 1.542-1.968 2.568-2.244 4.035-.276 1.467-.375 3.18-2.601 4.89-2.226 1.71-4.437 1.8-5.208 1.278-.771-.522-.657-1.41.525-3.072 1.254-1.761 2.223-5.661 2.223-5.664a14.22 14.22 0 00.282-1.665c.016-.555-.008-1.11-.072-1.662a1.289 1.289 0 01.135-.747c.155-.192.364-.333.6-.405a4.95 4.95 0 011.116-.342 1.65 1.65 0 011.131.198c.24.15.432.384.687.51a.964.964 0 001.059-.15.96.96 0 00.333-1.011l-.03-.252z" fill="#000"/><path d="M104.994 126.714a3.41 3.41 0 00-3.024-1.914c-2.277-.096-3.12 1.095-3.498 1.8-.453.84-.951 2.376-.033 2.868.993.528 2.175.435 4.068-.462 1.893-.897 2.487-2.292 2.487-2.292zm-.084-7.278a.23.23 0 01-.207 0c-.345-.207-2.184-.705-3.315.3-.135-.126-.099-.342.096-.642 1.305-.795 3.051-.333 3.462-.084a.236.236 0 01.075.324.239.239 0 01-.111.102zm-3.822 1.692a.778.778 0 01.162-.654c1.284-.663 2.904-.228 3.3 0a.238.238 0 01.072.327.254.254 0 01-.111.099.223.223 0 01-.207 0c-.333-.201-2.079-.672-3.216.228zm-1.074 3.216a1.41 1.41 0 01.33-.861c1.299-.747 3-.3 3.411-.051a.22.22 0 01.066.063.219.219 0 01.037.084.22.22 0 01.002.092.222.222 0 01-.033.085.239.239 0 01-.111.102.233.233 0 01-.207 0c-.363-.228-2.391-.771-3.495.486zm4.101-1.962a.22.22 0 01-.207 0c-.339-.204-2.142-.69-3.279.279a.892.892 0 01.225-.705c1.281-.663 2.901-.228 3.3 0a.236.236 0 01.083.097.235.235 0 01.023.125.237.237 0 01-.044.12.249.249 0 01-.098.081l-.003.003z" fill="#FAFAFA"/><path d="M95.601 118.539c-1.119 3.843-1.245 5.955-2.67 8.136-1.467 2.244-2.175 3.345-3.942 4.95-.387.348-1.239.975-1.554 1.257a.655.655 0 00-.078.975c.57.783 3.381 1.392 5.151.381s3.6-3.468 4.698-4.335c.411-.322.806-.664 1.182-1.026.366-.348.336-.741.429-1.185.042-.213.099-.807.099-.807a54.232 54.232 0 012.4-5.1l-5.715-3.246z" fill="#C8856A"/><path d="M98.79 131.7a2.4 2.4 0 01-.186.753c-.216.384-1.78 1.047-2.373 1.272-.594.225-1.248.567-1.911 1.71-.708 1.218-1.926 2.01-3.27 2.478a8.766 8.766 0 01-5.502-.054c-2.226-.705-2.253-2.148-2.253-2.148s.027-1.35.618-1.5c.59-.15 14.877-2.511 14.877-2.511z" fill="#37474F"/><path d="M99.045 126.57c.057.036.168.09.195.378 0 .108-.213 1.227-.228 1.887-.015.708.159 2.058-.222 2.874-1.35 1.149-3.273 1.251-4.335 2.484-1.062 1.233-2.1 2.808-5.145 3.078-3.045.27-5.196-1.002-5.646-1.965-.45-.963.144-1.752 2.175-2.613 2.154-.918 5.205-4.05 5.205-4.053.423-.446.817-.919 1.179-1.416.354-.474.558-1.107.84-1.635.107-.261.294-.482.534-.63.26-.087.541-.087.801 0 .43.071.849.19 1.251.357.411.175.75.485.963.879.147.3.201.633.375.9a1.102 1.102 0 001.089.507 1 1 0 00.867-.765 2.53 2.53 0 00.102-.267z" fill="#459AE9"/><path opacity=".4" d="M99.045 126.57c.057.036.168.09.195.378 0 .108-.213 1.227-.228 1.887-.015.708.159 2.058-.222 2.874-1.35 1.149-3.273 1.251-4.335 2.484-1.062 1.233-2.1 2.808-5.145 3.078-3.045.27-5.196-1.002-5.646-1.965-.45-.963.144-1.752 2.175-2.613 2.154-.918 5.205-4.05 5.205-4.053.423-.446.817-.919 1.179-1.416.354-.474.558-1.107.84-1.635.107-.261.294-.482.534-.63.26-.087.541-.087.801 0 .43.071.849.19 1.251.357.411.175.75.485.963.879.147.3.201.633.375.9a1.102 1.102 0 001.089.507 1 1 0 00.867-.765 2.53 2.53 0 00.102-.267z" fill="#000"/><path d="M91.323 136.749a4.116 4.116 0 00-1.824-3.687c-2.1-1.5-3.564-.867-4.308-.423-.9.525-2.202 1.689-1.596 2.718.654 1.116 1.827 1.749 4.116 2.049 2.289.3 3.612-.657 3.612-.657zm3.897-7.008a.252.252 0 01-.192-.138c-.213-.405-1.692-2.01-3.321-1.731-.06-.204.093-.387.44-.555 1.678.042 3.082 1.551 3.34 2.043a.264.264 0 01-.108.354.25.25 0 01-.16.027zm-4.545-.72a.804.804 0 01.51-.528c1.58.153 2.883 1.56 3.129 2.031a.263.263 0 01-.105.357.283.283 0 01-.162.027.27.27 0 01-.192-.138c-.22-.396-1.623-1.914-3.18-1.749zm-2.79 2.412c.18-.291.458-.51.783-.618 1.644.081 3.015 1.554 3.27 2.04a.264.264 0 01-.108.354.266.266 0 01-.271-.017.265.265 0 01-.08-.091c-.225-.429-1.86-2.19-3.594-1.668zm4.968.639a.258.258 0 01-.192-.138c-.21-.402-1.659-1.971-3.267-1.74a.898.898 0 01.6-.537c1.581.156 2.883 1.563 3.129 2.034a.267.267 0 01-.108.354.247.247 0 01-.162.027z" fill="#FAFAFA"/><path d="M109.575 83.565c-2.4 2.004-9.096 5.61-14.22 10.578-1.365 1.32-1.635 2.73-.6 6.627.957 3.6 3.53 9.261 5.466 13.8l19.905-25.68-10.551-5.325z" fill="#37474F"/><path d="M100.227 114.564l12.252-21.381-.426-.081c-2.307-1.122-3.021-4.128-3.021-4.128-.3 1.359.3 3.102 1.059 4.152-1.329 1.026-4.983 3.141-9.459 6.981-1.398 1.2-1.884 1.758-2.367 4.449-.552 3.081-.678 3.93-.678 3.93l2.64 6.078z" fill="#263238"/><path d="M110.703 84.438l17.679 2.202c-.372 3.822-.81 6.507-1.698 8.946-.699 1.917-2.229 4.392-6.63 6.762-5.07 2.73-12.078 5.4-13.122 5.982-.249 2.367-.957 4.218-1.542 5.742a44.396 44.396 0 01-2.97 6.12c-1.035 1.8-2.229 4.164-2.229 4.164s-3 .54-5.7-1.974c0 0 2.946-12.09 3.84-15.648.738-2.928.576-3.816 2.424-5.7 1.584-1.629 11.307-7.917 11.307-7.917s-3.057-4.095-1.359-8.679z" fill="#37474F"/><path d="M102.198 68.652s-2.307-5.847-2.67-6.855a7.799 7.799 0 01-.417-2.043c-.219-1.908-.522-2.664-1.632-4.179-.188-.258-.38-.516-.576-.774a3.8 3.8 0 01-.27-.381c-.072-.126-.138-.234-.318-.189a.528.528 0 00-.3.237 1.563 1.563 0 00-.15 1.26c.154.513.344 1.014.57 1.5.135.3-.255.108-.405 0a11.59 11.59 0 01-2.307-2.265 11.34 11.34 0 00-1.047-1.371 1.764 1.764 0 00-.93-.495c-.24-.036-.474.015-.486.318.012.189.066.372.159.537.159.354.3.672.15 1.059a3 3 0 00-.264.729c-.033.33.123.651.126.981.003.33-.129.354-.156.633.01.4.092.796.243 1.167.188.506.462.976.81 1.389a15.03 15.03 0 002.211 2.265 4.2 4.2 0 011.158 1.311c.252.546.252.945.369 1.674 1.293 7.863 1.845 9.45 2.871 10.29.723.6 1.764 1.002 4.863-.675 2.877-1.557 8.037-5.067 8.037-5.067l1.773-7.836c-3.057.102-3.927.723-5.499 2.001a1760.737 1760.737 0 01-5.913 4.779z" fill="#C8856A"/><path d="M113.67 61.776c-2.073.063-3.3.363-4.545 1.2s-5.796 4.665-5.796 4.665.843 0 1.635 1.149c.9 1.323 1.419 4.131.93 4.881l6.024-3.9 1.752-7.995z" fill="#459AE9"/><path opacity=".15" d="M113.67 61.776c-2.073.063-3.3.363-4.545 1.2s-5.796 4.665-5.796 4.665.843 0 1.635 1.149c.9 1.323 1.419 4.131.93 4.881l6.024-3.9 1.752-7.995z" fill="#000"/><path d="M102.198 68.652a8.819 8.819 0 01.663 4.338s.933-1.311-.099-4.8l-.564.462zM96.24 57.849c-.075 1.299.501 3.06.996 3.711a2.7 2.7 0 01-1.137-1.5c-.267-1.05-.114-1.785.141-2.211z" fill="#AF6152"/><path d="M118.332 61.947c3.717.495 6.051 1.323 9.651 3.513.855.648 2.019 2.817 1.785 7.083-.3 5.265-.342 6.12-.6 9.456-.333 4.125-.876 7.74-.876 7.74-6.249 2.778-18.081.321-20.07-5.22.948-1.8.6-1.17 1.137-11.832.3-6.078 1.761-9.447 4.32-10.911a19.963 19.963 0 014.653.171z" fill="#455A64"/><path d="M112.737 52.5c-.252-.381-.705-1.2-.3-1.614-.729-.369-1.119-1.995.06-1.545-1.44-.552-1.776-2.607-1.2-2.901.333-.165.738.198 1.5.255 1.416.105 1.347-.132 3.846-.948 2.037-.663 8.082-.486 8.037 3.738 1.947.447 1.815 3.507 1.167 4.782-1.2 2.346-2.289 3.879-2.925 5.586-1.173-.849-8.358-5.34-10.185-7.353z" fill="#37474F"/><path d="M124.965 58.152c-1.224.783-1.935-.087-1.935-.087l-.084 5.4c-2.346 2.4-8.541 1.719-6.33-.801l.036-1.353a5.4 5.4 0 01-2.742-.57c-.684-.39-1.008-.999-1.239-1.941-.273-1.119-.138-2.787-.045-4.419.096-1.701.642-4.305 1.284-5.4 1.095-.834 2.802 1.356 6.402 1.023.01.69.233 1.36.639 1.917.25.345.575.628.951.828a5.182 5.182 0 00-.318 2.1.718.718 0 00.996.621c.3-.087.576-.732.9-1.149.456-.564 1.8-.759 2.367.555a2.762 2.762 0 01-.882 3.276z" fill="#C8856A"/><path d="M116.655 61.308c1.323-.048 3.3-.183 4.374-1.146a3.544 3.544 0 001.224-2.187s.03 1.557-.807 2.679c-.615.822-1.665 1.101-2.511 1.296-.762.139-1.533.22-2.307.24l.027-.882z" fill="#AF6152"/><path d="M118.362 52.38l1.176.837a.732.732 0 00-.427-1.132.715.715 0 00-.749.295zm-3.477-.594l-1.365.483a.74.74 0 01.45-.933.72.72 0 01.915.45z" fill="#263238"/><path d="M117.933 57.579l-1.878.471a1.027 1.027 0 001.2.699.92.92 0 00.594-.438.924.924 0 00.084-.732z" fill="#AF6152"/><path d="M117.834 57.942a.935.935 0 00-1.044.801 1 1 0 00.48 0 .9.9 0 00.693-.78.607.607 0 00-.129-.021z" fill="#FFA8A7"/><path d="M119.001 54.189a.597.597 0 01-.412.53.6.6 0 11.412-.53zm-4.242-.528a.597.597 0 01-.412.53.6.6 0 11.412-.53z" fill="#263238"/><path d="M113.724 55.878l1.995 1.005.981-3.801c-.825.087-1.836 1.014-2.976 2.796zM128.4 66.111c2.598.951 3.177 2.037 3.738 5.148.537 3 1.821 9.795.3 13.893-.939 2.505-6.237-5.229-6.237-5.229l-1.179-8.508s1.116-5.733 3.378-5.304z" fill="#AF6152"/><path d="M127.983 65.46c1.683.9 3.027 1.284 3.771 3.6.744 2.316 1.371 7.8 1.536 10.347-3.402 1.551-7.398-.366-7.398-.366l-1.2-7.461s.159-4.665 3.291-6.12z" fill="#459AE9"/><path opacity=".15" d="M127.983 65.46c1.683.9 3.027 1.284 3.771 3.6.744 2.316 1.371 7.8 1.536 10.347-3.402 1.551-7.398-.366-7.398-.366l-1.2-7.461s.159-4.665 3.291-6.12z" fill="#000"/><path d="M126.819 69.6c-.42-.921-.858-1.866-.927-3.132-.069-1.266-.816-2.562-1.056-3.081-.24-.519-.81-1.329-1.224-2.073-.414-.744-.537-.951-1.281-1.227-1.023-.381-1.821-.702-2.259-.654-.438.048-.477.321-.186.756s1.029.666 1.251.78c.222.114.696.438.696.438l.705 1.626s-1.719 0-2.076.108-.798.9-.741 1.395c0 0-.687.3-.561.942 0 0-.465.414-.285.861.211.456.472.887.78 1.284.171.213.96.408.96.408.25.604.579 1.172.978 1.689.489.528.867.573 1.323 1.572l3.903-1.692z" fill="#C8856A"/><path d="M121.764 63.048c-.36-.243-.399-.528-.795-.456-.396.072-.336.522-.336.522l1.131-.066zm-2.04 1.533c.283-.16.585-.284.9-.366.3-.081.9-.174.9-.174a4.114 4.114 0 00-1.2.054 3.543 3.543 0 00-.6.168 1.086 1.086 0 000 .279v.039zm-.159.549a3.416 3.416 0 00-.417.12 1.086 1.086 0 000 .279c.276-.267 1.167-.45 1.167-.45a3.348 3.348 0 00-.75.051zm1.158 3.15a8.361 8.361 0 00-.564-1.458.6.6 0 00-.795-.228c-.135.138.408.219.552.318.337.412.609.874.807 1.368zM123 63.084s-.222-.489-.636-1.272c-.414-.783-.402-.681-.9-.885-.498-.204-1.476-.57-1.686-.939.032.073.071.142.117.207.282.42 1.029.666 1.251.78.222.114.696.438.696.438l.726 1.674.432-.003z" fill="#AF6152"/><path d="M126.819 69.6c1.371 2.475 5.178 8.526 5.898 10.782.495 1.563.063 4.89-.942 5.94-1.005 1.05-3.144.126-4.65-1.8-1.299-1.665-1.977-5.205-2.664-7.764a266.86 266.86 0 00-1.545-5.463l3.903-1.695z" fill="#C8856A"/><path d="M126.819 69.6c-.3-.62-.543-1.265-.726-1.929a6.106 6.106 0 01-.168-1.014 5.221 5.221 0 00-.141-1.026 9.416 9.416 0 00-.756-1.923 14.65 14.65 0 00-1.02-1.8c-.183-.3-.348-.6-.519-.9a1.797 1.797 0 00-.696-.771 8.498 8.498 0 00-.96-.393c-.324-.12-.645-.24-.978-.342a3.51 3.51 0 00-.51-.12.9.9 0 00-.534.066.298.298 0 00-.162.246.6.6 0 00.06.273c.069.165.171.314.3.438.271.219.575.394.9.519.308.144.603.317.879.516l-.018-.021.708 1.623.045-.066a18.681 18.681 0 00-1.875.075.988.988 0 00-.237.051.705.705 0 00-.207.135c-.117.113-.218.24-.3.381a1.67 1.67 0 00-.246.9l.024-.042a1.18 1.18 0 00-.465.393.691.691 0 00-.117.285.758.758 0 000 .3v-.033a.9.9 0 00-.318.819c.104.278.241.543.408.789.078.123.159.246.246.366a.993.993 0 00.3.33c.265.132.545.233.834.3l-.018-.018c.135.3.285.6.45.9.16.299.355.577.582.828.234.246.522.429.75.675a3.2 3.2 0 01.543.843 3.183 3.183 0 00-.531-.852c-.228-.252-.513-.441-.741-.687a3.92 3.92 0 01-.567-.828c-.159-.3-.3-.6-.435-.9h-.015a3.844 3.844 0 01-.816-.3 1 1 0 01-.3-.3 7.594 7.594 0 01-.24-.363 3.806 3.806 0 01-.396-.774.83.83 0 01.3-.747v-.021a.743.743 0 010-.282.613.613 0 01.108-.255c.11-.157.259-.282.432-.363h.024v-.027a1.598 1.598 0 01.24-.864c.156-.258.357-.525.675-.525.615-.063 1.242-.06 1.863-.063h.072l-.03-.066-.645-1.644h-.015a5.341 5.341 0 00-.9-.534 3.204 3.204 0 01-.879-.495 1.142 1.142 0 01-.3-.399c-.069-.147-.084-.327.057-.396.3-.138.648-.027.969.06.321.087.651.216.975.336.324.11.641.236.951.381.29.175.523.432.669.738.168.3.336.6.522.9.385.57.727 1.166 1.026 1.785.322.606.578 1.246.762 1.908.083.334.134.674.153 1.017.031.344.091.684.18 1.017.202.652.461 1.284.774 1.89z" fill="#AF6152"/></svg>