<svg width="151" height="150" fill="none" xmlns="http://www.w3.org/2000/svg"><path d="M74.927 141.837c39.708 0 71.898-18.175 71.898-40.596 0-22.42-32.19-40.596-71.898-40.596S3.03 78.82 3.03 101.241c0 22.421 32.19 40.596 71.898 40.596z" fill="#E6E6E6"/><path opacity=".8" d="M74.927 141.837c39.708 0 71.898-18.175 71.898-40.596 0-22.42-32.19-40.596-71.898-40.596S3.03 78.82 3.03 101.241c0 22.421 32.19 40.596 71.898 40.596z" fill="#E6E6E6"/><path d="M81.257 97.224l13.587-7.842a.674.674 0 01.6 0l19.881 11.493a.191.191 0 01.127.179.191.191 0 01-.127.178l-13.584 7.842a.671.671 0 01-.615 0L81.254 97.581a.189.189 0 01.003-.357zm-62.232 14.133l-5.7-3.3a.375.375 0 010-.711l69.249-39.978a1.348 1.348 0 011.23 0l5.7 3.3a.375.375 0 010 .711l-69.249 39.978a1.368 1.368 0 01-1.23 0z" fill="#CFCFCF"/><path d="M78.176 66.699l12.276-7.092a1.092 1.092 0 01.984 0l15.084 8.7a.299.299 0 01.149.46.299.299 0 01-.149.11l-12.276 7.092a1.099 1.099 0 01-.987 0l-15.08-8.7a.3.3 0 010-.57zm-30.24 59.151l15.489-8.985a1.33 1.33 0 011.2 0L82.9 127.419a.364.364 0 010 .69l-15.474 9a1.33 1.33 0 01-1.2 0l-18.29-10.569a.364.364 0 010-.69zm-19.611-4.479L24.92 119.4a.374.374 0 010-.711l20.724-11.964a1.368 1.368 0 011.23 0l3.393 1.959a.375.375 0 010 .711l-20.724 11.976a1.369 1.369 0 01-1.218 0zm26.454-15.144l-3.39-1.956a.374.374 0 010-.711l22.56-13.05a1.366 1.366 0 011.23 0l3.39 1.959a.375.375 0 010 .711l-22.557 13.047a1.349 1.349 0 01-1.233 0zm73.146 9.723c7.787 0 14.1-2.149 14.1-4.8s-6.313-4.8-14.1-4.8-14.1 2.149-14.1 4.8 6.313 4.8 14.1 4.8z" fill="#CFCFCF"/><path d="M20.474 99.879c.219-2.49-1.128-7.8-3.426-11.259-2.298-3.459-6.153-6.177-9.123-5.445-2.766.684-2.784 4.233.27 6.855 3.054 2.622 7.695 5.985 8.772 10.146l2.574 5.217.933-5.514z" fill="#459AE9"/><path opacity=".1" d="M20.474 99.879c.219-2.49-1.128-7.8-3.426-11.259-2.298-3.459-6.153-6.177-9.123-5.445-2.766.684-2.784 4.233.27 6.855 3.054 2.622 7.695 5.985 8.772 10.146l2.574 5.217.933-5.514z" fill="#000"/><path d="M20.36 103.299a.18.18 0 01-.153-.159C19.289 94.5 13.025 87 9.044 85.104a.185.185 0 01-.104-.103.183.183 0 01.26-.227c4.053 1.926 10.425 9.555 11.37 18.327a.177.177 0 01-.162.198h-.048z" fill="#fff"/><path d="M18.614 108.624c-.276-1.434-1.782-3.9-4.377-6.042-2.874-2.376-6.657-3.687-7.404-5.4-.9-2.067.927-3.783 4.035-3.12 3.108.663 8.25 5.436 8.565 11.964l-.819 2.598z" fill="#459AE9"/><path d="M19.352 107.211a.184.184 0 01-.147-.135c-1.965-7.5-7.293-10.548-9.837-11.1a.186.186 0 01-.06-.334.177.177 0 01.138-.023c2.814.618 8.1 3.711 10.113 11.37a.187.187 0 01-.132.225.19.19 0 01-.075-.003z" fill="#fff"/><path d="M93.749 74.736v-8.64l11.223-6.477v8.637l-11.223 6.48zm0-8.64L79.72 57.999v8.637l14.028 8.1v-8.64z" fill="#459AE9"/><path opacity=".15" d="M93.749 66.096L79.72 57.999v8.637l14.028 8.1v-8.64z" fill="#000"/><path d="M93.749 66.096l11.556-6.672-14.361-8.295-11.556 6.675 14.36 8.292z" fill="#459AE9"/><path opacity=".45" d="M93.749 66.096l11.556-6.672-14.361-8.295-11.556 6.675 14.36 8.292z" fill="#fff"/><path d="M93.749 66.096v2.16l11.556-6.669v-2.163l-11.556 6.672z" fill="#459AE9"/><path opacity=".2" d="M93.749 68.256l11.223-6.477v.474l-11.223 6.48v-.477z" fill="#000"/><path d="M79.388 57.804l14.36 8.292v2.16l-14.36-8.289v-2.163z" fill="#459AE9"/><path opacity=".2" d="M79.388 57.804l14.36 8.292v2.16l-14.36-8.289v-2.163z" fill="#000"/><path opacity=".2" d="M93.749 68.256L79.72 60.159v.474l14.028 8.1v-.477z" fill="#000"/><path d="M97.445 67.41l3.834-2.214c.165-.093.3-.018.3.174v2.265a.668.668 0 01-.3.519l-3.834 2.214c-.165.096-.3.018-.3-.174v-2.265a.663.663 0 01.3-.519z" fill="#455A64"/><path d="M97.691 67.668l3.342-1.929c.111-.066.198 0 .198.114v1.698a.426.426 0 01-.198.345l-3.342 1.932c-.111.063-.201 0-.201-.117v-1.698a.434.434 0 01.201-.345z" fill="#F5F5F5"/><path d="M97.784 68.115a.048.048 0 01-.024-.09l3.165-1.821a.042.042 0 01.018-.006.05.05 0 01.036.01.046.046 0 01.012.014.051.051 0 01.004.037.053.053 0 01-.022.029L97.808 68.1a.036.036 0 01-.024.015zm0 .417a.042.042 0 01-.042-.024.048.048 0 01-.005-.037.049.049 0 01.023-.029l3.165-1.821a.042.042 0 01.018-.006.05.05 0 01.036.01.046.046 0 01.012.014.056.056 0 01.006.018.06.06 0 01-.001.019.055.055 0 01-.009.017.056.056 0 01-.014.012l-3.156 1.821a.037.037 0 01-.033.006zm0 .42a.046.046 0 01-.042-.027.048.048 0 01-.005-.037.049.049 0 01.023-.029l3.165-1.821a.05.05 0 01.036-.004.05.05 0 01.03.022.056.056 0 01.006.018.06.06 0 01-.001.019.054.054 0 01-.023.029l-3.156 1.821a.04.04 0 01-.033.009zm0 .417a.045.045 0 01-.042-.027.048.048 0 01-.005-.037.049.049 0 01.023-.029l3.165-1.821a.05.05 0 01.036-.004.05.05 0 01.03.022.056.056 0 01.006.018.06.06 0 01-.001.019.054.054 0 01-.023.029l-3.156 1.821a.04.04 0 01-.033.009z" opacity=".5" fill="#455A64"/><path d="M93.749 65.013v-8.64l11.223-6.48v8.64l-11.223 6.48zm0-8.64l-14.028-8.1v8.64l14.028 8.1v-8.64z" fill="#459AE9"/><path opacity=".15" d="M93.749 56.373l-14.028-8.1v8.64l14.028 8.1v-8.64z" fill="#000"/><path d="M93.749 56.373l11.556-6.675-14.361-8.292-11.556 6.672 14.36 8.295z" fill="#459AE9"/><path opacity=".6" d="M93.749 56.373l11.556-6.675-14.361-8.292-11.556 6.672 14.36 8.295z" fill="#fff"/><path d="M93.749 56.373v2.16l11.556-6.672v-2.163l-11.556 6.675z" fill="#459AE9"/><path opacity=".2" d="M93.749 58.533l11.223-6.48v.474l-11.223 6.48v-.474z" fill="#000"/><path d="M79.388 48.078l14.36 8.295v2.16l-14.36-8.292v-2.163z" fill="#459AE9"/><path opacity=".2" d="M79.388 48.078l14.36 8.295v2.16l-14.36-8.292v-2.163z" fill="#000"/><path opacity=".2" d="M93.749 58.533l-14.028-8.1v.474l14.028 8.1v-.474z" fill="#000"/><path d="M97.445 57.684l3.834-2.211c.165-.096.3-.018.3.171V57.9a.662.662 0 01-.3.516l-3.834 2.214c-.165.096-.3.018-.3-.171V58.2a.669.669 0 01.3-.516z" fill="#455A64"/><path d="M97.691 57.942l3.342-1.929c.111-.063.198 0 .198.114v1.701a.431.431 0 01-.198.345l-3.342 1.929c-.111.063-.201 0-.201-.114v-1.701a.441.441 0 01.201-.345z" fill="#F5F5F5"/><path d="M97.784 58.392a.048.048 0 01-.042-.024.051.051 0 01.018-.069l3.165-1.821a.05.05 0 01.036-.004.053.053 0 01.03.022.056.056 0 01.006.018.06.06 0 01-.001.019.054.054 0 01-.023.029l-3.156 1.824-.033.006zm0 .408a.048.048 0 01-.042-.024.047.047 0 01-.007-.018.046.046 0 01.01-.036.044.044 0 01.015-.012l3.165-1.815a.05.05 0 01.036-.004.05.05 0 01.03.022.056.056 0 01.006.018.06.06 0 01-.001.019.054.054 0 01-.023.029L97.808 58.8h-.024zm0 .426a.048.048 0 01-.042-.024.047.047 0 01-.007-.018.046.046 0 01.01-.036.044.044 0 01.015-.012l3.165-1.836a.05.05 0 01.036-.004.05.05 0 01.03.022.056.056 0 01.006.018.06.06 0 01-.001.019.054.054 0 01-.023.029l-3.156 1.824-.033.018zm0 .417a.048.048 0 01-.042-.024.047.047 0 01-.007-.018.046.046 0 01.01-.036.044.044 0 01.015-.012l3.165-1.824a.054.054 0 01.066.018.056.056 0 01.006.018.06.06 0 01-.001.019.054.054 0 01-.023.029l-3.156 1.824-.033.006z" opacity=".5" fill="#455A64"/><path d="M19.607 56.361c-.3-.18-1.221-1.008-1.221-1.392v-3.6a1.314 1.314 0 01.6-1.038l65.19-37.65c.33-.189.75-.324 1.821.354a1.329 1.329 0 01.561 1.017v3.6a1.323 1.323 0 01-.6 1.038l-65.19 37.65a1.28 1.28 0 01-1.161.021z" fill="#459AE9"/><path opacity=".5" d="M86.552 13.953c-.042-.3-.3-.423-.6-.249L20.768 51.342a1.267 1.267 0 00-.423.447l-1.8-1.026c.102-.181.249-.334.426-.444l65.205-37.635c.33-.192.789-.3 1.818.351a1.326 1.326 0 01.558.918z" fill="#fff"/><path d="M20.654 109.854h-.024a.222.222 0 01-.06.024h-.042a.404.404 0 01-.084.021.163.163 0 01-.054 0h-.093a1.376 1.376 0 01-.69-.12c-1.125-.48-1.221-1.008-1.221-1.389V59.313l1.8 1.026v49.116c0 .27.135.429.33.429a.22.22 0 00.081 0l.057-.03z" fill="#EBEBEB"/><path opacity=".1" d="M20.345 51.789a1.22 1.22 0 00-.174.6v7.959l-1.8-1.026v-7.965a.577.577 0 010-.072c0-.051.015-.099.024-.15.035-.13.085-.255.15-.372l1.8 1.026z" fill="#000"/><path d="M86.561 71.127a1.327 1.327 0 01-.6 1.038L20.768 109.8c-.33.192-.6.036-.6-.345V55.584l1.65-.951c.33-.192.867-3.102 1.2-3.3l14.307-8.253c.333-.192 1.113 1.956 1.443 1.764l47.787-27.6v53.883h.006z" fill="#F5F5F5"/><path d="M23.02 69.531l12.3-7.104c.33-.189.6-.036.6.348v34.998a1.332 1.332 0 01-.6 1.038l-12.3 7.104c-.332.192-.6.036-.6-.348V70.572a1.324 1.324 0 01.6-1.041zm15.754 2.601L59.76 60c.33-.189.6-.036.6.348V83.64a1.333 1.333 0 01-.6 1.041L38.774 96.819c-.33.192-.6.036-.6-.345V73.17a1.314 1.314 0 01.6-1.038zM62.726 58.2l21-12.138c.33-.192.6-.039.6.345v23.304a1.332 1.332 0 01-.6 1.038l-21 12.138c-.33.192-.6.036-.6-.345v-23.31a1.314 1.314 0 01.6-1.032z" fill="#fff"/><path d="M23.02 60.435l60.69-35.04c.33-.192.6-.036.6.348v6.411a1.332 1.332 0 01-.6 1.038l-60.69 35.04c-.332.192-.6.036-.6-.345v-6.411a1.324 1.324 0 01.6-1.041z" fill="#455A64"/><path d="M61.805 41.382v1.119c0 .228.162.321.36.207l17.643-10.2v-1.95l-17.643 10.2a.795.795 0 00-.36.624z" fill="#FAFAFA"/><path d="M81.701 29.481c.198-.114.36-.021.36.207v1.119a.804.804 0 01-.36.624l-1.893 1.092v-1.95l1.893-1.092z" fill="#459AE9"/><path d="M81.56 31.014l-.21-.066a1.2 1.2 0 00.033-.273.494.494 0 00-.192-.45.3.3 0 00-.3 0 1.08 1.08 0 00-.423.879.495.495 0 00.192.45.268.268 0 00.135.036.37.37 0 00.174-.051.9.9 0 00.339-.456l.213.066h.021a.075.075 0 00.075-.054.075.075 0 00-.057-.081zm-.675.405a.153.153 0 01-.153 0 .373.373 0 01-.114-.3.947.947 0 01.345-.744.21.21 0 01.093-.03.122.122 0 01.057 0 .373.373 0 01.114.3.942.942 0 01-.342.774z" fill="#FAFAFA"/><path d="M38.174 61.476v7.71c0 .381.267.537.6.345l44.937-25.944a1.333 1.333 0 00.6-1.038v-7.71c0-.384-.27-.537-.6-.348L38.774 60.435a1.323 1.323 0 00-.6 1.041z" fill="#fff"/><path d="M86.558 17.256v4.755L20.17 60.339v-4.755l1.233-.714c.327-.192.438-.48.6-1.038l.417-1.452c.132-.504.27-.849.6-1.038l14.304-8.262c.333-.192.6-.213.846.204l.513.933c.189.324.282.516.6.324l47.274-27.285z" fill="#E6E6E6"/><path d="M83.744 16.2c.357-.204.642-.039.642.372a1.41 1.41 0 01-.642 1.11c-.354.204-.639.039-.639-.369a1.418 1.418 0 01.639-1.113zm-2.715 1.56c.354-.207.642-.039.642.369a1.42 1.42 0 01-.642 1.11c-.354.207-.642.039-.642-.369a1.419 1.419 0 01.642-1.11zm-2.719 1.566c.355-.204.643-.039.643.369a1.424 1.424 0 01-.642 1.113c-.354.204-.642.039-.642-.372a1.42 1.42 0 01.642-1.11z" fill="#fff"/><path d="M28.046 54.057v-.93a1.322 1.322 0 01.6-1.038l53.937-31.125c.33-.192.6-.036.6.348v.927a1.332 1.332 0 01-.6 1.041L28.646 54.402c-.321.198-.6.039-.6-.345z" fill="#FAFAFA"/><path d="M81.806 23.451a.125.125 0 01-.048 0 .152.152 0 01-.081-.165l.054-.444-.207-.15a.144.144 0 01-.06-.12.248.248 0 01.09-.189l.318-.243a.093.093 0 00.015-.027l.14-.465a.198.198 0 01.16-.15.122.122 0 01.126.075l.117.252.27-.102a.122.122 0 01.144.033.198.198 0 010 .219l-.22.42a.059.059 0 000 .027l.055.39a.253.253 0 01-.07.195.15.15 0 01-.125.048l-.258-.03-.28.357a.164.164 0 01-.14.069zm-.153-.9l.21.15a.153.153 0 01.054.15l-.036.3.189-.24a.16.16 0 01.14-.066l.262.03a.056.056 0 000-.027l-.054-.39a.237.237 0 01.027-.141l.2-.378-.206.081a.126.126 0 01-.162-.066l-.096-.198-.126.411a.228.228 0 01-.078.12l-.318.246a.048.048 0 00-.006.015v.003z" fill="#455A64"/><path d="M22.925 56.436l-.942.543.357-.69a.174.174 0 000-.171c-.027-.033-.075 0-.108.051l-.507.984a.18.18 0 00-.015.036.15.15 0 000 .051.088.088 0 000 .042.054.054 0 00.015.021l.51.393a.042.042 0 00.051 0 .144.144 0 00.057-.072c.027-.063.024-.135 0-.159l-.357-.276.94-.522a.198.198 0 00.074-.159c-.003-.066-.036-.108-.075-.072zm.783-.456l.942-.543-.36-.276a.143.143 0 010-.159c.027-.066.075-.099.105-.075l.513.393v.021a.188.188 0 010 .045.275.275 0 010 .048v.039l-.513.981a.118.118 0 01-.048.057.04.04 0 01-.044.01.04.04 0 01-.013-.01.167.167 0 010-.168l.36-.69-.942.543c-.042.024-.075 0-.075-.072a.201.201 0 01.075-.144zm3.087-2.712c0-.057-.054-.048-.078 0l-.129.318c-.222-.024-.486.189-.666.57-.234.495-.234 1.077 0 1.302a.333.333 0 00.423.027c.188-.126.334-.304.42-.513a.159.159 0 000-.165c-.027-.03-.075 0-.105.06-.174.369-.459.534-.633.366-.174-.168-.174-.6 0-.972.126-.264.3-.42.46-.429l-.1.237c-.024.063 0 .12.04.096l.383-.252a.116.116 0 00.042-.105l-.057-.54zM37.217 45l.345-.726a.231.231 0 000-.228c-.042-.039-.108 0-.147.087l-.345.726-.342-.33c-.042-.039-.108 0-.147.084a.213.213 0 000 .225l.342.333-.342.729a.213.213 0 000 .225.054.054 0 00.072 0 .23.23 0 00.075-.09l.342-.726.345.33a.057.057 0 00.072 0 .195.195 0 00.075-.09.227.227 0 000-.225L37.217 45zm46.674-24.363a.2.2 0 01-.18-.105.207.207 0 01.075-.282l1.69-.975a.207.207 0 01.281.075.209.209 0 01-.01.244.21.21 0 01-.065.056l-1.689.975a.216.216 0 01-.102.012zm0 .963a.201.201 0 01-.18-.105.207.207 0 01.075-.282l1.69-.975a.207.207 0 01.281.075.209.209 0 01-.01.244.21.21 0 01-.065.056l-1.689.987a.215.215 0 01-.102 0zm0 .987a.201.201 0 01-.18-.105.207.207 0 01.075-.282l1.69-.975a.207.207 0 01.281.075.209.209 0 01-.01.244.21.21 0 01-.065.056l-1.689.975a.215.215 0 01-.102.012z" opacity=".3" fill="#000"/><path d="M20.171 55.584v4.755l-1.788-1.026v-4.749l1.788 1.02z" fill="#E0E0E0"/><path opacity=".15" d="M20.171 55.584v4.755l-1.788-1.026v-4.749l1.788 1.02z" fill="#CFCFCF"/><path d="M31.7 78.951v7.521L26.642 89.4v-7.53l5.058-2.919zm0-.258a.275.275 0 00-.129.033l-5.046 2.919a.266.266 0 00-.129.225v7.53a.261.261 0 00.258.261.264.264 0 00.132-.036l5.043-2.925a.258.258 0 00.129-.225v-7.524a.257.257 0 00-.258-.258z" fill="#459AE9"/><path d="M30.941 80.661v2.178l-.159.087v-.666c0-.27-.126-.426-.3-.426a.44.44 0 00-.225.069l-.75.432v3.237c0 .339.132.552.3.552a.3.3 0 00.156-.048l.462-.276v.231l-2.529 1.458v-.231l.468-.27a1.301 1.301 0 00.471-1.047V82.71l-.747.432a1.226 1.226 0 00-.54.978v.666l-.159.096v-2.178l3.54-2.043m0-.261a.246.246 0 00-.129.036l-3.54 2.043a.258.258 0 00-.129.225v2.178a.258.258 0 00.132.225.243.243 0 00.261-.003l.16-.096a.259.259 0 00.122-.222v-.666a.984.984 0 01.411-.756l.36-.207v2.79a1.07 1.07 0 01-.342.822l-.468.273a.252.252 0 00-.129.222v.231a.255.255 0 00.13.225.249.249 0 00.257 0l2.53-1.458a.267.267 0 00.128-.225V85.8a.261.261 0 00-.258-.261.264.264 0 00-.132.036l-.468.27h-.018a.483.483 0 01-.063-.3V82.5l.618-.357a.201.201 0 01.096-.036c.03 0 .054.078.054.168v.666a.257.257 0 00.13.225.246.246 0 00.128.036.265.265 0 00.126-.033l.16-.087a.266.266 0 00.131-.228v-2.178a.255.255 0 00-.129-.225.246.246 0 00-.129-.036V80.4zm14.904 1.5a.148.148 0 01-.057 0 .125.125 0 01-.065-.074.128.128 0 01.008-.097l1.5-3.048a.3.3 0 01.204-.135.3.3 0 01.222.066l1.278.84.168.033-.12-.048 1.521-3.702a.28.28 0 01.438-.072l1.896 1.956a.13.13 0 11-.186.18l-1.893-1.95-1.536 3.687a.3.3 0 01-.183.168.3.3 0 01-.246-.036l-1.323-.864-1.5 3.039a.129.129 0 01-.126.057z" fill="#459AE9"/><path d="M52.676 73.023v6.822l-6.822 3.942v-6.822l6.819-3.942m.195-.396a.096.096 0 00-.054.018l-.258.15-6.831 3.954a.227.227 0 00-.081.087.222.222 0 00-.036.117v7.146c0 .054.027.084.066.084a.123.123 0 00.05-.015l7.105-4.104a.264.264 0 00.12-.207v-7.143c0-.054-.027-.087-.066-.087h-.015z" fill="#459AE9"/><path d="M47.993 77.868a.369.369 0 01-.189-.048.461.461 0 01-.204-.423 1.177 1.177 0 01.54-.936.418.418 0 01.672.387 1.2 1.2 0 01-.54.939.576.576 0 01-.279.081zm.426-1.233a.325.325 0 00-.147.048.924.924 0 00-.414.714.168.168 0 00.282.165.925.925 0 00.414-.714.219.219 0 00-.075-.198.138.138 0 00-.054-.015h-.006zm25.98-15.99c.825 0 1.362.816 1.362 2.082a6.9 6.9 0 01-.97 3.3c-.211.374-.46.727-.74 1.053a4.237 4.237 0 01-1.071.918 1.893 1.893 0 01-.942.3c-.825 0-1.362-.816-1.362-2.079a6.924 6.924 0 01.966-3.3 5.346 5.346 0 011.815-1.968 1.9 1.9 0 01.942-.3m0-.258c-.38.013-.749.124-1.071.324a5.598 5.598 0 00-1.905 2.064 7.17 7.17 0 00-1.002 3.435c0 1.464.669 2.34 1.62 2.34.38-.012.749-.124 1.07-.324a4.54 4.54 0 001.138-.972 7.5 7.5 0 001.776-4.533c0-1.464-.67-2.34-1.623-2.34l-.003.006z" fill="#459AE9"/><path d="M72.52 63.6l2.008.18-.045.06-2.037 2.535v-2.541a.322.322 0 01.075-.234zm0-.258c-.182 0-.33.213-.33.492V66.6c0 .162.052.243.13.243.078 0 .138-.051.222-.156l2.15-2.673c.193-.243.193-.45 0-.468l-2.15-.192-.021-.012z" fill="#459AE9"/><path d="M82.844 97.185l18.249 10.554v-11.19L82.844 85.992v11.193z" fill="#EBEBEB"/><path d="M113.741 100.437l-12.648 7.302v-11.19l12.648-7.305v11.193z" fill="#F5F5F5"/><path d="M82.844 85.992l12.651-7.302 18.246 10.554-12.648 7.305-18.249-10.557z" fill="#FAFAFA"/><path opacity=".1" d="M92.354 95.247l8.739 5.046 5.241-3.027-5.241 3.339-8.739-5.358z" fill="#000"/><path opacity=".1" d="M87.11 95.04l13.983 8.07 10.485-6.051-10.485 6.357L87.11 95.04zm-2.511-4.893s-.3 1.632-.144 2.457c0 0 2.289-.057 6.15 1.011l-6.006-3.468z" fill="#000"/><path d="M84.599 90.147l6.006 3.468-6.645-1.92.639-1.548z" fill="#FAFAFA"/><path opacity=".1" d="M92.354 99.819l6.585 6.054s.183-.831 1.446-1.416l-8.031-4.638z" fill="#000"/><path d="M92.354 99.819l6.183 5.208 1.848-.57-8.031-4.638z" fill="#FAFAFA"/><path opacity=".1" d="M111.635 93.696l-.057-.081-4.161 2.4 4.683-.384a2.844 2.844 0 00-.465-1.935z" fill="#000"/><path d="M107.417 96.015l4.161-2.4 1.386.729-5.547 1.671z" fill="#FAFAFA"/><path d="M86.06 86.772a.162.162 0 01-.08-.3l10.484-6.054a.165.165 0 01.222.06.162.162 0 01-.06.222l-10.485 6.054a.204.204 0 01-.08.018zm1.746 1.008a.162.162 0 01-.08-.3l10.5-6.054a.162.162 0 11.158.279L87.9 87.759a.156.156 0 01-.093.021zm1.749 1.02a.162.162 0 01-.14-.078.165.165 0 01.06-.222l10.484-6.054a.163.163 0 01.18.012c.017.013.031.03.042.048a.142.142 0 01.02.06.148.148 0 01-.004.062.154.154 0 01-.076.097l-10.485 6.054a.162.162 0 01-.08.021zm1.749.999a.162.162 0 01-.081-.3l10.485-6.054a.163.163 0 01.219.06.164.164 0 01.016.123.164.164 0 01-.073.099l-10.5 6.054a.144.144 0 01-.066.018zm1.746 1.008a.165.165 0 01-.141-.081.162.162 0 01.06-.219l10.485-6.054a.158.158 0 01.123-.016.16.16 0 01.099.076.142.142 0 01.02.06.147.147 0 01-.004.062.166.166 0 01-.028.056.165.165 0 01-.048.041l-10.5 6.054a.156.156 0 01-.066.021zm1.75 1.011a.162.162 0 01-.082-.3l10.485-6.054a.163.163 0 01.227.181.164.164 0 01-.065.098L94.88 91.8a.167.167 0 01-.08.018zm1.745 1.008a.17.17 0 01-.14-.081.162.162 0 01.06-.219l10.484-6.054a.16.16 0 01.128-.026.162.162 0 01.034.305l-10.485 6.054a.156.156 0 01-.08.021zm1.749 1.008a.159.159 0 01-.141-.081.158.158 0 01.012-.178.16.16 0 01.048-.041l10.5-6.054a.16.16 0 01.128-.026.16.16 0 01.106.077c.011.02.018.04.021.063a.166.166 0 01-.039.125.17.17 0 01-.054.04l-10.5 6.054a.162.162 0 01-.081.021zm1.746 1.011a.162.162 0 01-.08-.3l10.499-6.054a.163.163 0 01.219.06.142.142 0 01.02.06.147.147 0 01-.004.062.153.153 0 01-.076.097l-10.485 6.054a.159.159 0 01-.093.021z" opacity=".3" fill="#455A64"/><path d="M75.068 71.265L54.158 83.34a1.081 1.081 0 00-.49.846V104.1a1.088 1.088 0 00.49.849l.804.462a1.08 1.08 0 00.978 0l20.91-12.075a1.083 1.083 0 00.489-.846V72.576a1.084 1.084 0 00-.49-.849l-.803-.462a1.08 1.08 0 00-.978 0z" fill="#459AE9"/><path opacity=".3" d="M75.068 71.265L54.158 83.34a1.081 1.081 0 00-.49.846V104.1a1.088 1.088 0 00.49.849l.804.462a1.08 1.08 0 00.978 0l20.91-12.075a1.083 1.083 0 00.489-.846V72.576a1.084 1.084 0 00-.49-.849l-.803-.462a1.08 1.08 0 00-.978 0z" fill="#000"/><path d="M77.321 72.429c-.063-.204-.249-.267-.471-.135L55.94 84.369a.969.969 0 00-.345.366l-1.77-1.035c.08-.15.2-.277.345-.366l20.913-12.075a1.08 1.08 0 01.978 0l.8.465a1.083 1.083 0 01.46.705z" fill="#459AE9"/><path opacity=".2" d="M77.321 72.429c-.063-.204-.249-.267-.471-.135L55.94 84.369a.969.969 0 00-.345.366l-1.77-1.035c.08-.15.2-.277.345-.366l20.913-12.075a1.08 1.08 0 01.978 0l.8.465a1.083 1.083 0 01.46.705z" fill="#000"/><path d="M76.85 72.3L55.94 84.378a1.08 1.08 0 00-.49.846v19.923c0 .3.22.438.49.282l20.91-12.075a1.083 1.083 0 00.489-.846V72.576c0-.312-.22-.441-.49-.276z" fill="#459AE9"/><path d="M64.586 96.351a2.98 2.98 0 01-1.5-.396c-1.254-.726-1.974-2.37-1.974-4.515a12.465 12.465 0 011.68-6.024c.347-.599.748-1.165 1.2-1.689a8.035 8.035 0 012.004-1.704c1.347-.777 2.67-.87 3.72-.264 1.257.726 1.977 2.37 1.977 4.5a12.438 12.438 0 01-1.683 6.027A9.194 9.194 0 0166.8 95.7a4.446 4.446 0 01-2.214.651zm-.05-12.147c-.421.49-.795 1.016-1.117 1.575a11.73 11.73 0 00-1.584 5.661c0 1.878.6 3.3 1.611 3.882.816.471 1.878.378 3-.264a8.505 8.505 0 002.934-3.126 11.73 11.73 0 001.584-5.661c0-1.875-.6-3.3-1.61-3.879-.817-.471-1.879-.378-3 .264a7.198 7.198 0 00-1.819 1.548z" fill="#fff"/><path d="M69.194 87.723l-4.107 5.1c-.369.459-.669.387-.669-.165v-5.253c0-.555.3-.975.669-.942l4.107.366c.369.033.369.435 0 .894z" fill="#fff"/><path d="M48.086 87.558v18.153a.66.66 0 01-.3.519L29.74 116.655c-.165.093-.3.018-.3-.174v-.948l17.682-10.215V87.765l.657-.378c.17-.087.306-.018.306.171z" fill="#263238"/><path d="M47.126 87.765v17.553l-17.682 10.215V98.331c0-.106.03-.21.087-.3a.574.574 0 01.21-.228l17.385-10.038z" fill="#459AE9"/><path opacity=".8" d="M47.126 87.765v17.553l-17.682 10.215V98.331c0-.106.03-.21.087-.3a.574.574 0 01.21-.228l17.385-10.038z" fill="#fff"/><path d="M42.764 95.271a.47.47 0 00-.06-.048h-.015l-1.12-.648a.38.38 0 00-.503.126l-3.984 9.819-2.646-1.74-.054-.036-1.107-.639a.376.376 0 00-.51.111l-3.885 7.8v5.184l1.125.651 17.36-10.029a.64.64 0 00.325-.558v-4.917l-4.926-5.076z" fill="#459AE9"/><path opacity=".15" d="M42.764 95.271a.47.47 0 00-.06-.048h-.015l-1.12-.648a.38.38 0 00-.503.126l-3.984 9.819-2.646-1.74-.054-.036-1.107-.639a.376.376 0 00-.51.111l-3.885 7.8v5.184l1.125.651 17.36-10.029a.64.64 0 00.325-.558v-4.917l-4.926-5.076z" fill="#000"/><path d="M30.005 115.857v-5.19l3.858-7.821a.382.382 0 01.424-.155c.051.015.1.042.14.077l3.702 2.436 4.053-9.867a.382.382 0 01.582-.066l4.926 5.076v4.923a.641.641 0 01-.324.558l-17.361 10.029z" fill="#459AE9"/><path opacity=".15" d="M38.129 105.204l-1.167 2.841.74-3.12.427.279z" fill="#000"/><path d="M48.812 86.442v-.036a.672.672 0 00-.3-.435l-.528-.3a.66.66 0 00-.6 0L28.055 96.834a.64.64 0 00-.213.225.629.629 0 00-.09.3v22.701a.66.66 0 00.3.519l.525.3a.684.684 0 00.531.033h.021l.048-.024 19.335-11.166a.679.679 0 00.3-.522V86.49c.003-.015 0-.033 0-.048zm-.726 19.269a.668.668 0 01-.3.519l-18.045 10.425c-.165.093-.3.018-.3-.174v-18.15a.623.623 0 01.087-.3.599.599 0 01.21-.222l18.045-10.425c.165-.096.3-.021.3.174l.003 18.153z" fill="#37474F"/><path d="M29.11 120.915a.683.683 0 01-.53-.033l-.525-.3a.657.657 0 01-.3-.519V97.356a.6.6 0 01.09-.3l1.125.651a.614.614 0 00-.087.3v22.701c-.003.165.096.246.228.207z" fill="#263238"/><path d="M48.812 86.442a.18.18 0 010-.036c-.04-.126-.156-.168-.3-.087L29.18 97.5a.662.662 0 00-.3.516v22.704c0 .165.102.243.23.207h.025l.048-.024 19.335-11.166a.667.667 0 00.3-.519V86.442h-.006zm-.726 19.269a.66.66 0 01-.3.519L29.74 116.655c-.165.093-.3.018-.3-.174v-18.15c0-.106.03-.21.087-.3a.574.574 0 01.21-.228l17.385-10.044.657-.378c.168-.099.3-.018.3.171l.006 18.159z" fill="#455A64"/><path d="M36.503 98.028l.438-.741-.9-.522a.846.846 0 00-.855.087 2.67 2.67 0 00-1.2 2.1.85.85 0 00.348.777l.867.501.417-.705a2.81 2.81 0 00.885-1.497z" fill="#459AE9"/><path opacity=".15" d="M36.503 98.028l.438-.741-.9-.522a.846.846 0 00-.855.087 2.67 2.67 0 00-1.2 2.1.85.85 0 00.348.777l.867.501.417-.705a2.81 2.81 0 00.885-1.497z" fill="#000"/><path d="M36.07 97.362c.67-.387 1.2-.072 1.2.699a2.678 2.678 0 01-1.2 2.1c-.668.384-1.2.072-1.2-.702a2.68 2.68 0 011.2-2.097zm45.103 30.201l-14.58 8.418-16.422-9.501 14.583-8.418 16.419 9.501z" fill="#459AE9"/><path opacity=".5" d="M81.173 127.563l-14.58 8.418-16.422-9.501 14.583-8.418 16.419 9.501z" fill="#000"/><path d="M64.754 106.65v11.412L50.17 126.48v-11.412l14.583-8.418z" fill="#459AE9"/><path opacity=".23" d="M64.754 106.65v11.412L50.17 126.48v-11.412l14.583-8.418z" fill="#000"/><path d="M81.173 116.151v11.412l-16.42-9.501V106.65l16.42 9.501z" fill="#459AE9"/><path opacity=".4" d="M81.173 116.151v11.412l-16.42-9.501V106.65l16.42 9.501z" fill="#000"/><path d="M64.754 106.65l.02-6.318 16.38 9.513.019 6.306-16.42-9.501z" fill="#459AE9"/><path opacity=".2" d="M64.754 106.65l.02-6.318 16.38 9.513.019 6.306-16.42-9.501z" fill="#000"/><path d="M50.17 115.068l-1.736-5.733 14.58-8.418 1.74 5.733-14.583 8.418z" fill="#459AE9"/><path opacity=".1" d="M50.17 115.068l-1.736-5.733 14.58-8.418 1.74 5.733-14.583 8.418z" fill="#000"/><path d="M53.648 126.039a.708.708 0 01-.3-.507l-1.224-20.085a.597.597 0 01.261-.501l12.501-7.176a.621.621 0 01.567 0 .693.693 0 01.3.504l1.224 20.1a.577.577 0 01-.26.498l-12.502 7.17a.635.635 0 01-.567-.003z" fill="#F0F0F0"/><path d="M54.215 126.042l12.51-7.176a.58.58 0 00.26-.498l-1.223-20.1c0-.186-.147-.267-.3-.177l-12.501 7.176a.577.577 0 00-.261.501l1.224 20.085c-.003.201.135.279.29.189z" fill="#FAFAFA"/><path d="M65.573 98.214c.018 0 .03.045.03.075l1.224 20.1a.426.426 0 01-.186.36l-12.501 7.176a.118.118 0 01-.051.018c-.018 0-.027-.045-.03-.075l-1.224-20.085a.45.45 0 01.189-.363l12.5-7.188a.122.122 0 01.052-.018m0-.147a.25.25 0 00-.123.036l-12.501 7.176a.577.577 0 00-.261.501l1.224 20.085c0 .135.08.213.177.213a.267.267 0 00.126-.036l12.507-7.176a.58.58 0 00.26-.498l-1.223-20.1c0-.135-.081-.213-.18-.213l-.006.012z" fill="#EBEBEB"/><path d="M54.176 126.06a.624.624 0 01-.528-.021.71.71 0 01-.3-.507l-1.224-20.085a.568.568 0 01.069-.3l.57.333a.527.527 0 00-.069.285l1.224 20.1c.003.174.12.252.258.195zm5.084-22.416l4.405-2.562c.138-.078.258 0 .267.156v.105a.514.514 0 01-.231.441l-4.404 2.562c-.138.078-.258 0-.267-.156v-.105a.51.51 0 01.23-.441zm.106 1.749l4.407-2.562c.138-.078.258 0 .267.159v.102a.514.514 0 01-.231.441l-4.407 2.562c-.135.078-.255 0-.267-.156v-.105a.52.52 0 01.23-.441zm.108 1.749l4.404-2.562c.138-.078.258 0 .267.159v.102a.512.512 0 01-.228.441l-4.392 2.562c-.138.078-.258 0-.267-.156v-.105a.516.516 0 01.216-.441zm-4.449 6.156l9.063-5.217c.138-.081.258 0 .267.156v.102a.523.523 0 01-.231.441L55.07 114c-.135.078-.255 0-.267-.156v-.102a.512.512 0 01.222-.444zm-.102-1.749l9.063-5.217c.138-.081.258 0 .267.156v.102a.515.515 0 01-.23.441l-9.058 5.217c-.138.078-.258 0-.267-.156v-.102a.511.511 0 01.225-.441zm.213 3.51l9.063-5.217c.138-.078.258 0 .267.156v.102a.514.514 0 01-.231.441l-9.063 5.217c-.138.081-.258 0-.267-.156v-.102a.515.515 0 01.23-.441zm.108 1.749l9.063-5.208c.138-.078.255 0 .267.156v.102a.516.516 0 01-.231.441l-9.063 5.217c-.138.081-.258 0-.267-.156v-.102a.51.51 0 01.231-.45zm.105 1.749l9.063-5.217c.138-.078.258 0 .267.156v.102a.514.514 0 01-.231.441l-9.063 5.22c-.138.078-.258 0-.267-.159v-.102a.515.515 0 01.231-.441zm.108 1.743l9.063-5.217c.138-.078.255 0 .267.156v.102a.523.523 0 01-.231.444l-9.063 5.217c-.138.078-.258 0-.267-.156v-.105a.513.513 0 01.231-.441zm.105 1.755l9.063-5.217c.138-.078.258 0 .267.156v.102a.522.522 0 01-.231.444l-9.063 5.217c-.138.078-.255 0-.267-.156v-.105a.515.515 0 01.23-.441z" fill="#E0E0E0"/><path d="M54.404 106.146l3.66-2.097.267 4.392-3.66 2.094-.267-4.389z" fill="#459AE9"/><path d="M54.998 106.599l.081 1.317.114-.066-.024-.405a.757.757 0 01.366-.627l.54-.3.12 1.959a.755.755 0 01-.3.66l-.339.195v.141l1.83-1.047v-.141l-.339.195c-.189.108-.354-.015-.369-.273l-.12-1.959.543-.3c.213-.123.399-.042.414.18l.024.405.114-.066-.081-1.317-2.574 1.449z" fill="#FAFAFA"/><path d="M58.856 129.045a.708.708 0 01-.3-.507l-1.224-20.085a.58.58 0 01.261-.501l12.501-7.176a.62.62 0 01.567 0 .696.696 0 01.3.504l1.224 20.085a.603.603 0 01-.264.501l-12.501 7.176a.627.627 0 01-.564.003z" fill="#F0F0F0"/><path d="M59.42 129.048l12.501-7.176a.6.6 0 00.264-.501l-1.224-20.085c0-.186-.147-.267-.3-.177L58.157 108.3a.598.598 0 00-.264.501l1.224 20.085c.012.171.147.252.303.162z" fill="#FAFAFA"/><path d="M70.781 101.22c.018 0 .027.045.03.075l1.224 20.1a.429.429 0 01-.186.363l-12.5 7.176a.118.118 0 01-.052.018c-.018 0-.027-.045-.03-.075l-1.224-20.1a.428.428 0 01.186-.363l12.501-7.176a.117.117 0 01.051-.018zm0-.147a.243.243 0 00-.123.036l-12.5 7.191a.598.598 0 00-.265.501l1.224 20.085c0 .135.081.213.18.213a.244.244 0 00.123-.036l12.501-7.176a.6.6 0 00.264-.501l-1.224-20.085c0-.135-.08-.213-.18-.213v-.015z" fill="#EBEBEB"/><path d="M59.384 129.066a.596.596 0 01-.528-.024.691.691 0 01-.3-.504l-1.224-20.085a.568.568 0 01.069-.3l.567.333a.55.55 0 00-.069.285l1.224 20.1c.006.171.123.252.261.195zm5.082-22.416l4.407-2.55c.138-.078.258 0 .267.156v.105a.514.514 0 01-.231.441l-4.404 2.562c-.138.078-.258 0-.267-.156v-.105a.515.515 0 01.228-.453zm.108 1.749l4.407-2.562c.135-.078.255 0 .267.156v.105a.515.515 0 01-.23.441l-4.393 2.562c-.138.078-.258 0-.267-.156v-.105a.516.516 0 01.216-.441zm.108 1.749l4.404-2.562c.138-.078.258 0 .267.156v.105a.511.511 0 01-.228.453l-4.404 2.562c-.138.078-.258 0-.267-.156v-.105a.516.516 0 01.228-.453zm-4.446 6.156l9.063-5.22c.138-.078.258 0 .267.159v.102a.513.513 0 01-.231.441L60.278 117c-.138.078-.258 0-.267-.156v-.102a.519.519 0 01.225-.438zm-.111-1.752l9.066-5.217c.135-.078.255 0 .267.156v.105a.515.515 0 01-.231.441l-9.063 5.217c-.138.078-.258 0-.267-.156v-.102a.523.523 0 01.228-.444zm.219 3.513l9.063-5.217c.138-.078.258 0 .267.156v.102a.515.515 0 01-.231.441l-9.063 5.217c-.138.081-.258 0-.267-.156v-.102a.514.514 0 01.231-.441zm.105 1.749l9.063-5.214c.138-.078.258 0 .27.156v.102a.516.516 0 01-.231.441l-9.066 5.217c-.135.081-.255 0-.267-.156v-.102a.515.515 0 01.231-.444zm.108 1.749l9.063-5.217c.138-.078.258 0 .267.156v.102a.514.514 0 01-.231.441l-9.063 5.217c-.138.081-.258 0-.267-.156v-.102a.516.516 0 01.231-.441zm.105 1.737l9.063-5.205c.135-.078.255 0 .267.156v.102a.515.515 0 01-.231.441l-9.066 5.217c-.135.081-.255 0-.267-.156v-.102a.521.521 0 01.234-.453zm.108 1.761l9.063-5.217c.138-.078.258 0 .267.156v.102a.514.514 0 01-.231.441l-9.057 5.217c-.138.081-.258 0-.267-.156v-.102a.516.516 0 01.225-.441z" fill="#E0E0E0"/><path d="M59.612 109.152l3.66-2.097.267 4.392-3.66 2.094-.267-4.389z" fill="#459AE9"/><path d="M60.206 109.605l.081 1.317.114-.066-.024-.405a.752.752 0 01.366-.627l.54-.3.12 1.956a.764.764 0 01-.3.663l-.339.195v.141l1.83-1.047v-.141l-.339.195c-.189.108-.354 0-.369-.273l-.12-1.959.54-.3c.216-.123.402-.042.417.18l.024.402.114-.063-.08-1.317-2.575 1.449z" fill="#FAFAFA"/><path d="M64.049 132.048a.703.703 0 01-.3-.507l-1.224-20.1a.577.577 0 01.26-.501l12.502-7.176a.622.622 0 01.567 0 .698.698 0 01.3.504l1.224 20.085a.604.604 0 01-.264.501l-12.49 7.197a.628.628 0 01-.575-.003z" fill="#F0F0F0"/><path d="M64.625 132.051l12.501-7.176a.598.598 0 00.264-.501l-1.224-20.085c0-.186-.15-.267-.3-.177L63.353 111.3a.586.586 0 00-.264.501l1.236 20.073c0 .186.135.267.3.177z" fill="#FAFAFA"/><path d="M75.977 104.223c.018 0 .027.045.03.075l1.218 20.085a.435.435 0 01-.186.363l-12.501 7.176a.117.117 0 01-.051.018c-.018 0-.03-.045-.03-.075l-1.224-20.1a.426.426 0 01.186-.36l12.501-7.176a.118.118 0 01.051-.018m0-.147a.244.244 0 00-.123.036l-12.495 7.2a.586.586 0 00-.264.501l1.236 20.073c0 .135.081.213.18.213a.243.243 0 00.123-.036l12.501-7.176a.598.598 0 00.264-.501l-1.224-20.085c0-.135-.081-.213-.18-.213l-.018-.012z" fill="#EBEBEB"/><path d="M64.58 132.069a.617.617 0 01-.531-.024.696.696 0 01-.3-.504l-1.224-20.1a.6.6 0 01.066-.3l.57.333a.548.548 0 00-.069.285l1.224 20.1c.009.186.126.267.264.21zm5.082-22.416l4.407-2.553c.138-.078.258 0 .267.156v.105a.515.515 0 01-.231.441l-4.404 2.562c-.138.078-.258 0-.27-.156v-.105a.524.524 0 01.23-.45zm.108 1.749l4.404-2.562c.138-.078.258 0 .27.156v.105a.515.515 0 01-.231.441l-4.407 2.562c-.138.078-.258 0-.267-.156v-.105a.515.515 0 01.23-.441zm.105 1.749l4.407-2.562c.138-.078.258 0 .267.156v.105a.514.514 0 01-.231.441l-4.404 2.562c-.138.078-.258 0-.267-.156v-.105a.527.527 0 01.228-.441zm-4.443 6.153l9.063-5.217c.138-.078.258 0 .267.156v.105a.514.514 0 01-.231.441L65.474 120c-.138.078-.258 0-.267-.156v-.102a.525.525 0 01.225-.438zm-.108-1.749l9.066-5.217c.135-.078.255 0 .267.156v.105a.514.514 0 01-.231.441l-9.063 5.217c-.138.078-.258 0-.27-.156v-.102a.537.537 0 01.231-.444zm.216 3.513l9.063-5.217c.138-.081.258 0 .267.156v.102a.515.515 0 01-.231.441l-9.063 5.217c-.138.081-.258 0-.267-.156v-.102a.513.513 0 01.231-.441zm.105 1.749l9.063-5.217c.138-.078.258 0 .267.156v.102a.511.511 0 01-.228.441l-9.066 5.217c-.135.081-.255 0-.267-.156v-.102a.515.515 0 01.23-.441zm.108 1.749l9.072-5.217c.138-.078.258 0 .267.156v.102a.515.515 0 01-.231.441l-9.066 5.217c-.138.081-.258 0-.267-.156v-.102a.512.512 0 01.225-.441zm.105 1.749l9.063-5.217c.138-.078.258 0 .267.156v.102a.523.523 0 01-.231.441l-9.066 5.217c-.135.081-.255 0-.267-.156v-.102a.517.517 0 01.234-.441zm.108 1.749l9.063-5.217c.138-.078.258 0 .267.156v.102a.516.516 0 01-.23.441l-9.064 5.217c-.138.081-.258 0-.267-.156v-.102a.514.514 0 01.231-.441z" fill="#E0E0E0"/><path d="M64.805 112.155l3.663-2.097.267 4.392-3.66 2.094-.27-4.389z" fill="#459AE9"/><path d="M65.402 112.608l.08 1.317.115-.069-.024-.402a.752.752 0 01.366-.627l.54-.3.12 1.956a.764.764 0 01-.3.663l-.34.195v.141l1.83-1.047v-.141l-.341.195c-.186.108-.351-.015-.366-.273l-.12-1.959.54-.3c.216-.123.402-.042.414.18l.027.402.114-.063-.081-1.317-2.574 1.449z" fill="#FAFAFA"/><path d="M66.593 124.569v11.412L50.17 126.48v-11.412l16.422 9.501z" fill="#459AE9"/><path opacity=".38" d="M66.593 124.569v11.412L50.17 126.48v-11.412l16.422 9.501z" fill="#000"/><path d="M81.173 127.563v-11.412l-14.58 8.418v11.412l14.58-8.418z" fill="#459AE9"/><path opacity=".23" d="M81.173 127.563v-11.412l-14.58 8.418v11.412l14.58-8.418z" fill="#000"/><path opacity=".7" d="M81.173 116.151l-14.58 8.418v11.412l.27-11.184 14.31-8.646z" fill="#fff"/><path d="M66.593 124.569l1.368-5.526 14.448-8.343-1.236 5.451-14.58 8.418z" fill="#459AE9"/><path opacity=".3" d="M66.593 124.569l1.368-5.526 14.448-8.343-1.236 5.451-14.58 8.418z" fill="#000"/><path d="M50.17 115.068l-3.428-4.737 16.422 9.501 3.429 4.737-16.422-9.501z" fill="#459AE9"/><path opacity=".45" d="M50.17 115.068l-3.428-4.737 16.422 9.501 3.429 4.737-16.422-9.501z" fill="#000"/><path opacity=".7" d="M46.742 110.331l16.422 9.501 3.429 4.737-3.612-4.572-16.24-9.666z" fill="#fff"/><g opacity=".7" fill="#fff"><path d="M70.886 132.6a.082.082 0 01-.034-.007.085.085 0 01-.05-.049.084.084 0 01-.006-.034v-2.01a.089.089 0 01.153-.063.094.094 0 01.027.063v2.01a.093.093 0 01-.09.09z"/><path d="M70.625 131.184h-.033a.09.09 0 01-.048-.12l.318-.735.357.411a.09.09 0 010 .126.086.086 0 01-.063.027.085.085 0 01-.063-.027l-.171-.195-.204.474a.093.093 0 01-.093.039zm1.089.93a.09.09 0 01-.09-.09v-2.007a.093.093 0 01.09-.09c.012 0 .023.002.035.007a.087.087 0 01.048.049c.005.01.007.022.007.034v2.007a.087.087 0 01-.09.09z"/><path d="M71.453 130.713h-.036a.09.09 0 01-.048-.117l.321-.735.354.408a.085.085 0 01.02.029.085.085 0 010 .068.093.093 0 01-.083.055.092.092 0 01-.063-.026l-.168-.198-.207.477a.088.088 0 01-.09.039z"/></g><g opacity=".7" fill="#fff"><path d="M68.495 133.95a.181.181 0 01-.096-.027.231.231 0 01-.108-.213v-.246a.087.087 0 01.09-.09.09.09 0 01.09.09v.246a.091.091 0 00.015.06.086.086 0 00.06-.018.523.523 0 00.165-.405v-1.026a.089.089 0 01.09-.09.087.087 0 01.065.025.087.087 0 01.025.065v1.026a.676.676 0 01-.255.561.281.281 0 01-.141.042z"/><path d="M67.553 133.122v-.156a2.537 2.537 0 011.146-1.986.764.764 0 01.424-.177.764.764 0 01.756.441.76.76 0 01.056.456v.054l-2.382 1.368zm1.683-2.124a.898.898 0 00-.447.138 2.365 2.365 0 00-1.05 1.671l2.016-1.164a.672.672 0 00-.279-.585.49.49 0 00-.24-.06z"/></g><path d="M115.925 111.705c-.12 0-.117.342-.081.495.036.153.507.675 1.365.882.858.207 2.055.081 2.568.078.513-.003 1.389.27 1.896.36.507.09 1.431-.054 1.743-.33a.548.548 0 00.114-.195c.024-.073.032-.149.024-.225 0-.339-.027-.408-.066-.408l-7.563-.657z" fill="#37474F"/><path d="M123.407 111.348c.015.069.027.135.036.204.064.344.074.697.03 1.044a.946.946 0 01-.636.441 3.175 3.175 0 01-1.737-.039 5.115 5.115 0 00-1.314-.18 12.66 12.66 0 01-1.785 0 4.32 4.32 0 01-1.299-.321 1.633 1.633 0 01-.768-.741 1.205 1.205 0 01.714-1.161c.418-.19.878-.27 1.335-.231.501.021.873.102 1.317.087.309.006.617-.056.9-.18a.87.87 0 00.3-.381c.075-.156.108-.3.249-.3 0 0 2.1.036 2.301.063.201.027.252.876.276 1.041.024.165.018.267.045.393s.021.177.036.261z" fill="#455A64"/><path d="M118.925 110.364a.353.353 0 00-.108-.045c-.201-.039-.363.156-.456.3a1.306 1.306 0 00-.117.3.702.702 0 00-.021.393c0 .033.033.072.066.066.033-.006.039-.045.045-.075.024-.185.082-.364.171-.528a.54.54 0 01.339-.309c.03 0 .165 0 .135-.066l-.027-.027-.027-.009zm.579.036a.376.376 0 00-.27.066.546.546 0 00-.171.261.843.843 0 00-.039.681c.036.063.09.03.114-.024a.933.933 0 00.03-.21c.03-.153.078-.302.144-.444a.677.677 0 01.09-.162.27.27 0 01.147-.102h.057c0-.027-.03-.045-.06-.051l-.042-.015zm.597-.162a.372.372 0 00-.177.111.552.552 0 00-.087.177 2.02 2.02 0 00-.096.441.532.532 0 00.063.3c.021.036.063.075.102.057.039-.018.039-.084.045-.123.006-.039 0-.144 0-.213.01-.262.104-.514.267-.72 0 0 .018-.024.015-.036-.003-.012-.033-.021-.051-.018l-.081.024z" fill="#FAFAFA"/><path d="M118.295 110.4c-.207 0-.651.255-.882.882a3.56 3.56 0 00-.141 1.425 2.038 2.038 0 01-1.128-.579 1.194 1.194 0 01-.273-.372 1.26 1.26 0 01.246-.957 1.957 1.957 0 011.5-.582c.822-.015.885.204.885.204l-.207-.021z" fill="#FAFAFA"/><path d="M123.143 108.252s-.066 1.074-.15 1.572c-.048.282-.321.714-1.2.696a1.008 1.008 0 01-1.026-.672 17.9 17.9 0 01-.048-1.965l2.424.369zM137.9 105.6l-1.299-3.228-2.829.969s1.974 2.85 2.208 3.162c.387.522 1.92-.903 1.92-.903z" fill="#FFA8A7"/><path d="M139.184 106.5c.015.13.015.26 0 .39-.036.45-.069.9-.102 1.353a3.395 3.395 0 01-.075.531 3.446 3.446 0 00-.024.642c0 .225 0 .45-.015.675-.012.1-.012.2 0 .3.024.093-1.422.921-2.007 1.239a.51.51 0 01-.105.051.917.917 0 01-.948-.222 1.61 1.61 0 01.393-1.77s.075 0 .06-.567c0-.405 0-.819-.042-1.224a2.676 2.676 0 00-.195-.741 1.8 1.8 0 01-.246-.687 1.01 1.01 0 01.228-.477 1.46 1.46 0 01.351-.384 2.59 2.59 0 011.023-.504.475.475 0 01.231 0c.114.036.183.15.261.246.191.195.412.359.654.486.243.131.433.343.534.6.012.012.021.042.024.063z" fill="#455A64"/><path d="M136.307 109.686a2.038 2.038 0 00-.39 1.773c-1.02-.093-1.287-.681-1.287-.681a.979.979 0 01.528-.879c.07-.045.145-.084.222-.117a1.5 1.5 0 01.927-.096z" fill="#FAFAFA"/><path d="M139.469 106.656c.267.105.198.843.027 1.551s-.261.957-.174 1.548c.087.591.135.855-.105 1.071-.24.216-2.157 1.11-2.157 1.11.261-.711.406-1.46.429-2.217.051-1.308.138-2.151.744-2.745a1.154 1.154 0 011.236-.318z" fill="#459AE9"/><path opacity=".3" d="M139.469 106.656c.267.105.198.843.027 1.551s-.261.957-.174 1.548c.087.591.135.855-.105 1.071-.24.216-2.157 1.11-2.157 1.11.261-.711.406-1.46.429-2.217.051-1.308.138-2.151.744-2.745a1.154 1.154 0 011.236-.318z" fill="#000"/><path d="M134.624 110.775c.467.361 1.016.6 1.599.696.855.096.9-.231.987-1.242.087-1.011.126-2.415.522-3.03.396-.615 1.071-.9 1.335-.828.054-.027.315.168.402.285a1.47 1.47 0 00-1.119.45c-.534.522-.633 1.623-.657 2.622-.024.999-.069 2.163-.864 2.283a2.893 2.893 0 01-2.175-.66.41.41 0 01-.136-.282.4.4 0 01.106-.294z" fill="#37474F"/><path d="M136.37 109.314a.265.265 0 00-.079.081.265.265 0 00-.041.105.569.569 0 00.3.525c.108.06.198.036.027-.174a1.083 1.083 0 01-.207-.537zm-.018-.714a.235.235 0 00-.072.153.87.87 0 00.351.552c.186.084.087-.123 0-.219a3.773 3.773 0 01-.279-.486zm-.048-.768a.173.173 0 00-.087.126c0 .081.381.372.501.36.12-.012.15-.048 0-.147a4.856 4.856 0 01-.414-.339z" fill="#FAFAFA"/><path d="M134.681 104.829s-6.18-9.219-6.366-9.942c-.186-.723-1.359-8.25-1.359-8.25l-2.418 8.868c.144.823.218 1.657.219 2.493a22.154 22.154 0 01-.492 4.356c-.645 3.045-1.011 5.964-1.011 5.964a2.442 2.442 0 01-1.323.3 2.785 2.785 0 01-1.293-.369s-.336-8.238-.432-10.128c-.096-1.89-.156-2.733-.051-3.978.144-1.695.222-3.453.549-7.122.285-3.222.87-10.08.87-10.08l9.927-.657s.837 1.584.936 5.7c.078 3.213.075 12.03.075 12.03 1.473.924 1.923 1.884 2.625 3.69.444 1.14 1.587 4.683 1.923 5.73-1.242.33-2.379 1.395-2.379 1.395z" fill="#455A64"/><path d="M106.385 81.663L99.2 83.736l-1.434.414a.39.39 0 01-.46-.207.377.377 0 01.028-.399l.993-1.344 4.368-5.916 1.479 2.163 2.211 3.216z" fill="#F28F8F"/><path d="M104.18 78.438l-5.775 4.626-1.101.879a.377.377 0 01.027-.399l.993-1.344 4.368-5.916 1.488 2.154z" fill="#FFA8A7"/><path d="M99.2 83.736l-1.434.414a.39.39 0 01-.46-.207.377.377 0 01.028-.399l.993-1.344c-.06.292-.035.595.072.873a1.239 1.239 0 00.8.663z" fill="#37474F"/><path d="M134.903 53.865l-.705.492-.855.6-30.642 21.315a4.17 4.17 0 00.516 3c.771 1.389 2.124 2.418 3.168 2.4l30.414-21.171 1.629-1.134c-1.095.666-4.614-4.809-3.525-5.502z" fill="#459AE9"/><path opacity=".2" d="M134.903 53.865l-.705.492-.855.6-30.642 21.315a4.17 4.17 0 00.516 3c.771 1.389 2.124 2.418 3.168 2.4l30.414-21.171 1.629-1.134c-1.095.666-4.614-4.809-3.525-5.502z" fill="#000"/><path d="M134.198 54.357l-.855.6-30.642 21.315a4.17 4.17 0 00.516 3l31.527-22.215-.546-2.7z" fill="#459AE9"/><path d="M132.209 55.728l-1.584 1.101c-.468.3-.081 1.482.6 2.679.9 1.59 2.325 3.204 2.946 2.802l1.158-.813.417-.3c-.621.402-2.046-1.215-2.949-2.805-.654-1.146-1.032-2.283-.645-2.634a.099.099 0 01.057-.03z" fill="#E0E0E0"/><path d="M132.806 58.401c-.654-1.146-1.032-2.283-.645-2.634a.099.099 0 01.042-.036l-1.578 1.098c-.468.3-.081 1.482.6 2.679l1.572-1.107h.009z" fill="#FAFAFA"/><path d="M131.825 56.007c-1.086.705 2.46 6.183 3.549 5.478l1.581-1.095c-1.089.702-4.635-4.776-3.549-5.478l-1.581 1.095z" fill="#459AE9"/><path d="M134.903 53.865l-1.56 1.083c-1.074.684 2.301 6 3.456 5.541a.219.219 0 00.066-.03l1.563-1.104c-1.095.678-4.614-4.797-3.525-5.49z" fill="#E0E0E0"/><path d="M141.524 49.269l-6.621 4.596c-.465.3-.09 1.464.579 2.655.9 1.593 2.319 3.225 2.946 2.835l6.369-4.422c1.569-.9.258-4.164-1.41-5.376-.612-.462-1.275-.63-1.863-.288z" fill="#F28F8F"/><path d="M141.524 49.269l-6.621 4.596c-.465.3-.09 1.464.579 2.655l6.678-4.419s-.837-1.65-.498-2.322c.339-.672 1.008-.627 1.734-.225-.621-.459-1.284-.627-1.872-.285z" fill="#FFA8A7"/><path opacity=".4" d="M133.397 54.9l-1.572 1.107c-.465.3-.078 1.479.6 2.67L134 57.57c-.675-1.188-1.065-2.37-.603-2.67z" fill="#fff"/><path d="M134.903 53.865l-1.56 1.083c-.468.3-.09 1.473.576 2.67l1.563-1.098c-.657-1.191-1.044-2.358-.579-2.655z" fill="#FAFAFA"/><path d="M124.844 62.928l.336 3.66 3.273-.189-.246-4.059-3.363.588z" fill="#FFA8A7"/><path d="M122.432 58.902s-.726 1.074-.633 1.2c.17.11.358.19.555.237l.078-1.437z" fill="#F28F8F"/><path d="M130.364 56.199c-.102-.096-.213-.183-.3-.3a1.095 1.095 0 01-.117-.144c-.234-.348-.327-.744-.6-1.068a2.745 2.745 0 00-1.038-.72 5.52 5.52 0 00-2.247-.3c-.759.05-1.521.05-2.28 0a2.015 2.015 0 00-1.02.036 1.058 1.058 0 00-.576 1.023c.041.417.223.808.516 1.107a.69.69 0 00-.483.726c.044.316.185.611.405.843.351.426.621.72.726 1.275.141.759.963 1.164 1.482 1.704.197.19.385.39.561.6l.033.045a.982.982 0 01-.462-.039s-.096 1.623 1.05 2.151a4.733 4.733 0 002.259-.12 8.144 8.144 0 002.013-2.319c.756-1.251 1.338-3.318.078-4.5z" fill="#263238"/><path d="M125.99 60.702a.857.857 0 01-.6.357.939.939 0 01-.462-.039s-.072 1.23.666 1.893c-.153.06-.3.108-.408.144-.657.195-1.923.105-2.166-.126-.363-.345-.954-1.254-.621-3.873a5.376 5.376 0 01.774-2.322 1.128 1.128 0 00.648.858 1.083 1.083 0 00-.18.9c.126.362.347.684.639.933a.125.125 0 00.057.039c.039.015.207 0 .231-.033.234-.339.555-.735 1.182-.525.738.249.696 1.134.24 1.794z" fill="#FFA8A7"/><path d="M123.098 62.979c.3.165 1.137.234 1.764.147l-.018-.471a4.724 4.724 0 01-.834.267 3.023 3.023 0 01-.912.057z" fill="#F28F8F"/><path d="M124.238 60.36a.602.602 0 01-.046-1.125.62.62 0 01.472-.018l-.426 1.143z" fill="#263238"/><path d="M126.947 86.67l.84-3.6s1.431.102 3.189-1.305c0 0-.204 1.257-2.685 1.842l-.822 3.528.258 4.371s-.768-4.755-.78-4.836z" fill="#37474F"/><path d="M131.243 65.451c-.315-.945-.789-1.296-1.248-1.383a9.836 9.836 0 00-1.692 0c-.102.525-1.8.9-3.318.357l-1.53.24c-1.35.624-1.656 2.181-2.373 3.774a2.592 2.592 0 00.732 3.168s-.132 1.914-.204 3c-.102 1.6-.213 3.2-.333 4.8 0 0 1.5 1.371 6.144 1.2 3.399-.126 4.614-1.263 4.8-1.782-.183-2.136-1.257-4.149-1.464-4.8a4.007 4.007 0 01-.204-2.052c.834-3.228 1.125-5.208.69-6.522z" fill="#459AE9"/><path opacity=".4" d="M131.243 65.451c-.315-.945-.789-1.296-1.248-1.383a9.836 9.836 0 00-1.692 0c-.102.525-1.8.9-3.318.357l-1.53.24c-1.35.624-1.656 2.181-2.373 3.774a2.592 2.592 0 00.732 3.168s-.132 1.914-.204 3c-.102 1.6-.213 3.2-.333 4.8 0 0 1.5 1.371 6.144 1.2 3.399-.126 4.614-1.263 4.8-1.782-.183-2.136-1.257-4.149-1.464-4.8a4.007 4.007 0 01-.204-2.052c.834-3.228 1.125-5.208.69-6.522z" fill="#fff"/><path d="M124.025 64.605c-2.631.141-2.802.72-4.008 3.171-.636 1.296-1.641 3.9-2.244 5.154-1.326.6-4.386 1.092-5.592.831a.982.982 0 01-.6-.378c-.384-.54-.762-.618-1.227-1.005-.36-.3-.465-.57-.57-.519a.537.537 0 00-.195.699c.105.231.243.446.408.639a5.504 5.504 0 01-1.347-.714c-.996-.705-1.578-.699-1.485.855.057.972.711 1.71 2.904 2.295.804.234 1.624.408 2.454.522 2.104.15 4.218.015 6.285-.402a2.305 2.305 0 001.167-.726c.843-.87 2.781-4.689 2.781-4.689 1.488-2.316 1.614-4.428 1.269-5.733z" fill="#FFA8A7"/></svg>