<svg width="151" height="150" fill="none" xmlns="http://www.w3.org/2000/svg"><path d="M77.526 128.937c36.984 0 66.966-16.017 66.966-35.775S114.51 57.387 77.526 57.387c-36.984 0-66.966 16.017-66.966 35.775s29.982 35.775 66.966 35.775z" fill="#F5F5F5"/><path d="M50.577 113.076l-21.35-12.414L65.34 79.791l-14.763 33.285z" fill="#E0E0E0"/><path d="M19.758 99.9l8.7 5.016a1.287 1.287 0 001.167 0l12-7.002a.354.354 0 000-.672l-8.7-5.019a1.29 1.29 0 00-1.167 0l-12 7.002a.357.357 0 000 .675z" fill="#E0E0E0"/><path d="M20.7 99.12c-.6-.966-2.451-2.028-4.881-2.553-2.43-.525-4.872-1.167-4.314-2.586.6-1.521 2.862-1.596 5.073-.69 2.415.99 4.2 3.438 4.233 4.98l-.111.849z" fill="#459AE9"/><path d="M20.7 99.12c-.6-.966-2.451-2.028-4.881-2.553-2.43-.525-4.872-1.167-4.314-2.586.6-1.521 2.862-1.596 5.073-.69 2.415.99 4.2 3.438 4.233 4.98l-.111.849z" fill="#000" opacity=".1"/><path d="M20.889 98.682a.18.18 0 01-.162-.105c-1.93-3.99-6.402-4.635-7.8-4.416a.183.183 0 01-.205-.224.179.179 0 01.148-.136c1.482-.228 6.177.441 8.196 4.62a.183.183 0 01-.177.261z" fill="#fff"/><path d="M20.7 99.12s-1.161-4.599-4.104-7.071c-.873-.735-1.8-1.656-2.457-2.289-1.398-1.362-.813-2.847 1.122-2.817 2.88.039 4.986 2.463 5.898 5.634.912 3.171-.46 6.543-.46 6.543z" fill="#459AE9"/><path d="M21.159 97.335a.183.183 0 01-.183-.165c-.54-5.85-5.004-8.79-6.219-9.102a.181.181 0 01.09-.351c1.476.378 5.937 3.429 6.492 9.42a.183.183 0 01-.165.198h-.015z" fill="#fff"/><path d="M28.752 104.178l-8.196-4.734-.003-17.58 8.199 4.734v17.58z" fill="#263238"/><path d="M28.752 86.598l11.712-6.762v17.58l-11.712 6.762v-17.58z" fill="#37474F"/><path d="M40.464 79.836l-11.712 6.762-8.199-4.734 11.715-6.762 8.196 4.734z" fill="#455A64"/><path d="M33.813 86.382l1.593-.921c.207-.12.375-.066.375.123a.742.742 0 01-.375.552l-1.593.921c-.207.12-.375.066-.375-.123a.743.743 0 01.375-.552zm-4.104 9.132l9.369-5.409.216.123-.216 6.387.216.126-9.369 5.409-.216-.126v-6.51z" fill="#263238"/><path d="M29.925 95.637l9.369-5.409v6.513l-9.369 5.409v-6.513z" fill="#455A64"/><path d="M33.597 94.62l1.593-.918c.207-.12.375-.066.375.12a.747.747 0 01-.375.555l-1.593.921c-.207.12-.375.063-.375-.123a.754.754 0 01.375-.555zm-3.888-7.206l9.369-5.409.216.123-.216 6.387.216.126-9.369 5.409-.216-.126v-6.51z" fill="#263238"/><path d="M29.925 87.537l9.369-5.409v6.513l-9.369 5.409v-6.513z" fill="#455A64"/><path d="M33.597 86.52l1.593-.918c.207-.12.375-.066.375.12a.747.747 0 01-.375.555l-1.593.921c-.207.12-.375.063-.375-.123a.754.754 0 01.375-.555zm-4.845-.669l-8.196-4.734-.003-17.583 8.199 4.734v17.583z" fill="#263238"/><path d="M28.752 68.268l11.712-6.762v17.583l-11.712 6.762V68.268z" fill="#37474F"/><path d="M40.464 61.506l-11.712 6.762-8.199-4.734 11.715-6.762 8.196 4.734z" fill="#455A64"/><path d="M29.925 68.943l9.369-5.409.216.126v6.51l-9.369 5.412-.216-.126v-6.513z" fill="#263238"/><path d="M33.813 68.052l1.593-.921c.207-.12.375-.063.375.123a.753.753 0 01-.375.555l-1.593.918c-.207.12-.375.066-.375-.12a.747.747 0 01.375-.555zm-4.104 9.132l9.369-5.409v6.513l.216.123-9.369 5.409-.216-.123v-6.513z" fill="#263238"/><path d="M29.925 77.31l9.369-5.412v6.513l-9.369 5.409v-6.51z" fill="#455A64"/><path d="M33.597 76.293l1.593-.921c.207-.12.375-.066.375.123a.744.744 0 01-.375.552l-1.593.921c-.207.12-.375.066-.375-.123a.744.744 0 01.375-.552zm-3.672-7.35l9.369-5.409v6.513l-9.369 5.409v-6.513z" fill="#263238"/><path d="M43.98 66.75l-5.13-2.958v5.736l5.13 2.961V66.75z" fill="#263238"/><path d="M33.438 76.383v-8.115l2.01-1.164.333.489 5.856-3.384v7.44l-8.199 4.734z" fill="#459AE9"/><path d="M33.438 76.383v-8.115l2.01-1.164.333.489 5.856-3.384v7.44l-8.199 4.734z" fill="#000" opacity=".2"/><path d="M33.438 76.383l.585-7.101 8.199-4.734-.585 7.101-8.199 4.734z" fill="#459AE9"/><path d="M34.608 72.162l-4.47-2.58v5.736l4.47 2.58v-5.736z" fill="#37474F"/><path d="M34.608 71.649l9.372-5.409v6.51l-9.372 5.412v-6.513z" fill="#455A64"/><path d="M38.283 70.632l1.593-.921c.207-.12.375-.063.375.123a.754.754 0 01-.375.555l-1.593.918c-.207.12-.375.066-.375-.12a.752.752 0 01.375-.555zm-3.675 1.017l-.312-.18v6.513l.312.18v-6.513z" fill="#263238"/><path d="M34.296 71.469l9.372-5.409.312.18-9.372 5.409-.312-.18z" fill="#37474F"/><path d="M112.875 24.69l-1.218-.708L49.5 59.862v51.969a.919.919 0 00.378.84l1.218.708a.923.923 0 00.921-.09l59.55-34.389a2.867 2.867 0 001.299-2.25l.009-51.96z" fill="#E6E6E6"/><path d="M50.718 112.539c0 .828.579 1.164 1.299.75l59.55-34.389a2.867 2.867 0 001.299-2.25V24.69L50.718 60.573v51.966z" fill="#FAFAFA"/><path d="M112.575 25.2v51.456a2.58 2.58 0 01-1.149 1.992l-59.55 34.38a.897.897 0 01-.432.138c-.378 0-.417-.438-.417-.627V60.744L112.575 25.2zm.3-.519L50.718 60.573v51.966c0 .6.3.927.717.927a1.2 1.2 0 00.582-.177l59.55-34.389a2.867 2.867 0 001.299-2.25V24.69l.009-.009z" fill="#E0E0E0"/><path d="M50.718 60.573v5.625l62.148-35.883V24.69L50.718 60.573z" fill="#459AE9"/><path d="M89.712 40.263v1.2c0 .246.177.348.39.225l19.107-11.034v-2.1L90.102 39.6a.869.869 0 00-.39.663z" fill="#FAFAFA"/><path d="M111.258 27.375c.216-.126.39-.024.39.225v1.2a.854.854 0 01-.39.675l-2.049 1.182v-2.1l2.049-1.182z" fill="#455A64"/><path d="M111.108 29.034l-.231-.072c.025-.098.038-.199.039-.3a.535.535 0 00-.21-.486.327.327 0 00-.333 0 1.169 1.169 0 00-.456.951.526.526 0 00.21.486c.043.026.093.04.144.039a.373.373 0 00.186-.054.945.945 0 00.369-.495l.231.072h.018a.085.085 0 00.05-.015.088.088 0 00.031-.042.094.094 0 00-.011-.05.093.093 0 00-.037-.034zm-.735.438a.152.152 0 01-.162.015.376.376 0 01-.103-.154.375.375 0 01-.02-.185 1.021 1.021 0 01.369-.804.224.224 0 01.105-.033.11.11 0 01.06.018.39.39 0 01.123.339 1.029 1.029 0 01-.372.804z" fill="#FAFAFA"/><path d="M111.279 20.427a.901.901 0 00-.93.084L50.799 54.9a2.864 2.864 0 00-1.299 2.25v2.721l1.218.711 62.157-35.892v-2.721a.903.903 0 00-.375-.837c-.225-.132-1.008-.576-1.221-.705z" fill="#263238"/><path d="M50.718 57.852a2.86 2.86 0 011.299-2.25l59.55-34.383c.717-.414 1.299-.078 1.299.75v2.721L50.718 60.573v-2.721z" fill="#37474F"/><path d="M112.503 21.138a.898.898 0 00-.936.081l-59.55 34.38c-.384.24-.7.573-.918.969l-1.224-.705c.22-.397.536-.732.921-.972l59.553-34.383a.902.902 0 01.93-.081c.213.129.993.576 1.2.702l.024.009z" fill="#455A64"/><path d="M105.555 26.1a1.352 1.352 0 00-.6 1.056c0 .387.273.546.6.351a1.343 1.343 0 00.6-1.056c.009-.393-.264-.552-.6-.351zm2.133-1.233a1.336 1.336 0 00-.6 1.053c0 .39.273.546.6.354a1.354 1.354 0 00.6-1.056c.009-.39-.264-.546-.6-.351zm2.13-1.23a1.343 1.343 0 00-.6 1.056c0 .39.273.546.6.351a1.346 1.346 0 00.6-1.056c.012-.387-.261-.546-.6-.351z" fill="#459AE9"/><path d="M52.017 113.289l10.887-6.285V59.16l-12.186 7.038v46.341c0 .828.579 1.161 1.299.75z" fill="#F5F5F5"/><path d="M62.604 59.679v47.151l-10.737 6.198a.897.897 0 01-.432.138c-.378 0-.417-.438-.417-.627v-46.17l11.586-6.69zm.3-.519l-12.186 7.038v46.341c0 .6.3.927.717.927a1.2 1.2 0 00.582-.177l10.887-6.285V59.16z" fill="#E0E0E0"/><path d="M54.762 66.675l5.832-3.375c.213-.126.387-.024.387.225v.507a.868.868 0 01-.387.675l-5.832 3.369c-.216.126-.39.024-.39-.225v-.501a.87.87 0 01.39-.675z" fill="#E0E0E0"/><path d="M53.154 68.055v.507a.86.86 0 01-.39.675l-.438.252c-.216.126-.39.024-.39-.225v-.507a.862.862 0 01.39-.675l.438-.252c.216-.126.39-.03.39.225z" fill="#459AE9"/><path d="M54.762 69.48l5.832-3.369c.213-.126.387-.024.387.222v.507a.875.875 0 01-.387.678l-5.832 3.369c-.216.123-.39.024-.39-.225v-.507a.864.864 0 01.39-.675z" fill="#E0E0E0"/><path d="M53.154 70.857v.507a.859.859 0 01-.39.675l-.438.255c-.216.123-.39.024-.39-.225v-.507a.859.859 0 01.39-.675l.438-.255c.216-.132.39-.024.39.225z" fill="#459AE9"/><path d="M54.762 72.282l5.832-3.369c.213-.123.387-.024.387.225v.507a.861.861 0 01-.387.675l-5.832 3.369c-.216.126-.39.024-.39-.222v-.51a.873.873 0 01.39-.675z" fill="#E0E0E0"/><path d="M53.154 73.662v.507a.859.859 0 01-.39.675l-.438.255c-.216.123-.39.021-.39-.225v-.51a.868.868 0 01.39-.675l.438-.252c.216-.123.39-.024.39.225z" fill="#459AE9"/><path d="M54.762 81.582l5.832-3.372c.213-.123.387-.024.387.225v.507a.861.861 0 01-.387.675l-5.832 3.372c-.216.123-.39.024-.39-.225v-.507a.864.864 0 01.39-.675z" fill="#E0E0E0"/><path d="M53.154 82.959v.507a.858.858 0 01-.39.675l-.438.255c-.216.123-.39.024-.39-.225v-.507a.859.859 0 01.39-.675l.438-.255c.216-.123.39-.024.39.225z" fill="#459AE9"/><path d="M54.762 84.063l5.832-3.363c.213-.123.387-.024.387.225v.507a.862.862 0 01-.387.675l-5.832 3.363c-.216.126-.39.024-.39-.225v-.507a.873.873 0 01.39-.675z" fill="#E0E0E0"/><path d="M53.154 85.443v.507a.859.859 0 01-.39.675l-.438.252c-.216.126-.39.024-.39-.225v-.507a.868.868 0 01.39-.675l.438-.252c.216-.123.39-.018.39.225z" fill="#459AE9"/><path d="M54.762 86.547l5.832-3.369c.213-.126.387-.024.387.225v.507a.868.868 0 01-.387.675l-5.832 3.369c-.216.126-.39.024-.39-.225v-.507a.87.87 0 01.39-.675z" fill="#E0E0E0"/><path d="M53.154 87.927v.507a.86.86 0 01-.39.675l-.438.252c-.216.126-.39.024-.39-.225v-.507a.862.862 0 01.39-.675l.438-.252c.216-.126.39-.024.39.225zm1.218-12.582v.873l.76-.873h-.76z" fill="#459AE9"/><path d="M55.593 75.162c0 .165.114.228.258.144l4.872-2.802a.573.573 0 00.258-.45c0-.165-.114-.231-.258-.147l-4.872 2.811a.567.567 0 00-.258.444z" fill="#E0E0E0"/><path d="M54.372 76.749v.876l.76-.876h-.76z" fill="#459AE9"/><path d="M55.593 76.569c0 .162.114.228.258.144l4.872-2.805a.563.563 0 00.258-.447c0-.165-.114-.231-.258-.147l-4.872 2.811a.567.567 0 00-.258.444z" fill="#E0E0E0"/><path d="M54.372 78.156v.876l.76-.876h-.76z" fill="#459AE9"/><path d="M55.593 77.976c0 .162.114.228.258.144l4.872-2.805a.563.563 0 00.258-.447c0-.165-.114-.231-.258-.147l-4.872 2.811a.567.567 0 00-.258.444z" fill="#E0E0E0"/><path d="M54.372 79.563v.876l.76-.876h-.76z" fill="#459AE9"/><path d="M55.593 79.383c0 .162.114.228.258.144l4.872-2.805a.563.563 0 00.258-.447c0-.165-.114-.231-.258-.147l-4.872 2.811a.567.567 0 00-.258.444z" fill="#E0E0E0"/><path d="M66.558 60.837v7.332c0 .3.216.432.483.279l8.06-4.656a1.059 1.059 0 00.484-.834v-6.027c0-.3-.216-.432-.483-.279l-4.677 2.7c-.267.153-.483.03-.483-.276v-.192c0-.3-.213-.432-.48-.279L67.04 60a1.067 1.067 0 00-.483.837z" fill="#459AE9"/><path d="M68.145 69.552v.471c0 .228.162.321.36.207l6.048-3.492a.795.795 0 00.36-.624v-.471c0-.228-.162-.321-.36-.207l-6.048 3.492a.794.794 0 00-.36.624z" fill="#E0E0E0"/><path d="M77.775 54.402v7.332c0 .3.216.429.48.276l8.06-4.653a1.068 1.068 0 00.484-.834v-6.03c0-.3-.216-.432-.483-.279l-4.677 2.7c-.267.153-.48.027-.48-.279v-.192c0-.3-.216-.429-.483-.276l-2.421 1.398a1.066 1.066 0 00-.48.837z" fill="#459AE9"/><path d="M79.353 63.117v.483c0 .231.162.324.36.21l6.048-3.51a.804.804 0 00.36-.627v-.468c0-.231-.162-.324-.36-.207l-6.048 3.492a.803.803 0 00-.36.627z" fill="#E0E0E0"/><path d="M66.558 75.567v7.332c0 .3.216.432.483.279l8.06-4.656a1.066 1.066 0 00.484-.822v-6.03c0-.3-.216-.429-.483-.276l-4.677 2.7c-.267.153-.483.03-.483-.276v-.192c0-.3-.213-.432-.48-.279l-2.421 1.398a1.066 1.066 0 00-.483.822z" fill="#459AE9"/><path d="M68.145 84.282v.471c0 .228.162.321.36.207l6.048-3.492a.801.801 0 00.36-.624v-.471c0-.228-.162-.321-.36-.207l-6.048 3.492a.794.794 0 00-.36.624z" fill="#E0E0E0"/><path d="M77.775 69.129v7.332c0 .3.216.432.48.279l8.06-4.656a1.059 1.059 0 00.484-.831v-6.03c0-.3-.216-.432-.483-.279l-4.677 2.7c-.267.153-.48.027-.48-.279v-.192c0-.3-.216-.432-.483-.276l-2.421 1.398a1.062 1.062 0 00-.48.834z" fill="#459AE9"/><path d="M79.353 77.847v.468c0 .231.162.324.36.207l6.048-3.489a.804.804 0 00.36-.627v-.468c0-.231-.162-.324-.36-.21l-6.048 3.492a.803.803 0 00-.36.627z" fill="#E0E0E0"/><path d="M89.109 47.61v7.332c0 .3.216.432.48.279l8.064-4.656a1.066 1.066 0 00.48-.834v-6.027c0-.3-.216-.432-.48-.279l-4.68 2.7c-.264.156-.48.03-.48-.276v-.192c0-.3-.216-.432-.483-.279l-2.421 1.401a1.062 1.062 0 00-.48.831z" fill="#459AE9"/><path d="M90.561 56.679v.471c0 .228.162.321.363.207l6.051-3.492a.791.791 0 00.363-.624v-.468c0-.231-.162-.324-.363-.21l-6.045 3.492a.793.793 0 00-.369.624z" fill="#E0E0E0"/><path d="M100.185 41.529v7.332c0 .3.216.429.483.276l8.061-4.653a1.07 1.07 0 00.48-.834v-6.03c0-.3-.213-.432-.48-.279l-4.677 2.7c-.267.153-.483.027-.483-.279v-.192c0-.3-.213-.429-.48-.276l-2.421 1.398a1.06 1.06 0 00-.483.837z" fill="#459AE9"/><path d="M101.775 50.244v.456c0 .231.159.324.36.21l6.048-3.492a.813.813 0 00.36-.624v-.471c0-.231-.162-.324-.36-.207l-6.048 3.489a.8.8 0 00-.36.639zM90.561 71.4v.471c0 .228.162.321.363.207l6.051-3.489a.791.791 0 00.363-.624V67.5c0-.228-.162-.321-.363-.207l-6.045 3.492a.794.794 0 00-.369.615z" fill="#E0E0E0"/><path d="M90.714 61.098l6.261-3.621c.285-.165.52-.03.52.3v7.242a1.15 1.15 0 01-.52.9l-6.26 3.621c-.3.165-.52.033-.52-.3v-7.242a1.15 1.15 0 01.52-.9z" fill="#FAFAFA"/><path d="M90.48 69.762a.42.42 0 01-.21-.054.51.51 0 01-.225-.468v-7.242a1.295 1.295 0 01.6-1.029l6.273-3.621a.503.503 0 01.516-.036.512.512 0 01.228.465v7.242a1.296 1.296 0 01-.6 1.029l-6.273 3.624a.627.627 0 01-.31.09zm6.738-12.204a.3.3 0 00-.156.051l-6.273 3.621a.99.99 0 00-.444.768v7.242c0 .105.027.18.075.207a.24.24 0 00.219-.036l6.273-3.621a1.005 1.005 0 00.444-.771v-7.242a.24.24 0 00-.078-.207.126.126 0 00-.06-.012z" fill="#EBEBEB"/><path d="M97.725 58.455l-1.398.807a1.15 1.15 0 00-.522.9v1.614c0 .333.234.468.522.3l1.398-.807a1.148 1.148 0 00.519-.9v-1.614c0-.33-.234-.465-.52-.3z" fill="#459AE9"/><path d="M91.19 61.881l3.145-1.8c.14-.081.258-.015.258.153v.099a.581.581 0 01-.258.45l-3.144 1.8c-.144.084-.261.018-.258-.15v-.102a.574.574 0 01.258-.45zm0 1.419l3.145-1.8c.14-.084.258-.015.258.15v.099a.574.574 0 01-.258.45l-3.144 1.8c-.144.084-.261 0-.258-.15v-.105a.573.573 0 01.258-.444zm0 1.392l3.145-1.8c.14-.081.258-.015.258.15v.102a.581.581 0 01-.258.45l-3.144 1.8c-.144.084-.261.018-.258-.15v-.102a.57.57 0 01.258-.45zm0 1.404l5.22-3c.145-.081.262 0 .262.15v.102a.574.574 0 01-.261.45l-5.22 3c-.144.081-.261.015-.258-.15v-.105a.574.574 0 01.258-.447zm0 1.404l5.22-3c.145-.084.262 0 .262.15v.099a.572.572 0 01-.261.45l-5.22 3c-.144.084-.261.015-.258-.15v-.102a.563.563 0 01.258-.447z" fill="#EBEBEB"/><path d="M101.529 65.073v.468c0 .231.162.324.36.21l6.048-3.492a.793.793 0 00.36-.627v-.468c0-.231-.159-.324-.36-.21l-6.048 3.492a.796.796 0 00-.36.627z" fill="#E0E0E0"/><path d="M101.682 54.768l6.27-3.621c.3-.168.522-.033.522.3v7.242a1.157 1.157 0 01-.522.9l-6.27 3.621c-.3.165-.522.03-.522-.3v-7.242a1.145 1.145 0 01.522-.9z" fill="#FAFAFA"/><path d="M101.448 63.429a.418.418 0 01-.21-.054.511.511 0 01-.228-.465v-7.242a1.301 1.301 0 01.6-1.032l6.27-3.621a.463.463 0 01.705.163.47.47 0 01.042.269v7.242a1.29 1.29 0 01-.6 1.029l-6.27 3.621a.626.626 0 01-.309.09zm.3-8.532a.996.996 0 00-.447.771v7.242a.23.23 0 00.014.113.23.23 0 00.064.094.232.232 0 00.219-.039l6.27-3.621a.987.987 0 00.447-.768v-7.242a.174.174 0 00-.3-.171l-6.267 3.621z" fill="#EBEBEB"/><path d="M108.69 52.125l-1.398.807a1.148 1.148 0 00-.519.9v1.614c0 .33.234.465.519.3l1.398-.807a1.161 1.161 0 00.522-.9v-1.614c0-.333-.237-.468-.522-.3z" fill="#459AE9"/><path d="M102.159 55.548l3.141-1.8c.144-.084.261 0 .261.15V54a.565.565 0 01-.261.45l-3.141 1.8c-.144.084-.261.015-.261-.15v-.105a.585.585 0 01.077-.255.588.588 0 01.184-.192zm0 1.407l3.141-1.8c.144-.081.261 0 .261.15v.102a.58.58 0 01-.261.45l-3.141 1.8c-.144.084-.261.018-.261-.15v-.102a.578.578 0 01.261-.45zm0 1.404l3.141-1.8c.144-.084.261 0 .261.15v.099a.566.566 0 01-.261.45l-3.141 1.8c-.144.081-.261.015-.261-.15V58.8a.569.569 0 01.261-.441zm0 1.407l5.22-3c.144-.084.261-.015.261.15V57a.578.578 0 01-.261.45l-5.22 3c-.144.084-.261.015-.261-.15v-.102a.563.563 0 01.261-.432zm0 1.404l5.22-3c.144-.081.261-.015.261.15v.102a.58.58 0 01-.261.45l-5.22 3c-.144.081-.261.015-.261-.15v-.105a.585.585 0 01.077-.255.588.588 0 01.184-.192z" fill="#EBEBEB"/><path d="M90.561 86.349v.471c0 .228.162.321.363.207l6.051-3.492a.791.791 0 00.363-.624v-.471c0-.228-.162-.321-.363-.207l-6.045 3.492a.793.793 0 00-.369.624z" fill="#E0E0E0"/><path d="M90.714 76.044l6.26-3.621c.286-.165.52-.03.52.3v7.242a1.156 1.156 0 01-.52.9l-6.272 3.621c-.3.165-.52.033-.52-.3v-7.242a1.145 1.145 0 01.532-.9z" fill="#FAFAFA"/><path d="M90.48 84.708a.42.42 0 01-.21-.054.515.515 0 01-.225-.468v-7.242a1.295 1.295 0 01.6-1.029l6.267-3.615a.465.465 0 01.744.429v7.242a1.296 1.296 0 01-.6 1.029l-6.273 3.621a.633.633 0 01-.303.087zm6.738-12.207a.327.327 0 00-.156.051l-6.273 3.624a.988.988 0 00-.444.768v7.242a.174.174 0 00.3.171l6.273-3.621a1.005 1.005 0 00.444-.771v-7.242a.24.24 0 00-.078-.207.126.126 0 00-.066-.015z" fill="#EBEBEB"/><path d="M97.725 73.401l-1.398.807a1.15 1.15 0 00-.522.9v1.614c0 .333.234.465.522.3l1.398-.807a1.148 1.148 0 00.519-.9v-1.614c0-.33-.234-.465-.52-.3z" fill="#459AE9"/><path d="M91.19 76.827l3.145-1.8c.14-.081.258-.015.258.15v.102a.581.581 0 01-.258.45l-3.144 1.8c-.144.084-.261.018-.258-.15v-.102a.57.57 0 01.258-.45zm0 1.404l3.145-1.8c.14-.084.258-.015.258.15v.099a.575.575 0 01-.258.45l-3.144 1.8c-.144.081-.261.015-.258-.15v-.105a.573.573 0 01.258-.444zm0 1.407l3.145-1.8c.14-.081.258-.015.258.15v.102a.581.581 0 01-.258.45l-3.144 1.8c-.144.084-.261.015-.258-.15v-.09a.564.564 0 01.258-.462zm0 1.404l5.22-3c.145-.081.262-.015.262.15v.108a.575.575 0 01-.261.45l-5.22 3c-.144.081-.261.015-.258-.15v-.105a.573.573 0 01.258-.453zm0 1.407l5.22-3c.145-.084.262-.018.262.15v.099a.575.575 0 01-.261.45l-5.22 3c-.144.084-.261.015-.258-.15v-.102a.563.563 0 01.258-.447z" fill="#EBEBEB"/><path d="M101.529 80.016v.471c0 .231.162.324.36.207l6.048-3.489a.793.793 0 00.36-.627v-.468c0-.231-.159-.324-.36-.21l-6.048 3.492a.814.814 0 00-.36.624z" fill="#E0E0E0"/><path d="M101.682 69.714l6.27-3.621c.3-.168.522-.033.522.3v7.239a1.145 1.145 0 01-.522.9l-6.27 3.624c-.3.165-.522.03-.522-.3v-7.242a1.145 1.145 0 01.522-.9z" fill="#FAFAFA"/><path d="M101.448 78.375a.418.418 0 01-.21-.054.511.511 0 01-.228-.465v-7.242a1.29 1.29 0 01.6-1.032l6.27-3.621a.463.463 0 01.705.163.47.47 0 01.042.269v7.239a1.29 1.29 0 01-.6 1.032l-6.27 3.636a.627.627 0 01-.309.075zm.3-8.532a.996.996 0 00-.447.771v7.242a.225.225 0 00.078.204.23.23 0 00.219-.036l6.279-3.624a.992.992 0 00.447-.771v-7.236a.174.174 0 00-.3-.171l-6.276 3.621z" fill="#EBEBEB"/><path d="M108.69 67.071l-1.398.807a1.148 1.148 0 00-.519.9v1.614c0 .33.234.465.519.3l1.398-.807a1.161 1.161 0 00.522-.9v-1.614c0-.333-.237-.471-.522-.3z" fill="#459AE9"/><path d="M102.159 70.5l3.141-1.8c.144-.084.261-.015.261.15v.099a.566.566 0 01-.261.45l-3.141 1.8c-.144.081-.261 0-.261-.15v-.105a.579.579 0 01.261-.444zm0 1.401l3.141-1.8c.144-.081.261 0 .261.15v.102a.58.58 0 01-.261.45l-3.141 1.8c-.144.084-.261.015-.261-.15v-.102a.565.565 0 01.261-.45zm0 1.404l3.141-1.8c.144-.084.261-.018.261.15v.099a.58.58 0 01-.261.45l-3.141 1.8c-.144.081-.261.015-.261-.15v-.105a.579.579 0 01.261-.444zm0 1.395l5.22-3c.144-.084.261-.018.261.15v.099a.58.58 0 01-.261.45l-5.22 3c-.144.084-.261.015-.261-.15v-.102a.572.572 0 01.261-.447zm0 1.416l5.22-3c.144-.084.261-.015.261.15v.099a.565.565 0 01-.261.45l-5.22 3c-.144.081-.261.015-.261-.15v-.105a.579.579 0 01.261-.444z" fill="#EBEBEB"/><path d="M68.145 99.3v.468c0 .231.162.324.363.21l6.045-3.492a.795.795 0 00.363-.624V95.4c0-.231-.162-.324-.363-.207l-6.045 3.489a.802.802 0 00-.363.618z" fill="#E0E0E0"/><path d="M68.298 88.995l6.273-3.621c.3-.165.52-.033.52.3v7.242a1.158 1.158 0 01-.52.9l-6.273 3.621c-.3.165-.519.03-.519-.3v-7.242a1.143 1.143 0 01.52-.9z" fill="#FAFAFA"/><path d="M68.064 97.656a.42.42 0 01-.21-.054.51.51 0 01-.225-.465v-7.242a1.296 1.296 0 01.6-1.029l6.273-3.621a.462.462 0 01.744.429v7.242a1.295 1.295 0 01-.6 1.029l-6.273 3.621a.627.627 0 01-.31.09zm.309-8.532a.995.995 0 00-.444.771v7.242a.175.175 0 00.196.237.173.173 0 00.104-.066l6.273-3.624a.999.999 0 00.444-.768v-7.242a.174.174 0 00-.3-.171l-6.273 3.621z" fill="#EBEBEB"/><path d="M75.309 86.352l-1.398.807a1.146 1.146 0 00-.522.9v1.614c0 .33.234.465.522.3l1.398-.807a1.155 1.155 0 00.519-.9v-1.614c0-.333-.234-.465-.52-.3z" fill="#459AE9"/><path d="M68.775 89.778l3.144-1.8c.14-.084.258-.015.258.15v.099a.572.572 0 01-.258.45l-3.144 1.8c-.144.084-.258 0-.258-.15v-.102a.564.564 0 01.258-.447zm0 1.404l3.144-1.8c.14-.081.258-.015.258.153v.099a.581.581 0 01-.258.45l-3.144 1.8c-.144.081-.258 0-.258-.15v-.105a.574.574 0 01.258-.447zm0 1.407l3.144-1.8c.14-.084.258-.015.258.15v.099a.572.572 0 01-.258.45L68.775 93.3c-.144.084-.258 0-.258-.15v-.105a.565.565 0 01.258-.456zm0 1.404l5.22-3c.144-.084.26 0 .26.15v.099a.567.567 0 01-.26.45l-5.22 3c-.144.084-.258.018-.258-.15v-.102a.574.574 0 01.258-.447zm0 1.407l5.22-3c.144-.081.26 0 .26.15v.102a.574.574 0 01-.26.45l-5.22 3c-.144.081-.258.015-.258-.15v-.105a.574.574 0 01.258-.447z" fill="#EBEBEB"/><path d="M79.113 92.967v.471c0 .228.162.324.36.207l6.048-3.492a.786.786 0 00.36-.624v-.468c0-.231-.159-.324-.36-.21l-6.048 3.492a.802.802 0 00-.36.624z" fill="#E0E0E0"/><path d="M79.275 82.662l6.27-3.621c.3-.165.522-.03.522.3v7.242a1.145 1.145 0 01-.522.9l-6.27 3.621c-.3.168-.522.033-.522-.3v-7.242a1.156 1.156 0 01.522-.9z" fill="#FAFAFA"/><path d="M79.032 91.326a.42.42 0 01-.21-.054.519.519 0 01-.228-.468v-7.242a1.299 1.299 0 01.6-1.029L85.46 78.9a.464.464 0 01.747.429v7.242a1.287 1.287 0 01-.6 1.029l-6.27 3.624a.627.627 0 01-.306.102zm6.738-12.204a.3.3 0 00-.16.051L79.34 82.8a.992.992 0 00-.446.768v7.242a.231.231 0 00.078.207.24.24 0 00.219-.036l6.27-3.621a.999.999 0 00.447-.771v-7.248a.24.24 0 00-.078-.207.136.136 0 00-.06-.012z" fill="#EBEBEB"/><path d="M86.274 80.019l-1.398.807a1.158 1.158 0 00-.52.9v1.614c0 .333.235.468.52.3l1.398-.807a1.146 1.146 0 00.522-.9v-1.614c0-.33-.234-.465-.522-.3z" fill="#459AE9"/><path d="M79.743 83.445l3.14-1.8c.145-.081.262-.015.262.153v.102a.575.575 0 01-.261.45l-3.141 1.8c-.144.081-.261.015-.261-.153v-.102a.577.577 0 01.26-.45zm0 1.407l3.14-1.8c.145-.084.262-.015.262.15v.099a.567.567 0 01-.261.45l-3.141 1.8c-.144.084-.261.015-.261-.15v-.105a.567.567 0 01.26-.444zm0 1.404l3.14-1.8c.145-.081.262-.015.262.15v.102a.574.574 0 01-.261.45l-3.141 1.8c-.144.084-.261.018-.261-.15V86.7a.577.577 0 01.26-.444zm0 1.404l5.22-3c.144-.081.26-.015.26.15v.09a.575.575 0 01-.26.45l-5.22 3c-.144.081-.261.015-.261-.15v-.105a.575.575 0 01.26-.435zm0 1.407l5.22-3c.144-.084.26-.015.26.15v.099a.572.572 0 01-.26.45l-5.22 3c-.144.084-.261 0-.261-.15v-.102a.568.568 0 01.26-.447z" fill="#EBEBEB"/><path d="M50.718 60.573l-1.218-.711v5.631l1.218.705v-5.625z" fill="#459AE9"/><path opacity=".1" d="M50.718 60.573l-1.218-.711v5.631l1.218.705v-5.625z" fill="#000"/><path d="M122.694 83.841a.869.869 0 00-.864.084 2.705 2.705 0 00-1.224 2.1.866.866 0 00.354.792l15.186 9.6c.3.21.753.198 1.248-.087a3.765 3.765 0 001.713-2.949c0-.57-.21-.963-.546-1.128l-15.867-8.412z" fill="#459AE9"/><path opacity=".15" d="M120.606 86.037c0 .777.543 1.095 1.218.708a2.705 2.705 0 001.224-2.1c0-.777-.543-1.095-1.218-.708a2.705 2.705 0 00-1.224 2.1z" fill="#000"/><path d="M117.246 81.822a1.637 1.637 0 00-.741 1.278.52.52 0 00.213.477l4.584 2.661a.512.512 0 00.519-.051 1.613 1.613 0 00.744-1.287.513.513 0 00-.213-.48l-4.584-2.661a.52.52 0 00-.522.063z" fill="#263238"/><path opacity=".1" d="M122.397 86.247l15.624 9.6a2.999 2.999 0 01-.624.495c-.495.285-.939.3-1.251.087l-15.183-9.6a.856.856 0 00.861-.084c.218-.132.412-.3.573-.498z" fill="#000"/><path d="M125.019 72.579c0-.129 0-.252-.018-.378s-.015-.249-.03-.372-.015-.162-.024-.243a9.576 9.576 0 00-.087-.627c-.018-.09-.033-.186-.051-.276l-.054-.258a10.543 10.543 0 00-.174-.675c-.036-.102-.066-.207-.102-.3a.404.404 0 01-.015-.048c-.039-.102-.072-.198-.111-.3a3.212 3.212 0 00-.138-.324 2.438 2.438 0 00-.111-.231.831.831 0 00-.081-.162 2.408 2.408 0 00-.102-.195l-.027-.045c-.03-.057-.066-.111-.099-.168-.033-.057-.048-.072-.069-.108a6 6 0 00-.54-.72c-.036-.036-.069-.075-.102-.111l-.084-.09-.111-.108a3.25 3.25 0 00-.327-.3 1.631 1.631 0 00-.165-.129 2.325 2.325 0 00-.174-.126 2.717 2.717 0 00-.279-.183l-.075-.048h-.015l-3.3-1.917-.024-.015a5.594 5.594 0 00-2.796-.708c-1.458 0-3.102.48-4.845 1.485-6 3.456-10.842 11.862-10.842 18.78 0 3.447 1.2 5.871 3.156 7.008h.018l3.3 1.914h.018l.054.03a5.317 5.317 0 00.585.279c.111.045.198.078.3.108.053.02.107.036.162.048.055.022.113.04.171.051l.177.045c.042.012.086.02.129.027l.234.042h.054l.282.036c1.617.171 3.495-.285 5.505-1.443 6-3.459 10.842-11.868 10.842-18.78-.006-.144-.009-.3-.015-.465zm-7.263-4.89c.235.86.35 1.749.342 2.64 0 6.099-4.464 13.827-9.744 16.875a9.424 9.424 0 01-2.472 1.029 9.708 9.708 0 01-.342-2.643c0-6.099 4.461-13.827 9.744-16.875a9.369 9.369 0 012.472-1.026z" fill="#459AE9"/><path opacity=".1" d="M106.365 92.526l-3.18-1.842c-1.95-1.14-3.156-3.567-3.156-7.008 0-3.084.966-6.462 2.565-9.567l3.3 1.917c-1.602 3.102-2.568 6.483-2.568 9.567.012 3.372 1.149 5.763 3.039 6.933z" fill="#000"/><path opacity=".4" d="M125.019 72.579c0-.129 0-.252-.018-.378s-.015-.249-.03-.372-.015-.162-.024-.243a9.576 9.576 0 00-.087-.627c-.018-.09-.033-.186-.051-.276l-.054-.258a10.543 10.543 0 00-.174-.675c-.036-.102-.066-.207-.102-.3a.404.404 0 01-.015-.048c-.039-.102-.072-.198-.111-.3a3.746 3.746 0 00-.138-.324 2.438 2.438 0 00-.111-.231.961.961 0 00-.081-.162 2.408 2.408 0 00-.102-.195l-.027-.045c-.03-.057-.066-.111-.099-.168-.033-.057-.048-.072-.069-.108a6 6 0 00-.54-.72c-.036-.036-.069-.075-.102-.111l-.084-.09-.111-.108a3.25 3.25 0 00-.327-.3 1.751 1.751 0 00-.165-.129 2.325 2.325 0 00-.174-.126 2.717 2.717 0 00-.279-.183c-1.968-1.2-4.8-1.17-7.758.699-5.943 3.744-10.815 12.045-10.845 18.78-.015 3.504 1.242 5.949 3.249 7.062a5.317 5.317 0 00.585.279c.111.045.198.078.3.108.053.02.107.036.162.048a.91.91 0 00.171.051l.177.045c.042.012.085.02.129.027l.234.042h.054l.282.036c1.617.171 3.495-.285 5.505-1.443 6-3.459 10.842-11.868 10.842-18.78-.003-.156-.006-.312-.012-.477zm-11.934 17.37c-1.344.777-2.637 1.185-3.744 1.185-2.076 0-3.03-1.416-3.459-2.901a9.708 9.708 0 01-.342-2.643c0-6.099 4.461-13.827 9.744-16.875a9.369 9.369 0 012.472-1.026 5.543 5.543 0 011.272-.159c3.432 0 3.798 3.876 3.798 5.544 0 6.099-4.458 13.827-9.741 16.875z" fill="#fff"/><path opacity=".1" d="M122.826 73.074c0 6.096-4.458 13.827-9.741 16.875-1.344.777-2.637 1.185-3.741 1.185a3.178 3.178 0 01-2.553-1.119c-.054-.063-.105-.129-.156-.195a1.935 1.935 0 01-.141-.207 1.54 1.54 0 01-.093-.153 1.741 1.741 0 01-.06-.099c-.018-.033-.042-.084-.066-.126-.024-.042-.039-.078-.057-.117-.018-.039-.039-.078-.057-.12l-.09-.216a4.22 4.22 0 01-.099-.273c-.03-.093-.063-.183-.087-.276a9.424 9.424 0 002.472-1.029c5.28-3.048 9.744-10.776 9.744-16.875a9.687 9.687 0 00-.342-2.64 5.543 5.543 0 011.272-.159c.167 0 .335.01.501.03l.156.024c2.817.468 3.138 3.936 3.138 5.49z" fill="#000"/><path opacity=".7" d="M120.93 72c0 6.099-4.458 13.827-9.741 16.875-1.344.777-2.637 1.2-3.744 1.2-.22 0-.44-.017-.657-.054-.054-.063-.105-.129-.156-.195a1.935 1.935 0 01-.141-.207 1.54 1.54 0 01-.093-.153 1.741 1.741 0 01-.06-.099c-.018-.033-.042-.084-.066-.126-.024-.042-.039-.078-.057-.117-.018-.039-.039-.078-.057-.12l-.09-.216a4.22 4.22 0 01-.099-.273c-.03-.093-.063-.183-.087-.276a9.424 9.424 0 002.472-1.029c5.28-3.048 9.744-10.776 9.744-16.875a9.687 9.687 0 00-.342-2.64 5.55 5.55 0 011.272-.159c.168 0 .335.01.501.03l.156.024c1.086 1.272 1.245 3.321 1.245 4.41z" fill="#fff"/></svg>