<svg width="151" height="150" fill="none" xmlns="http://www.w3.org/2000/svg"><path d="M74.964 145.563c37.667 0 68.202-18.283 68.202-40.836 0-22.553-30.535-40.836-68.202-40.836S6.762 82.174 6.762 104.727c0 22.553 30.535 40.836 68.202 40.836z" fill="#F5F5F5"/><path d="M116.055 106.185c11.432 0 20.7-5.351 20.7-11.952 0-6.6-9.268-11.952-20.7-11.952-11.432 0-20.7 5.351-20.7 11.952s9.268 11.952 20.7 11.952zm-6.183 28.878c3.493 0 6.324-1.635 6.324-3.651s-2.831-3.651-6.324-3.651-6.324 1.635-6.324 3.651 2.831 3.651 6.324 3.651zm-78.663-23.55c11.432 0 20.7-5.351 20.7-11.952 0-6.6-9.268-11.952-20.7-11.952-11.432 0-20.7 5.351-20.7 11.952s9.268 11.952 20.7 11.952z" fill="#E0E0E0"/><path d="M47.928 116.508c7.819 0 14.157-3.66 14.157-8.175 0-4.515-6.338-8.175-14.157-8.175s-14.157 3.66-14.157 8.175c0 4.515 6.338 8.175 14.157 8.175zm-10.353 9.102l-3.768 2.1a2.296 2.296 0 01-2.082 0l-16.467-9.51c-.573-.333-.573-.87 0-1.2l3.768-2.1a2.297 2.297 0 012.082 0l16.467 9.507c.576.333.576.87 0 1.203z" fill="#E0E0E0"/><path d="M102.375 129.798l25.59-14.751a.37.37 0 00.249-.351.37.37 0 00-.249-.351l-50.96-29.562a1.344 1.344 0 00-1.216 0L50.2 99.537a.369.369 0 000 .699l50.976 29.562a1.33 1.33 0 001.2 0z" fill="#E0E0E0"/><path d="M130.518 97.5c0 .112-.012.224-.036.333a.768.768 0 01-.3.468.874.874 0 01-.927-.072 2.807 2.807 0 01-1.29-2.229.895.895 0 01.36-.807l.06-.036a.792.792 0 01.543-.024c.11.034.215.08.315.138a2.822 2.822 0 011.275 2.229z" fill="#455A64"/><path d="M130.17 94.743a1.174 1.174 0 00-.57-.171.68.68 0 00-.357.099l-.033.018-.825.477a.792.792 0 01.543-.024c.11.034.215.08.315.138a2.815 2.815 0 011.275 2.208c0 .112-.012.224-.036.333a.767.767 0 01-.3.468l.843-.489h.015l.072-.045a.044.044 0 00.021-.015.926.926 0 00.3-.783 2.815 2.815 0 00-1.263-2.214z" fill="#263238"/><path d="M116.712 90.063c0 .112-.012.224-.036.333a.768.768 0 01-.3.468.903.903 0 01-.927-.072 2.807 2.807 0 01-.902-.953 2.806 2.806 0 01-.373-1.258.9.9 0 01.36-.81l.063-.036a.774.774 0 01.543-.021c.105.033.206.078.3.135a2.822 2.822 0 011.272 2.214z" fill="#455A64"/><path d="M116.361 87.321a1.139 1.139 0 00-.567-.174.672.672 0 00-.36.102l-.033.018-.822.474a.774.774 0 01.543-.021c.105.033.206.078.3.135a2.825 2.825 0 011.278 2.208c0 .112-.012.224-.036.333a.768.768 0 01-.3.468l.846-.489.072-.042h.024a.95.95 0 00.3-.786 2.825 2.825 0 00-1.245-2.226z" fill="#263238"/><path d="M119.175 100.386a1.46 1.46 0 00.036.336.76.76 0 00.3.465.9.9 0 00.927-.072 2.82 2.82 0 001.278-2.211.895.895 0 00-.36-.81l-.063-.036a.789.789 0 00-.543-.021 1.425 1.425 0 00-.3.135 2.82 2.82 0 00-1.275 2.214z" fill="#455A64"/><path d="M119.523 97.644a1.14 1.14 0 01.567-.174.664.664 0 01.36.102l.033.018.822.474a.789.789 0 00-.543-.021 1.425 1.425 0 00-.3.135 2.824 2.824 0 00-1.275 2.208 1.46 1.46 0 00.036.336.76.76 0 00.3.465l-.843-.489h-.015l-.072-.042-.021-.015a.94.94 0 01-.315-.783 2.817 2.817 0 011.266-2.214z" fill="#263238"/><path d="M110.211 96c0 .112.012.224.036.333a.767.767 0 00.3.468.878.878 0 00.93-.072 2.831 2.831 0 001.275-2.211.906.906 0 00-.36-.807l-.06-.036a.792.792 0 00-.543-.024 1.467 1.467 0 00-.3.138 2.819 2.819 0 00-1.278 2.21z" fill="#455A64"/><path d="M110.559 93.252c.172-.105.368-.164.57-.171.127 0 .251.034.36.099l.03.018.825.477a.792.792 0 00-.543-.024 1.467 1.467 0 00-.3.138 2.814 2.814 0 00-1.278 2.208c0 .112.012.224.036.333a.767.767 0 00.3.468l-.855-.498h-.015l-.072-.045-.021-.015a.93.93 0 01-.3-.783 2.81 2.81 0 011.263-2.205z" fill="#263238"/><path d="M127.536 90.6c0 .112.012.224.036.333a.768.768 0 00.3.468.9.9 0 00.927-.072 2.82 2.82 0 001.278-2.211.9.9 0 00-.36-.81l-.06-.036a.774.774 0 00-.543-.021c-.11.032-.216.077-.315.135a2.823 2.823 0 00-1.263 2.214z" fill="#455A64"/><path d="M127.875 87.87a1.15 1.15 0 01.57-.174.656.656 0 01.357.102l.033.018.84.474a.775.775 0 00-.543-.021c-.11.032-.216.077-.315.135a2.829 2.829 0 00-1.275 2.208c0 .112.012.224.036.333a.767.767 0 00.3.468l-.846-.49h-.015l-.072-.044h-.021a.934.934 0 01-.3-.786 2.807 2.807 0 011.251-2.223z" fill="#263238"/><path d="M119.916 87.915l-4.557-1.308v.975l4.557 2.628v-2.295z" fill="#F0F0F0"/><path d="M119.916 87.915l.45-.276-4.569-1.248-.438.216 4.557 1.308z" fill="#FAFAFA"/><path d="M121.887 90.819l6.462-2.421v-.984l-6.462.576v2.829z" fill="#F0F0F0"/><path d="M128.349 87.414l-.474-.126-6.372.411.384.291 6.462-.576z" fill="#FAFAFA"/><path d="M122.061 90.507c0 .732-2.247.732-2.247 0V84.12h2.247v6.387z" fill="#FAFAFA"/><path d="M120.375 88.845l-1.236 8.022h.843l1.158-8.022c-.25.07-.515.07-.765 0z" fill="#FAFAFA"/><path d="M121.143 88.845v2.202l-1.158 7.179v-1.359l1.158-8.022z" fill="#F0F0F0"/><path d="M119.988 96.867h-.846v1.359h.846v-1.36z" fill="#E0E0E0"/><path d="M121.527 90.98l8.331 4.369v-1.344l-8.331-5.154v2.13z" fill="#F0F0F0"/><path d="M121.527 88.85a.92.92 0 00.534-.242l8.316 5.046-.519.35-8.331-5.153z" fill="#FAFAFA"/><path d="M129.858 95.349v-1.344l.519-.351v1.302l-.519.393z" fill="#E0E0E0"/><path d="M111.024 93.807l8.901-3.048v-1.998l-8.901 3.702v1.344z" fill="#F0F0F0"/><path d="M119.925 88.761c-.075-.021-.105-.15-.111-.345l-9.039 3.939.264.108 8.886-3.702z" fill="#FAFAFA"/><path d="M110.76 92.355v1.299l.264.153v-1.344l-.264-.108z" fill="#E0E0E0"/><path opacity=".1" d="M119.988 96.867h-.846v1.359h.846v-1.36zm9.87-1.518v-1.344l.519-.351v1.302l-.519.393z" fill="#F0F0F0"/><path opacity=".1" d="M110.76 92.355v1.299l.264.153v-1.344l-.264-.108z" fill="#000"/><path d="M119.034 72.99h3.807v13.176c0 1.092-3.807 1.092-3.807 0V72.99z" fill="#F0F0F0"/><path d="M134.433 71.163l-14.583-7.614s-1.023-4.99 2.43-10.425c0 0-1.026-9.687.699-12.9 1.26-2.46 2.775-2.124 2.775-2.124l16.557 7.479-7.878 25.584z" fill="#459AE9"/><path opacity=".1" d="M134.433 71.163l-14.583-7.614s-1.023-4.99 2.43-10.425c0 0-1.026-9.687.699-12.9 1.26-2.46 2.775-2.124 2.775-2.124l16.557 7.479-7.878 25.584z" fill="#000"/><path d="M125.754 38.1l16.557 7.479-.543 1.767-18.111-8.178c1.068-1.302 2.097-1.068 2.097-1.068zm-22.566 31.659v.804a2.904 2.904 0 001.419 2.349l16.254 8.532a3.242 3.242 0 002.808-.057l9.375-5.4a3.077 3.077 0 001.389-2.4v-.801a2.902 2.902 0 00-1.422-2.346l-15.384-8.04a3.534 3.534 0 00-2.856-.024l-10.152 5.064a2.835 2.835 0 00-1.431 2.319z" fill="#459AE9"/><path opacity=".1" d="M103.188 69.759v.804a2.904 2.904 0 001.419 2.349l16.254 8.532a3.242 3.242 0 002.808-.057l9.375-5.4a3.077 3.077 0 001.389-2.4v-.801a2.902 2.902 0 00-1.422-2.346l-15.384-8.04a3.534 3.534 0 00-2.856-.024l-10.152 5.064a2.835 2.835 0 00-1.431 2.319z" fill="#000"/><path d="M120.861 77.436L104.607 68.9c-.786-.411-.78-1.065 0-1.461l10.152-5.08a3.538 3.538 0 012.856.025l15.384 8.037c.786.41.798 1.1.033 1.542l-9.357 5.415a3.246 3.246 0 01-2.814.057z" fill="#459AE9"/><path opacity=".2" d="M121.905 81.723a3.17 3.17 0 001.764-.336l9.375-5.4a3.073 3.073 0 001.386-2.4v-.807a2.926 2.926 0 00-1.218-2.22c.579.417.525 1.02-.168 1.419l-9.369 5.4a3 3 0 01-1.434.345l-.336 3.999z" fill="#000"/><path d="M125.754 38.1s-2.4-1.623-4.926-.162c-2.526 1.461-1.692 6.366-1.422 9.528.27 3.162.36 8.673-1.854 10.68-2.214 2.007-9.465-.66-12.63-.66l2.79 10.287c3.078-1.677 7.998-3.396 12.138-4.2 0 0-.135-6.414 2.805-10.08 0 0-1.083-2.565-.375-7.704.657-4.782 1.545-6.585 3.474-7.689z" fill="#459AE9"/><path opacity=".2" d="M125.754 38.1s-2.4-1.623-4.926-.162c-2.526 1.461-1.692 6.366-1.422 9.528.27 3.162.36 8.673-1.854 10.68-2.214 2.007-9.465-.66-12.63-.66l2.79 10.287c3.078-1.677 7.998-3.396 12.138-4.2 0 0-.135-6.414 2.805-10.08 0 0-1.083-2.565-.375-7.704.657-4.782 1.545-6.585 3.474-7.689z" fill="#000"/><path d="M107.712 67.764c.144-.921.726-6.213-.261-8.52-.858-2.004-3.111-2.121-3.822-1.263-.711.858-.075 1.902 1.053 3.372.951 1.242 1.296 2.4 1.296 5.4l1.734 1.01z" fill="#459AE9"/><path opacity=".1" d="M107.712 67.764c.144-.921.726-6.213-.261-8.52-.858-2.004-3.111-2.121-3.822-1.263-.711.858-.075 1.902 1.053 3.372.951 1.242 1.296 2.4 1.296 5.4l1.734 1.01z" fill="#000"/><path d="M116.697 43.638c-1.2 1.2-7.392 7.767-7.392 7.767l-4.38-4.392c-1.038-1.041-1.2-2.25-1.824-3.147-.624-.897-1.365-1.2-2.076-1.971-.711-.771-.957-1.33-1.305-.79s.408 1.663.531 1.927c.123.264.957.957-.246.753-1.203-.204-3.34-1.893-3.87-2.22-.531-.327-.63.366-.426.855.204.489-.084 1.743.12 2.598.204.855.69 1.422 1.73 2.118.967.645 3.448 1.29 4.201 1.914 1.56 2.07 4.5 5.943 5.286 6.69 1.071 1.026 1.956 1.692 3.981.189s8.283-7.365 8.283-7.365l1.911-6.342c-1.773-.31-3.081-.045-4.524 1.416z" fill="#FFA8A7"/><path d="M121.125 42.207c-1.938-.582-2.724-.438-3.6.15-.876.588-1.302 1.677-4.299 4.749-2.286 2.343-3.9 4.005-3.9 4.005l-2.982-2.664a6.648 6.648 0 01-3.018 2.685s1.608 2.331 2.883 3.9 2.196 2.115 2.568 2.175c.372.06 1.236-.273 3.861-2.4s9.144-8.148 9.144-8.148l-.657-4.452z" fill="#459AE9"/><path opacity=".85" d="M121.125 42.207c-1.938-.582-2.724-.438-3.6.15-.876.588-1.302 1.677-4.299 4.749-2.286 2.343-3.9 4.005-3.9 4.005l-2.982-2.664a6.648 6.648 0 01-3.018 2.685s1.608 2.331 2.883 3.9 2.196 2.115 2.568 2.175c.372.06 1.236-.273 3.861-2.4s9.144-8.148 9.144-8.148l-.657-4.452z" fill="#fff"/><path d="M121.842 26.817l.036.024c1.671 1.077 3.576 1.41 5.073 2.814 1.497 1.404 2.211 3.159 1.983 4.962-.405 3.195-2.1 4.5-3.144 6.033-.042.06-1.713 1.098-1.782 1.101l-1.089.048c-.264 0-.6.153-.849.072-.333-.105-.579-.546-.777-.807a10.49 10.49 0 00-2.649-2.4c-.435-.3-.738-.9-.942-1.383a5.115 5.115 0 01-.405-1.641.665.665 0 00-.422-.78.658.658 0 00-.319-.03 3.413 3.413 0 01-1.626-.564 2.306 2.306 0 01-.96-1.404 1.799 1.799 0 01.693-1.8 1.977 1.977 0 01-.056-2.26 1.98 1.98 0 012.102-.83c-.324-.726.072-1.638.75-2.058a2.84 2.84 0 012.31-.183c.737.265 1.435.63 2.073 1.086zm-7.383 54.117c1.272-.216 2.4.768 2.52 1.092.156.438.141 1.335-.342 2.46a7.66 7.66 0 00-.444 3.498c.129 1.008.699 3.516-.276 4.818-.975 1.302-3.204 2.49-4.071.78-.282-.558.18-2.544.366-3.99.369-2.877.633-5.733.633-5.733l1.614-2.925z" fill="#263238"/><path d="M114.939 83.205a27.8 27.8 0 00-.177 4.2c.078 1.536-.21 2.556-.717 3.258-.558.777-2.007 1.251-1.887-.336.081-1.104.687-6.477.687-6.477l2.094-.645z" fill="#FFA8A7"/><path opacity=".15" d="M116.535 81.537c.093.942-.327 3.47-1.533 5.619-1.206 2.148-2.937 4.596-3.234 6.078-.057-.675.183-1.923.354-3.03v-.075c0-.027.018-.126.03-.19.012-.062 0-.06 0-.09 0-.08.021-.161.033-.242v-.015c.114-.9.219-1.8.3-2.604.075-.648.135-1.24.186-1.728.024-.243.048-.462.066-.651 0-.096.018-.18.027-.258.03-.315.045-.492.045-.492l1.614-2.925a2.5 2.5 0 01.246-.027c.677-.02 1.34.203 1.866.63z" fill="#000"/><path d="M108.612 65.565c4.044-2.565 9.063-4.065 9.063-4.065l4.395 3.216-4.224 4.029-5.421 3.93s-1.062-.051-.36 1.581c.222.519.567 1.56.933 2.736l-2.346 7.17s-1.464-2.421-3.621-6.837c-2.004-4.104-2.541-6.846-2.382-7.773.189-1.209.69-1.908 3.963-3.987z" fill="#37474F"/><path d="M118.389 66.738l.522-.393c-1.476-.705-1.98-2.433-1.98-2.433a4.407 4.407 0 001.101 2.628c-.372.234-5.742 3.618-6.726 4.8s-1.65 1.611-1.686 4.374c-.03 2.334-.222 6.417-.222 6.417l7.113-9.42 3.021-5.259-1.143-.714zm-6.297 26.469c.3-.03.348.501.561 1.17.255.642.313 1.347.165 2.022-.228.861-1.572 1.08-2.196 2.235-.624 1.155-1.5 3.222-3.876 3.981-2.376.759-4.287.147-4.8-.525-.513-.672-.192-1.398 1.266-2.436 1.545-1.104 1.98-1.428 1.98-1.428l6.9-5.019z" fill="#263238"/><path d="M108.729 89.292a36.844 36.844 0 01-1.074 4.254c-.558 1.554-1.536 3.072-2.646 4.5-.243.3-.801.9-.999 1.152a.47.47 0 00.09.717c.555.474 2.796.471 3.999-.537 1.203-1.008 2.232-3.072 2.94-3.867.264-.3.513-.6.747-.927a1.57 1.57 0 00.327-1.02c-.072-.48-.067-.97.015-1.449.126-.639.289-1.27.489-1.89l-3.888-.933z" fill="#FFA8A7"/><path d="M129.231 58.956c1.8 2.817 2.1 6.393 1.476 8.205-.831 2.472-1.8 3.6-5.1 5.772-2.724 1.8-6.552 2.955-7.371 3.375-.819.42-1.068 1.356-1.404 3.02-.318 1.582-.699 4.135-2.301 7.522-1.692 3.579-2.148 4.635-2.148 4.635s-2.238.972-4.053-.618c0 0 1.902-14.89 2.502-17.025.6-2.136 9.15-8.283 9.15-8.283s-1.275-3.414-2.034-5.8l11.283-.803z" fill="#37474F"/><path d="M130.17 59.607a8.052 8.052 0 01-.6-1.596c-.501-2.1.378-4.245.804-6.363.258-1.283.351-2.594.276-3.9-.057-1.002 0-2.7-.945-3.27a6.043 6.043 0 00-1.065-.456l-2.883-1.074s-2.871-.501-4.398-.702c-.84-.114-1.353.162-2.328 1.134-.975.972-2.844 3.204-3.531 5.064a4.124 4.124 0 001.821 4.881c.195 1.281.336 3.708.405 4.737s-.639 2.772-.858 3.549c.72 1.8 2.904 3.531 7.089 3.9 1.093.098 2.193.088 3.285-.03 1.254-.144 3.771-1.128 4.005-1.722a7.285 7.285 0 00-.234-1.668 11.592 11.592 0 00-.843-2.484z" fill="#459AE9"/><path opacity=".75" d="M130.17 59.607a8.052 8.052 0 01-.6-1.596c-.501-2.1.378-4.245.804-6.363.258-1.283.351-2.594.276-3.9-.057-1.002 0-2.7-.945-3.27a6.043 6.043 0 00-1.065-.456l-2.883-1.074s-2.871-.501-4.398-.702c-.84-.114-1.353.162-2.328 1.134-.975.972-2.844 3.204-3.531 5.064a4.124 4.124 0 001.821 4.881c.195 1.281.336 3.708.405 4.737s-.639 2.772-.858 3.549c.72 1.8 2.904 3.531 7.089 3.9 1.093.098 2.193.088 3.285-.03 1.254-.144 3.771-1.128 4.005-1.722a7.285 7.285 0 00-.234-1.668 11.592 11.592 0 00-.843-2.484z" fill="#fff"/><path d="M120.375 53.829s1.125 1.452 3.426 1.245c2.376-.213 2.88-2.169 2.88-2.169s.045 2.577-2.793 2.832a3.414 3.414 0 01-3.513-1.908z" fill="#459AE9"/><path opacity=".05" d="M120.375 53.829s1.125 1.452 3.426 1.245c2.376-.213 2.88-2.169 2.88-2.169s.045 2.577-2.793 2.832a3.414 3.414 0 01-3.513-1.908z" fill="#000"/><path d="M117.876 30.174c-.768.453-1.722 2.382-1.635 6.432.072 3.432 1.185 4.28 1.743 4.527.558.246 2.013.033 3.063-.141l.171 2.442c-1.14 2.958-.966 4.464-1.2 6.435 0 0 1.596-2.7 3.243-4.218a30.6 30.6 0 012.7-2.277l-.33-5.157s.531.324 1.251-.231c.972-.744 1.122-2.1.345-2.796-.501-.459-1.86-.6-2.277.6 0 0-1.407-.126-3.627-1.353a7.178 7.178 0 01-3.447-4.263z" fill="#FFA8A7"/><path d="M124.95 37.005v-1.8h-1.152v.654a1.143 1.143 0 00.712 1.06c.139.057.289.086.44.086zm-4.491-1.254a.431.431 0 10.861.042.431.431 0 00-.24-.423.433.433 0 00-.165-.045.44.44 0 00-.456.426z" fill="#263238"/><path d="M120.18 38.592l-1.305.408a.666.666 0 00.587.502.67.67 0 00.271-.028.722.722 0 00.447-.882z" fill="#F28F8F"/><path d="M116.634 34.419l.876-.6a.516.516 0 00-.537-.232.509.509 0 00-.189.082.558.558 0 00-.15.75zm.201 1.014a.432.432 0 10.453-.426.434.434 0 00-.315.119.447.447 0 00-.138.307z" fill="#263238"/><path d="M119.232 35.19l-.075 2.598-1.368-.426 1.443-2.172zm1.815 5.802c1.284-.273 2.916-1.032 3.273-1.929a2.225 2.225 0 01-.72 1.452c-.681.582-2.511 1.11-2.511 1.11l-.042-.633z" fill="#F28F8F"/><path d="M104.319 52.518c.396-.06 2.001-1.017 2.496-2.079 0 0-.18 1.548-2.139 2.568l-.357-.489z" fill="#459AE9"/><path opacity=".05" d="M104.319 52.518c.396-.06 2.001-1.017 2.496-2.079 0 0-.18 1.548-2.139 2.568l-.357-.489z" fill="#000"/><path d="M135.036 75.672l-11.259 5.652.24-4.146-1.737-1.002c.126-3.216 1.008-6.516 3.282-7.245 2.847-.9 6.54-1.2 8.754-3.198 2.214-1.998 2.127-7.515 1.857-10.677-.27-3.162-1.104-8.07 1.422-9.528 2.526-1.458 4.923.162 4.923.162 1.08.702 2.334 1.2 2.229 2.058a.919.919 0 01-.768.867l-6.282 23.778a5.151 5.151 0 01-2.661 3.279z" fill="#459AE9"/><path d="M135.036 75.672l-11.259 5.652.24-4.146-1.737-1.002c.126-3.216 1.008-6.516 3.282-7.245 2.847-.9 6.54-1.2 8.754-3.198 2.214-1.998 2.127-7.515 1.857-10.677-.27-3.162-1.104-8.07 1.422-9.528 2.526-1.458 4.923.162 4.923.162 1.08.702 2.334 1.2 2.229 2.058a.919.919 0 01-.768.867l-6.282 23.778a5.151 5.151 0 01-2.661 3.279z" fill="#000" opacity=".3"/><path d="M139.248 48.459c-1.011 1.2-1.53 3.132-1.344 7.854.186 4.722.111 8.529-1.737 10.842-2.19 2.745-9.702 4.932-9.702 4.932l-2.934-1.344a3.69 3.69 0 012.031-1.8c2.847-.9 6.54-1.2 8.754-3.198 2.214-1.998 2.127-7.515 1.857-10.677-.27-3.162-1.107-8.07 1.422-9.528 2.529-1.458 4.923.162 4.923.162 1.08.702 2.334 1.2 2.229 2.058a.912.912 0 01-.768.867c-1.404-.474-3.72-1.377-4.731-.168z" fill="#459AE9"/><path d="M139.248 48.459c-1.011 1.2-1.53 3.132-1.344 7.854.186 4.722.111 8.529-1.737 10.842-2.19 2.745-9.702 4.932-9.702 4.932l-2.934-1.344a3.69 3.69 0 012.031-1.8c2.847-.9 6.54-1.2 8.754-3.198 2.214-1.998 2.127-7.515 1.857-10.677-.27-3.162-1.107-8.07 1.422-9.528 2.529-1.458 4.923.162 4.923.162 1.08.702 2.334 1.2 2.229 2.058a.912.912 0 01-.768.867c-1.404-.474-3.72-1.377-4.731-.168z" fill="#000" opacity=".2"/><path d="M124.017 77.178l-1.737-1.002c0-1.926.498-6.108 2.931-7.119 1.935-.801 2.868.378 2.847 1.104-.024.822-.615 1.362-1.593 1.926-1.29.744-2.448 2.085-2.448 5.091z" fill="#459AE9"/><path opacity=".1" d="M124.017 77.178l-1.737-1.002c0-1.926.498-6.108 2.931-7.119 1.935-.801 2.868.378 2.847 1.104-.024.822-.615 1.362-1.593 1.926-1.29.744-2.448 2.085-2.448 5.091z" fill="#000"/><path d="M135.774 58.947c-.501-2.016-1.707-7.5-2.781-11.61-.357-1.365-1.8-2.136-3.075-2.781-2.868 2.229-1.023 7.092-1.023 7.092l2.127 8.529-6.48 5.778c-.536.41-1.048.851-1.533 1.32a7.519 7.519 0 00-1.17 1.5c-.627 1.014-.798 2.139-.9 3.282a3.213 3.213 0 00.099 1.524c.194.422.507.778.9 1.026.327.234.807.627 1.236.531.774-.174.756-.975 1.02-1.965.264-.99.768-1.665 1.569-2.571.801-.906.426-2.202 1.689-3 0 0 4.728-2.76 6.993-4.305 2.4-1.638 1.668-2.997 1.329-4.35z" fill="#FFA8A7"/><path d="M129.552 44.349c.687.372 2.334.141 3.093 1.254.759 1.113.936 3.435 1.413 4.947s1.632 7.761 1.908 8.664c.276.903.9 2.745-1.182 4.014-1.866 1.14-4.989 3-4.989 3a2.548 2.548 0 00-.6-1.626c-.648-.753-1.95-1.038-1.95-1.038l3.63-3.435-2.013-7.929s-1.449-2.355-.666-4.971 1.356-2.88 1.356-2.88z" fill="#459AE9"/><path opacity=".85" d="M129.552 44.349c.687.372 2.334.141 3.093 1.254.759 1.113.936 3.435 1.413 4.947s1.632 7.761 1.908 8.664c.276.903.9 2.745-1.182 4.014-1.866 1.14-4.989 3-4.989 3a2.548 2.548 0 00-.6-1.626c-.648-.753-1.95-1.038-1.95-1.038l3.63-3.435-2.013-7.929s-1.449-2.355-.666-4.971 1.356-2.88 1.356-2.88z" fill="#fff"/><path d="M130.875 60.129c.765-.6 2.301-.51 3.114-.213 0 0-.822-1.161-3.396-.465l.282.678z" fill="#459AE9"/><path opacity=".05" d="M130.875 60.129c.765-.6 2.301-.51 3.114-.213 0 0-.822-1.161-3.396-.465l.282.678z" fill="#000"/><path d="M101.895 97.425l23.517-13.545-49.344-28.488-23.52 13.545 49.347 28.488z" fill="#459AE9"/><path opacity=".3" d="M101.895 97.425l23.517-13.545-49.344-28.488-23.52 13.545 49.347 28.488z" fill="#000"/><path d="M125.412 83.88v31.155l-1.419.819V92.862l-20.679 11.907v22.992l-1.419.819V97.425l23.517-13.545z" fill="#459AE9"/><path opacity=".5" d="M125.412 83.88v31.155l-1.419.819V92.862l-20.679 11.907v22.992l-1.419.819V97.425l23.517-13.545z" fill="#000"/><path d="M123.993 115.854l-1.419-.819V93.681l1.419-.82v22.993z" fill="#459AE9"/><path opacity=".6" d="M123.993 115.854l-1.419-.819V93.681l1.419-.82v22.993z" fill="#000"/><path d="M101.895 128.58l-1.422-.819v-22.992l-46.506-26.85v22.992l-1.419-.819V68.937l49.347 28.488v31.155z" fill="#459AE9"/><path opacity=".4" d="M101.895 128.58l-1.422-.819v-22.992l-46.506-26.85v22.992l-1.419-.819V68.937l49.347 28.488v31.155z" fill="#000"/><path d="M53.967 100.911l1.419-.819.003-21.354-1.422-.82v22.993z" fill="#459AE9"/><path d="M53.967 100.911l1.419-.819.003-21.354-1.422-.82v22.993z" fill="#000" opacity=".6"/><path d="M111.108 81.9l-10.449 6.033a.654.654 0 01-.6 0l-7.689-4.44a.177.177 0 010-.339l10.461-6.054a.656.656 0 01.6 0l7.689 4.44a.183.183 0 01.126.057.182.182 0 01-.068.292.185.185 0 01-.07.011z" fill="#000" opacity=".2"/><path d="M111.108 81.345l-10.449 6.033a.65.65 0 01-.6 0l-7.689-4.44c-.162-.096-.162-.246 0-.34l10.449-6.032a.64.64 0 01.6 0L111.108 81a.18.18 0 010 .345z" fill="#EBEBEB"/><path d="M103.419 76.566l7.302 4.2-10.062 5.808a.654.654 0 01-.6 0l-7.284-4.2 10.062-5.808a.636.636 0 01.582 0z" fill="#E0E0E0"/><path d="M111.108 80.283l-10.449 6.033a.657.657 0 01-.6 0l-7.689-4.44c-.165-.096-.165-.246 0-.342l10.449-6.033a.656.656 0 01.6 0l7.689 4.44a.184.184 0 01.09.065.182.182 0 010 .212.185.185 0 01-.09.065z" fill="#FAFAFA"/><path opacity=".2" d="M117.747 82.941l-7.743 4.473-1.323.27a.042.042 0 01-.023-.002.046.046 0 01-.018-.014.034.034 0 01-.008-.022.044.044 0 01.004-.022l.414-.759 7.746-4.476c.261-.15 1.158.432.951.552z" fill="#000"/><path d="M116.829 81.84a.775.775 0 00.357.615.3.3 0 00.204.045l-.039.03.084-.048h.015a.14.14 0 00.027-.054v-.033a.784.784 0 00-.354-.702.33.33 0 00-.159-.048h-.081l-.075.042h.039a.276.276 0 00-.018.153z" fill="#459AE9"/><path d="M109.461 85.926l.498.87.087-.048 7.305-4.218.039-.03a.298.298 0 00.063-.201.784.784 0 00-.354-.615.322.322 0 00-.159-.048h-.084l-7.395 4.29z" fill="#F0F0F0"/><path d="M109.71 85.95c-.195-.114-.354-.021-.354.204a.772.772 0 00.354.615c.198.114.357.021.357-.204a.787.787 0 00-.357-.615z" fill="#459AE9"/><path d="M108.948 86.478l.453-.498a.23.23 0 01.282 0 .783.783 0 01.357.615.228.228 0 01-.138.243h-.024l-.657.144a.167.167 0 01-.114-.024.447.447 0 01-.204-.351.156.156 0 01.045-.129z" fill="#E0E0E0"/><path d="M114.747 83.247a.093.093 0 01.081 0 .277.277 0 01.092.094.277.277 0 01.037.125.096.096 0 01-.006.041.08.08 0 01-.024.034h-.018l-5.4 3.114-.354-.204 5.592-3.204z" fill="#455A64"/><path d="M110.034 86.379l-.501.3-.354-.204.678-.393a.886.886 0 01.177.297z" fill="#37474F"/><path d="M108.768 86.715l.411-.453a.16.16 0 01.201 0 .541.541 0 01.252.432.161.161 0 01-.019.103.162.162 0 01-.077.071h-.021l-.6.132a.093.093 0 01-.066-.015.25.25 0 01-.114-.195.096.096 0 01.033-.075z" fill="#459AE9"/><path opacity=".1" d="M108.768 86.715l.411-.453a.16.16 0 01.201 0 .541.541 0 01.252.432.161.161 0 01-.019.103.162.162 0 01-.077.071h-.021l-.6.132a.093.093 0 01-.066-.015.25.25 0 01-.114-.195.096.096 0 01.033-.075z" fill="#000"/><path d="M108.747 86.781a.25.25 0 00.114.195.09.09 0 00.063.015l.3-.066c.048 0 .078-.054.078-.129a.39.39 0 00-.053-.179.396.396 0 00-.127-.136.118.118 0 00-.147 0l-.204.225a.095.095 0 00-.024.075z" fill="#459AE9"/><path opacity=".1" d="M108.861 86.715c-.063-.039-.114 0-.114.066a.25.25 0 00.114.195c.063.039.114 0 .114-.066a.244.244 0 00-.034-.111.24.24 0 00-.08-.084z" fill="#000"/><path d="M116.091 82.47a.098.098 0 01.09 0 .274.274 0 01.123.219.089.089 0 01-.006.046.09.09 0 01-.03.035l-1.326.765a.08.08 0 00.024-.034.096.096 0 00.006-.041.277.277 0 00-.037-.125.276.276 0 00-.092-.094.092.092 0 00-.081 0l1.329-.771z" fill="#FAFAFA"/><path d="M116.055 82.551a.275.275 0 00.126.219.091.091 0 00.087 0 .09.09 0 00.03-.035c.006-.015.008-.03.006-.046a.26.26 0 00-.035-.124.265.265 0 00-.088-.095.098.098 0 00-.09 0 .089.089 0 00-.036.081z" fill="#F5F5F5"/><path d="M116.334 82.014l.525-.3a.234.234 0 01.216.027.71.71 0 01.321.552.227.227 0 01-.096.207l-.531.3a.212.212 0 01-.219-.024.71.71 0 01-.321-.552.225.225 0 01.024-.12.225.225 0 01.081-.09z" fill="#459AE9"/><path opacity=".05" d="M116.334 82.014l.525-.3a.234.234 0 01.216.027.71.71 0 01.321.552.227.227 0 01-.096.207l-.531.3a.212.212 0 01-.219-.024.71.71 0 01-.321-.552.225.225 0 01.024-.12.225.225 0 01.081-.09z" fill="#000"/><path opacity=".1" d="M116.568 82.032c-.177-.102-.321-.018-.321.186a.71.71 0 00.321.552c.174.102.318.02.318-.183a.714.714 0 00-.318-.555z" fill="#000"/><path d="M108.603 86.904l.216-.129a.043.043 0 01.042 0 .125.125 0 01.057.102.034.034 0 01-.003.02.049.049 0 01-.012.016l-.216.132a.096.096 0 01-.042 0 .08.08 0 01-.057-.024.078.078 0 01-.024-.057.085.085 0 01.013-.034.072.072 0 01.026-.026z" fill="#455A64"/><path d="M108.588 86.913a.057.057 0 01.036 0 .144.144 0 01.042.044.15.15 0 01.018.058.037.037 0 01-.003.02.046.046 0 01-.015.016h-.036a.082.082 0 01-.081-.081.091.091 0 01.039-.057z" fill="#263238"/><path d="M57.783 67.287c-1.218.705-1.218 1.845 0 2.55a4.876 4.876 0 004.416 0c1.221-.705 1.221-1.845 0-2.55a4.874 4.874 0 00-4.416 0z" fill="#000" opacity=".2"/><path d="M58.137 68.7c-.984-1.005-1.563-3.513-.6-4.311h4.89c.96.798.381 3.3-.6 4.311l-.027.027-.033.033-.09.081-.024.018-.072.054c-.042.03-.087.06-.129.084a3.26 3.26 0 01-2.934 0 1.572 1.572 0 01-.129-.084l-.069-.051-.027-.024a1.127 1.127 0 01-.126-.114l-.03-.024z" fill="#EBEBEB"/><path d="M61.998 64.065c1.116.642 1.116 1.689 0 2.33a4.454 4.454 0 01-4.038 0c-1.116-.641-1.116-1.685 0-2.33a4.455 4.455 0 014.038 0z" fill="#FAFAFA"/><path d="M61.209 64.521c.678.393.678 1.026 0 1.419a2.7 2.7 0 01-2.457 0c-.681-.393-.681-1.026 0-1.419a2.7 2.7 0 012.457 0z" fill="#EBEBEB"/><path d="M58.752 65.196a2.718 2.718 0 012.457 0c.163.09.302.219.405.375a1.14 1.14 0 01-.405.372 2.7 2.7 0 01-2.457 0 1.13 1.13 0 01-.408-.372c.102-.158.242-.287.408-.375z" fill="#E0E0E0"/><path d="M59.535 65.721a3.643 3.643 0 01-1.5-1.902c-.45-1.317-.183-2.91.219-3.57.546-.9 1.875-.789 1.479.699-.396 1.488-.633 3.105 0 4.2l-.198.573z" fill="#459AE9"/><path d="M59.535 65.721a3.643 3.643 0 01-1.5-1.902c-.45-1.317-.183-2.91.219-3.57.546-.9 1.875-.789 1.479.699-.396 1.488-.633 3.105 0 4.2l-.198.573z" fill="#000" opacity=".35"/><path d="M59.49 65.45a.057.057 0 00.039 0 .057.057 0 00.018-.041.058.058 0 00-.018-.042 4.35 4.35 0 01-1.107-3.267c.069-1.077.471-1.857.618-1.986a.057.057 0 000-.084.057.057 0 00-.042-.019.056.056 0 00-.042.019c-.201.174-.6 1.014-.66 2.07a4.47 4.47 0 001.143 3.327.057.057 0 00.051.024z" fill="#FAFAFA"/><path d="M60.675 65.721a.581.581 0 01.243-.318c.139-.078.286-.142.438-.189.264-.096.6-.234.633-.552a.863.863 0 00-.039-.336.728.728 0 01-.045-.462c.057-.141.207-.216.336-.3.142-.083.263-.196.354-.333a.702.702 0 00.102-.408c-.024-.3-.3-.489-.315-.783 0-.426.987-1.005.453-1.41-.681-.516-1.749.084-2.055.522-.306.438-.3.633-.864 1.005-.462.3-1.008.372-1.008.978s.78.636.165 1.326c-.369.411.24.771.462 1.26a1.01 1.01 0 001.14 0z" fill="#459AE9"/><path d="M60.075 65.898a.063.063 0 00.06-.063c-.135-3.528 1.662-4.77 2.02-4.866a.06.06 0 00.02-.069.06.06 0 00-.072-.042c-.6.165-2.238 1.656-2.1 4.989a.06.06 0 00.072.051z" fill="#FAFAFA"/><path d="M60.408 63.267a.058.058 0 00.039 0c.522-.459 1.539-.447 1.551-.447a.06.06 0 00.06-.06.057.057 0 00-.057-.06c-.045 0-1.077 0-1.632.477a.06.06 0 000 .084.057.057 0 00.039.006z" fill="#FAFAFA"/><path opacity=".2" d="M100.143 83.142a.49.49 0 00.234-.057l8.973-5.184a.255.255 0 00.141-.219.267.267 0 00-.04-.129.257.257 0 00-.101-.09l-6.51-3.759-9.6 5.535 6.669 3.861a.493.493 0 00.234.042z" fill="#000"/><path d="M102.54 73.401l6.81 3.6.141.222v.177a.267.267 0 01-.04.129.258.258 0 01-.101.09l-8.973 5.181a.486.486 0 01-.468 0l-6.657-3.843v-.177l9.288-5.379z" fill="#263238"/><path d="M100.143 82.665a.459.459 0 00.234-.057l8.973-5.181a.245.245 0 00.141-.22.243.243 0 00-.141-.221l-6.51-3.76-9.6 5.539 6.657 3.843c.075.042.16.061.246.057z" fill="#455A64"/><path d="M102.84 72.708l6.435 3.717.066.09v.693a.107.107 0 01-.021.054.106.106 0 01-.045.036l-8.976 5.184a.351.351 0 01-.318 0l-6.438-3.717v-.69l9.297-5.367z" fill="#EBEBEB"/><path d="M93.546 78.075l.08.045 1.048.6.195.111 5.1 2.952a.352.352 0 00.318 0l8.988-5.175a.101.101 0 00.047-.036.097.097 0 00.018-.057.1.1 0 00-.065-.093l-.087-.048-6.351-3.666-9.213 5.319h-.021l-.057.048z" fill="#F0F0F0"/><path d="M100.143 81.828v.69a.336.336 0 00.159-.036l8.973-5.184a.116.116 0 00.046-.037.102.102 0 00.02-.056v-.69a.121.121 0 01-.021.055.123.123 0 01-.045.038l-8.976 5.181a.297.297 0 01-.156.039z" fill="#E0E0E0"/><path d="M93.546 77.982l1.158.669.183.105 5.1 2.943a.352.352 0 00.318 0l8.037-4.641.204-.117c.255-.139.477-.332.648-.567a.096.096 0 000-.024.105.105 0 00.021-.048.144.144 0 00-.111-.162 2.856 2.856 0 01-.6-.252l-5.661-3.267-9.297 5.361z" fill="#fff"/><path opacity=".1" d="M94.746 77.9a.093.093 0 01.06.088.093.093 0 01-.06.087.324.324 0 01-.3 0 .092.092 0 01-.044-.14.093.093 0 01.044-.034.325.325 0 01.3 0z" fill="#000"/><path d="M93.579 77.808a1.202 1.202 0 000 .147l.105-.06a.842.842 0 010-.087.417.417 0 01.153-.372.222.222 0 01.108-.027.366.366 0 01.183.057c.222.153.382.38.45.642a.262.262 0 00.108 0 1.239 1.239 0 00-.504-.726.4.4 0 00-.402-.03.522.522 0 00-.201.456zm.024.207v.024h.021l-.021-.024z" fill="#263238"/><path opacity=".1" d="M95.646 77.382a.094.094 0 01.06.087.093.093 0 01-.06.087.339.339 0 01-.3 0 .093.093 0 01-.044-.14.093.093 0 01.044-.034.33.33 0 01.3 0z" fill="#000"/><path d="M94.479 77.289a.82.82 0 000 .147l.105-.06v-.087a.418.418 0 01.153-.372.205.205 0 01.105-.027.351.351 0 01.183.057c.223.153.384.38.453.642a.321.321 0 00.108 0 1.239 1.239 0 00-.504-.726.393.393 0 00-.402-.03.517.517 0 00-.201.456z" fill="#263238"/><path opacity=".1" d="M96.546 76.863a.09.09 0 01.045.138.09.09 0 01-.045.033.33.33 0 01-.3 0 .09.09 0 01-.045-.138.09.09 0 01.045-.033.33.33 0 01.3 0z" fill="#000"/><path d="M95.38 76.767a.835.835 0 000 .15l.104-.06a.451.451 0 010-.09.414.414 0 01.15-.369.222.222 0 01.108-.027.352.352 0 01.183.057c.223.152.383.38.45.642a.334.334 0 00.111 0 1.24 1.24 0 00-.504-.726.393.393 0 00-.402-.03.513.513 0 00-.2.453z" fill="#263238"/><path opacity=".1" d="M97.443 76.344c.084.048.084.123 0 .17a.324.324 0 01-.3 0c-.084-.047-.084-.122 0-.17a.325.325 0 01.3 0z" fill="#000"/><path d="M96.279 76.248a.835.835 0 000 .15l.105-.06a.451.451 0 010-.09.414.414 0 01.15-.37.222.222 0 01.108-.026c.065.002.128.02.183.054.223.153.383.382.45.645a.334.334 0 00.111 0 1.255 1.255 0 00-.504-.73.4.4 0 00-.402-.026.509.509 0 00-.201.453z" fill="#263238"/><path opacity=".1" d="M98.343 75.825c.084.045.084.123 0 .171a.324.324 0 01-.3 0c-.084-.048-.084-.126 0-.171a.324.324 0 01.3 0z" fill="#000"/><path d="M97.179 75.729c-.003.05-.003.1 0 .15l.105-.06v-.09a.408.408 0 01.15-.369.222.222 0 01.108-.027c.065.002.127.02.183.054.222.154.382.383.45.645a.274.274 0 00.111-.015 1.275 1.275 0 00-.501-.717.392.392 0 00-.399-.027.51.51 0 00-.207.456z" fill="#263238"/><path opacity=".1" d="M99.243 75.3a.093.093 0 010 .174.324.324 0 01-.3 0 .093.093 0 01-.044-.14.093.093 0 01.044-.034.346.346 0 01.3 0z" fill="#000"/><path d="M98.079 75.21c-.003.05-.003.1 0 .15l.105-.06v-.09a.408.408 0 01.153-.369.22.22 0 01.108-.027c.065.002.128.02.183.054.222.154.382.383.45.645a.3.3 0 00.111-.015 1.275 1.275 0 00-.507-.726.393.393 0 00-.402-.027.515.515 0 00-.201.465z" fill="#263238"/><path opacity=".1" d="M100.143 74.784a.094.094 0 01.044.034.1.1 0 01.016.053.099.099 0 01-.016.053.094.094 0 01-.044.034.329.329 0 01-.3 0 .093.093 0 010-.174.33.33 0 01.3 0z" fill="#000"/><path d="M98.976 74.7c-.003.05-.003.1 0 .15l.105-.06v-.09a.408.408 0 01.153-.37.225.225 0 01.108-.03.4.4 0 01.183.058c.222.153.381.381.45.642a.321.321 0 00.108 0 1.259 1.259 0 00-.504-.726.393.393 0 00-.402-.027.51.51 0 00-.201.453z" fill="#263238"/><path opacity=".1" d="M101.043 74.265a.094.094 0 01.044.034.1.1 0 01.016.053.098.098 0 01-.016.053.093.093 0 01-.044.034.33.33 0 01-.3 0 .093.093 0 01-.044-.034.098.098 0 01-.016-.053.1.1 0 01.016-.053.094.094 0 01.044-.034.33.33 0 01.3 0z" fill="#000"/><path d="M99.876 74.172a.854.854 0 000 .15l.105-.063a.842.842 0 010-.087.412.412 0 01.153-.369c.033-.02.07-.03.108-.03a.397.397 0 01.183.057c.222.154.382.383.45.645a.323.323 0 00.108-.015 1.26 1.26 0 00-.504-.726.39.39 0 00-.402-.027.511.511 0 00-.2.465z" fill="#263238"/><path opacity=".1" d="M101.943 73.746a.094.094 0 01.044.034.1.1 0 01.016.053.098.098 0 01-.016.053.094.094 0 01-.044.034.332.332 0 01-.3 0 .094.094 0 01-.044-.034.098.098 0 01-.016-.053.1.1 0 01.016-.053.094.094 0 01.044-.034.33.33 0 01.3 0z" fill="#000"/><path d="M100.776 73.653a.939.939 0 000 .15l.105-.063a.422.422 0 010-.087.407.407 0 01.15-.37c.032-.02.07-.03.108-.03a.38.38 0 01.183.058c.222.153.382.38.45.642a.27.27 0 00.111 0 1.241 1.241 0 00-.504-.726.394.394 0 00-.402-.027.51.51 0 00-.201.453z" fill="#263238"/><path opacity=".1" d="M102.84 73.227a.094.094 0 01.044.034.1.1 0 01.016.053.099.099 0 01-.016.053.094.094 0 01-.044.034.324.324 0 01-.3 0 .09.09 0 01-.06-.087.09.09 0 01.06-.087.324.324 0 01.3 0z" fill="#000"/><path d="M101.676 73.134a.722.722 0 000 .147l.105-.06a.422.422 0 010-.087.412.412 0 01.15-.372.22.22 0 01.108-.027.38.38 0 01.183.057c.223.152.383.38.45.642a.27.27 0 00.111 0 1.24 1.24 0 00-.504-.726.4.4 0 00-.402-.03.517.517 0 00-.201.456z" fill="#263238"/><path d="M101.043 80.859a.186.186 0 01-.096-.027l-4.95-2.856a.19.19 0 01.19-.327l4.949 2.859a.188.188 0 01.085.21.186.186 0 01-.178.141zm.597-.348a.179.179 0 01-.093-.024l-4.95-2.859a.186.186 0 01-.07-.258.182.182 0 01.256-.066l4.953 2.856a.189.189 0 01-.096.351zm.6-.345a.214.214 0 01-.093-.024l-4.95-2.859a.19.19 0 01.186-.327l4.953 2.859a.189.189 0 01-.096.351zm.6-.345a.183.183 0 01-.093-.027l-4.95-2.859a.187.187 0 11.186-.324l4.953 2.859a.19.19 0 01.088.113.179.179 0 01.004.073.188.188 0 01-.093.138.195.195 0 01-.095.027zm.6-.348a.215.215 0 01-.093-.024l-4.953-2.859a.19.19 0 01.189-.327l4.953 2.859a.189.189 0 01-.096.351zm.6-.345a.183.183 0 01-.093-.027l-4.953-2.859a.185.185 0 01-.093-.186.187.187 0 01.139-.156.192.192 0 01.143.018l4.953 2.859a.188.188 0 01.087.114.18.18 0 01-.021.141.187.187 0 01-.067.07.184.184 0 01-.095.026zm.6-.348a.172.172 0 01-.093-.024L99.594 75.9a.189.189 0 01.189-.327l4.95 2.859a.189.189 0 01.069.258.184.184 0 01-.162.09zm.6-.345a.198.198 0 01-.093-.024l-4.953-2.86a.187.187 0 01-.082-.114.185.185 0 01.02-.14.188.188 0 01.251-.073l4.95 2.86a.18.18 0 01.056.048.184.184 0 01.013.21.184.184 0 01-.162.093zm.6-.345a.17.17 0 01-.093-.027l-4.953-2.859a.186.186 0 01-.105-.114c-.009-.026-.012-.053-.009-.08a.184.184 0 01.079-.134.186.186 0 01.224.004l4.95 2.859a.19.19 0 01.088.113.179.179 0 01.004.073.188.188 0 01-.185.165zm.6-.348a.218.218 0 01-.096-.024l-4.95-2.86a.187.187 0 01-.082-.114.185.185 0 01.02-.14.187.187 0 01.251-.072l4.95 2.859a.188.188 0 01.085.21.186.186 0 01-.178.14zm.6-.342a.186.186 0 01-.096-.027l-4.95-2.859a.185.185 0 01-.105-.114.211.211 0 01-.009-.08.201.201 0 01.025-.075.195.195 0 01.127-.09.186.186 0 01.151.035l4.95 2.859a.188.188 0 01.086.21.189.189 0 01-.179.14zm.597-.351a.178.178 0 01-.093-.024l-4.95-2.86a.189.189 0 01.117-.35.187.187 0 01.069.024l4.953 2.859a.189.189 0 01-.096.35zm.6-.345a.183.183 0 01-.093-.027l-4.95-2.856a.189.189 0 01-.055-.248.189.189 0 01.241-.08l4.953 2.86a.189.189 0 01-.096.35z" fill="#EBEBEB"/><path d="M100.434 81.204a.181.181 0 01-.096-.024l-5.235-3.03a.186.186 0 01-.069-.258.183.183 0 01.255-.066l5.238 3.027a.188.188 0 01.085.21.186.186 0 01-.178.14z" fill="#459AE9"/><path d="M97.935 77.448a.752.752 0 00.252-.261.222.222 0 01.114-.024c.144.018.02.075 0 .129a.024.024 0 00.004.025.023.023 0 00.023.008c.102-.018.345-.078.279.087a.024.024 0 00.015.03c.03 0 .168.027.153.063a.024.024 0 00.003.02.024.024 0 00.018.01c.106-.006.212-.006.318 0a1.03 1.03 0 01.147 0c.033.039-.021.123-.036.15a.027.027 0 000 .036c.054.024.096.057.06.114-.036.057 0 .033 0 .036.138.039.384-.075.423.09.024.099 0 .123.132.114.024 0 .039-.045 0-.048-.132 0-.036-.15-.111-.201-.075-.051-.255.048-.34 0-.083-.048.016-.057-.032-.114s-.045 0-.054-.024c-.01-.024-.021-.021-.024-.021a.08.08 0 000-.04c0-.026.018-.023.02-.038.034-.153-.212-.117-.3-.126-.059.004-.12.004-.18 0v-.042c0-.006-.143-.054-.143-.06 0-.006.03-.057.015-.09-.015-.033-.21-.036-.273-.033h-.048a.048.048 0 00.042-.042c0-.021.015-.033 0-.06-.015-.027-.051-.048-.093-.051a.253.253 0 00-.13.024.237.237 0 00.022-.138c-.036-.15-.207-.042-.3 0-.021 0-.027.048 0 .039a.604.604 0 01.192-.054c.08.015.018.132-.027.207l-.096.048a.447.447 0 00-.204.132c-.033.123.063.156.159.105zm.054-.156l.075-.042a.342.342 0 01-.126.135s-.108.039-.078 0a.301.301 0 01.129-.093zm2.079 1.353c0 .005.002.009.004.013a.03.03 0 00.011.008c.12.036.228-.102.267-.237.045 0 .135-.021.153.048l-.027.069c0 .015 0 .02.024.024.063 0 .267-.075.234.036a.018.018 0 00-.004.012.02.02 0 00.004.012c.054.036.171-.024.186.057 0 .036-.072.075-.027.129.045.054.09 0 .129 0 .039 0 .048-.036.072-.027.024.009 0 .027 0 .039s.018.03.03.039c.012.009.039 0 .06 0 .021 0 .027-.024.042-.024.028.002.055.01.081.02 0 0 .114.052.102.034.018.03-.051.084-.018.132s.207 0 .255 0c.048 0 .042-.051 0-.048l-.12.015c-.102-.045-.075-.078-.057-.13.018-.05 0-.03-.018-.03-.069 0-.117-.062-.171-.062-.054 0-.072.033-.084.033-.081 0-.042-.027-.042-.081a.018.018 0 00-.003-.01.022.022 0 00-.007-.007.024.024 0 00-.01-.003c-.004 0-.007 0-.01.002-.048.015-.168.11-.171 0 0-.018.051-.048.054-.072.003-.024-.015-.066-.063-.078a.3.3 0 00-.102.015c-.129.02-.021 0-.066-.033a.127.127 0 00-.055-.036.121.121 0 00-.065-.003.256.256 0 01-.081 0c-.072-.018-.024 0-.027-.045-.003-.045.027-.057.015-.09-.012-.033-.057-.06-.114-.048a.381.381 0 00-.111.039c0-.096-.018-.171-.108-.171-.024 0-.045.045-.015.05.03.007.066.088.048.157-.081.069-.186.162-.195.252zm.114-.087a.266.266 0 01.084-.081l-.015.033c-.012.018-.093.117-.069.048zm-1.569.666a.78.78 0 00.252-.261.258.258 0 01.111-.027c.147.021.024.075 0 .132-.024.057 0 .033.027.03.102-.015.345-.075.28.087a.021.021 0 00-.006.015v.008a.02.02 0 00.005.007c.03 0 .171.03.156.063-.015.033 0 .033.018.03h.321c.05.002.099.008.147.018.033.039-.02.12-.036.147a.024.024 0 00-.006.028.025.025 0 00.006.008c.054.024.096.057.06.117a.024.024 0 00-.006.028.025.025 0 00.006.008c.138.036.384-.075.423.087.021.102 0 .126.132.114.021 0 .039-.045 0-.045-.132 0-.033-.15-.108-.204-.075-.054-.255.048-.339 0-.084-.048 0-.057-.033-.117-.033-.06-.048 0-.057-.024-.009-.024-.018-.021-.02-.021-.004 0 0-.015 0-.036 0-.021.017-.024.02-.042.03-.153-.213-.114-.3-.123-.06.005-.12.005-.18 0v-.042c0-.006-.144-.054-.147-.06-.003-.006.033-.057.015-.087-.039-.078-.21-.036-.27-.036h-.048a.055.055 0 00.042-.045v-.057c0-.027-.05-.051-.093-.054a.28.28 0 00-.129.024.207.207 0 00.018-.138c-.036-.15-.204-.042-.3 0-.02 0-.027.051 0 .042.027-.009.147-.066.195-.057.048.009.018.135-.027.207l-.099.051a.431.431 0 00-.2.129c-.025.111.074.147.17.096zm.054-.159l.075-.039a.372.372 0 01-.129.135s-.105.039-.075 0a.3.3 0 01.13-.096zm-1.92-.948a.024.024 0 00.015.021c.117.036.228-.102.267-.237.042 0 .135-.018.153.048 0 0-.024.06-.027.072 0 .006.004.011.008.015.005.004.01.006.016.006.063 0 .267-.075.234.036a.03.03 0 000 .027c.054.036.168-.027.186.054.018.081-.072.075-.03.129.042.054.093 0 .132 0 .04 0 .048-.033.072-.024.024.009 0 .027 0 .039s.018.03.03.036c.012.006.04 0 .06 0 .021 0 .027-.024.042-.024a.63.63 0 01.081.021s.111.054.102.033c.015.03-.054.084-.018.132.036.048.207 0 .255 0 .048 0 .042-.051 0-.051l-.12.015c-.102-.045-.075-.075-.057-.126.018-.051 0-.033-.018-.033-.069 0-.117-.063-.17-.063-.055 0-.073.033-.085.033-.08 0-.042-.024-.045-.081l-.001-.01a.018.018 0 00-.007-.008.018.018 0 00-.019 0c-.048.018-.168.114-.17 0 0-.015.05-.048.053-.072.003-.024-.018-.066-.063-.075a.301.301 0 00-.102 0c-.129.021-.02 0-.066-.033-.045-.033-.048-.039-.12-.036a.378.378 0 01-.08 0c-.073-.018-.025 0-.028-.045-.003-.045.027-.054.015-.09s-.057-.057-.117-.048a.63.63 0 00-.11.039c0-.093-.016-.171-.106-.168-.024 0-.045.042-.015.048.03.006.066.087.048.159-.08.078-.186.171-.195.261zm.114-.084a.266.266 0 01.084-.084.108.108 0 01-.018.033c-.009.018-.09.117-.066.051zm4.731-2.604a.822.822 0 00.255-.264.206.206 0 01.111-.024c.144.018.021.075 0 .129-.002.004-.002.008-.002.013a.043.043 0 00.005.012.027.027 0 00.011.007.024.024 0 00.013.001c.102-.018.345-.078.279.087a.023.023 0 00.001.018c.003.006.008.01.014.012.03 0 .168.027.153.063l-.001.01a.032.032 0 00.004.01.026.026 0 00.018.01c.107-.006.214-.006.321 0a.708.708 0 01.144.018c.033.036-.018.12-.033.147a.017.017 0 00-.006.008.032.032 0 00-.002.01l.002.01a.016.016 0 00.006.008c.054.024.096.057.06.114v.036c.135.039.381-.075.42.09.024.102 0 .123.135.114.021 0 .039-.045 0-.045-.132 0-.036-.153-.111-.204-.075-.051-.255.048-.336 0-.081-.048 0-.057-.036-.114s-.045 0-.054-.024c-.009-.024-.021-.021-.024-.021a.127.127 0 000-.039c0-.024.015-.024.018-.039.033-.153-.213-.117-.3-.123a1.15 1.15 0 01-.18 0v-.042c0-.006-.141-.054-.144-.06-.003-.006.03-.057.015-.09-.015-.033-.21-.036-.273-.033h-.048a.045.045 0 00.028-.014.045.045 0 00.014-.028c0-.021.015-.033 0-.057a.127.127 0 00-.093-.054.259.259 0 00-.129.024.234.234 0 00.021-.138c-.036-.15-.204-.042-.3 0-.021 0-.027.048 0 .042a.54.54 0 01.192-.057c.081.015.021.135-.027.207l-.096.051a.43.43 0 00-.204.129c-.033.105.063.138.159.09zm.054-.159l.075-.042a.35.35 0 01-.126.138s-.108.036-.078 0a.298.298 0 01.129-.096zm2.082 1.353v.021c.12.036.228-.102.27-.237.042 0 .135-.021.15.048a.803.803 0 00-.024.069s0 .021.021.024c.063 0 .267-.075.234.036a.022.022 0 00-.004.013c0 .005.001.01.004.014.051.036.168-.027.183.054 0 .036-.072.075-.027.129.045.054.09 0 .129 0 .039 0 .048-.033.072-.024.024.009 0 .024.015.036.015.012.015.033.027.039.012.006.042 0 .06 0 .018 0 .027-.024.042-.024a.35.35 0 01.081.021s.114.051.102.033c.018.03-.051.084-.018.132s.207 0 .255 0c.048 0 .042-.051 0-.048l-.117.015c-.105-.045-.078-.075-.057-.129.002-.003.002-.007.002-.01a.02.02 0 00-.004-.011.022.022 0 00-.008-.007.021.021 0 00-.011-.002c-.069 0-.117-.063-.168-.063a.751.751 0 00-.084.033c-.084 0-.042-.027-.045-.081a.017.017 0 00-.003-.01.022.022 0 00-.007-.007.02.02 0 00-.01-.003c-.003 0-.007 0-.01.002-.045.015-.168.114-.171 0 0 0 .051-.048.054-.072.003-.024-.015-.066-.063-.075a.234.234 0 00-.102 0c-.129.021-.021 0-.063-.033a.13.13 0 00-.123-.039.25.25 0 01-.081 0c-.069-.018-.024 0-.027-.045-.003-.045.027-.054.015-.09s-.057-.057-.114-.048a.493.493 0 00-.111.039c0-.093-.018-.171-.108-.168-.024 0-.045.042 0 .048.045.006.063.087.045.159-.09.078-.195.171-.201.261zm.111-.087a.293.293 0 01.084-.081l-.015.033c-.012.012-.09.117-.069.048zm-1.569.666a.748.748 0 00.252-.261.27.27 0 01.111-.027c.147.02.024.075 0 .132a.024.024 0 000 .012.035.035 0 00.005.01.036.036 0 00.01.007.025.025 0 00.012 0c.102-.014.345-.074.279.09a.022.022 0 00-.005.014c0 .005.002.01.005.014.033 0 .171.03.156.063-.002.003-.002.007-.002.01a.02.02 0 00.004.011.021.021 0 00.008.007.021.021 0 00.011.002h.318a.98.98 0 01.147.018c.033.039-.021.12-.036.147a.071.071 0 00-.006.008.034.034 0 00-.002.01l.002.01a.063.063 0 00.006.008c.054.024.096.057.06.117a.065.065 0 00-.006.008.032.032 0 00-.002.01l.002.01a.063.063 0 00.006.008c.138.036.384-.075.423.087.024.102 0 .126.132.114.024 0 .039-.045 0-.045-.132 0-.036-.15-.111-.204-.075-.054-.255.048-.339 0-.084-.048.015-.057-.033-.117-.048-.06-.048 0-.054-.024-.006-.024-.021-.021-.024-.021a.073.073 0 000-.036c0-.027.018-.024.021-.042.033-.153-.213-.114-.3-.123-.06.003-.12.003-.18 0v-.045c0-.006-.144-.054-.147-.06-.003-.006.033-.054.018-.087-.015-.033-.21-.036-.273-.033h-.048s.039 0 .042-.042a.122.122 0 000-.06c0-.048-.051-.051-.093-.054a.302.302 0 00-.129.024.235.235 0 00.021-.138c-.036-.15-.207-.04-.3 0-.021 0-.027.05 0 .042.027-.01.144-.066.192-.057.048.009.018.135-.027.207l-.096.05a.441.441 0 00-.204.13c-.021.114.078.147.174.096zm.054-.16l.075-.038a.365.365 0 01-.126.135s-.108.039-.078 0a.303.303 0 01.129-.096zm-1.92-.947c0 .005.002.009.004.013a.03.03 0 00.011.008c.12.036.228-.1.267-.237.045 0 .138-.018.153.048 0 0-.024.06-.027.072a.028.028 0 00.008.015c.004.004.01.006.016.006.063 0 .267-.075.234.039a.025.025 0 000 .024c.054.036.171-.027.186.054.015.08-.072.075-.027.129.045.054.09 0 .129 0 .039 0 .048-.033.072-.024.024.009 0 .027 0 .039s.018.03.03.039c.012.009.042 0 .06 0 .018 0 .027-.024.042-.024a.361.361 0 01.081.024s.114.05.102.03c.018.03-.051.084-.018.132s.207 0 .255 0c.048 0 .042-.051 0-.051l-.117.015c-.105-.045-.078-.075-.057-.126.021-.051 0-.033-.021-.03-.069 0-.117-.066-.168-.063a1.006 1.006 0 00-.084.03c-.084 0-.045-.024-.045-.081a.018.018 0 00-.003-.01.02.02 0 00-.017-.01c-.003 0-.007 0-.01.002-.048.018-.168.114-.171 0 0-.015.051-.048.054-.07a.078.078 0 00-.063-.077.235.235 0 00-.102.015c-.129.018-.021 0-.066-.036s-.048-.04-.12-.036a.378.378 0 01-.081 0c-.069-.018-.024 0-.027-.045-.003-.045.027-.054.015-.09s-.057-.057-.114-.048a.503.503 0 00-.111.039c0-.093-.018-.171-.108-.168-.024 0-.045.045-.015.048.03.003.066.087.048.159-.081.05-.186.156-.195.246zm.114-.084a.268.268 0 01.084-.081v.03c-.027.02-.105.117-.084.05zm1.377 2.412a.757.757 0 00.252-.261.256.256 0 01.111-.027c.144.02.024.075 0 .132a.028.028 0 000 .013.024.024 0 00.006.011.024.024 0 00.011.006h.013c.102-.015.345-.075.279.09l-.005.006-.001.007.001.008.005.006c.03 0 .171.03.153.063-.002.003-.002.007-.002.01a.02.02 0 00.004.011.021.021 0 00.008.007.021.021 0 00.011.002h.321a.922.922 0 01.147.018c.03.039-.021.12-.036.147a.017.017 0 00-.006.008.032.032 0 00-.002.01l.002.01a.016.016 0 00.006.008c.057.024.099.057.063.117a.017.017 0 00-.006.008.032.032 0 00-.002.01l.002.01a.016.016 0 00.006.008c.138.036.384-.075.42.087.024.102 0 .126.135.114.021 0 .039-.045 0-.045-.132 0-.033-.15-.108-.204-.075-.054-.258.048-.339 0-.081-.048 0-.057-.033-.117-.033-.06-.048 0-.057-.024-.009-.024-.018-.021-.021-.021v-.036c0-.027.015-.024.021-.042.03-.153-.213-.114-.315-.123-.06.003-.12.003-.18 0v-.045c0-.006-.144-.054-.147-.06-.003-.006.033-.054.015-.087-.018-.033-.21-.036-.273-.033h-.045s.039 0 .042-.042c.003-.042 0-.033 0-.06 0-.027-.048-.051-.09-.054a.283.283 0 00-.129.024.206.206 0 00.018-.138c-.036-.15-.204-.042-.3 0-.021 0-.027.05 0 .042.027-.01.147-.066.192-.057.045.009.021.135-.024.207-.036.018-.069.039-.099.05a.434.434 0 00-.201.13c-.018.114.081.147.177.096zm.054-.16l.075-.038c-.036.048-.072.11-.129.135 0 0-.105.039-.075 0a.268.268 0 01.129-.096zm-1.602-.836a.02.02 0 00-.003.01.02.02 0 00.003.011c.12.039.228-.099.27-.237.042 0 .135-.018.15.048a.88.88 0 00-.024.072s0 .021.021.024c.063 0 .267-.078.234.036a.018.018 0 00-.004.012.02.02 0 00.004.012c.051.036.168-.024.183.057.015.081-.072.072-.027.126.045.054.09 0 .129 0 .039 0 .048-.033.072-.024.024.009 0 .027.015.039s0 .03.027.039c.02.004.04.004.06 0 .015 0 .027-.021.042-.024a.361.361 0 01.081.024s.114.051.102.03c.018.03-.051.087-.018.132.033.045.21 0 .255 0 .045 0 .042-.051.015-.051l-.12.015c-.105-.045-.078-.075-.057-.126.002-.003.002-.007.002-.01a.02.02 0 00-.004-.011.022.022 0 00-.008-.007.022.022 0 00-.011-.002c-.069 0-.117-.066-.168-.063a.802.802 0 00-.084.03c-.084 0-.042-.024-.045-.081-.003-.057-.018-.021-.03-.018-.012.003-.168.114-.171 0 0 0 .051-.045.054-.069.003-.024 0-.066-.063-.078a.234.234 0 00-.102 0c-.129.021-.021 0-.063-.036-.042-.036-.051-.039-.123-.036a.73.73 0 01-.081 0c-.069-.018-.024 0-.027-.048-.003-.048.027-.054.015-.09s-.057-.057-.114-.045a.476.476 0 00-.111.036c0-.093-.018-.171-.108-.168-.024 0-.045.045 0 .048.045.003.063.087.045.159-.102.081-.207.174-.213.264zm.111-.084a.268.268 0 01.084-.081l-.015.03c-.012.021-.09.108-.069.051zm-1.263-1.059a.33.33 0 010 .144c0 .015 0 .021.024.024.063 0 .267-.075.234.036a.03.03 0 000 .027c.054.036.171-.027.186.054.015.081-.072.075-.03.129.042.054.093 0 .132 0 .039 0 .048-.033.072-.024.024.009 0 .024 0 .036 0 .012.018.033.03.039.012.006.039 0 .06 0 .021 0 .027-.024.042-.024.028.004.055.01.081.021 0 0 .111.051.102.033 0 .03-.051.084-.018.132s.207 0 .255 0c.048 0 .042-.051.015-.048l-.123.015c-.102-.045-.075-.075-.057-.129.018-.054 0-.03-.018-.03-.069 0-.117-.063-.171-.063-.054 0-.072.033-.084.033-.081 0-.042-.027-.042-.081a.021.021 0 00-.02-.02.02.02 0 00-.01.002c-.048.015-.168.114-.171 0 0-.015.051-.048.054-.072.003-.024-.018-.066-.063-.075a.234.234 0 00-.102 0c-.129.021-.021 0-.066-.033a.124.124 0 00-.12-.039.256.256 0 01-.081 0c-.072-.018-.024 0-.027-.045-.003-.045.027-.057.015-.09-.012-.033-.096-.096-.114-.027a.042.042 0 000 .027.108.108 0 00.015.048z" fill="#455A64"/><path opacity=".2" d="M96.93 82.704c-.096.262-.375.424-.837.486l-6.6-3.87-.86-.87a.066.066 0 01.068-.108l1.581.522 6.648 3.84z" fill="#000"/><path d="M90.216 78.276L88.81 78a.045.045 0 00-.042.072l.954 1.08.495-.876z" fill="#FFA8A7"/><path d="M88.767 78.072a.045.045 0 01.016-.068.045.045 0 01.026-.004l.273.054a.24.24 0 00-.11.225v.021l-.205-.228z" fill="#263238"/><path d="M94.971 82.164l-.117-.069-.138-.078-4.995-2.865a.642.642 0 01.042-.465.654.654 0 01.453-.411l4.99 2.862.266.153c-.177-.09-.678.78-.5.873z" fill="#455A64"/><path d="M94.53 81.9l-.255-.147c-.078-.042-.033-.228.057-.42.117-.255.348-.504.447-.45l.19.108.068.039c-.102-.051-.333.195-.45.453-.084.183-.129.363-.063.41l.006.007z" fill="#EBEBEB"/><path d="M94.467 81.876c-.177-.093.33-.963.504-.87l.258.147c-.174-.093-.68.777-.504.87l-.258-.147z" fill="#459AE9"/><path d="M94.971 82.164l-.255-.147c-.174-.09.3-.933.49-.879l.254.147c-.165-.084-.666.786-.489.879z" fill="#EBEBEB"/><path opacity=".15" d="M88.761 78.024L88.81 78l1.02.558 5.28 3.03h.027c-.15.234-.264.528-.165.582l-.117-.069-.138-.078-4.995-2.865-.954-1.08a.048.048 0 01-.006-.054z" fill="#000"/><path d="M96.048 82.779l-1.077-.615c-.075-.042-.036-.225.054-.417.114-.258.345-.507.447-.456l1.083.609c.216.123.018.6-.222.798a.259.259 0 01-.285.081z" fill="#F28F8F"/><path opacity=".1" d="M95.985 82.446a.781.781 0 01.441-.534.177.177 0 01.16.02c.161.154-.025.58-.253.778a.26.26 0 01-.279.072c-.08-.048-.11-.171-.069-.336z" fill="#000"/><path opacity=".2" d="M67.8 68.241l10.092-5.826a.576.576 0 01.582 0l17.508 10.11a.125.125 0 01.049.176.126.126 0 01-.049.046l-10.2 5.883L67.8 68.241z" fill="#000"/><path d="M68.553 67.014v.225a.93.93 0 00.465.807l16.311 9.417a.944.944 0 00.933 0l8.892-5.118a.933.933 0 00.465-.807v-.3a.114.114 0 01-.06.102l-9.762 5.637-17.244-9.963z" fill="#37474F"/><path d="M68.553 67.01l9.67-5.582a.56.56 0 01.557 0l16.776 9.69a.123.123 0 010 .213l-9.762 5.637-17.24-9.957z" fill="#455A64"/><path d="M85.884 76.146l5.217-3.009-15.252-8.805-5.244 2.994 15.28 8.82z" fill="#37474F"/><path d="M70.605 67.326l.198.114 5.046-2.877L90.9 73.254l.198-.117-15.249-8.805-5.244 2.994z" fill="#459AE9"/><path d="M70.605 67.326l.198.114 5.046-2.877L90.9 73.254l.198-.117-15.249-8.805-5.244 2.994zm17.841.453l-.096.054-2.556 1.476-4.545-2.625-.096-.054 2.652-1.53 4.641 2.679z" fill="#263238"/><path d="M88.35 67.833l-2.556 1.476-4.545-2.625 2.556-1.476 4.545 2.625z" fill="#37474F"/><path d="M85.794 76.968v.618a.924.924 0 01-.465-.123l-16.31-9.417a.93.93 0 01-.466-.807v-.228l17.241 9.957z" fill="#459AE9"/><path d="M85.794 76.968v.618a.924.924 0 01-.465-.123l-16.31-9.417a.93.93 0 01-.466-.807v-.228l17.241 9.957z" fill="#263238"/><path d="M85.533 77.1a1.112 1.112 0 01-.954-.075L68.343 67.65a1.093 1.093 0 01-.537-.771l-1.779-10.602a1.098 1.098 0 01.312-.966l16.875 9.744a.813.813 0 01.396.57L85.533 77.1z" fill="#37474F"/><path d="M85.794 76.968l-.11.063-.15.075-1.924-11.475a.812.812 0 00-.396-.57L66.34 55.317a1.07 1.07 0 01.225-.171l16.911 9.762a.813.813 0 01.4.57l1.92 11.49z" fill="#455A64"/><path d="M83.454 65.277l.261-.153a.856.856 0 01.156.354l1.923 11.49-.11.063-.15.075-1.924-11.475a.788.788 0 00-.156-.354z" fill="#263238"/><path d="M76.386 67.317c-.12-.708-.852-1.65-1.635-2.1-.783-.45-1.326-.243-1.2.465.126.708.852 1.653 1.635 2.1.783.447 1.32.246 1.2-.465z" fill="#459AE9"/><path opacity=".1" d="M104.076 92.049c1.137.63 1.137 1.65 0 2.28a4.726 4.726 0 01-4.119 0c-1.137-.63-1.137-1.65 0-2.28a4.724 4.724 0 014.119 0z" fill="#000"/><path d="M100.251 88.323a6 6 0 013.624.093c.975.399.96 1.008-.036 1.356a5.964 5.964 0 01-3.624-.093c-1.008-.399-.993-1.008.036-1.356z" fill="#263238"/><path d="M99.471 87.069l5.223.138-.555 6.144c-.03.222-.246.438-.648.6a4.638 4.638 0 01-3.135-.081c-.408-.183-.618-.408-.636-.633l-.249-6.168z" fill="#FAFAFA"/><path d="M104.694 87.207l-.114 1.248c-.138.09-.286.165-.441.222a6.33 6.33 0 01-4.16-.105l-.139-.069a2.753 2.753 0 01-.32-.192l-.049-1.242 5.223.138z" fill="#EBEBEB"/><path d="M99.135 87.24l.024-.94.6.016c.084-.042.174-.078.27-.117a6.376 6.376 0 014.161.108c.093.042.174.087.252.129l.6.015-.024.942c0 .3-.3.6-.867.825a6.347 6.347 0 01-4.16-.108c-.58-.25-.862-.564-.856-.87z" fill="#37474F"/><path d="M100.059 85.476a6.326 6.326 0 014.158.108c1.119.498 1.098 1.254-.042 1.692a6.33 6.33 0 01-4.161-.105c-1.155-.498-1.137-1.257.045-1.695z" fill="#455A64"/><path d="M99.708 86.1l.207-.771 1.5.039a6.138 6.138 0 011.5.039l1.452.036.168.78c.087.285-.144.576-.696.777a5.457 5.457 0 01-3.429-.087c-.585-.243-.807-.546-.702-.813z" fill="#37474F"/><path d="M100.575 84.84a5.235 5.235 0 013.147.081c.846.342.834.864-.03 1.164a5.256 5.256 0 01-3.15-.081c-.867-.345-.867-.867.033-1.164z" fill="#455A64"/><path d="M100.206 85.413a.3.3 0 00.093.111c.111.08.232.147.36.195.474.166.971.255 1.473.261.495.021.99-.04 1.464-.183.127-.04.246-.1.354-.177.075-.057.096-.099.096-.111 0-.012-.072-.159-.435-.3a4.341 4.341 0 00-1.452-.258 4.531 4.531 0 00-1.485.183c-.372.12-.468.252-.468.279z" fill="#263238"/><path d="M100.299 85.524c.111.08.232.147.36.195a4.62 4.62 0 001.473.26c.495.022.99-.04 1.464-.182.127-.04.246-.1.354-.177a1.3 1.3 0 00-.345-.195 4.341 4.341 0 00-1.452-.258 4.537 4.537 0 00-1.485.183c-.13.041-.254.1-.369.174z" fill="#37474F"/><path d="M101.175 85.569a.442.442 0 00-.351-.075c-.063.033-.015.123.114.2a.44.44 0 00.348.076c.075-.036.027-.126-.111-.201z" fill="#000" opacity=".5"/><path d="M104.388 91.368c0 .231-.243.456-.711.621a5.628 5.628 0 01-3.414-.087c-.474-.189-.708-.426-.705-.657l-.09-2.265c0 .246.243.498.747.699a5.964 5.964 0 003.624.093c.498-.174.75-.414.756-.657l-.207 2.253z" fill="#455A64"/><path d="M102.792 91.461c.08-.12.151-.247.213-.378a1.15 1.15 0 01.6-.507.074.074 0 01.053 0c.018.007.032.02.04.036a.894.894 0 01-.248.873.902.902 0 01-.883.213s-.018-.036 0-.042a.776.776 0 00.225-.195zm.678-.961a1.257 1.257 0 00-.378.22c-.117.1-.212.224-.279.363a1.108 1.108 0 01-.351.44.075.075 0 01-.087-.024.788.788 0 01-.062-.51.785.785 0 01.269-.437.804.804 0 01.915-.186.068.068 0 01.031.033.07.07 0 01-.017.084.068.068 0 01-.041.018zm2.619 41.398c-2.118-2.187-3.363-11.1-1.296-12.822h10.518c2.067 1.734.822 10.632-1.296 12.819l-.057.06a.638.638 0 01-.075.072 2.65 2.65 0 01-.189.174l-.051.039c-.054.042-.105.084-.162.123a2.45 2.45 0 01-.273.177c-1.743 1.017-4.569 1.017-6.3 0a3.076 3.076 0 01-.276-.177l-.15-.114-.063-.051c-.066-.054-.126-.111-.183-.165l-.084-.084-.063-.051z" fill="#459AE9"/><path d="M106.089 131.898c-2.118-2.187-3.363-11.1-1.296-12.822h10.518c2.067 1.734.822 10.632-1.296 12.819l-.057.06a.638.638 0 01-.075.072 2.65 2.65 0 01-.189.174l-.051.039c-.054.042-.105.084-.162.123a2.45 2.45 0 01-.273.177c-1.743 1.017-4.569 1.017-6.3 0a3.076 3.076 0 01-.276-.177l-.15-.114-.063-.051c-.066-.054-.126-.111-.183-.165l-.084-.084-.063-.051z" fill="#fff" opacity=".65"/><path d="M114.396 118.38c2.4 1.401 2.4 3.672 0 5.073-2.4 1.401-6.3 1.401-8.7 0-2.4-1.401-2.4-3.672 0-5.073 2.4-1.401 6.3-1.401 8.7 0z" fill="#459AE9"/><path d="M114.396 118.38c2.4 1.401 2.4 3.672 0 5.073-2.4 1.401-6.3 1.401-8.7 0-2.4-1.401-2.4-3.672 0-5.073 2.4-1.401 6.3-1.401 8.7 0z" fill="#fff" opacity=".8"/><path d="M113.244 119.052c1.761 1.029 1.761 2.7 0 3.726-1.761 1.026-4.62 1.029-6.384 0-1.764-1.029-1.761-2.7 0-3.726 1.761-1.026 4.62-1.029 6.384 0z" fill="#459AE9"/><path d="M113.244 119.052c1.761 1.029 1.761 2.7 0 3.726-1.761 1.026-4.62 1.029-6.384 0-1.764-1.029-1.761-2.7 0-3.726 1.761-1.026 4.62-1.029 6.384 0z" fill="#000" opacity=".3"/><path d="M106.875 120.822c1.764-1.029 4.62-1.029 6.384 0 .427.233.789.569 1.053.978a2.915 2.915 0 01-1.053.978c-1.764 1.029-4.62 1.029-6.384 0a2.95 2.95 0 01-1.056-.978 2.95 2.95 0 011.056-.978z" fill="#455A64"/><path d="M109.191 116.331a3.077 3.077 0 01-.27-.768 1.8 1.8 0 01.561-1.77c.207-.156.474-.273.564-.516a.81.81 0 000-.426c-.096-.546-.279-1.11-.129-1.644a1.85 1.85 0 011.02-1.092c.48-.199.984-.33 1.5-.39.273-.027.54-.104.786-.225.3-.162.384-.453.567-.708.212-.282.455-.541.723-.771a2.813 2.813 0 011.947-.84c1.548.069 1.5 1.401 1.056 2.4-.444.999-.564 1.338.402 2.4.966 1.062.969 2.349-.183 3.075s-1.905.819-1.449 2.217c.408 1.248.66 2.313-.492 3.645a3.764 3.764 0 01-3.039 1.425 5.058 5.058 0 01-1.5-.348c-.351-.174-.114-.447-.234-.792l-.765-2.232a15.828 15.828 0 00-.6-1.758c-.15-.309-.321-.591-.465-.882z" fill="#459AE9"/><path d="M109.191 116.331a3.077 3.077 0 01-.27-.768 1.8 1.8 0 01.561-1.77c.207-.156.474-.273.564-.516a.81.81 0 000-.426c-.096-.546-.279-1.11-.129-1.644a1.85 1.85 0 011.02-1.092c.48-.199.984-.33 1.5-.39.273-.027.54-.104.786-.225.3-.162.384-.453.567-.708.212-.282.455-.541.723-.771a2.813 2.813 0 011.947-.84c1.548.069 1.5 1.401 1.056 2.4-.444.999-.564 1.338.402 2.4.966 1.062.969 2.349-.183 3.075s-1.905.819-1.449 2.217c.408 1.248.66 2.313-.492 3.645a3.764 3.764 0 01-3.039 1.425 5.058 5.058 0 01-1.5-.348c-.351-.174-.114-.447-.234-.792l-.765-2.232a15.828 15.828 0 00-.6-1.758c-.15-.309-.321-.591-.465-.882z" fill="#000" opacity=".15"/><path d="M111.294 121.986a.114.114 0 00.056-.043.117.117 0 00.019-.068c-.063-7.641 4.146-12.201 4.2-12.246a.12.12 0 000-.165.111.111 0 00-.036-.025.13.13 0 00-.043-.008.132.132 0 00-.044.008.111.111 0 00-.036.025c-.045.045-4.32 4.668-4.254 12.408.002.03.014.059.036.08a.123.123 0 00.081.034h.021z" fill="#fff"/><path d="M112.518 114.879a.049.049 0 00.024 0c1.371-.861 3.816-1.5 3.84-1.5a.113.113 0 00.07-.053.108.108 0 00.012-.086.114.114 0 00-.052-.071.115.115 0 00-.087-.012c-.102.024-2.502.657-3.9 1.539a.116.116 0 00-.056.152.114.114 0 00.152.055l-.003-.024zm.426-1.047a.116.116 0 00.06-.063.119.119 0 000-.087 8.979 8.979 0 00-1.263-2.127.119.119 0 00-.079-.04.115.115 0 00-.083.028.119.119 0 00-.04.079c-.002.03.008.06.028.083a8.735 8.735 0 011.227 2.064.117.117 0 00.15.063z" fill="#fff"/><path d="M110.517 122.55l-.099.033c-.555.159-1.167.066-1.734.063a6.558 6.558 0 01-1.929-.387 3.487 3.487 0 01-1.668-1.128 2.099 2.099 0 01-.363-1.926c.124-.237.201-.496.228-.762a.947.947 0 00-.42-.678 4.81 4.81 0 00-.732-.375 2.528 2.528 0 01-.984-.759 1.398 1.398 0 01-.27-1.086c.078-.345.363-.6.444-.951.126-.564-.273-.9-.417-1.404-.117-.402-.279-.945-.171-1.356.153-.579.792-.9 1.383-.966a3.474 3.474 0 012.277.6c.657.477 1.176 1.08 2.046 1.152.402.033.816-.063 1.2.027a1.729 1.729 0 011.17 1.14c.166.545.216 1.118.144 1.683-.073.373-.031.759.12 1.107.21.357.639.513.984.744.771.513 1.068 1.431 1.029 2.322-.039.939-.852 1.89-1.551 2.436a3.258 3.258 0 01-.687.471z" fill="#459AE9"/><path d="M110.475 122.643a.11.11 0 01-.069-.096c-.3-3.645-4.371-9.342-6.177-10.485a.128.128 0 01-.032-.029.144.144 0 01-.018-.04.104.104 0 01-.001-.043.097.097 0 01.015-.041.147.147 0 01.029-.032.144.144 0 01.04-.018.124.124 0 01.043-.001.097.097 0 01.041.015c1.833 1.164 5.982 6.954 6.276 10.659a.105.105 0 01-.099.117.08.08 0 01-.048-.006z" fill="#fff"/><path d="M107.943 116.4a.099.099 0 01-.057-.018c-1.008-.6-2.61-.573-3.384-.408a.108.108 0 01-.085-.014.092.092 0 01-.032-.03.103.103 0 01-.018-.04.116.116 0 01.017-.085.115.115 0 01.07-.05c.807-.174 2.487-.21 3.546.435a.116.116 0 01.049.126.118.118 0 01-.039.059.117.117 0 01-.067.025zm.714 1.134a.11.11 0 01-.111-.09 6.226 6.226 0 01.564-3.054.108.108 0 01.067-.053.111.111 0 01.084.009.12.12 0 01.054.067.114.114 0 01-.01.085 6.06 6.06 0 00-.54 2.901.119.119 0 01-.017.084.116.116 0 01-.07.048l-.021.003z" fill="#fff"/><path d="M30.18 111.168a.399.399 0 01-.39-.408V84.555a.394.394 0 01.681-.3.393.393 0 01.102.3v26.205a.396.396 0 01-.24.375.403.403 0 01-.153.033zm15.558-9.54a.386.386 0 01-.363-.258l-7.71-20.337a.414.414 0 01.219-.531.384.384 0 01.507.231l7.71 20.34a.41.41 0 01-.22.528.394.394 0 01-.143.027z" fill="#455A64"/><path d="M44.81 99.186a.373.373 0 01-.281-.129l-14.35-15.822L15.862 99a.381.381 0 01-.555 0 .423.423 0 01-.015-.576l14.607-16.068a.38.38 0 01.564 0l14.63 16.137a.42.42 0 010 .576.377.377 0 01-.281.117z" fill="#455A64"/><path d="M14.625 101.628a.395.395 0 01-.144-.027.41.41 0 01-.22-.528l7.714-20.34a.384.384 0 01.723-.01c.041.1.042.21.003.31l-7.713 20.337a.386.386 0 01-.363.258z" fill="#455A64"/><path d="M45.207 98.56l1.02 2.801a.299.299 0 010 .072v.051a.325.325 0 01-.153.177.671.671 0 01-.621 0 .272.272 0 01-.12-.132v-.036l-.948-2.63.822-.304zm-30.051 0l-1.02 2.801a.299.299 0 000 .072v.051a.324.324 0 00.153.177.67.67 0 00.621 0 .273.273 0 00.12-.132v-.036l.945-2.637-.819-.297zm15.477 10.172v2.319a.235.235 0 01-.132.192.685.685 0 01-.639 0 .235.235 0 01-.132-.192v-2.319a.895.895 0 01.903 0z" fill="#263238"/><path d="M48.294 80.757c0-.732-.6-1.5-1.911-2.385-2.4-1.623-9.375-5.682-12.73-7.617a.036.036 0 00-.026-.03c-2.583-1.632-3.366-8.6-5.154-14.508-.6-2.013-1.353-3.153-2.238-3.69-.21-.126-.984-.57-1.155-.678-1.752-1.095-4.053.222-6.921 1.854-2.637 1.5-4.701 3.435-5.115 8.55-.252 3.114 0 9.066.6 13.575.876 7.533 1.956 7.548 3.522 8.808 2.7 2.17 8.763 5.22 11.322 6.27 4.64 1.902 8.43-1.032 11.256-2.487a65.568 65.568 0 007.5-4.623c.705-.534 1.07-1.077 1.065-1.647-.018-.23-.015-1.149-.015-1.392z" fill="#459AE9"/><path opacity=".2" d="M48.294 80.757c0-.732-.6-1.5-1.911-2.385-2.4-1.623-9.375-5.682-12.73-7.617a.036.036 0 00-.026-.03c-2.583-1.632-3.366-8.6-5.154-14.508-.6-2.013-1.353-3.153-2.238-3.69-.21-.126-.984-.57-1.155-.678-1.752-1.095-4.053.222-6.921 1.854-2.637 1.5-4.701 3.435-5.115 8.55-.252 3.114 0 9.066.6 13.575.876 7.533 1.956 7.548 3.522 8.808 2.7 2.17 8.763 5.22 11.322 6.27 4.64 1.902 8.43-1.032 11.256-2.487a65.568 65.568 0 007.5-4.623c.705-.534 1.07-1.077 1.065-1.647-.018-.23-.015-1.149-.015-1.392z" fill="#000"/><path d="M39.738 87.015a65.568 65.568 0 007.5-4.623c1.608-1.218 1.458-2.463-.846-4.02-3.201-2.166-14.571-8.679-14.571-8.679s-16.5 10.149-15.79 12.021c.712 1.872 9.244 6.468 12.45 7.785 4.642 1.902 8.43-1.029 11.257-2.484z" fill="#459AE9"/><path d="M39.738 87.015a65.568 65.568 0 007.5-4.623c1.608-1.218 1.458-2.463-.846-4.02-3.201-2.166-14.571-8.679-14.571-8.679s-16.5 10.149-15.79 12.021c.712 1.872 9.244 6.468 12.45 7.785 4.642 1.902 8.43-1.029 11.257-2.484z" fill="#000" opacity=".05"/><path d="M26.133 52.467c-1.737-.951-3.993.342-6.786 1.935-1.8 1.023-3.3 2.232-4.24 4.5l-1.175-.702c.924-2.256 2.445-3.468 4.227-4.5 2.868-1.635 5.166-2.946 6.92-1.854.154.096.763.45 1.054.621z" fill="#459AE9"/><path opacity=".6" d="M26.133 52.467c-1.737-.951-3.993.342-6.786 1.935-1.8 1.023-3.3 2.232-4.24 4.5l-1.175-.702c.924-2.256 2.445-3.468 4.227-4.5 2.868-1.635 5.166-2.946 6.92-1.854.154.096.763.45 1.054.621z" fill="#fff"/><path d="M19.347 54.402c4.287-2.445 7.314-4.2 9.126 1.8 1.8 5.907 2.57 12.876 5.154 14.508 0 0 .786.069-5.634 5.124-2.043 1.623-4.518 2.943-6.15 3.966-3.19 1.98-5.124 2.775-5.43 2.511-1.686-1.458-2.598-14.232-2.184-19.347.414-5.115 2.478-7.056 5.118-8.562z" fill="#459AE9"/><path d="M51.318 98.508s.717 2.844 1.479 4.218a21.226 21.226 0 002.7 3.915c.24.267.783.762.981.981a.421.421 0 01.137.335.426.426 0 01-.17.319c-.474.468-2.508.615-3.663-.222-1.155-.837-2.307-2.442-3-3.117a50.49 50.49 0 01-.9-.9.903.903 0 01-.246-.873l.072-.318c.147-.66-.771-3.342-.771-3.342l3.381-.996z" fill="#E39496"/><path d="M26.811 67.476c-.426 2.4-.558 3.75.285 6.168s2.754 6.414 6.135 8.307c2.796 1.566 6.6 3.6 7.398 4.06.9.515 1.254.992 1.554 2.222.375 1.54.825 3.3 2.538 6.555 2.1 4.002 3 5.958 3 5.958 1.155.075 3.423-.6 4.074-1.164 0 0-4.116-15.864-4.854-17.916-.738-2.052-6.087-5.07-8.382-6.393-2.295-1.323-3.576-2.148-6.195-3.92l-5.553-3.877z" fill="#37474F"/><path d="M32.688 74.19c-.47.991-1.025 1.94-1.659 2.835l.483.405s1.176-1.62 1.176-3.24z" fill="#263238"/><path d="M43.428 102.261s.867 3.9 1.548 4.833c.879 1.2 1.596 2.685 2.7 3.9.24.267.786.765.98.981a.422.422 0 01-.032.654c-.471.468-2.505.6-3.663-.219s-2.304-2.445-3-3.12a42.066 42.066 0 01-.9-.9.93.93 0 01-.243-.876l.072-.315c.144-.66-.771-3.345-.771-3.345l3.309-1.593z" fill="#E39496"/><path d="M40.575 109.383c0 .504.051.768.132.846a6.95 6.95 0 001.476.693c.255.024.3-.15.519.15.219.3.624 1.026 1.176 1.683a3.496 3.496 0 002 1.128 6.413 6.413 0 003.217-.156c1.167-.369 1.413-.843 1.377-1.281-.036-.438-9.897-3.063-9.897-3.063z" fill="#263238"/><path d="M40.662 105.714c-.087.033-.132.12-.144.252-.012.132.03.3.039.546.019.469-.02.938-.114 1.398a2.61 2.61 0 00.126 1.473c.435.327.9.441 1.398.69 1.44.729 1.536 1.866 2.484 2.634a3.626 3.626 0 002.06.84c.805.06 1.613.005 2.4-.165.529-.135 1.942-.702 1.606-1.485-.1-.182-.253-.33-.438-.426a23.54 23.54 0 01-2.004-1.371 17.004 17.004 0 01-2.142-2.121 7.596 7.596 0 01-1.314-2.073.424.424 0 00-.117-.183.376.376 0 00-.3-.027c-.449.087-.89.204-1.323.351a.833.833 0 00-.36.198.843.843 0 00-.135.663c0 .129 0 .3-.12.345-.12.045-.234-.06-.3-.168-.111-.204-.138-.462-.318-.6a1.2 1.2 0 00-.426-.213 2.216 2.216 0 00-.441-.093c-.033-.114-.111-.447-.117-.465z" fill="#455A64"/><path d="M48.39 105.057c0 .504.05.768.132.849.464.287.959.519 1.476.693.255.021.3-.15.519.15.219.3.62 1.023 1.176 1.68.52.591 1.226.99 2 1.131a6.424 6.424 0 003.217-.159c1.164-.369 1.413-.84 1.377-1.281-.036-.441-9.897-3.063-9.897-3.063z" fill="#263238"/><path d="M48.498 101.4a.244.244 0 00-.16.231c0 .138.03.315.04.546.018.469-.021.938-.117 1.398a2.585 2.585 0 00.129 1.473c.432.327.9.441 1.398.69 1.437.729 1.536 1.869 2.48 2.634a3.654 3.654 0 002.065.843 8.49 8.49 0 002.385-.168c.528-.135 1.944-.702 1.605-1.482a1.061 1.061 0 00-.438-.429 22.926 22.926 0 01-2.004-1.386 16.676 16.676 0 01-2.142-2.121 7.713 7.713 0 01-1.317-2.07.401.401 0 00-.117-.186.382.382 0 00-.3-.027c-.45.087-.893.204-1.326.351a.849.849 0 00-.36.198.872.872 0 00-.135.663c0 .132 0 .3-.117.345-.117.045-.234-.06-.3-.168-.108-.204-.138-.462-.315-.6a1.286 1.286 0 00-.426-.231 1.324 1.324 0 00-.432-.075c-.03-.129-.096-.429-.096-.429zm-30.69-29.304c.099 3.639-.07 6.018 1.146 7.8 1.43 2.121 2.934 2.964 6.3 4.857 2.799 1.566 7.7 3.714 8.535 4.065.834.351.948 1.293 1.143 2.7.28 2.46.959 4.859 2.01 7.101a1875.39 1875.39 0 002.91 6.102c1.4-.083 2.77-.44 4.032-1.05 0 0-3.093-15.966-3.831-18.018-.738-2.052-9.036-8.634-9.036-8.634s2.214-2.331 1.917-5.286l-15.126.363z" fill="#455A64"/><path d="M51.645 49.932a2.89 2.89 0 00-2.121-2.007.6.6 0 00-.438.048.697.697 0 00-.216.402c-.22.8-.475 1.595-.765 2.385-.132.397-.285.787-.459 1.167-.048.093-.402.498-.402.54a5.328 5.328 0 00-.039-1.263.726.726 0 00-.789-.633c-.165.03-.072.426-.255 1.077-.237.828-.513 1.365-.543 2.289a1.466 1.466 0 01-.375.942c-1.128 1.233-4.236 3.717-6.411 5.178-1.242-1.14-2.7-3.264-4.416-5.4-2.127-2.64-2.904-3.624-6.438-3.468l.75 5.136c1.962 2.418 3.714 4.032 7.548 7.974.9.9 1.557 1.281 2.154 1.335.813.072 1.572-.582 2.316-1.2a92.013 92.013 0 004.866-4.383c2.121-2.079 4.884-4.647 5.814-7.104a4.644 4.644 0 00.219-3.015z" fill="#E39496"/><path d="M28.254 51.111c1.599-.066 2.739-.153 3.876.789 1.137.942 6.708 7.98 6.708 7.98l4.17-2.97s.774 2.199 2.604 3.129c0 0-3.687 3.774-5.382 5.007-1.695 1.233-2.328.777-3.543-.12-1.215-.897-7.707-7.8-7.707-7.8l-.726-6.015z" fill="#EBEBEB"/><path d="M38.838 59.88c-.984.6-1.572 2.304-1.572 2.304a4.008 4.008 0 011.227-2.739l.345.435zm4.17-2.97l1.596-1.392c.2.779.59 1.495 1.137 2.085a6.2 6.2 0 001.296 1.038l-1.425 1.398s-.69-.162-1.668-1.299-.936-1.83-.936-1.83z" fill="#E0E0E0"/><path d="M22.785 51.3s-3.258.327-4.5.6l-2.07 8.196 1.452 6.264-.12 8.1c2.22 2.4 14.124 1.014 15.402-2.73 0 0-.324-12.438-.468-14.9-.156-2.65-1.557-5.449-4.224-5.728l-5.472.198z" fill="#FAFAFA"/><path d="M26.175 53.979l.216-.621.969.126a1.341 1.341 0 01-1.107 1.365c-1.2.3-1.653-.582-1.653-.582l1.005-.831.57.543z" fill="#E0E0E0"/><path d="M19.815 40.365c.223-.23.51-.384.825-.444l-1.065-.579a.868.868 0 011.2-.393.936.936 0 01.402 1.2l.378 4.18.351-.034.147 2.43.045 2.025c-.978-.027-1.704-.984-2.262-4.25-.471-2.482-.588-3.556-.021-4.135zm12.06-1.389c.393-.483.741.04.654.642a2.505 2.505 0 01-1.419 1.99 61.063 61.063 0 00-.957-1.102l.774-.933c.353-.132.676-.336.948-.597z" fill="#263238"/><path d="M21.813 44.766a1.875 1.875 0 00-.624-1.02c-.321-.336-1.386-.6-1.908.513s.264 2.541 1.044 2.916a1.44 1.44 0 001.542-.165l-.021 4.815c2.046 1.8 3.915 1.2 4.332 2.154.228-1.014.969-.849.6-2.271v-1.563a11.96 11.96 0 001.83.195c.984-.03 1.707-.333 2.217-2.214.45-1.656.702-3.285.399-7.044-.315-3.936-5.268-3.777-7.731-2.226-2.463 1.551-1.68 5.91-1.68 5.91z" fill="#E39496"/><path d="M26.013 56.1c0 .975.558 7.362.327 13.77-.042 1.122 1.527 2.643 1.914 2.598.387-.045 1.365-1.839 1.479-3.084-.105-5.85-1.992-11.835-2.766-13.44l-.954.156z" fill="#459AE9"/><path opacity=".15" d="M27.042 56.1c-.027-.06-.051-.114-.075-.162l-.954.156v.384c.378.005.744-.13 1.029-.378z" fill="#000"/><path d="M25.428 54a3.77 3.77 0 001.437-.189c.255.197.435.475.51.789a2.19 2.19 0 01-.393 1.344 1.158 1.158 0 01-.954.156 4.01 4.01 0 01-.993-.783c.077-.453.21-.895.393-1.317z" fill="#459AE9"/><path d="M21.855 49.722c-.3.024-.495.3-.75.807-.3.585-.543 1.116-.543 1.116.074.858.452 1.66 1.065 2.265a7.5 7.5 0 003.3 1.875s.219-.966.369-1.41c.327-.972.9-.396.9-.396a1.14 1.14 0 00-.267-.576c-.21-.186-1.545-.3-2.613-.972a3.804 3.804 0 01-1.449-1.851l-.012-.858z" fill="#EBEBEB"/><path d="M26.175 53.979a1.108 1.108 0 01.282-.858 2.1 2.1 0 00.3-1.299v-1.461a.9.9 0 01.855.675c.228.564.642 1.713.453 2.838-.053.502-.18.993-.378 1.458a10.427 10.427 0 00-.543-1.161c-.318-.531-.723-.648-.969-.192z" fill="#EBEBEB"/><path d="M22.002 45.06a1.263 1.263 0 01-.189-.3c-.3-.618-.801-1.299-.9-1.995a4.676 4.676 0 010-1.14 29 29 0 01.081-.729 1.29 1.29 0 00-.057-.675c-.222-.693.075-1.461.492-2.019a3.279 3.279 0 011.575-1.107c1.104-.369 2.25-.162 3.381-.096a14.9 14.9 0 002.313-.102 4.367 4.367 0 002.058-.732.724.724 0 01.543-.186c.3.081.384.492.447.75.076.33.11.67.102 1.008a3.554 3.554 0 01-.6 1.902 3.165 3.165 0 01-1.929 1.293 5.222 5.222 0 01-2.238-.111c-.558-.129-1.107-.3-1.662-.435-.279-.069-.762-.249-1.047-.108.534 1.152-.396 2.1-1.263 2.298a7.496 7.496 0 01-.342 2.055 1.113 1.113 0 01-.162.369.416.416 0 01-.357.177.396.396 0 01-.246-.117z" fill="#263238"/><path d="M26.775 50.145s-2.058-.375-2.874-.807c-.546-.3-1.068-1.11-1.2-1.431a3.18 3.18 0 00.579 1.431c.6.762 3.495 1.428 3.495 1.428v-.621z" fill="#CF8A8C"/><path d="M26.6 44.124a.468.468 0 11-.467-.486.475.475 0 01.468.486zm-.62-1.575l-1.005.552a.6.6 0 01.23-.795.555.555 0 01.775.243z" fill="#263238"/><path d="M26.379 47.175l1.443.54a.756.756 0 01-.981.477.807.807 0 01-.462-1.017z" fill="#CF8A8C"/><path d="M30.63 42.9l-.9-.705a.554.554 0 01.795-.12.6.6 0 01.105.825zm-.198 1.08a.468.468 0 11-.468-.48.477.477 0 01.468.48z" fill="#263238"/><path d="M28.167 43.878l.156 2.814 1.467-.5-1.623-2.314z" fill="#CF8A8C"/><path d="M24.177 80.589a7.445 7.445 0 01-1.992-1.443c.471.1.952.148 1.434.141.678-.057.9-.498.9-.72 0-.174-.465-.135-1.152-.42-.879-.363-1.779-.948-2.814-1.11a1.547 1.547 0 01-.969-.522c-1.317-1.59-4.689-7.764-4.887-8.277 0 0 2.52-5.586 3.375-7.686 2.127-3.726 1.5-7.707.195-8.652-2.856.246-4.104 1.869-5.007 4.731-.789 2.508-2.958 7.659-3.516 10.74-.3 1.551-.186 2.244 1.971 5.223 1.152 1.596 2.541 3.174 4.275 5.565A36.237 36.237 0 0018.303 81c2.322 2.55 3.852 2.937 5.346 2.373 2.382-.906 2.226-1.917.528-2.784z" fill="#E39496"/><path d="M18.795 51.804c-1.119-.039-3.279-.075-4.665 2.328-1.386 2.403-3.051 7.869-3.804 10.326-.753 2.457-1.677 3.942-.234 6.042a61.945 61.945 0 003.84 4.941 4.637 4.637 0 013.081-2.979l-2.157-4.2 4.254-9.345c.45-1.376.643-2.823.57-4.269-.126-2.406-.885-2.844-.885-2.844z" fill="#EBEBEB"/><path d="M14.856 68.244c-.366-.6-1.725-.855-2.298-.768 0 0 1.119-.705 2.607.09l-.31.678zm-.924 7.191l1.227 1.581s1.023-2.145 3.075-2.511l-1.221-2.049s-.987-.087-2.04 1.083-1.041 1.896-1.041 1.896z" fill="#E0E0E0"/><path opacity=".2" d="M39.249 75.804a79.44 79.44 0 01-2.886-1.734l-10.665 6.156a.047.047 0 00-.027.027c-.018.03 0 .066.036.093l8.979 5.184a.232.232 0 00.11.024.2.2 0 00.115-.024l10.31-5.952c-1.946-1.482-4.547-2.955-5.972-3.774z" fill="#000"/><path d="M47.016 77.667v.216a.233.233 0 01-.108.183l-12.033 6.945a.24.24 0 01-.213 0l-8.61-4.974a.234.234 0 01-.108-.186v-.216a.238.238 0 01.108-.186l12.027-6.942a.228.228 0 01.216 0l8.613 4.974a.234.234 0 01.108.186z" fill="#459AE9"/><path opacity=".25" d="M47.016 77.667v.216a.233.233 0 01-.108.183l-12.033 6.945a.24.24 0 01-.213 0l-8.61-4.974a.234.234 0 01-.108-.186v-.216a.238.238 0 01.108-.186l12.027-6.942a.228.228 0 01.216 0l8.613 4.974a.234.234 0 01.108.186z" fill="#000"/><path opacity=".2" d="M26.037 79.461c-.042.033-.04.081 0 .111l8.616 4.977a.25.25 0 00.108.024v.465a.213.213 0 01-.108-.027l-8.601-4.974a.222.222 0 01-.105-.186v-.216a.235.235 0 01.09-.174z" fill="#000"/><path opacity=".15" d="M46.926 77.493l.015.015a.246.246 0 01.054.117.087.087 0 010 .027v.216a.234.234 0 01-.108.183l-12.012 6.96a.195.195 0 01-.105.027v-.465a.224.224 0 00.105-.024l12.027-6.945a.093.093 0 00.042-.042.063.063 0 000-.06l-.018-.009z" fill="#000"/><path d="M43.76 74.427c0-.081-.05-.159-.18-.234a.81.81 0 00-.38-.105h-.033c-.332.043-.66.11-.981.201h-.015a2.31 2.31 0 01-.84-.093h-.24c-.18.019-.363.019-.543 0a4.967 4.967 0 00-.33-.024h-.033a.439.439 0 00-.243.048l-.483.279v.159l3.6 2.1.483-.279a.141.141 0 00.08-.147v-.156a.705.705 0 00-.041-.207 1.33 1.33 0 01-.027-.117.91.91 0 00.015-.114v-.165a.169.169 0 000-.054c-.024-.084-.135-.168-.174-.3a.457.457 0 01.018-.042c.072-.174.345-.375.342-.57a4.31 4.31 0 00.006-.18zm-.743.462a.939.939 0 01-.261.099.71.71 0 01-.49-.036.235.235 0 01-.086-.084.457.457 0 01.195-.189.92.92 0 01.66-.102.7.7 0 01.09.039.213.213 0 01.087.084.455.455 0 01-.195.189z" fill="#263238"/><path d="M39.942 74.208l-.483.279 3.6 2.1.483-.279c.06-.036.123-.084.039-.351-.084-.267.018-.33-.021-.45-.04-.12-.264-.249-.156-.495.108-.246.6-.552.165-.804a.81.81 0 00-.381-.105h-.033c-.332.043-.66.11-.981.201h-.015a2.31 2.31 0 01-.84-.093h-.24c-.18.019-.363.019-.543 0a4.967 4.967 0 00-.33-.024h-.033a.438.438 0 00-.231.021zm2.979 1.869a.226.226 0 01.198-.018c.048.027.033.078-.03.114a.216.216 0 01-.198.018c-.048-.027-.033-.078.03-.114zm-.546-1.56c.2-.115.435-.15.66-.099.031.008.061.02.09.036.177.105.129.3-.108.435a.939.939 0 01-.261.099.71.71 0 01-.49-.036c-.191-.105-.128-.297.109-.435zm-2.241-.048a.226.226 0 01.198-.018c.048.027.036.078-.027.114a.224.224 0 01-.198.018c-.048-.027-.036-.078.027-.114z" fill="#37474F"/><path d="M35.109 83.793l-7.5-4.329a.144.144 0 01-.063-.111v-.084a.138.138 0 01.063-.111l9.9-5.718a.135.135 0 01.126 0l7.5 4.326a.154.154 0 01.063.114v.081a.141.141 0 01-.063.111l-9.9 5.721a.14.14 0 01-.126 0z" fill="#F5F5F5"/><path d="M27.597 79.17c-.021.021 0 .045.015.063l7.5 4.326c.019.012.04.018.063.018v.231a.148.148 0 01-.063-.015l-7.5-4.329a.135.135 0 01-.063-.111v-.084a.147.147 0 01.048-.099z" fill="#FAFAFA"/><path d="M45.156 77.778l.018.018a.07.07 0 01.018.033v.124a.14.14 0 01-.063.11l-9.9 5.721a.154.154 0 01-.066.015v-.23a.12.12 0 00.066-.019l9.9-5.718c.045-.009.048-.033.027-.054zm-8.206-3.063l-.086.051a.051.051 0 00-.039.05.051.051 0 00.039.049l6.018 3.474a.193.193 0 00.17 0l.09-.051c.046-.027.046-.069 0-.099l-6.02-3.474a.192.192 0 00-.171 0zm-.524.303l-.087.051a.051.051 0 000 .099l6.018 3.474a.174.174 0 00.17 0l.088-.048a.051.051 0 00.028-.08.052.052 0 00-.028-.019l-6.018-3.477a.193.193 0 00-.171 0zm-.522.303l-.087.051a.051.051 0 000 .1l6.018 3.473a.192.192 0 00.17 0l.088-.05a.05.05 0 00.038-.05.051.051 0 00-.038-.05l-6.018-3.474a.192.192 0 00-.171 0zm-1.161.669l-.087.051a.054.054 0 000 .099l6.021 3.474a.192.192 0 00.171 0l.087-.05a.054.054 0 00.032-.05.054.054 0 00-.032-.05l-6.021-3.474a.191.191 0 00-.171 0zm-.525.303l-.087.051a.051.051 0 000 .099l6.018 3.474a.19.19 0 00.17 0l.088-.051c.048-.027.048-.069 0-.096l-6.018-3.477a.193.193 0 00-.171 0zm-.522.303l-.087.051c-.048.027-.048.069 0 .099l6.018 3.474a.192.192 0 00.17 0l.088-.051a.05.05 0 00.028-.018.05.05 0 000-.063.051.051 0 00-.028-.018l-6.018-3.474a.193.193 0 00-.171 0zm-1.158.669l-.087.051c-.048.027-.048.069 0 .099l6.024 3.474a.192.192 0 00.17 0l.088-.051a.05.05 0 00.039-.05.051.051 0 00-.04-.049l-6.017-3.474a.192.192 0 00-.177 0zm-.528.303l-.087.051a.054.054 0 00-.033.05.054.054 0 00.033.05l6.018 3.473a.192.192 0 00.17 0l.09-.05a.054.054 0 00.033-.05.055.055 0 00-.032-.05l-6.027-3.474a.192.192 0 00-.165 0zm-.522.303l-.087.048c-.048.03-.048.072 0 .099l6.018 3.477a.193.193 0 00.17 0l.088-.051a.05.05 0 000-.099l-6.018-3.474a.192.192 0 00-.171 0zm-1.158.669l-.087.048c-.048.03-.048.072 0 .1l6.018 3.476a.192.192 0 00.17 0l.088-.05a.05.05 0 00.028-.082.051.051 0 00-.028-.018L30.5 78.54a.192.192 0 00-.171 0zm-.528.303l-.087.051c-.045.027-.045.069 0 .099l6.02 3.474a.192.192 0 00.172 0l.087-.051a.05.05 0 00.039-.05.051.051 0 00-.04-.049l-6.017-3.474a.199.199 0 00-.174 0zm-.522.303l-.087.048a.051.051 0 000 .1l6.018 3.476a.192.192 0 00.17 0l.088-.05a.05.05 0 00.028-.082.051.051 0 00-.028-.018l-6.018-3.474a.174.174 0 00-.171 0z" fill="#E0E0E0"/><path d="M42.42 76.413l-.534-.417a.314.314 0 01-.03-.045l.132-.12.414-.38a.112.112 0 00.042-.082v-.159a.168.168 0 00-.048-.108.41.41 0 01-.087-.204.315.315 0 01.099-.189.602.602 0 00-.114-.9.9.9 0 00-.408-.099h-.018a.924.924 0 00-.6.22.82.82 0 01-.4.152c-.12.02-.244.02-.365 0h-.084a.222.222 0 00-.171.054l-.357.333-.132.12a.328.328 0 01-.3.045 9.774 9.774 0 01-.6-.276.747.747 0 00-.3-.06.957.957 0 00-.43.108v.162l4.387 2.532a.358.358 0 00.084-.219v-.162a.435.435 0 00-.18-.306zm-.9-2.229a.6.6 0 01.576-.102l.063.027c.07.034.126.093.156.165a.283.283 0 01-.087.123.504.504 0 01-.174.102.601.601 0 01-.465-.027.3.3 0 01-.156-.165.32.32 0 01.075-.123h.012z" fill="#37474F"/><path d="M38.1 74.4l4.416 2.55c.12-.165.135-.333-.096-.54l-.534-.417s-.117-.129-.018-.219l.132-.123.414-.378s.096-.066 0-.189a.435.435 0 010-.555.42.42 0 00-.114-.726.9.9 0 00-.408-.099h-.018a.924.924 0 00-.6.22.82.82 0 01-.4.152c-.12.02-.244.02-.365 0h-.084a.222.222 0 00-.171.054l-.357.333-.132.12a.327.327 0 01-.3.045 9.774 9.774 0 01-.6-.276.747.747 0 00-.3-.06.956.956 0 00-.465.108zm3.984-.48l.063.027a.258.258 0 01.069.447.505.505 0 01-.174.102.601.601 0 01-.465-.027.258.258 0 01-.07-.447.6.6 0 01.568-.099l.009-.003z" fill="#455A64"/><path d="M36.294 111.12v12.915c0 .627-.444.987-.984 1.305l-1.359.786a1.31 1.31 0 01-1.062.21 3.001 3.001 0 01-.723-.3l-.03-.015-.072-.042-13.884-8.013a3.278 3.278 0 01-1.638-2.838v-11.763a.935.935 0 01.423-.729l2.31-1.338a.916.916 0 01.84 0l15.756 9.102a.903.903 0 01.423.729v-.009z" fill="#37474F"/><path d="M36.294 111.12v12.915c0 .627-.444.987-.984 1.305l-1.359.786a1.31 1.31 0 01-1.062.21 3.005 3.005 0 01-.723-.3c.54.252.966-.03.966-.669v-12.171a1.29 1.29 0 00-.186-.63l3.225-1.866a.901.901 0 01.123.42z" fill="#263238"/><path d="M33.132 113.196a1.41 1.41 0 00-.636-1.104L17.613 103.5c-.6-.339-1.071-.06-1.071.618v11.01a3.28 3.28 0 001.638 2.841l13.884 8.016c.6.339 1.068.06 1.068-.618v-12.171z" fill="#455A64"/><path d="M18.531 101.733l15.777 9.198a1.497 1.497 0 01.732 1.275v13.293l-.24.138V112.2a1.244 1.244 0 00-.6-1.068l-15.9-9.267.231-.132z" fill="#459AE9"/><path opacity=".4" d="M34.842 111.471c.129.224.197.477.198.735v13.293l-.24.138V112.2a1.242 1.242 0 00-.165-.6l.207-.129z" fill="#000"/><path opacity=".3" d="M34.635 111.6a1.259 1.259 0 00-.45-.453l-15.9-9.267.24-.138 15.777 9.198c.221.131.405.317.534.54" fill="#000"/><path d="M25.275 102.687v2.013l-.783.453v-2.655c0-.138.096-.192.213-.126l.57.315z" fill="#459AE9"/><path opacity=".4" d="M25.275 102.687v2.013l-.783.453v-2.655c0-.138.096-.192.213-.126l.57.315z" fill="#000"/><path d="M30.762 104.661v3.24l-.747.432-.501-.3v-2.658a.474.474 0 00-.216-.369l-3.81-2.199-.792-.459c-.117-.066-.213 0-.213.126v2.655l-.504-.3v-3.261a.486.486 0 01.213-.33l.318-.183a.47.47 0 01.429 0l5.607 3.237a.474.474 0 01.216.369z" fill="#459AE9"/><path opacity=".15" d="M30.762 104.661v3.24l-.747.432-.501-.3v-2.658a.474.474 0 00-.216-.369l-3.81-2.199-.792-.459c-.117-.066-.213 0-.213.126v2.655l-.504-.3v-3.261a.486.486 0 01.213-.33l.318-.183a.47.47 0 01.429 0l5.607 3.237a.474.474 0 01.216.369z" fill="#000"/><path opacity=".15" d="M30.015 105.096v3.237l-.501-.3v-2.658a.474.474 0 00-.216-.369l-3.81-2.199-.792-.459c-.117-.066-.213 0-.213.126v2.655l-.504-.3v-3.261c.021-.105.108-.141.213-.081l5.607 3.237a.484.484 0 01.216.372z" fill="#000"/><path d="M42.19 42.753l-1.183-.681a.105.105 0 01-.054-.048l-.216-.381.7-.402-.022.06.774 1.452z" fill="#459AE9"/><path opacity=".2" d="M42.19 42.753l-1.183-.681a.105.105 0 01-.054-.048l-.216-.381.7-.402-.022.06.774 1.452z" fill="#000"/><path d="M41.331 41.298l.816 1.413a.12.12 0 00.18.035.12.12 0 00.04-.056l.863-2.49-1.899 1.098z" fill="#459AE9"/><path d="M51.015 30.9a1.266 1.266 0 00-.57-.99l-.465-.267a1.257 1.257 0 00-1.143 0l-10.962 6.324a1.264 1.264 0 00-.57.987v4.16a1.256 1.256 0 00.57.988l.465.27a1.251 1.251 0 001.14 0L50.496 36a.9.9 0 00.52-.948V30.9z" fill="#459AE9"/><path opacity=".2" d="M37.3 41.115a1.257 1.257 0 00.57.987l.464.27a1.275 1.275 0 001.044.048c-.27.102-.474-.051-.474-.378V37.88c.007-.198.065-.392.168-.561l-1.605-.927c-.103.17-.161.363-.168.56v4.162z" fill="#000"/><path opacity=".4" d="M50.997 30.726c-.069-.243-.3-.321-.552-.168L39.474 36.9a1.148 1.148 0 00-.399.42l-1.605-.927c.097-.173.235-.32.402-.426l10.968-6.336a1.278 1.278 0 011.143 0l.465.27a1.257 1.257 0 01.549.825z" fill="#fff"/><path d="M40.431 38.1c0 .216.165.3.363.183l5.307-3.069a.781.781 0 00.363-.6c0-.216-.162-.3-.363-.183L40.794 37.5a.771.771 0 00-.363.6zm0 2.049c0 .216.165.3.363.183l8.181-4.74a.771.771 0 00.363-.6c0-.216-.162-.3-.363-.183l-8.18 4.74a.771.771 0 00-.364.6z" fill="#FAFAFA"/><path d="M47.697 25.944l-1.179-.681a.11.11 0 01-.057-.048l-.216-.381.7-.402-.022.06.774 1.452z" fill="#459AE9"/><path opacity=".2" d="M47.697 25.944l-1.179-.681a.11.11 0 01-.057-.048l-.216-.381.7-.402-.022.06.774 1.452z" fill="#000"/><path d="M46.84 24.489l.815 1.413a.123.123 0 00.222-.021l.861-2.49-1.899 1.098z" fill="#459AE9"/><path d="M56.523 14.079a1.256 1.256 0 00-.57-.987l-.465-.27a1.251 1.251 0 00-1.14 0l-10.97 6.336a1.263 1.263 0 00-.57.987V24.3a1.266 1.266 0 00.57.99l.464.267a1.257 1.257 0 001.143 0L56.007 19.2a.882.882 0 00.516-.948v-4.173z" fill="#459AE9"/><path opacity=".2" d="M42.807 24.3a1.266 1.266 0 00.57.99l.465.267a1.279 1.279 0 001.044.048c-.267.102-.474-.051-.474-.378v-4.152a1.2 1.2 0 01.168-.564l-1.605-.927c-.103.17-.161.363-.168.561V24.3z" fill="#000"/><path opacity=".4" d="M56.505 13.917c-.066-.243-.3-.321-.552-.168l-10.968 6.35c-.17.104-.309.251-.402.427l-1.608-.942a1.2 1.2 0 01.402-.426l10.968-6.336a1.278 1.278 0 011.143 0l.465.27a1.258 1.258 0 01.552.825z" fill="#fff"/><path d="M45.942 21.3c0 .216.162.3.363.183l5.304-3.07a.78.78 0 00.363-.6c0-.215-.162-.3-.363-.182L46.305 20.7a.771.771 0 00-.363.6zm0 2.04c0 .216.162.3.363.183l8.178-4.74a.77.77 0 00.363-.6c0-.216-.162-.3-.363-.183l-8.178 4.737a.77.77 0 00-.363.603z" fill="#FAFAFA"/><path d="M99.054 21.6l1.2-.699a.106.106 0 00.054-.051l.219-.39-.705-.417.021.063-.789 1.494z" fill="#459AE9"/><path d="M99.054 21.6l1.2-.699a.106.106 0 00.054-.051l.219-.39-.705-.417.021.063-.789 1.494z" fill="#263238"/><path d="M99.918 20.1l-.822 1.455a.123.123 0 01-.222-.021l-.867-2.565 1.911 1.131z" fill="#37474F"/><path d="M90.177 9.41a1.295 1.295 0 01.573-1.01l.468-.276a1.248 1.248 0 011.146 0l11.034 6.519a1.3 1.3 0 01.576 1.017v4.245a1.3 1.3 0 01-.576 1.017l-.468.276a1.229 1.229 0 01-1.146 0l-11.1-6.558a.9.9 0 01-.522-.975l.015-4.254z" fill="#37474F"/><path d="M103.974 19.905a1.3 1.3 0 01-.576 1.017l-.468.276a1.258 1.258 0 01-1.05.051c.273.105.477-.054.477-.39v-4.254a1.195 1.195 0 00-.168-.576l1.617-.954c.103.176.161.375.168.579v4.251z" fill="#263238"/><path d="M90.195 9.243c.066-.249.3-.327.555-.171l11.025 6.528c.171.108.311.259.405.438l1.614-.954a1.168 1.168 0 00-.405-.438L92.367 8.118a1.254 1.254 0 00-1.149 0l-.468.276a1.293 1.293 0 00-.555.849z" fill="#455A64"/><path d="M98.538 15.324c0 .192-.14.264-.3.162l-6.189-3.66a.692.692 0 01-.3-.534c0-.192.141-.267.3-.162l6.19 3.66a.694.694 0 01.3.534zm2.487 3.645c0 .192-.141.264-.3.162l-8.69-5.14a.693.693 0 01-.3-.533c0-.192.14-.264.3-.162l8.678 5.139a.693.693 0 01.312.534z" fill="#F0F0F0"/><path d="M104.562 38.415l1.2-.702a.127.127 0 00.057-.051l.216-.39-.705-.414.024.063-.792 1.494z" fill="#459AE9"/><path d="M104.562 38.415l1.2-.702a.127.127 0 00.057-.051l.216-.39-.705-.414.024.063-.792 1.494z" fill="#263238"/><path d="M105.426 36.915l-.822 1.455a.12.12 0 01-.222-.021l-.867-2.562 1.911 1.128z" fill="#37474F"/><path d="M95.685 26.232a1.307 1.307 0 01.573-1.017l.468-.273a1.236 1.236 0 011.15 0l11.033 6.516a1.311 1.311 0 01.573 1.017v4.254a1.31 1.31 0 01-.573 1.017l-.468.276a1.255 1.255 0 01-1.149 0l-11.1-6.558a.9.9 0 01-.519-.978l.012-4.254z" fill="#37474F"/><path d="M109.482 36.729a1.31 1.31 0 01-.573 1.017l-.468.276a1.255 1.255 0 01-1.05.048c.27.105.474-.054.474-.387v-4.254a1.206 1.206 0 00-.168-.579l1.617-.954c.103.176.16.375.168.579v4.254z" fill="#263238"/><path d="M95.703 26.067c.066-.249.3-.33.555-.174l11.034 6.507c.171.108.311.259.405.438l1.614-.951a1.168 1.168 0 00-.405-.438l-11.03-6.507a1.253 1.253 0 00-1.15 0l-.468.276a1.296 1.296 0 00-.555.849z" fill="#455A64"/><path d="M104.046 32.145c0 .192-.141.264-.315.162l-6.189-3.66a.694.694 0 01-.315-.534c0-.192.141-.264.315-.162l6.189 3.66a.7.7 0 01.315.534zm2.49 3.645c0 .192-.141.267-.315.165l-8.679-5.139a.696.696 0 01-.315-.534c0-.192.141-.267.315-.162l8.679 5.136a.691.691 0 01.315.534z" fill="#F0F0F0"/></svg>