<svg width="184" height="60" fill="none" xmlns="http://www.w3.org/2000/svg"><g clip-path="url(#clip0_971_43)"><path d="M6.668 47.84H.815V12.212h20.373v4.922H6.668v11.137h13.607v4.947H6.668V47.84zm42.451 0l-3.605-9.894H31.709l-3.531 9.894h-6.223l13.508-35.774h6.42l13.51 35.774H49.12zm-5.161-14.914l-3.383-9.7c-.247-.65-.593-1.673-1.037-3.07-.428-1.397-.725-2.42-.89-3.07-.444 1.998-1.094 4.183-1.95 6.555l-3.26 9.285h10.52zM86.706 47.84h-6.84L68.53 31.707l-3.482 2.803v13.33h-5.902V12.212h5.902v17.01a221.725 221.725 0 014.816-5.63l9.754-11.38h6.718c-6.306 7.31-10.825 12.518-13.558 15.62L86.706 47.84zm16.25 0h-5.902V17.208H86.435v-4.996h27.14v4.996h-10.619V47.84zm47.218-17.863c0 5.8-1.473 10.308-4.42 13.525-2.931 3.217-7.088 4.825-12.472 4.825-5.449 0-9.639-1.592-12.569-4.776-2.914-3.2-4.371-7.742-4.371-13.623 0-5.88 1.465-10.397 4.395-13.55 2.947-3.15 7.146-4.727 12.595-4.727 5.367 0 9.516 1.6 12.446 4.801 2.931 3.2 4.396 7.709 4.396 13.525zm-27.56 0c0 4.387.897 7.717 2.692 9.991 1.795 2.259 4.453 3.388 7.976 3.388 3.507 0 6.15-1.121 7.928-3.363 1.794-2.242 2.691-5.58 2.691-10.016 0-4.37-.889-7.684-2.667-9.943-1.761-2.258-4.395-3.387-7.902-3.387-3.54 0-6.215 1.13-8.026 3.387-1.795 2.259-2.692 5.573-2.692 9.943zm40.205-1.194h4.098c2.75 0 4.742-.504 5.978-1.511 1.234-1.007 1.852-2.502 1.852-4.484 0-2.015-.667-3.46-2.001-4.338-1.334-.877-3.343-1.316-6.025-1.316h-3.902v11.649zm0 4.825V47.84h-5.903V12.212h10.2c4.658 0 8.108.86 10.346 2.583 2.24 1.722 3.359 4.321 3.359 7.798 0 4.435-2.338 7.595-7.013 9.48l10.199 15.767h-6.717l-8.644-14.232h-5.827z" fill="#0E1557"/><path d="M36.849 59.38l-.654-1.793h-2.502l-.64 1.794h-1.128l2.449-6.484h1.163l2.449 6.484h-1.137zm-.936-2.702L35.3 54.92a12.966 12.966 0 01-.35-1.113 9.81 9.81 0 01-.353 1.188l-.59 1.683h1.906zm6.501-3.755v.906h-2.816v5.552h-1.07v-6.458h3.886zm4.446 6.458h-3.702v-6.458h3.702v.892h-2.632v1.758h2.466v.884h-2.466v2.027h2.632v.897zm6.259 0h-1.074V56.47h-3.017v2.91h-1.07v-6.457h1.07v2.642h3.017v-2.642h1.074v6.458zm3.663 0h-1.07v-5.552h-1.925v-.906h4.92v.906h-1.925v5.552zm5.395-5.645c-.615 0-1.099.215-1.45.645-.353.43-.529 1.023-.529 1.78 0 .792.169 1.391.506 1.797.34.407.83.61 1.472.61.278 0 .547-.026.806-.08.26-.055.53-.126.81-.212v.906c-.513.191-1.095.287-1.745.287-.958 0-1.694-.286-2.207-.857-.513-.574-.77-1.394-.77-2.46 0-.671.124-1.259.372-1.762a2.66 2.66 0 011.083-1.158c.471-.268 1.025-.402 1.66-.402a4.16 4.16 0 011.853.416l-.384.879a5.498 5.498 0 00-.703-.27 2.492 2.492 0 00-.775-.12zm4.965 5.645h-1.07v-5.552h-1.925v-.906h4.92v.906h-1.925v5.552zm2.61-6.458h1.943c.902 0 1.552.13 1.952.389.402.259.604.668.604 1.228 0 .377-.098.69-.295.94-.197.25-.48.408-.85.473v.044c.459.086.796.255 1.01.508.219.25.327.59.327 1.02 0 .58-.205 1.036-.617 1.365-.409.327-.979.49-1.71.49h-2.363v-6.457zm1.07 2.668h1.03c.447 0 .774-.07.98-.208.206-.14.309-.38.309-.715 0-.303-.112-.523-.336-.658-.22-.136-.573-.203-1.056-.203h-.927v1.784zm0 .857v2.045h1.137c.448 0 .785-.084 1.012-.252.23-.17.345-.439.345-.804 0-.335-.117-.584-.35-.746-.232-.162-.586-.243-1.06-.243h-1.084zm10.471-.305c0 1.051-.267 1.868-.801 2.451-.531.584-1.285.875-2.26.875-.988 0-1.748-.288-2.279-.866-.528-.58-.792-1.403-.792-2.469 0-1.066.266-1.884.797-2.456.534-.57 1.295-.856 2.282-.856.973 0 1.725.29 2.257.87.53.58.796 1.397.796 2.451zm-4.995 0c0 .795.163 1.399.488 1.811.325.41.807.614 1.446.614.635 0 1.114-.203 1.436-.61.326-.406.488-1.01.488-1.815 0-.792-.16-1.393-.483-1.802-.32-.41-.797-.614-1.433-.614-.641 0-1.126.205-1.454.614-.325.41-.488 1.01-.488 1.802zm13.3 3.238h-1.073V56.47h-3.017v2.91h-1.07v-6.457h1.07v2.642h3.017v-2.642h1.074v6.458zm5.105 0H91v-6.458h3.702v.892H92.07v1.758h2.466v.884H92.07v2.027h2.632v.897zm5.431-4.506c0 .675-.224 1.191-.672 1.55-.447.36-1.084.54-1.91.54h-.681v2.416H95.8v-6.458h1.884c.818 0 1.43.165 1.835.495.41.33.614.816.614 1.457zm-3.263 1.202h.568c.55 0 .952-.094 1.209-.283.256-.188.385-.483.385-.883 0-.371-.115-.648-.345-.83-.23-.183-.588-.274-1.074-.274h-.743v2.27zm9.226-3.154l-2.063 4.594c-.254.562-.487.97-.699 1.223a1.95 1.95 0 01-.738.552c-.278.118-.615.177-1.012.177-.346 0-.667-.044-.962-.132v-.95c.292.115.598.172.917.172.272 0 .499-.065.681-.194.185-.133.352-.37.501-.711l-2.412-4.73h1.154l1.598 3.237c.144.306.232.51.264.614h.045c.018-.077.063-.199.135-.367l1.472-3.485h1.119zm5.368 6.458h-1.231l-1.638-2.642-1.652 2.642h-1.145l2.17-3.348-2.032-3.11h1.191l1.513 2.443 1.513-2.443h1.154l-2.045 3.127 2.202 3.33zm6.371-3.238c0 1.051-.267 1.868-.801 2.451-.532.584-1.285.875-2.261.875-.987 0-1.747-.288-2.278-.866-.528-.58-.792-1.403-.792-2.469 0-1.066.265-1.884.797-2.456.534-.57 1.295-.856 2.282-.856.973 0 1.725.29 2.256.87.531.58.797 1.397.797 2.451zm-4.995 0c0 .795.162 1.399.488 1.811.325.41.807.614 1.445.614.636 0 1.115-.203 1.437-.61.325-.406.488-1.01.488-1.815 0-.792-.161-1.393-.483-1.802-.32-.41-.797-.614-1.433-.614-.641 0-1.126.205-1.454.614-.326.41-.488 1.01-.488 1.802zm8.908 3.238l-1.897-5.393h-.036c.05.8.076 1.551.076 2.252v3.14h-.971v-6.457h1.508l1.817 5.137h.027l1.871-5.137h1.513v6.458h-1.03v-3.194c0-.32.008-.739.023-1.254.018-.516.033-.828.044-.936h-.035l-1.965 5.384h-.945zm11.12-3.238c0 1.051-.267 1.868-.801 2.451-.531.584-1.285.875-2.261.875-.987 0-1.747-.288-2.278-.866-.528-.58-.792-1.403-.792-2.469 0-1.066.266-1.884.797-2.456.534-.57 1.295-.856 2.282-.856.973 0 1.725.29 2.256.87.531.58.797 1.397.797 2.451zm-4.995 0c0 .795.163 1.399.488 1.811.325.41.807.614 1.445.614.636 0 1.115-.203 1.437-.61.326-.406.488-1.01.488-1.815 0-.792-.161-1.393-.483-1.802-.32-.41-.797-.614-1.433-.614-.641 0-1.126.205-1.454.614-.325.41-.488 1.01-.488 1.802zm8.864-2.407c-.615 0-1.098.215-1.451.645-.352.43-.528 1.023-.528 1.78 0 .792.169 1.391.506 1.797.34.407.831.61 1.473.61.277 0 .546-.026.805-.08.26-.055.53-.126.811-.212v.906c-.514.191-1.096.287-1.746.287-.958 0-1.694-.286-2.207-.857-.513-.574-.77-1.394-.77-2.46 0-.671.124-1.259.372-1.762.25-.504.612-.89 1.083-1.158.472-.268 1.025-.402 1.661-.402.668 0 1.286.139 1.853.416l-.385.879a5.496 5.496 0 00-.703-.27 2.495 2.495 0 00-.774-.12zm4.965 5.645h-1.07v-5.552h-1.924v-.906h4.919v.906h-1.925v5.552zm2.611 0v-6.458h1.07v6.458h-1.07z" fill="#978B50"/><path d="M18.596 59.016h11.323m-10.344-7.712v6.957m137.999-6.957v7.5m-9.787.212h10.766M18.596.984h139.957m-138.978 0v7.868M157.574.984v7.868" stroke="#21CEB9" stroke-width="2"/></g><defs><clipPath id="clip0_971_43"><path fill="#fff" d="M0 0h184v60H0z"/></clipPath></defs></svg>