<svg width="198" height="65" fill="none" xmlns="http://www.w3.org/2000/svg"><g clip-path="url(#clip0_923_16)"><path d="M7.852 51.826H1.577V13.23h21.845v5.333H7.852v12.065h14.59v5.36H7.852v15.84zm45.52 0l-3.866-10.718H34.704l-3.787 10.718h-6.673l14.484-38.755h6.885l14.484 38.755h-6.725zM47.837 35.67L44.21 25.162c-.265-.704-.636-1.813-1.112-3.326-.46-1.514-.777-2.623-.953-3.327-.477 2.165-1.175 4.532-2.093 7.102l-3.495 10.058h11.28zm45.838 16.157H86.34L74.186 34.35l-3.734 3.036v14.441h-6.329V13.23h6.33v18.428a239.514 239.514 0 015.163-6.099l10.46-12.329h7.202C86.516 21.15 81.67 26.79 78.74 30.152l14.935 21.674zm17.424 0h-6.328V18.641H93.385V13.23h29.1v5.412h-11.386v33.185zm50.63-19.351c0 6.283-1.579 11.167-4.74 14.652-3.142 3.485-7.599 5.227-13.372 5.227-5.843 0-10.336-1.725-13.478-5.174-3.124-3.468-4.687-8.387-4.687-14.758 0-6.371 1.571-11.264 4.714-14.678 3.159-3.415 7.661-5.122 13.504-5.122 5.755 0 10.204 1.734 13.346 5.2 3.142 3.468 4.713 8.352 4.713 14.653zm-29.551 0c0 4.752.962 8.36 2.886 10.824 1.925 2.446 4.775 3.67 8.553 3.67 3.76 0 6.594-1.215 8.5-3.644 1.924-2.429 2.886-6.045 2.886-10.85 0-4.735-.953-8.325-2.859-10.771-1.889-2.447-4.714-3.67-8.474-3.67-3.795 0-6.664 1.223-8.606 3.67-1.924 2.446-2.886 6.037-2.886 10.77zm43.11-1.294h4.394c2.949 0 5.085-.545 6.41-1.637 1.323-1.09 1.986-2.71 1.986-4.857 0-2.183-.715-3.749-2.145-4.7-1.431-.95-3.585-1.425-6.461-1.425h-4.184v12.62zm0 5.227v15.418h-6.33V13.23h10.938c4.994 0 8.694.933 11.093 2.799 2.402 1.865 3.602 4.681 3.602 8.448 0 4.804-2.507 8.228-7.52 10.27l10.936 17.08h-7.202l-9.269-15.418h-6.248z" fill="#0E1557"/><path d="M40.215 64.33l-.7-1.944H36.83l-.686 1.943h-1.21l2.626-7.024h1.248l2.625 7.024h-1.22zm-1.003-2.93l-.658-1.904a14.238 14.238 0 01-.374-1.206c-.086.393-.213.822-.38 1.288l-.633 1.823h2.045zm6.97-4.067v.981h-3.019v6.015h-1.147v-6.996h4.166zm4.767 6.996H46.98v-6.996h3.97v.967h-2.823v1.904h2.645v.957h-2.645v2.197h2.822v.971zm6.712 0h-1.152v-3.153h-3.235v3.153h-1.147v-6.996h1.147v2.862h3.235v-2.862h1.152v6.996zm3.927 0h-1.147v-6.015h-2.064v-.98h5.275v.98h-2.064v6.015zm5.785-6.115c-.66 0-1.178.233-1.555.698-.378.466-.567 1.109-.567 1.929 0 .858.181 1.507.543 1.947.365.44.89.66 1.579.66.297 0 .585-.028.864-.086.278-.06.568-.137.868-.23v.982c-.55.207-1.174.31-1.871.31-1.027 0-1.816-.309-2.366-.928-.55-.622-.826-1.51-.826-2.665 0-.727.133-1.363.398-1.909a2.87 2.87 0 011.162-1.254c.505-.29 1.099-.435 1.78-.435.717 0 1.38.15 1.987.45l-.412.952a5.846 5.846 0 00-.754-.292 2.649 2.649 0 00-.83-.13zm5.324 6.115H71.55v-6.015h-2.064v-.98h5.275v.98h-2.064v6.015zm2.8-6.996h2.083c.966 0 1.663.14 2.092.422.432.28.648.724.648 1.33 0 .408-.105.748-.317 1.019-.211.271-.515.442-.912.512v.048c.493.092.855.276 1.085.55.233.271.35.64.35 1.105 0 .629-.22 1.122-.662 1.479-.438.354-1.05.531-1.833.531h-2.534v-6.996zm1.147 2.89h1.103c.48 0 .83-.075 1.052-.224.22-.154.33-.412.33-.776 0-.328-.12-.566-.36-.713-.236-.146-.614-.22-1.132-.22h-.993v1.934zm0 .929v2.215h1.219c.48 0 .841-.09 1.084-.273.247-.184.37-.475.37-.87 0-.364-.125-.634-.374-.809-.25-.175-.63-.263-1.138-.263h-1.161zm11.227-.33c0 1.138-.286 2.024-.86 2.655-.569.632-1.377.948-2.423.948-1.059 0-1.873-.313-2.443-.938-.566-.629-.85-1.52-.85-2.675 0-1.155.286-2.042.855-2.66.573-.62 1.389-.929 2.448-.929 1.043 0 1.85.315 2.419.943.57.628.854 1.514.854 2.656zm-5.356 0c0 .861.174 1.515.523 1.962.349.443.865.665 1.55.665.682 0 1.195-.22 1.54-.66.35-.441.524-1.096.524-1.967 0-.858-.173-1.51-.518-1.953-.343-.443-.855-.665-1.536-.665-.688 0-1.208.222-1.56.665-.349.444-.523 1.095-.523 1.953zm14.262 3.507h-1.152v-3.153H92.39v3.153h-1.147v-6.996h1.147v2.862h3.235v-2.862h1.152v6.996zm5.473 0h-3.97v-6.996h3.97v.967h-2.822v1.904h2.644v.957h-2.644v2.197h2.822v.971zm5.823-4.88c0 .73-.24 1.29-.72 1.679-.48.39-1.163.584-2.049.584h-.73v2.617h-1.147v-6.996h2.021c.877 0 1.532.179 1.968.536.438.358.657.884.657 1.58zm-3.499 1.3h.61c.589 0 1.021-.101 1.296-.305.275-.205.412-.524.412-.957 0-.402-.123-.702-.369-.9-.247-.198-.63-.297-1.152-.297h-.797v2.46zm9.893-3.416l-2.212 4.977c-.272.61-.522 1.05-.749 1.325-.227.271-.491.47-.792.598-.297.128-.659.192-1.084.192a3.54 3.54 0 01-1.032-.144v-1.029c.313.125.641.187.984.187.291 0 .534-.07.729-.21.199-.144.378-.4.538-.77l-2.587-5.126h1.238l1.713 3.508c.154.331.248.553.284.665h.048c.019-.083.067-.215.144-.397l1.579-3.776h1.199zm5.757 6.996h-1.32l-1.757-2.861-1.771 2.861h-1.229l2.328-3.627-2.179-3.369h1.277l1.622 2.647 1.622-2.647h1.238l-2.193 3.388 2.362 3.608zm6.831-3.507c0 1.138-.287 2.024-.86 2.655-.569.632-1.377.948-2.423.948-1.059 0-1.874-.313-2.443-.938-.567-.629-.85-1.52-.85-2.675 0-1.155.285-2.042.855-2.66.572-.62 1.388-.929 2.447-.929 1.043 0 1.85.315 2.419.943.57.628.855 1.514.855 2.656zm-5.357 0c0 .861.175 1.515.524 1.962.348.443.865.665 1.55.665.681 0 1.195-.22 1.54-.66.349-.441.524-1.096.524-1.967 0-.858-.173-1.51-.519-1.953-.342-.443-.854-.665-1.536-.665-.687 0-1.207.222-1.559.665-.349.444-.524 1.095-.524 1.953zm9.553 3.507l-2.035-5.842h-.039c.055.867.082 1.68.082 2.44v3.402h-1.041v-6.996h1.617l1.949 5.565h.028l2.007-5.565h1.622v6.996h-1.104v-3.46c0-.347.008-.8.024-1.358.019-.559.035-.897.048-1.015h-.038l-2.108 5.833h-1.012zm11.923-3.507c0 1.138-.286 2.024-.859 2.655-.57.632-1.377.948-2.424.948-1.059 0-1.873-.313-2.443-.938-.566-.629-.849-1.52-.849-2.675 0-1.155.285-2.042.854-2.66.573-.62 1.389-.929 2.448-.929 1.043 0 1.849.315 2.419.943.569.628.854 1.514.854 2.656zm-5.356 0c0 .861.174 1.515.523 1.962.349.443.866.665 1.55.665.682 0 1.195-.22 1.541-.66.349-.441.523-1.096.523-1.967 0-.858-.173-1.51-.518-1.953-.343-.443-.855-.665-1.536-.665-.688 0-1.208.222-1.56.665-.349.444-.523 1.095-.523 1.953zm9.504-2.608c-.659 0-1.177.233-1.555.698-.377.466-.566 1.109-.566 1.929 0 .858.181 1.507.542 1.947.365.44.891.66 1.579.66.298 0 .586-.028.864-.086.279-.06.568-.137.869-.23v.982c-.55.207-1.174.31-1.872.31-1.027 0-1.816-.309-2.366-.928-.55-.622-.825-1.51-.825-2.665 0-.727.132-1.363.398-1.909a2.873 2.873 0 011.161-1.254c.506-.29 1.099-.435 1.781-.435.717 0 1.379.15 1.987.45l-.413.952a5.886 5.886 0 00-.753-.292 2.657 2.657 0 00-.831-.13zm5.324 6.115h-1.147v-6.015h-2.063v-.98h5.274v.98h-2.064v6.015zm2.8 0v-6.996h1.147v6.996h-1.147z" fill="#978B50"/><path d="M21 64h12.142M22 56v7.536m148-7.956v8.125M159 64h12M21 1h150M22 .969v8.448M170 1v8.478" stroke="#21CEB9" stroke-width="2"/></g><defs><clipPath id="clip0_923_16"><path fill="#fff" d="M0 0h198v65H0z"/></clipPath></defs></svg>