<svg width="151" height="150" fill="none" xmlns="http://www.w3.org/2000/svg"><path d="M23.423 71.586c-28.554 16.485-28.551 43.2 0 59.7 28.55 16.5 74.847 16.485 103.401 0 28.554-16.485 28.551-43.2 0-59.7s-74.847-16.485-103.401 0z" fill="#FAFAFA"/><path d="M26.18 133.413c9.21 0 16.677-4.312 16.677-9.63 0-5.319-7.467-9.63-16.677-9.63s-16.677 4.311-16.677 9.63c0 5.318 7.466 9.63 16.677 9.63zm51.945-25.182l34.74 20.082a.494.494 0 00.459 0l21.9-12.642c.126-.075.126-.192 0-.264l-34.752-20.085a.509.509 0 00-.456 0l-21.9 12.645c-.114.072-.114.189.009.264zm33.63-22.959l-55.293 31.923a2.874 2.874 0 01-2.598 0l-16.266-9.393c-.717-.414-.717-1.086 0-1.5l55.29-31.92a2.87 2.87 0 012.598 0l16.269 9.39c.717.414.717 1.086 0 1.5z" fill="#E0E0E0"/><path d="M123.233 116.652l22.5-12.765c.453-.258.456-.678 0-.942l-21.855-12.813a1.804 1.804 0 00-1.629 0L99.755 102.9c-.45.258-.453.678 0 .942l21.855 12.813a1.803 1.803 0 001.623-.003z" fill="#E0E0E0"/><path d="M95.252 74.955l1.062-.6s5.64-18.396 6.165-19.46c.525-1.066-.423-1.612-1.44-1.027l-52.938 30.51c-1.014.6-1.335 1.392-2.238 3.147s-6 18.66-6 18.66a.945.945 0 00.456.993l12.051 6.981L107.747 82.2l-12.495-7.245z" fill="#459AE9"/><path opacity=".35" d="M95.252 74.955l1.062-.6s5.64-18.396 6.165-19.46c.525-1.066-.423-1.612-1.44-1.027l-52.938 30.51c-1.014.6-1.335 1.392-2.238 3.147s-6 18.66-6 18.66a.945.945 0 00.456.993l12.051 6.981L107.747 82.2l-12.495-7.245z" fill="#fff"/><path d="M46.53 87.951c-.688 1.329-6 18.6-6 18.6l56.456-32.598s5.598-17.553 6.159-18.651c.561-1.098-.426-1.611-1.44-1.023L48.767 84.804c-1.017.585-1.542 1.815-2.238 3.147z" fill="#459AE9"/><path opacity=".15" d="M46.53 87.951c-.688 1.329-6 18.6-6 18.6l56.456-32.598s5.598-17.553 6.159-18.651c.561-1.098-.426-1.611-1.44-1.023L48.767 84.804c-1.017.585-1.542 1.815-2.238 3.147z" fill="#000"/><path d="M95.912 74.577l-55.374 31.968 12.264 7.08 55.371-31.968-12.26-7.08z" fill="#459AE9"/><path d="M99.767 34.26l-53.35 30.744c-1.17.675-1.532 1.767-1.328 3.207l6.315 44.307c.204 1.44 1.353 2.283 2.523 1.608l52.875-30.516c1.17-.675 1.95-2.4 1.743-3.831l-6.3-44.133c-.195-1.446-1.32-2.046-2.478-1.386z" fill="#459AE9"/><path opacity=".35" d="M99.767 34.26l-53.35 30.744c-1.17.675-1.532 1.767-1.328 3.207l6.315 44.307c.204 1.44 1.353 2.283 2.523 1.608l52.875-30.516c1.17-.675 1.95-2.4 1.743-3.831l-6.3-44.133c-.195-1.446-1.32-2.046-2.478-1.386z" fill="#fff"/><path d="M103.361 35.199a1.649 1.649 0 00-1.437.18L49.046 65.895a3.553 3.553 0 00-1.35 1.548l-1.704-.723c.375-.819 1.029-1.119 1.59-1.446l52.872-30.516a1.625 1.625 0 011.5-.153l1.407.594z" fill="#455A64"/><path d="M53.117 114.57c-.522-.213-.9-.759-1.026-1.551l-6.255-43.914c-.129-.9-.171-1.707.156-2.385l1.707.723a3.6 3.6 0 00-.21.537.098.098 0 000 .04 2.17 2.17 0 00-.081.275 2.779 2.779 0 00-.063.3 1.924 1.924 0 00-.03.22c-.042.31-.042.624 0 .935l6.3 44.133c.117.801.513 1.35 1.044 1.563l-1.542-.876z" fill="#263238"/><path d="M101.921 35.382L48.575 66.126c-1.17.675-1.536 1.767-1.329 3.207l6.345 44.529c.207 1.44 1.323 2.061 2.493 1.386l52.872-30.516c1.17-.675 1.953-2.4 1.746-3.831l-6.3-44.136c-.195-1.44-1.311-2.061-2.481-1.383z" fill="#37474F"/><path d="M105.725 84.531l-47.21 27.234c-.6.351-1.186.03-1.29-.717l-6.226-43.677a2.1 2.1 0 01.9-1.986l47.196-27.237c.6-.351 1.185-.027 1.29.72l6.24 43.677a2.099 2.099 0 01-.9 1.986z" fill="#263238"/><path d="M50.999 67.371l6.225 43.677a.902.902 0 000 .087l47.211-27.237a2.106 2.106 0 00.9-1.986l-6.237-43.764L51.902 65.4a2.1 2.1 0 00-.903 1.971z" fill="#FAFAFA"/><path d="M53.405 94.416a1.06 1.06 0 01-.456.999c-.3.174-.6.015-.648-.363a1.062 1.062 0 01.453-.999c.306-.174.597-.012.651.363zM51.34 84.19a.819.819 0 00-.353.776l1.032 7.2c.042.3.267.417.504.28a.82.82 0 00.354-.778l-1.032-7.2c-.042-.29-.267-.417-.504-.279z" fill="#263238"/><path d="M56.225 87.492l.366.156a.763.763 0 00.6-.024l19.323-11.157a.5.5 0 00.24-.462L73.937 56.34a.648.648 0 00-.369-.441l-.366-.156a.778.778 0 00-.6.024L53.28 66.924a.503.503 0 00-.24.465l2.817 19.665a.649.649 0 00.37.438z" fill="#F0F0F0"/><path d="M57.212 87.624l19.323-11.157a.501.501 0 00.24-.462L73.958 56.34a.198.198 0 00-.324-.141L54.311 67.356a.504.504 0 00-.24.465l2.817 19.665c.021.165.168.228.324.138z" fill="#fff"/><path d="M57.071 87.72a.231.231 0 01-.196-.108.25.25 0 01-.04-.12L54.016 67.83a.555.555 0 01.267-.522l19.32-11.154a.3.3 0 01.273-.027.25.25 0 01.135.204l2.817 19.665a.555.555 0 01-.267.52L57.24 87.671a.359.359 0 01-.168.048zm16.701-31.5a.245.245 0 00-.11.033L54.337 67.41a.45.45 0 00-.213.39l2.817 19.665a.144.144 0 00.075.123.186.186 0 00.168-.024L76.508 76.41a.452.452 0 00.213-.41l-2.817-19.666a.153.153 0 00-.075-.12.122.122 0 00-.057 0v.006z" fill="#E0E0E0"/><path d="M57.17 87.645a.786.786 0 01-.567 0l-.366-.156a.648.648 0 01-.369-.438l-2.817-19.665a.434.434 0 01.054-.261l1.02.435a.453.453 0 00-.05.261l2.813 19.665a.195.195 0 00.282.159z" fill="#E0E0E0"/><path d="M71.315 77.328l-1.533-10.722-1.194-.504L70.12 76.82l1.194.507z" fill="#459AE9"/><path opacity=".2" d="M71.315 77.328l-1.533-10.722-1.194-.504L70.12 76.82l1.194.507z" fill="#000"/><path d="M71.315 77.328l3.006-1.737-1.533-10.72-3.006 1.735 1.533 10.722z" fill="#459AE9"/><path d="M72.788 64.872l-1.194-.507-3.006 1.737 1.194.504 3.006-1.734z" fill="#459AE9"/><path opacity=".25" d="M72.788 64.872l-1.194-.507-3.006 1.737 1.194.504 3.006-1.734z" fill="#fff"/><path opacity=".3" d="M72.788 64.872l-3 1.695-1.2-.465 1.158.567c.018.315 1.476 10.34 1.569 10.659 0-.321-1.413-10.371-1.482-10.674l2.955-1.782z" fill="#fff"/><path d="M65.68 80.583l-1.232-8.613-1.194-.507 1.233 8.613 1.194.507z" fill="#459AE9"/><path opacity=".1" d="M65.68 80.583l-1.232-8.613-1.194-.507 1.233 8.613 1.194.507z" fill="#fff"/><path d="M65.681 80.583l3.006-1.737-1.233-8.61-3.006 1.734 1.233 8.613z" fill="#459AE9"/><path opacity=".3" d="M65.681 80.583l3.006-1.737-1.233-8.61-3.006 1.734 1.233 8.613z" fill="#fff"/><path d="M67.454 70.236l-1.194-.507-3.006 1.734 1.194.507 3.006-1.734z" fill="#459AE9"/><path opacity=".55" d="M67.454 70.236l-1.194-.507-3.006 1.734 1.194.507 3.006-1.734z" fill="#fff"/><path opacity=".3" d="M64.493 72l2.96-1.755-3 1.695a48.34 48.34 0 00-1.2-.468s.769.363 1.156.531c.033.324 1.2 8.259 1.272 8.589-.024-.342-1.131-8.292-1.188-8.592z" fill="#fff"/><path d="M60.044 83.835l-1.035-7.227-1.194-.507 1.035 7.227 1.194.507z" fill="#459AE9"/><path opacity=".45" d="M60.044 83.835l-1.035-7.227-1.194-.507 1.035 7.227 1.194.507z" fill="#000"/><path d="M60.044 83.835l3.006-1.734-1.035-7.23-3.006 1.737 1.035 7.227z" fill="#459AE9"/><path opacity=".3" d="M60.044 83.835l3.006-1.734-1.035-7.23-3.006 1.737 1.035 7.227z" fill="#000"/><path d="M62.015 74.87l-1.194-.503-3.006 1.734 1.194.507 3.006-1.737z" fill="#459AE9"/><path opacity=".15" d="M62.015 74.87l-1.194-.503-3.006 1.734 1.194.507 3.006-1.737z" fill="#000"/><path opacity=".3" d="M62.015 74.871l-3 1.695-1.2-.465 1.155.555s.996 6.984 1.074 7.179c.02-.198-.981-7.179-.981-7.179l2.952-1.785z" fill="#fff"/><path d="M71.843 60.19l-.309-.13-2.373.867.612.42-6.105 6.726-1.635-1.125-.306-.132-4.764 5.25.732.501.31.132 4.145-4.572 1.518 1.02.462.198 6.636-7.314.351.234.31.132.416-2.208z" fill="#459AE9"/><path opacity=".25" d="M71.843 60.19l-.309-.13-2.373.867.612.42-6.105 6.726-1.635-1.125-.306-.132-4.764 5.25.732.501.31.132 4.145-4.572 1.518 1.02.462.198 6.636-7.314.351.234.31.132.416-2.208z" fill="#fff"/><path d="M71.843 60.19l-.417 2.207-.612-.417-6.684 7.365-1.896-1.305-4.23 4.66-.735-.502 4.764-5.25 1.899 1.305 6.147-6.777-.612-.417 2.376-.87z" fill="#459AE9"/><path d="M62.234 68.04l-.084.087 1.518 1.02.462.198-1.896-1.305z" fill="#459AE9"/><path opacity=".2" d="M62.234 68.04l-.084.087 1.518 1.02.462.198-1.896-1.305z" fill="#000"/><path d="M69.773 61.347l.306.129-.612-.417-.306-.132.612.42z" fill="#459AE9"/><path opacity=".2" d="M69.773 61.347l.306.129-.612-.417-.306-.132.612.42z" fill="#000"/><path d="M70.766 62.031l.048-.05.612.416-.309-.132-.35-.234z" fill="#459AE9"/><path opacity=".2" d="M70.766 62.031l.048-.05.612.416-.309-.132-.35-.234z" fill="#000"/><path d="M56.963 72.066l.306.132.735.501-.309-.132-.732-.501z" fill="#459AE9"/><path opacity=".2" d="M56.963 72.066l.306.132.735.501-.309-.132-.732-.501z" fill="#000"/><path opacity=".5" d="M58.838 70.467l3.21-3.417 1.884 1.203-1.899-1.305-3.195 3.52zm7.911-5.319l3.414-3.675-.588-.396 2.268-.888-2.376.87.612.417-3.33 3.672z" fill="#fff"/><path d="M77.42 78.636a.392.392 0 00-.318.051L57.767 89.853a.801.801 0 00-.38.738l2.31 16.125a.32.32 0 00.167.258c-.087-.042-.87-.366-.966-.408a.324.324 0 01-.177-.261L56.414 90.18a.797.797 0 01.381-.74L76.13 78.272a.388.388 0 01.342-.042c.084.04.753.321.948.405z" fill="#459AE9"/><path d="M77.42 78.636c-.186-.084-.864-.366-.948-.405a.39.39 0 00-.342.042L56.795 89.44a.816.816 0 00-.3.324l.972.414a.777.777 0 01.3-.324l19.335-11.166a.393.393 0 01.318-.05z" fill="#fff" opacity=".2"/><path d="M57.767 89.853l19.335-11.166c.25-.144.48-.045.52.219l2.303 16.125a.8.8 0 01-.378.741L60.21 106.938c-.249.141-.48.045-.516-.222L57.386 90.6a.795.795 0 01.381-.747z" fill="#459AE9"/><path d="M57.767 89.853l19.335-11.166c.25-.144.48-.045.52.219l2.303 16.125a.8.8 0 01-.378.741L60.21 106.938c-.249.141-.48.045-.516-.222L57.386 90.6a.795.795 0 01.381-.747z" fill="#fff" opacity=".5"/><path d="M57.47 90.177l-.972-.414a.678.678 0 00-.084.417l2.307 16.125a.331.331 0 00.177.261c.096.042.88.366.966.408a.327.327 0 01-.168-.258L57.386 90.6a.713.713 0 01.084-.423z" fill="#459AE9"/><path opacity=".15" d="M57.47 90.177l-.972-.414a.678.678 0 00-.084.417l2.307 16.125a.331.331 0 00.177.261c.096.042.88.366.966.408a.327.327 0 01-.168-.258L57.386 90.6a.713.713 0 01.084-.423z" fill="#000"/><path opacity=".95" d="M71.672 94.662l1.93 1.917-8.266-5.502-6.204 11.7.564 3.927c.036.267.267.363.516.222L79.55 95.76a.81.81 0 00.381-.74l-.3-2.158-6.033-3.198-1.926 4.998zm-.471-9.585c.9-.519 1.746-.162 1.881.801.135.963-.48 2.163-1.383 2.682-.903.519-1.743.165-1.881-.798-.138-.963.483-2.163 1.383-2.685z" fill="#FAFAFA"/><path d="M77.34 78.813c.041 0 .056.09.056.102l2.31 16.125a.64.64 0 01-.3.57l-19.335 11.166a.196.196 0 01-.099.033c-.045 0-.06-.09-.06-.102l-2.31-16.125a.646.646 0 01.3-.57L77.225 78.85a.195.195 0 01.102-.036m-.03-.192a.463.463 0 00-.207.066L57.755 89.853a.795.795 0 00-.38.738l2.31 16.125a.3.3 0 00.3.285.435.435 0 00.206-.063L79.53 95.772a.8.8 0 00.378-.74L77.621 78.9a.3.3 0 00-.3-.285l-.024.006z" fill="#459AE9"/><path d="M76.625 55.464a.376.376 0 01-.365-.477.38.38 0 01.176-.23l20.7-11.926a.382.382 0 11.369.67l-20.7 11.924a.352.352 0 01-.18.04zm.395 2.709a.378.378 0 01-.188-.708l20.7-11.925a.378.378 0 11.378.657l-20.7 11.925a.357.357 0 01-.19.051zm.4 2.709a.382.382 0 01-.368-.48.374.374 0 01.179-.228l20.7-11.925a.375.375 0 01.516.138.38.38 0 01-.138.52l-20.7 11.924a.387.387 0 01-.189.051zm.405 2.718a.38.38 0 01-.19-.71l20.7-11.926a.381.381 0 01.382.657l-20.7 11.928a.396.396 0 01-.192.051zm.393 2.7a.375.375 0 01-.378-.33.379.379 0 01.189-.378l20.7-11.925a.383.383 0 01.547.122.38.38 0 01-.166.535l-20.7 11.925a.365.365 0 01-.192.051zm.399 2.7a.382.382 0 01-.192-.708l12.6-7.263a.378.378 0 11.378.657l-12.6 7.263a.366.366 0 01-.186.051zm.795 5.424a.378.378 0 01-.327-.192.38.38 0 01.138-.519l20.7-11.925a.381.381 0 01.557.429.372.372 0 01-.179.228l-20.7 11.928a.4.4 0 01-.189.051zm.398 2.706a.379.379 0 01-.188-.708L100.325 64.5a.38.38 0 01.378.657l-20.7 11.925a.357.357 0 01-.192.048zm.415 2.709a.378.378 0 01-.189-.708l20.7-11.925a.38.38 0 01.378.657l-20.7 11.925a.356.356 0 01-.189.051zm.384 2.709a.38.38 0 01-.301-.612.374.374 0 01.112-.096l20.7-11.928a.38.38 0 01.559.429.386.386 0 01-.178.231l-20.7 11.925a.387.387 0 01-.192.051zm.399 2.709a.38.38 0 01-.189-.71l20.7-11.926a.382.382 0 01.536.427.38.38 0 01-.155.23L81.2 85.206a.396.396 0 01-.192.051zm.399 2.706a.378.378 0 01-.19-.708l20.701-11.925a.377.377 0 01.442.006.384.384 0 01.154.264.373.373 0 01-.091.292.38.38 0 01-.124.095l-20.7 11.925a.366.366 0 01-.192.051zm.399 2.709a.381.381 0 01-.192-.708l20.7-11.925a.38.38 0 01.378.657l-20.7 11.925a.367.367 0 01-.186.051zm.399 2.709a.382.382 0 01-.192-.71l7.956-4.585a.38.38 0 01.378.66l-7.953 4.584a.396.396 0 01-.189.051z" fill="#E0E0E0"/><path d="M44.408 36.795l15.6-9c.15-.087.273 0 .273.159v20.235a.601.601 0 01-.273.474l-15.6 9c-.15.087-.273.018-.273-.156V37.266a.602.602 0 01.273-.471z" fill="#000" opacity=".2"/><path d="M59.609 29.052l-14.451 8.334a.665.665 0 00-.3.522v19.707a.655.655 0 00.3.52l.573.326a.679.679 0 00.6 0l14.454-8.334a.67.67 0 00.3-.522v-19.71a.654.654 0 00-.3-.519l-.573-.327a.676.676 0 00-.603.003z" fill="#459AE9"/><path opacity=".2" d="M46.325 58.458a.687.687 0 01-.6 0l-.573-.327a.663.663 0 01-.3-.519V37.908a.65.65 0 01.096-.3l1.173.681a.579.579 0 00-.09.3v19.707c-.006.162.126.264.294.162z" fill="#000"/><path d="M61.085 29.838c-.024-.15-.147-.204-.3-.117l-14.46 8.331a.627.627 0 00-.213.228l-1.173-.681a.6.6 0 01.207-.213l14.451-8.334a.678.678 0 01.6 0l.573.327a.657.657 0 01.315.459z" fill="#fff" opacity=".2"/><path d="M60.788 29.721l-14.463 8.331a.67.67 0 00-.3.522v19.71c0 .192.135.27.3.174l14.454-8.334a.669.669 0 00.3-.522V29.895c.009-.195-.126-.27-.291-.174z" fill="#fff"/><path d="M60.848 29.964v19.638a.432.432 0 01-.18.3l-14.4 8.298V38.574a.433.433 0 01.183-.3l14.4-8.298m.072-.285a.249.249 0 00-.132.042l-14.466 8.32a.67.67 0 00-.3.521v19.71c0 .135.069.213.168.213a.273.273 0 00.132-.039l14.454-8.334a.669.669 0 00.3-.522V29.895c0-.138-.07-.216-.168-.216l.012.012z" fill="#459AE9"/><path d="M49.793 45.54l-1.122 2.1c-.6-.47-.9-1.31-.9-2.436l1.56-.9a1.553 1.553 0 00.462 1.236z" fill="#459AE9"/><path d="M49.793 45.54l-1.122 2.1c-.6-.47-.9-1.31-.9-2.436l1.56-.9a1.553 1.553 0 00.462 1.236z" fill="#000" opacity=".3"/><path d="M54.152 41.514c0 2.349-1.425 5.076-3.186 6.093-.918.528-1.66.537-2.295.027l1.122-2.1c.3.237.71.252 1.173 0 .9-.519 1.629-1.914 1.629-3.111 0-1.197-.73-1.752-1.63-1.233v-2.079c1.762-1.011 3.187.057 3.187 2.403z" fill="#459AE9"/><path d="M54.152 41.514c0 2.349-1.425 5.076-3.186 6.093-.918.528-1.66.537-2.295.027l1.122-2.1c.3.237.71.252 1.173 0 .9-.519 1.629-1.914 1.629-3.111 0-1.197-.73-1.752-1.63-1.233v-2.079c1.762-1.011 3.187.057 3.187 2.403z" fill="#fff" opacity=".4"/><path d="M50.966 39.105c-1.76 1.017-3.189 3.744-3.189 6.093l1.56-.9c0-1.2.73-2.592 1.63-3.111.473-.273.9-.246 1.2 0l1.11-2.1c-.589-.468-1.405-.504-2.31.018zm5.148-1.29l-.93.534a.045.045 0 00-.018.033v1.074h.018l.93-.537a.041.041 0 00.021-.033v-1.074s-.009-.012-.021.003z" fill="#459AE9"/><path opacity=".4" d="M56.114 37.815l-.93.534a.045.045 0 00-.018.033v1.074h.018l.93-.537a.041.041 0 00.021-.033v-1.074s-.009-.012-.021.003z" fill="#fff"/><path d="M56.8 37.8a.07.07 0 01-.06-.033.072.072 0 01.028-.096l2.6-1.5a.069.069 0 01.094.024.068.068 0 01-.004.078.067.067 0 01-.02.018L56.825 37.8a.06.06 0 01-.024 0zm.001.6a.072.072 0 01-.06-.036.068.068 0 01.027-.093l2.601-1.5a.07.07 0 01.093.027.066.066 0 01-.024.093L56.825 38.4a.06.06 0 01-.024 0z" fill="#455A64"/><path d="M56.114 40.008l-.93.537a.044.044 0 00-.018.033v1.074h.018l.93-.537a.036.036 0 00.021-.03V40.02s-.009-.018-.021-.012z" fill="#459AE9"/><path d="M56.801 39.996a.066.066 0 01-.06-.036.069.069 0 01.027-.093l2.601-1.5a.066.066 0 01.093.024.07.07 0 01-.024.096l-2.604 1.5a.06.06 0 01-.033.01zm-.001.591a.07.07 0 01-.06-.033.072.072 0 01.028-.096l2.6-1.5a.069.069 0 01.093.027.066.066 0 01-.023.093l-2.604 1.5a.06.06 0 01-.033.009z" fill="#455A64"/><path d="M56.114 42.204l-.93.537a.045.045 0 00-.018.03v1.074s0 .018.018 0l.93-.537a.041.041 0 00.021-.033v-1.07s-.009-.007-.021 0z" fill="#459AE9"/><path opacity=".3" d="M56.114 42.204l-.93.537a.045.045 0 00-.018.03v1.074s0 .018.018 0l.93-.537a.041.041 0 00.021-.033v-1.07s-.009-.007-.021 0z" fill="#000"/><path d="M56.8 42.19a.066.066 0 01-.032-.127l2.6-1.5a.07.07 0 01.094.027.066.066 0 01-.024.093l-2.604 1.5a.042.042 0 01-.033.006zm.001.593a.066.066 0 01-.06-.036.068.068 0 01.027-.093l2.601-1.5a.066.066 0 01.093.024.07.07 0 01-.024.096l-2.604 1.5a.061.061 0 01-.033.01zm-9.024 9.378a.069.069 0 01-.06-.033.072.072 0 01.027-.096l11.625-6.705a.069.069 0 01.093.027.066.066 0 01-.024.093l-11.613 6.705-.048.009zm0 1.2a.066.066 0 01-.033-.126l11.625-6.705a.07.07 0 01.069.12l-11.613 6.702-.048.009zm0 1.203a.066.066 0 01-.06-.036.069.069 0 01.027-.093l11.625-6.705a.069.069 0 01.093.027.066.066 0 01-.024.093l-11.613 6.705-.048.01z" fill="#455A64"/><path d="M62.969 26.1l15.6-9c.15-.087.273 0 .273.159V37.5a.598.598 0 01-.273.474l-15.6 9c-.15.087-.273 0-.273-.159V26.562a.6.6 0 01.273-.462z" fill="#000" opacity=".2"/><path d="M78.17 18.348l-14.445 8.331a.668.668 0 00-.3.522v19.71a.649.649 0 00.3.516l.573.327a.679.679 0 00.6 0l14.454-8.334a.669.669 0 00.3-.522V19.2a.656.656 0 00-.3-.519l-.573-.324a.664.664 0 00-.609-.009z" fill="#459AE9"/><path opacity=".2" d="M64.895 47.751a.686.686 0 01-.6 0l-.57-.324a.648.648 0 01-.3-.516v-19.71a.6.6 0 01.096-.3l1.173.678a.601.601 0 00-.09.3v19.707c-.009.165.114.267.291.165z" fill="#000"/><path d="M79.646 19.134c-.024-.153-.15-.207-.3-.12l-14.448 8.334a.6.6 0 00-.213.225l-1.176-.678a.659.659 0 01.21-.216l14.451-8.334a.665.665 0 01.6 0l.573.324a.672.672 0 01.303.465z" fill="#fff" opacity=".2"/><path d="M79.349 19.014l-14.454 8.334a.67.67 0 00-.3.522v19.707c0 .192.135.27.3.174l14.454-8.334a.67.67 0 00.3-.522V19.2c0-.204-.135-.282-.3-.186z" fill="#fff"/><path d="M79.409 19.257v19.638a.426.426 0 01-.183.3l-14.4 8.3V27.87a.438.438 0 01.18-.315l14.4-8.298m.072-.285a.278.278 0 00-.132.042l-14.451 8.334a.669.669 0 00-.3.522v19.707c0 .135.069.216.168.216a.28.28 0 00.132-.042l14.454-8.334a.67.67 0 00.3-.522V19.2c0-.138-.069-.216-.168-.216l-.003-.012z" fill="#459AE9"/><path d="M69.527 28.398v2.082c-.9.519-1.629 1.91-1.629 3.11l-1.56.9c0-2.348 1.428-5.075 3.19-6.092zm-1.173 6.435l-1.122 2.1c-.6-.471-.9-1.308-.9-2.436l1.56-.9a1.555 1.555 0 00.462 1.236z" fill="#459AE9"/><path d="M72.725 30.81c0 2.346-1.425 5.076-3.186 6.09-.918.53-1.659.537-2.295.027l1.122-2.1c.3.24.711.255 1.173 0 .9-.52 1.626-1.911 1.626-3.111 0-1.2-.726-1.752-1.626-1.23v-2.088c1.75-1.017 3.186.063 3.186 2.412z" fill="#459AE9"/><path d="M72.725 30.81c0 2.346-1.425 5.076-3.186 6.09-.918.53-1.659.537-2.295.027l1.122-2.1c.3.24.711.255 1.173 0 .9-.52 1.626-1.911 1.626-3.111 0-1.2-.726-1.752-1.626-1.23v-2.088c1.75-1.017 3.186.063 3.186 2.412z" fill="#fff" opacity=".4"/><path d="M70.376 34.011a2.843 2.843 0 01-.849.81c-.462.267-.876.252-1.173 0a1.554 1.554 0 01-.456-1.242l-1.56.9c0 1.128.3 1.965.9 2.436.636.51 1.377.504 2.295-.027a5.583 5.583 0 001.686-1.62l-.843-1.257z" fill="#459AE9"/><path opacity=".3" d="M70.376 34.011a2.843 2.843 0 01-.849.81c-.462.267-.876.252-1.173 0a1.554 1.554 0 01-.456-1.242l-1.56.9c0 1.128.3 1.965.9 2.436.636.51 1.377.504 2.295-.027a5.583 5.583 0 001.686-1.62l-.843-1.257z" fill="#000"/><path d="M74.675 27.108l-.93.537a.038.038 0 00-.018.03v1.074s0 .018.018 0l.93-.537a.04.04 0 00.018-.033v-1.062s-.006-.015-.018-.009z" fill="#459AE9"/><path opacity=".4" d="M74.675 27.108l-.93.537a.038.038 0 00-.018.03v1.074s0 .018.018 0l.93-.537a.04.04 0 00.018-.033v-1.062s-.006-.015-.018-.009z" fill="#fff"/><path d="M75.362 27.093a.069.069 0 01-.06-.033.069.069 0 01.024-.093l2.604-1.5a.069.069 0 01.093.027.067.067 0 01.008.052.067.067 0 01-.032.041l-2.604 1.5a.06.06 0 01-.033.006zm0 .594a.067.067 0 01-.06-.036.069.069 0 01.024-.093l2.604-1.5a.068.068 0 01.056-.016.068.068 0 01.048.033.07.07 0 01.006.058.07.07 0 01-.041.042l-2.604 1.5a.06.06 0 01-.033.012z" fill="#455A64"/><path d="M74.675 29.304l-.93.534a.046.046 0 00-.018.033v1.074h.018l.93-.534a.04.04 0 00.018-.033v-1.065s-.006-.015-.018-.009z" fill="#459AE9"/><path d="M75.362 29.289a.069.069 0 01-.06-.033.072.072 0 01.024-.096l2.604-1.5a.07.07 0 01.069.12l-2.604 1.5a.06.06 0 01-.033.009zm0 .591a.069.069 0 01-.06-.033.069.069 0 01.024-.093l2.604-1.5a.069.069 0 01.093.027.066.066 0 01-.024.093l-2.604 1.5a.043.043 0 01-.016.007.043.043 0 01-.017-.001z" fill="#455A64"/><path d="M74.675 31.5l-.93.537a.045.045 0 00-.018.033v1.074h.018l.93-.537a.033.033 0 00.018-.03V31.5h-.018z" fill="#459AE9"/><path opacity=".3" d="M74.675 31.5l-.93.537a.045.045 0 00-.018.033v1.074h.018l.93-.537a.033.033 0 00.018-.03V31.5h-.018z" fill="#000"/><path d="M75.362 31.5a.065.065 0 01-.06-.036.069.069 0 01.024-.093l2.604-1.5a.069.069 0 11.069.117l-2.604 1.5a.06.06 0 01-.033.012zm0 .576a.069.069 0 01-.06-.033.072.072 0 01.024-.096l2.604-1.5a.069.069 0 01.093.024.07.07 0 01.008.053.071.071 0 01-.032.043l-2.604 1.5a.06.06 0 01-.033.009zm-9.024 9.378a.068.068 0 01-.06-.033.072.072 0 01.027-.096l11.625-6.702a.07.07 0 01.069.12l-11.625 6.702-.036.009zm0 1.203a.066.066 0 01-.06-.036.07.07 0 01.027-.093l11.625-6.705a.07.07 0 01.093.027.065.065 0 01-.004.076.068.068 0 01-.02.017l-11.625 6.705-.036.009zm0 1.2a.069.069 0 01-.06-.033.073.073 0 01.027-.096l11.625-6.702a.07.07 0 01.084-.005.069.069 0 01-.015.122l-11.625 6.705-.036.009z" fill="#455A64"/><path d="M81.53 15.384l15.6-9c.15-.087.273-.015.273.159v20.241a.6.6 0 01-.273.474l-15.6 9c-.153.087-.273.018-.273-.156V15.855a.598.598 0 01.273-.471z" fill="#000" opacity=".2"/><path d="M96.725 7.641l-14.448 8.334a.669.669 0 00-.3.522v19.707a.654.654 0 00.3.519l.573.324a.666.666 0 00.6 0l14.451-8.331a.662.662 0 00.324-.516V8.484a.655.655 0 00-.3-.519l-.6-.327a.684.684 0 00-.6.003z" fill="#459AE9"/><path opacity=".2" d="M83.456 37.044a.688.688 0 01-.6 0l-.573-.327a.655.655 0 01-.3-.519V16.5a.599.599 0 01.096-.3l1.173.678a.599.599 0 00-.09.3V36.87c-.006.177.117.279.294.174z" fill="#000"/><path d="M98.204 8.427c-.02-.15-.147-.204-.3-.12l-14.448 8.334a.66.66 0 00-.21.225L82.07 16.2a.6.6 0 01.207-.213l14.448-8.346a.678.678 0 01.6 0l.573.327a.664.664 0 01.306.459z" fill="#fff" opacity=".2"/><path d="M97.907 8.31l-14.451 8.331a.67.67 0 00-.3.522v19.71c0 .192.135.267.3.171l14.451-8.331a.663.663 0 00.318-.513V8.484c0-.192-.15-.27-.318-.174z" fill="#fff"/><path d="M97.967 8.553V28.2a.424.424 0 01-.18.3l-14.4 8.298V17.163a.431.431 0 01.18-.3l14.4-8.298m.075-.3a.267.267 0 00-.135.042l-14.451 8.334a.669.669 0 00-.3.522v19.71c0 .135.066.213.165.213a.252.252 0 00.135-.042l14.451-8.331a.663.663 0 00.318-.513V8.484c0-.138-.069-.216-.168-.216l-.015-.003z" fill="#459AE9"/><path d="M88.088 17.7v2.079c-.9.519-1.629 1.914-1.629 3.111l-1.56.9c0-2.352 1.428-5.079 3.19-6.09z" fill="#459AE9"/><path d="M86.915 24.129l-1.122 2.1c-.6-.471-.9-1.311-.9-2.439l1.56-.9a1.553 1.553 0 00.462 1.239z" fill="#459AE9"/><path d="M86.915 24.129l-1.122 2.1c-.6-.471-.9-1.311-.9-2.439l1.56-.9a1.553 1.553 0 00.462 1.239z" fill="#000" opacity=".3"/><path d="M91.274 20.1c0 2.349-1.428 5.076-3.186 6.093-.918.528-1.659.537-2.295.027l1.122-2.1c.3.237.711.252 1.173 0 .9-.522 1.626-1.914 1.626-3.111 0-1.197-.729-1.752-1.626-1.233V17.7c1.758-1.023 3.186.057 3.186 2.4z" fill="#459AE9"/><path d="M91.274 20.1c0 2.349-1.428 5.076-3.186 6.093-.918.528-1.659.537-2.295.027l1.122-2.1c.3.237.711.252 1.173 0 .9-.522 1.626-1.914 1.626-3.111 0-1.197-.729-1.752-1.626-1.233V17.7c1.758-1.023 3.186.057 3.186 2.4z" fill="#fff" opacity=".4"/><path d="M93.236 16.404l-.93.534a.045.045 0 00-.018.033v1.074s0 .015.018 0l.93-.534a.045.045 0 00.018-.033v-1.065s-.009-.015-.018-.009z" fill="#459AE9"/><path opacity=".4" d="M93.236 16.404l-.93.534a.045.045 0 00-.018.033v1.074s0 .015.018 0l.93-.534a.045.045 0 00.018-.033v-1.065s-.009-.015-.018-.009z" fill="#fff"/><path d="M93.923 16.389a.07.07 0 01-.06-.033.072.072 0 01.024-.096l2.604-1.5a.069.069 0 01.093.024.068.068 0 01.008.053.068.068 0 01-.032.043l-2.604 1.5a.06.06 0 01-.033.009zm0 .591a.07.07 0 01-.06-.033.07.07 0 01.024-.093l2.604-1.5a.069.069 0 01.093.027.066.066 0 01-.024.093l-2.604 1.5a.042.042 0 01-.033.006z" fill="#455A64"/><path d="M93.236 18.6l-.93.537a.045.045 0 00-.018.033v1.074h.018l.93-.537a.04.04 0 00.018-.03V18.6h-.018z" fill="#459AE9"/><path d="M93.923 18.6a.066.066 0 01-.06-.036.069.069 0 01.024-.093l2.604-1.5a.07.07 0 01.056-.016.068.068 0 01.058.062.07.07 0 01-.02.055.069.069 0 01-.025.016l-2.604 1.5a.06.06 0 01-.033.012zm0 .576a.07.07 0 01-.06-.033.072.072 0 01.024-.096l2.604-1.5a.069.069 0 01.093.024.068.068 0 01.008.053.068.068 0 01-.032.043l-2.604 1.5a.06.06 0 01-.033.009z" fill="#455A64"/><path d="M93.236 20.793l-.93.537a.039.039 0 00-.018.03v1.074s0 .018.018 0l.93-.537a.045.045 0 00.018-.033v-1.062l-.018-.009z" fill="#459AE9"/><path opacity=".3" d="M93.236 20.793l-.93.537a.039.039 0 00-.018.03v1.074s0 .018.018 0l.93-.537a.045.045 0 00.018-.033v-1.062l-.018-.009z" fill="#000"/><path d="M93.923 20.778a.07.07 0 01-.06-.033.07.07 0 01.024-.093l2.604-1.5a.069.069 0 01.093.027.066.066 0 01-.024.093l-2.604 1.5a.06.06 0 01-.033.006zm0 .594a.066.066 0 01-.06-.036.07.07 0 01.024-.093l2.604-1.5a.069.069 0 11.069.117l-2.604 1.5a.06.06 0 01-.033.012zM84.9 30.75a.066.066 0 01-.06-.036.069.069 0 01.023-.093l11.628-6.705a.069.069 0 01.093.027.066.066 0 01-.024.093l-11.628 6.705a.06.06 0 01-.033.009zm0 1.2a.069.069 0 01-.06-.033.069.069 0 01.023-.093l11.628-6.705a.069.069 0 01.093.024.068.068 0 01-.003.078.067.067 0 01-.02.018l-11.629 6.702a.06.06 0 01-.033.009zm0 1.203a.066.066 0 01-.06-.036.069.069 0 01.023-.093l11.628-6.705a.07.07 0 01.093.027.066.066 0 01-.024.093l-11.628 6.705a.061.061 0 01-.033.009z" fill="#455A64"/><path d="M102.236 104.13l3.3-19.044 2.1-.105-4.338 19.146a.284.284 0 01-.048.108.28.28 0 01-.09.078.831.831 0 01-.744.039.255.255 0 01-.116-.086.258.258 0 01-.049-.136h-.015z" fill="#263238"/><path d="M133.292 81.96h2.1l4.917 19.779a.261.261 0 01-.153.231.828.828 0 01-.744 0 .307.307 0 01-.15-.18l-5.97-19.83zm-14.463 31.245l.093-21.327 2.1-.108-1.128 21.432a.288.288 0 01-.141.186.818.818 0 01-.744.039.256.256 0 01-.162-.222h-.018z" fill="#37474F"/><path d="M121.88 75.324h2.1l3.348 21a.253.253 0 01-.153.231.83.83 0 01-.744 0 .3.3 0 01-.15-.18l-4.401-21.051z" fill="#263238"/><path d="M139.325 58.86c.475 1.171.756 2.411.834 3.672.24 2.814-.714 11.928-1.284 16.002-.825 6.81-1.842 6.822-3.318 7.962-2.538 1.962-9.837 5.805-12.246 6.753-4.368 1.719-7.941-.93-10.605-2.247a61.735 61.735 0 01-7.053-4.176c-.663-.486-1.008-.975-1.002-1.5v-1.254c0-.66.579-1.365 1.8-2.157 2.256-1.464 10.413-6.219 13.572-7.971a.028.028 0 01.01-.017.03.03 0 01.017-.007c2.43-1.476 3.9-11.511 5.577-16.851.036-.111.072-.222.111-.33.039-.108.057-.168.087-.249a8.81 8.81 0 01.33-.798" fill="#459AE9"/><path d="M104.636 84.075c0-.657.579-1.362 1.8-2.154 2.256-1.464 10.413-6.219 13.572-7.971a.028.028 0 01.01-.017.027.027 0 01.017-.007c2.43-1.476 3.9-11.511 5.577-16.851.018-.048.135-.459.354-.981l.03-.072.096-.216c.018-.036.033-.075.048-.108a5.155 5.155 0 011.122-1.623 2.48 2.48 0 01.552-.387c.273-.156.849-.474.99-.558 1.653-.99 3.819.198 6.519 1.677 1.68.918 3.111 2.013 3.984 4.053a11.68 11.68 0 01.834 3.672c.24 2.814-.714 11.928-1.284 16.002-.825 6.81-1.842 6.822-3.318 7.962-2.538 1.962-9.837 5.805-12.246 6.753-4.368 1.719-7.941-.93-10.605-2.247a61.735 61.735 0 01-7.053-4.176c-.663-.486-1.008-.975-1.002-1.5.009-.198.003-1.026.003-1.251z" fill="#459AE9"/><path opacity=".15" d="M104.636 84.075c0-.657.579-1.362 1.8-2.154 2.256-1.464 10.413-6.219 13.572-7.971a.028.028 0 01.01-.017.027.027 0 01.017-.007c2.43-1.476 3.9-11.511 5.577-16.851.018-.048.135-.459.354-.981l.03-.072.096-.216c.018-.036.033-.075.048-.108a5.155 5.155 0 011.122-1.623 2.48 2.48 0 01.552-.387c.273-.156.849-.474.99-.558 1.653-.99 3.819.198 6.519 1.677 1.68.918 3.111 2.013 3.984 4.053a11.68 11.68 0 01.834 3.672c.24 2.814-.714 11.928-1.284 16.002-.825 6.81-1.842 6.822-3.318 7.962-2.538 1.962-9.837 5.805-12.246 6.753-4.368 1.719-7.941-.93-10.605-2.247a61.735 61.735 0 01-7.053-4.176c-.663-.486-1.008-.975-1.002-1.5.009-.198.003-1.026.003-1.251z" fill="#000"/><path d="M112.697 89.733a61.782 61.782 0 01-7.056-4.179c-1.5-1.098-1.374-2.223.798-3.633 3.015-1.956 15.3-8.931 15.3-8.931s15.54 9.171 14.871 10.866c-.669 1.695-10.287 6.933-13.317 8.124-4.368 1.719-7.935-.933-10.596-2.247z" fill="#459AE9"/><path opacity=".3" d="M112.697 89.733a61.782 61.782 0 01-7.056-4.179c-1.5-1.098-1.374-2.223.798-3.633 3.015-1.956 15.3-8.931 15.3-8.931s15.54 9.171 14.871 10.866c-.669 1.695-10.287 6.933-13.317 8.124-4.368 1.719-7.935-.933-10.596-2.247z" fill="#fff"/><path d="M127.82 53.7c1.635-.858 3.762.3 6.39 1.749 1.686.924 3.12 2.016 3.993 4.065l1.11-.642c-.873-2.04-2.304-3.132-3.984-4.053-2.7-1.479-4.866-2.667-6.519-1.677-.141.072-.717.39-.99.558z" fill="#459AE9"/><path opacity=".3" d="M127.82 53.7c1.635-.858 3.762.3 6.39 1.749 1.686.924 3.12 2.016 3.993 4.065l1.11-.642c-.873-2.04-2.304-3.132-3.984-4.053-2.7-1.479-4.866-2.667-6.519-1.677-.141.072-.717.39-.99.558z" fill="#fff"/><path d="M120.038 73.926s1.584.519 7.236 3.3c2.322 1.137 3.846 2.286 6.021 3.654 3.198 2.013 2.952 3.507 2.952 3.507 1.59-1.317 3.174-16.599 2.784-21.222a11.61 11.61 0 00-.9-3.849c-.042-.09-.087-.18-.132-.27-.045-.09-.06-.123-.093-.18l-.048-.087a8.02 8.02 0 00-.402-.642l-.105-.15-.114-.147c-.033-.045-.075-.093-.111-.141l-.099-.114a6.694 6.694 0 00-.726-.738 9.332 9.332 0 00-1.011-.768 1.886 1.886 0 00-.165-.108 3.986 3.986 0 00-.222-.138c-.078-.045-.123-.078-.186-.111-.162-.099-.33-.192-.498-.3-2.01-1.101-3.723-2.043-5.154-2.043a2.661 2.661 0 00-1.8.681c-1.053.93-1.617 2.889-1.653 3-1.68 5.355-3.144 15.39-5.574 16.866z" fill="#459AE9"/><path opacity=".1" d="M120.038 73.926s1.584.519 7.236 3.3c2.322 1.137 3.846 2.286 6.021 3.654 3.198 2.013 2.952 3.507 2.952 3.507 1.59-1.317 3.174-16.599 2.784-21.222a11.61 11.61 0 00-.9-3.849c-.042-.09-.087-.18-.132-.27-.045-.09-.06-.123-.093-.18l-.048-.087a8.02 8.02 0 00-.402-.642l-.105-.15-.114-.147c-.033-.045-.075-.093-.111-.141l-.099-.114a6.694 6.694 0 00-.726-.738 9.332 9.332 0 00-1.011-.768 1.886 1.886 0 00-.165-.108 3.986 3.986 0 00-.222-.138c-.078-.045-.123-.078-.186-.111-.162-.099-.33-.192-.498-.3-2.01-1.101-3.723-2.043-5.154-2.043a2.661 2.661 0 00-1.8.681c-1.053.93-1.617 2.889-1.653 3-1.68 5.355-3.144 15.39-5.574 16.866z" fill="#fff"/><path d="M116.912 90.6l-2.964-3.87-4.623 3.402c3.075 2.082 6.456 4.683 7.287 5.7 0 0 2.622-1.113 2.793-2.583.171-1.47-1.68-2.322-2.493-2.649z" fill="#FFA8A7"/><path d="M120.299 91.707c.277.133.525.32.729.549.225.228.405 1.5.681 2.058.276.558.438.687.855 1.371.462.756 1.176 1.395.918 3.6-.258 2.205-1.113 3.408-1.896 4.083a2.308 2.308 0 01-1.011.453s-1.233-.219-1.182-.933c.051-.714.906-11.181.906-11.181z" fill="#263238"/><path d="M115.679 94.947c.072.21.435.486.6.64.504.57.89 1.235 1.137 1.955 1.296 3.189.3 5.121 2.31 6.033.576.228 1.632-.06 2.874-2.454.633-1.224.699-3.507.189-4.44-.51-.933-1.074-1.5-1.428-2.226-.354-.726-.507-2.169-1.053-2.748a3.154 3.154 0 00-1.2-.699c-.354-.132-1.092-.255-1.449-.38-.357-.127-.573-.3-.738-.025l.459.39c.732.696.6.846.657 1.278.111.456.269.9.471 1.323-.513-.444-.765-.87-1.2-.705-.435.165-.495.153-1.029.882-.534.73-.654.99-.6 1.176z" fill="#459AE9"/><path opacity=".4" d="M115.679 94.947c.072.21.435.486.6.64.504.57.89 1.235 1.137 1.955 1.296 3.189.3 5.121 2.31 6.033.576.228 1.632-.06 2.874-2.454.633-1.224.699-3.507.189-4.44-.51-.933-1.074-1.5-1.428-2.226-.354-.726-.507-2.169-1.053-2.748a3.154 3.154 0 00-1.2-.699c-.354-.132-1.092-.255-1.449-.38-.357-.127-.573-.3-.738-.025l.459.39c.732.696.6.846.657 1.278.111.456.269.9.471 1.323-.513-.444-.765-.87-1.2-.705-.435.165-.495.153-1.029.882-.534.73-.654.99-.6 1.176z" fill="#000"/><path opacity=".3" d="M122.591 101.121c.633-1.224.699-3.507.189-4.44-.17-.31-.358-.61-.561-.9.024.066.057.129.078.186.045.126.084.252.123.378.169.494.208 1.023.114 1.536-.111.447-.351 1.566-.9 1.692-.3.072-.639-.186-.828-.519-.078-.138-.237-.525-.237-.525-.49.213-.943.504-1.341.861-.708.687-.657.801-.657.801.092.224.146.463.159.705 0 .264-.058.526-.171.765a1.043 1.043 0 01-.174.201 2.208 2.208 0 001.335 1.707c.573.231 1.629-.054 2.871-2.448z" fill="#000"/><path d="M117.407 97.542c.336.84.572 1.717.702 2.613.462.792.723.717.678.27-.045-.447-.972-2.163-1.689-3.6.114.246.216.486.309.717zm1.026-5.694a1.89 1.89 0 00-.549-1.152 2.252 2.252 0 01-.234-.069c-.387-.132-.573-.3-.738-.024l.459.39c.732.696.6.846.657 1.278.111.456.269.9.471 1.323.6 1.377 1.005 1.8 1.416 3.132.411 1.332.3 2.295.519 2.334.219.039.564-.183.432-1.287-.132-1.104-.954-2.844-1.458-3.651-.504-.807-.936-1.677-.975-2.274z" fill="#37474F"/><path d="M120.68 98.613a.154.154 0 01-.063.051 3.307 3.307 0 00-1.935 1.677.139.139 0 01-.035.041.15.15 0 01-.049.024.123.123 0 01-.054.003.139.139 0 01-.092-.052.14.14 0 01-.01-.154 3.588 3.588 0 012.07-1.8.137.137 0 01.106.001.14.14 0 01.045.031.124.124 0 01.029.046.137.137 0 01-.012.132zm-.384-1.113a.146.146 0 01-.06.051 3.713 3.713 0 00-2.031 1.818.135.135 0 01-.086.068.14.14 0 01-.109-.017.14.14 0 01-.065-.085.137.137 0 01.014-.107 3.984 3.984 0 012.163-1.935.136.136 0 01.108-.004.13.13 0 01.047.03.141.141 0 01.031.046.137.137 0 01-.012.135zm-.207-1.242a.18.18 0 01-.069.054 4.216 4.216 0 00-2.268 2.04.155.155 0 11-.27-.156 4.499 4.499 0 012.415-2.169.154.154 0 01.216.157.161.161 0 01-.024.074zm-.381-1.035a.146.146 0 01-.066.054 4.114 4.114 0 00-2.22 1.992.15.15 0 01-.093.08.151.151 0 01-.121-.014.152.152 0 01-.05-.219 4.398 4.398 0 012.361-2.118.154.154 0 01.201.078.14.14 0 01.013.075.144.144 0 01-.025.072zm-.585-.966a.144.144 0 01-.066.054 4.09 4.09 0 00-2.217 1.995.16.16 0 01-.21.054.152.152 0 01-.072-.093.151.151 0 01.015-.117 4.412 4.412 0 012.361-2.118.153.153 0 01.189.225z" fill="#EBEBEB"/><path d="M119.381 73.137s-11.91 2.631-16.23 3.804c-4.41 1.2-3.945 4.62-2.304 6.357 3.144 3.333 12.078 9.471 12.078 9.471s2.529-1.554 2.724-3.9l-2.451-3.471 8.874-1.083 1.263-1.53-3.954-9.648z" fill="#455A64"/><path d="M111.05 89.193c.63-1.464 1.2-1.911 2.742-2.955l1.86 2.637c-.195 2.337-2.724 3.9-2.724 3.9s-1.029-.708-2.514-1.773a17.55 17.55 0 01.636-1.809zm.6-7.269a42.375 42.375 0 012.043 1.893c.594.597 1.962.6 3.186 0 1.518-.753 3.129-2.037 4.068-2.775-1.383-1.542-.822-3.804-.822-3.804.138 1.47.801 2.7 1.5 3.273l.75.528.27 2.328-.42.915-9.027 1.122c-2.478-3.222-3.333-4.701-5.4-4.947-.003 0 1.566-.543 3.852 1.467z" fill="#37474F"/><path d="M113.168 107.514l.126-.426 2.889-7.5-5.451-2.04c-.708 3.852-1.581 8.931-2.4 10.266 0 0 1.476 2.289 2.934 2.022 1.458-.267 1.83-1.443 1.902-2.322z" fill="#FFA8A7"/><path d="M112.979 110.25a2.288 2.288 0 01-.3.855c-.15.282-1.317.828-1.767 1.254-.45.426-.531.618-1.062 1.218-.6.663-.993 1.533-3.186 1.932s-3.585-.069-4.461-.621a2.342 2.342 0 01-.729-.834s-.15-1.242.546-1.404c.696-.162 10.959-2.4 10.959-2.4z" fill="#263238"/><path d="M108.53 106.776a2.561 2.561 0 00-.438.753 5.826 5.826 0 01-1.539 1.659c-2.67 2.169-4.8 1.773-5.1 3.969-.051.618.534 1.545 3.186 2.031 1.356.249 3.558-.354 4.302-1.116.744-.762 1.119-1.464 1.71-2.013.591-.549 1.929-1.122 2.322-1.8.206-.422.314-.884.318-1.353.024-.378.033-1.65.033-1.65-.453.9-1.158.804-1.551.993a6.95 6.95 0 00-1.131.837c.276-.618.6-.984.324-1.356-.276-.372-.3-.429-1.143-.726s-1.134-.342-1.293-.228z" fill="#459AE9"/><path opacity=".4" d="M108.53 106.776a2.561 2.561 0 00-.438.753 5.826 5.826 0 01-1.539 1.659c-2.67 2.169-4.8 1.773-5.1 3.969-.051.618.534 1.545 3.186 2.031 1.356.249 3.558-.354 4.302-1.116.744-.762 1.119-1.464 1.71-2.013.591-.549 1.929-1.122 2.322-1.8.206-.422.314-.884.318-1.353.024-.378.033-1.65.033-1.65-.453.9-1.158.804-1.551.993a6.95 6.95 0 00-1.131.837c.276-.618.6-.984.324-1.356-.276-.372-.3-.429-1.143-.726s-1.134-.342-1.293-.228z" fill="#000"/><path opacity=".3" d="M104.645 115.2c1.356.249 3.558-.354 4.302-1.116.245-.252.475-.517.69-.795-.054.042-.105.093-.153.129a7.906 7.906 0 01-.327.225c-.422.307-.916.5-1.434.561-.462.024-1.599.12-1.884-.372-.159-.279 0-.663.255-.939.111-.117.432-.384.432-.384a4.954 4.954 0 00-1.215-1.029c-.864-.477-.957-.396-.957-.396a2.11 2.11 0 01-.627.357 1.805 1.805 0 01-.78.063 1.171 1.171 0 01-.246-.108 2.2 2.2 0 00-1.242 1.773c-.051.606.534 1.533 3.186 2.031z" fill="#000"/><path d="M106.553 109.2a11.4 11.4 0 01-2.292 1.431c-.624.675-.474.9-.06.729.414-.171 1.785-1.56 2.94-2.664-.195.165-.393.333-.588.504zm5.745-.693c.372-.09.717-.265 1.011-.51.189-.174.06-.684 0-.9l-.144.453c-.531.45-.978.51-1.371.699-.405.24-.784.52-1.131.837-1.14.981-1.428 1.5-2.58 2.271-1.152.771-2.1.966-2.082 1.176.018.21.342.486 1.359.039s2.442-1.746 3.063-2.46 1.32-1.395 1.875-1.605z" fill="#37474F"/><path d="M106.487 112.629a.121.121 0 01-.066-.045 3.333 3.333 0 00-2.172-1.362.148.148 0 01-.086-.061.146.146 0 01-.019-.104.138.138 0 01.165-.102 3.577 3.577 0 012.316 1.455.14.14 0 01.031.081.139.139 0 01-.178.138h.009zm.942-.687a.166.166 0 01-.066-.045 3.706 3.706 0 00-2.331-1.41.136.136 0 01-.108-.115.143.143 0 01.171-.161 3.973 3.973 0 012.484 1.5.142.142 0 01.033.103.13.13 0 01-.016.053.127.127 0 01-.035.042.145.145 0 01-.062.034.15.15 0 01-.07-.001zm1.137-.567a.16.16 0 01-.072-.048 4.198 4.198 0 00-2.613-1.572.154.154 0 01-.093-.181.16.16 0 01.06-.09.159.159 0 01.105-.029 4.518 4.518 0 012.778 1.674.144.144 0 01.03.054c.007.019.009.04.008.061a.174.174 0 01-.017.059.165.165 0 01-.039.048.153.153 0 01-.147.024zm.879-.675a.14.14 0 01-.072-.045 4.094 4.094 0 00-2.553-1.542.142.142 0 01-.055-.024.168.168 0 01-.041-.043.18.18 0 01-.021-.056.156.156 0 01.071-.155.155.155 0 01.115-.019 4.404 4.404 0 012.715 1.638.147.147 0 01.037.111.147.147 0 01-.052.105.151.151 0 01-.144.03zm.753-.831a.146.146 0 01-.072-.048 4.103 4.103 0 00-2.553-1.539.158.158 0 01-.096-.068.16.16 0 01-.021-.115.161.161 0 01.025-.055.172.172 0 01.044-.041.152.152 0 01.117-.018 4.385 4.385 0 012.715 1.638.147.147 0 01.037.111.147.147 0 01-.052.105.151.151 0 01-.144.03z" fill="#EBEBEB"/><path d="M109.1 104.4c1.428 1.485 4.872 1.38 4.872 1.38s.99-1.893 2.778-6.03c.999-2.313 1.554-3.36 1.977-6.6 3.03-1.485 8.421-3.618 13.53-7.437 3.66-2.736 4.236-6.45 3.771-10.851-.57-5.4-16.449-.99-16.449-.99 1.05 2.934.813 5.823 2.796 7.152 0 0-6.393 4.587-8.553 6.225-.99.75-1.458.999-1.935 3.279-1.395 6.693-2.787 13.872-2.787 13.872z" fill="#455A64"/><path d="M113.225 105.765l-.3-.018c1.101-2.064 2.76-6.498 3.378-8.4.201-.621.615-2.376.738-2.853.585-2.295.669-3.129 1.299-3.342.159-.057.507-.261 1.05-.531 2.769-1.371 9.465-4.773 11.778-6.945.069-.066.129-.132.195-.198-1.167-.675-1.527-2.454-1.104-3.72.45-1.353.423-3.798-.3-4.8l.207-.147c.831 1.176.747 3.768.324 5.034-.396 1.2-.024 2.88 1.05 3.45 2.16-2.301 2.7-5.472 1.602-9.213l.243-.072c1.2 4.053.498 7.461-2.052 9.855-2.34 2.199-9.063 5.613-11.838 6.99-.522.261-.9.447-1.044.525-.6.324-.819 1.902-1.164 3.225-.126.483-.543 2.217-.759 2.844-.651 1.923-2.271 6.306-3.303 8.316z" fill="#37474F"/><path d="M112.058 96.774l.867-.501 2.256 28.383-.87.501-2.253-28.383z" fill="#455A64"/><path d="M112.058 96.774l-1.299-.75 2.685 28.632.867.501-2.253-28.383z" fill="#37474F"/><path d="M88.361 83.115l.867-.501-2.685 25.53-.867.501 2.685-25.53z" fill="#455A64"/><path d="M88.361 83.115l-1.299-.75-2.256 25.779.87.501 2.685-25.53z" fill="#37474F"/><path d="M127.214 88.035l.867-.501 2.256 28.38-.87.501-2.253-28.38z" fill="#455A64"/><path d="M127.214 88.035l-1.299-.75 2.685 28.629.867.501-2.253-28.38z" fill="#37474F"/><path d="M103.517 74.376l.867-.501-2.685 25.53-.867.501 2.685-25.53z" fill="#455A64"/><path d="M103.517 74.376l-1.302-.753-2.253 25.782.87.5 2.685-25.53z" fill="#37474F"/><path d="M135.308 87.6v-1.026a.597.597 0 00-.264-.459l-32.865-19.002a.597.597 0 00-.528 0L79.958 79.656a.6.6 0 00-.264.459v1.029a.6.6 0 00.264.456l32.868 18.987a.563.563 0 00.528 0l21.69-12.543a.574.574 0 00.264-.444z" fill="#459AE9"/><path opacity=".2" d="M135.308 87.6v-1.026a.597.597 0 00-.264-.459l-32.865-19.002a.597.597 0 00-.528 0L79.958 79.656a.6.6 0 00-.264.459v1.029a.6.6 0 00.264.456l32.868 18.987a.563.563 0 00.528 0l21.69-12.543a.574.574 0 00.264-.444z" fill="#fff"/><path d="M113.09 99.015v1.635a.574.574 0 00.264-.06l21.69-12.546a.58.58 0 00.264-.456v-1.029a.582.582 0 00-.216-.423c.096.081.081.195-.048.27l-21.69 12.543a.516.516 0 01-.264.066z" fill="#459AE9"/><path d="M135.044 86.4l-21.69 12.543a.6.6 0 01-.528 0L79.958 79.962a.162.162 0 010-.3l21.693-12.543a.599.599 0 01.528 0l32.865 18.98c.03.013.055.034.073.06a.162.162 0 01-.073.24z" fill="#459AE9"/><path opacity=".5" d="M135.044 86.4l-21.69 12.543a.6.6 0 01-.528 0L79.958 79.962a.162.162 0 010-.3l21.693-12.543a.599.599 0 01.528 0l32.865 18.98c.03.013.055.034.073.06a.162.162 0 01-.073.24z" fill="#fff"/><path opacity=".2" d="M89.825 77.166l11.541-6.666a.66.66 0 01.663 0l20.04 11.571a.147.147 0 010 .255l-11.661 6.735-20.583-11.895z" fill="#000"/><path d="M91.451 76.2v.249a1.033 1.033 0 00.51.9l17.901 10.332a1.016 1.016 0 001.026 0l9.756-5.616a1.016 1.016 0 00.51-.9v-.345a.125.125 0 01-.015.066.134.134 0 01-.048.048l-10.716 6.186L91.451 76.2z" fill="#37474F"/><path d="M91.448 76.2l10.614-6.129a.618.618 0 01.6 0L121.088 80.7a.134.134 0 010 .234l-10.716 6.186L91.448 76.2z" fill="#455A64"/><path d="M110.471 86.217l5.724-3.303-16.74-9.666-5.754 3.285 16.77 9.684z" fill="#37474F"/><path d="M93.701 76.533l.22.126 5.537-3.159 16.518 9.54.219-.126-16.737-9.666-5.757 3.285zm19.584.497l-.105.06-2.808 1.62-4.989-2.88-.105-.06 2.913-1.68 5.094 2.94z" fill="#263238"/><path d="M113.18 77.09l-2.808 1.62-4.989-2.88 2.808-1.62 4.989 2.88z" fill="#37474F"/><path d="M110.372 87.117v.681c-.179 0-.355-.048-.51-.138l-17.9-10.335a1.018 1.018 0 01-.514-.885v-.24l18.924 10.917z" fill="#263238"/><path d="M109.025 67.32c1.764-.684 6.192-2.631 6.192-2.631s3.996-6.702 4.872-8.1c1.047-1.683 2.529-2.94 4.956-2.748l-.42 7.014s-4.308 6.177-5.079 7.2c-.585.774-.549.993-2.1 1.314l-7.332 1.533-.3.087c-.202.06-.381.181-.51.348a3.02 3.02 0 00-.324.54c-.3.654-.282.876-.6 1.584-.318.708-.468.642-.963 1.185-.459.498-.657.843-.882.792-.225-.051-.336-.624-.174-1.11.162-.486.639-.918.717-1.12.078-.2.057-.491-.495-.374-.552.117-1.752 1.185-2.286 1.64-.534.457-.969 1.153-1.455 1.447-.486.294-.462-.207-.492-.64-.03-.431-.477-1.091-.474-1.775.003-.684.765-2.337 1.458-2.892.693-.555 2.037-1.515 2.4-1.722a20.288 20.288 0 013.291-1.572z" fill="#FFA8A7"/><path d="M125.24 53.763c-1.047-.096-2.349-.051-3.438.804-1.089.855-1.632 1.584-3.243 4.308a276.856 276.856 0 00-2.4 4.119 5.149 5.149 0 001.929 2.325 9.897 9.897 0 002.778 1.089l4.059-5.544.315-7.101z" fill="#459AE9"/><path d="M120.767 60.27c.426-4.746 2.052-6.336 4.473-6.507 1.771.075 3.537.247 5.289.516a20.854 20.854 0 015.805 2.25c1.2.75 1.584 2.355 1.608 5.718a75.474 75.474 0 01-.63 9.69 50.102 50.102 0 01-1.656 8.352c-3.342 1.116-16.59-2.937-16.5-7.18.345-.971.942-2.1 1.215-4.058.354-3.456.261-7.29.396-8.781zm11.283-7.725c.324-1.308 1.746-2.589 2.427-3.699.681-1.11 1.065-1.908 1.077-2.961 0-.624-.318-1.5-.762-1.704.705-2.265-.933-3.315-1.689-3.648-.333-.147-1.074-.39-1.398-.555-.483-.246-.567-.657-.942-1.029-.648-.642-1.8-.744-2.328.114-.417-.633-1.044-.663-1.779-.534a1.236 1.236 0 00-1.053 1.323c-.924-.615-1.863 0-1.995.561-.096.414-.036.774-.336 1.131-.3.357-.927.348-1.077 0-.144.6.054 1.059.702 1.077a1.342 1.342 0 00-.255 1.122 1.234 1.234 0 001.05.936c.003.322.077.64.219.93.173.3.416.556.708.744.942.54 2.013.774 3.048 1.071l1.23.354c.072.021.45.072.489.141l2.664 4.626z" fill="#263238"/><path d="M133.784 50.952a1.287 1.287 0 01-1.56-.165l-.264 4.374c-.867 1.8-4.086 1.887-5.208 1.269-1.122-.618-.921-1.293-.087-2.283l-.027-.72a12.812 12.812 0 01-1.569-.192c-1.029-.22-1.746-1.122-1.956-2.268a11.688 11.688 0 01.21-4.467 3.91 3.91 0 00.138-1.086c-.016-.8.156-1.594.501-2.316 1.2-.831 3.879-.945 6.231.74-.396 1.444.084 2.65 1.11 3.3-.081.394-.207 1.39.447 1.42.468.024.546-.564 1.065-1.044.519-.48 1.656-.537 2.034.26.525 1.105 0 2.647-1.065 3.178z" fill="#FFA8A7"/><path d="M129.977 46.254l3.048 1.092a1.26 1.26 0 00-.489.468l-2.676-.837.117-.723z" fill="#263238"/><path d="M122.675 45.213c-.042.3.12.408.141.636a7.803 7.803 0 000 1.242 1.268 1.268 0 001.095 1.086 1.36 1.36 0 001.545-.636c.3-.414.315-1.062.717-.996.402.066.24.708.387 1.2a1.546 1.546 0 001.341 1.2 1.377 1.377 0 001.125-.204c.486-.357.585-1.059.771-1.545.087-.24.3-.255.36-.552.06-.297-.159-.432-.396-.48a6.627 6.627 0 00-2.136-.345c-.711.072-.987.249-1.362.18-.375-.069-.537-.336-1.137-.66a6.125 6.125 0 00-2.175-.459c-.096-.003-.249.144-.276.333zm4.371 1.2a.6.6 0 01.222-.126h.039a2.61 2.61 0 011.023-.096c.66.06 1.041.3 1.167.447.153.252-.099.984-.249 1.326-.018.039-.042.081-.066.123l-.042.066c-.399.753-1.674.57-2.058-.08-.291-.487-.288-1.309-.036-1.66zm-3.777-.987a.553.553 0 01.183-.075.958.958 0 01.162-.027h.033c.6-.063 1.62.369 1.818.792.105.273-.072.837-.252 1.2a1.25 1.25 0 01-.183.252c-.261.372-1.113.453-1.554.087-.441-.366-.423-.885-.423-1.143.009-.348.051-.978.216-1.086z" fill="#37474F"/><path d="M126.488 47.1l-.738 2.442-1.5-.936c.072-.09.15-.18.222-.273.036-.045.075-.09.108-.138l.225-.276c.198-.243.399-.48.585-.69.137-.151.282-.295.435-.429.084-.078.168-.147.234-.198a.654.654 0 01.078-.054h.054c.234.042.273.267.297.552zm.15 6.327c1.662-.072 2.928-.156 3.876-1.284.445-.584.827-1.213 1.14-1.878a8.063 8.063 0 01-.9 2.4c-.474.732-1.5 1.329-4.104 1.356l-.012-.594z" fill="#F28F8F"/><path d="M127.358 47.184a.458.458 0 00.09.35.472.472 0 00.312.184.477.477 0 00.426-.766.471.471 0 00-.492-.16.472.472 0 00-.28.22.459.459 0 00-.056.172zm.741-1.947l1.038.459a.6.6 0 00-.3-.768.56.56 0 00-.618.122.557.557 0 00-.12.187z" fill="#263238"/><path d="M127.664 50.067l-1.575.333a.846.846 0 00.987.633.788.788 0 00.588-.966z" fill="#B16668"/><path d="M126.632 51a.953.953 0 011.053-.711.776.776 0 01-1.053.71z" fill="#F28F8F"/><path d="M123.911 44.889l1.146-.042a.558.558 0 00-.168-.4.556.556 0 00-.405-.155.601.601 0 00-.573.597zm-.093 1.653a.467.467 0 00.549.457.461.461 0 00.37-.356.462.462 0 00-.88-.282.472.472 0 00-.039.18z" fill="#263238"/><path d="M117.218 73.953a7.629 7.629 0 00-2.976-.336c-1.134.066-2.022-.243-2.184-.186-.6.213-.222 1.224 1.227 1.386 1.113.126 3.933-.864 3.933-.864z" fill="#F28F8F"/><path d="M132.293 77.49c-2.571.38-10.2.702-10.572.777-.153.033-.84.144-1.017.174-.381.063-.75.14-1.131.198a3.45 3.45 0 01-.66.048 8.649 8.649 0 01-1.533-.3c-.4-.115-.822-.14-1.233-.072-.507.09-1.005.21-1.5.324a2.008 2.008 0 01-1.224-.063 4.1 4.1 0 01-.39-.222 2.266 2.266 0 00-.615-.126.816.816 0 01-.429-.231c-.06-.072-.078-.192-.153-.255a.746.746 0 00-.405-.1 2.959 2.959 0 01-.63-.116c-.273-.093-.663-.3-.585-.636.033-.16.159-.216.3-.3.225-.156.465-.3.678-.48.492-.405 1.05-.726 1.542-1.128a2.997 2.997 0 011.5-.6c.579-.093 1.152-.234 1.737-.3.477-.054.936-.234 1.422-.117 1.179.282 2.373.828 3.6.6 1.8-.342 9.744-2.496 9.744-2.496l1.917-7.221s1.338-6.465 3.372-8.37c1.47.555 2.799 1.67 3.234 3.174.516 1.773-.021 3.318-1.032 7.617-.768 3.258-.93 3.555-1.8 6.615-.732 2.52-.99 3.14-4.137 3.606z" fill="#FFA8A7"/><path d="M135.917 56.289c1.536.708 3.222 1.665 3.63 4.143.408 2.478-1.932 10.023-1.932 10.023a9.385 9.385 0 01-3.537-.447c-2.1-.63-2.562-1.587-2.562-1.587s.711-3.273 1.119-4.8c.408-1.527 1.236-5.46 3.282-7.332z" fill="#459AE9"/><path d="M110.084 87.267a1.199 1.199 0 01-1.044-.081l-17.823-10.29a1.2 1.2 0 01-.6-.846l-1.953-11.637a1.218 1.218 0 01.342-1.059l18.522 10.695a.899.899 0 01.435.627l2.121 12.591z" fill="#37474F"/><path d="M110.372 87.117l-.12.069c-.054.03-.11.057-.168.081l-2.1-12.6a.899.899 0 00-.435-.627L89.027 63.345a1.2 1.2 0 01.25-.189l18.548 10.725a.899.899 0 01.435.627l2.112 12.609z" fill="#455A64"/><path d="M107.804 74.286l.3-.165a.877.877 0 01.168.387l2.1 12.6-.12.069c-.054.03-.11.057-.168.081l-2.1-12.6a.868.868 0 00-.18-.372z" fill="#263238"/><path d="M100.046 76.527c-.129-.78-.933-1.815-1.8-2.313-.867-.498-1.455-.267-1.326.51.13.777.936 1.8 1.8 2.313.864.513 1.458.267 1.326-.51z" fill="#459AE9"/><path d="M30.566 120.495l1.017-.486-1-.282-.017.768z" fill="#263238"/><path d="M40.625 122.4s-11.949-5.4-12.105-4.617a1.17 1.17 0 000 .48l-.033-.045.213 1.5a3.6 3.6 0 001.863.786c0-.072 0-.516.018-.768.366.154.715.343 1.044.564.765.507 1.254 1.389 2.064 2.418.6.747 1.647 1.101 3.22 1.332 1.688.249 3.18-.063 3.6-.507.35-.366.188-1.026.116-1.143z" fill="#263238"/><path d="M40.307 122.133c-.114-.12-.54-.6-1.113-1.098-.504-.447-1.092-1.011-1.722-1.47a6.865 6.865 0 01-.855-.705 8.71 8.71 0 01-.6-.699 12.71 12.71 0 01-1.434-2.433 5.571 5.571 0 01-.495-1.278 8.024 8.024 0 01-.132-1.416c0-2.139.048-2.478.069-4.104l-5.073.132c.162.9.405 2.136.486 3.162.123 1.56.162 1.905-.462 3.456-.186.456-.459.9-.486 1.386-.042.798.6 1.5 1.293 1.884.6.327 1.26.471 1.83.819.577.395 1.08.889 1.482 1.461.402.51.72 1.116 1.287 1.479a5.34 5.34 0 001.95.681c.865.158 1.747.207 2.625.147 1.254-.087 2.184-.537 1.35-1.404z" fill="#F0B2B4"/><path d="M39.626 121.26a79.909 79.909 0 00-2.124-1.752 2.273 2.273 0 00-1.86.156c-1.8.9-2.1 2.223-2.1 2.223.297.595.817 1.05 1.446 1.266 2.052.9 5.742.645 5.784-.3.024-.588-.522-1.053-1.146-1.593zM29.1 115.344c-.13.307-.277.607-.438.9a1.67 1.67 0 000 1.8 2.738 2.738 0 001.8 1.224c.585-1.761-.636-3.537-1.362-3.924z" fill="#37474F"/><path d="M19.34 116.943c.33.537-.087 2.556 0 3.993.072 1.308.426 3.585.036 4.875-.465 1.527-1.416 3.3-3.201 1.857-1.107-.9-1.743-2.043-1.902-3.924-.111-1.308.399-3.114.834-4.713.51-1.872.705-2.871.705-2.871l3.528.783z" fill="#263238"/><path d="M15.755 107.277c-.129 3.048.231 5.19.252 7.143a13.542 13.542 0 01-.282 2.637c-.26 1.245-.705 2.976-.9 3.783-.258 1.128-.456 1.839-.06 3.105.033.105.077.205.132.3.552 1.044 1.962 1.83 2.4 1.704a.792.792 0 00.795.273.771.771 0 00.15-.036 1.38 1.38 0 00.15-.06 1.493 1.493 0 00.75-.957c.03-.09.054-.183.072-.276.203-1.066.254-2.156.15-3.237 0-.846 0-1.668.072-2.811s.25-4.644.654-6.36c.3-1.2.675-2.7 1.071-4.305l-5.406-.903z" fill="#F0B2B4"/><path d="M14.561 122.31c1.11-.483 4.335-.549 4.848.993 0 1.449.024 2.433-.9 3.696-1.242 1.677-2.859-.102-3.48-1.23s-.621-2.679-.468-3.459z" fill="#37474F"/><path d="M19.961 67.455c-1.572 2.766-2.838 5.1-3.246 12.396-.462 8.241-.393 11.379-.435 12.375-.042.996-.693 2.817-1.248 7.716s.03 16.77.03 16.77.393.801 2.301.981c1.761.168 2.793-.438 2.793-.438s2.8-15.6 3.486-18.537c.687-2.937 2.7-12.639 2.7-12.639l.663 9.249s-.558 2.7-.05 7.005c.506 4.305 1.8 12.432 1.8 12.432s.75.744 3.05.699c2.448-.048 2.958-.714 2.958-.714s.55-17.487.6-22.359c.051-4.872.324-17.523-1.2-24.747l-14.202-.189z" fill="#455A64"/><path d="M27.989 76.722l-1.644 9.357.663 9.249v-9.351l1.464-7.677c1.2-.273 3.93-1.662 4.695-3.67-1.86 1.87-5.178 2.092-5.178 2.092zm-5.553-5.517c.219-.786.447-1.566.702-2.352-.444.701-.81 1.449-1.092 2.229a21.93 21.93 0 00-.738 2.364 24.749 24.749 0 00-.471 2.427 15.34 15.34 0 00-.183 2.463c.204-.801.396-1.596.6-2.4.204-.804.378-1.587.582-2.376.204-.79.387-1.56.6-2.355zm-1.2-.6c.273-.477.549-.957.8-1.464a9.165 9.165 0 00-1.145 1.242 12.51 12.51 0 00-.933 1.4c-.277.49-.515 1.001-.711 1.528a6.363 6.363 0 00-.396 1.632l.774-1.47c.26-.48.522-.963.795-1.437.273-.474.549-.936.819-1.431h-.003zm-1.227 31.275a304.729 304.729 0 00-1.35 7.617 297.872 297.872 0 001.755-7.536 512.78 512.78 0 001.61-7.572c.526-2.538.829-5.1 1.102-7.668.273-2.568.486-5.136.663-7.707-.381 2.55-.723 5.1-1.071 7.659s-.714 5.1-1.2 7.62c-.486 2.52-1.032 5.055-1.51 7.587zm13.116-12.558c.045 1.116.105 2.24.078 3.345-.027 1.104.02 3.24-.045 4.359 0 0-.066 6.585.132 9.081.3-2.229.345-11.17.44-13.428 0-2.271-.17-4.5-.356-6.744a100.096 100.096 0 00-.79-6.696l.379 6.723c.063 1.119.129 2.238.162 3.36z" fill="#37474F"/><path d="M21.101 39.774c-.02.105-.336.3-.423.411-.19.194-.358.407-.504.636a3.347 3.347 0 00-.438 1.623c.015.878.256 1.737.702 2.493.443.753.95 1.465 1.515 2.13l1.41 1.758a.672.672 0 00.801.324c.735-.111 1.47-.234 2.2-.369a10.56 10.56 0 001.991-.51 5.701 5.701 0 002.62-2.136c.3-.432.677-1.044.731-1.575.024-.24-.09-.447-.03-.696a5.25 5.25 0 01.46-.867c.338-.68.495-1.437.455-2.196-.144-1.56-1.107-3.582-3.969-4.161-2.397-.483-6.942.036-7.52 3.135z" fill="#263238"/><path d="M56.924 55.35a1.446 1.446 0 00-.84-.159 9.507 9.507 0 00-1.35.324c-.69.159-1.8.42-2.49.201-.141-.045-.417-.177-.177-.3a5.96 5.96 0 00.924-.498 1.23 1.23 0 00.543-.852.412.412 0 00-.072-.3c-.093-.117-.189-.084-.3-.042a3.1 3.1 0 01-.363.099l-.756.192c-1.464.381-2.964.9-4.062 1.956-.159.156-.516.66-2.148 1.602-1.563.9-5.574 3.159-5.574 3.159s-2.934-3.732-3.957-5.04c-1.8-2.325-2.337-2.982-4.821-3.411l.744 7.761s3.864 4.458 5.22 5.514c1.857 1.455 2.361 1.311 3.861.417 1.965-1.164 2.754-1.899 4.317-3.225 1.899-1.611 2.571-2.154 3.195-2.607.624-.453 1.572-.462 2.037-.477a7.054 7.054 0 001.905-.267 6.523 6.523 0 001.569-.6c.252-.106.48-.262.669-.459.088-.206.188-.406.3-.6.168-.204.429-.324.573-.543.091-.185.159-.38.201-.582.102-.3.351-.441.63-.582.141-.055.268-.141.372-.252.141-.186.018-.33-.15-.429z" fill="#F0B2B4"/><path d="M40.262 60.735c-1.395.804-1.974 1.902-2.028 2.88-.564-2.154 1.686-3.318 1.686-3.318l.342.438zM51.287 56.1a4.608 4.608 0 01-2.085 1.5 1.96 1.96 0 001.317-.267 1.746 1.746 0 00.768-1.233z" fill="#C5878A"/><path d="M18.407 71.226c-.918-.744.207-1.056.534-5.583.087-1.167-.672-4.776-.672-4.776s1.722-2.523 1.026-8.157l3.63-.873 5.436-.081 3.126.525a20.431 20.431 0 012.892 3.414c1.5 2.199 1.377 5.025-.258 6.774-.056 1.35-.03 2.703.075 4.05.204 1.881 1.25 3.711.159 4.641-3.198 2.712-11.62 2.901-15.948.066z" fill="#459AE9"/><path opacity=".6" d="M18.407 71.226c-.918-.744.207-1.056.534-5.583.087-1.167-.672-4.776-.672-4.776s1.722-2.523 1.026-8.157l3.63-.873 5.436-.081 3.126.525a20.431 20.431 0 012.892 3.414c1.5 2.199 1.377 5.025-.258 6.774-.056 1.35-.03 2.703.075 4.05.204 1.881 1.25 3.711.159 4.641-3.198 2.712-11.62 2.901-15.948.066z" fill="#fff"/><path d="M22.25 47.778a1.8 1.8 0 01-1.605-.6c-.846-.9-.924-1.842-.531-2.46.324-.51 1.119-.834 1.68-.492.561.342.618.672.831 1.074.213.402.807.09.6-1.578 1.158-.537.972-2.448 1.599-3.228.981-1.221 2.598-.9 3.126-.618a2.145 2.145 0 012.202-.141c.783.41 1.302 1.275 1.578 4.242.282 3.024 0 4.578-.9 5.4a3.72 3.72 0 01-2.55.96l.042 1.407s3.096 2.937-.9 2.649a6.275 6.275 0 01-4.497-2.493v-4.596s-.081.366-.675.474z" fill="#F0B2B4"/><path d="M28.802 47.241a.9.9 0 01-1.366.56.873.873 0 01-.38-.899l1.746.339z" fill="#C5878A"/><path d="M27.05 47.187a.876.876 0 001.02.74.9.9 0 00-1.02-.74z" fill="#F28F8F"/><path d="M30.896 42.093l-1.152-.375a.6.6 0 011.106-.089.62.62 0 01.046.464zm-4.254-.333l-1.143.6a.6.6 0 01.237-.858.69.69 0 01.906.258zm-.472 2.16a.474.474 0 10.95 0 .474.474 0 00-.95 0zm4.276.33a.474.474 0 100-.948.474.474 0 000 .948z" fill="#263238"/><path d="M32.348 42.405l-.228-.018a6.972 6.972 0 00-2.259.171c-.708.24-.948.486-1.347.507-.399.021-.717-.207-1.5-.381a7.987 7.987 0 00-2.427.036l-.24.036a.357.357 0 00-.243.396.86.86 0 00.261.435c.04.053.072.113.093.177.091.415.218.821.378 1.215.088.16.203.306.34.429.053.044.109.085.167.123l.096.054c.089.047.182.084.28.111h.047l.072.018.078.015c.08.013.162.021.243.024h.231c.993-.042 1.38-.51 1.593-.987.213-.477.108-1.134.567-1.152h.085c.344.06.344.666.6 1.092.093.17.213.326.356.459l.081.072.045.033.045.03.042.027.045.027.033.018h.027c.128.064.264.11.405.135h.036c.162.025.326.033.49.024a1.35 1.35 0 001.343-.915c.103-.407.17-.823.201-1.242a.364.364 0 01.075-.165.808.808 0 00.18-.462.388.388 0 00-.29-.342zm-4.65 1.947a1.32 1.32 0 01-.3.666 1.396 1.396 0 01-1.059.417A1.267 1.267 0 0125.262 45l-.036-.045-.033-.045-.027-.042-.024-.039a.082.082 0 01-.018-.03l-.018-.027a.352.352 0 00-.024-.048c-.024-.045-.042-.09-.06-.132 0-.027-.02-.054-.03-.078-.009-.024-.03-.093-.042-.132v-.024a.07.07 0 010-.024c-.099-.321-.234-.957-.072-1.11.162-.153.6-.321 1.347-.3h.078c.115.008.229.022.342.042l.135.024c.113.023.226.052.336.087l.102.036.114.045h.021l.042.018a.686.686 0 01.234.162c.144.225.126.648.07 1.014zm4.305-.327a1.345 1.345 0 01-.627 1.074 1.314 1.314 0 01-.543.138 1.266 1.266 0 01-1.14-.438l-.02-.027-.028-.036v-.018l-.03-.048a.583.583 0 01-.033-.06l-.018-.027v-.06a1.477 1.477 0 01-.087-.24c-.102-.36-.17-.78-.045-.984.126-.204.657-.45 1.18-.537.12-.018.233-.03.338-.039h.393a1.5 1.5 0 01.174.024h.159l.081.027a.676.676 0 01.19.102c.155.177.107.822.056 1.149z" fill="#37474F"/><path d="M30.17 45.717l-1.69.72-.362-2.133c.063-.318.126-.645.402-.672l1.65 2.085z" fill="#D49EA0"/><path d="M24.398 43.005l-2.604 1.224c.143.093.278.2.402.318l2.27-1.011-.068-.531z" fill="#37474F"/><path d="M28.325 50.349c-1.56-.057-3.654-.6-4.2-1.59.3 1.065 1.413 1.617 2.289 1.86a9.241 9.241 0 001.914.324l-.003-.594z" fill="#C5878A"/><path d="M28.439 60c.996-.66 1.5-.9 1.947-1.017.447-.117 2.058-.678 2.667-.798.387-.075.516.528 0 .918-.39.3-1.383.672-1.821.882-.438.21-1.326 1.176-1.326 1.176L28.439 60z" fill="#F0B2B4"/><path d="M14.9 55.731c1.041-1.956 2.763-2.589 4.395-3.021.828 2.115.12 6.561.12 6.561l-1.266 4.839s5.676-.552 6.345-.93c.669-.378 2.499-2.145 3.108-2.673.831-.717 1.221-.6 1.626-.519 1.317.255 1.605.378 1.878.564a.6.6 0 01.234.519c.351.06.879.072.921.642.022.151.022.305 0 .456.088.02.166.07.222.141.279.345-.276 1.479-.6 1.746a1.165 1.165 0 01-.969.123c-.357-.063-.174-.414-.174-.414h-.501c-1.113.705-1.233 2.193-2.676 2.46-.592.03-1.18.114-1.758.252-3.123.885-8.28 3.723-11.043 3.843-2.682.108-2.544-1.287-2.514-2.895.027-1.425 1.611-9.747 2.652-11.694z" fill="#F0B2B4"/><path d="M18.287 63.567l-.138.543c-1.23.255-2.73 1.767-3.051 2.4.273-1.017 1.023-2.478 3.189-2.943zM31.34 61.07l-1.563-.38 1.54.165a.6.6 0 01.023.216zm.924 1.099l-1.8-.3 1.8.105a.948.948 0 010 .195zm-1.668 1.332a.717.717 0 00.243-.333c.21.01.422.01.633 0 .083-.014.165-.034.246-.06a.659.659 0 00.27-.153.565.565 0 01-.252.198c-.088.04-.18.067-.276.081l-.114.216a.36.36 0 01.183.078.486.486 0 01.15.24.575.575 0 00-.177-.201.365.365 0 00-.24-.054.776.776 0 00-.528.267h-.501c.127-.085.248-.178.363-.279z" fill="#C5878A"/></svg>