<svg width="151" height="150" fill="none" xmlns="http://www.w3.org/2000/svg"><path d="M25.876 75.036c-27.516 15.9-27.516 41.646 0 57.531 27.516 15.885 72.132 15.9 99.648 0 27.516-15.9 27.516-41.643 0-57.531-27.516-15.888-72.132-15.885-99.648 0zm-19.947-.474l.645.042 24.192-13.98-.324-.234L5.929 74.562z" fill="#FAFAFA"/><path d="M30.442 60.39L6.574 74.19V37.494l23.868-13.8V60.39z" fill="#fff"/><path d="M31.411 22.395L5.929 37.119V75.72l25.482-14.724V22.395zm-.645 38.229L6.574 74.604V37.5l24.192-13.98v37.104z" fill="#F0F0F0"/><path d="M30.766 60.624l-.324-.234V23.694l.324-.18v37.11z" fill="#E0E0E0"/><path d="M31.411 22.395l-.324-.186L5.605 36.936l.324.183 25.482-14.724z" fill="#FAFAFA"/><path d="M5.605 36.936l.324.183V75.72l-.324-.186V36.936z" fill="#E0E0E0"/><path d="M6.574 50.055l23.868-13.806.324.195-24.192 13.98v-.369z" fill="#FAFAFA"/><path d="M30.766 36.444v.72L6.574 51.144v-.72l24.192-13.98z" fill="#F0F0F0"/><path d="M6.574 61.35l23.868-13.803.324.192-24.192 13.98v-.369z" fill="#FAFAFA"/><path d="M30.766 47.739v.72L6.574 62.439v-.72l24.192-13.98zM6.574 38.031l23.868-13.794.171.756L6.574 38.892v-.861z" fill="#F0F0F0"/><path d="M6.574 38.031v.345l23.937-13.839-.069-.3L6.574 38.031z" fill="#E0E0E0"/><path d="M6.574 39.234L30.442 25.44l.171.753L6.574 40.095v-.861z" fill="#F0F0F0"/><path d="M6.574 39.234v.345L30.511 25.74l-.069-.3L6.574 39.234z" fill="#E0E0E0"/><path d="M6.574 40.437l23.868-13.794.171.753L6.574 41.298v-.861z" fill="#F0F0F0"/><path d="M6.574 40.437v.345l23.937-13.839-.069-.3L6.574 40.437z" fill="#E0E0E0"/><path d="M6.574 41.64l23.868-13.797.171.756L6.574 42.501v-.861z" fill="#F0F0F0"/><path d="M6.574 41.64v.345l23.937-13.842-.069-.3L6.574 41.64z" fill="#E0E0E0"/><path d="M6.574 42.843l23.868-13.797.171.756L6.574 43.704v-.861z" fill="#F0F0F0"/><path d="M6.574 42.843v.345l23.937-13.842-.069-.3L6.574 42.843z" fill="#E0E0E0"/><path d="M6.574 44.046l23.868-13.797.171.756L6.574 44.904v-.858z" fill="#F0F0F0"/><path d="M6.574 44.046v.345l23.937-13.842-.069-.3L6.574 44.046z" fill="#E0E0E0"/><path d="M6.574 45.249l23.868-13.797.171.756L6.574 46.107v-.858z" fill="#F0F0F0"/><path d="M6.574 45.249v.345l23.937-13.842-.069-.3L6.574 45.249z" fill="#E0E0E0"/><path d="M6.574 46.452l23.868-13.797.171.756L6.574 47.31v-.858z" fill="#F0F0F0"/><path d="M6.574 46.452v.345l23.937-13.842-.069-.3L6.574 46.452z" fill="#E0E0E0"/><path d="M6.574 47.655l23.868-13.797.171.756L6.574 48.513v-.858z" fill="#F0F0F0"/><path d="M6.574 47.655V48l23.937-13.842-.069-.3L6.574 47.655z" fill="#E0E0E0"/><path d="M6.574 48.855l23.868-13.794.171.756L6.574 49.716v-.861z" fill="#F0F0F0"/><path d="M6.574 48.855v.348l23.937-13.842-.069-.3L6.574 48.855z" fill="#E0E0E0"/><path d="M34.672 57.984l.645.045 24.192-13.98-.32-.234-24.517 14.169z" fill="#FAFAFA"/><path d="M59.188 43.815l-23.87 13.797V20.916l23.87-13.797v36.696z" fill="#fff"/><path d="M60.154 5.82L34.672 20.544v38.6l25.482-14.723V5.82zM59.5 44.049l-24.192 13.98V20.916L59.5 6.936v37.113z" fill="#F0F0F0"/><path d="M59.509 44.049l-.321-.234V7.119l.321-.18v37.11z" fill="#E0E0E0"/><path d="M60.154 5.82l-.32-.186L34.35 20.358l.321.186L60.154 5.82z" fill="#FAFAFA"/><path d="M34.351 20.358l.321.186v38.601l-.32-.186V20.358z" fill="#E0E0E0"/><path d="M35.317 33.477l23.871-13.803.321.195-24.192 13.98v-.372z" fill="#FAFAFA"/><path d="M59.51 19.869v.72l-24.193 13.98v-.72l24.192-13.98z" fill="#F0F0F0"/><path d="M35.317 44.775l23.871-13.803.321.192-24.192 13.98v-.369z" fill="#FAFAFA"/><path d="M59.51 31.164v.72l-24.193 13.98v-.72l24.192-13.98zm-24.193-9.708L59.188 7.662l.168.753-24.039 13.902v-.861z" fill="#F0F0F0"/><path d="M35.317 21.456v.345L59.254 7.962l-.066-.3-23.87 13.794z" fill="#E0E0E0"/><path d="M35.317 22.659L59.188 8.865l.168.753L35.317 23.52v-.861z" fill="#F0F0F0"/><path d="M35.317 22.659v.345L59.254 9.165l-.066-.3-23.87 13.794z" fill="#E0E0E0"/><path d="M35.317 23.862l23.871-13.797.168.756-24.039 13.902v-.861z" fill="#F0F0F0"/><path d="M35.317 23.862v.345l23.937-13.842-.066-.3-23.87 13.797z" fill="#E0E0E0"/><path d="M35.317 25.065l23.871-13.797.168.756-24.039 13.902v-.861z" fill="#F0F0F0"/><path d="M35.317 25.065v.345l23.937-13.842-.066-.3-23.87 13.797z" fill="#E0E0E0"/><path d="M35.317 26.268l23.871-13.797.168.756-24.039 13.899v-.858z" fill="#F0F0F0"/><path d="M35.317 26.268v.345l23.937-13.842-.066-.3-23.87 13.797z" fill="#E0E0E0"/><path d="M35.317 27.471l23.871-13.797.168.756-24.039 13.899v-.858z" fill="#F0F0F0"/><path d="M35.317 27.471v.345l23.937-13.842-.066-.3-23.87 13.797z" fill="#E0E0E0"/><path d="M35.317 28.674l23.871-13.797.168.756-24.039 13.899v-.858z" fill="#F0F0F0"/><path d="M35.317 28.674v.345l23.937-13.842-.066-.3-23.87 13.797z" fill="#E0E0E0"/><path d="M35.317 29.874L59.188 16.08l.168.756-24.039 13.899v-.861z" fill="#F0F0F0"/><path d="M35.317 29.874v.348L59.254 16.38l-.066-.3-23.87 13.794z" fill="#E0E0E0"/><path d="M35.317 31.077l23.871-13.794.168.756-24.039 13.899v-.861z" fill="#F0F0F0"/><path d="M35.317 31.077v.348l23.937-13.842-.066-.3-23.87 13.794z" fill="#E0E0E0"/><path d="M35.317 32.28l23.871-13.794.168.756-24.039 13.899v-.861z" fill="#F0F0F0"/><path d="M35.317 32.28v.345l23.937-13.839-.066-.3-23.87 13.794zm73.791-20.103l-.234.135v28.845c0 .762.462 1.65 1.035 1.98L141.724 61.5a.681.681 0 00.648.069c.051-.024.228-.129.267-.153a.915.915 0 00.357-.837V31.743l-33.888-19.566z" fill="#E0E0E0"/><path d="M141.724 61.5L109.9 43.137c-.573-.33-1.035-1.218-1.035-1.98V12.3l33.9 19.566V60.72c-.006.762-.465 1.113-1.041.78z" fill="#FAFAFA"/><path d="M109.174 12.834l33.3 19.218V60.72c0 .279-.084.6-.324.6a.527.527 0 01-.261-.084l-31.8-18.366a2.197 2.197 0 01-.885-1.719V12.834m-.3-.522v28.845c0 .762.462 1.65 1.035 1.98L141.724 61.5a.836.836 0 00.411.123c.369 0 .624-.339.624-.9V31.878L108.874 12.3l.03.012z" fill="#E0E0E0"/><path d="M140.146 45.036l-2.316-1.338v-3.567l2.316 1.338v3.567zm.252 4.995l-2.316-1.338v-3.564l2.316 1.335v3.567z" opacity=".15" fill="#000"/><path d="M137.716 48.6l2.394 1.365.216-2.895-2.409-1.392-.201 2.922z" fill="#F0F0F0"/><path d="M137.917 45.678l2.409 1.392v-.447l-2.409-1.389v.444z" fill="#E0E0E0"/><path opacity=".1" d="M137.917 45.678l2.409 1.392v-.447l-2.409-1.389v.444z" fill="#E6E6E6"/><path d="M137.515 43.578l1.602.9c.177.099.3-.189.3-.363.177.114.543.186.561-.042l.15-2.022-2.4-1.392-.213 2.919z" fill="#fff"/><path d="M137.716 40.656l2.409 1.392v-.447l-2.409-1.392v.447zm2.184 3.534l-.66.291.207-.537.453.246z" fill="#F0F0F0"/><path opacity=".15" d="M136.396 46.587l-24.678-14.265V15.726l24.678 14.265v16.596z" fill="#000"/><path d="M135.799 46.401l.066-.039a.438.438 0 00.138-.145.444.444 0 00.057-.191v-15.6a.437.437 0 00-.195-.336L111.7 16.101a.425.425 0 00-.39 0l-.066.039a.427.427 0 00-.195.336v15.6a.43.43 0 00.195.336L135.4 46.401a.442.442 0 00.399 0z" fill="#F0F0F0"/><path d="M136.057 30.417v15.6a.423.423 0 01-.192.336l-.066.039a.45.45 0 01-.345.018c.087.027.15-.024.15-.132v-15.6a.383.383 0 00-.057-.189l.456-.264a.43.43 0 01.054.192z" fill="#E0E0E0"/><path d="M111.256 16.365L135.4 30.342a.425.425 0 01.195.336v15.6c0 .126-.087.174-.195.114l-24.153-13.98a.428.428 0 01-.195-.336v-15.6c.009-.123.096-.174.204-.111z" fill="#fff"/><path d="M133.576 43.374a.596.596 0 01-.3-.456.198.198 0 01.03-.111l-1.8-3.54c-.045.069-.147.078-.258 0a.596.596 0 01-.3-.456.155.155 0 01.06-.138l-1.845-2.46a.209.209 0 01-.231 0 .596.596 0 01-.3-.456.243.243 0 010-.066l-1.746-3.963c-.03.108-.141.135-.279.057a.596.596 0 01-.3-.456.188.188 0 01.093-.129l-1.8-1.932c-.045.066-.144.075-.258 0a.625.625 0 01-.204-.204l-1.893.816a.492.492 0 01.081.252c0 .162-.129.216-.3.126a.6.6 0 01-.3-.459.332.332 0 010-.063l-1.743-1.449c-.03.111-.144.138-.279.06a.596.596 0 01-.3-.456.146.146 0 01.108-.162l-1.944-3.57a.254.254 0 01-.18-.039.596.596 0 01-.3-.456l-1.725-.996c0 .159-.129.213-.3.123a.596.596 0 01-.3-.456.15.15 0 01.108-.165l-1.938-3.555a.244.244 0 01-.186-.039v13.872l20.73 11.967.099-1.041z" fill="#F0F0F0"/><path d="M114.871 22.17a.22.22 0 00-.081.183.676.676 0 00.324.513c.05.03.106.05.165.054a.216.216 0 00.108-.018.196.196 0 00.102-.105l1.608.93a.674.674 0 00.318.468c.05.03.106.049.165.054l1.893 3.477a.22.22 0 00-.081.183.676.676 0 00.324.513c.05.03.106.05.165.054a.255.255 0 00.108 0 .239.239 0 00.06-.042l1.65 1.368v.033a.658.658 0 00.324.51.4.4 0 00.162.057.21.21 0 00.231-.225.533.533 0 00-.063-.231l1.779-.765a.671.671 0 00.192.177c.05.03.106.049.165.054a.227.227 0 00.111-.018l1.713 1.854a.213.213 0 00-.018.093.658.658 0 00.324.51c.049.03.105.05.162.057a.22.22 0 00.111-.018h.024l1.698 3.81a.661.661 0 00.321.567c.05.03.106.049.165.054a.194.194 0 00.072 0l1.782 2.373a.242.242 0 00-.039.138.658.658 0 00.324.51c.05.03.106.05.165.057a.27.27 0 00.099-.015l1.737 3.438a.256.256 0 00-.021.102.661.661 0 00.321.513c.05.03.106.049.165.054a.27.27 0 00.111 0 .21.21 0 00.12-.207.664.664 0 00-.324-.513.3.3 0 00-.273-.039l-1.728-3.423a.262.262 0 00.027-.123.653.653 0 00-.324-.513.33.33 0 00-.249-.045l-1.776-2.364a.236.236 0 00.048-.147.664.664 0 00-.324-.513.303.303 0 00-.276-.039l-.036.024L127 31.746a.653.653 0 00-.324-.597.3.3 0 00-.273-.036h-.021l-1.707-1.845a.251.251 0 00.024-.108.664.664 0 00-.324-.51.303.303 0 00-.276-.039.209.209 0 00-.092.085.216.216 0 00-.028.122.536.536 0 00.06.225l-1.779.765a.641.641 0 00-.189-.171.3.3 0 00-.273-.036.194.194 0 00-.069.051l-1.629-1.35v-.048a.669.669 0 00-.3-.513.363.363 0 00-.186-.054l-1.89-3.471a.208.208 0 00.074-.083.207.207 0 00.022-.109.67.67 0 00-.324-.51.3.3 0 00-.273-.039.197.197 0 00-.066.047.188.188 0 00-.039.07l-1.605-.927a.658.658 0 00-.318-.48.363.363 0 00-.186-.054l-1.866-3.411h-.159l1.887 3.45zm18.483 20.751c0-.054.018-.093.048-.105a.22.22 0 01.132.033.533.533 0 01.255.399c0 .054-.018.093-.051.105a.155.155 0 01-.132-.027.528.528 0 01-.252-.405zm-2.304-4.095c0-.054.018-.093.051-.105a.158.158 0 01.132.027.529.529 0 01.252.399.147.147 0 010 .066.045.045 0 00-.021.027.153.153 0 01-.135-.027.532.532 0 01-.279-.387zm-2.301-3.069c0-.054.018-.093.048-.105a.146.146 0 01.132.027.529.529 0 01.252.399.127.127 0 01-.027.09.16.16 0 01-.129-.027.524.524 0 01-.276-.384zm-2.304-4.428c0-.054.018-.093.051-.105a.158.158 0 01.132.027.536.536 0 01.252.399v.03a.044.044 0 00-.005.023c0 .007.001.015.005.022 0 0-.018.027-.03.03a.153.153 0 01-.135-.027.537.537 0 01-.27-.399zm-2.301-2.49a.11.11 0 01.048-.105.086.086 0 01.039 0 .21.21 0 01.093.03.541.541 0 01.252.402.134.134 0 010 .063.049.049 0 00-.021.03.167.167 0 01-.132-.027.532.532 0 01-.279-.393zm-2.304.99c0-.054.018-.093.048-.105a.09.09 0 01.042 0 .325.325 0 01.093.033c.063.04.117.092.159.153a.042.042 0 000 .027.045.045 0 00.018 0 .448.448 0 01.066.204.109.109 0 01-.009.062.11.11 0 01-.042.046.16.16 0 01-.132-.03.534.534 0 01-.243-.39zm-2.304-1.908c0-.054.018-.093.051-.105a.146.146 0 01.132.027.529.529 0 01.252.399.182.182 0 010 .033.044.044 0 00-.004.02c0 .006.001.013.004.019a.087.087 0 01-.033.033.155.155 0 01-.132-.027.534.534 0 01-.27-.399zm-2.301-4.221a.106.106 0 01.009-.06.111.111 0 01.039-.048.155.155 0 01.132.03.533.533 0 01.255.399c0 .054-.018.093-.051.105a.167.167 0 01-.132-.027.519.519 0 01-.252-.399zm-2.304-1.332a.104.104 0 01.01-.06.106.106 0 01.041-.045.17.17 0 01.132.027.547.547 0 01.249.378.05.05 0 000 .048.094.094 0 01-.045.081.164.164 0 01-.132-.027.542.542 0 01-.255-.408v.006z" fill="#E0E0E0"/><path d="M112.939 19.365a.065.065 0 00.067-.034.076.076 0 00.008-.026v-.6l.6.3a.08.08 0 00.102-.027.062.062 0 000-.054.056.056 0 00-.016-.022.062.062 0 00-.023-.014l-.72-.339a.074.074 0 00-.072 0 .052.052 0 00-.027.021.049.049 0 00-.009.033v.69c0 .011.003.022.007.032.005.01.012.018.021.025a.077.077 0 00.062.015z" fill="#E0E0E0"/><path opacity=".15" d="M136.396 56.616l-14.526-8.4v-8.643l14.526 8.4v8.643z" fill="#000"/><path d="M135.799 56.427l.066-.039a.422.422 0 00.195-.336v-7.653a.43.43 0 00-.195-.336l-14.001-8.1a.425.425 0 00-.39 0l-.066.039a.423.423 0 00-.195.336v7.653a.418.418 0 00.195.336l14.001 8.1a.424.424 0 00.39 0z" fill="#F0F0F0"/><path d="M136.057 48.399v7.653a.434.434 0 01-.192.339l-.066.039a.45.45 0 01-.345.018c.087.024.15-.024.15-.132V48.66a.383.383 0 00-.057-.189l.456-.264a.417.417 0 01.054.192z" fill="#E0E0E0"/><path d="M121.408 40.2l14.001 8.1a.427.427 0 01.195.336v7.656c0 .123-.087.174-.195.111l-14.001-8.1a.425.425 0 01-.195-.336v-7.641c0-.126.087-.174.195-.126z" fill="#fff"/><path opacity=".15" d="M141.637 59.853l-4.755-2.742v-7.992l4.755 2.742v7.992z" fill="#000"/><path d="M141.289 59.928l-4.515-2.604a.264.264 0 01-.117-.207v-7.716c0-.075.051-.108.117-.069l4.515 2.607a.26.26 0 01.12.207v7.713c-.009.078-.054.108-.12.069z" fill="#fff"/><path d="M140.833 53.1l-3.6-2.079a.255.255 0 01-.135-.186c0-.063.06-.075.135-.033l3.6 2.079a.258.258 0 01.132.186c0 .066-.06.081-.132.033zm0 .573l-3.6-2.076a.266.266 0 01-.135-.189c0-.06.06-.075.135-.03l3.6 2.076a.272.272 0 01.132.189c0 .057-.06.075-.132.03zm0 1.182l-3.6-2.076a.266.266 0 01-.09-.079.274.274 0 01-.045-.11c0-.06.06-.075.135-.03l3.6 2.076a.272.272 0 01.132.189c0 .075-.06.075-.132.03zm0 .57l-3.6-2.079a.257.257 0 01-.135-.186c0-.06.06-.075.135-.033l3.6 2.079a.263.263 0 01.132.189c0 .06-.06.072-.132.03zm0 1.752l-3.6-2.079a.256.256 0 01-.135-.186c0-.06.06-.075.135-.033l3.6 2.079a.258.258 0 01.132.186c0 .06-.06.075-.132.033zm0-.57l-3.6-2.076a.265.265 0 01-.135-.189c0-.06.06-.075.135-.03l3.6 2.076a.273.273 0 01.132.189c0 .06-.06.075-.132.03zm-2.064-5.241h.048l.09-.051.126-.078.147-.087c.015 0 0-.06-.03-.051l-.15.081-.129.072-.09.054s-.024 0-.021.021a.037.037 0 00-.002.01l.002.011.009.018z" fill="#E0E0E0"/><path d="M138.676 51.429c.072.123.186.189.3.123a.131.131 0 00.051-.117.395.395 0 00-.183-.315.133.133 0 00-.123 0 .228.228 0 00-.085.145.227.227 0 00.04.164z" fill="#E0E0E0"/><path d="M138.676 51.429c.072.123.186.189.3.123a.131.131 0 00.051-.117.395.395 0 00-.183-.315.133.133 0 00-.123 0 .228.228 0 00-.085.145.227.227 0 00.04.164z" fill="#000" opacity=".15"/><path d="M138.529 51.669l-.135-.231c.103-.053.199-.118.285-.195a.074.074 0 01.044-.015.07.07 0 01.043.015.26.26 0 01.12.204.085.085 0 01-.033.078h-.024a1.432 1.432 0 00-.3.144z" fill="#E0E0E0"/><path d="M138.277 51.483a.144.144 0 01.144-.141.15.15 0 01.051 0h.024a.321.321 0 01.144.252.14.14 0 01-.04.107.141.141 0 01-.104.046.144.144 0 01-.144-.141v-.015a.145.145 0 01-.075-.108z" fill="#E0E0E0"/><path d="M138.277 51.483a.144.144 0 01.144-.141.15.15 0 01.051 0h.024a.321.321 0 01.144.252.14.14 0 01-.04.107.141.141 0 01-.104.046.144.144 0 01-.144-.141v-.015a.145.145 0 01-.075-.108z" fill="#000" opacity=".15"/><path d="M138.421 51.411c-.081-.045-.144 0-.144.084a.299.299 0 00.144.249c.078.048.144 0 .144-.084a.32.32 0 00-.144-.249z" fill="#E0E0E0"/><path opacity=".15" d="M120.676 47.295l-4.752-2.745v-7.989l4.752 2.742v7.992z" fill="#000"/><path d="M120.331 47.37l-4.5-2.604a.268.268 0 01-.12-.207v-7.716c0-.078.054-.108.12-.069l4.5 2.607a.26.26 0 01.12.207v7.713c0 .078-.051.099-.12.069z" fill="#fff"/><path d="M119.872 40.548l-3.6-2.079a.248.248 0 01-.087-.078.254.254 0 01-.045-.108c0-.063.06-.075.132-.033l3.6 2.079a.255.255 0 01.135.186c0 .06-.06.075-.135.033zm0 .567l-3.6-2.076a.27.27 0 01-.132-.189c0-.06.06-.075.132-.03l3.6 2.076a.263.263 0 01.135.189c0 .06-.06.075-.135.03zm0 1.185l-3.6-2.076a.268.268 0 01-.132-.189c0-.06.06-.075.132-.03l3.6 2.076a.266.266 0 01.135.189c0 .057-.06.072-.135.03zm0 .567l-3.6-2.079a.248.248 0 01-.087-.078.254.254 0 01-.045-.108c0-.06.06-.075.132-.033l3.6 2.079a.255.255 0 01.135.186c0 .066-.06.066-.135.033zm0 1.752l-3.6-2.079a.248.248 0 01-.087-.078.254.254 0 01-.045-.108c0-.06.06-.075.132-.033l3.6 2.079a.255.255 0 01.135.186c0 .06-.06.075-.135.033zm0-.57l-3.6-2.079a.248.248 0 01-.087-.078.254.254 0 01-.045-.108c0-.06.06-.075.132-.033l3.6 2.079a.263.263 0 01.135.189c0 .06-.06.081-.135.03zm-2.061-5.241h.045l.093-.051.126-.078.144-.087c.015 0 0-.06-.027-.051l-.15.081-.129.072-.093.054s-.021 0-.021.021v.021l.012.018z" fill="#E0E0E0"/><path d="M117.718 38.871c.069.123.183.189.3.123a.12.12 0 00.04-.052.132.132 0 00.011-.065.4.4 0 00-.058-.17.399.399 0 00-.125-.13.134.134 0 00-.123-.015.22.22 0 00-.086.145.218.218 0 00.041.164z" fill="#E0E0E0"/><path d="M117.718 38.871c.069.123.183.189.3.123a.12.12 0 00.04-.052.132.132 0 00.011-.065.4.4 0 00-.058-.17.399.399 0 00-.125-.13.134.134 0 00-.123-.015.22.22 0 00-.086.145.218.218 0 00.041.164z" fill="#000" opacity=".15"/><path d="M117.571 39.111l-.135-.231c.103-.053.199-.118.285-.195a.075.075 0 01.09 0 .258.258 0 01.12.204.083.083 0 01-.007.044.094.094 0 01-.029.034h-.021a1.35 1.35 0 00-.303.144z" fill="#E0E0E0"/><path d="M117.319 38.925a.143.143 0 01.124-.14.145.145 0 01.068.008h.024a.337.337 0 01.144.252.216.216 0 010 .036.142.142 0 01-.016.053.144.144 0 01-.137.076.136.136 0 01-.053-.015.135.135 0 01-.043-.035.15.15 0 01-.027-.048.128.128 0 01-.006-.055.136.136 0 01-.078-.132z" fill="#E0E0E0"/><path d="M117.319 38.925a.143.143 0 01.124-.14.145.145 0 01.068.008h.024a.337.337 0 01.144.252.216.216 0 010 .036.142.142 0 01-.016.053.144.144 0 01-.137.076.136.136 0 01-.053-.015.135.135 0 01-.043-.035.15.15 0 01-.027-.048.128.128 0 01-.006-.055.136.136 0 01-.078-.132z" fill="#000" opacity=".15"/><path d="M117.46 38.853c-.078-.045-.144 0-.144.084a.321.321 0 00.144.249c.081.048.147 0 .147-.084a.315.315 0 00-.147-.249z" fill="#E0E0E0"/><path opacity=".15" d="M115.432 44.316l-4.755-2.745v-7.989l4.755 2.742v7.992z" fill="#000"/><path d="M115.084 44.4l-4.5-2.604a.267.267 0 01-.12-.207v-7.725c0-.075.054-.108.12-.07l4.5 2.608a.26.26 0 01.12.207v7.713c0 .078-.054.108-.12.078z" fill="#fff"/><path d="M114.628 37.569l-3.6-2.079a.26.26 0 01-.135-.186c0-.063.06-.075.135-.033l3.6 2.079a.267.267 0 01.132.186c0 .06-.06.075-.132.033zm0 .567l-3.6-2.076a.265.265 0 01-.135-.189c0-.06.06-.075.135-.03l3.6 2.076a.28.28 0 01.132.189c0 .06-.06.075-.132.03zm0 1.182l-3.6-2.076a.266.266 0 01-.135-.189c0-.06.06-.075.135-.03l3.6 2.076a.28.28 0 01.132.189c0 .06-.06.075-.132.03zm0 .582l-3.6-2.079a.26.26 0 01-.135-.186c0-.06.06-.075.135-.033l3.6 2.079a.262.262 0 01.132.189c0 .048-.06.06-.132.03zm0 1.74l-3.6-2.079a.26.26 0 01-.135-.186c0-.06.06-.075.135-.033l3.6 2.079a.268.268 0 01.132.186c0 .06-.06.075-.132.033zm0-.57l-3.6-2.076a.266.266 0 01-.135-.19c0-.06.06-.074.135-.03l3.6 2.077a.265.265 0 01.132.189c0 .06-.06.075-.132.03zm-2.064-5.241h.048l.09-.051.126-.078.147-.087s0-.06-.03-.051l-.15.081-.129.072-.09.054s-.024 0-.024.021v.021l.012.018z" fill="#E0E0E0"/><path d="M112.471 35.892c.069.123.183.189.3.123a.12.12 0 00.04-.052.132.132 0 00.011-.065.401.401 0 00-.183-.3.134.134 0 00-.123 0 .223.223 0 00-.045.294z" fill="#E0E0E0"/><path d="M112.471 35.892c.069.123.183.189.3.123a.12.12 0 00.04-.052.132.132 0 00.011-.065.401.401 0 00-.183-.3.134.134 0 00-.123 0 .223.223 0 00-.045.294z" fill="#000" opacity=".15"/><path d="M112.324 36.132l-.135-.231c.103-.053.199-.118.285-.195a.078.078 0 01.09 0 .259.259 0 01.12.204.083.083 0 01-.007.044.094.094 0 01-.029.034h-.021a1.436 1.436 0 00-.303.144z" fill="#E0E0E0"/><path d="M112.072 35.946a.146.146 0 01.042-.1.143.143 0 01.102-.041.121.121 0 01.048 0h.024a.336.336 0 01.144.288.139.139 0 01-.138.117.144.144 0 01-.144-.141.142.142 0 01-.057-.05.133.133 0 01-.021-.073z" fill="#E0E0E0"/><path d="M112.072 35.946a.146.146 0 01.042-.1.143.143 0 01.102-.041.121.121 0 01.048 0h.024a.336.336 0 01.144.288.139.139 0 01-.138.117.144.144 0 01-.144-.141.142.142 0 01-.057-.05.133.133 0 01-.021-.073z" fill="#000" opacity=".15"/><path d="M112.216 35.874c-.081-.045-.147 0-.147.084a.302.302 0 00.147.249c.078.048.144 0 .144-.084a.321.321 0 00-.144-.249z" fill="#E0E0E0"/><path opacity=".15" d="M141.637 41.007l-4.755-2.745v-7.989l4.755 2.742v7.992z" fill="#000"/><path d="M141.289 41.082l-4.515-2.604a.264.264 0 01-.117-.207v-7.716c0-.078.051-.108.117-.069l4.515 2.607a.26.26 0 01.12.207v7.713c-.009.087-.054.108-.12.069z" fill="#fff"/><path d="M140.833 34.26l-3.6-2.079a.257.257 0 01-.135-.186c0-.063.06-.075.135-.033l3.6 2.079a.258.258 0 01.132.186c0 .06-.06.075-.132.033zm0 .567l-3.6-2.076a.266.266 0 01-.135-.189c0-.06.06-.075.135-.03l3.6 2.076a.274.274 0 01.132.189c0 .06-.06.075-.132.03zm0 1.173l-3.6-2.076a.265.265 0 01-.135-.189c0-.06.06-.075.135-.03l3.6 2.076a.28.28 0 01.132.189c0 .069-.06.084-.132.03zm0 .579l-3.6-2.079a.257.257 0 01-.135-.186c0-.06.06-.075.135-.033l3.6 2.079a.258.258 0 01.132.186c0 .054-.06.075-.132.033zm0 1.752l-3.6-2.079a.257.257 0 01-.135-.186c0-.06.06-.075.135-.033l3.6 2.079a.258.258 0 01.132.186c0 .06-.06.075-.132.033zm0-.57l-3.6-2.079a.257.257 0 01-.135-.186c0-.06.06-.075.135-.033l3.6 2.079a.263.263 0 01.132.189c0 .069-.06.069-.132.03zm-2.064-5.241h.048l.09-.051.126-.078.147-.087c.015 0 0-.06-.03-.051l-.15.081-.129.072-.09.054s-.024 0-.021.021a.037.037 0 00-.002.01l.002.011.009.018z" fill="#E0E0E0"/><path d="M138.676 32.583c.072.123.186.189.3.123a.13.13 0 00.051-.117.4.4 0 00-.183-.3.146.146 0 00-.123-.018.223.223 0 00-.086.147.222.222 0 00.041.165z" fill="#E0E0E0"/><path d="M138.676 32.583c.072.123.186.189.3.123a.13.13 0 00.051-.117.4.4 0 00-.183-.3.146.146 0 00-.123-.018.223.223 0 00-.086.147.222.222 0 00.041.165z" fill="#000" opacity=".15"/><path d="M138.529 32.823l-.135-.231c.103-.053.199-.118.285-.195a.074.074 0 01.044-.015.07.07 0 01.043.015.258.258 0 01.12.204.085.085 0 01-.033.078h-.024a1.432 1.432 0 00-.3.144z" fill="#E0E0E0"/><path d="M138.277 32.637a.144.144 0 01.144-.141.15.15 0 01.051 0h.024a.321.321 0 01.144.252.14.14 0 01-.04.107.141.141 0 01-.104.046.144.144 0 01-.144-.141.144.144 0 01-.075-.123z" fill="#E0E0E0"/><path d="M138.277 32.637a.144.144 0 01.144-.141.15.15 0 01.051 0h.024a.321.321 0 01.144.252.14.14 0 01-.04.107.141.141 0 01-.104.046.144.144 0 01-.144-.141.144.144 0 01-.075-.123z" fill="#000" opacity=".15"/><path d="M138.421 32.565c-.081-.045-.144 0-.144.084a.322.322 0 00.144.249c.078.048.144 0 .144-.084a.32.32 0 00-.144-.249z" fill="#E0E0E0"/><path d="M142.927 32.88l.792-1.377-34.68-20.022a.383.383 0 00-.408.03 1.25 1.25 0 00-.397.419 1.252 1.252 0 00-.164.553.401.401 0 00.153.354l34.704 20.043z" fill="#F0F0F0"/><path d="M142.759 32.514a1.24 1.24 0 01.561-.972c.3-.177.561-.033.561.324a1.24 1.24 0 01-.561.972c-.309.18-.561.033-.561-.324z" fill="#E0E0E0"/><path d="M135.223 48.756l-13.689-7.902.012 7.17 13.707 7.914-.03-7.182z" fill="#fff"/><path d="M135.253 55.941l-13.71-7.917v-1.59c.073.069.138.146.192.231.063.16.104.327.123.498a.58.58 0 00.087.219c.034.083.058.17.069.258a.4.4 0 00.315.321c.172.067.328.17.459.3.064.054.132.102.204.144.087.042.138-.021.207-.048a.415.415 0 01.474.096c.147.144.3.135.444.3.144.165.234.3.36.42.126.12.3.147.447.258a1.4 1.4 0 00.342.234c.249.087.45.384.687.54.402.261.285-.474.465-.723.102-.141.063-.384.108-.6a.577.577 0 01.09-.198c.033-.057.051-.156.087-.204.036-.048.087-.057.12-.027.033.03.045.201.099.273.054.072.078 0 .114.042a.56.56 0 01.117.213c.078.148.173.286.285.411.093.129.123.3.228.411.105.111.162.138.231.09.069-.048.132-.798.186-.9.054-.102.084-.339.171-.435.087-.096.075.066.132.039.057-.027.027-.069.06-.078.033-.009.069.036.102.087.033.051.102.207.159.3.096.141.099 0 .168 0s.105.174.135.261c.054.126.098.257.132.39.015.168.05.334.102.495.027.033.03-.018.045 0 .031.04.048.09.051.141.015.12.055.237.117.342.084.111.12 0 .192.015.072.015.12.096.18.096s.06-.042.102-.024c.042.018.045.048.069.06.024.012.063-.015.123.075.032.057.069.111.111.162a.186.186 0 00.156.045c.057 0 .078-.066.114-.114.036-.048.072 0 .123-.018.051-.018.078-.048.132.069.04.121.065.247.072.375.024.141.048.285.075.426.027.245.105.481.231.693a.35.35 0 00.198.156c.066 0 .138-.033.207.018.069.051.042.057.072.087.087.084.171.057.255.15.061.073.131.138.21.192.107.097.201.207.282.327a.619.619 0 00.348.234c.11.034.226.04.339.018.072-.024.129.036.213.096.084.06.105 0 .165.018.06.018.129.087.192.105.063.018.087-.03.135-.027a.26.26 0 00.144 0c.15-.072.207-.264.255-.501.011-.197.076-.387.189-.549.111-.108.3-.084.339-.3a12.32 12.32 0 00.165-1.521c.048-.867.126-1.584.186-1.5.06.084 0 1.62.222 2.067v4.476z" fill="#F0F0F0"/><path d="M31.65 104.007c-3.39 1.98-3.39 5.19 0 7.17 3.39 1.98 8.893 1.98 12.3 0 3.409-1.98 3.39-5.19 0-7.17-3.39-1.98-8.906-1.983-12.3 0z" fill="#E0E0E0"/><path d="M59.983 121.212c9.074 0 16.43-4.247 16.43-9.486 0-5.239-7.356-9.486-16.43-9.486-9.075 0-16.431 4.247-16.431 9.486 0 5.239 7.356 9.486 16.43 9.486zm33.675 0c9.074 0 16.431-4.247 16.431-9.486 0-5.239-7.357-9.486-16.431-9.486-9.075 0-16.431 4.247-16.431 9.486 0 5.239 7.356 9.486 16.43 9.486zm33.753 11.97c9.075 0 16.431-4.247 16.431-9.486 0-5.239-7.356-9.486-16.431-9.486-9.075 0-16.431 4.247-16.431 9.486 0 5.239 7.356 9.486 16.431 9.486zm-103.422-.618c9.074 0 16.43-4.247 16.43-9.486 0-5.239-7.355-9.486-16.43-9.486s-16.431 4.247-16.431 9.486c0 5.239 7.356 9.486 16.43 9.486z" fill="#E0E0E0"/><path d="M121.246 104.007c3.39 1.98 3.39 5.19 0 7.17-3.39 1.98-8.892 1.98-12.285 0-3.393-1.98-3.39-5.19 0-7.17 3.39-1.98 8.892-1.983 12.285 0z" fill="#E0E0E0"/><path d="M119.776 108.3c2.499-2.58 3.969-11.7 1.53-13.743h-12.405c-2.439 2.046-.972 11.16 1.527 13.74l.069.072.087.084c.071.072.147.14.225.204.018.018.039.03.06.048.021.018.12.096.189.144.103.075.21.144.321.207 2.058 1.2 5.4 1.2 7.446 0 .112-.064.22-.134.324-.21.063-.042.117-.087.174-.132l.075-.06c.078-.063.15-.129.219-.195l.099-.099.06-.06z" fill="#EBEBEB"/><path d="M109.978 93.747c-2.829 1.65-2.829 4.332 0 5.982 2.829 1.65 7.419 1.653 10.251 0s2.829-4.332 0-5.982c-2.829-1.65-7.422-1.647-10.251 0z" fill="#F0F0F0"/><path d="M111.34 94.542c-2.079 1.2-2.079 3.18 0 4.392 2.079 1.212 5.448 1.215 7.527 0 2.079-1.215 2.079-3.18 0-4.392-2.079-1.212-5.448-1.215-7.527 0z" fill="#E0E0E0"/><path d="M118.867 96.627c-2.079-1.2-5.448-1.2-7.527 0a3.413 3.413 0 00-1.245 1.155c.312.482.74.878 1.245 1.152 2.079 1.215 5.448 1.215 7.527 0a3.492 3.492 0 001.245-1.152 3.47 3.47 0 00-1.245-1.155z" fill="#F5F5F5"/><path d="M110.947 77.07l3.9 4.017-3.954-2.487a11.655 11.655 0 00.207 4.074 25.906 25.906 0 012.964 2.751l-3.051-1.698s-.501 2.1-.045 5.448c.12.879.861 2.622 1.302 3.9.203.594.445 1.174.723 1.737l.054.105c.8-.324 1.618-.631 2.454-.921.663-1.023 1.689-3.621 2.223-5.79 2.034-8.307-3.702-13.977-8.613-16.269a15.41 15.41 0 011.836 5.133z" fill="#EBEBEB"/><path d="M114.532 77.901c.771 1.008 1.134 2.25 1.377 3.474.236 1.235.337 2.493.3 3.75a15.985 15.985 0 01-1.884 7.2.12.12 0 00-.011.093.121.121 0 00.059.072.124.124 0 00.137-.011.137.137 0 00.031-.037 16.11 16.11 0 001.8-7.311 17.628 17.628 0 00-.354-3.765c-.282-1.227-.669-2.466-1.455-3.465z" fill="#fff"/><path d="M130.729 80.1a69.75 69.75 0 00-4.842 6.852l-4.719.777 3.486.6-1.86 2.967-4.644.978 3.63.579s-.996 3.543-3.6 5.031c-1.431.819-2.052.84-2.565.537-.621-.369-.921-1.386-1.179-2.901s.261-4.578 1.68-7.557a9.387 9.387 0 011.482-2.193c3.429-3.837 9.918-5.706 13.131-5.67z" fill="#F0F0F0"/><path d="M125.8 81.663a19.25 19.25 0 00-6.555 4.56 12.97 12.97 0 00-2.238 3.348 12.271 12.271 0 00-1.014 3.882v.015h.015a15.64 15.64 0 011.227-3.777 14.441 14.441 0 012.157-3.321c1.746-2.004 4.002-3.528 6.408-4.674v-.033z" fill="#fff"/><path d="M98.563 82.131c.434-.048.871-.068 1.308-.06 1.725.043 3.438.298 5.1.762.615.168 1.236.363 1.851.6.3.114.6.237.9.366a14.496 14.496 0 014.086 2.541 9.141 9.141 0 011.482 1.731c.054.081.114.162.165.246.132.219.252.432.366.645a12.523 12.523 0 011.683 6.036c.081 1.5-.27 3.24-.534 3.546a.685.685 0 01-.12.105c-.399.3-1.089.213-2.4-.378-2.655-1.191-3.972-4.671-3.972-4.671l3.456-.915-4.59-.489-2.1-2.7 3.315-.918-4.644-.3a67.193 67.193 0 00-5.355-6.156l.003.009z" fill="#F0F0F0"/><path d="M99.87 82.071c1.726.043 3.439.298 5.101.762.615.168 1.236.363 1.851.6.3.114.6.237.9.366a14.499 14.499 0 014.086 2.541 9.144 9.144 0 011.482 1.731c.054.081.114.162.165.246.132.219.252.432.366.645a12.512 12.512 0 011.683 6.036c.081 1.5-.27 3.24-.534 3.546a.805.805 0 01-.39.234c.102-2.334-1.563-8.079-3.498-10.329-2.016-2.34-6.582-5.583-12.525-6.3a10.69 10.69 0 011.314-.078z" fill="#E6E6E6"/><path d="M33.121 108.3c-2.499-2.58-3.969-11.7-1.53-13.743h12.405c2.439 2.046.972 11.16-1.527 13.74l-.069.072-.087.084a3.09 3.09 0 01-.225.204c-.018.018-.039.03-.06.048-.021.018-.12.096-.189.144-.103.075-.21.144-.321.207-2.058 1.2-5.4 1.2-7.446 0a3.008 3.008 0 01-.327-.21c-.063-.042-.117-.087-.174-.132l-.075-.06a3.486 3.486 0 01-.219-.195l-.099-.099-.057-.06z" fill="#EBEBEB"/><path d="M42.919 93.747c2.829 1.65 2.829 4.332 0 5.982-2.829 1.65-7.419 1.653-10.251 0s-2.829-4.332 0-5.982c2.829-1.65 7.422-1.647 10.251 0z" fill="#F0F0F0"/><path d="M41.557 94.542c2.079 1.2 2.079 3.18 0 4.392-2.079 1.212-5.448 1.215-7.527 0-2.079-1.215-2.079-3.18 0-4.392 2.079-1.212 5.448-1.215 7.527 0z" fill="#E0E0E0"/><path d="M34.03 96.627c2.079-1.2 5.448-1.2 7.527 0 .505.274.934.671 1.245 1.155-.312.482-.74.878-1.245 1.152-2.08 1.215-5.448 1.215-7.527 0a3.486 3.486 0 01-1.245-1.152c.313-.482.74-.88 1.245-1.155z" fill="#F5F5F5"/><path d="M41.95 77.07l-3.9 4.017 3.954-2.487c.17 1.36.1 2.739-.207 4.074a25.856 25.856 0 00-2.964 2.751l3.051-1.698s.501 2.1.045 5.448c-.12.879-.861 2.622-1.302 3.9a14.558 14.558 0 01-.723 1.737l-.054.105c-.8-.324-1.618-.631-2.454-.921-.663-1.023-1.689-3.621-2.223-5.79-2.034-8.307 3.702-13.977 8.613-16.269a15.388 15.388 0 00-1.836 5.133z" fill="#EBEBEB"/><path d="M38.365 77.901c-.771 1.008-1.134 2.25-1.377 3.474a17.29 17.29 0 00-.3 3.75 15.983 15.983 0 001.884 7.2.119.119 0 01.01.093.121.121 0 01-.058.072.125.125 0 01-.094.011.123.123 0 01-.074-.059 16.106 16.106 0 01-1.8-7.311 17.615 17.615 0 01.354-3.765c.282-1.227.669-2.466 1.455-3.465z" fill="#fff"/><path d="M22.168 80.1a69.768 69.768 0 014.842 6.852l4.719.777-3.486.6 1.86 2.967 4.644.978-3.63.579s.996 3.543 3.6 5.031c1.431.819 2.052.84 2.565.537.621-.369.921-1.386 1.179-2.901s-.261-4.578-1.68-7.557a9.375 9.375 0 00-1.482-2.193c-3.429-3.837-9.918-5.706-13.131-5.67z" fill="#F0F0F0"/><path d="M27.1 81.663a19.257 19.257 0 016.555 4.56 13 13 0 012.238 3.348 12.28 12.28 0 011.014 3.882v.015a15.64 15.64 0 00-1.227-3.777 14.441 14.441 0 00-2.157-3.321c-1.77-2.013-4.023-3.537-6.423-4.683v-.024z" fill="#fff"/><path d="M54.334 82.131a10.334 10.334 0 00-1.308-.06 20.897 20.897 0 00-5.1.762 20.693 20.693 0 00-2.751.966 14.493 14.493 0 00-4.086 2.541 9.109 9.109 0 00-1.482 1.731c-.054.081-.114.162-.165.246-.132.219-.252.432-.366.645a12.518 12.518 0 00-1.683 6.036c-.081 1.5.27 3.24.534 3.546.036.04.076.075.12.105.399.3 1.089.213 2.4-.378 2.655-1.182 3.972-4.671 3.972-4.671l-3.456-.915 4.59-.489 2.1-2.7-3.3-.918 4.644-.3a67.114 67.114 0 015.355-6.156l-.018.009z" fill="#F0F0F0"/><path d="M53.026 82.071a20.897 20.897 0 00-5.1.762 20.693 20.693 0 00-2.751.966 14.496 14.496 0 00-4.086 2.541 9.112 9.112 0 00-1.482 1.731c-.054.081-.114.162-.165.246-.132.219-.252.432-.366.645a12.519 12.519 0 00-1.683 6.036c-.081 1.5.27 3.24.534 3.546a.803.803 0 00.39.234c-.102-2.334 1.563-8.079 3.498-10.329 2.016-2.34 6.582-5.583 12.525-6.3a10.808 10.808 0 00-1.314-.078z" fill="#E6E6E6"/><path d="M124.057 120.222l-.987-.504.987-.264v.768z" fill="#263238"/><path d="M114.148 121.929s11.835-5.172 11.97-4.371c.032.157.032.32 0 .477l.033-.042-.24 1.485a3.47 3.47 0 01-1.842.744v-.765a6.08 6.08 0 00-1.059.543c-.759.492-1.257 1.362-2.07 2.37-.6.735-1.638 1.068-3.183 1.266-1.659.213-3.117-.129-3.522-.582-.321-.354-.135-1.02-.087-1.125z" fill="#263238"/><path d="M114.475 121.659c.117-.117.543-.576 1.116-1.074a21.758 21.758 0 011.719-1.431c.302-.206.587-.436.852-.687.21-.218.41-.446.6-.684.57-.745 1.058-1.55 1.455-2.4.222-.399.394-.823.513-1.263a7.95 7.95 0 00.159-1.41c.045-2.136 0-2.475.018-4.101l4.968.237c-.177.9-.441 2.124-.543 3.147-.153 1.554-.198 1.899.381 3.459.171.459.432.9.447 1.392.027.798-.6 1.476-1.305 1.857-.582.3-1.248.444-1.8.78a5.893 5.893 0 00-1.5 1.425c-.402.504-.729 1.101-1.287 1.452a5.175 5.175 0 01-1.926.639c-.852.14-1.718.171-2.577.093-1.221-.117-2.124-.576-1.29-1.431z" fill="#FFBDA7"/><path d="M119.101 119.289a2.183 2.183 0 00-1.821-.192c-.876.678-1.605 1.281-2.118 1.701-.621.513-1.167.981-1.152 1.578.021.936 3.63 1.269 5.661.408a2.508 2.508 0 001.443-1.233s-.279-1.314-2.013-2.262zm6.9-3.264c-.3-.6-.411-.915-.411-.915-.708.375-1.953 2.121-1.419 3.9a2.686 2.686 0 001.8-1.185 1.699 1.699 0 00.042-1.8h-.012z" fill="#37474F"/><path d="M134.725 117.657c-.345.528.045 2.556-.063 3.99-.096 1.302-.492 3.57-.117 4.866.444 1.539 1.371 3.33 3.198 1.938 1.131-.864 1.8-1.998 1.983-3.873.135-1.302-.348-3.12-.762-4.728-.483-1.884-.663-2.886-.663-2.886l-3.576.693z" fill="#263238"/><path d="M138.613 108.111c.063 3.045-.336 5.175-.396 7.125-.012.884.063 1.767.222 2.637.228 1.248.627 3 .792 3.795.231 1.134.411 1.848 0 3.102-.035.098-.08.192-.132.282-.567 1.029-1.965 1.8-2.4 1.653a.767.767 0 01-.783.255c-.048 0-.096-.024-.147-.039l-.147-.063a1.53 1.53 0 01-.714-.972 2.26 2.26 0 01-.066-.279c-.3-1.572-.033-2.58 0-3.195.051-.705.027-1.608 0-2.751-.027-1.143-.237-4.734-.6-6.456-.27-1.2-.6-2.7-.96-4.32l5.331-.774z" fill="#FFBDA7"/><path d="M139.471 123.141c-1.08-.504-4.239-.636-4.776.9-.042 1.446-.072 2.43.816 3.708 1.179 1.701 2.802-.042 3.435-1.155s.654-2.67.525-3.453z" fill="#37474F"/><path d="M135.325 68.274c1.482 2.79 2.58 5.07 2.619 13.311.039 8.241-.015 10.548 0 11.541.015.993.573 2.778 1.014 7.677.441 4.899-.393 14.634-.393 14.634s-.261.717-2.133.858c-1.728.132-2.433-.6-2.433-.6s-2.325-13.341-2.94-16.296c-.615-2.955-2.4-12.675-2.4-12.675l-1.236 7.845s.492 2.7-.093 6.993-1.737 12.384-1.737 12.384a4.843 4.843 0 01-2.628.756 4.5 4.5 0 01-2.316-.642s-1.149-16.86-1.074-21.72c.075-4.86.198-16.992 1.827-24.171l13.923.105z" fill="#455A64"/><path d="M122.236 75.165c.705 2.019 3.354 3.462 4.524 3.759l1.272 7.692-.6 7.959 1.236-7.845-1.413-9.372s-3.24-.28-5.019-2.193zm11.136-.828c.183.792.345 1.59.519 2.4.174.81.345 1.593.528 2.4a15.721 15.721 0 00-.129-2.463 24.746 24.746 0 00-.411-2.43 21.046 21.046 0 00-.672-2.376 11.486 11.486 0 00-1.023-2.25 70.48 70.48 0 011.188 4.719zm1.404-1.5c.258.48.504.963.75 1.449l.729 1.485a6.61 6.61 0 00-.354-1.638 10.775 10.775 0 00-.666-1.54 11.753 11.753 0 00-.885-1.415 8.607 8.607 0 00-1.095-1.263c.234.507.495.993.753 1.476s.519.963.768 1.446zm-1.527 22.2c-.432-2.526-.732-5.08-1.026-7.632-.294-2.553-.57-5.115-.9-7.668.12 2.57.27 5.142.489 7.707.219 2.565.492 5.13.918 7.68.426 2.55.924 5.061 1.419 7.59a321.49 321.49 0 001.563 7.56c-.354-2.55-.742-5.094-1.164-7.632a414.947 414.947 0 00-1.299-7.611v.006zm-11.586-8.724l.51-6.702a101.014 101.014 0 00-.9 6.666c-.231 2.235-.453 4.46-.492 6.726.045 2.259.186 4.5.339 6.729.153 2.229.345 4.47.579 6.702a313.217 313.217 0 00-.174-6.723l-.123-3.36c-.042-1.116-.096-2.238-.102-3.348-.006-1.11.078-2.223.144-3.34.066-1.115.156-2.237.219-3.356v.006z" fill="#37474F"/><path d="M125.26 53.247c-2.88.39-3.963 1.917-5.316 4.326-1.158 2.067-2.49 4.41-2.49 4.41-.411-.333-3.774-3.096-4.575-4.161-.846-1.125-.543-1.656-.546-2.436-.003-.78-.276-1.377-.12-2.592.075-.579-.552-.456-.801-.117-.507.684-.447 1.923-.777 1.866a2.965 2.965 0 01-.9-.969c-.615-.945-.741-1.8-1.245-2.814-.195-.384-.456-.81-.945-.795-.05.004-.1.011-.15.021a.18.18 0 00-.088.055.178.178 0 00-.044.095 2.015 2.015 0 000 .396c0 .093.057.366.057.366s-.441.072-.507.258c-.089.294-.083.61.018.9-.183.129-.468.459-.177 1.155-.165.069-.519.543-.228 1.5.278.867.653 1.7 1.119 2.481.72 1.152 1.41 1.578 2.382 2.781.972 1.203 2.775 3.852 4.392 5.7 1.881 2.142 2.637 2.7 4.461 1.698.942-.522 6-7.449 6-7.449l.48-6.675z" fill="#FFBDA7"/><path d="M110.134 54.996c-.48.63-.45 1.896.501 2.847-1.113-.486-1.521-2.163-.501-2.847z" fill="#F0997A"/><path d="M125.098 53.154c-2.337.48-3.201 1.227-3.987 2.322s-3.753 6.432-3.753 6.432l-3.462-3s.084.978-.9 2.1-1.596.9-1.596.9 2.253 3.444 3.747 4.914c1.494 1.47 2.46 1.377 3.732.531 1.272-.846 6.072-7.374 6.072-7.374l.147-6.825z" fill="#263238"/><path d="M121.117 70.254c.168-1.338.3-2.352.336-2.916 0-1.386-.027-3.546-.027-3.546-2.466-2.262-1.311-4.575-.393-5.973 1.533-2.325 2.949-3.486 4.227-4.572a30.004 30.004 0 014.44-.55 12.398 12.398 0 013.324.322c.942.174 3.273.753 3.273.753.69.38 1.293 1.149 1.269 3.276-.018 1.848-.222 2.682-.84 4.347-.867 2.34-.993 3.44-1.29 4.623-.384 1.536-.129 2.667.555 4.104.333.693.033 1.41-1.941 2.364-1.323.642-6.249 1.539-10.335.285-1.611-.492-2.688-1.773-2.598-2.517z" fill="#FAFAFA"/><path d="M135.061 46.344c-.93 1.989-1.98 2.715-2.847 4.518-2.199-.093-4.908-3.582-7.443-5.064-1.482-.864-2.445-1.95-2.025-3.729.693-2.919 3.105-4.458 7.248-3.546 1.677.369 3.534 1.725 3.858 3.621 2.046.726 1.83 2.871 1.209 4.2z" fill="#263238"/><path d="M124.963 41.682c-.441.201-1.149 1.233-1.329 5.256-.141 3.258.987 4.428 1.617 4.716a5.402 5.402 0 002.163.321v1.179c-.9.717-1.341 2.592-.684 4.095 2.817-.729 4.74-2.253 5.514-3.666V49.8s.789.642 1.842-.15c.87-.657 1.041-1.995.45-2.7a1.473 1.473 0 00-2.349.276s-1.281.852-1.164-1.2c.129-2.313-.774-4.65-2.361-4.179-2.862.858-2.796-.594-3.699-.165z" fill="#FFBDA7"/><path d="M127.414 51.975c1.056-.06 3.177-.618 3.711-1.764 0 0-.123.999-.81 1.5-1.05.759-2.904.945-2.904.945l.003-.681zm-.345-6.75l-.381 2.973-1.311-.609 1.692-2.364z" fill="#F0997A"/><path d="M128.323 48.669l-1.599.53a.823.823 0 00.724.6.825.825 0 00.329-.038.884.884 0 00.546-1.092z" fill="#B16668"/><path d="M127.777 49.764a.688.688 0 01-.102.024.762.762 0 01.681-.822.87.87 0 01-.164.49.87.87 0 01-.415.308z" fill="#F28F8F"/><path d="M124.654 45.756c-.099.231.063.321.3.414.237.093.426.159.525-.072a.444.444 0 00-.235-.578.442.442 0 00-.578.236h-.012z" fill="#263238"/><path d="M125.452 45.6c-.1-.063-.209-.11-.324-.141a.92.92 0 00-.339-.042 1.13 1.13 0 00-.354.078s-.018.03 0 .03c.1-.006.2-.006.3 0 .129.007.256.032.378.072.149.043.292.106.423.189.042.027.126.078.135.087.009.009.024-.024.018-.036a.783.783 0 00-.237-.237zm.003-1.275l-1.017.348a.564.564 0 01.345-.699.522.522 0 01.672.351zm3.606 1.65c.069.246-.102.3-.339.375-.237.075-.441.102-.51-.144a.435.435 0 01.301-.57.44.44 0 01.548.339z" fill="#263238"/><path d="M128.293 45.723c.108-.048.222-.08.339-.096a.936.936 0 01.342 0c.119.023.234.066.339.126 0 0 .015.03 0 .027-.093-.015-.174-.036-.3-.051a1.5 1.5 0 00-.384.021 1.59 1.59 0 00-.444.132l-.144.069s-.021-.027-.015-.039a.81.81 0 01.267-.189zm.105-1.359l.96.483a.567.567 0 00-.258-.747.523.523 0 00-.702.264z" fill="#263238"/><path d="M132.238 52.653s-2.571 5.013-3.486 7.452-.666 4.458-.693 9c-.021 3.486 0 8.748 0 8.748s7.593.102 9.816-2.7c-.42-1.764-1.902-5.283-2.262-6.414-.36-1.131-.3-2.7.573-5.184s1.467-4.398 1.563-6.3c.096-1.902-.687-3.126-1.143-3.483l-4.368-1.119zm-4.827-.054v.555s-4.722 4.389-5.025 8.847c-.303 4.458-.573 14.526-.573 14.526a6.726 6.726 0 01-1.683-1.407c.198-2.025.882-10.026.693-10.944-.189-.918-2.379-3-.381-5.979a24.107 24.107 0 014.656-5.043l2.313-.555z" fill="#37474F"/><path d="M129.313 65.961l-.789 1.392L129.4 66c.3-.444.576-.9.864-1.35l.213-.336.108-.171.078-.126.027-.063c.041-.142.053-.291.036-.438a3.502 3.502 0 00-.054-.408 13.704 13.704 0 00-.357-1.44c.361-.07.717-.166 1.065-.285a2.85 2.85 0 001.101-.621.922.922 0 00.189-.3.745.745 0 00.03-.162v-.156l.039-.6.081-1.2c.096-1.617.189-3.234.243-4.854-.18 1.611-.324 3.228-.465 4.845l-.093 1.2-.048.6v.15a.553.553 0 01-.024.114.643.643 0 01-.138.207 2.795 2.795 0 01-1.005.555 8.09 8.09 0 01-1.149.318L130 61.5l.042.129a13.5 13.5 0 01.402 1.53c.024.129.048.258.06.384.021.117.021.237 0 .354v.033l-.027.042-.351.6c-.279.465-.552.924-.813 1.389zm-8.613-3.642c0 .132.033.252.054.378.042.246.093.489.144.732.21.972.462 1.932.735 2.886-.195-.972-.39-1.944-.567-2.919a19.015 19.015 0 01-.117-.729 5.041 5.041 0 01-.036-.36c-.013-.11 0-.22.039-.324.194-.441.454-.851.771-1.215l.048-.057-.03-.069a7.117 7.117 0 01-.369-1.062 3.848 3.848 0 01-.099-.543 1.47 1.47 0 01.027-.537c.056-.166.146-.318.264-.447.114-.147.234-.3.36-.438.246-.3.501-.573.759-.855a82.507 82.507 0 011.557-1.68c.528-.552 1.05-1.11 1.614-1.626-.3.228-.6.486-.876.741s-.567.516-.84.783a59.246 59.246 0 00-1.62 1.629c-.261.282-.522.561-.774.852-.126.144-.252.3-.372.444a1.53 1.53 0 00-.315.531c-.05.2-.063.41-.036.615a3.6 3.6 0 00.111.582c.097.353.22.698.369 1.032a4.66 4.66 0 00-.753 1.236 1.022 1.022 0 00-.048.204 1.557 1.557 0 000 .216zm15.69-8.592c2.268.399 3.168 1.782 4.167 4.728 1.362 4.023 2.559 7.989 2.814 10.002l-5.349-1.461-2.862-5.76s-1.074-4.629 1.23-7.509z" fill="#263238"/><path d="M125.542 76.377l11.577-1.779 1.761-14.841-11.577 1.782-1.761 14.838z" fill="#459AE9"/><path opacity=".2" d="M125.542 76.377l11.577-1.779 1.761-14.841-11.577 1.782-1.761 14.838z" fill="#000"/><path d="M125.971 75.729l11.091-1.71 1.641-13.839-11.091 1.707-1.641 13.842z" fill="#FAFAFA"/><path d="M127.396 71.535l1.104-9.345 10.377-2.436-1.761 14.847-10.971 2.577a.277.277 0 01-.345-.181.265.265 0 01-.006-.143l.561-4.734a.534.534 0 01.381-.432l.66-.153z" fill="#459AE9"/><path d="M143.296 68.457c0 1.524-.225 1.776-1.893 2.631-1.668.855-5.883 2.172-9.219 2.493-2.175.21-3.3.108-4.137-.225a3.49 3.49 0 01-2.178-3.825c-.363-1.05.189-1.2.642-1.305l-.084.687s.975.663 1.875.675c.9.012.063-1.038-.096-1.674-.159-.636-.129-1.002.39-1.302.3 0 .39.402 1.296 1.305.69.684 1.227 1.935 2.292 1.8.837-.111 5.802-2.4 5.802-2.4l.225-1.902 5.085 3.042z" fill="#FFBDA7"/><path d="M143.371 68.457c.066.951-.102 1.446-.54 1.857-.438.411-2.241 1.257-3.351 1.644-1.11.387-4.014 1.173-4.569 1.275.576-.9.435-2.679-.054-3.477s-1.137-.6-1.137-.6l4.272-1.923.3-2.601 5.079 3.825zm-80.295 40.485l.939-.507-.954-.231.015.738z" fill="#263238"/><path d="M72.643 110.367s-11.493-4.716-11.607-3.945a1.16 1.16 0 00.024.462l-.033-.039.26 1.422c.522.396 1.148.63 1.8.675v-.738c.355.131.696.297 1.018.495.74.456 1.239 1.281 2.043 2.235.6.693 1.599.99 3.087 1.146 1.602.168 3-.189 3.375-.636.276-.354.09-.978.033-1.077z" fill="#263238"/><path d="M72.322 110.115c-.114-.111-.534-.543-1.098-1.011-.538-.474-1.1-.92-1.683-1.338a6.536 6.536 0 01-.834-.642 9.147 9.147 0 01-.585-.645 11.935 11.935 0 01-1.317-2.016 3.22 3.22 0 01-.405-1.74 40.333 40.333 0 01.3-5.07l-5.448.09c.189.858.3 2.328.42 3.3.18 1.5.23 1.821-.3 3.336-.153.447-.393.876-.4 1.35 0 .765.616 1.404 1.3 1.755.564.3 1.2.399 1.755.711a5.588 5.588 0 011.46 1.338c.4.474.724 1.041 1.273 1.368.577.311 1.21.505 1.863.57a9.904 9.904 0 002.48.036c1.183-.126 2.04-.588 1.219-1.392z" fill="#FFA8A7"/><path d="M71.64 109.302c-.5-.393-1.214-.96-2.072-1.593a2.113 2.113 0 00-1.746.225c-1.647.951-1.887 2.22-1.887 2.22.303.555.811.97 1.416 1.155 1.97.783 5.433.384 5.436-.516 0-.573-.534-1.011-1.146-1.491zm-10.16-5.244s-.102.3-.378.9a1.632 1.632 0 00.08 1.731 2.588 2.588 0 001.747 1.101c.47-1.734-.762-3.39-1.45-3.732z" fill="#37474F"/><path d="M52.702 106.098c.318.516-.096 2.454-.024 3.837.069 1.254.402 3.444.018 4.683-.46 1.47-1.386 3.174-3.114 1.8-1.071-.852-1.686-1.956-1.83-3.762-.102-1.257.399-3 .828-4.533.504-1.8.696-2.763.696-2.763l3.426.738z" fill="#263238"/><path d="M49.156 96.84c-.123 2.928.216 4.983.237 6.858a13.36 13.36 0 01-.267 2.532c-.246 1.2-.663 2.859-.84 3.636-.246 1.083-.432 1.764-.057 2.979a1.6 1.6 0 00.123.276c.522 1.002 1.851 1.758 2.277 1.635a.74.74 0 00.75.264l.141-.036a.881.881 0 00.141-.057 1.449 1.449 0 00.708-.921c.029-.086.052-.175.069-.264.3-1.5.084-2.484.057-3.075-.033-.678 0-1.545.066-2.646s.321-4.548.702-6.195c.285-1.152.636-2.595 1.008-4.134l-5.115-.852z" fill="#FFA8A7"/><path d="M48.028 111.276c1.047-.462 4.086-.528 4.572.951 0 1.395.02 2.337-.858 3.552-1.17 1.611-2.7-.099-3.282-1.182-.582-1.083-.576-2.571-.432-3.321z" fill="#37474F"/><path d="M53.119 58.596c-1.482 2.655-2.676 4.893-3.06 11.904-.438 7.914-.372 10.929-.411 11.883-.04.954-.651 2.7-1.176 7.41-.525 4.71.03 16.107.03 16.107s.369.768 2.169.942c1.659.162 2.63-.42 2.63-.42s2.638-14.973 3.3-17.802c.664-2.829 2.55-12.141 2.55-12.141l1.03 7.569s-.525 2.595-.048 6.726c.477 4.131 1.359 12.033 1.359 12.033a5.82 5.82 0 002.454.9 4.173 4.173 0 002.685-.579s1.608-16.374 1.64-21.051c.034-4.677-.326-16.353-1.748-23.289l-13.404-.192z" fill="#455A64"/><path d="M60.7 67.5l-1.548 9 1.029 7.569-.405-7.665L61.14 69c1.13-.264 3.708-1.596 4.428-3.525-1.752 1.818-4.87 2.025-4.87 2.025zm-5.235-5.298c.204-.753.42-1.5.663-2.259a10.92 10.92 0 00-1.032 2.142 20.647 20.647 0 00-.696 2.265 23.597 23.597 0 00-.447 2.328 15.601 15.601 0 00-.174 2.367c.195-.768.378-1.53.558-2.295.18-.765.357-1.524.546-2.283.189-.759.369-1.515.57-2.271l.012.006zm-1.128-.573c.258-.462.516-.921.753-1.407a8.3 8.3 0 00-1.077 1.2 10.625 10.625 0 00-1.552 2.808 6.304 6.304 0 00-.374 1.569l.729-1.41c.249-.462.492-.924.75-1.38.258-.456.504-.927.759-1.386l.012.006zm-1.161 30.033c-.456 2.434-.88 4.873-1.272 7.317.582-2.4 1.134-4.813 1.656-7.239a567.204 567.204 0 001.518-7.272c.495-2.436.78-4.902 1.038-7.365s.456-4.932.624-7.401c-.357 2.451-.684 4.905-1.011 7.356-.327 2.451-.672 4.896-1.143 7.317-.471 2.421-.972 4.848-1.422 7.281l.012.006zm12.9-12.213c.042 1.071.096 2.151.072 3.213-.024 1.062-.105 2.145-.165 3.219L65.77 89.1c-.126 2.15-.226 4.304-.3 6.462.27-2.142.5-4.286.693-6.432.192-2.151.372-4.293.462-6.462 0-2.181-.162-4.326-.34-6.48a98.257 98.257 0 00-.743-6.429l.357 6.456c.048 1.077.108 2.151.15 3.228l.027.006z" fill="#37474F"/><path d="M72.67 49.926s.08.699-.972 2.07c-.975 1.269-.54 3 .56 3.231 1.102.231 2.365-.6 3.925-1.377 1.62-.798 4.479-2.43 5.91-3.3.876-.537 1.872-.558 2.832-.813a6.375 6.375 0 002.565-1.47c.288-.246.54-.532.747-.849a1.8 1.8 0 00.3-.951.626.626 0 01.228-.585 1.05 1.05 0 00.276-.726 6.324 6.324 0 01-.066-.975c.033-.237-.048-.621-.381-.576a.58.58 0 00-.207.09c-.678.411-1.296.9-1.968 1.335a3.329 3.329 0 01-1.02.537c-.495.075.018-.549.126-.72.118-.16.218-.334.3-.516.113-.313.142-.65.084-.978a.246.246 0 00-.04-.111.213.213 0 00-.245-.06.6.6 0 00-.213.162c-.3.3-.6.633-.93.918-.33.285-.756.579-1.113.9-.516.456-.945 1.002-1.455 1.461-.51.459-1.152.693-1.818.981-1.893.801-5.472 1.731-7.425 2.322z" fill="#FFA8A7"/><path d="M62.353 43.578c1.566.207 2.955.666 5.1 2.328 3.24 2.523 5.202 3.9 5.202 3.9l4.83-1.365c-.21 1.752.3 3.3 1.539 4.035a38.482 38.482 0 01-4.38 2.328c-2.604 1.23-3.18 1.029-5.022-.168-1.905-1.242-7.05-4.308-7.05-4.308l-.22-6.75z" fill="#459AE9"/><path opacity=".15" d="M62.353 43.578c1.566.207 2.955.666 5.1 2.328 3.24 2.523 5.202 3.9 5.202 3.9l4.83-1.365c-.21 1.752.3 3.3 1.539 4.035a38.482 38.482 0 01-4.38 2.328c-2.604 1.23-3.18 1.029-5.022-.168-1.905-1.242-7.05-4.308-7.05-4.308l-.22-6.75z" fill="#000"/><path opacity=".1" d="M72.646 49.821c-1.563.615-2.142 1.5-2.142 1.5s.045-1.182 1.545-1.917l.597.417z" fill="#000"/><path d="M54.004 32.649c-1.038 1.059-1.146 2.748-.741 4.152.234.657.552 1.281.945 1.857a17.277 17.277 0 002.1 2.799c.29.347.676.601 1.11.732.74.206 1.5.328 2.268.363.3 0 .63.102.846-.135a2.4 2.4 0 00.366-.849c.332-.984.803-1.915 1.398-2.766.498-.714 1.16-1.707 1.947-2.1.324-.159.69-.369.747-.726a.9.9 0 00.56.951.564.564 0 01-.074-.735c.135-.237.35-.42.477-.657a1.062 1.062 0 00-.027-1.032.6.6 0 01.24.831.993.993 0 00.507-.855c0-.828-.855-1.089-1.221-1.719a5.598 5.598 0 01-.3-.951 6.567 6.567 0 00-.3-.732 4.01 4.01 0 00-.99-1.251c-1.575-1.329-3.864-1.245-5.733-.687a5.359 5.359 0 00-2.442 1.413c-.424.39-.724.894-.864 1.452a3.092 3.092 0 00-.82.645z" fill="#263238"/><path d="M51.439 62.118c-.54-.669.258-.6.567-4.95.08-1.122-.858-4.146-.858-4.146s.963-1.893.3-7.305l4.533-2.262 5.085-.225 2.055.756c.681.6 1.929 1.575 2.919 3.036 1.425 2.1 1.64 4.404.102 6.081-.024.333.192 5.421.6 6.663.387 1.155.3 1.953-.3 2.466-2.304 2.619-9.465 3.372-15.003-.114z" fill="#FAFAFA"/><path d="M55.375 39.99a1.61 1.61 0 01-1.446-.549c-.76-.837-.831-1.689-.477-2.256.3-.468 1.008-.765 1.5-.45s.555.6.759.993c.204.393.726.081.549-1.449 1.047-.492.876-2.244 1.44-2.958.9-1.119 2.34-.831 2.814-.567a1.896 1.896 0 011.983-.129c.705.375 1.173 1.167 1.422 3.9.255 2.772-.225 4.62-.864 5.211-.441.402-1.26.678-2.235.621v1.047s2.82 2.937-.774 2.673a5.646 5.646 0 01-4.071-2.307l-.024-4.2s-.051.33-.576.42z" fill="#FFA8A7"/><path d="M61.273 39.495a.8.8 0 01-1.572-.3l1.572.3z" fill="#B16668"/><path d="M59.695 39.444a.795.795 0 00.636.681.743.743 0 00.282 0 .812.812 0 00-.918-.681z" fill="#F28F8F"/><path d="M59.926 36.756a.465.465 0 01-.576.318.477.477 0 11.576-.318zm3.423-1.776l-.963-.516a.523.523 0 01.723-.237.572.572 0 01.24.753zm-.774 1.653a.458.458 0 00.6.3.475.475 0 00-.21-.92.474.474 0 00-.39.62zm-3.27-2.055l-1.03.558a.566.566 0 01.214-.789.615.615 0 01.816.231z" fill="#263238"/><path d="M64.543 35.235h-.204a6.145 6.145 0 00-2.037.156c-.636.219-.852.444-1.2.462-.348.018-.642-.186-1.35-.348a7.066 7.066 0 00-2.184.033l-.216.036a.323.323 0 00-.22.36.804.804 0 00.235.399.476.476 0 01.084.162c.083.38.198.754.342 1.116.077.147.178.28.3.393.047.041.097.078.15.111l.084.051c.081.043.167.077.255.102h.177c.071.013.143.021.216.024h.21c.9-.039 1.242-.468 1.434-.9.192-.432.096-1.038.51-1.056h.078c.3.054.3.6.525.999.079.172.186.33.318.465l.072.066.039.03.042.027a.17.17 0 00.039.024l.039.024.033.018h.02c.117.058.24.099.367.123h.033c.144.025.291.033.438.024a1.224 1.224 0 001.2-.84c.092-.374.152-.756.18-1.14a.344.344 0 01.066-.15.73.73 0 00.162-.426.354.354 0 00-.237-.345zm-4.2 1.8a1.2 1.2 0 01-.27.6 1.254 1.254 0 01-.954.381 1.134 1.134 0 01-.966-.39l-.033-.042-.03-.042-.027-.039-.021-.033a.28.28 0 01-.015-.03v-.024l-.021-.042a2.586 2.586 0 01-.057-.123l-.027-.075c0-.042-.03-.084-.04-.12v-.045c-.086-.3-.21-.876-.062-1.017.147-.141.54-.3 1.2-.261h.072c.102 0 .204.021.3.039l.12.021c.108.024.21.051.3.081l.093.033.102.042h.02l.037.018a.58.58 0 01.21.147c.15.186.126.573.08.906l-.011.015zm3.879-.3a1.243 1.243 0 01-.567.984 1.167 1.167 0 01-.49.129 1.137 1.137 0 01-1.025-.402l-.018-.027-.024-.03-.03-.048a.467.467 0 01-.03-.054l-.015-.027v-.039a1.814 1.814 0 01-.081-.219 1.412 1.412 0 01-.04-.9c.115-.189.6-.411 1.063-.489.108-.018.21-.03.3-.036h.357c.051.003.102.009.153.018h.147l.075.024c.062.02.12.052.17.093.154.117.112.708.067 1.008l-.012.015z" fill="#37474F"/><path d="M62.5 38.1l-1.521.657-.237-1.827c.054-.3.105-.546.354-.57L62.5 38.1z" fill="#F28F8F"/><path d="M57.31 35.61l-2.346 1.125c.131.087.253.187.363.3l2.043-.93-.06-.495z" fill="#37474F"/><path d="M60.832 42.345c-1.404-.051-3.3-.552-3.795-1.458.282.978 1.272 1.5 2.06 1.707a8.37 8.37 0 001.726.3l.009-.549z" fill="#F28F8F"/><path d="M61.075 43.23l2.055.57c1.905 1.5 4.152 4.116 4.236 6.15.062 1.148-.061 2.3-.366 3.408 0 0-.216 4.2.21 6.399s1.425 7.5 1.425 7.5a6.42 6.42 0 01-2.715 1.539c-.435-2.808-1.446-13.404-1.326-15.864.12-2.46.213-6.519-3.519-9.702z" fill="#459AE9"/><path opacity=".3" d="M61.075 43.23l2.055.57c1.905 1.5 4.152 4.116 4.236 6.15.062 1.148-.061 2.3-.366 3.408 0 0-.216 4.2.21 6.399s1.425 7.5 1.425 7.5a6.42 6.42 0 01-2.715 1.539c-.435-2.808-1.446-13.404-1.326-15.864.12-2.46.213-6.519-3.519-9.702z" fill="#000"/><path opacity=".2" d="M65.014 54.258c.174-.651.363-1.299.555-1.941a88.77 88.77 0 00.552-1.938c.088-.32.156-.644.204-.972.057-.3-.16-.57-.37-.816a9.03 9.03 0 00-1.52-1.281l-.051-.036v-.06a3.19 3.19 0 00.018-1.068 2.771 2.771 0 00-.348-1.014c-.2-.303-.451-.57-.741-.789a5.102 5.102 0 00-.94-.579c.348.133.677.307.982.519.314.208.586.474.8.783.204.321.343.679.409 1.053.067.376.067.761 0 1.137l-.04-.096c.574.369 1.1.805 1.57 1.299.116.13.217.273.3.426.022.04.041.082.057.126.02.044.032.09.039.138a.973.973 0 010 .279 7.2 7.2 0 01-.222.996c-.177.651-.4 1.29-.6 1.926-.201.636-.432 1.272-.654 1.908z" fill="#000"/><path d="M55.99 43.455s.6 1.26 1.677 3.846c1.077 2.586 2.1 4.941 2.03 7.314-.068 2.373-1.244 14.7-1.244 14.7s-4.317 0-6.183-.6l.3-4.833-1.146 4.566a5.494 5.494 0 01-1.647-.9c.384-5.217 2.148-7.5 1.818-10.554-.3-2.814-2.136-5.334-.444-11.853l4.839-1.686z" fill="#459AE9"/><path opacity=".3" d="M55.99 43.455s.6 1.26 1.677 3.846c1.077 2.586 2.1 4.941 2.03 7.314-.068 2.373-1.244 14.7-1.244 14.7s-4.317 0-6.183-.6l.3-4.833-1.146 4.566a5.494 5.494 0 01-1.647-.9c.384-5.217 2.148-7.5 1.818-10.554-.3-2.814-2.136-5.334-.444-11.853l4.839-1.686z" fill="#000"/><path opacity=".2" d="M59.233 55.314a5.516 5.516 0 00-.9-1.662c-.372-.513-.78-.996-1.2-1.473-.204-.24-.417-.477-.63-.714l-.303-.354c-.054-.063-.108-.117-.162-.186a.467.467 0 01-.042-.057.87.87 0 01-.04-.093.729.729 0 010-.159c.063-.331.183-.65.355-.939.155-.283.324-.559.507-.825v.159L55.848 48l-.473-.507-.117-.126-.06-.063a.3.3 0 01-.102-.321c0-.06.015-.12.024-.18.09-.459.21-.91.36-1.353.147-.441.3-.882.465-1.314-.12.45-.246.9-.354 1.344-.124.444-.225.895-.3 1.35a.84.84 0 000 .3c-.015-.024 0 0 .033.03l.06.06.126.123.489.498.978.999.069.069-.057.087a10.45 10.45 0 00-.48.81 2.74 2.74 0 00-.333.831.597.597 0 000 .096l.03.039c.045.062.094.121.147.177l.315.36c.21.24.417.48.62.726a18.4 18.4 0 011.144 1.539c.177.268.336.548.477.837.152.283.26.588.324.903z" fill="#000"/><path d="M90.811 104.1l.49-4.317-5.194.327s.078 2.334.15 3.657c.045.783-1.065 2.235-1.065 2.235s2.44 1.239 3.744.807c1.305-.432 2.001-1.977 1.983-2.316-.018-.339-.108-.393-.108-.393z" fill="#E4ACAD"/><path d="M79.3 110.814c-.078 0-.204.798.201 1.146.468.402 1.854 1.071 3.696.876 1.842-.195 2.853-.726 3.6-1.305.747-.579 1.8-1.398 2.628-1.56.777-.15 1.623-.474 1.875-.699.252-.225.231-1.248.231-1.248l-12.231 2.79z" fill="#263238"/><path d="M90.847 104.082a.299.299 0 01.276.243c.051.282.1 1.101.216 1.566.177.816.224 1.654.141 2.484-.11.522-1.377.864-2.187 1.146-.95.378-1.84.897-2.637 1.539-.876.669-2.7 1.35-3.9 1.32-1.422-.033-3-.504-3.369-1.143-.44-.789-.756-1.704 1.362-2.607.402-.168 1.815-.942 2.298-1.221 1.302-.759 2.22-1.458 2.838-2.829a.756.756 0 01.3-.417.694.694 0 01.408-.03c.351.054 1.746.264 2.064.417.318.153.681.3.67.639-.01.121-.04.24-.088.351-.024.072-.048.165.018.21.066.045.141 0 .198-.051.21-.199.402-.415.576-.645.1-.119.214-.225.34-.318a3.72 3.72 0 00.362-.219c.135-.117.105-.273.114-.435z" fill="#455A64"/><path d="M86.656 111.06c.373-.288.76-.556 1.161-.804 0 0-2.499 1.404-3.489.729-.636-.435-.324-.942-.3-1.107.024-.165-2.24-1.362-2.865-1.446-.177.09-.324.162-.417.201-2.118.9-1.8 1.818-1.362 2.607.357.639 1.5 1.152 3.342 1.185 1.197.018 3.054-.696 3.93-1.365z" fill="#37474F"/><path d="M84.205 109.401c-1.317.48-.762.723-.396.78.366.057 2.589-1.14 3.948-2.139 1.419-1.041 2.322-2.19 2.847-2.571.198-.144.408-.318.6-.483-.03-.279-.054-.531-.078-.663a.302.302 0 00-.276-.243c0 .162.021.315-.111.435a3.72 3.72 0 01-.363.219 2.019 2.019 0 00-.339.318 5.34 5.34 0 01-.576.645c-1.161 1.374-3.939 3.222-5.256 3.702z" fill="#37474F"/><path d="M83.905 109.998c.03 0 .058-.01.081-.027a.12.12 0 00.021-.174c-.363-.441-2.1-1.5-3.063-1.419a.131.131 0 00-.087.043.13.13 0 00-.03.092.124.124 0 00.046.087.111.111 0 00.045.023.121.121 0 00.05.004c.9-.078 2.55.975 2.835 1.323a.136.136 0 00.102.048zm1.152-.654c.03 0 .058-.01.081-.027a.118.118 0 00.044-.131.121.121 0 00-.023-.043c-.363-.441-2.1-1.5-3.063-1.419a.125.125 0 00-.083.045.113.113 0 00-.023.042c-.005.016-.006.032-.005.048a.121.121 0 00.045.083.104.104 0 00.042.023c.016.005.032.007.048.005.9-.075 2.55.975 2.838 1.326a.139.139 0 00.1.048zm1.143-.621a.114.114 0 00.081-.027.12.12 0 00.021-.174c-.363-.441-2.1-1.5-3.06-1.419a.127.127 0 00-.087.042.129.129 0 00-.03.093.126.126 0 00.141.114c.9-.078 2.547.975 2.835 1.323a.109.109 0 00.044.036.108.108 0 00.055.012zm1.08-.723c.03 0 .058-.01.081-.027a.12.12 0 00.021-.174c-.363-.441-2.1-1.5-3.063-1.419a.131.131 0 00-.087.043.13.13 0 00-.03.092.132.132 0 00.141.114c.9-.078 2.55.975 2.835 1.323a.136.136 0 00.102.048zm1.047-.702a.118.118 0 00.081-.024.124.124 0 00.024-.174c-.498-.627-2.319-1.521-3.282-1.434a.134.134 0 00-.048.012.129.129 0 00-.04.03.128.128 0 00-.029.093.119.119 0 00.015.047.122.122 0 00.076.06.118.118 0 00.05.004c.867-.075 2.61.783 3.051 1.338a.14.14 0 00.046.036.136.136 0 00.056.012z" fill="#263238"/><path d="M99.556 106.2l-.942-4.062 4.839-.567.084 3.9s.462 1.41.153 1.908c-.309.498-3.531.948-3.819.6-.288-.348-.315-1.779-.315-1.779z" fill="#E4ACAD"/><path d="M99.748 114.987c.114 1.251.351 2.064.864 2.754s1.443.831 2.376.522c.933-.309 2.121-1.008 2.361-2.118a6.278 6.278 0 00-.078-3l-5.523 1.842z" fill="#263238"/><path d="M103.537 105.474c.387 0 .252 1.698.519 3.366.3 1.8.9 2.484 1.158 3.948.3 1.677.21 2.445-.417 3.537s-2.919 2.331-4.101.972c-.966-1.107-1.038-2.433-.999-4.14a39.02 39.02 0 00-.03-4.326c-.108-1.266-.444-2.4-.11-2.571.03.183.062.417.095.6s.081.825.3.81a2.14 2.14 0 000-.48.57.57 0 01.096-.42c.189-.14.403-.242.63-.3a18.31 18.31 0 011.44-.3c.192-.036.387-.063.579-.081a1.69 1.69 0 01.492.018.297.297 0 01.216.15.566.566 0 01.024.192c.004.117.023.233.057.345.015.048.057.105.111.087.054-.018.06-.066.06-.108 0-.204-.036-.351-.054-.6 0-.111-.03-.258-.036-.369-.006-.111-.021-.222-.03-.33z" fill="#455A64"/><path d="M105.1 112.314c.045.24.318 1.842-.162 2.181-.48.339-.84-.876-.84-.876s-1.245-.222-3.024.669c.102.255-.153 1.152-.651 1.017s-.738-1.977-.741-2.001c-.033 1.635.066 2.916 1.002 3.993 1.182 1.359 3.474.12 4.101-.972.627-1.092.705-1.86.417-3.537a2.18 2.18 0 00-.102-.474z" fill="#37474F"/><path d="M103.972 113.742c.024.6.687.339.69-.531.003-.87-.57-2.877-.6-4.371-.069-2.049-.132-3.375-.519-3.366a.662.662 0 000 .063l.075.855c0 .123.027.234.03.366.045 1.251 0 3.681.156 4.815.1.719.156 1.443.168 2.169zm-2.676.51a17.764 17.764 0 01-.426-2.118c-.165-1.125-.768-3.378-1.065-4.59a2.692 2.692 0 01-.153-.687c-.03-.168-.06-.381-.09-.561v-.036c-.237.129-.177 1.101-.063 1.605.114.504.258 1.047.4 1.77.371 1.431.362 3.561.599 4.383.237.822.939.825.798.234z" fill="#37474F"/><path d="M101.05 114.342a.172.172 0 00.054-.018 5.142 5.142 0 012.973-.576.165.165 0 00.106-.024.162.162 0 00.065-.087.115.115 0 00.003-.052.106.106 0 00-.019-.048.109.109 0 00-.039-.035.108.108 0 00-.05-.015 5.423 5.423 0 00-3.18.618.123.123 0 00-.042.026.124.124 0 00-.007.178.128.128 0 00.087.041.133.133 0 00.049-.008zm-.357-1.302a.192.192 0 00.048-.015 6.399 6.399 0 013.327-.645.158.158 0 00.171-.114.114.114 0 00-.001-.052.123.123 0 00-.022-.048.141.141 0 00-.04-.033.13.13 0 00-.051-.014 6.634 6.634 0 00-3.525.681.138.138 0 00-.063.183c.016.026.04.045.068.055.029.011.06.011.088.002zm3.249-1.917a.143.143 0 00.124-.15.123.123 0 00-.016-.049.106.106 0 00-.036-.037.118.118 0 00-.048-.019c-1.749-.363-3.441.6-3.513.651a.13.13 0 00-.073.13.123.123 0 00.016.05.146.146 0 00.195.036c.018 0 1.662-.951 3.3-.6a.113.113 0 00.051-.012zm-.132-1.182a.157.157 0 00.117-.099.112.112 0 00.008-.051.108.108 0 00-.015-.05.106.106 0 00-.035-.038.107.107 0 00-.048-.02 5.023 5.023 0 00-3.6.648.144.144 0 00-.039.035.135.135 0 00-.023.1c.004.017.01.033.02.048a.147.147 0 00.198.027 4.761 4.761 0 013.339-.6.147.147 0 00.078 0zm-.153-1.341a.145.145 0 00.071-.033.138.138 0 00.046-.063.121.121 0 00-.041-.138.121.121 0 00-.046-.021c-1.8-.432-3.537.639-3.6.687a.12.12 0 00-.041.033.109.109 0 00-.024.048.118.118 0 00.017.102.146.146 0 00.092.054.145.145 0 00.103-.024c.018 0 1.692-1.047 3.366-.645a.182.182 0 00.057 0z" fill="#263238"/><path d="M102.727 63.189c1.68 10.611.666 24.12.666 24.12a39.32 39.32 0 01.492 6.3c-.042 3.978-.09 9.6-.09 9.6s-2.619 2.043-5.247.642c0 0-1.845-7.389-2.625-13.173-.624-4.623-1.752-11.496-1.752-11.496l-1.827 7.326s.195 2.85.147 4.851c-.054 2.325-1.32 11.238-1.32 11.238s-2.937 1.683-5.175-.06c0 0-.864-12.969-.975-15.762-.213-5.481-.078-16.923.525-23.862l17.181.276z" fill="#37474F"/><path d="M94.171 79.2l-1.2-8.076s-2.586-.345-3.927-1.572c0 0 .88 1.638 3.324 2.241l1.2 7.434-1.2 7.299 1.803-7.326zm9.705 24.426c-.546.729-3.468 1.557-5.343.825L98.2 102.9c1.416.516 4.5-.021 5.679-.96l-.003 1.686zm-12.69-.774c-.636.648-3.441.945-5.223-.042l-.099-1.575c1.35.708 4.227.765 5.532 0l-.21 1.617z" fill="#263238"/><path d="M87.83 43.359c-1.99.807-2.557 2.61-3.15 7.401-.595 4.791-.742 6.063-.742 6.063s-3.867 2.901-7.524 3.939l.816 3.792s3.468-.849 5.346-1.452c3.096-.996 4.644-1.677 5.604-2.7.96-1.023 2.175-11.004 2.175-11.004l-2.526-6.039z" fill="#E4ACAD"/><path d="M87.847 43.113c-1.41.567-2.364 1.692-2.7 3.819-.336 2.127-1.371 9.849-1.371 9.849-1.941 1.356-5.451 3.156-5.451 3.156.367.8.602 1.654.696 2.529.123 1.356-.063 1.917-.063 1.917s4.419-1.146 6.735-2.199c2.316-1.053 2.856-1.662 3.135-2.247.279-.585 1.263-6.69 1.473-7.905.21-1.215.327-2.817.327-2.817l-2.781-6.102z" fill="#459AE9"/><path opacity=".2" d="M87.847 43.113c-1.41.567-2.364 1.692-2.7 3.819-.336 2.127-1.371 9.849-1.371 9.849-1.941 1.356-5.451 3.156-5.451 3.156.367.8.602 1.654.696 2.529.123 1.356-.063 1.917-.063 1.917s4.419-1.146 6.735-2.199c2.316-1.053 2.856-1.662 3.135-2.247.279-.585 1.263-6.69 1.473-7.905.21-1.215.327-2.817.327-2.817l-2.781-6.102z" fill="#000"/><path d="M76.747 60.789c-.111-.018 1.023-.222-.333-.027-1.356.195-1.752-.063-2.625-.081a.243.243 0 00-.183.045 2.39 2.39 0 00-.168.258c-.08.1-.165.195-.255.285-.111.117-1.527 1.881-1.5 1.893l.666.348s2.154 2.376 3.513 1.5c.3-.198.675-.096.993-.237a1.83 1.83 0 00.735-.573c.24-.369.159-.852.066-1.284l-.246-1.182c-.078-.369-.12-.774-.534-.9l-.129-.045z" fill="#E4ACAD"/><path d="M96.97 42.168c1.032.195 2.28.447 2.28.447 2.622 1.116 3.045 1.284 3.6 1.5a40.993 40.993 0 01-.378 9.093c-.159 1.056-.9 3.075-.879 5.286.044 2.03.269 4.052.672 6.042 0 0-2.487 2.7-9.771 2.256-5.718-.339-6.711-2.454-6.711-2.454s.207-7.599.3-11.814c.105-5.532 1.095-8.457 2.313-9.441l3.636-.783 4.938-.132z" fill="#F5F5F5"/><path d="M99.034 31.746a2.073 2.073 0 00-1.113-1.005c-.237-1.173-1.77-2.544-4.665-2.622a2.906 2.906 0 01-1.002-.129c-.348-.132-.651-.36-.99-.513a2.561 2.561 0 00-1.035-.228c-.29-.009-.58.05-.843.174a1.2 1.2 0 00-.6.6c-.088.26-.117.535-.087.807a1.137 1.137 0 00-.717.063 1.314 1.314 0 00-.723.531 1.057 1.057 0 00-.072.837c.094.273.252.519.462.717a.9.9 0 00-.51 1.086 1.14 1.14 0 00.987.762c-.057 0 .033.327.045.354.067.122.172.22.3.276a6.6 6.6 0 00.951.3l1.344.42 3.333 1.041 2.793.873-.039 1.464v2.1c.33-.11.604-.342.768-.648.493-.932.856-1.927 1.08-2.958.699-2.748.618-3.783.333-4.302z" fill="#263238"/><path d="M98.8 38.127c-1.074.558-1.596-.3-1.596-.3l-.045 4.335c-1.122 1.587-3.171 1.098-4.761 3.081h-.495a4.332 4.332 0 01-.132-3.234l-.021-.987a6.79 6.79 0 01-.945-.066c-.969-.126-1.8-.774-2.1-2.064-.381-1.557-.45-4.947 0-6.492.15-.498.3-1.071.762-1.314 1.143-.6 4.671-.864 5.613.522-.108.855.165 1.8.954 2.052.06 1.35.267 1.995.804 2.205.435.171.627-.501.9-.819a1.2 1.2 0 011.899.384 1.977 1.977 0 01-.837 2.697z" fill="#E4ACAD"/><path d="M91.753 41.022c1.263-.042 2.382-.228 3.12-.564.738-.336 1.37-1.359 1.56-2.367.024.804-.3 2.244-1.407 2.868-1.107.624-2.433.69-3.258.732l-.015-.669z" fill="#C78285"/><path d="M93.1 33.072l.978.624a.6.6 0 00-.186-.819.564.564 0 00-.792.195zm-3.726.486l1.074-.462a.563.563 0 00-.75-.318.6.6 0 00-.324.78zm4.473 1.194a.474.474 0 11-.947-.006.474.474 0 01.947.006zm-3.531-.042a.475.475 0 11-.468-.477.43.43 0 01.468.477z" fill="#263238"/><path d="M92.029 33.753l-.3 3.018-1.602-.543a7.034 7.034 0 011.902-2.475zm1.311 3.321l-1.593.576a.834.834 0 001.071.54.9.9 0 00.522-1.116z" fill="#C78285"/><path d="M93.178 37.368a1.17 1.17 0 01.204-.024.87.87 0 01-.564.843.773.773 0 01-.27.045.78.78 0 01.63-.864z" fill="#E29191"/><path d="M91.318 45.9s-.813-1.371-.84-1.929l.867-.984.378 2.283-.405.63zm1.152-.645l1.5-1.128 1.335.807-2.322 1.329-.513-1.008z" fill="#263238"/><path d="M93.4 59.235c.174-3-.9-11.121-.9-12.183l-.795-.021c-.45 1.305-1.365 9.765-1.287 11.82.036.987 1.17 2.7 1.515 2.73.345.03 1.422-1.71 1.467-2.346z" fill="#37474F"/><path d="M91.639 47.22c.015-.06.036-.138.054-.186l.795.021c0 .087 0 .201.015.33a1.45 1.45 0 01-.864-.165z" fill="#263238"/><path d="M92.47 45.255a3.332 3.332 0 00-.747 0 1.776 1.776 0 00-.405.63c.044.406.17.799.369 1.155a.94.94 0 00.813.06c.223-.243.388-.533.483-.849a1.5 1.5 0 00-.513-.996z" fill="#37474F"/><path d="M92.34 45.24h.13c.27-.31.578-.583.918-.813.216-.108 1.1 1.437 1.266 1.842.165.405.135.399.69.045a10.689 10.689 0 002.523-2.334c.882-1.116.954-1.827.954-1.827a12.573 12.573 0 01-.876-1.185c-.34-.642-.396-.9-.76-.846v.6c-.071.552-.641.735-1.427 1.389s-2.052 1.263-2.355 1.542a11.085 11.085 0 00-1.062 1.587zm-2.585 0c.084.228.837-1.524 1.2-1.479.17.018.6.972.9 1.485h.045a6.353 6.353 0 01-.228-1.635c-.004-.534.028-1.069.096-1.599l-.021-.987h-.324c-.093.09-1.455 1.578-1.581 2.25a6.016 6.016 0 00-.087 1.965z" fill="#E0E0E0"/><path d="M101.137 69.66c1.776-.642 2.331-1.2 2.331-1.2l-1.167-9.729c.123-2.292.397-4.574.819-6.831.63-3 .24-7.869.24-7.869l-4.746-2.1c.117.648-.366 1.608-.627 2.157a24.392 24.392 0 00-1.5 3.654 43.035 43.035 0 00-.969 3.9 54.961 54.961 0 00-.972 8.016 76.731 76.731 0 000 7.614c.039.9.135 1.884.798 2.487a2.544 2.544 0 001.608.558c1.426.08 2.852-.143 4.185-.657zm-15.996-2.211l1.59.852a1.695 1.695 0 001.71-.018c.54-.336.6-1.401.63-2.037.126-2.451.075-3.774.132-5.874.132-4.971.51-9.939.777-14.898a14.77 14.77 0 01.54-3.39l-2.673 1.029s-2.04 2.517-2.127 7.821l.105 6.372-.684 10.143z" fill="#459AE9"/><path d="M108.652 56.4c.327 2.172.39 2.541.273 3.999-.084 1.089-.195 1.275-.57 3.258-.375 1.983-1.353 5.607-1.329 6.135.048.499.054 1 .018 1.5a6.342 6.342 0 01-.39 1.746c-.144.39-.234.81-.402 1.2a4.558 4.558 0 01-.531.717c-.195.264-.258.6-.501.834-.42.414-.867.48-1.269.675-.174.261-.459.813-.654 1.056-.492.627-.624-.381-.6-.726.023-.368.085-.732.186-1.086.243-.889.436-1.79.579-2.7.024-.162.207-.834-.06-.828a.322.322 0 00-.216.132c-.18.21-.3.468-.456.696a4.05 4.05 0 01-.423.492 1.398 1.398 0 01-.426.348c-.171.075-.804.135-.834-.162a.275.275 0 01.03-.138c.126-.3.279-.6.405-.9a8.73 8.73 0 00.354-.936 7.58 7.58 0 011.086-2.655c1.047-1.5 1.134-10.224 1.134-10.224l-1.533-6a12.488 12.488 0 01-.9-5.043c.06-2.085 1.8-3.255 1.8-3.255 2.229.852 2.757 1.146 3.369 3.174.612 2.028 1.641 7.224 1.86 8.691z" fill="#E4ACAD"/><path d="M108.958 57.945c-.072-.519-.438-3.219-1.302-7.164-.822-3.75-1.056-4.353-1.839-5.208-.615-.672-1.431-1.083-2.457-1.545 0 0-1.602 1.08-1.98 4.245-.282 2.349.846 5.289.846 5.289l1.641 5.496-.144 6.126c1.053-.387 3.417.345 3.984 1.377 0 0 .753-2.733 1.134-4.665.259-1.301.298-2.637.117-3.951z" fill="#459AE9"/><path opacity=".2" d="M108.958 57.945c-.072-.519-.438-3.219-1.302-7.164-.822-3.75-1.056-4.353-1.839-5.208-.615-.672-1.431-1.083-2.457-1.545 0 0-1.602 1.08-1.98 4.245-.282 2.349.846 5.289.846 5.289l1.641 5.496-.144 6.126c1.053-.387 3.417.345 3.984 1.377 0 0 .753-2.733 1.134-4.665.259-1.301.298-2.637.117-3.951z" fill="#000"/><path d="M103.738 64.539l-.129 1.695s.714-.111 2.277.3c1.236.327 1.638.825 1.638.825l.42-1.689s-1.293-1.341-4.206-1.131z" fill="#459AE9"/><path opacity=".3" d="M103.738 64.539l-.129 1.695s.714-.111 2.277.3c1.236.327 1.638.825 1.638.825l.42-1.689s-1.293-1.341-4.206-1.131z" fill="#000"/><path d="M79.3 59.37l-1.698.816c.476.573.794 1.26.924 1.992.174.747.263 1.51.264 2.277l1.773-.441a9 9 0 00-.324-2.562C79.855 60 79.3 59.37 79.3 59.37z" fill="#459AE9"/><path opacity=".3" d="M79.3 59.37l-1.698.816c.476.573.794 1.26.924 1.992.174.747.263 1.51.264 2.277l1.773-.441a9 9 0 00-.324-2.562C79.855 60 79.3 59.37 79.3 59.37z" fill="#000"/><path d="M76.68 64.587a6.9 6.9 0 01-3.02-1.866.568.568 0 01-.192-.462.6.6 0 01.174-.27l.558-.6c.242-.237.45-.505.62-.798a.93.93 0 00.12-.6c-.047-.207-.116-.3-.33-.321a1.03 1.03 0 00-.458.276c-.6.492-1.06.558-1.875 1.047-.816.489-1.86.879-2.514.837-1.986-.372-10.875-3.222-10.875-3.222s-4.2-7.659-4.971-9.228c-.771-1.569-1.374-3-2.7-3.876-1.914.651-3.651 3.579-2.38 6.462 1.273 2.883 4.96 8.835 5.638 9.99.678 1.155 1.278 1.746 2.973 2.13 1.602.366 8.967 1.089 11.013 1.371l-.027.066c1.353.168 1.689.351 1.905.447.927.408 2.286.252 3.402.111.232-.019.46-.07.678-.153.204-.087.384-.222.6-.3a9.976 9.976 0 011.077-.237c.352-.082.672-.266.92-.528.034-.039.229-.24.232-.3a.78.78 0 01-.567.024z" fill="#FFBDA7"/><path d="M51.148 45.177c-1.72.735-3.732 3.231-2.751 6.057.98 2.826 5.193 9.627 5.913 10.824.72 1.197 1.179 1.758 2.274 2.064 1.095.306 6.444.84 6.444.84a8.504 8.504 0 00.84-2.835c.228-1.749-.33-2.19-.33-2.19l-4.5-1.446s-4.965-9.495-5.652-10.743c-.687-1.248-1.362-2.211-2.238-2.571z" fill="#459AE9"/><path opacity=".15" d="M51.148 45.177c-1.72.735-3.732 3.231-2.751 6.057.98 2.826 5.193 9.627 5.913 10.824.72 1.197 1.179 1.758 2.274 2.064 1.095.306 6.444.84 6.444.84a8.504 8.504 0 00.84-2.835c.228-1.749-.33-2.19-.33-2.19l-4.5-1.446s-4.965-9.495-5.652-10.743c-.687-1.248-1.362-2.211-2.238-2.571z" fill="#000"/><path d="M74.119 66c-.247.05-.502.02-.732-.081-.3-.252-.627-.348-.855-.675a2.39 2.39 0 00-.267-.357 1.626 1.626 0 00-.621-.348c-.213-.078-.405-.195-.627-.267-.108-.036-.282-.039-.333.09a1.496 1.496 0 00-.336-.3c-.138-.084-.468-.192-.561 0a.499.499 0 00-.03.177c-.015.36-.033.723-.048 1.086a.9.9 0 00.015.27.789.789 0 00.429.456c.11.062.23.107.354.135.153.03.3.018.462.048.315.063.582.3.9.324.198 0 .393-.069.6-.075.164.007.327.023.489.048.219.018.969-.417 1.16-.531zm-2.73-4.443c-.147.066-.3.129-.441.204-.362.225-.713.468-1.05.729-.225.16-.479.277-.747.342-.183.039-.6.087-.666-.165a.318.318 0 01.054-.234c.153-.282.318-.561.495-.831.147-.273.344-.515.582-.714.303-.206.625-.382.963-.525.143-.068.293-.121.447-.159a2.4 2.4 0 01.864.03c.426.066 1.029.132 1.455.201-.081.063-.3.213-.342.246l-.537.3a9.31 9.31 0 01-1.077.576z" fill="#E4ACAD"/><path d="M18.862 124.41c-.096 1.326-.3 2.205-.795 2.976-.495.771-1.365.957-2.274.765a3.421 3.421 0 01-2.493-2.082c-.321-.876-.18-1.932.042-3.162l5.52 1.503z" fill="#263238"/><path d="M15.205 114.681c-.372.024-.507 1.8-.744 3.6-.258 1.908-.858 2.97-1.068 4.257-.3 1.785-.177 2.592.438 3.684s3.033 2.253 4.149.717c.9-1.254.969-2.658.9-4.449a45.57 45.57 0 01-.018-4.557c.093-1.341.204-2.64-.117-2.793-.027.195-.057.447-.084.639-.027.192-.07.876-.28.879a3.179 3.179 0 010-.507.6.6 0 00-.095-.432.685.685 0 00-.408-.192 10.284 10.284 0 00-1.101-.186 5.681 5.681 0 00-.555-.03 3.101 3.101 0 00-.681 0 .316.316 0 00-.204.177.6.6 0 00-.024.207c0 .124-.018.247-.051.366-.015.054-.051.117-.105.102-.054-.015-.06-.063-.057-.108 0-.216.03-.372.045-.624 0-.117.027-.276.03-.393.003-.117.02-.243.03-.357z" fill="#37474F"/><path opacity=".15" d="M14.746 123a.128.128 0 00.114.141.12.12 0 00.053 0 .128.128 0 00.071-.211.143.143 0 00-.042-.032.118.118 0 00-.052-.012.124.124 0 00-.05.004.114.114 0 00-.046.023.135.135 0 00-.048.087zm.144-1.245a.132.132 0 00.027.096.14.14 0 00.039.033.137.137 0 00.048.015.134.134 0 00.144-.114.132.132 0 00-.21-.118.126.126 0 00-.047.088zm.132-1.155a.132.132 0 00.114.144.11.11 0 00.05-.003.13.13 0 00.078-.062.128.128 0 00.016-.049.134.134 0 00-.004-.051.137.137 0 00-.023-.045.148.148 0 00-.039-.033.136.136 0 00-.048-.015.135.135 0 00-.095.028.13.13 0 00-.05.086zm.132-1.161a.132.132 0 00.114.144.11.11 0 00.05-.003.115.115 0 00.046-.023.126.126 0 00.047-.088.132.132 0 00-.026-.096.147.147 0 00-.039-.033.136.136 0 00-.099-.011.114.114 0 00-.045.023.128.128 0 00-.048.087zm2.646.261a.132.132 0 00.114.144.11.11 0 00.05-.003.115.115 0 00.046-.023.126.126 0 00.047-.088.132.132 0 00-.026-.096.147.147 0 00-.039-.033.136.136 0 00-.099-.011.114.114 0 00-.045.023.128.128 0 00-.048.087zm-.135 1.152a.132.132 0 00.027.096c.01.013.023.024.038.033a.137.137 0 00.049.015.131.131 0 00.118-.211.128.128 0 00-.04-.032.108.108 0 00-.048-.015.124.124 0 00-.05.004.114.114 0 00-.046.023.127.127 0 00-.048.087zm-.135 1.164a.132.132 0 00.21.118.126.126 0 00.047-.088.132.132 0 00-.026-.096.147.147 0 00-.039-.033.137.137 0 00-.048-.015.134.134 0 00-.144.114zm-.141 1.236a.128.128 0 00.026.097c.01.013.024.024.039.032a.108.108 0 00.049.015.124.124 0 00.05-.004.114.114 0 00.046-.023.127.127 0 00.048-.087.132.132 0 00-.027-.096.149.149 0 00-.039-.033.137.137 0 00-.048-.015.131.131 0 00-.144.114zm-1.099.57l1.12-8.619-.48-.018-.64 8.637z" fill="#000"/><path d="M14.869 123.069h.02a4.716 4.716 0 012.602.249.07.07 0 00.024.007.064.064 0 00.062-.037.066.066 0 00.008-.025.062.062 0 00-.017-.047.079.079 0 00-.02-.015 4.759 4.759 0 00-2.685-.261.07.07 0 00-.042.028.067.067 0 00-.01.05.064.064 0 00.057.051zm.141-1.233h.036c.657-.3 1.935-.075 2.586.252a.068.068 0 00.024.008c.008.001.017 0 .025-.003a.063.063 0 00.038-.032.069.069 0 00-.027-.09c-.678-.342-2.007-.573-2.7-.255a.062.062 0 00-.022.014.063.063 0 00-.011.073.061.061 0 00.021.022c.01.006.02.01.03.011zm.135-1.167c.01.003.022.003.033 0 .66-.3 1.938-.075 2.586.255a.07.07 0 00.09-.03.067.067 0 00.002-.05.067.067 0 00-.032-.037c-.675-.345-2.004-.573-2.7-.258a.063.063 0 00-.035.037.065.065 0 00.002.05.068.068 0 00.054.033zm.132-1.149c.01.003.022.003.033 0 .66-.3 1.938-.075 2.586.255a.069.069 0 00.09-.03.064.064 0 00.004-.051.057.057 0 00-.013-.023.063.063 0 00-.021-.016c-.678-.342-2.004-.573-2.7-.255a.064.064 0 00-.035.037.065.065 0 00.002.05.07.07 0 00.023.022c.01.006.02.01.03.011z" fill="#263238"/><path d="M27.058 119.1l1.58-.54-.476-1.074-.99.864-.114.75z" fill="#000"/><path d="M25.53 116.232s-.092 1.014-.116 1.335c-.024.321 1.31 1.356 1.644 1.533l.114-.75c.298.38.548.797.744 1.239.249.465.558 1.338 1.263 1.95 1.047.9 2.7 1.404 4.41 1.518 1.71.114 2.7-.273 3.189-.63.489-.357.663-.783.555-1.218-.108-.435-11.802-4.977-11.802-4.977z" fill="#263238"/><path d="M30.202 112.902l.039-.6c.3 0 .327.855.762 1.62a15.224 15.224 0 002.307 3.144c1.68 1.629 3.195 2.667 3.945 3.402 1.002.981-.858 2.433-3.64 2.193-1.38-.12-3.812-.9-4.478-1.728-.666-.828-1.047-2.124-1.581-2.736-.534-.612-1.704-1.245-2.025-1.974-.177-.402-.048-1.323.09-2.1.126-.717.18-1.818.582-1.716l.018.369c.156.321.525.852 1.635 1.077.552.114 2.21.213 2.346-.951z" fill="#37474F"/><path opacity=".15" d="M28.75 113.91c.53-.027 1.11-.186 1.347-.66v-.015a1.35 1.35 0 00.324 1.146c.48.6 3.498 4.8 3.498 4.8s-2.823-3.48-3.366-4.134c-.801-.969-1.06-1.089-1.818-1.137h.015zm.66 1.113a.171.171 0 11-.336-.048.173.173 0 01.123-.161.174.174 0 01.14.02.173.173 0 01.077.117.171.171 0 01-.004.072zm.795.933a.173.173 0 01-.127.143.177.177 0 01-.1-.004.171.171 0 01-.017-.317c.032-.014.066-.019.1-.014a.176.176 0 01.111.066.172.172 0 01.033.126zm.795.933a.174.174 0 01-.042.091.177.177 0 01-.084.052.177.177 0 01-.1-.004.171.171 0 11.145-.309.168.168 0 01.081.17zm.792.933a.171.171 0 01-.067.112.172.172 0 01-.125.035.177.177 0 01-.147-.195.174.174 0 01.195-.144.171.171 0 01.144.192zm.792.936a.173.173 0 01-.124.161.158.158 0 01-.072.005.173.173 0 01-.145-.142.171.171 0 01.005-.072.171.171 0 11.336.048z" fill="#000"/><path d="M29.233 115.065a.062.062 0 01-.042-.021.07.07 0 010-.096 2.8 2.8 0 011.95-.702c.009 0 .018.003.026.006.008.004.015.01.02.017a.05.05 0 01.014.023.068.068 0 01-.021.073.07.07 0 01-.051.016 2.72 2.72 0 00-1.845.666.056.056 0 01-.023.015.065.065 0 01-.028.003zm.795.933a.086.086 0 01-.057-.046.064.064 0 010-.052.067.067 0 01.015-.022 2.799 2.799 0 011.95-.702.064.064 0 01.06.048.063.063 0 010 .027.066.066 0 01-.024.045.052.052 0 01-.023.012.056.056 0 01-.025.003 2.726 2.726 0 00-1.845.669.094.094 0 01-.051.018zm.795.936a.077.077 0 01-.045-.021.07.07 0 01-.02-.049.07.07 0 01.02-.05 2.791 2.791 0 011.947-.702.069.069 0 01.069.069.069.069 0 01-.069.069 2.7 2.7 0 00-1.842.666.076.076 0 01-.028.015.086.086 0 01-.032.003zm.792.933a.083.083 0 01-.042-.021.069.069 0 01-.021-.048c0-.009.002-.018.005-.026a.069.069 0 01.016-.022 2.81 2.81 0 011.95-.705.069.069 0 01.069.069.069.069 0 01-.069.069c-1.008-.09-1.836.66-1.845.666a.058.058 0 01-.03.018.065.065 0 01-.033 0zm.795.933a.063.063 0 01-.024-.005.051.051 0 01-.018-.016.066.066 0 01-.015-.074.066.066 0 01.015-.022 2.796 2.796 0 011.947-.702.07.07 0 01.025.007c.007.004.014.01.02.017.005.006.01.014.012.022a.068.068 0 01-.005.052.071.071 0 01-.04.034c-.009.003-.018.004-.027.003a2.7 2.7 0 00-1.842.666.064.064 0 01-.048.018z" fill="#263238"/><path d="M15.508 74.541c-.753 10.71-1.08 22.641-1.08 22.641a58.1 58.1 0 00-.348 6.501c-.036 3.9.21 13.431.21 13.431s2.475 1.755 5.148.432c0 0 1.98-10.545 2.87-16.2.715-4.518 1.68-10.326 1.68-10.326l.817 5.4a34.953 34.953 0 00-.3 6.3c.153 2.274.975 10.92.975 10.92s3.216 2.631 5.73.108c0 0 1.2-14.463 1.356-17.199.318-5.367.129-15.078 0-21.9l-17.058-.108z" fill="#455A64"/><path d="M23.989 91.02l1.389-9.285s2.61-.3 3.984-1.467c0 0-.918 1.587-3.387 2.133l-1.308 8.421.138 5.604-.816-5.406z" fill="#263238"/><path d="M30.829 53.472c1.896.6 3.222 1.5 4.089 4.041.9 2.622 2.613 7.29 3.21 9.216-.372 1.044-3.063 2.004-4.146 1.5-1.083-.504-3.756-8.1-3.756-8.1l.603-6.657z" fill="#E0E0E0"/><path d="M21.715 52.236c-1.047.18-2.316.411-2.316.411-2.676 1.083-3.108 1.245-3.672 1.467a22.24 22.24 0 00-.582 9 63.04 63.04 0 01.42 6.669c0 2.955-.234 6.582-.234 6.582s3.222 2.1 10.605 1.8c5.796-.24 6.69-2.349 6.69-2.349s.174-8.616.174-12.873c0-5.607-1.2-8.592-2.4-9.615l-3.684-.867-5.001-.225z" fill="#F0F0F0"/><path d="M19.564 41.175a1.857 1.857 0 011.419-1.251c.3-1.239 2.1-2.7 4.61-2.376 2.512.324 3.724 1.08 4.5 2.598.778 1.518.12 2.574.12 2.574l-7.313-.468a6.639 6.639 0 01-.09 1.041c-.174 1.11-1.251 2.4-1.251 2.4v1.56l-.081 2.247a1.434 1.434 0 01-.792-.717c-.243-.534-.486-1.356-.837-3.261s-.624-3.492-.285-4.347z" fill="#263238"/><path d="M19.6 47.751c.795.579 1.58-.225 1.58-.225l-.08 4.356s0 1.143 1.38 2.004c1.938 1.224 2.78 1.866 3.57 3.096.765-1.941 1.914-3.261.72-4.839l.018-1.026c.36.002.721-.016 1.08-.054 1.032-.099 1.722-.873 2.1-1.962.6-1.752.684-4.866-.054-8.079-1.293-1.107-4.638-1.161-7.134.222 0 2.043-.621 2.913-.66 3.654a1.98 1.98 0 01-.477.546c-.393.3-.648-.555-.942-.9-.294-.345-1.3-.852-1.872.198-.573 1.05.084 2.511.77 3.009z" fill="#C8856A"/><path d="M25.417 43.098l-1.086.6a.651.651 0 01.258-.858.599.599 0 01.828.258zm4.203.273l-1.17-.417a.599.599 0 01.774-.387.648.648 0 01.396.804zm-4.806.957a.5.5 0 101 .024.5.5 0 00-1-.024zm3.543-.042a.504.504 0 10.516-.486.456.456 0 00-.516.486z" fill="#263238"/><path d="M26.686 43.176l.222 3.216 1.722-.519-1.944-2.697z" fill="#AF6152"/><path d="M30.175 44.256v-.003h.003l-.003.003z" fill="#9A4A4D"/><path d="M22.099 44.631c.084 2.19.837 2.349 1.614 2.484 1.029.177 1.542-.375 3.387-.36 1.116 0 1.464.345 2.1.6.47.195.957.174 1.035-.279.14-.938.192-1.887.156-2.835a20.669 20.669 0 010 3.978c-.162 1.029-.444 1.989-1.017 2.466-.795.663-2.457.75-4.5.276s-2.835-1.161-3.075-1.881c-.786-2.367-.46-3.483-.726-3.93-.267-.447 1.026-.519 1.026-.519z" fill="#263238"/><path d="M26.842 47.4c-1.053-.03-1.398.159-1.455.879-.081 1.029-.033 1.377.36 1.434.465.069.807.099.825-.192a1.16 1.16 0 00-.063-.663c-.162-.198-.105-.225.357-.213.462.012.456.096.318.237s-.084.468-.084.672c0 .204.048.3.714.249.579-.051.483-.516.48-1.401-.012-.597-.261-.957-1.452-1.002z" fill="#C8856A"/><path d="M26.155 47.667l1.398.207a.697.697 0 01-.786.618.741.741 0 01-.612-.825z" fill="#9A4A4D"/><path d="M26.335 47.883a.814.814 0 00-.171 0 .732.732 0 00.828.6.645.645 0 00-.657-.6z" fill="#F28F8F"/><path d="M27.205 56.592s.858-1.425.9-2.01l-.9-1.029-.405 2.379.405.66z" fill="#459AE9"/><path d="M27.205 56.592s.858-1.425.9-2.01l-.9-1.029-.405 2.379.405.66z" fill="#000" opacity=".15"/><path d="M26.005 55.923l-1.557-1.191-1.398.834 2.415 1.407.54-1.05z" fill="#459AE9"/><path d="M26.005 55.923l-1.557-1.191-1.398.834 2.415 1.407.54-1.05z" fill="#000" opacity=".15"/><path d="M25.3 71.418c-.237-3.348.747-12.432.723-13.62l.828-.036c.495 1.449 1.602 10.881 1.557 13.173-.021 1.107-1.173 3.021-1.533 3.078-.36.057-1.533-1.881-1.575-2.595z" fill="#459AE9"/><path opacity=".15" d="M26.908 57.972a2.45 2.45 0 00-.063-.207l-.828.036v.372c.31.032.624-.039.89-.201z" fill="#000"/><path d="M26.005 55.923c.26-.03.523-.03.783 0 .184.188.326.413.417.66a2.814 2.814 0 01-.36 1.17.984.984 0 01-.828.036 1.723 1.723 0 01-.552-.825 1.57 1.57 0 01.54-1.041z" fill="#459AE9"/><path d="M26.143 55.908h-.138a4.863 4.863 0 00-.951-.855c-.225-.117-1.158 1.5-1.335 1.911-.177.411-.144.417-.717.045-1-.672-1.884-1.502-2.62-2.457-.9-1.17-.983-1.911-.983-1.911a12.9 12.9 0 00.924-1.233c.36-.666.426-.99.804-.936v.48c.072.576.663.975 1.482 1.662.819.687 2.13 1.332 2.445 1.626.41.524.774 1.082 1.089 1.668zm2.697.018c-.087.237-.861-1.596-1.23-1.554-.177.018-.63 1.014-.954 1.545h-.06c.156-.555.24-1.128.252-1.704a12.941 12.941 0 00-.09-1.671l.02-1.278c.124 0 .22.078.6.516.382.438 1.258 1.383 1.387 2.085.142.678.168 1.375.075 2.061z" fill="#FAFAFA"/><path d="M24.319 70.584c-.102-.135-.417.147-1.09.3-.854.192-1.2.162-2.1.399a4.499 4.499 0 01-1.262.234l3.3.678c.338-.142.653-.335.933-.573a.777.777 0 00.219-1.038z" fill="#B16668"/><path d="M38.839 61.584c.234-.099.399 0 .366.21L37.66 72.846l-15.52 6.6 1.585-11.07a.846.846 0 01.477-.57l8.865-3.762.63-1.122a.387.387 0 01.192-.165l3.675-1.563a.38.38 0 01.507.156l.183.495.585-.261z" fill="#459AE9"/><path opacity=".15" d="M38.839 61.584c.234-.099.399 0 .366.21L37.66 72.846l-15.52 6.6 1.585-11.07a.846.846 0 01.477-.57l8.865-3.762.63-1.122a.387.387 0 01.192-.165l3.675-1.563a.38.38 0 01.507.156l.183.495.585-.261z" fill="#000"/><path d="M37.66 72.321l-14.994 6.363 1.566-10.449 15.48-6.57-2.052 10.656z" fill="#F0F0F0"/><path d="M22.14 79.434l2.596-10.467a.978.978 0 01.519-.567l14.634-6.21c.234-.099.38 0 .327.207L37.66 72.846l-15.52 6.588z" fill="#459AE9"/><path d="M39.319 66.06c.669.81.675 1.449.429 2.514-.246 1.065-.94 2.334-1.33 2.679-.39.345-1.118.831-1.937.666-.82-.165-.843-1.2-1.2-1.65-.6-.702.2-1.218.966-1.323 1.8-.249 2.658-1.155 2.658-1.155l.414-1.731zm-13.8 6.15a12.53 12.53 0 01-2.34-.021l-3.3-.678c-1.48.171-5.68-2.778-5.68-2.778s.979-2.817 2.353-6.804c1.122-2.91.783-5.7-.774-7.614-2.355.927-3.201 1.218-4.09 3.966-.698 2.169-2.054 8.1-2.63 10.371-.333 1.296-.462 2.442.95 3.249a40.464 40.464 0 007.288 2.904c1.5.423 2.316.837 3.9 1.071.845.144 1.702.207 2.559.189.303.005.605-.027.9-.096a5.57 5.57 0 001.272-.81.9.9 0 00.3-.3c.09-.183.05-.414.168-.582.117-.168.279-.204.39-.333.195-.228.174-.585.327-.84.153-.255.402-.477.26-.756-.236-.453-.797-.225-1.853-.138z" fill="#B16668"/><path d="M15.916 54.039c-1.266.432-2.952 1.26-3.393 1.908-.441.648-1.464 2.499-2.43 5.718-.855 2.856-1.542 5.214-1.8 7.053-.267 1.929.147 2.559 1.446 3.375 1.299.816 7.5 2.844 7.5 2.844s-.04-2.4 1.61-3.885l-4.13-2.4s1.4-4.167 1.992-5.622c.59-1.455 1.824-6.369-.795-8.991z" fill="#E0E0E0"/></svg>