<svg width="151" height="150" fill="none" xmlns="http://www.w3.org/2000/svg"><path d="M32.4 124.86c24.21 14.628 63.459 14.628 87.666 0 24.207-14.628 24.207-38.349 0-52.977s-63.456-14.628-87.666 0c-24.21 14.628-24.207 38.346 0 52.977z" fill="#F0F0F0"/><path d="M41.439 87.764s-.51-4.5-2.745-7.977c-2.235-3.477-5.304-5.66-8.17-5.883-2.864-.222-5.177 2.4-2.1 4.221 3.079 1.821 8.512 3.654 11.017 10.425l1.998-.786z" fill="#459AE9"/><path d="M41.439 87.764s-.51-4.5-2.745-7.977c-2.235-3.477-5.304-5.66-8.17-5.883-2.864-.222-5.177 2.4-2.1 4.221 3.079 1.821 8.512 3.654 11.017 10.425l1.998-.786z" fill="#263238"/><path d="M40.599 86.597c.01.003.02.003.03 0a.15.15 0 00.084-.198c-3.021-7.443-8.775-10.554-11.4-11.157a.153.153 0 00-.163.232.156.156 0 00.094.068c2.568.6 8.208 3.645 11.184 10.971a.15.15 0 00.17.084z" fill="#fff"/><path d="M25.299 86.687c.258.585.9.9 1.5 1.128.6.228 1.239.495 1.56 1.047.645 1.12-.414 2.7.279 3.774a2.003 2.003 0 001.365.792c.444.064.892.104 1.34.12a4.97 4.97 0 00.64-.048c.62-.14 1.27-.07 1.848.195.9.501 1.16 1.62 1.698 2.484a4.216 4.216 0 003 1.875c.399.054 1.14.126 1.545-.102a.699.699 0 00.084-.05c.057-.064.126-.145.156-.187a.127.127 0 00.015-.027c.159-.579-.1-1.182-.108-1.779a.628.628 0 010-.108 160.747 160.747 0 00.099-5.913c0-.83.09-1.737-.261-2.52-.387-.858-1.356-.879-1.72-1.722-.146-.336-.224-.696-.365-1.035a2.976 2.976 0 00-2.532-1.767c-1.686-.087-3.201 1.281-4.887 1.155a11.92 11.92 0 01-1.29-.246c-1.368-.255-2.946.135-3.714 1.29a1.776 1.776 0 00-.252 1.644z" fill="#37474F"/><path d="M40.466 95.021a.141.141 0 00.102-.174c-2.328-8.75-11.544-10.014-13.7-9.843a.14.14 0 00-.126.098.144.144 0 00.147.188c2.1-.15 11.123 1.085 13.403 9.641a.144.144 0 00.174.09z" fill="#fff"/><path d="M30.218 90.59a.135.135 0 00.076-.042 7.68 7.68 0 016.272-1.767.143.143 0 00.162-.06.144.144 0 00-.12-.222 7.95 7.95 0 00-6.518 1.848.147.147 0 000 .204.141.141 0 00.128.04z" fill="#fff"/><path d="M40.767 101.372a2.636 2.636 0 001.23 2.043l34.5 19.911a2.717 2.717 0 002.463 0l47.184-27.243a2.316 2.316 0 00.899-3.237 2.316 2.316 0 00-.899-.852l-34.488-19.91a2.733 2.733 0 00-2.46 0L42.009 99.325a2.64 2.64 0 00-1.242 2.046z" fill="#459AE9"/><path opacity=".7" d="M77.727 120.956v2.664a2.524 2.524 0 01-1.233-.3l-34.485-19.905a2.3 2.3 0 01-1.234-1.968 2.304 2.304 0 011.108-2.043c-.552.396-.51.975.126 1.341l34.5 19.911c.373.202.793.306 1.218.3z" fill="#000"/><path d="M39.624 99.371a2.637 2.637 0 01-1.155-2.1V56.13a2.72 2.72 0 011.23-2.13l47.187-27.243a2.313 2.313 0 013.54 2.043v41.154a2.714 2.714 0 01-1.23 2.13L42.009 99.326a2.634 2.634 0 01-2.385.045z" fill="#459AE9"/><path opacity=".7" d="M41.862 99.404a2.651 2.651 0 01-2.238-.03 2.64 2.64 0 01-1.155-2.1V56.13a2.51 2.51 0 01.36-1.2l2.31 1.332c-.22.363-.346.776-.363 1.2v41.157c-.01.726.477 1.053 1.086.786z" fill="#000"/><path opacity=".5" d="M40.767 57.464v41.154c0 .783.549 1.101 1.23.708l47.187-27.243a2.715 2.715 0 001.23-2.13V28.8c0-.786-.552-1.104-1.23-.71L42.009 55.33a2.717 2.717 0 00-1.242 2.133z" fill="#000"/><path d="M42.009 100.748l34.5 19.911a2.717 2.717 0 002.463 0l47.169-27.255c.681-.393.681-1.029 0-1.422L91.656 72.083a2.733 2.733 0 00-2.46 0L42.009 99.326c-.681.393-.681 1.029 0 1.422z" fill="#459AE9"/><path opacity=".3" d="M42.009 100.748l34.5 19.911a2.717 2.717 0 002.463 0l47.169-27.255c.681-.393.681-1.029 0-1.422L91.656 72.083a2.733 2.733 0 00-2.46 0L42.009 99.326c-.681.393-.681 1.029 0 1.422z" fill="#000"/><path d="M42.672 57.614l45.495-26.259c.408-.234.738-.042.738.43v35.624a1.633 1.633 0 01-.738 1.278l-45.495 26.26c-.408.233-.741.044-.741-.427V58.904a1.64 1.64 0 01.74-1.29z" fill="#FAFAFA"/><path opacity=".3" d="M46.01 99.683l43.8-25.287a1.366 1.366 0 011.23 0l2.242 1.293a.375.375 0 010 .711l-43.815 25.284a1.356 1.356 0 01-1.23 0l-2.235-1.29a.376.376 0 01-.252-.358.375.375 0 01.26-.353zm5.776 3.321l43.8-25.287a1.346 1.346 0 011.23 0l13.779 7.956a.378.378 0 01.255.356.374.374 0 01-.255.355l-43.75 25.263a1.374 1.374 0 01-1.232 0l-13.827-7.923a.368.368 0 01-.279-.36.37.37 0 01.279-.36z" fill="#000"/><path d="M91.047 89.105l1.37-.792c.058-.033.055-.09 0-.126l-1.583-.915a.246.246 0 00-.22 0l-1.37.792c-.06.036-.057.09 0 .126l1.587.918a.247.247 0 00.216-.003zm-2.7-3.144l-1.38.79c-.06.035-.057.09 0 .128l1.587.915a.246.246 0 00.219 0l1.37-.792c.058-.033.055-.09 0-.126l-1.583-.915a.237.237 0 00-.22 0h.007zm-4.431 2.556l-2.322 1.341c-.057.033-.054.09 0 .126l1.587.9a.24.24 0 00.216 0l2.322-1.34c.057-.034.054-.09 0-.127l-1.584-.9a.246.246 0 00-.225 0h.006zm2.42-1.413l-1.373.792c-.057.033-.054.09 0 .126l1.587.9a.246.246 0 00.219 0l1.37-.792c.058-.033.055-.09 0-.126l-1.583-.915a.247.247 0 00-.22.015zm-5.37 3.12l-1.382.78c-.057.036-.054.093 0 .13l1.584.914a.246.246 0 00.219 0l1.37-.792c.06-.033.058-.09 0-.126l-1.586-.9a.235.235 0 00-.204-.006zm-2.003 1.155l-1.371.792c-.057.033-.054.09 0 .126l1.584.915a.237.237 0 00.219 0l1.37-.792c.06-.033.058-.09 0-.126l-1.598-.909a.245.245 0 00-.216-.006h.012zm6.237 3.723l1.374-.792c.057-.033.054-.09 0-.126l-1.587-.915a.237.237 0 00-.22 0l-1.4.79c-.057.032-.054.09 0 .125l1.584.9a.245.245 0 00.237.018h.012zm-2.004 1.158l1.37-.792c.06-.033.058-.09 0-.126l-1.586-.9a.246.246 0 00-.22 0l-1.388.762c-.057.033-.054.09 0 .126l1.584.918a.246.246 0 00.228.012h.012zm-2.004 1.158l1.37-.792c.06-.033.058-.09 0-.126l-1.595-.915a.237.237 0 00-.22 0l-1.37.792c-.057.033-.054.09 0 .126l1.584.915a.246.246 0 00.219 0h.012zm-2.025 1.155l1.37-.789c.06-.036.055-.093 0-.129l-1.586-.915a.246.246 0 00-.22 0l-1.364.79c-.057.032-.054.09 0 .125l1.584.915a.236.236 0 00.216.003zm9.867-8.31l1.37-.792c.058-.033.055-.09 0-.126l-1.583-.915a.246.246 0 00-.22 0l-1.37.774c-.06.033-.057.09 0 .126l1.587.915a.246.246 0 00.225.018h-.01zm-1.851 3.684l3.06-1.767c.06-.033.054-.09 0-.126l-3.852-2.223a.246.246 0 00-.22 0l-1.58.915c-.06.033-.057.09 0 .126l2.04 1.176c.063.036.066.093 0 .126l-1.266.732c-.057.033-.054.09 0 .126l1.587.915a.24.24 0 00.24 0h-.01zm-10.245-1.41l-1.371.792c-.057.033-.054.09 0 .126l1.584.915a.246.246 0 00.219 0l1.37-.792c.06-.033.058-.09 0-.126l-1.586-.915a.236.236 0 00-.207 0h-.01zm-1.995 1.167l-1.371.792c-.057.033-.054.09 0 .126l1.584.915a.237.237 0 00.219 0l1.37-.789c.06-.036.055-.093 0-.129l-1.586-.9a.246.246 0 00-.216-.015zM64.929 106.68a.233.233 0 00.219 0l1.37-.789c.058-.036.055-.093 0-.129l-1.586-.915a.238.238 0 00-.216 0l-1.374.792c-.057.033-.054.09 0 .126l1.587.915zm-6.021-3.717l-1.371.789c-.057.036-.054.09 0 .129l1.584.915a.245.245 0 00.219 0l1.37-.792c.06-.033.058-.09 0-.126l-1.586-.915a.24.24 0 00-.216-.009v.009zm3.228 2.715a.245.245 0 00.219 0l1.37-.792c.058-.033.055-.09 0-.126l-1.583-.915a.244.244 0 00-.11-.025.244.244 0 00-.11.025l-1.37.792c-.06.036-.057.09 0 .126l1.584.915zm6.33 1.704l1.37-.789c.06-.036.058-.093 0-.129l-1.586-.915a.244.244 0 00-.11-.025.244.244 0 00-.11.025l-1.37.792c-.057.033-.054.09 0 .126l1.584.915a.229.229 0 00.112.023.225.225 0 00.11-.032v.009zm-2.223 1.155a.245.245 0 00.219 0l1.37-.792c.06-.033.055-.09 0-.126l-1.586-.915a.244.244 0 00-.11-.025.244.244 0 00-.11.025l-1.37.792c-.057.036-.054.09 0 .126l1.587.915zm-5.331-6.732l-1.371.792c-.057.033-.054.09 0 .126l1.587.915a.227.227 0 00.216 0l1.374-.789c.057-.036.054-.09 0-.129l-1.587-.9a.255.255 0 00-.22-.015zm10.023-5.787l-1.368.783c-.06.033-.054.09 0 .126l1.587.915a.246.246 0 00.219 0l1.37-.792c.058-.033.055-.09 0-.126l-1.583-.915a.246.246 0 00-.225 0v.01zm-8.016 4.629l-1.374.792c-.057.033-.054.09 0 .126l1.587.915a.245.245 0 00.219 0l1.37-.792c.058-.033.055-.09 0-.126l-1.586-.915a.25.25 0 00-.107-.03.255.255 0 00-.11.021v.009zm10.02-5.787l-1.371.792c-.06.036-.054.09 0 .126l1.587.918a.246.246 0 00.219 0l1.37-.792c.06-.033.055-.09 0-.126l-1.577-.92a.245.245 0 00-.228-.007v.01zm-4.008 2.316l-1.371.792c-.06.033-.057.09 0 .126l1.587.9a.246.246 0 00.219 0l1.37-.792c.058-.036.055-.09 0-.126l-1.583-.918a.246.246 0 00-.222.01v.008zm-2.004 1.158l-1.371.771c-.06.033-.057.09 0 .126l1.587.915a.233.233 0 00.219 0l1.37-.792c.058-.033.055-.09 0-.126l-1.583-.9a.236.236 0 00-.222-.003v.01zm-2.004 1.155l-1.356.783c-.06.033-.057.09 0 .126l1.587.918a.245.245 0 00.219 0l1.37-.792c.058-.033.055-.09 0-.126l-1.583-.915a.246.246 0 00-.237-.003v.01zm10.245 1.41l1.37-.792c.058-.033.055-.09 0-.126l-1.583-.915a.246.246 0 00-.22 0l-1.37.792c-.06.033-.054.09 0 .126l1.587.915a.24.24 0 00.216.006v-.006zm17.604-17.487l-1.374.792c-.057.033-.054.09 0 .126l1.587.9a.246.246 0 00.219 0l1.37-.792c.058-.036.055-.09 0-.126l-1.586-.918a.237.237 0 00-.216.01v.008zm-2.427 1.401l-1.371.792c-.06.033-.057.09 0 .126l1.587.915a.237.237 0 00.219 0l1.37-.789c.058-.036.055-.093 0-.129l-1.583-.92a.245.245 0 00-.222-.004v.01zm4.422-2.568l-1.371.792c-.06.033-.057.09 0 .126l1.587.915a.246.246 0 00.219 0l1.37-.792c.058-.033.055-.09 0-.126l-1.583-.915a.246.246 0 00-.222 0zM84.393 92.942l1.37-.792c.058-.033.055-.09 0-.126l-1.583-.9a.246.246 0 00-.22 0l-1.373.78c-.057.036-.054.09 0 .126l1.587.918a.246.246 0 00.228-.006h-.01zm12.6-11.85a.246.246 0 00-.22 0l-1.37.792c-.06.036-.057.09 0 .126l1.587.918a.246.246 0 00.219 0l1.37-.792c.058-.033.055-.09 0-.126l-1.586-.918zm-19.827 18.64l1.37-.793c.06-.033.055-.09 0-.126l-1.586-.9a.246.246 0 00-.22 0l-1.37.792c-.06.036-.054.09 0 .126l1.584.918a.246.246 0 00.228-.018h-.006zm24.579-14.19l1.371-.793c.057-.033.054-.09 0-.126l-1.584-.915a.248.248 0 00-.219 0l-1.371.792c-.06.033-.054.09 0 .126l1.587.9a.235.235 0 00.222.015h-.006zm-4.27-.15l1.372-.793c.057-.033.054-.09 0-.126l-1.584-.915a.246.246 0 00-.22 0l-1.376.786c-.06.033-.057.09 0 .126l1.587.9a.246.246 0 00.228.021h-.006zm1.783-3a.246.246 0 00-.22 0l-1.37.791c-.06.036-.057.09 0 .126l1.587.918a.246.246 0 00.219 0l1.371-.792c.057-.033.054-.09 0-.126l-1.587-.918zm.42-.244l3.852 2.223a.233.233 0 00.219 0l1.371-.792c.06-.033.054-.09 0-.126l-3.852-2.223a.24.24 0 00-.219 0l-1.371.792c-.06.042-.054.1.006.135l-.006-.009zm-4.641 2.556l-1.371.792c-.06.033-.057.09 0 .126l1.587.915a.237.237 0 00.219 0l1.37-.789c.058-.036.055-.09 0-.129l-1.586-.915a.246.246 0 00-.22 0zm-15.087 8.7l-1.383.807c-.057.033-.054.09 0 .126l1.584.915a.246.246 0 00.219 0l1.37-.792c.06-.036.058-.09 0-.126l-1.586-.918a.246.246 0 00-.204.003v-.015zm19.578-6.726a.246.246 0 00.219 0l1.371-.792c.057-.033.054-.09 0-.126l-1.584-.9a.237.237 0 00-.22 0l-1.37.792c-.06.033-.057.09 0 .126l1.584.9zm-17.574 5.568l-1.371.792c-.057.033-.054.09 0 .126l1.584.93a.24.24 0 00.216 0l1.374-.792c.057-.033.054-.09 0-.126l-1.59-.909a.247.247 0 00-.213-.006v-.015zm-15.021 13.251a.245.245 0 00.219 0l1.37-.792c.058-.033.055-.09 0-.126l-1.583-.915a.244.244 0 00-.11-.025.244.244 0 00-.11.025l-1.37.792c-.06.033-.057.09 0 .126l1.584.915zm-3.015-2.835l-1.371.792c-.06.033-.057.09 0 .126l1.587.9a.233.233 0 00.219 0l1.37-.792c.058-.033.055-.09 0-.126l-1.583-.915a.249.249 0 00-.115-.013.245.245 0 00-.107.043v-.015zm5.238 1.683l1.37-.792c.058-.033.055-.09 0-.126l-1.583-.9a.244.244 0 00-.11-.025.244.244 0 00-.11.025l-1.38.777c-.06.033-.056.09 0 .126l1.588.918a.243.243 0 00.225.012v-.015zm2.004-1.158l1.37-.792c.058-.033.055-.09 0-.126l-1.583-.915a.244.244 0 00-.22 0l-1.37.792c-.06.033-.057.09 0 .126l1.587.9a.236.236 0 00.216.03v-.015zm2.004-1.155l1.37-.792c.058-.036.055-.09 0-.126l-1.583-.918a.244.244 0 00-.11-.025.244.244 0 00-.11.025l-1.364.804c-.06.033-.057.09 0 .126l1.587.915a.245.245 0 00.213.006l-.003-.015zm-7.242-.528l-1.371.792c-.06.033-.057.09 0 .126l1.587.915a.245.245 0 00.219 0l1.37-.792c.058-.036.055-.09 0-.126l-1.583-.918a.257.257 0 00-.222.018v-.015zm2.004-1.158l-1.36.807c-.06.033-.056.09 0 .126l1.588.915a.245.245 0 00.219 0l1.37-.792c.058-.033.055-.09 0-.126l-1.583-.915a.25.25 0 00-.234 0v-.015zm8.016-4.629l-1.371.792c-.057.033-.054.09 0 .126l1.584.915a.237.237 0 00.219 0l1.37-.792c.06-.033.058-.09 0-.126l-1.577-.894a.246.246 0 00-.225-.006v-.015zm-2.004 1.158l-1.371.807c-.057.033-.054.09 0 .126l1.584.915a.246.246 0 00.219 0l1.37-.792c.06-.033.058-.09 0-.126l-1.586-.915a.237.237 0 00-.216 0v-.015zm4.008-2.313l-1.371.79c-.057.035-.054.092 0 .128l1.584.9a.246.246 0 00.219 0l1.37-.792c.06-.033.058-.09 0-.126l-1.586-.915a.236.236 0 00-.216.03v-.015zm-8.016 4.626l-1.371.816c-.06.036-.054.09 0 .126l1.587.918a.245.245 0 00.219 0l1.37-.792c.058-.033.055-.09 0-.126l-1.583-.9a.246.246 0 00-.222-.027v-.015zm2.004-1.155l-1.371.792c-.057.033-.054.09 0 .126l1.584.9a.237.237 0 00.219 0l1.37-.789c.06-.036.055-.093 0-.129l-1.586-.915a.245.245 0 00-.216.03v-.015zm-1.467 8.184l1.37-.792c.06-.033.058-.09 0-.126l-1.586-.9a.244.244 0 00-.22 0l-1.364.771c-.057.033-.054.09 0 .126l1.584.915a.24.24 0 00.216.006zm-11.76-1.2l-1.587-.915a.244.244 0 00-.11-.025.244.244 0 00-.11.025l-1.37.792c-.057.033-.054.09 0 .126l1.584.915a.245.245 0 00.219 0l1.37-.792c.064-.021.064-.078.007-.114l-.003-.012zm3 .882l-1.587-.915a.238.238 0 00-.108-.025.238.238 0 00-.108.025l-2.1 1.218c-.057.033-.054.09 0 .126l1.584.9a.245.245 0 00.219 0l2.1-1.218c.06-.006.06-.063.006-.099l-.006-.012zm-5.436-2.652l-1.587-.915a.244.244 0 00-.11-.025.244.244 0 00-.11.025l-1.68.972c-.06.033-.056.09 0 .126l1.588.915a.245.245 0 00.219 0l1.686-.975c.066-.018.063-.066 0-.111l-.006-.012zm1.293-.747a.233.233 0 00.219 0l1.37-.792c.06-.033.055-.09 0-.126l-1.586-.9a.244.244 0 00-.11-.025.244.244 0 00-.11.025l-1.37.792c-.057.033-.054.09 0 .126l1.587.9zm6.942 4.404l-1.587-.9a.244.244 0 00-.22 0l-2.636 1.5c-.057.033-.054.09 0 .126l1.587.915a.239.239 0 00.216 0l2.64-1.524c.066-.015.063-.072 0-.117zm1.317 1.857l-1.587-.915a.244.244 0 00-.11-.025.244.244 0 00-.11.025l-1.688.975c-.057.033-.054.09 0 .126l1.587.915a.245.245 0 00.219 0l1.686-.975c.069-.024.063-.081.003-.117v-.009zm6.648-14.862a.246.246 0 00.219 0l1.37-.792c.06-.036.058-.09 0-.126l-1.586-.918a.246.246 0 00-.22 0l-1.37.792c-.057.033-.054.09 0 .126l1.587.918zm-4.008 2.313a.237.237 0 00.219 0l1.37-.792c.06-.033.058-.09 0-.126l-1.586-.915a.246.246 0 00-.22 0l-1.38.801c-.056.033-.053.09 0 .126l1.597.906zm-8.89 5.142a.245.245 0 00.22 0l1.37-.792c.06-.033.058-.09 0-.126l-1.586-.918a.246.246 0 00-.22 0l-1.376.786c-.057.033-.054.09 0 .126l1.593.924zm10.894-6.3a.246.246 0 00.219 0l1.37-.792c.06-.033.058-.09 0-.126l-1.59-.9a.237.237 0 00-.218 0l-1.371.79c-.057.035-.054.092 0 .128l1.59.9zm-4.008 2.313a.246.246 0 00.219 0l1.37-.792c.06-.033.055-.09 0-.126l-1.586-.918a.246.246 0 00-.22 0l-1.37.792c-.057.033-.054.09 0 .126l1.587.918zm.465 11.538a.244.244 0 00-.11-.025.244.244 0 00-.11.025l-2.1 1.218c-.06.033-.056.09 0 .126l1.588.915a.245.245 0 00.219 0l2.1-1.218c.057-.033.054-.09 0-.126l-1.587-.915zm-3.342-9.876a.246.246 0 00.219 0l1.37-.792c.06-.033.058-.09 0-.126l-1.604-.9a.237.237 0 00-.22 0l-1.37.79c-.057.035-.054.09 0 .128l1.605.9zm-2.004 1.155a.245.245 0 00.219 0l1.37-.792c.06-.033.058-.09 0-.126l-1.586-.915a.246.246 0 00-.22 0l-1.37.792c-.057.033-.054.09 0 .126l1.587.915zm42.489-12.705a.248.248 0 00-.219 0l-3.381 1.947c-.06.033-.054.09 0 .126l1.587.9a.233.233 0 00.219 0l3.375-1.947c.06-.033.054-.09 0-.126l-1.581-.9zm-4.431 2.56a.237.237 0 00-.22 0l-1.37.791c-.057.033-.054.09 0 .126l1.584.915a.237.237 0 00.219 0l1.371-.792c.06-.033.057-.09 0-.126l-1.584-.915zm-27.15 15.02l1.374-.792c.057-.033.054-.09 0-.126l-1.593-.915a.244.244 0 00-.11-.025.244.244 0 00-.11.025l-1.37.792c-.057.033-.054.09 0 .126l1.584.918a.23.23 0 00.106.023.232.232 0 00.107-.026h.012zm23.142-12.705a.246.246 0 00-.22 0l-1.37.792c-.06.033-.054.09 0 .126l1.584.9a.246.246 0 00.219 0l1.37-.792c.06-.033.055-.09 0-.126l-1.583-.9zm10.443-6.03a.248.248 0 00-.219 0l-1.383.78c-.057.033-.054.09 0 .126l1.584.915a.244.244 0 00.219 0l1.371-.792c.06-.033.054-.09 0-.126l-1.572-.903zm3.6-.243l-3.852-2.223a.24.24 0 00-.219 0l-1.371.79c-.057.035-.054.092 0 .128L108.078 87a.244.244 0 00.219 0l1.371-.792c.048-.033.045-.09-.018-.126h.021zM88.146 96.677a.24.24 0 00-.216 0l-1.69.975c-.06.033-.053.09 0 .126l1.588.915a.237.237 0 00.219 0l1.689-.975c.057-.033.054-.09 0-.126l-1.59-.915zm5.064-2.925a.246.246 0 00-.22 0l-2.1 1.218c-.056.033-.053.09 0 .126l1.585.915a.246.246 0 00.219 0l2.1-1.218c.06-.033.057-.09 0-.126l-1.584-.915zm-9.705 5.604a.237.237 0 00-.22 0l-11.318 6.513c-.057.033-.054.09 0 .126l1.584.9a.245.245 0 00.219 0l11.286-6.519c.06-.033.057-.09 0-.126l-1.551-.894zm-11.92 6.882a.244.244 0 00-.218 0l-1.71.966c-.057.033-.054.09 0 .126l1.587.915a.238.238 0 00.216 0l1.689-.975c.057-.033.054-.09 0-.126l-1.563-.906zm14.242-8.22a.237.237 0 00-.22 0l-1.688.975c-.057.033-.054.09 0 .126l1.584.915a.245.245 0 00.219 0l1.689-.975c.057-.033.054-.09 0-.126l-1.584-.915zm-16.563 9.561a.244.244 0 00-.11-.025.244.244 0 00-.11.025l-1.685.975c-.06.033-.054.09 0 .126l1.587.915a.245.245 0 00.219 0l1.686-.975c.06-.033.057-.09 0-.126l-1.587-.915zm21.204-12.243a.246.246 0 00-.22 0l-1.688.975c-.057.033-.054.09 0 .126l1.587.9a.237.237 0 00.219 0l1.686-.972c.06-.036.054-.093 0-.129l-1.584-.9zm7.173-4.14a.246.246 0 00-.22 0l-1.37.792c-.057.033-.054.09 0 .126l1.584.918a.246.246 0 00.219 0l1.37-.792c.06-.033.055-.09 0-.126l-1.583-.918zm4.371-3.192l1.371-.792c.057-.033.054-.09 0-.126l-1.584-.915a.24.24 0 00-.219 0l-1.371.792c-.06.033-.054.09 0 .126l1.587.915a.243.243 0 00.216 0zm-8.961-.06l1.37-.789c.058-.036.055-.093 0-.129l-1.583-.915a.237.237 0 00-.22 0l-1.37.792c-.06.033-.054.09 0 .126l1.587.915a.236.236 0 00.216.003v-.003zm-4.542 7.86l4.008-2.313c.06-.033.057-.09 0-.126l-1.587-.915a.246.246 0 00-.22 0l-4.013 2.304c-.057.036-.054.093 0 .13l1.584.914a.246.246 0 00.228.006zm11.28-6.642a.237.237 0 00.219 0l1.371-.789c.057-.036.054-.093 0-.129l-1.584-.915a.246.246 0 00-.22 0l-1.37.792c-.06.033-.057.09 0 .126l1.584.915zm-2.046-1.305l1.37-.789c.058-.036.055-.093 0-.129l-1.583-.915a.246.246 0 00-.22 0l-1.38.78c-.06.033-.056.09 0 .126l1.588.915a.238.238 0 00.225.01v.002zm-11.238 9.105l1.37-.792c.06-.033.055-.09 0-.126l-1.586-.915a.246.246 0 00-.22 0l-1.37.792c-.06.033-.054.09 0 .126l1.584.915a.246.246 0 00.222-.003v.003zm8.862-5.244a.246.246 0 00.219 0l1.37-.792c.06-.033.055-.09 0-.126l-1.59-.912a.246.246 0 00-.218 0l-1.371.792c-.06.036-.054.09 0 .126l1.59.912zm-18.873 11.028l1.37-.792c.058-.036.055-.09 0-.126l-1.601-.924a.244.244 0 00-.11-.025.244.244 0 00-.11.025l-1.376.795c-.06.033-.057.09 0 .126l1.587.915a.244.244 0 00.23.006h.01zm2.004-1.158l1.37-.792c.058-.033.055-.09 0-.126l-1.601-.915a.246.246 0 00-.22 0l-1.37.792c-.06.033-.057.09 0 .126l1.587.915a.246.246 0 00.112.028c.04 0 .078-.01.113-.028h.009zm-4.02 2.316l1.374-.792c.057-.033.054-.09 0-.126l-1.587-.915a.244.244 0 00-.22 0l-1.37.792c-.057.033-.054.09 0 .126l1.587.915a.238.238 0 00.216 0zm8.019-4.629l1.37-.789c.058-.036.055-.093 0-.129l-1.583-.915a.246.246 0 00-.22 0l-1.37.792c-.06.033-.057.09 0 .126l1.587.915a.238.238 0 00.216-.003v.003zm-2.004 1.158l1.37-.792c.058-.033.055-.09 0-.126L80.28 98.6a.246.246 0 00-.22 0l-1.37.792c-.06.036-.057.09 0 .126l1.587.918a.24.24 0 00.108.022.237.237 0 00.108-.028v.003zM84.5 98.12l1.37-.792c.058-.033.055-.09 0-.126l-1.583-.9a.237.237 0 00-.22 0l-1.37.792c-.06.033-.054.09 0 .126l1.587.915a.245.245 0 00.216-.018v.003zm9.168-17.118a.246.246 0 00.219 0l1.37-.792c.06-.033.058-.09 0-.126l-.422-.243a.246.246 0 00-.22 0l-1.37.792c-.057.033-.054.09 0 .126l.423.243zm-9.861 6.363a.246.246 0 00.219 0l1.37-.792c.06-.033.058-.09 0-.126l-1.586-.915a.246.246 0 00-.22 0l-1.37.792c-.057.033-.054.09 0 .126l1.587.915zm4.008-2.313a.237.237 0 00.219 0l1.37-.792c.06-.033.058-.09 0-.126l-1.586-.915a.237.237 0 00-.22 0l-1.37.792c-.057.033-.054.09 0 .126l1.587.915zm-6.456 3.726a.246.246 0 00.219 0l1.374-.792c.057-.033.054-.09 0-.126l-1.587-.9a.246.246 0 00-.22 0l-1.38.774c-.056.033-.053.09 0 .126l1.594.918zm4.452-2.574a.246.246 0 00.219 0l1.37-.792c.06-.033.058-.09 0-.126l-1.586-.9a.246.246 0 00-.22 0l-1.37.792c-.057.036-.054.09 0 .126l1.587.9zm-8.445 4.887a.246.246 0 00.219 0l1.37-.792c.06-.033.058-.09 0-.126l-1.586-.915a.237.237 0 00-.22 0l-1.37.79c-.057.035-.054.092 0 .128l1.587.915zm2.004-1.158a.246.246 0 00.219 0l1.37-.792c.06-.036.058-.09 0-.126l-1.586-.918a.246.246 0 00-.22 0l-1.391.807c-.057.033-.054.09 0 .126l1.608.903zm10.296-6.62a.237.237 0 00.219 0l1.37-.79c.06-.036.058-.09 0-.129l-.422-.243a.246.246 0 00-.22 0l-1.37.792c-.057.033-.054.09 0 .126l.423.243zm6-3.472a.237.237 0 00.219 0l1.374-.792c.057-.033.054-.09 0-.126l-.423-.243a.237.237 0 00-.22 0l-1.37.79c-.057.035-.054.092 0 .128l.42.243zM99 81.764a.237.237 0 00.219 0l1.371-.792c.057-.033.054-.09 0-.126l-1.584-.9a.237.237 0 00-.22 0l-1.37.792c-.06.033-.057.09 0 .126l1.584.9zm5.01 5.085l1.371-.792c.06-.033.054-.09 0-.126l-1.587-.9a.248.248 0 00-.219 0l-1.371.792c-.06.033-.054.09 0 .126l1.584.915a.237.237 0 00.228-.015h-.006zm-12.345-4.695a.246.246 0 00.219 0l1.37-.792c.06-.033.058-.09 0-.126l-.422-.243a.237.237 0 00-.22 0l-1.37.792c-.057.033-.054.09 0 .126l.423.243zM75.348 92.246a.246.246 0 00.219 0l1.37-.792c.06-.033.058-.09 0-.126l-1.586-.915a.246.246 0 00-.22 0l-1.364.792c-.057.033-.054.09 0 .126l1.58.915z" fill="#263238"/><path opacity=".3" d="M84.237 104.279l13.53-7.815a1.638 1.638 0 011.476 0l7.761 4.482c.408.234.408.615 0 .852l-13.533 7.8a1.62 1.62 0 01-1.476 0l-7.758-4.467c-.408-.237-.408-.627 0-.852z" fill="#000"/><path d="M39.624 99.368c.12.069.246.123.378.162a1.643 1.643 0 01-.495-.234c.037.027.076.05.117.072z" fill="#459AE9"/><path opacity=".3" d="M90.414 28.604c-.087-.636-.6-.87-1.221-.51L42.009 55.331a2.485 2.485 0 00-.87.9l-2.31-1.329a2.52 2.52 0 01.87-.918l47.187-27.23a2.303 2.303 0 013.528 1.85z" fill="#000"/><path d="M41.778 99.485a.04.04 0 01.018 0h-.018z" fill="#459AE9"/><path opacity=".5" d="M127.374 94.04a2.656 2.656 0 01-1.23 2.043l-47.187 27.243a2.513 2.513 0 01-1.233.3v-2.661c.43.007.854-.097 1.233-.3l47.187-27.26c.633-.37.675-.946.123-1.342a2.66 2.66 0 011.107 1.977z" fill="#000"/></svg>