<svg width="151" height="150" fill="none" xmlns="http://www.w3.org/2000/svg"><path d="M26.375 134.232C-.95 118.452-.95 92.865 26.375 77.1s71.649-15.78 98.982 0 27.333 41.367 0 57.147c-27.333 15.78-71.64 15.768-98.982-.015z" fill="#FAFAFA"/><path d="M110.108 9.015l2.466 1.422a2.978 2.978 0 01-.021-.327v-.714c0-1.269.9-1.785 1.992-1.149.478.289.887.678 1.2 1.14.18-1.596 1.434-2.19 2.955-1.311 1.647.948 2.982 3.261 2.982 5.16v1.068c.011.427-.075.85-.252 1.239l2.046 1.182a2.447 2.447 0 011.107 1.914c0 .705-.495.99-1.107.639l-13.368-7.713a2.44 2.44 0 01-1.104-1.914c0-.705.495-.99 1.104-.636zm33.636 10.455l-1.329-1.02v-2.925c0-2.316-1.848-5.007-3.855-6.165-2.007-1.158-3.633-.219-3.633 2.1v.426a5.206 5.206 0 00-1.686-1.686c-1.446-.834-2.616-.156-2.616 1.5v.192l-1.851-1.068c-.951-.549-1.722-.105-1.722.993a3.803 3.803 0 001.722 2.982l14.97 8.643c.951.549 1.722.105 1.722-.993a3.81 3.81 0 00-1.722-2.979z" fill="#EBEBEB"/><path d="M74.624 105.264l-3.447-1.989a2.65 2.65 0 00-2.523.063l-17.79 11.472c-3.47-2.025-8.268-3.279-13.566-3.279-10.599 0-19.2 5.016-19.2 11.202s8.592 11.205 19.2 11.205c10.608 0 19.2-5.016 19.2-11.205 0-1.977-.882-3.834-2.424-5.448L74.6 106.683c.717-.375.732-1.011.024-1.419zm13.347 37.824c13.278 0 24.042-6.215 24.042-13.881s-10.764-13.881-24.042-13.881c-13.278 0-24.042 6.215-24.042 13.881s10.764 13.881 24.042 13.881z" fill="#E6E6E6"/><path d="M66.548 6.528c-1.056-.6-2.505-.507-4.107.42-3.222 1.86-5.832 6.384-5.832 10.104 0 1.857.651 3.162 1.704 3.771l1.995 1.149c1.053.6 2.511.519 4.12-.411 3.221-1.86 5.834-6.384 5.834-10.104 0-1.854-.65-3.159-1.7-3.768-.442-.258-1.57-.906-2.014-1.161z" fill="#EBEBEB"/><path d="M61.175 22.053a4.346 4.346 0 01-1.46 1.443 4.01 4.01 0 01-2.188.552.213.213 0 01-.102-.024l-1.986-1.143a.2.2 0 010-.345 3.524 3.524 0 001.836-2.736l3.9 2.253z" fill="#E0E0E0"/><path d="M57.54 23.91a.051.051 0 01-.055-.042.051.051 0 01.027-.066 3.648 3.648 0 001.887-2.853v-.048l-.024-.042a5.082 5.082 0 01-.645-2.664c0-3.672 2.583-8.148 5.763-9.984a5.127 5.127 0 012.535-.777c1.902 0 3.087 1.542 3.087 4.023 0 3.669-2.586 8.148-5.763 9.981a5.127 5.127 0 01-2.532.777c-.25 0-.5-.029-.744-.087l-.096-.024-.054.081c-.34.482-.775.89-1.278 1.2a3.94 3.94 0 01-2.073.525h-.036z" fill="#FAFAFA"/><path d="M67.034 7.575c1.815 0 2.946 1.5 2.946 3.882 0 3.624-2.556 8.049-5.7 9.861a4.995 4.995 0 01-2.46.756 2.907 2.907 0 01-.711-.084l-.19-.045-.11.162a4.2 4.2 0 01-1.236 1.152 3.614 3.614 0 01-1.74.504 3.746 3.746 0 001.7-2.802v-.093l-.047-.081a4.972 4.972 0 01-.624-2.592c0-3.627 2.553-8.049 5.7-9.861a4.992 4.992 0 012.466-.759m0-.282a5.292 5.292 0 00-2.601.807c-3.222 1.851-5.832 6.372-5.832 10.095a5.179 5.179 0 00.666 2.739 3.516 3.516 0 01-1.821 2.745.201.201 0 00.096.372h.039a4.072 4.072 0 002.148-.552 4.498 4.498 0 001.317-1.233c.255.06.517.091.78.09a5.28 5.28 0 002.6-.795c3.223-1.86 5.836-6.384 5.836-10.104 0-2.637-1.314-4.164-3.228-4.164z" fill="#E0E0E0"/><path d="M61.145 16.521c0-.027.006-.054.018-.078 0 0 .468-.972.726-1.5.222-.441.426-.801.672-.744.105.024.141.153.18.3.021.16.103.308.228.411.264.165.642-.3.828-.675.186-.375.387-.975.15-1.2a.443.443 0 00-.408-.072c-.12.018-.234.036-.3-.066-.15-.246.033-.621.267-1.053.273-.501.792-1.419.798-1.428a.148.148 0 01.063-.06.039.039 0 01.054.021c.157.276.332.543.522.798.453.627.684.3.852.075a.821.821 0 00.117-.354c.035-.234.107-.46.213-.672.192-.366.555-.636.9-.375a.666.666 0 01.255.519c.004.215-.046.428-.147.618a1.825 1.825 0 01-.411.522.742.742 0 00-.216.279c-.102.285-.24.672.426.9.268.097.544.17.825.219.021 0 .033.021.039.051a.176.176 0 01-.018.093s-.468.972-.726 1.485c-.222.441-.426.801-.672.744-.105-.024-.141-.153-.18-.3a.642.642 0 00-.228-.408c-.267-.165-.6.24-.828.675-.228.435-.387.972-.15 1.2a.443.443 0 00.408.072c.12-.018.234-.036.3.066.15.246-.033.621-.267 1.053-.273.501-.792 1.419-.798 1.428a.147.147 0 01-.063.06.037.037 0 01-.016.004c-.005 0-.01 0-.016-.003a.039.039 0 01-.022-.022 7.735 7.735 0 00-.522-.804c-.453-.627-.684-.3-.852-.078a.856.856 0 00-.117.357c-.035.234-.107.46-.213.672-.192.366-.555.636-.9.375s-.3-.771-.108-1.137a1.83 1.83 0 01.411-.522.741.741 0 00.216-.279c.102-.3.24-.672-.426-.9a4.849 4.849 0 00-.825-.219c-.021 0-.033-.021-.039-.051v.003z" fill="#E0E0E0"/><path d="M24.47 29.645c1.356-.786 2.457-2.886 2.457-4.695 0-1.81-1.113-2.64-2.457-1.87-1.344.772-2.457 2.884-2.457 4.696 0 1.812 1.101 2.652 2.457 1.869zm4.263 1.662c-.249-1.41-1.281-1.93-2.472-1.24l-3.582 2.068c-1.2.69-2.223 2.4-2.472 4.095l-.438 3c-.087.6.225.927.639.687l8.124-4.701a1.552 1.552 0 00.639-1.422l-.438-2.487zm1.287-6.9c.975-.561 1.767-2.073 1.767-3.372 0-1.3-.792-1.884-1.773-1.32-.981.564-1.758 2.073-1.758 3.366 0 1.293.789 1.905 1.758 1.34l.006-.014zm3.066.9c-.183-1-.921-1.377-1.779-.882l-2.571 1.485c-.732.423-1.368 1.362-1.653 2.376 1.251-.381 2.289.26 2.673 1.68l3.123-1.8c.492-.282.561-.492.462-1.08l-.255-1.78zM20.684 27.46c0-1.302-.789-1.9-1.764-1.335-.975.564-1.767 2.073-1.767 3.372s.792 1.896 1.767 1.335c.975-.561 1.764-2.073 1.764-3.372zm-5.07 9.867c-.099.702-.03.834.462.549l3.123-1.8c.369-1.866 1.407-3.696 2.658-4.77-.3-.687-.921-.9-1.653-.468l-2.571 1.5c-.858.495-1.596 1.725-1.779 2.937l-.24 2.052z" fill="#F0F0F0"/><path d="M53.936 115.137a.997.997 0 01-1.011-.099 3.162 3.162 0 01-1.434-2.472 1.005 1.005 0 01.417-.924l17.781-11.247c.363-.246.882-.234 1.461.099a4.42 4.42 0 012.025 3.459c0 .669-.246 1.125-.639 1.32l-18.6 9.864z" fill="#455A64"/><path d="M51.491 112.566c0-.9.636-1.281 1.428-.828a3.162 3.162 0 011.434 2.472c0 .9-.636 1.284-1.428.828a3.162 3.162 0 01-1.434-2.472z" fill="#37474F"/><path d="M49.391 116.442a1.898 1.898 0 01-.867-1.5.599.599 0 01.252-.561l3.534-2.055a.604.604 0 01.6.06 1.893 1.893 0 01.867 1.5.598.598 0 01-.252.561l-3.531 2.055a.601.601 0 01-.603-.06z" fill="#459AE9"/><path opacity=".2" d="M49.391 116.442a1.898 1.898 0 01-.867-1.5.599.599 0 01.252-.561l3.534-2.055a.604.604 0 01.6.06 1.893 1.893 0 01.867 1.5.598.598 0 01-.252.561l-3.531 2.055a.601.601 0 01-.603-.06z" fill="#000"/><path opacity=".2" d="M51.05 113.598a10.77 10.77 0 00-.402-.3l-1.863 1.083c.755.453 1.452.999 2.073 1.623l1.704-.99c-.045-.054-.087-.108-.135-.162a11.26 11.26 0 00-1.377-1.254z" fill="#000"/><path opacity=".15" d="M53.591 112.32l18.3-11.241a3.591 3.591 0 00-.732-.582c-.579-.33-1.098-.345-1.464-.099l-17.78 11.244a1.017 1.017 0 011.01.099c.254.154.479.349.666.579z" fill="#000"/><path d="M53.39 119.625v-.378a4.615 4.615 0 00-.048-.501c0-.06-.02-.12-.033-.186a5.098 5.098 0 00-.168-.681 4.584 4.584 0 00-.26-.684 1.9 1.9 0 00-.082-.174l-.078-.156c-.039-.075-.075-.147-.12-.219-.045-.072-.08-.144-.126-.219l-.138-.213a7.78 7.78 0 00-.825-1.05 10.133 10.133 0 00-1.305-1.2c-.523-.4-1.072-.763-1.644-1.089-6.42-3.666-16.77-3.666-23.115 0-.162.093-.3.183-.465.279-.566.355-1.104.753-1.608 1.191-.144.129-.285.255-.417.387-.333.324-.64.673-.92 1.044a3.325 3.325 0 00-.142.198c-.045.069-.123.177-.18.267-.057.09-.153.249-.225.372a5.479 5.479 0 00-.213.42c-.031.059-.058.12-.08.183-.04.083-.075.168-.106.255-.027.062-.05.126-.069.192-.158.44-.259.899-.3 1.365v2.994c0 2.424 1.596 4.854 4.8 6.711 6.384 3.687 16.734 3.687 23.115 0 3.225-1.86 4.8-4.299 4.767-6.732-.03-.276-.009-1.785-.015-2.376zm-27.036-5.151c2.796-1.614 6.564-2.502 10.611-2.502 4.047 0 7.845.9 10.677 2.505 2.52 1.434 3.9 3.234 3.9 5.067 0 1.833-1.362 3.6-3.849 5.049-2.81 1.626-6.6 2.52-10.64 2.52-4.042 0-7.825-.9-10.639-2.52-2.508-1.449-3.9-3.258-3.9-5.1 0-1.842 1.38-3.597 3.84-5.019z" fill="#459AE9"/><path opacity=".25" d="M53.39 119.625v-.378a4.615 4.615 0 00-.048-.501c0-.06-.02-.12-.033-.186a5.098 5.098 0 00-.168-.681 4.584 4.584 0 00-.26-.684 1.9 1.9 0 00-.082-.174l-.078-.156c-.039-.075-.075-.147-.12-.219-.045-.072-.08-.144-.126-.219l-.138-.213a7.78 7.78 0 00-.825-1.05 10.133 10.133 0 00-1.305-1.2c-.523-.4-1.072-.763-1.644-1.089-6.42-3.666-16.77-3.666-23.115 0-.162.093-.3.183-.465.279-.566.355-1.104.753-1.608 1.191-.144.129-.285.255-.417.387-.333.324-.64.673-.92 1.044a3.325 3.325 0 00-.142.198c-.045.069-.123.177-.18.267-.057.09-.153.249-.225.372a5.479 5.479 0 00-.213.42c-.031.059-.058.12-.08.183-.04.083-.075.168-.106.255-.027.062-.05.126-.069.192-.158.44-.259.899-.3 1.365v2.994c0 2.424 1.596 4.854 4.8 6.711 6.384 3.687 16.734 3.687 23.115 0 3.225-1.86 4.8-4.299 4.767-6.732-.03-.276-.009-1.785-.015-2.376zm-27.036-5.151c2.796-1.614 6.564-2.502 10.611-2.502 4.047 0 7.845.9 10.677 2.505 2.52 1.434 3.9 3.234 3.9 5.067 0 1.833-1.362 3.6-3.849 5.049-2.81 1.626-6.6 2.52-10.64 2.52-4.042 0-7.825-.9-10.639-2.52-2.508-1.449-3.9-3.258-3.9-5.1 0-1.842 1.38-3.597 3.84-5.019z" fill="#fff"/><path d="M53.39 119.625h-1.836c0 1.821-1.362 3.531-3.849 4.968-2.73 1.578-6.366 2.463-10.28 2.514v4.386c4.061-.051 8.1-.969 11.198-2.76 3.225-1.86 4.8-4.299 4.767-6.732-.015-.276.006-1.785 0-2.376z" fill="#459AE9"/><path d="M53.39 119.454v-.207a4.615 4.615 0 00-.048-.501c0-.06-.02-.12-.033-.186a5.098 5.098 0 00-.168-.681 4.584 4.584 0 00-.26-.684 1.9 1.9 0 00-.082-.174l-.078-.156c-.039-.075-.075-.147-.12-.219-.045-.072-.08-.144-.126-.219l-.138-.213a7.78 7.78 0 00-.825-1.05 10.52 10.52 0 00-1.305-1.2c-.523-.4-1.072-.763-1.644-1.089-6.42-3.666-16.77-3.666-23.115 0-.162.093-.3.183-.465.279-.566.355-1.104.753-1.608 1.191-.144.129-.285.255-.417.387-.333.324-.64.673-.92 1.044a3.325 3.325 0 00-.142.198c-.045.069-.123.177-.18.267-.057.09-.153.249-.225.372a5.479 5.479 0 00-.213.42c-.031.059-.058.12-.08.183-.04.083-.075.168-.106.255-.027.062-.05.126-.069.192-.158.44-.259.899-.3 1.365v.468c0 2.418 1.605 4.842 4.8 6.69 6.384 3.684 16.734 3.684 23.115 0 3.15-1.815 4.74-4.185 4.767-6.561a1.035 1.035 0 01-.015-.171zm-5.7 5.139c-2.81 1.626-6.6 2.52-10.64 2.52-4.042 0-7.825-.9-10.639-2.52-2.508-1.449-3.9-3.258-3.9-5.1 0-1.842 1.36-3.6 3.82-5.022 2.795-1.614 6.563-2.502 10.61-2.502s7.845.9 10.677 2.505c2.52 1.434 3.9 3.234 3.9 5.067 0 1.833-1.326 3.615-3.813 5.052h-.015z" fill="#459AE9"/><path opacity=".45" d="M53.39 119.454v-.207a4.615 4.615 0 00-.048-.501c0-.06-.02-.12-.033-.186a5.098 5.098 0 00-.168-.681 4.584 4.584 0 00-.26-.684 1.9 1.9 0 00-.082-.174l-.078-.156c-.039-.075-.075-.147-.12-.219-.045-.072-.08-.144-.126-.219l-.138-.213a7.78 7.78 0 00-.825-1.05 10.52 10.52 0 00-1.305-1.2c-.523-.4-1.072-.763-1.644-1.089-6.42-3.666-16.77-3.666-23.115 0-.162.093-.3.183-.465.279-.566.355-1.104.753-1.608 1.191-.144.129-.285.255-.417.387-.333.324-.64.673-.92 1.044a3.325 3.325 0 00-.142.198c-.045.069-.123.177-.18.267-.057.09-.153.249-.225.372a5.479 5.479 0 00-.213.42c-.031.059-.058.12-.08.183-.04.083-.075.168-.106.255-.027.062-.05.126-.069.192-.158.44-.259.899-.3 1.365v.468c0 2.418 1.605 4.842 4.8 6.69 6.384 3.684 16.734 3.684 23.115 0 3.15-1.815 4.74-4.185 4.767-6.561a1.035 1.035 0 01-.015-.171zm-5.7 5.139c-2.81 1.626-6.6 2.52-10.64 2.52-4.042 0-7.825-.9-10.639-2.52-2.508-1.449-3.9-3.258-3.9-5.1 0-1.842 1.36-3.6 3.82-5.022 2.795-1.614 6.563-2.502 10.61-2.502s7.845.9 10.677 2.505c2.52 1.434 3.9 3.234 3.9 5.067 0 1.833-1.326 3.615-3.813 5.052h-.015z" fill="#fff"/><path d="M51.554 119.544a3.62 3.62 0 01-.117.927c-.38-1.5-1.695-2.961-3.795-4.155-2.832-1.617-6.624-2.505-10.677-2.505s-7.8.9-10.61 2.502c-2.047 1.176-3.328 2.607-3.703 4.098a3.658 3.658 0 01-.117-.915c0-1.821 1.36-3.6 3.82-5.022 2.795-1.614 6.563-2.502 10.61-2.502s7.845.9 10.677 2.505c2.52 1.434 3.906 3.234 3.912 5.067z" fill="#459AE9"/><path opacity=".25" d="M51.554 119.544a3.62 3.62 0 01-.117.927c-.38-1.5-1.695-2.961-3.795-4.155-2.832-1.617-6.624-2.505-10.677-2.505s-7.8.9-10.61 2.502c-2.047 1.176-3.328 2.607-3.703 4.098a3.658 3.658 0 01-.117-.915c0-1.821 1.36-3.6 3.82-5.022 2.795-1.614 6.563-2.502 10.61-2.502s7.845.9 10.677 2.505c2.52 1.434 3.906 3.234 3.912 5.067z" fill="#fff"/><path opacity=".55" d="M51.524 120.024c-.216 1.65-1.551 3.261-3.82 4.569-2.81 1.626-6.6 2.52-10.64 2.52-4.041 0-7.824-.9-10.638-2.52-2.298-1.326-3.648-2.955-3.861-4.632.213-1.659 1.539-3.261 3.789-4.56 2.796-1.614 6.564-2.502 10.61-2.502 4.048 0 7.846.9 10.678 2.505 2.313 1.317 3.672 2.943 3.882 4.62z" fill="#fff"/><path d="M127.475 124.842a1.24 1.24 0 01-1.2-.993l-.201-1.071c-.46-.088-.916-.2-1.365-.336l-2.079.963a1.387 1.387 0 01-.585.123 1.438 1.438 0 01-.714-.183l-2.127-1.227a1.051 1.051 0 01-.55-.875 1.06 1.06 0 01.46-.925l1.116-.801a3.4 3.4 0 01-.15-.234l-2.601-.165a1.201 1.201 0 01-1.107-1.179v-1.584a1.197 1.197 0 011.107-1.179l2.601-.165a3.4 3.4 0 01.15-.234l-1.116-.801a1.074 1.074 0 01-.459-.924 1.08 1.08 0 01.549-.876l2.127-1.227a1.46 1.46 0 01.714-.183c.207-.002.412.041.6.126l2.076.963c.449-.138.904-.251 1.365-.339l.201-1.071a1.236 1.236 0 011.2-.993h3.129a1.24 1.24 0 011.2.993l.201 1.071c.46.087.915.201 1.362.339l2.082-.963c.188-.086.393-.129.6-.126.25-.001.496.062.714.183l2.127 1.23a1.054 1.054 0 01.09 1.8l-1.116.801c.054.078.102.156.15.234l2.601.165a1.201 1.201 0 011.107 1.179v1.584a1.197 1.197 0 01-1.107 1.179l-2.601.165a5.099 5.099 0 01-.15.234l1.116.801a1.058 1.058 0 01.299 1.434c-.096.154-.23.28-.389.366l-2.127 1.227a1.46 1.46 0 01-.714.183 1.394 1.394 0 01-.6-.123l-2.082-.963c-.448.136-.902.248-1.362.336l-.201 1.071a1.24 1.24 0 01-1.2.993l-3.141-.003zm1.566-9.729a6.49 6.49 0 00-3.147.738c-.66.381-1.038.855-1.038 1.296 0 .441.378.915 1.038 1.296a7.072 7.072 0 006.3 0c.66-.381 1.038-.852 1.038-1.296 0-.444-.378-.915-1.038-1.296a6.487 6.487 0 00-3.168-.738h.015z" fill="#E6E6E6"/><path d="M138.41 111.111l-2.127-1.227a.573.573 0 00-.471-.021l-2.157.999a.821.821 0 01-.495.03 13.016 13.016 0 00-1.674-.399.409.409 0 01-.3-.3l-.27-1.422a.332.332 0 00-.315-.261h-3.126a.332.332 0 00-.315.261l-.27 1.422a.409.409 0 01-.3.3c-.566.096-1.125.229-1.674.399a.821.821 0 01-.495-.03l-2.157-.999a.552.552 0 00-.471.021l-2.127 1.227a.174.174 0 00-.099.147v1.842a.181.181 0 00.084.144l.981.705a.47.47 0 01-.243.099l-2.835.18a.295.295 0 00-.183.093.295.295 0 00-.081.189v3.42a.295.295 0 00.081.189.295.295 0 00.183.093l2.838.177c.09.012.175.048.246.105l-.975.702a.172.172 0 00-.084.141v1.848a.174.174 0 00.099.147l2.13 1.227a.558.558 0 00.471.021l2.157-.999a.79.79 0 01.492-.03c.549.17 1.108.303 1.674.399a.402.402 0 01.3.3l.27 1.422a.332.332 0 00.315.261h3.129a.332.332 0 00.315-.261l.27-1.422a.409.409 0 01.3-.3 13.016 13.016 0 001.674-.399.821.821 0 01.495.03l2.157.999a.554.554 0 00.471-.021l2.127-1.227a.17.17 0 00.099-.144v-1.851a.172.172 0 00-.084-.141l-.996-.696a.505.505 0 01.243-.102l2.835-.177a.298.298 0 00.267-.282v-3.429a.295.295 0 00-.081-.189.295.295 0 00-.183-.093l-2.835-.18a.457.457 0 01-.246-.102l.972-.702a.172.172 0 00.084-.141v-1.848a.166.166 0 00-.026-.084.175.175 0 00-.064-.06zm-14.367 4.779c.153-.507.6-1.008 1.386-1.455 1.986-1.146 5.205-1.146 7.2 0 .599.297 1.094.77 1.416 1.356-.168.582-.639 1.137-1.416 1.587-1.986 1.146-5.205 1.146-7.2 0a2.939 2.939 0 01-1.386-1.488z" fill="#459AE9"/><path opacity=".2" d="M138.41 111.111l-2.127-1.227a.573.573 0 00-.471-.021l-2.157.999a.821.821 0 01-.495.03 13.016 13.016 0 00-1.674-.399.409.409 0 01-.3-.3l-.27-1.422a.332.332 0 00-.315-.261h-3.126a.332.332 0 00-.315.261l-.27 1.422a.409.409 0 01-.3.3c-.566.096-1.125.229-1.674.399a.821.821 0 01-.495-.03l-2.157-.999a.552.552 0 00-.471.021l-2.127 1.227a.174.174 0 00-.099.147v1.842a.181.181 0 00.084.144l.981.705a.47.47 0 01-.243.099l-2.835.18a.295.295 0 00-.183.093.295.295 0 00-.081.189v3.42a.295.295 0 00.081.189.295.295 0 00.183.093l2.838.177c.09.012.175.048.246.105l-.975.702a.172.172 0 00-.084.141v1.848a.174.174 0 00.099.147l2.13 1.227a.558.558 0 00.471.021l2.157-.999a.79.79 0 01.492-.03c.549.17 1.108.303 1.674.399a.402.402 0 01.3.3l.27 1.422a.332.332 0 00.315.261h3.129a.332.332 0 00.315-.261l.27-1.422a.409.409 0 01.3-.3 13.016 13.016 0 001.674-.399.821.821 0 01.495.03l2.157.999a.554.554 0 00.471-.021l2.127-1.227a.17.17 0 00.099-.144v-1.851a.172.172 0 00-.084-.141l-.996-.696a.505.505 0 01.243-.102l2.835-.177a.298.298 0 00.267-.282v-3.429a.295.295 0 00-.081-.189.295.295 0 00-.183-.093l-2.835-.18a.457.457 0 01-.246-.102l.972-.702a.172.172 0 00.084-.141v-1.848a.166.166 0 00-.026-.084.175.175 0 00-.064-.06zm-14.367 4.779c.153-.507.6-1.008 1.386-1.455 1.986-1.146 5.205-1.146 7.2 0 .599.297 1.094.77 1.416 1.356-.168.582-.639 1.137-1.416 1.587-1.986 1.146-5.205 1.146-7.2 0a2.939 2.939 0 01-1.386-1.488z" fill="#fff"/><path opacity=".1" d="M120.74 116.808a.533.533 0 00-.384-.255l-2.835-.177a.3.3 0 01-.264-.282v1.842a.3.3 0 00.264.285l2.838.177a.47.47 0 01.249.105l.708-.513a.218.218 0 00.099-.165.221.221 0 00-.066-.18 4.247 4.247 0 01-.609-.837zm-1.2-3.708a.182.182 0 00.084.141l.981.705a.515.515 0 00.141-.153c.165-.302.367-.583.6-.837a.221.221 0 00-.033-.345l-1.686-1.215a.213.213 0 01-.087-.123v1.827zm13.08.126c-1.986-1.146-5.205-1.146-7.2 0-1.254.726-1.716 1.734-1.386 2.667.15-.51.6-1.008 1.386-1.458 1.986-1.149 5.205-1.146 7.2 0 .729.42 1.2.879 1.422 1.356.261-.891-.216-1.866-1.422-2.565z" fill="#000"/><path d="M140.792 116.13a.297.297 0 01-.264.246l-2.835.177a.422.422 0 00-.144.039v1.848a.429.429 0 01.141-.039l2.835-.183a.302.302 0 00.267-.279v-1.809zm-2.283-4.875a.137.137 0 010 .057.143.143 0 01-.033.054.201.201 0 01-.039.033l-1.686 1.215a.098.098 0 00-.042.036.245.245 0 00-.054.105.16.16 0 000 .069.109.109 0 000 .036c.012.037.031.07.057.099l.033.036c.219.244.41.512.57.798a.58.58 0 00.135.153l.975-.699a.181.181 0 00.084-.144v-1.848zm0 8.1a.18.18 0 01-.099.132l-2.13 1.227a.565.565 0 01-.33.06v1.842a.563.563 0 00.33-.057l2.127-1.227a.17.17 0 00.099-.141l.003-1.836zm-13.902.345a.657.657 0 00-.213.051l-2.157.999a.427.427 0 01-.192.042v1.842a.488.488 0 00.192-.039l2.157-.999a.725.725 0 01.21-.051l.003-1.845zm6.246 2.265a.345.345 0 01-.116.102.343.343 0 01-.148.039h-3.114a.32.32 0 01-.192-.069v1.845a.33.33 0 00.189.069h3.129a.335.335 0 00.273-.159l-.021-1.827z" fill="#459AE9"/><path opacity=".7" d="M140.792 116.13a.297.297 0 01-.264.246l-2.835.177a.422.422 0 00-.144.039v1.848a.429.429 0 01.141-.039l2.835-.183a.302.302 0 00.267-.279v-1.809zm-2.283-4.875a.137.137 0 010 .057.143.143 0 01-.033.054.201.201 0 01-.039.033l-1.686 1.215a.098.098 0 00-.042.036.245.245 0 00-.054.105.16.16 0 000 .069.109.109 0 000 .036c.012.037.031.07.057.099l.033.036c.219.244.41.512.57.798a.58.58 0 00.135.153l.975-.699a.181.181 0 00.084-.144v-1.848zm0 8.1a.18.18 0 01-.099.132l-2.13 1.227a.565.565 0 01-.33.06v1.842a.563.563 0 00.33-.057l2.127-1.227a.17.17 0 00.099-.141l.003-1.836zm-13.902.345a.657.657 0 00-.213.051l-2.157.999a.427.427 0 01-.192.042v1.842a.488.488 0 00.192-.039l2.157-.999a.725.725 0 01.21-.051l.003-1.845zm6.246 2.265a.345.345 0 01-.116.102.343.343 0 01-.148.039h-3.114a.32.32 0 01-.192-.069v1.845a.33.33 0 00.189.069h3.129a.335.335 0 00.273-.159l-.021-1.827z" fill="#fff"/><path d="M135.812 109.863l-2.157.999a.821.821 0 01-.495.03 12.976 12.976 0 00-1.674-.399.409.409 0 01-.3-.3l-.27-1.422a.332.332 0 00-.315-.261h-3.126a.332.332 0 00-.315.261l-.27 1.422a.409.409 0 01-.3.3c-.566.096-1.125.229-1.674.399a.821.821 0 01-.495-.03l-2.157-.999a.552.552 0 00-.471.021l-2.127 1.227a.16.16 0 00-.015.3l1.686 1.215a.217.217 0 01.099.165.221.221 0 01-.066.18 4.263 4.263 0 00-.6.837.52.52 0 01-.384.252l-2.835.18a.295.295 0 00-.183.093.295.295 0 00-.081.189v1.578a.295.295 0 00.081.189.295.295 0 00.183.093l2.835.18a.527.527 0 01.384.252c.165.302.367.583.6.837a.221.221 0 01-.033.345l-1.686 1.215a.15.15 0 00-.074.062.16.16 0 00.089.238l2.109 1.209a.573.573 0 00.471.021l2.157-.999a.821.821 0 01.495-.03c.549.17 1.108.303 1.674.399a.409.409 0 01.3.3l.27 1.422a.33.33 0 00.333.267h3.129a.332.332 0 00.315-.261l.27-1.422a.409.409 0 01.3-.3 12.85 12.85 0 001.686-.417.821.821 0 01.495.03l2.157.999a.554.554 0 00.471-.021l2.127-1.227a.153.153 0 00.08-.054.152.152 0 00.034-.091.154.154 0 00-.025-.093.15.15 0 00-.074-.062l-1.686-1.215a.21.21 0 01-.068-.071.228.228 0 01-.019-.191.221.221 0 01.054-.083c.233-.254.435-.535.6-.837a.513.513 0 01.384-.252l2.835-.18a.3.3 0 00.264-.282v-1.56a.3.3 0 00-.264-.282l-2.835-.18a.527.527 0 01-.384-.252 4.263 4.263 0 00-.6-.837.221.221 0 01.033-.345l1.686-1.215a.15.15 0 00.074-.062.154.154 0 00.025-.093.152.152 0 00-.034-.091.153.153 0 00-.08-.054l-2.127-1.227a.565.565 0 00-.486-.009zm-3.192 3.363c1.986 1.146 1.986 3 0 4.152-1.986 1.152-5.205 1.146-7.2 0s-1.986-3 0-4.152c1.986-1.152 5.214-1.146 7.2 0z" fill="#459AE9"/><g opacity=".55" fill="#fff"><path d="M135.812 109.863l-2.157.999a.821.821 0 01-.495.03 12.976 12.976 0 00-1.674-.399.409.409 0 01-.3-.3l-.27-1.422a.332.332 0 00-.315-.261h-3.126a.332.332 0 00-.315.261l-.27 1.422a.409.409 0 01-.3.3c-.566.096-1.125.229-1.674.399a.821.821 0 01-.495-.03l-2.157-.999a.552.552 0 00-.471.021l-2.127 1.227a.16.16 0 00-.015.3l1.686 1.215a.217.217 0 01.099.165.221.221 0 01-.066.18 4.263 4.263 0 00-.6.837.52.52 0 01-.384.252l-2.835.18a.295.295 0 00-.183.093.295.295 0 00-.081.189v1.578a.295.295 0 00.081.189.295.295 0 00.183.093l2.835.18a.527.527 0 01.384.252c.165.302.367.583.6.837a.221.221 0 01-.033.345l-1.686 1.215a.15.15 0 00-.074.062.16.16 0 00.089.238l2.109 1.209a.573.573 0 00.471.021l2.157-.999a.821.821 0 01.495-.03c.549.17 1.108.303 1.674.399a.409.409 0 01.3.3l.27 1.422a.33.33 0 00.333.267h3.129a.332.332 0 00.315-.261l.27-1.422a.409.409 0 01.3-.3 12.85 12.85 0 001.686-.417.821.821 0 01.495.03l2.157.999a.554.554 0 00.471-.021l2.127-1.227a.153.153 0 00.08-.054.152.152 0 00.034-.091.154.154 0 00-.025-.093.15.15 0 00-.074-.062l-1.686-1.215a.21.21 0 01-.068-.071.228.228 0 01-.019-.191.221.221 0 01.054-.083c.233-.254.435-.535.6-.837a.513.513 0 01.384-.252l2.835-.18a.3.3 0 00.264-.282v-1.56a.3.3 0 00-.264-.282l-2.835-.18a.527.527 0 01-.384-.252 4.263 4.263 0 00-.6-.837.221.221 0 01.033-.345l1.686-1.215a.15.15 0 00.074-.062.154.154 0 00.025-.093.152.152 0 00-.034-.091.153.153 0 00-.08-.054l-2.127-1.227a.565.565 0 00-.486-.009zm-3.192 3.363c1.986 1.146 1.986 3 0 4.152-1.986 1.152-5.205 1.146-7.2 0s-1.986-3 0-4.152c1.986-1.152 5.214-1.146 7.2 0z"/><path d="M130.589 122.202h-3.114a.432.432 0 01-.417-.348l-.27-1.422a.298.298 0 00-.228-.219 13.237 13.237 0 01-1.689-.399.662.662 0 00-.417.024l-2.157.999a.672.672 0 01-.567-.027l-2.127-1.227a.272.272 0 01-.106-.093.273.273 0 01-.047-.132.29.29 0 01.036-.135.294.294 0 01.093-.105l1.686-1.2a.13.13 0 00.037-.037.124.124 0 00.017-.05.137.137 0 00-.039-.105 4.329 4.329 0 01-.618-.855.43.43 0 00-.3-.201l-2.835-.177a.393.393 0 01-.363-.387v-1.596a.39.39 0 01.363-.384l2.835-.18a.43.43 0 00.3-.201c.17-.309.378-.596.618-.855a.137.137 0 00.039-.105.13.13 0 00-.017-.05.13.13 0 00-.037-.037l-1.686-1.2a.263.263 0 01-.083-.373.264.264 0 01.107-.092l2.112-1.233a.672.672 0 01.567-.027l2.157.999a.671.671 0 00.42.024 13.016 13.016 0 011.686-.396.297.297 0 00.228-.219l.27-1.422a.434.434 0 01.417-.348h3.129a.437.437 0 01.417.348l.27 1.419a.302.302 0 00.228.222c.57.096 1.134.229 1.686.399a.671.671 0 00.42-.024l2.157-.999a.672.672 0 01.567.027l2.127 1.227a.312.312 0 01.104.094.307.307 0 01.049.131.266.266 0 01-.034.135.266.266 0 01-.095.102l-1.686 1.215a.13.13 0 00-.037.037.13.13 0 00-.017.05.137.137 0 00.039.105c.24.258.447.545.615.855a.428.428 0 00.3.201l2.835.177a.393.393 0 01.363.387v1.581a.39.39 0 01-.363.384l-2.835.18a.434.434 0 00-.3.201 4.18 4.18 0 01-.615.855.137.137 0 00-.039.105.124.124 0 00.017.05.13.13 0 00.037.037l1.686 1.2a.263.263 0 01.083.373.264.264 0 01-.107.092l-2.127 1.227a.672.672 0 01-.567.027l-2.157-.999a.671.671 0 00-.42-.024c-.552.17-1.116.303-1.686.399a.297.297 0 00-.228.219l-.27 1.422a.434.434 0 01-.417.354zm-5.898-2.619a.798.798 0 01.228.03c.543.166 1.096.295 1.656.387a.514.514 0 01.396.384l.27 1.422a.232.232 0 00.213.177h3.129a.232.232 0 00.213-.177l.27-1.422a.508.508 0 01.396-.384 12.79 12.79 0 001.662-.396.896.896 0 01.567.036l2.157.999a.489.489 0 00.375-.018l2.13-1.227c.027-.018.045-.039.045-.057 0-.018-.015-.039-.042-.057l-1.686-1.215a.32.32 0 01-.138-.234.333.333 0 01.09-.267c.233-.245.434-.518.6-.813a.636.636 0 01.468-.3l2.838-.18a.184.184 0 00.147-.171v-1.59a.184.184 0 00-.165-.177l-2.838-.18a.631.631 0 01-.468-.3 4.087 4.087 0 00-.6-.813.326.326 0 01-.074-.124.331.331 0 01.027-.277.323.323 0 01.095-.103l1.686-1.2c.027-.018.045-.042.042-.06-.003-.018-.018-.036-.045-.054l-2.13-1.227a.47.47 0 00-.375-.018l-2.157.999a.896.896 0 01-.567.036 12.79 12.79 0 00-1.662-.396.504.504 0 01-.396-.387l-.27-1.419a.232.232 0 00-.213-.177h-3.09a.232.232 0 00-.213.177l-.27 1.419a.515.515 0 01-.396.387 12.83 12.83 0 00-1.662.396.896.896 0 01-.567-.036l-2.157-.999a.47.47 0 00-.375.018l-2.13 1.227c-.027.018-.045.039-.045.054s.015.039.042.06l1.686 1.2a.346.346 0 01.138.237.32.32 0 01-.093.267 4.073 4.073 0 00-.585.813.632.632 0 01-.471.3l-2.835.18a.183.183 0 00-.168.177v1.59a.183.183 0 00.168.177l2.835.18a.63.63 0 01.471.3c.161.294.357.567.585.813a.32.32 0 01.075.12.308.308 0 01.018.141.319.319 0 01-.138.24l-1.713 1.218c-.027.018-.045.042-.042.057a.104.104 0 00.045.057l2.13 1.227a.478.478 0 00.375.018l2.157-.999a.801.801 0 01.351-.066zm4.332-1.245a7.43 7.43 0 01-3.645-.87c-.996-.573-1.542-1.344-1.542-2.166 0-.822.546-1.593 1.542-2.166 2.01-1.161 5.283-1.161 7.293 0 .993.573 1.542 1.344 1.542 2.166 0 .822-.546 1.593-1.542 2.166a7.442 7.442 0 01-3.648.87zm0-5.868a7.25 7.25 0 00-3.543.846c-.924.537-1.434 1.242-1.434 1.986s.51 1.449 1.434 1.986c1.956 1.128 5.133 1.128 7.086 0 .927-.537 1.437-1.242 1.437-1.986s-.51-1.449-1.437-1.986a7.24 7.24 0 00-3.543-.846z"/></g><path d="M109.502 113.424h-.132l-1.845-.195a1.226 1.226 0 01-.831-.452 1.224 1.224 0 01-.258-.91l.036-.285a13.7 13.7 0 01-.459-.18h-.021l-1.401.441a1.574 1.574 0 01-1.413-.279l-.942-.786a1.1 1.1 0 01-.412-.987 1.095 1.095 0 01.625-.867l.321-.159-.867-.147a1.184 1.184 0 01-.933-1.527l.258-.816a1.356 1.356 0 011.269-.93l1.569.06-.201-.213a1.11 1.11 0 01-.293-1.017 1.11 1.11 0 01.695-.798l1.476-.6a1.589 1.589 0 011.41.144l.957.636c.276-.048.558-.084.84-.111l.285-.555a1.43 1.43 0 011.239-.75.97.97 0 01.132 0l1.845.192a1.194 1.194 0 01.831.453c.202.254.294.578.258.9l-.036.285c.156.057.3.12.459.183h.021l1.401-.438c.138-.044.281-.066.426-.066.357-.002.705.119.984.342l.945.786a1.097 1.097 0 01.21 1.502 1.088 1.088 0 01-.426.352l-.318.159.867.15a1.182 1.182 0 01.816.549 1.2 1.2 0 01.117.975l-.258.816a1.355 1.355 0 01-1.269.933l-1.572-.063.204.213a1.116 1.116 0 01.29 1.016 1.103 1.103 0 01-.692.799l-1.476.6a1.45 1.45 0 01-.552.102 1.56 1.56 0 01-.858-.246l-.96-.636c-.273.048-.555.084-.84.111l-.285.555a1.413 1.413 0 01-1.236.759zm.489-6.774a4.558 4.558 0 00-1.674.3c-.648.261-.915.6-.948.795-.033.195.174.408.3.513.492.411 1.386.669 2.325.669a4.558 4.558 0 001.674-.3c.648-.261.915-.6.948-.795.033-.195-.177-.408-.3-.513-.495-.414-1.386-.669-2.325-.669z" fill="#E6E6E6"/><path d="M112.85 103.179a.397.397 0 01-.276-.417l.084-.702a.317.317 0 00-.012-.13.315.315 0 00-.163-.195.32.32 0 00-.125-.035l-1.845-.192a.506.506 0 00-.275.061.504.504 0 00-.202.197l-.369.714a.637.637 0 01-.477.3c-.321.024-.642.066-.957.12a.932.932 0 01-.6-.12l-.996-.66a.7.7 0 00-.576-.06l-1.479.6a.21.21 0 00-.15.189v1.518a.252.252 0 00.072.168l.087.09a.767.767 0 01-.405.126l-1.689-.066a.451.451 0 00-.426.3l-.255.816a.275.275 0 000 .099v1.524a.275.275 0 00.24.264l1.308.225-.51.255a.214.214 0 00-.135.186v1.524a.24.24 0 00.093.168l.942.786a.688.688 0 00.567.111l1.437-.45c.199-.048.409-.035.6.039.252.109.509.204.771.285.074.025.14.07.189.132v1.029a.321.321 0 00.3.318l1.857.204a.515.515 0 00.477-.258l.366-.717a.65.65 0 01.48-.3 9.98 9.98 0 00.954-.117.938.938 0 01.6.117l.993.66a.678.678 0 00.579.06l1.479-.6a.208.208 0 00.107-.075.208.208 0 00.043-.123v-1.524a.244.244 0 00-.075-.162l-.084-.093a.808.808 0 01.405-.126l1.689.069a.45.45 0 00.26-.083.447.447 0 00.166-.217l.255-.816a.362.362 0 000-.093v-1.518a.273.273 0 00-.064-.185.273.273 0 00-.17-.097l-1.308-.222.51-.258a.2.2 0 00.094-.073.2.2 0 00.038-.113v-1.515a.226.226 0 00-.09-.177l-.945-.783a.65.65 0 00-.269-.121.653.653 0 00-.295.007l-1.44.453c-.2.047-.409.032-.6-.042a7.7 7.7 0 00-.78-.279zm-6.129 3.822a2.783 2.783 0 011.263-.9c1.599-.642 3.798-.411 4.908.513.143.115.269.249.375.399a2.734 2.734 0 01-1.263.915c-1.599.642-3.798.411-4.908-.513a1.943 1.943 0 01-.375-.414z" fill="#459AE9"/><path opacity=".2" d="M112.85 103.179a.397.397 0 01-.276-.417l.084-.702a.317.317 0 00-.012-.13.315.315 0 00-.163-.195.32.32 0 00-.125-.035l-1.845-.192a.506.506 0 00-.275.061.504.504 0 00-.202.197l-.369.714a.637.637 0 01-.477.3c-.321.024-.642.066-.957.12a.932.932 0 01-.6-.12l-.996-.66a.7.7 0 00-.576-.06l-1.479.6a.21.21 0 00-.15.189v1.518a.252.252 0 00.072.168l.087.09a.767.767 0 01-.405.126l-1.689-.066a.451.451 0 00-.426.3l-.255.816a.275.275 0 000 .099v1.524a.275.275 0 00.24.264l1.308.225-.51.255a.214.214 0 00-.135.186v1.524a.24.24 0 00.093.168l.942.786a.688.688 0 00.567.111l1.437-.45c.199-.048.409-.035.6.039.252.109.509.204.771.285.074.025.14.07.189.132v1.029a.321.321 0 00.3.318l1.857.204a.515.515 0 00.477-.258l.366-.717a.65.65 0 01.48-.3 9.98 9.98 0 00.954-.117.938.938 0 01.6.117l.993.66a.678.678 0 00.579.06l1.479-.6a.208.208 0 00.107-.075.208.208 0 00.043-.123v-1.524a.244.244 0 00-.075-.162l-.084-.093a.808.808 0 01.405-.126l1.689.069a.45.45 0 00.26-.083.447.447 0 00.166-.217l.255-.816a.362.362 0 000-.093v-1.518a.273.273 0 00-.064-.185.273.273 0 00-.17-.097l-1.308-.222.51-.258a.2.2 0 00.094-.073.2.2 0 00.038-.113v-1.515a.226.226 0 00-.09-.177l-.945-.783a.65.65 0 00-.269-.121.653.653 0 00-.295.007l-1.44.453c-.2.047-.409.032-.6-.042a7.7 7.7 0 00-.78-.279zm-6.129 3.822a2.783 2.783 0 011.263-.9c1.599-.642 3.798-.411 4.908.513.143.115.269.249.375.399a2.734 2.734 0 01-1.263.915c-1.599.642-3.798.411-4.908-.513a1.943 1.943 0 01-.375-.414z" fill="#fff"/><path opacity=".1" d="M104.054 106.83a.568.568 0 00-.393-.375l-1.605-.273a.274.274 0 01-.237-.252v1.5a.275.275 0 00.237.264l1.308.225.678-.339a.325.325 0 00.158-.189.315.315 0 00-.023-.246 1.887 1.887 0 01-.123-.315zm.393-2.451c.003.062.029.12.072.165l.087.093a.776.776 0 00.141-.108 3.27 3.27 0 01.402-.36.301.301 0 00.042-.432l-.672-.714a.247.247 0 01-.072-.162v1.518zm3.528.192c-1.383.552-1.869 1.572-1.26 2.433a2.724 2.724 0 011.257-.915c1.602-.639 3.801-.411 4.911.513.143.115.269.249.375.399.426-.6.327-1.335-.372-1.92-1.104-.924-3.3-1.152-4.911-.51z" fill="#000"/><path d="M110.462 109.827a.521.521 0 00-.153.177l-.369.717a.515.515 0 01-.273.228v1.521a.5.5 0 00.273-.228l.369-.717a.5.5 0 01.156-.174l-.003-1.524zm5.079-.201a.206.206 0 01-.044.124.206.206 0 01-.109.074l-1.473.6a.665.665 0 01-.39 0v1.521a.672.672 0 00.387-.015l1.479-.6a.214.214 0 00.107-.075.212.212 0 00.046-.123l-.003-1.506zm-9.801-.639l-1.419.447a.637.637 0 01-.357 0v1.515c.116.034.24.034.357 0l1.419-.444v-1.518zm12.432-2.4a.34.34 0 01-.015.09l-.255.816a.452.452 0 01-.426.3l-1.686-.066a.7.7 0 00-.264.051v1.521a.65.65 0 01.261-.054l1.689.069a.457.457 0 00.426-.3l.255-.816a.267.267 0 00.015-.093v-1.518zm-.9-2.46a.434.434 0 010 .051.186.186 0 01-.051.078.646.646 0 01-.075.054l-1.185.6a.176.176 0 00-.072.051.268.268 0 00-.081.123.6.6 0 00-.018.18.385.385 0 00.027.081c.048.103.088.209.12.318a.545.545 0 00.393.378l.3.048.51-.252a.214.214 0 00.132-.189v-1.521z" fill="#459AE9"/><path opacity=".7" d="M110.462 109.827a.521.521 0 00-.153.177l-.369.717a.515.515 0 01-.273.228v1.521a.5.5 0 00.273-.228l.369-.717a.5.5 0 01.156-.174l-.003-1.524zm5.079-.201a.206.206 0 01-.044.124.206.206 0 01-.109.074l-1.473.6a.665.665 0 01-.39 0v1.521a.672.672 0 00.387-.015l1.479-.6a.214.214 0 00.107-.075.212.212 0 00.046-.123l-.003-1.506zm-9.801-.639l-1.419.447a.637.637 0 01-.357 0v1.515c.116.034.24.034.357 0l1.419-.444v-1.518zm12.432-2.4a.34.34 0 01-.015.09l-.255.816a.452.452 0 01-.426.3l-1.686-.066a.7.7 0 00-.264.051v1.521a.65.65 0 01.261-.054l1.689.069a.457.457 0 00.426-.3l.255-.816a.267.267 0 00.015-.093v-1.518zm-.9-2.46a.434.434 0 010 .051.186.186 0 01-.051.078.646.646 0 01-.075.054l-1.185.6a.176.176 0 00-.072.051.268.268 0 00-.081.123.6.6 0 00-.018.18.385.385 0 00.027.081c.048.103.088.209.12.318a.545.545 0 00.393.378l.3.048.51-.252a.214.214 0 00.132-.189v-1.521z" fill="#fff"/><path d="M115.667 103.053l-1.437.45c-.2.047-.409.032-.6-.042a7.51 7.51 0 00-.768-.282.395.395 0 01-.276-.417l.084-.702a.317.317 0 00-.012-.13.315.315 0 00-.163-.195.32.32 0 00-.125-.035l-1.845-.192a.506.506 0 00-.275.061.504.504 0 00-.202.197l-.369.714a.637.637 0 01-.477.3c-.321.024-.642.066-.957.12a.932.932 0 01-.6-.12l-.996-.66a.7.7 0 00-.576-.06l-1.479.6a.218.218 0 00-.097.057.21.21 0 00-.045.211.198.198 0 00.064.092l.669.714a.33.33 0 01.059.105.306.306 0 01-.101.327c-.143.11-.277.23-.402.36a.827.827 0 01-.546.231l-1.689-.066a.451.451 0 00-.426.3l-.255.816c-.014.039-.019.081-.014.122a.285.285 0 00.124.204.282.282 0 00.115.043l1.605.273a.56.56 0 01.393.378c.031.109.071.216.12.318a.315.315 0 01.023.246.328.328 0 01-.158.189l-1.185.6a.203.203 0 00-.092.063.198.198 0 00.05.294l.942.786a.676.676 0 00.567.111l1.437-.45c.199-.048.408-.034.6.039.25.109.507.205.768.285a.397.397 0 01.276.417l-.084.702a.324.324 0 00.3.36l1.845.192a.518.518 0 00.477-.258l.369-.717a.644.644 0 01.477-.3c.321-.024.642-.063.957-.117a.9.9 0 01.6.12l.993.657a.678.678 0 00.579.06l1.479-.6a.21.21 0 00.149-.156.205.205 0 00-.071-.204l-.669-.714a.284.284 0 01-.081-.226.29.29 0 01.123-.206c.141-.111.276-.232.402-.36a.84.84 0 01.546-.234l1.689.069a.454.454 0 00.426-.3l.255-.816c.014-.039.019-.081.014-.122a.28.28 0 00-.239-.247l-1.605-.273a.555.555 0 01-.393-.378 2.257 2.257 0 00-.12-.318.315.315 0 01-.023-.246.313.313 0 01.158-.189l1.185-.6a.203.203 0 00.092-.063.194.194 0 00.043-.102.207.207 0 00-.018-.11.204.204 0 00-.075-.082l-.945-.783a.65.65 0 00-.564-.111zm-2.775 2.028c1.11.924.714 2.193-.9 2.835-1.614.642-3.798.411-4.908-.513-1.11-.924-.714-2.193.9-2.835 1.614-.642 3.798-.411 4.908.513z" fill="#459AE9"/><g opacity=".55" fill="#fff"><path d="M115.667 103.053l-1.437.45c-.2.047-.409.032-.6-.042a7.51 7.51 0 00-.768-.282.395.395 0 01-.276-.417l.084-.702a.317.317 0 00-.012-.13.315.315 0 00-.163-.195.32.32 0 00-.125-.035l-1.845-.192a.506.506 0 00-.275.061.504.504 0 00-.202.197l-.369.714a.637.637 0 01-.477.3c-.321.024-.642.066-.957.12a.932.932 0 01-.6-.12l-.996-.66a.7.7 0 00-.576-.06l-1.479.6a.218.218 0 00-.097.057.21.21 0 00-.045.211.198.198 0 00.064.092l.669.714a.33.33 0 01.059.105.306.306 0 01-.101.327c-.143.11-.277.23-.402.36a.827.827 0 01-.546.231l-1.689-.066a.451.451 0 00-.426.3l-.255.816c-.014.039-.019.081-.014.122a.285.285 0 00.124.204.282.282 0 00.115.043l1.605.273a.56.56 0 01.393.378c.031.109.071.216.12.318a.315.315 0 01.023.246.328.328 0 01-.158.189l-1.185.6a.203.203 0 00-.092.063.198.198 0 00.05.294l.942.786a.676.676 0 00.567.111l1.437-.45c.199-.048.408-.034.6.039.25.109.507.205.768.285a.397.397 0 01.276.417l-.084.702a.324.324 0 00.3.36l1.845.192a.518.518 0 00.477-.258l.369-.717a.644.644 0 01.477-.3c.321-.024.642-.063.957-.117a.9.9 0 01.6.12l.993.657a.678.678 0 00.579.06l1.479-.6a.21.21 0 00.149-.156.205.205 0 00-.071-.204l-.669-.714a.284.284 0 01-.081-.226.29.29 0 01.123-.206c.141-.111.276-.232.402-.36a.84.84 0 01.546-.234l1.689.069a.454.454 0 00.426-.3l.255-.816c.014-.039.019-.081.014-.122a.28.28 0 00-.239-.247l-1.605-.273a.555.555 0 01-.393-.378 2.257 2.257 0 00-.12-.318.315.315 0 01-.023-.246.313.313 0 01.158-.189l1.185-.6a.203.203 0 00.092-.063.194.194 0 00.043-.102.207.207 0 00-.018-.11.204.204 0 00-.075-.082l-.945-.783a.65.65 0 00-.564-.111zm-2.775 2.028c1.11.924.714 2.193-.9 2.835-1.614.642-3.798.411-4.908-.513-1.11-.924-.714-2.193.9-2.835 1.614-.642 3.798-.411 4.908.513z"/><path d="M109.502 111.111h-.051l-1.848-.192a.468.468 0 01-.3-.168.47.47 0 01-.096-.339l.087-.699a.277.277 0 00-.189-.279 7.89 7.89 0 01-.783-.3.885.885 0 00-.519-.036l-1.437.45a.792.792 0 01-.687-.135l-.942-.786a.349.349 0 01-.141-.3.35.35 0 01.204-.267l1.185-.6a.194.194 0 00.095-.116c.007-.024.009-.05.007-.075a.185.185 0 00-.024-.073 2.53 2.53 0 01-.129-.336.412.412 0 00-.3-.3l-1.605-.276a.399.399 0 01-.29-.19.4.4 0 01-.037-.344l.255-.816a.578.578 0 01.555-.39l1.686.066a.702.702 0 00.45-.192c.129-.135.269-.259.417-.372a.169.169 0 00.049-.054.188.188 0 00.023-.069.161.161 0 00-.045-.12l-.672-.711a.366.366 0 01-.102-.324.356.356 0 01.228-.246l1.479-.6a.84.84 0 01.696.072l.993.66c.153.086.33.122.504.102.3-.057.639-.096.969-.123a.522.522 0 00.372-.24l.369-.717a.645.645 0 01.6-.327l1.848.192a.453.453 0 01.396.504l-.087.702a.285.285 0 00.186.279c.267.084.528.184.783.3a.903.903 0 00.522.036l1.437-.453a.806.806 0 01.687.138l.942.783a.338.338 0 01.138.3.351.351 0 01-.204.267l-1.2.6a.198.198 0 00-.075.267c.051.109.094.221.129.336a.42.42 0 00.3.285l1.605.276a.406.406 0 01.3.189.406.406 0 01.039.345l-.255.816a.573.573 0 01-.555.39l-1.689-.051a.705.705 0 00-.45.195c-.13.134-.269.258-.417.372a.181.181 0 00-.072.123.153.153 0 00.045.117l.672.714a.34.34 0 01.103.322.346.346 0 01-.081.155.343.343 0 01-.148.093l-1.479.6a.828.828 0 01-.696-.072l-.987-.669a.818.818 0 00-.501-.099c-.315.054-.642.096-.969.12a.511.511 0 00-.372.243l-.369.717a.654.654 0 01-.552.33zm-3.513-2.286a1.12 1.12 0 01.432.081c.237.102.492.195.756.279a.533.533 0 01.366.555l-.084.702a.191.191 0 00.098.193c.023.013.048.02.073.023l1.848.192a.399.399 0 00.2-.047.403.403 0 00.148-.142l.366-.714a.784.784 0 01.585-.384c.318-.024.636-.063.942-.117.239-.032.482.018.69.141l.993.66a.594.594 0 00.459.045l1.479-.6a.1.1 0 00.043-.023.103.103 0 00.029-.04.116.116 0 00-.01-.049.1.1 0 00-.029-.041l-.669-.711a.403.403 0 01-.063-.483.424.424 0 01.117-.132c.138-.107.268-.224.39-.348a.997.997 0 01.645-.273l1.689.069a.3.3 0 00.3-.21l.255-.816a.139.139 0 00.01-.067.143.143 0 00-.069-.112.133.133 0 00-.064-.022l-1.605-.276a.666.666 0 01-.495-.468 2.313 2.313 0 00-.114-.3.446.446 0 01-.025-.34.446.446 0 01.22-.26l1.185-.6c.036-.018.06-.042.063-.066.003-.024-.015-.051-.048-.078l-.942-.783a.536.536 0 00-.444-.087l-1.437.45a1.148 1.148 0 01-.702-.045 6.78 6.78 0 00-.756-.279.533.533 0 01-.366-.555l.084-.702a.186.186 0 00-.098-.193.184.184 0 00-.073-.023l-1.848-.192a.389.389 0 00-.348.186l-.366.717a.768.768 0 01-.585.381 10.49 10.49 0 00-.942.117 1.054 1.054 0 01-.69-.138l-.993-.66a.591.591 0 00-.459-.048l-1.479.6a.1.1 0 00-.043.023.114.114 0 00-.029.04c0 .017.004.034.01.049a.133.133 0 00.029.041l.657.705a.403.403 0 01.062.482.436.436 0 01-.116.133c-.139.107-.27.223-.393.348a.958.958 0 01-.642.27l-1.689-.066a.324.324 0 00-.3.207l-.255.816a.147.147 0 00.059.181c.019.013.041.02.064.023l1.605.276a.675.675 0 01.495.465c.03.103.068.203.114.3a.446.446 0 01-.195.6l-1.185.6c-.036.018-.06.042-.063.063-.003.021 0 .051.048.078l.942.786a.534.534 0 00.444.087l1.437-.45a.954.954 0 01.282-.024zm4.014-.417c-1.149 0-2.286-.318-3-.9a1.586 1.586 0 01-.66-1.464c.102-.648.681-1.227 1.584-1.59 1.638-.654 3.9-.414 5.04.534a1.596 1.596 0 01.66 1.464c-.102.648-.681 1.23-1.584 1.59a5.533 5.533 0 01-2.04.366zm0-4.074a5.349 5.349 0 00-1.962.354c-.819.327-1.338.834-1.425 1.392a1.322 1.322 0 00.57 1.224c1.077.9 3.222 1.116 4.779.492.816-.327 1.335-.834 1.425-1.389a1.324 1.324 0 00-.57-1.227c-.672-.549-1.74-.846-2.826-.846h.009z"/></g><path d="M81.434 50.367c.039 0 .11 0 .153.147v.042a.981.981 0 010 .126v18.18a1.673 1.673 0 01-.732 1.269L50.009 87.936a.799.799 0 01-.15.066.353.353 0 01-.09.015c-.147 0-.171-.198-.171-.315v-18.18a1.53 1.53 0 01.222-.723 1.46 1.46 0 01.51-.543l30.864-17.805a.527.527 0 01.24-.081m0-.321a.827.827 0 00-.4.12L50.169 67.971c-.264.162-.48.392-.627.666-.162.267-.253.57-.264.882v18.18c0 .405.198.639.492.639a.57.57 0 00.183-.03l-.1.036a1.4 1.4 0 00.316-.129L81.035 70.41a1.986 1.986 0 00.9-1.548v-18.18a.669.669 0 00-.027-.255.47.47 0 00-.465-.381l-.01.003z" fill="#E0E0E0"/><path d="M86.53 53.349a1.97 1.97 0 00-.9-1.548l-.728-.42a1.97 1.97 0 00-1.785 0L52.259 69.183a1.98 1.98 0 00-.9 1.548v18.18a1.981 1.981 0 00.9 1.551l.729.42a1.978 1.978 0 001.8 0l30.86-17.805a1.971 1.971 0 00.9-1.548l-.017-18.18z" fill="#FAFAFA"/><path d="M84.017 51.489c.254-.005.506.054.732.171l.726.42a1.645 1.645 0 01.732 1.269v18.18a1.64 1.64 0 01-.732 1.269L54.614 90.6a1.525 1.525 0 01-.732.171 1.5 1.5 0 01-.732-.171l-.73-.42a1.646 1.646 0 01-.731-1.269v-18.18a1.647 1.647 0 01.732-1.266L83.28 51.66a1.53 1.53 0 01.736-.171zm0-.321a1.8 1.8 0 00-.9.213L52.259 69.183a1.98 1.98 0 00-.9 1.548v18.18a1.981 1.981 0 00.9 1.551l.729.42a1.983 1.983 0 001.8 0l30.86-17.805a1.971 1.971 0 00.9-1.548v-18.18a1.97 1.97 0 00-.9-1.548l-.728-.42a1.8 1.8 0 00-.9-.213h-.003z" fill="#E0E0E0"/><path d="M51.365 88.914a1.98 1.98 0 00.9 1.548l.729.42a2.015 2.015 0 001.635.072c-.42.159-.741-.078-.741-.6v-18.18c.01-.312.1-.615.26-.882l-2.513-1.452a1.818 1.818 0 00-.264.879l-.006 18.195z" fill="#E0E0E0"/><path d="M86.5 53.1c-.101-.378-.45-.498-.86-.261L54.776 70.638a1.78 1.78 0 00-.63.666l-2.514-1.452a1.8 1.8 0 01.627-.666l30.86-17.805a1.995 1.995 0 011.8 0l.733.423A1.965 1.965 0 0186.5 53.1z" fill="#F0F0F0"/><path d="M62.027 69.486c3.348-1.932 6.048-.366 6.048 3.495s-2.7 8.553-6.054 10.482c-3.354 1.929-6.054.366-6.054-3.492s2.718-8.556 6.06-10.485z" fill="#E0E0E0"/><path d="M66.203 74.064a.742.742 0 00-1.017-.273l-2.4 1.392v-3.417a.75.75 0 00-1.5 0v4.278l-3.159 1.824a.747.747 0 00.372 1.392c.13 0 .26-.035.372-.102l2.415-1.392v3.417a.75.75 0 101.5 0v-4.278l3.156-1.824a.74.74 0 00.261-1.017z" fill="#FAFAFA"/><path d="M81.434 18.867c.039 0 .11 0 .153.147v.039a.926.926 0 010 .129v18.18a1.678 1.678 0 01-.732 1.269L50.009 56.433a.799.799 0 01-.15.066.258.258 0 01-.09.015c-.147 0-.171-.195-.171-.3v-18.18a1.52 1.52 0 01.222-.723 1.5 1.5 0 01.51-.546l30.864-17.82a.519.519 0 01.24-.078zm0-.324a.8.8 0 00-.4.123L50.169 36.471c-.264.162-.48.392-.627.666-.162.267-.253.57-.264.882v18.18c0 .402.198.636.492.636a.67.67 0 00.183-.027l-.1.033c.11-.03.216-.072.316-.126L81.035 38.91a1.986 1.986 0 00.9-1.548v-18.18a.669.669 0 00-.027-.255.474.474 0 00-.465-.384h-.01z" fill="#459AE9"/><path d="M81.434 18.867c.039 0 .11 0 .153.147v.039a.926.926 0 010 .129v18.18a1.678 1.678 0 01-.732 1.269L50.009 56.433a.799.799 0 01-.15.066.258.258 0 01-.09.015c-.147 0-.171-.195-.171-.3v-18.18a1.52 1.52 0 01.222-.723 1.5 1.5 0 01.51-.546l30.864-17.82a.519.519 0 01.24-.078zm0-.324a.8.8 0 00-.4.123L50.169 36.471c-.264.162-.48.392-.627.666-.162.267-.253.57-.264.882v18.18c0 .402.198.636.492.636a.67.67 0 00.183-.027l-.1.033c.11-.03.216-.072.316-.126L81.035 38.91a1.986 1.986 0 00.9-1.548v-18.18a.669.669 0 00-.027-.255.474.474 0 00-.465-.384h-.01z" fill="#fff" opacity=".5"/><path d="M53.885 59.427a1.638 1.638 0 01-.813-.192l-.73-.42a1.836 1.836 0 01-.812-1.407v-18.18a1.836 1.836 0 01.813-1.41l30.864-17.802a1.818 1.818 0 011.626 0l.726.42a1.83 1.83 0 01.813 1.41v18.18a1.827 1.827 0 01-.813 1.407L54.698 59.235c-.25.134-.53.2-.813.192z" fill="#FAFAFA"/><path d="M84.02 19.986c.254-.005.506.054.732.171l.726.42a1.637 1.637 0 01.732 1.269v18.18a1.64 1.64 0 01-.735 1.266L54.617 59.1a1.5 1.5 0 01-.732.171 1.525 1.525 0 01-.732-.171l-.73-.42a1.651 1.651 0 01-.731-1.269v-18.18a1.648 1.648 0 01.732-1.269l30.864-17.805a1.5 1.5 0 01.732-.171zm0-.324a1.84 1.84 0 00-.9.213L52.265 37.68a1.97 1.97 0 00-.9 1.548v18.18a1.972 1.972 0 00.9 1.548l.726.42a1.983 1.983 0 001.8 0l30.86-17.802a1.97 1.97 0 00.9-1.548v-18.18a1.976 1.976 0 00-.9-1.551l-.725-.42a1.848 1.848 0 00-.9-.213h-.006z" fill="#459AE9"/><path d="M51.37 57.408a1.97 1.97 0 00.9 1.548l.727.42a2 2 0 001.635.072c-.42.159-.741-.078-.741-.6V40.68c.01-.311.1-.615.26-.882l-2.513-1.452c-.16.267-.25.57-.261.882l-.006 18.18z" fill="#459AE9"/><path d="M86.504 21.6c-.102-.381-.45-.501-.861-.264L54.779 39.132a1.763 1.763 0 00-.63.669l-2.514-1.452a1.79 1.79 0 01.63-.669l30.858-17.802a1.982 1.982 0 011.8 0l.729.42a1.97 1.97 0 01.852 1.302z" fill="#459AE9"/><path opacity=".4" d="M86.504 21.6c-.102-.381-.45-.501-.861-.264L54.779 39.132a1.764 1.764 0 00-.63.669l-2.517-1.455a1.83 1.83 0 01.633-.666l30.858-17.802a1.983 1.983 0 011.8 0l.729.42a1.97 1.97 0 01.852 1.302z" fill="#fff"/><path d="M69.128 40.92c0 2.13-.741 4.485-1.944 6.579-.19.333-.393.66-.6.978-.207.318-.435.624-.666.921a14.1 14.1 0 01-.636.765c-.102.114-.207.231-.3.342a11.653 11.653 0 01-2.56 2.061c-.445.26-.915.475-1.403.642a4.05 4.05 0 01-.462.129 4.035 4.035 0 01-2.4-.072c-1.5-.555-2.457-2.163-2.46-4.581 0-4.287 3-9.501 6.726-11.646 3.726-2.145 6.705-.405 6.705 3.882z" fill="#FAFAFA"/><path d="M67.337 47.232c-.054.093-.1.18-.15.267-.105.183-.213.363-.327.54-.114.177-.186.3-.282.438-.213.318-.435.624-.666.921l-.063.078-.36-1.998a4.749 4.749 0 011.848-.246z" fill="#263238"/><path d="M66.875 48.039c-.09.144-.186.3-.282.438-.213.318-.435.624-.666.921l-.063.078c-.186.237-.375.468-.573.687l-.3.342a11.56 11.56 0 01-2.562 2.064 7.855 7.855 0 01-1.401.639c-.156.051-.3.096-.465.132-.573.15-1.17.18-1.755.09a3.162 3.162 0 01-1.395-.561c.075-.558.225-.993.468-1.2.9-.699 1.392-1.14 1.833-1.461a6.669 6.669 0 013.3-2.1c.804-.21 1.608-.444 2.514-.645a1.347 1.347 0 011.347.576z" fill="#37474F"/><path d="M59.828 40.713c-.88 1.452-.535 3.093-.139 4.422.46 1.5.645 2.076 1.155 2.265-.398-5.019 1.35.516 4.74-4.386.6-.885.724-3.195-.099-3.984-1.16-1.116-3.935-1.074-5.657 1.683z" fill="#E0E0E0"/><path d="M59.624 46.569c.507.24.933-.453.933-.453l.252 3.33s0 .432.879.735c.579.198 1.779.081 2.46.672.3-.636.519-1.731-.123-2.439l-.051-1.014c.342-.084.674-.205.99-.36.468-.27.777-.732.939-1.542.258-1.305.135-3.129-.348-5.4-.708-.438-2.976.042-4.395 1.458.114 1.386-.21 2.1-.192 2.604a1.828 1.828 0 01-.252.465c-.22.279-.42-.252-.618-.432s-.825-.33-1.107.492c-.282.822.192 1.68.633 1.884z" fill="#FFC4C3"/><path d="M63.974 47.4c-.6.138-1.74.09-2.187-.264a3.373 3.373 0 01-.741-.879 2.1 2.1 0 00.657 1.215c.915.72 2.3.429 2.3.429l-.03-.501z" fill="#FFA8A7"/><path d="M62.765 42.369l-.6.579a.51.51 0 01.096-.6.3.3 0 01.504.021zm2.655-.726l-.708-.042a.435.435 0 01.42-.39.344.344 0 01.288.432z" fill="#E0E0E0"/><path d="M62.516 43.395a.243.243 0 00.3.246.417.417 0 00.27-.414.243.243 0 00-.3-.246.424.424 0 00-.27.414zm2.259-.771a.24.24 0 00.3.243.408.408 0 00.27-.414.242.242 0 00-.189-.247.242.242 0 00-.111.001.42.42 0 00-.27.417z" fill="#455A64"/><path d="M63.65 42.678l.423 1.947.954-.681c-.37-.567-.963-1.146-1.377-1.266z" fill="#FFA8A7"/><path d="M63.31 45.3l1.045.054a.5.5 0 01-.525.477.528.528 0 01-.52-.531z" fill="#B16668"/><path d="M63.83 45.825a.519.519 0 00.258-.057.626.626 0 00-.76-.327.555.555 0 00.502.384z" fill="#F28F8F"/><path d="M64.148 50.853c-.378-.153-1.371-.363-1.452-.06-.054.216-.216.984-.495 1.041a2.543 2.543 0 01-2.052-.768 1.552 1.552 0 01-.46-.846s.33-.855.535-1.26c.204-.405.258-.642.489-.723l.06.699c.165.271.402.492.684.639.672.342 2.013.549 2.69 1.278z" fill="#263238"/><path d="M64.148 50.853c.204-.3.543-1.332.72-1.341.369-.021.618.213.618 0s-.273-.6-.6-1.158c-.252-.42-.657-.714-.9-.693l.057.969c.11.252.175.52.192.795.073.477.043.964-.087 1.428zm-5.373 2.577a3.156 3.156 0 01-1.848-.957c.289-.285.596-.55.92-.795.441.504.759 1.104.928 1.752z" fill="#263238"/><path d="M65.408 36.492c2.064 0 3.348 1.698 3.348 4.428 0 1.995-.672 4.266-1.896 6.396-.183.321-.381.642-.6.954-.22.312-.43.6-.654.9-.225.3-.417.519-.621.747l-.3.333c-.727.779-1.56 1.45-2.475 1.995a7.37 7.37 0 01-1.332.6c-.15.048-.3.09-.438.123a4.391 4.391 0 01-1.05.135 3.235 3.235 0 01-1.131-.195c-1.407-.522-2.217-2.064-2.217-4.233 0-4.164 2.934-9.243 6.54-11.322a5.766 5.766 0 012.817-.87m0-.372a6.074 6.074 0 00-3 .918c-3.717 2.145-6.726 7.359-6.726 11.646 0 2.418.957 4.026 2.46 4.581a3.6 3.6 0 001.26.219 4.705 4.705 0 001.14-.147c.15-.033.3-.078.462-.129a7.807 7.807 0 001.404-.642 11.656 11.656 0 002.559-2.061c.105-.111.21-.228.3-.342a15.913 15.913 0 001.302-1.686c.213-.321.417-.645.6-.978 1.2-2.1 1.944-4.449 1.944-6.579 0-3.042-1.5-4.8-3.72-4.8h.015zM75.506 34.5l7.869-4.545c.18-.102.324-.03.324.165a.695.695 0 01-.324.54l-7.881 4.548c-.18.105-.324.03-.324-.162a.693.693 0 01.336-.546z" fill="#459AE9"/><path d="M73.964 37.656a.152.152 0 01-.132-.075.153.153 0 01.057-.204l10.968-6.333a.15.15 0 01.15.261l-10.968 6.333a.171.171 0 01-.075.018zm0 1.407a.152.152 0 01-.132-.075.153.153 0 01.057-.204l10.968-6.333a.153.153 0 01.204.057.15.15 0 01-.054.204l-10.968 6.333a.171.171 0 01-.075.018zm0 1.407a.152.152 0 01-.132-.075.153.153 0 01.057-.204l10.968-6.333a.153.153 0 01.204.057.15.15 0 01-.054.204l-10.968 6.333a.171.171 0 01-.075.018zm0 1.41a.152.152 0 01-.132-.075.156.156 0 01.057-.207l10.968-6.33a.15.15 0 01.204.054.15.15 0 01-.054.204l-10.968 6.333a.177.177 0 01-.075.021z" fill="#E0E0E0"/><path d="M42.491 41.325c.039 0 .114 0 .153.144v.042a.926.926 0 010 .129v18.18a1.674 1.674 0 01-.732 1.266L11.075 78.9a.76.76 0 01-.147.066.258.258 0 01-.09.015c-.147 0-.168-.195-.168-.3v-18.18a1.5 1.5 0 01.222-.723 1.43 1.43 0 01.51-.546L42.251 41.4a.528.528 0 01.24-.078m0-.324a.8.8 0 00-.399.123L11.228 58.929a1.779 1.779 0 00-.63.666c-.162.267-.253.57-.264.882v18.18c0 .402.201.636.492.636a.68.68 0 00.183-.027l-.099.033c.11-.03.217-.072.318-.126l30.864-17.805a1.98 1.98 0 00.9-1.548V41.64a.6.6 0 00-.03-.255.474.474 0 00-.465-.384l-.006-.003z" fill="#459AE9"/><path d="M42.491 41.325c.039 0 .114 0 .153.144v.042a.926.926 0 010 .129v18.18a1.674 1.674 0 01-.732 1.266L11.075 78.9a.76.76 0 01-.147.066.258.258 0 01-.09.015c-.147 0-.168-.195-.168-.3v-18.18a1.5 1.5 0 01.222-.723 1.43 1.43 0 01.51-.546L42.251 41.4a.528.528 0 01.24-.078m0-.324a.8.8 0 00-.399.123L11.228 58.929a1.779 1.779 0 00-.63.666c-.162.267-.253.57-.264.882v18.18c0 .402.201.636.492.636a.68.68 0 00.183-.027l-.099.033c.11-.03.217-.072.318-.126l30.864-17.805a1.98 1.98 0 00.9-1.548V41.64a.6.6 0 00-.03-.255.474.474 0 00-.465-.384l-.006-.003z" fill="#fff" opacity=".5"/><path d="M14.942 81.9a1.67 1.67 0 01-.813-.192l-.73-.42a1.83 1.83 0 01-.812-1.41v-18.18a1.827 1.827 0 01.813-1.407l30.864-17.805c.25-.133.53-.199.813-.192.283-.006.563.06.813.192l.726.42a1.83 1.83 0 01.813 1.41v18.18a1.818 1.818 0 01-.813 1.407L15.755 81.696c-.25.136-.53.207-.813.204z" fill="#FAFAFA"/><path d="M45.077 42.444c.254-.005.506.054.732.171l.726.42a1.637 1.637 0 01.732 1.269v18.18a1.644 1.644 0 01-.732 1.269L15.674 81.555a1.653 1.653 0 01-1.464 0l-.735-.42a1.648 1.648 0 01-.732-1.269v-18.18a1.65 1.65 0 01.732-1.269l30.87-17.802a1.5 1.5 0 01.732-.171zm0-.324a1.8 1.8 0 00-.9.216L13.319 60.138a1.978 1.978 0 00-.9 1.548v18.18a1.98 1.98 0 00.9 1.548l.729.42a1.96 1.96 0 001.8 0l30.86-17.802a1.972 1.972 0 00.9-1.548v-18.18a1.97 1.97 0 00-.9-1.548l-.725-.42a1.816 1.816 0 00-.9-.216h-.006z" fill="#459AE9"/><path d="M12.428 79.866a1.978 1.978 0 00.9 1.548l.729.42a1.989 1.989 0 001.635.072c-.42.159-.741-.078-.741-.6v-18.18c.01-.31.1-.613.26-.879l-2.513-1.452a1.8 1.8 0 00-.261.879l-.01 18.192z" fill="#459AE9"/><path d="M47.56 44.049c-.101-.378-.45-.501-.86-.261L15.836 61.593a1.755 1.755 0 00-.63.666l-2.514-1.452a1.8 1.8 0 01.63-.666L44.18 42.336a1.976 1.976 0 011.8 0l.732.42a1.978 1.978 0 01.849 1.293z" fill="#459AE9"/><path opacity=".4" d="M47.561 44.049c-.102-.378-.45-.501-.861-.261L15.836 61.593a1.755 1.755 0 00-.63.666l-2.517-1.452a1.8 1.8 0 01.633-.666L44.18 42.336a1.976 1.976 0 011.8 0l.732.42a1.979 1.979 0 01.849 1.293z" fill="#fff"/><path d="M30.194 63.399c0 2.13-.74 4.485-1.944 6.579-.188.336-.388.663-.6.981a20.62 20.62 0 01-.669.921c-.23.3-.417.519-.633.762-.102.117-.21.231-.315.342a11.51 11.51 0 01-2.559 2.061 7.568 7.568 0 01-1.4.642c-.157.051-.3.096-.466.132a4.05 4.05 0 01-2.4-.075c-1.5-.555-2.46-2.163-2.463-4.578 0-4.29 3-9.504 6.726-11.646 3.726-2.142 6.723-.42 6.723 3.879z" fill="#FAFAFA"/><path d="M28.25 69.978c-.188.336-.388.663-.6.981a20.62 20.62 0 01-.67.921l-.6-1.722c.81-.258 1.339-.372 1.87-.18z" fill="#965D4A"/><path d="M27.608 70.686c-.213.318-.438.624-.67.921-.23.297-.416.519-.632.765-.102.114-.21.231-.3.342a11.51 11.51 0 01-2.56 2.061c-.444.26-.913.475-1.4.642-.156.051-.3.093-.465.129a7.682 7.682 0 00-.723-3.171s.558-.3 1.623-.876l.033-.024c.849-.582 1.422-.48 2.982-1.146.027-.015-.192-.126-.165-.135l1.023-.3a11.6 11.6 0 011.254.792z" fill="#459AE9"/><path d="M27.497 62.211c-.972-1.2-3.132-1.8-5.589.381-2.457 2.181-2.94 6.957-.384 8.061 1.923.834 4.95.648 5.925-1.326-1.2.3-.417-2.241.198-3.528.7-1.47.414-2.892-.15-3.588z" fill="#455A64"/><path d="M27.194 67.881a2.625 2.625 0 01-.432 1.005c-.276.327-.657.507-1.284.72l.018.432v1.071s.76.9.816 1.548c-.102.117-.21.231-.315.342a7.306 7.306 0 01-3.525-1.143v-.072l.003-.732-.084-1.752v-.495a.44.44 0 01-.08.186.704.704 0 01-.262.216.766.766 0 01-.639.036.218.218 0 01-.045-.024.256.256 0 01-.069-.036.264.264 0 01-.054-.033.215.215 0 01-.042-.03 1.27 1.27 0 01-.423-1.503c.156-.369.58-.699.9-.573.321.126.36.324.498.549.138.225.79-.462.34-1.632.536-.42.965-1.302.824-1.773.231-.846 1.632-1.056 1.908-.735.231-.534.675-.846 1.122-.708.447.138.85.411.987 2.271.024.3.033.645.033.768.007.704-.058 1.406-.195 2.097z" fill="#965D4A"/><path d="M24.455 67.776l.939.027a.615.615 0 01-.6.546c-.27-.021-.384-.249-.34-.573z" fill="#783F2D"/><path d="M25.046 68.292a.407.407 0 00-.549-.336l-.048.021a.366.366 0 00.333.372.532.532 0 00.264-.057z" fill="#F28F8F"/><path d="M25.331 65.301l.216 1.836.88-.594-1.096-1.242zm.144 4.299a6.464 6.464 0 01-2.055.042c-.213-.033-.528-.366-.795-.765 0 0 .24.879.711 1.053.72.27 2.154.099 2.154.099l-.015-.429z" fill="#783F2D"/><path d="M26.855 64.482l-.672.042a.55.55 0 01.438-.393c.186-.012.291.147.234.351zm-2.223.597l-.732.486a.519.519 0 01.25-.549c.203-.135.425-.105.482.063zm2.115.159c.04.129-.066.21-.207.3-.14.09-.273.162-.3.033a.39.39 0 01.19-.399c.134-.093.281-.072.317.066z" fill="#263238"/><path d="M26.285 65.265c.064-.052.132-.097.204-.135a.738.738 0 01.21-.075.597.597 0 01.204 0v.018a1.215 1.215 0 00-.42.141 1.68 1.68 0 00-.27.18l-.09.075v-.018c.045-.07.1-.132.162-.186zm-2.205.774c-.045.159.057.162.198.15.141-.012.267-.039.3-.198.033-.159-.033-.279-.174-.267a.452.452 0 00-.324.315z" fill="#263238"/><path d="M24.554 65.718a.597.597 0 00-.204.018.651.651 0 00-.207.078c-.075.041-.146.09-.21.147v.018c.057-.03.105-.06.19-.099.073-.032.15-.056.23-.072a.868.868 0 01.267-.018h.087v-.027a.3.3 0 00-.153-.045z" fill="#263238"/><path d="M22.07 75.687c-.156.051-.3.096-.465.132a4.05 4.05 0 01-2.4-.075 2.549 2.549 0 01-.747-.6c.825-1.947 1.26-2.319 2.382-2.781.765.57 1.104 2.466 1.23 3.324z" fill="#965D4A"/><path d="M26.474 58.971c2.067 0 3.348 1.698 3.348 4.428 0 1.995-.672 4.266-1.893 6.396-.183.321-.38.645-.6.954-.219.309-.429.6-.654.9-.225.3-.414.516-.618.744-.099.114-.204.225-.3.333-.726.78-1.56 1.451-2.475 1.995a7.273 7.273 0 01-1.332.6c-.15.051-.3.09-.435.123a4.394 4.394 0 01-1.053.135 3.216 3.216 0 01-1.128-.195c-1.41-.522-2.217-2.064-2.22-4.23 0-4.164 2.934-9.246 6.54-11.325a5.775 5.775 0 012.817-.87m0-.372a6.099 6.099 0 00-3 .921c-3.714 2.142-6.726 7.356-6.726 11.646 0 2.415.96 4.023 2.463 4.578a3.57 3.57 0 001.257.219 4.847 4.847 0 001.14-.144c.153-.036.3-.081.465-.132.488-.166.957-.38 1.401-.642a11.51 11.51 0 002.56-2.061c.104-.111.212-.225.314-.342a16.885 16.885 0 001.302-1.683c.216-.321.414-.645.6-.981 1.2-2.1 1.944-4.449 1.944-6.579 0-3.042-1.5-4.8-3.72-4.8zm7.965-.345l7.88-4.542c.178-.102.325-.03.325.165a.705.705 0 01-.324.54l-7.881 4.548c-.18.105-.324.03-.327-.162a.696.696 0 01.327-.549z" fill="#459AE9"/><path d="M32.891 61.392a.15.15 0 01-.075-.279l10.96-6.333a.151.151 0 01.205.056.148.148 0 01.014.114.153.153 0 01-.07.091l-10.95 6.333a.153.153 0 01-.084.018zm0 1.407a.144.144 0 01-.129-.075.15.15 0 01.054-.204l10.96-6.333a.156.156 0 01.206.057.153.153 0 01-.057.204l-10.95 6.333a.153.153 0 01-.084.018zM32.89 64.2a.15.15 0 01-.143-.19.153.153 0 01.069-.092L43.775 57.6a.15.15 0 11.15.258L32.975 64.2a.156.156 0 01-.084 0zm0 1.416a.15.15 0 01-.143-.19.153.153 0 01.069-.092l10.959-6.33a.151.151 0 01.176 0 .149.149 0 01.055.167.149.149 0 01-.081.091l-10.95 6.333a.155.155 0 01-.084.021z" fill="#E0E0E0"/><path d="M42.491 72.825c.039 0 .114 0 .153.147v.042a.981.981 0 010 .126v18.18a1.673 1.673 0 01-.732 1.269L11.075 110.4a.993.993 0 01-.147.066.344.344 0 01-.09.015c-.147 0-.168-.198-.168-.315v-18.18a1.5 1.5 0 01.222-.723 1.43 1.43 0 01.51-.543L42.251 72.9a.537.537 0 01.24-.081m0-.321a.827.827 0 00-.399.12L11.228 90.429a1.779 1.779 0 00-.63.666c-.162.267-.253.57-.264.882v18.18c0 .405.201.639.492.639a.57.57 0 00.183-.03l-.099.036c.11-.031.217-.074.318-.129l30.864-17.805a1.98 1.98 0 00.9-1.548V73.14a.6.6 0 00-.03-.255.47.47 0 00-.465-.381l-.006-.006z" fill="#459AE9"/><path d="M42.491 72.825c.039 0 .114 0 .153.147v.042a.981.981 0 010 .126v18.18a1.673 1.673 0 01-.732 1.269L11.075 110.4a.993.993 0 01-.147.066.344.344 0 01-.09.015c-.147 0-.168-.198-.168-.315v-18.18a1.5 1.5 0 01.222-.723 1.43 1.43 0 01.51-.543L42.251 72.9a.537.537 0 01.24-.081m0-.321a.827.827 0 00-.399.12L11.228 90.429a1.779 1.779 0 00-.63.666c-.162.267-.253.57-.264.882v18.18c0 .405.201.639.492.639a.57.57 0 00.183-.03l-.099.036c.11-.031.217-.074.318-.129l30.864-17.805a1.98 1.98 0 00.9-1.548V73.14a.6.6 0 00-.03-.255.47.47 0 00-.465-.381l-.006-.006z" fill="#fff" opacity=".5"/><path d="M14.94 113.4a1.622 1.622 0 01-.814-.192l-.729-.42a1.828 1.828 0 01-.822-1.416v-18.18a1.83 1.83 0 01.813-1.41l30.87-17.802c.25-.132.53-.198.813-.192.283-.007.563.06.813.192l.73.42a1.826 1.826 0 01.812 1.407V93.99a1.827 1.827 0 01-.813 1.407l-30.86 17.802c-.25.136-.53.206-.814.201z" fill="#FAFAFA"/><path d="M45.071 73.95a1.5 1.5 0 01.735.171l.726.42a1.646 1.646 0 01.732 1.266V93.99a1.647 1.647 0 01-.732 1.266l-30.861 17.805a1.525 1.525 0 01-.732.168 1.502 1.502 0 01-.732-.168l-.732-.42a1.652 1.652 0 01-.732-1.269v-18.18a1.647 1.647 0 01.732-1.269l30.861-17.802a1.5 1.5 0 01.732-.171m0-.324a1.836 1.836 0 00-.9.213L13.316 91.644a1.98 1.98 0 00-.9 1.548v18.18a1.982 1.982 0 00.9 1.548l.729.42a1.983 1.983 0 001.8 0l30.861-17.802a1.97 1.97 0 00.9-1.548V75.807a1.97 1.97 0 00-.9-1.548l-.729-.42a1.84 1.84 0 00-.9-.213h-.009z" fill="#459AE9"/><path d="M12.422 111.372a1.98 1.98 0 00.9 1.548l.729.42a2.003 2.003 0 001.635.072c-.42.159-.741-.078-.741-.6v-18.18c.01-.311.1-.615.26-.882l-2.513-1.452c-.162.267-.253.57-.264.882l-.006 18.192z" fill="#459AE9"/><path d="M47.558 75.555c-.105-.381-.45-.501-.864-.264L15.833 93.096a1.779 1.779 0 00-.63.666l-2.514-1.449c.148-.273.364-.504.627-.669l30.861-17.805a1.994 1.994 0 011.8 0l.729.423a1.966 1.966 0 01.852 1.293z" fill="#459AE9"/><path opacity=".4" d="M47.558 75.555c-.105-.381-.45-.501-.864-.264L15.833 93.096a1.779 1.779 0 00-.63.666l-2.514-1.449c.148-.273.364-.504.627-.669l30.861-17.805a1.994 1.994 0 011.8 0l.729.423a1.966 1.966 0 01.852 1.293z" fill="#fff"/><path d="M29.807 95.052c0 2.13-.74 4.5-1.94 6.579-.19.333-.394.66-.6.978-.208.318-.436.624-.667.921a14.1 14.1 0 01-.636.765l-.3.342a11.613 11.613 0 01-2.589 2.061 7.7 7.7 0 01-1.4.642 4.05 4.05 0 01-.463.129 4.036 4.036 0 01-2.4-.072c-1.5-.558-2.46-2.163-2.46-4.581 0-4.287 3-9.501 6.723-11.646 3.723-2.145 6.732-.408 6.732 3.882z" fill="#FAFAFA"/><path d="M27.113 102.345c-.123.21-.25.42-.384.624l-.033.054a9.49 9.49 0 01-.285.423c-.1.138-.24.342-.366.513 0 0-.018.021-.024.033-.21.282-.426.552-.645.813l-.3.366-.243.264a10.57 10.57 0 01-1.758 1.26 7.752 7.752 0 01-1.401.645 4.68 4.68 0 01-.465.129 5.72 5.72 0 01-.64.117 3.91 3.91 0 01-1.163-.03 3.115 3.115 0 01-.6-.162 3.186 3.186 0 01-1.32-.921 4.384 4.384 0 01-.94-1.902c.312-.421.655-.817 1.027-1.185 1.692-1.698 2.03-3.402 1.86-5.028l6.74.252c.1 1.449.607 2.595.94 3.735z" fill="#F0997A"/><path d="M26.696 103.023c-.093.141-.186.282-.285.423-.099.141-.243.342-.366.513l-.633-1.983c1.332-.405 1.572-.234 1.953-.072a17.12 17.12 0 01-.636 1.065c-.009.018-.02.033-.033.054z" fill="#FFA8A7"/><path d="M26.41 103.446c-.12.174-.24.342-.365.513 0 0-.018.021-.024.033-.21.282-.426.552-.645.813l-.3.366-.243.264a10.57 10.57 0 01-1.758 1.26 7.755 7.755 0 01-1.401.645 4.68 4.68 0 01-.465.129 5.72 5.72 0 01-.64.117 3.91 3.91 0 01-1.163-.03v-.12c-.13-2.7.798-3.384.813-3.39.015-.006.38-.183.6-.282.435-.198 3.573-.777 3.573-.777l1.017-1.011c.537.15 1.028.43 1.43.816 0 0-.194.306-.428.654z" fill="#263238"/><path d="M20.603 95.46c-1.161.507-1.32 2.607-.975 3.651.669 2.016 2.1 1.827 2.199 2.745l2.019-1.956 1.572-1.527c.69-.669 1.74-1.146 1.929-2.268.063-.384-.048-.828-.423-.945a1.655 1.655 0 00.36-1.335c-.135-.987-1.155-1.377-1.992-1.467a4.565 4.565 0 00-2.643.642c-.906.501-1.83 1.362-2.046 2.46z" fill="#F0997A"/><path d="M21.929 102.714l-.24-1.989a.834.834 0 01-1.047.111 1.248 1.248 0 01-.426-1.653.874.874 0 011.464-.168c.51-.033.666-.849.24-1.5 0 0 .98-.948.72-2.016.9.3 2.925-.072 3.348-1.167.3.351.756.396.9 2.781.129 2.181-.28 3.06-.828 3.498a3.22 3.22 0 01-1.377.696l.06.552c.03.279.093.267.327.207l.348-.087s.468.723-1.176 1.476c-2.46 1.125-3.414.3-3.414.3l.567-.261a.76.76 0 00.534-.78z" fill="#FFC4C3"/><path d="M23.93 99.462l.9.021a.627.627 0 01-.555.522c-.25-.006-.405-.249-.345-.543z" fill="#B16668"/><path d="M23.999 99.663a.397.397 0 01.54.264.491.491 0 01-.261.078.368.368 0 01-.348-.3l.069-.042z" fill="#FFA8A7"/><path d="M26.375 96.3l-.678-.099a.45.45 0 01.453-.348.323.323 0 01.225.447zm-3.165 1.095l.618-.573a.302.302 0 00-.388-.096.3.3 0 00-.107.096.489.489 0 00-.123.573z" fill="#F0997A"/><path d="M24.77 96.927l.213 1.971.951-.729-1.164-1.242z" fill="#FFA8A7"/><path d="M25.625 97.02a.24.24 0 00.3.258.408.408 0 00.3-.381.242.242 0 00-.3-.258.403.403 0 00-.3.381zm-2.181.738a.24.24 0 00.3.258.409.409 0 00.3-.381.244.244 0 00-.3-.258.408.408 0 00-.3.381z" fill="#263238"/><path d="M24.677 101.304c-1.152.234-2.271.183-2.56-.3 0 0 .03.6.51.744.676.201 2.1-.039 2.1-.039l-.05-.405z" fill="#FFA8A7"/><path d="M20.579 107.586c-.388.048-.78.038-1.164-.03a3.312 3.312 0 01-1.425-.621c.816-2.202.95-2.379 2.232-2.889 1.053.996.549 2.907.357 3.54z" fill="#FFC4C3"/><path d="M26.09 90.624c2.064 0 3.348 1.695 3.348 4.428 0 1.995-.675 4.266-1.896 6.396-.183.321-.381.642-.6.954-.22.312-.426.6-.651.9-.225.3-.417.519-.621.747l-.3.333a11.288 11.288 0 01-2.478 1.995 7.155 7.155 0 01-1.332.6c-.147.048-.3.09-.435.123a4.375 4.375 0 01-1.05.135 3.231 3.231 0 01-1.131-.195c-1.407-.522-2.217-2.064-2.217-4.233 0-4.164 2.93-9.243 6.537-11.322.849-.53 1.82-.83 2.82-.87m0-.372a6.094 6.094 0 00-3 .918c-3.714 2.145-6.723 7.359-6.723 11.646 0 2.418.957 4.023 2.46 4.581.403.148.83.222 1.26.219a4.714 4.714 0 001.14-.147c.15-.033.3-.078.462-.129.484-.164.95-.376 1.392-.633a11.604 11.604 0 002.562-2.061l.3-.342a15.914 15.914 0 001.302-1.686c.213-.321.417-.645.6-.978 1.2-2.1 1.94-4.449 1.94-6.579 0-3.042-1.5-4.8-3.72-4.8l.025-.009zm8.352-.261l7.88-4.551c.178-.102.325-.03.325.165a.705.705 0 01-.324.54l-7.881 4.548c-.18.105-.324.03-.327-.162a.696.696 0 01.327-.54z" fill="#459AE9"/><path d="M32.89 93.135a.15.15 0 01-.143-.19.153.153 0 01.069-.092l10.959-6.333a.156.156 0 01.207.057.153.153 0 01-.057.204l-10.95 6.333a.155.155 0 01-.084.021zm0 1.407a.15.15 0 01-.143-.19.153.153 0 01.069-.092l10.959-6.33a.151.151 0 01.176 0 .149.149 0 01.055.167.149.149 0 01-.081.091l-10.95 6.333a.155.155 0 01-.084.021zm0 1.407a.15.15 0 01-.143-.19.153.153 0 01.069-.092l10.959-6.33a.15.15 0 11.15.258l-10.95 6.333a.13.13 0 01-.084.021zm0 1.407a.15.15 0 01-.143-.19.153.153 0 01.069-.092l10.959-6.33a.15.15 0 11.15.258l-10.95 6.333a.129.129 0 01-.084.021z" fill="#E0E0E0"/><path d="M125.976 38.478c0 2.664.927 5.607 2.427 8.223a20.124 20.124 0 002.385 3.33c.129.147.261.3.393.429a14.49 14.49 0 003.195 2.577 9.6 9.6 0 001.752.801c.195.063.39.12.579.165a5.1 5.1 0 003-.093c1.878-.696 3.075-2.7 3.075-5.724 0-5.361-3.762-11.88-8.4-14.559-4.638-2.679-8.406-.51-8.406 4.851z" fill="#FAFAFA"/><path d="M129.855 48.441c.114.177.231.357.357.531.126.174.3.429.456.642l.792-2.481c-1.665-.504-1.965-.3-2.439-.087.159.318.567.975.792 1.329.012.024.027.042.042.066z" fill="#B16668"/><path d="M130.212 48.972c.15.216.3.426.456.642l.033.039c.261.354.531.693.804 1.017.132.156.264.3.393.456l.3.33c.664.595 1.386 1.12 2.157 1.569a9.862 9.862 0 001.752.804c.191.064.385.118.582.162.263.065.531.114.801.147.484.058.974.045 1.455-.039v-.15c.159-3.363-.999-4.227-1.017-4.236a55.557 55.557 0 00-.753-.354c-.543-.249-4.464-.972-4.464-.972l-1.272-1.263s-1.167.318-1.8 1.02c.033.009.279.393.573.828zm7.26-9.972c1.449.633 1.65 3.255 1.215 4.563-.834 2.52-2.607 2.283-2.745 3.429-1.8-1.839-3.819-3.564-5.553-5.418-.531-.618-2.055-1.164-1.362-2.175a.734.734 0 01-1.028-.636.735.735 0 01.128-.447c.249 1.011 1.26.207.621-.552-.825-1.719 1.521-2.484 2.838-2.568 2.418-.336 5.25 1.329 5.886 3.804z" fill="#263238"/><path d="M135.812 48.057l.3-2.487s.636.627 1.311.138a1.557 1.557 0 00.531-2.064 1.08 1.08 0 00-.857-.61 1.09 1.09 0 00-.973.4c-.636-.042-.834-1.065-.3-1.878 0 0-1.227-1.2-.9-2.523-1.122.372-3.657-.087-4.185-1.458-.342.393-.927 1.089-.792 2.724-.04.352-.117.7-.231 1.035-.363 1.659.255 3.54.939 4.092a4.038 4.038 0 001.725.867l-.078.693c-.036.348-.117.333-.408.258l-.435-.111s-.6.9 1.47 1.845c3.072 1.407 4.266.39 4.266.39s-.177-.078-.708-.324a.955.955 0 01-.675-.987z" fill="#B16668"/><path d="M133.313 43.992l-1.143.027a.788.788 0 00.705.651.51.51 0 00.463-.449.51.51 0 00-.025-.229z" fill="#9A4A4D"/><path d="M133.227 44.244a.501.501 0 00-.581.14.496.496 0 00-.097.187c.097.064.21.098.327.099a.457.457 0 00.435-.387.45.45 0 00-.084-.039z" fill="#FFA8A7"/><path d="M130.254 40.056l.849-.126a.564.564 0 00-.567-.435.415.415 0 00-.272.215.426.426 0 00-.043.172.4.4 0 00.033.174zm3.96 1.344l-.777-.714a.383.383 0 01.31-.152.395.395 0 01.311.152.598.598 0 01.156.714z" fill="#263238"/><path d="M132.264 40.824l-.267 2.463-1.191-.912 1.458-1.551z" fill="#9A4A4D"/><path d="M131.195 40.938a.3.3 0 01-.372.324.51.51 0 01-.384-.477.3.3 0 01.372-.324.517.517 0 01.384.477zm2.722.924a.298.298 0 01-.227.324.3.3 0 01-.142 0 .506.506 0 01-.372-.486.297.297 0 01.36-.3.51.51 0 01.381.462z" fill="#263238"/><path d="M132.381 46.293c1.44.3 2.835.228 3.198-.357 0 0-.039.75-.639.93-.843.249-2.619-.051-2.619-.051l.06-.522z" fill="#9A4A4D"/><path d="M137.501 54.147c.485.058.975.045 1.455-.039a4.108 4.108 0 001.782-.774c-1.023-2.754-1.2-2.973-2.79-3.6-.015 0 .018 0 0 0-1.305 1.233-.69 3.621-.447 4.413z" fill="#B16668"/><path d="M130.613 32.943a7.228 7.228 0 013.522 1.086c4.5 2.601 8.175 8.952 8.175 14.157 0 2.7-1.014 4.635-2.775 5.289a4.013 4.013 0 01-1.413.243 5.58 5.58 0 01-1.314-.168 7.128 7.128 0 01-.543-.153 9.34 9.34 0 01-1.665-.762 14.06 14.06 0 01-3.096-2.496 17.313 17.313 0 01-.381-.414c-.255-.3-.513-.6-.774-.933a21.496 21.496 0 01-.816-1.125c-.261-.384-.51-.792-.738-1.2-1.527-2.661-2.367-5.499-2.367-7.995 0-3.414 1.602-5.535 4.185-5.535m0-.465c-2.757 0-4.65 2.199-4.65 6 0 2.664.927 5.607 2.427 8.223a20.124 20.124 0 002.385 3.33c.129.147.261.3.393.429a14.521 14.521 0 003.207 2.583 9.662 9.662 0 001.752.801c.195.063.39.12.579.165a6.12 6.12 0 001.425.18 4.5 4.5 0 001.575-.273c1.878-.696 3.075-2.7 3.075-5.724 0-5.361-3.762-11.88-8.4-14.559a7.6 7.6 0 00-3.753-1.149l-.015-.006z" fill="#459AE9"/><path d="M125.837 30.108c-1.308-.756-2.367-.144-2.367 1.368a5.237 5.237 0 002.367 4.104c1.308.753 2.37.141 2.37-1.368a5.227 5.227 0 00-2.37-4.104z" fill="#459AE9"/><path d="M124.475 32.058a.236.236 0 01.063-.072.235.235 0 01.18-.047.239.239 0 01.09.032l.783.453v-1.113a.245.245 0 01.415-.172.245.245 0 01.071.172V32.7l1.029.6a.243.243 0 01.112.147.236.236 0 01-.025.183.243.243 0 01-.21.123.26.26 0 01-.12-.033l-.786-.453v1.113a.245.245 0 01-.415.172.245.245 0 01-.071-.172v-1.395l-1.026-.6a.243.243 0 01-.11-.145.244.244 0 01.02-.182zM104.027 25.8c0 2.661.927 5.604 2.43 8.223.238.416.49.824.756 1.224s.544.784.834 1.152c.255.327.522.648.792.954.129.144.264.3.393.429a14.544 14.544 0 003.201 2.574 9.508 9.508 0 001.752.801c.195.066.39.12.579.165a5.034 5.034 0 003-.093c1.878-.693 3.075-2.7 3.078-5.724 0-5.361-3.765-11.877-8.4-14.556-4.635-2.679-8.415-.498-8.415 4.851z" fill="#FAFAFA"/><path d="M106.269 33.702c.063.114.123.225.186.333.129.228.264.453.408.672.144.219.231.366.351.549a19.288 19.288 0 00.912 1.248l.45-2.496c-.996-.279-1.737-.39-2.307-.306z" fill="#263238"/><path d="M106.863 34.707c.114.182.231.365.351.549a19.288 19.288 0 00.912 1.248c.231.3.471.6.717.861l.387.426a14.535 14.535 0 003.204 2.58 9.675 9.675 0 001.752.801c.195.063.387.117.579.162a5.38 5.38 0 002.196.117c.273-.04.542-.11.801-.207.335-.123.652-.29.942-.498-.093-.696-.279-1.239-.585-1.5-1.107-.846-3.843-3.783-6.399-4.446-1.008-.261-2.013-.552-3.144-.804-.6-.126-1.2.105-1.713.711zm9.062-8.79c1.38 1.749.396 3.501-.099 5.163-.573 1.884-.807 2.595-1.443 2.829.408-4.845-.828-1.749-3.507-3.087a7.444 7.444 0 01-2.553-2.61 5.855 5.855 0 00-.348-.732c-.66-.492-.9-1.347-.357-2.028a.782.782 0 01.018-1.551c-.615-.714-.432-1.8.087-2.079.3-.177.6-.108.975.093.386.241.8.433 1.233.57 1.083.3 2.04.36 3.141.624 1.431.342 2.943 1.191 2.853 2.808z" fill="#37474F"/><path d="M115.907 32.874c-.633.3-1.167-.57-1.167-.57l-.315 4.164s-.474 1.119-3.624.792c-.759-.078-2.052-1.002-.396-2.082l.063-1.269a5.936 5.936 0 01-1.236-.45c-.585-.336-.972-.9-1.173-1.926-.327-1.629-.168-3.9.435-6.759.981 1.026 3.117-.531 4.881 1.398-.483.945.213 2.7.843 3.054-.201.822-.096 1.218.141 1.305.417.153.702-.417.948-.642.246-.225 1.029-.411 1.386.618s-.237 2.109-.786 2.367z" fill="#FFA8A7"/><path d="M110.469 33.9c.747.174 2.175.114 2.736-.33.369-.31.681-.681.924-1.098a2.61 2.61 0 01-.819 1.518c-1.146.9-2.877.54-2.877.54l.036-.63z" fill="#F28F8F"/><path d="M111.978 27.621l.732.726a.63.63 0 00-.12-.75.382.382 0 00-.313-.144.38.38 0 00-.299.168zm-3.319-.906l.9-.054a.544.544 0 00-.525-.489.432.432 0 00-.31.186.43.43 0 00-.065.357zm3.63 2.19a.29.29 0 01-.027.14.303.303 0 01-.36.16.515.515 0 01-.327-.51.303.303 0 01.246-.308.296.296 0 01.141.008.516.516 0 01.327.51zm-2.814-.966a.303.303 0 01-.116.25.295.295 0 01-.271.05.522.522 0 01-.339-.519.308.308 0 01.117-.252.298.298 0 01.273-.048.52.52 0 01.336.519z" fill="#37474F"/><path d="M110.873 28.008l-.525 2.436-1.2-.855c.468-.705 1.206-1.431 1.725-1.581z" fill="#F28F8F"/><path d="M111.297 31.278l-1.302.069a.619.619 0 00.413.564c.078.028.161.04.244.036a.655.655 0 00.645-.669z" fill="#B16668"/><path d="M110.652 31.941a.6.6 0 01-.324-.072.776.776 0 01.948-.405.692.692 0 01-.624.477z" fill="#F28F8F"/><path d="M116.976 41.451a4.017 4.017 0 001.743-.705c.203-.148.393-.313.567-.495a11.691 11.691 0 00-1.152-.993 5.374 5.374 0 00-1.158 2.193z" fill="#263238"/><path d="M108.677 20.274a7.232 7.232 0 013.522 1.089c4.5 2.601 8.175 8.949 8.175 14.154 0 2.7-1.014 4.638-2.775 5.289a3.997 3.997 0 01-1.41.243 5.58 5.58 0 01-1.317-.165 6.307 6.307 0 01-.543-.156 9.111 9.111 0 01-1.665-.762 14.03 14.03 0 01-3.096-2.493c-.123-.135-.255-.276-.381-.417-.252-.3-.513-.6-.774-.933a21.496 21.496 0 01-.816-1.125c-.261-.384-.51-.789-.738-1.2-1.527-2.661-2.367-5.499-2.367-7.992 0-3.414 1.605-5.538 4.185-5.538m0-.462c-2.757 0-4.65 2.196-4.65 6 0 2.661.927 5.604 2.43 8.223.238.416.49.824.756 1.224s.544.784.834 1.152c.255.327.522.648.792.954.129.144.264.3.393.429a14.544 14.544 0 003.201 2.574 9.508 9.508 0 001.752.801c.195.066.39.12.579.165.467.116.945.177 1.425.18a4.402 4.402 0 001.572-.273c1.878-.693 3.075-2.7 3.078-5.724 0-5.361-3.765-11.877-8.4-14.556a7.617 7.617 0 00-3.762-1.155v.006z" fill="#459AE9"/><path d="M103.904 17.445c-1.308-.756-2.37-.144-2.37 1.368a5.234 5.234 0 002.37 4.101c1.308.756 2.367.144 2.367-1.365a5.237 5.237 0 00-2.367-4.104z" fill="#459AE9"/><path d="M102.545 19.395a.249.249 0 01.146-.114.238.238 0 01.184.024l.786.456v-1.113a.247.247 0 01.06-.189.246.246 0 01.181-.081.246.246 0 01.182.081.248.248 0 01.06.189v1.392l1.029.6a.243.243 0 01-.12.453.263.263 0 01-.123-.033l-.786-.453v1.11a.246.246 0 01-.06.189.25.25 0 01-.182.08.243.243 0 01-.231-.168.247.247 0 01-.01-.101v-1.398l-1.029-.6a.24.24 0 01-.111-.144.24.24 0 01.024-.18zm1.482 55.905c0 2.661.927 5.604 2.43 8.223.238.416.49.824.756 1.224s.544.784.834 1.152c.255.327.522.648.792.954.129.144.264.3.393.429a14.544 14.544 0 003.201 2.574 9.587 9.587 0 001.752.801c.195.066.39.12.579.165a5.034 5.034 0 003-.093c1.878-.693 3.075-2.7 3.078-5.724 0-5.361-3.765-11.877-8.4-14.556-4.635-2.679-8.415-.504-8.415 4.851z" fill="#FAFAFA"/><path d="M116.954 79.047c-.045.618-.246 1.734.48 2.655.726.921.9 2.031.126 2.844-.774.813-.363 1.2.144 1.893.507.693.471 1.926-.66 2.019-1.131.093-8.028-3.132-8.739-3.951-.711-.819-1.023-1.539-.57-2.259.453-.72 1.2-.954 1.2-2.067 0-1.113-.9-1.905-.519-2.637s8.538 1.503 8.538 1.503z" fill="#455A64"/><path d="M107.918 85.269c.117.177.231.354.357.528.126.174.3.429.456.642l.792-2.481c-1.665-.504-1.965-.3-2.439-.087.159.321.567.975.792 1.329l.042.069z" fill="#459AE9"/><path d="M108.275 85.8l.456.639c0 .015.024.027.033.042.261.351.531.69.804 1.014l.393.459c.102.108.201.219.3.33.667.593 1.39 1.118 2.16 1.569a9.909 9.909 0 001.752.804c.195.063.387.117.579.159.264.065.531.114.801.147.484.06.975.047 1.455-.036v-.153c.159-3.36-.999-4.227-1.017-4.233-.018-.006-.477-.231-.75-.357-.543-.246-4.467-.969-4.467-.969l-1.272-1.266s-1.167.318-1.8 1.02c.033.009.273.396.573.831zm5.73-1.992c.138-1.143 1.911-.9 2.748-3.429.432-1.308.231-3.93-1.218-4.563-.66-2.478-3.3-3.972-5.763-3.861-1.278-.021-2.364 1.02-2.814 2.154-.933 2.517.51 4.17.96 4.938.234.402.582-1.8.747-1.368.132.327.239.664.318 1.008a4.509 4.509 0 001.335 1.578c1.227 1.179 2.502 2.334 3.687 3.543z" fill="#455A64"/><path d="M113.876 84.9l.3-2.49s.636.627 1.311.138a1.553 1.553 0 00.531-2.064 1.088 1.088 0 00-.857-.607 1.09 1.09 0 00-.973.397c-.636-.039-.834-1.062-.3-1.878 0 0 .255-1.758-.9-2.52-.876-.579-1.479-.33-2.472-.315-.717-.258-.789-1.296-1.713-1.146-.342.393-.927 1.092-.792 2.727a4.563 4.563 0 01-.231 1.032c-.363 1.662.255 3.543.939 4.092.497.423 1.089.72 1.725.867l-.078.693c-.036.348-.114.333-.405.258l-.438-.111s-.6.9 1.473 1.848c3.072 1.404 4.266.387 4.266.387s-.177-.075-.711-.324-.66-.513-.675-.984z" fill="#FFA8A7"/><path d="M111.377 80.82l-1.14.024a.771.771 0 00.702.651.51.51 0 00.438-.675z" fill="#9A4A4D"/><path d="M111.29 81.069a.494.494 0 00-.578.142.511.511 0 00-.097.188.583.583 0 00.324.096.455.455 0 00.438-.387l-.087-.039z" fill="#F28F8F"/><path d="M108.677 76.164l.846-.126a.566.566 0 00-.567-.435.408.408 0 00-.279.561zm3.693 1.554l-.777-.714a.399.399 0 01.307-.16.397.397 0 01.314.145.619.619 0 01.156.729zm-3.111-.096a.3.3 0 01-.372.324.508.508 0 01-.384-.477.3.3 0 01.372-.324.51.51 0 01.384.477zm2.712 1.158a.3.3 0 01-.372.324.506.506 0 01-.381-.477.297.297 0 01.096-.254.3.3 0 01.261-.073.511.511 0 01.396.48z" fill="#263238"/><path d="M110.444 83.118c1.44.3 2.838.231 3.198-.357 0 0-.039.753-.639.93-.843.249-2.619-.048-2.619-.048l.06-.525z" fill="#F28F8F"/><path d="M113.696 78.768l-.219-.186-.189-.108a7.691 7.691 0 00-1.881-.816c-.6-.117-.834-.033-1.167-.186-.333-.153-.492-.417-1.038-.84a5.662 5.662 0 00-1.161-.633 8.55 8.55 0 00-.6-.237l-.177-.06c-.099-.033-.216.057-.219.213.01.15.057.295.135.423a.458.458 0 01.054.156c.023.352.071.702.144 1.047.075.255.205.491.381.69.183.202.406.363.654.474.122.058.248.105.378.138h.03c.099.023.2.032.3.027h.183l.066-.03a.79.79 0 00.282-.246c.192-.258.198-.738.465-.675h.033l.033.015c.354.165.264.648.426 1.095a2.171 2.171 0 001.227 1.299l.102.045.078.03c.062.023.125.042.189.057l.06.015h.093a.901.901 0 00.219 0h.075a.535.535 0 00.129-.042.69.69 0 00.27-.231c.128-.268.229-.549.3-.837a.261.261 0 01.072-.111l.087-.063.051.042.933.762a.979.979 0 01.447-.12l-1.245-1.107zm-4.182-.636a.962.962 0 01-.069.162v.033l-.027.036-.024.03-.021.018-.018.018c-.162.138-.435.198-.9-.021a1.57 1.57 0 01-.42-.3 1.267 1.267 0 01-.165-.189 1.808 1.808 0 01-.3-.864c-.036-.276-.063-.801.069-.855a.337.337 0 01.147-.018h.198c.022.003.043.01.063.018l.069.021.075.027h.042l.033.015.093.039.033.015h.03c.084.039.171.087.264.141.357.198.664.474.9.807.09.287.064.598-.072.867zm3.492 1.5a.028.028 0 010 .018l-.033.09a.523.523 0 00-.027.054l-.048.087a.78.78 0 00-.021.03v.015l-.015.018-.018.024-.021.024-.027.024-.03.024c-.162.126-.417.177-.837 0a1.807 1.807 0 01-.816-.675 1.552 1.552 0 01-.228-.624c-.042-.3-.051-.648.078-.75a.363.363 0 01.183-.051h.216c.089.01.177.023.264.042l.102.024c.087.021.177.048.267.078l.06.024c.402.123.762.352 1.044.663.099.189-.024.648-.093.873v-.012z" fill="#263238"/><path d="M108.938 79.065l1.2.813.378-1.407c-.045-.252-.096-.465-.3-.564l-.033-.015h-.033l-1.212 1.173z" fill="#F28F8F"/><path d="M115.565 90.972c.484.06.974.047 1.455-.036a4.119 4.119 0 001.782-.774c-1.02-2.754-1.2-2.976-2.79-3.6-1.302 1.23-.69 3.618-.447 4.41z" fill="#459AE9"/><path d="M108.677 69.768a7.232 7.232 0 013.522 1.089c4.5 2.601 8.175 8.949 8.175 14.154 0 2.7-1.014 4.638-2.775 5.289a3.997 3.997 0 01-1.41.243 5.575 5.575 0 01-1.317-.165 6.307 6.307 0 01-.543-.156 9.111 9.111 0 01-1.665-.762 14.03 14.03 0 01-3.096-2.493c-.123-.135-.255-.276-.381-.417-.252-.285-.513-.6-.774-.933a21.496 21.496 0 01-.816-1.125 16.672 16.672 0 01-.738-1.2c-1.527-2.661-2.367-5.499-2.367-7.992 0-3.414 1.605-5.538 4.185-5.538m0-.462c-2.757 0-4.65 2.196-4.65 6 0 2.661.927 5.604 2.43 8.223.238.416.49.824.756 1.224s.544.784.834 1.152c.255.327.522.648.792.954.129.144.264.3.393.429a14.544 14.544 0 003.201 2.574 9.587 9.587 0 001.752.801c.195.066.39.12.579.165.467.116.945.177 1.425.18a4.402 4.402 0 001.572-.273c1.878-.693 3.075-2.7 3.078-5.724 0-5.361-3.765-11.877-8.4-14.556a7.616 7.616 0 00-3.762-1.149z" fill="#459AE9"/><path d="M103.904 66.933c-1.311-.753-2.37-.141-2.37 1.368a5.228 5.228 0 002.37 4.104c1.308.756 2.367.144 2.367-1.368a5.236 5.236 0 00-2.367-4.104z" fill="#459AE9"/><path d="M102.542 68.886a.246.246 0 01.333-.09l.786.453v-1.113a.244.244 0 01.483 0v1.395l1.029.6a.245.245 0 01.001.421.238.238 0 01-.121.032.232.232 0 01-.123-.033l-.786-.453v1.113a.23.23 0 01-.01.1.234.234 0 01-.05.089.25.25 0 01-.181.081.235.235 0 01-.181-.081.246.246 0 01-.061-.189V69.81l-1.029-.6a.243.243 0 01-.09-.324zm23.434 19.083c0 2.661.927 5.604 2.427 8.223a19.772 19.772 0 001.593 2.376c.255.327.519.648.792.954.129.144.261.3.393.429a14.473 14.473 0 003.195 2.574 9.593 9.593 0 001.752.801c.195.066.39.12.579.165a5.043 5.043 0 003-.093c1.878-.693 3.075-2.7 3.075-5.724 0-5.361-3.762-11.877-8.4-14.556-4.638-2.679-8.406-.51-8.406 4.851z" fill="#FAFAFA"/><path d="M128.201 95.859c.066.114.123.225.189.333.126.228.264.453.405.672.141.219.234.366.354.549.264.399.543.783.831 1.155.027.03.051.063.078.096l.453-2.499c-.996-.279-1.737-.387-2.31-.306z" fill="#263238"/><path d="M128.795 96.864c.117.183.234.366.354.549.264.399.543.783.831 1.155.027.03.051.063.078.096.234.3.471.585.72.858.126.141.258.3.387.426a14.475 14.475 0 003.201 2.58 9.793 9.793 0 001.752.801c.198.063.39.117.582.165a5.421 5.421 0 002.196.114 4.046 4.046 0 001.743-.705c-.093-.696-.279-1.239-.6-1.5-1.104-.873-3.837-3.795-6.396-4.446-1.008-.258-2.013-.552-3.144-.804-.606-.126-1.194.105-1.704.711z" fill="#459AE9"/><path d="M128.795 96.864c.117.183.234.366.354.549.264.399.543.783.831 1.155.027.03.051.063.078.096.234.3.471.585.72.858.126.141.258.3.387.426a14.475 14.475 0 003.201 2.58 9.793 9.793 0 001.752.801c.198.063.39.117.582.165a5.421 5.421 0 002.196.114 4.046 4.046 0 001.743-.705c-.093-.696-.279-1.239-.6-1.5-1.104-.873-3.837-3.795-6.396-4.446-1.008-.258-2.013-.552-3.144-.804-.606-.126-1.194.105-1.704.711z" fill="#fff" opacity=".2"/><path d="M138.203 88.116a1.4 1.4 0 01-.087.216c1.122.513 2.007 1.83.627 2.661.837.684.465 1.68-.426 2.076-.156.186-.024.459 0 .699a.74.74 0 01-.284.653.75.75 0 01-.703.118c.063.402-.225 1.029-.738 1.014l.084-1.092s.138-.96-.354-1.173c-.429-.099-.867.084-1.299.099-1.581.174-2.901-.948-3.807-2.124a.419.419 0 00-.258-.219c-.516-.3-.549-.987-.384-1.5a.942.942 0 01-.706.176.95.95 0 01-.425-1.706.753.753 0 01-.915-.225.757.757 0 01.015-.942.408.408 0 00.193.44.405.405 0 00.476-.053c.21-.201.144-.543.066-.825a.802.802 0 01-.061-.422.803.803 0 01.16-.394c.246-.423 1.152-.672 1.713-.348a1.225 1.225 0 01.924-1.284c.771-.255 1.428.3 2.1.525 1.149-.42 2.487.237 2.502 1.548 1.251.066 2.01.828 1.587 2.082z" fill="#FFBDA7"/><path d="M137.843 95.031c-.636.3-1.167-.57-1.167-.57l-.318 4.164s-.327.825-2.46.789c-1.656-.03-2.85-.999-1.56-2.079l.066-1.269a5.88 5.88 0 01-1.236-.45c-.585-.336-1.053-1.401-1.254-2.4-.327-1.629-.09-3.426.516-6.273.981 1.026 3.114-.531 4.887 1.398-.483.945.21 2.7.843 3.054-.204.822-.099 1.218.141 1.305.417.156.702-.417.945-.642.243-.225 1.032-.411 1.389.618s-.243 2.097-.792 2.355z" fill="#FFA8A7"/><path d="M132.404 96.066c.333.06 1.593.096 2.04-.093a2.877 2.877 0 001.728-1.614 2.364 2.364 0 01-1.218 1.875c-.787.437-1.696.6-2.586.462l.036-.63zm1.254-6.57l.732.726a.643.643 0 00-.12-.75.379.379 0 00-.612.024zm-3.063-.624l.9-.054a.543.543 0 00-.522-.489.436.436 0 00-.378.543z" fill="#F28F8F"/><path d="M134.075 91.047a.303.303 0 01-.116.25.3.3 0 01-.271.05.524.524 0 01-.339-.519.303.303 0 01.246-.308.297.297 0 01.141.008.524.524 0 01.339.519zm-2.664-.951a.303.303 0 01-.116.25.294.294 0 01-.271.05.519.519 0 01-.339-.516.303.303 0 01.246-.308.297.297 0 01.141.008.526.526 0 01.339.516z" fill="#37474F"/><path d="M132.764 89.991l-.528 2.433-1.194-.852 1.722-1.581z" fill="#F28F8F"/><path d="M133.232 93.435l-1.305.069a.62.62 0 00.203.438.624.624 0 00.454.162.66.66 0 00.603-.416.663.663 0 00.045-.253z" fill="#B16668"/><path d="M132.575 94.098a.6.6 0 01-.321-.072.779.779 0 01.948-.405.688.688 0 01-.627.477z" fill="#F28F8F"/><path d="M138.896 103.608a4.026 4.026 0 001.743-.705c.204-.148.393-.313.567-.495a11.876 11.876 0 00-1.155-.993 5.401 5.401 0 00-1.155 2.193z" fill="#263238"/><path d="M130.613 82.434a7.228 7.228 0 013.522 1.086c4.5 2.601 8.175 8.949 8.175 14.154 0 2.7-1.014 4.638-2.775 5.289a4.027 4.027 0 01-1.413.246 5.6 5.6 0 01-1.314-.168 6.013 6.013 0 01-.543-.156 9.105 9.105 0 01-1.665-.762 13.887 13.887 0 01-3.096-2.493 20.18 20.18 0 01-1.155-1.347c-.261-.33-.555-.744-.816-1.128-.261-.384-.51-.789-.738-1.2-1.527-2.664-2.367-5.502-2.367-7.995 0-3.414 1.602-5.535 4.185-5.535m0-.465c-2.757 0-4.65 2.196-4.65 6 0 2.661.927 5.604 2.427 8.223a19.772 19.772 0 001.593 2.376c.255.327.519.648.792.954.129.144.261.3.393.429a14.521 14.521 0 003.207 2.583 9.655 9.655 0 001.752.801c.195.066.39.12.579.165.466.118.945.178 1.425.18a4.427 4.427 0 001.575-.273c1.878-.693 3.075-2.7 3.075-5.724 0-5.361-3.762-11.877-8.4-14.556a7.6 7.6 0 00-3.753-1.149l-.015-.009z" fill="#459AE9"/><path d="M125.837 79.602c-1.308-.756-2.367-.144-2.367 1.368s1.059 3.348 2.367 4.101c1.308.753 2.37.144 2.37-1.365a5.227 5.227 0 00-2.37-4.104z" fill="#459AE9"/><path d="M124.475 81.552a.236.236 0 01.063-.072.233.233 0 01.18-.047.237.237 0 01.09.032l.783.453v-1.113a.245.245 0 01.415-.172.245.245 0 01.071.172V82.2l1.029.6a.23.23 0 01.112.147.236.236 0 01-.025.183.244.244 0 01-.21.123.26.26 0 01-.12-.033l-.786-.453v1.113a.245.245 0 01-.415.172.245.245 0 01-.071-.172v-1.395l-1.026-.6a.245.245 0 01-.09-.333zM104.027 51.15c0 2.661.927 5.604 2.43 8.223.238.418.49.826.756 1.224s.544.782.834 1.152c.258.327.522.648.795.954.126.144.261.3.39.429a14.448 14.448 0 003.201 2.568 9.587 9.587 0 001.752.801c.195.066.39.12.579.165a5.058 5.058 0 003-.09c1.878-.696 3.075-2.7 3.078-5.727 0-5.361-3.765-11.877-8.4-14.556-4.635-2.679-8.415-.504-8.415 4.857z" fill="#FAFAFA"/><path d="M106.269 59.04c.063.114.123.225.186.333.129.231.267.453.408.672l.351.549c.268.4.546.785.834 1.155.027.03.048.063.078.096l.453-2.499c-.999-.279-1.74-.387-2.31-.306z" fill="#263238"/><path d="M106.863 60.045c.114.183.234.366.351.549.268.4.546.785.834 1.155.027.03.048.063.078.096.231.3.471.585.717.858.129.144.261.3.39.426a14.458 14.458 0 003.201 2.58 9.744 9.744 0 001.752.801c.195.063.387.117.579.165a5.425 5.425 0 002.196.114c.273-.04.542-.11.801-.207a3.89 3.89 0 00.942-.498c-.09-.696-.279-1.239-.585-1.5-1.107-.873-1.737-1.425-2.292-1.824a8.307 8.307 0 00-4.107-2.619c-1.005-.261-2.013-.555-3.141-.807-.603-.126-1.203.105-1.716.711z" fill="#37474F"/><path d="M115.932 50.727c1.101 1.8.696 4.155-.105 5.7-.36.69-.9 1.971-1.2 2.751 0 0-1.932.723-6.171-5.4-.765-1.107-.33-3.774.699-4.761 1.452-1.404 4.626-1.737 6.777 1.71z" fill="#263238"/><path d="M115.908 58.2c-.633.3-1.167-.57-1.167-.57l-.315 4.17s0 .54-1.098.918c-.723.252-2.223.105-3.075.84-.36-.792-.648-2.163.153-3.048l.063-1.269a5.91 5.91 0 01-1.236-.45 2.673 2.673 0 01-1.398-1.875 8.079 8.079 0 01-.171-1.974 26.01 26.01 0 01.573-3.816c.081-.369.483-1.248.837-1.383.846-.318.747.993 1.728 1.326.981.333 3.774-.342 3.174.864a5.556 5.556 0 00.243 3.258c.076.206.182.4.315.576.276.351.525-.3.771-.54.246-.24 1.029-.411 1.386.618s-.234 2.109-.783 2.355z" fill="#C8856A"/><path d="M110.469 59.247c.75.174 2.175.114 2.736-.33.369-.31.681-.681.924-1.098a2.61 2.61 0 01-.819 1.518c-1.146.9-2.877.54-2.877.54l.036-.63z" fill="#AF6152"/><path d="M114.141 54.948c.087.621-.6 2.118-1.671 2.001-1.071-.117-1.272-.804-2.217-1.053-.84-.219-1.371.057-1.8-.114-.429-.171-.798-.834-.798-.834s-.24 1.923.21 2.871c.6 1.26 2.175 1.536 3.12 1.623a3.417 3.417 0 002.355-.558c.6-.435.96-1.182 1.239-1.935.279-.753.726-1.722.726-1.722l-1.125-.36m-2.199-1.905l.729.723a.631.631 0 00-.12-.75.377.377 0 00-.481-.094.367.367 0 00-.128.121zm-3.321-.909l.9-.051a.545.545 0 00-.525-.489.43.43 0 00-.311.184.443.443 0 00-.064.356zm3.63 2.193a.303.303 0 01-.246.308.297.297 0 01-.141-.008.52.52 0 01-.336-.519.303.303 0 01.116-.25.3.3 0 01.271-.05.515.515 0 01.336.519zm-2.814-.969a.303.303 0 01-.246.308.297.297 0 01-.141-.008.524.524 0 01-.339-.519.301.301 0 01.39-.3.524.524 0 01.336.519z" fill="#263238"/><path d="M110.874 53.349l-.525 2.433-1.2-.855c.468-.705 1.206-1.431 1.725-1.578zm.147 3.378l-1.305.069a.619.619 0 00.413.565c.078.027.161.04.244.035a.655.655 0 00.648-.669z" fill="#AF6152"/><path d="M110.376 57.39a.623.623 0 01-.321-.069.779.779 0 01.705-.45c.082 0 .165.014.243.042a.683.683 0 01-.627.477z" fill="#F28F8F"/><path d="M110.252 63.564c.471-.189 1.713-.453 1.8-.072.072.267.273 1.23.624 1.302a3.184 3.184 0 002.562-.963c.3-.283.501-.654.576-1.059 0 0-.414-1.065-.669-1.572-.255-.507-.324-.801-.6-.9l-.078.876c-.207.34-.502.616-.855.801-.837.423-2.514.675-3.36 1.587z" fill="#263238"/><path d="M110.253 63.564c-.258-.357-.681-1.662-.9-1.677-.459-.024-.774.267-.774 0s.342-.765.756-1.449c.318-.522.825-.9 1.125-.864l-.072 1.2c-.139.314-.22.65-.24.993-.094.6-.058 1.212.105 1.797zm6.723 3.225c.273-.04.542-.11.801-.207a3.89 3.89 0 001.509-.993 11.691 11.691 0 00-1.152-.993 5.374 5.374 0 00-1.158 2.193z" fill="#263238"/><path d="M108.677 45.615a7.229 7.229 0 013.522 1.086c4.5 2.601 8.175 8.949 8.175 14.154 0 2.7-1.014 4.638-2.775 5.289a4 4 0 01-1.41.246 5.538 5.538 0 01-1.314-.168 6.067 6.067 0 01-.546-.156 9.098 9.098 0 01-1.665-.762 14.03 14.03 0 01-3.096-2.493c-.123-.135-.255-.276-.381-.417-.252-.285-.513-.6-.774-.93-.261-.33-.555-.744-.816-1.128a15.633 15.633 0 01-.735-1.2c-1.53-2.664-2.37-5.502-2.37-7.995 0-3.414 1.605-5.535 4.185-5.535m0-.465c-2.757 0-4.65 2.199-4.65 6 0 2.661.927 5.604 2.43 8.223.238.418.49.826.756 1.224s.544.782.834 1.152c.258.327.522.648.795.954.126.144.261.3.39.429a14.456 14.456 0 003.201 2.577 9.58 9.58 0 001.752.801c.195.066.39.12.579.165.466.119.945.18 1.425.183a4.472 4.472 0 001.572-.273c1.878-.696 3.075-2.7 3.078-5.727 0-5.361-3.765-11.877-8.4-14.556a7.619 7.619 0 00-3.756-1.149l-.006-.003z" fill="#459AE9"/><path d="M103.904 44.169c-1.308-.753-2.37-.141-2.37 1.368a5.24 5.24 0 002.37 4.104c1.308.756 2.367.144 2.367-1.368a5.237 5.237 0 00-2.367-4.104z" fill="#459AE9"/><path d="M102.545 46.122a.25.25 0 01.146-.114.241.241 0 01.184.024l.786.453v-1.113a.246.246 0 01.061-.189.235.235 0 01.181-.08.243.243 0 01.241.269v1.392l1.029.6a.248.248 0 01.122.147.263.263 0 01.009.096.235.235 0 01-.239.213.231.231 0 01-.123-.033l-.786-.453v1.113a.23.23 0 01-.01.1.248.248 0 01-.231.17.246.246 0 01-.181-.081.246.246 0 01-.061-.189v-1.392l-1.029-.6a.238.238 0 01-.099-.333zm23.431 17.685c0 2.664.927 5.607 2.43 8.223.234.417.489.828.756 1.224a20.124 20.124 0 001.626 2.106c.129.147.261.3.393.429a14.49 14.49 0 003.195 2.577 9.547 9.547 0 001.755.801c.192.063.387.12.576.165a5.1 5.1 0 003-.093c1.878-.696 3.075-2.7 3.078-5.724 0-5.361-3.765-11.88-8.4-14.559-4.635-2.679-8.409-.51-8.409 4.851z" fill="#FAFAFA"/><path d="M139.026 66.489c.237.963.117 1.974-.036 2.952s-.336 1.968-.234 2.955c.021.195.042.426-.111.552a.395.395 0 01-.486-.048 1.138 1.138 0 01-.267-.453l-.177 2.13c.001.245-.068.486-.198.693-.249.3-.726.3-1.101.189a3.021 3.021 0 01-1.839-2.013 5.914 5.914 0 01-.063-2.802 11.514 11.514 0 011.305-3.6c.379-.587.703-1.21.966-1.857.059-.264.17-.514.327-.735.09-.105.174-.072.3-.024.112.048.222.104.327.168.209.133.399.296.564.483a3.39 3.39 0 01.708 1.332l.015.078z" fill="#37474F"/><path d="M128.394 72.03c.234.417.489.828.756 1.224s.543.78.834 1.152l.747-2.151c-1.011-.306-1.674-.462-2.337-.225z" fill="#FFBDA7"/><path d="M129.198 72.915c.266.4.544.784.834 1.152.255.33.522.648.792.954.129.144.264.3.393.429a14.494 14.494 0 003.198 2.577 9.54 9.54 0 001.755.801c.195.063.39.12.579.162.014-1.37.32-2.721.9-3.963 0 0-.699-.369-2.028-1.095-.015 0-.033-.021-.045-.033-1.059-.726-1.776-.6-3.726-1.431-.033-.015.237-.156.204-.171l-1.278-.381c-.548.298-1.075.632-1.578.999z" fill="#459AE9"/><path d="M135.693 71.7c.159-.6.9-1.026 1.59-2.055.69-1.029 1.593-3.342.174-4.422.261-1.386-.849-3.09-2.364-3.768-1.995-.9-4.323-.774-5.673.933-1.596 2.016.054 3.933.054 3.933l6.219 5.379z" fill="#455A64"/><path d="M129.663 69.495c.101.433.307.835.6 1.17.345.411.819.633 1.605.9l-.024.537v.345l-.015.357-.015.618s-.945 1.119-1.017 1.935c.129.147.261.3.393.429a9.139 9.139 0 004.386-1.428v-.087l.042-.9.099-2.196.018-.621a.547.547 0 00.099.234.892.892 0 00.327.27.936.936 0 00.798.045l.057-.03a.306.306 0 00.084-.042.255.255 0 00.066-.042l.057-.039a1.587 1.587 0 00.594-.884 1.59 1.59 0 00-.066-.994c-.195-.465-.723-.876-1.119-.717-.396.159-.45.405-.621.687-.171.282-.987-.579-.426-2.04-.669-.528-.984-1.755-.807-2.343-.3-1.062-2.262-1.2-2.607-.795-.3-.669-.255-1.071-.813-.9-.558.171-1.5.546-1.827 2.856a9.653 9.653 0 00.132 3.675z" fill="#FFBDA7"/><path d="M133.137 69.279l-1.161.021a.77.77 0 00.765.681c.312-.012.453-.312.396-.702z" fill="#B16668"/><path d="M132.399 69.921a.506.506 0 01.459-.448.513.513 0 01.285.058.453.453 0 01-.414.462.63.63 0 01-.33-.072z" fill="#F28F8F"/><path d="M132.042 66.186l-.27 2.295-1.098-.747 1.368-1.548z" fill="#F0997A"/><path d="M130.851 66.3a.3.3 0 01-.372.324.508.508 0 01-.384-.474.295.295 0 01.1-.269.303.303 0 01.281-.061.503.503 0 01.375.48zm2.724.918a.3.3 0 01-.372.324.51.51 0 01-.384-.477.3.3 0 01.372-.324.512.512 0 01.384.477z" fill="#263238"/><path d="M131.856 71.568a5.172 5.172 0 002.343-.111 2.29 2.29 0 001.101-.9s.081.741-1.029 1.26c-.867.408-2.436.3-2.436.3l.021-.549z" fill="#F0997A"/><path d="M130.14 65.16l.837.054a.673.673 0 00-.549-.492c-.231-.015-.36.183-.288.438zm2.775.747l.918.6a.649.649 0 00-.315-.69c-.252-.159-.522-.117-.603.09z" fill="#263238"/><path d="M131.358 62.877c-.168.9.9 3.027 2.325 3.987 1.425.96 2.34.777 2.34.777s.168-2.916-1.248-4.017c-1.416-1.101-3.417-.747-3.417-.747z" fill="#455A64"/><path d="M136.122 79.167c.192.063.387.12.576.165a5.1 5.1 0 003-.093c.352-.185.668-.435.93-.735-1.029-2.436-1.575-2.901-2.973-3.477-.954.696-1.38 3.066-1.533 4.14z" fill="#FFBDA7"/><path d="M130.613 58.272a7.229 7.229 0 013.522 1.086c4.5 2.601 8.175 8.952 8.175 14.157 0 2.7-1.014 4.635-2.775 5.289a4.013 4.013 0 01-1.413.243 5.58 5.58 0 01-1.314-.168 7.538 7.538 0 01-.543-.153 9.111 9.111 0 01-1.665-.762 14.06 14.06 0 01-3.096-2.496 17.313 17.313 0 01-.381-.414c-.255-.3-.513-.6-.774-.933a21.496 21.496 0 01-.816-1.125c-.261-.384-.51-.792-.738-1.2-1.527-2.661-2.367-5.499-2.367-7.995 0-3.414 1.602-5.535 4.185-5.535m0-.465c-2.757 0-4.65 2.199-4.65 6 0 2.664.927 5.607 2.43 8.223.234.417.489.828.756 1.224a20.124 20.124 0 001.626 2.106c.129.147.261.3.393.429a14.521 14.521 0 003.207 2.583 9.601 9.601 0 001.755.801c.192.063.387.12.576.165.467.116.945.177 1.425.18a4.498 4.498 0 001.575-.273c1.878-.696 3.075-2.7 3.078-5.724 0-5.361-3.765-11.88-8.4-14.559a7.6 7.6 0 00-3.753-1.149l-.018-.006z" fill="#459AE9"/><path d="M125.837 56.838c-1.308-.756-2.367-.144-2.367 1.368s1.059 3.348 2.367 4.101c1.308.753 2.37.144 2.37-1.365a5.227 5.227 0 00-2.37-4.104z" fill="#459AE9"/><path d="M124.475 58.8a.247.247 0 01.333-.09l.786.456v-1.113a.246.246 0 01.061-.189.243.243 0 01.422.189v1.392l1.029.6a.249.249 0 01.103.118.245.245 0 01-.226.335.26.26 0 01-.12-.033L126.08 60v1.11a.23.23 0 01-.01.1.248.248 0 01-.231.17.241.241 0 01-.181-.081.246.246 0 01-.061-.189V59.7l-1.029-.6a.239.239 0 01-.093-.3z" fill="#FAFAFA"/><path d="M92.975 129.564c0-.066-.51-3.804-.51-3.804s.97.564 3.22.549c1.142 0 2.58-.9 2.58-.9s-.097 2.586-.046 3.561c.258-.069.321.54.753.774.744.405 2.157.483 3.495.564.357.021.759 0 1.128.021h.021c1.116.222 2.049 1.167.663 1.8s-3.36.513-5.18.378c-2.19-.138-6.286-.771-6.124-2.943z" fill="#FFA8A7"/><path d="M108.143 132.3c.083.387.062.789-.063 1.164-.12.402-1.404 1.602-3.366 2.1-1.962.498-4.2.141-5.292.24-1.092.099-2.166.516-3.447.579-1.281.063-3.015-.018-3.723-1.149a1.329 1.329 0 010-1.005c.243-.153 15.891-1.929 15.891-1.929z" fill="#263238"/><path d="M98.162 128.592c.15-.411.57.507.858.6.855.282 2.151.27 3.501.372 1.704.132 3.693-.093 4.749.516 1.056.609 1.215 1.944-.642 3.36-.54.408-1.143.951-1.725 1.167-1.932.714-3.939.282-5.22.351-1.668.087-2.817.9-4.323.777-1.95-.147-2.952-.6-3.153-1.704-.2-1.104.342-2.199.324-3.453 0-.858.063-1.11.435-1.074 0 0 .063.3.87.522 1.443.411 1.818-.147 3.22 1.398.428.474.743.261.824.177.276-.279.402-.738.37-1.5-.025-.558-.055-.936-.088-1.509z" fill="#37474F"/><path d="M104.903 134.607s.738-4.323-1.701-5.007l-.318-.018s.057-.3 1.026-.351c1.866-.108 3.033.147 3.801.963a2.414 2.414 0 01.447 2.067c-.258.837-1.236 1.782-3.255 2.346z" fill="#FAFAFA"/><path d="M103.682 132s-.132-2.019-1.539-2.472a1.502 1.502 0 00-.723-.045s1.572.39 1.725 2.52c0 0 .033.15.3.153.09.012.246.021.237-.156z" fill="#FAFAFA"/><path d="M100.301 129.423s.027-.045.3-.021c.122.007.242.03.357.069a2.55 2.55 0 011.347 2.55s.024.156-.243.12c-.267-.036-.3-.171-.3-.171s.138-1.77-1.461-2.547z" fill="#FAFAFA"/><path d="M99.275 129.264s.066-.045.3 0c.285.054.336.123.336.123s1.326.945 1.044 2.46c0 0-.018.165-.3.108-.282-.057-.231-.21-.231-.21a2.486 2.486 0 00-1.15-2.481z" fill="#FAFAFA"/><path d="M71.975 120.432c.198-.39.408-.6.645-1.152.474-1.083.78-2.349 1.8-5.667l5.613 2.643s-4.158 6.672-4.2 7.38c-.39 6.135-3.858-3.204-3.858-3.204z" fill="#FFA8A7"/><path d="M70.268 122.157c.048-.621.972-1.257 1.377-1.554.405-.297.327-.858.714-.984.25-.081.678-.027 1.566.201.984.252 1.857 1.044 2.031 1.65.1.351-.039.849-.177 1.314a1.08 1.08 0 00-.02.465c.053.156.137.144.215-.042.111-.243.237-.495.375-.747.073.193.117.395.132.6 0 .225 0 .438-.366.942a1.62 1.62 0 00-.363 1.068 15.64 15.64 0 00.042 1.785c.024 1.077.156 1.062.156 1.062s1.737-.435 2.98.231a1.466 1.466 0 01.806 1.677s-.198 1.167-1.8 1.527c0 .021-.87.3-.876.3a2.958 2.958 0 01-1.95.06 1.754 1.754 0 01-.195-.084c-1.086-.552-3.774-1.989-3.74-2.166a2.2 2.2 0 00-.025-.543 86.813 86.813 0 00-.08-1.266c-.03-.42-.808-5.439-.802-5.496z" fill="#37474F"/><path d="M69.965 122.487c-.477.219-.3 1.602.081 2.925.381 1.323.558 1.779.453 2.901-.105 1.122-.174 1.62.282 2.007.456.387 4 1.908 4 1.908a13.707 13.707 0 01-.967-4.14c-.204-2.46-.435-4.041-1.587-5.1-1.152-1.059-2.262-.501-2.262-.501z" fill="#000"/><path d="M79.736 129.831s-.636 1.452-3.477 1.707c-1.554.141-1.89-.57-2.079-2.475-.195-1.956-.384-4.545-1.158-5.673-.774-1.128-2.1-1.482-2.565-1.341-.207.089-.38.242-.492.438a2.575 2.575 0 012.067.75c1.011.936 1.281 3 1.413 4.887.132 1.887.3 4.065 1.764 4.227 1.464.162 3.387-.507 4.305-1.38a1.004 1.004 0 00.222-1.14z" fill="#263238"/><path d="M75.8 127.896c1.11.438 1.527 2.031 1.443 2.907-.012.212-.062.42-.147.615a3.506 3.506 0 001.698-.468c.9-.501 1.143-.963 1.11-1.44-.033-.477-.5-1.536-1.932-1.722-1.43-.186-2.172.108-2.172.108z" fill="#FAFAFA"/><path d="M75.81 127.227c.091.127.156.272.188.426a.766.766 0 01-.53.876c-.217.066-.28-.342-.049-.462a.88.88 0 00.39-.84zm-.064-1.329a.688.688 0 01.075.408.813.813 0 01-.6.678c-.141.03-.117-.345 0-.396.255-.157.442-.403.525-.69zm.129-1.491c.026.209.004.421-.063.621a1.15 1.15 0 01-.71.468c-.22 0-.16-.393-.025-.468.228-.126.726-.417.798-.621z" fill="#FAFAFA"/><path d="M77.936 119.88s5.57-9.24 8.202-14.007c.552-.999.702-1.872.95-3.057.268-1.26 1.59-8.364 1.59-8.364l1.837 10.977a23.021 23.021 0 00-.46 4.071 39.374 39.374 0 00.652 7.554c.99 5.298 1.644 9 1.644 9 .384.261 1.707.777 3.363.558a7.903 7.903 0 002.658-1.026s.26-8.685.339-11.964c.078-3.279.045-8.301.105-10.461.108-3.9 0-4.08-.13-10.461-.122-6.621-.782-16.527-.782-16.527l-18.051-.189s-.621 2.019-.6 9.153c0 5.571-.333 16.785-.333 16.785a19.204 19.204 0 00-3.444 7.074c-.672 2.637-1.5 6-2.181 8.25 1.506-.09 4.056 1.392 4.64 2.634z" fill="#37474F"/><path d="M88.694 94.5l-1.221-7.332s-2.44-.126-5.427-2.487c0 0 .44 2.169 4.629 3.555l1.173 7.092-.615 6.792s1.446-7.473 1.46-7.62z" fill="#263238"/><path d="M98.477 123.762c-1.2.636-5.172 1.032-6.564.201l.462 2.757s.837.528 2.883.399c2.26-.144 3.13-.726 3.13-.726l.09-2.631zm-19.269-5.88L77.936 120a6.03 6.03 0 00-2.328-1.983c-1.815-.816-2.418-.699-2.418-.699l.738-2.556a5.228 5.228 0 013.17.738c1.984 1.164 2.11 2.382 2.11 2.382z" fill="#000"/><path d="M90.944 51.654l-.612 4.479-6.078-.312.657-4.848 6.033.681z" fill="#FFA8A7"/><path d="M93.365 43.284c.468.6 1.923 2.4 1.98 2.73l-1.2.729-.78-3.459z" fill="#F28F8F"/><path d="M89.975 38.781c1.881-.201 3.1 1.131 3.645 5.13.16.326.304.66.43 1.002.752 2.565.332 5.01-.103 5.661-1.089.873-2.298 1.2-4.053 1.05-1.335-.111-4.743-.519-6.47-2.322-2.035-2.124-3.06-5.322-1.618-6.981 2.043-2.337 7.143-3.429 8.17-3.54z" fill="#FFA8A7"/><path d="M93.956 50.574c-.24.357-1.94 1.242-3.02 1.308v-.84a11.68 11.68 0 003.02-.468z" fill="#F28F8F"/><path d="M90.356 45.789a.351.351 0 01-.627.105 4.691 4.691 0 00-.687-.795 1.716 1.716 0 00-1.167-.399c-1.578.12-1.2 2.199-.417 2.922 1.266 1.2 1.941.162 1.941.162s.9 2.01-.417 3.183c0 0-2.289.99-4.086.432-1.347-1.449-2.247-2.364-3.15-3.6-2.145-2.955-2.148-5.877-.774-6.711-.075-1.05.492-2.625 2.643-3.534 2.052-.867 3.426-.783 4.908-.699 1.482.084 3.3.759 4.683-.393a2.82 2.82 0 01-.228 2.571.933.933 0 01.804 1.68.732.732 0 01.336.867.9.9 0 01-.77.57 3.901 3.901 0 01-.934-.06c-.432 1.2-1.8 1.635-2.61 1.584.021 0 .126.165.141.189a2 2 0 01.13.207c.236.436.34.931.3 1.425a.9.9 0 01-.019.294z" fill="#263238"/><path d="M83.402 53.466c-2.259-.105-4.5.564-5.874 3.708-1.296 2.976-3.123 7.269-3.792 9.429-.327 1.056-.927 2.001 1.041 3.858a31.199 31.199 0 006.027 4.296l1.971-4.233-3.09-2.961 1.362-2.829 2.355-11.268z" fill="#455A64"/><path d="M79.691 67.563a4.026 4.026 0 01-1.83 1.545c.867.21 1.821-.723 2.1-1.275l-.27-.27z" fill="#263238"/><path d="M81.773 54.141c-1.575.882-2.775 3.828-2.658 6.3.072 1.557.621 5.58 1.086 9.132.147 1.122-.3 3-.504 5.283-.153 1.686-.345 3.465-.345 3.465s2.283 2.628 8.1 2.97c7.407.435 10.995-1.5 10.995-1.5s-.26-5.904-.438-10.683c-.267-7.089-.282-9.162-1.389-11.577-.366-.711-.75-2.301-1.956-2.613-.957-.249-3.162-.777-4.035-.9-1.434.369-5.148.402-6.066-.384l.015-.204c-1.605-.03-1.83.165-2.805.711z" fill="#459AE9"/><path d="M81.773 54.141c-1.575.882-2.775 3.828-2.658 6.3.072 1.557.621 5.58 1.086 9.132.147 1.122-.3 3-.504 5.283-.153 1.686-.345 3.465-.345 3.465s2.283 2.628 8.1 2.97c7.407.435 10.995-1.5 10.995-1.5s-.26-5.904-.438-10.683c-.267-7.089-.282-9.162-1.389-11.577-.366-.711-.75-2.301-1.956-2.613-.957-.249-3.162-.777-4.035-.9-1.434.369-5.148.402-6.066-.384l.015-.204c-1.605-.03-1.83.165-2.805.711z" fill="#fff" opacity=".4"/><path d="M118.355 49.068c.813-1.02 1.248-1.446 1.683-1.704.435-.258 1.914-1.38 2.508-1.707.375-.204.708.393.3.969-.3.441-1.215 1.158-1.602 1.521s-.987 1.674-.987 1.674l-1.902-.753z" fill="#F28F8F"/><path d="M109.688 62.664c-.855.48-1.701.354-4.605.201-2.073-.111-4.941-.195-9.816-.648-1.824-1.824-2.262-5.013-.447-6.966 1.896-.438 7.638 1.866 13.773 1.728 0 0 6.045-2.763 6.711-3.258.666-.495 1.89-3.075 2.352-3.831.627-1.023 1.071-1.026 1.515-1.074 1.452-.156 1.8-.12 2.133 0a.65.65 0 01.414.471c.384-.051.936-.207 1.167.384.073.152.124.314.15.48a.422.422 0 01.279.075c.402.279.198 1.653-.06 2.043-.18.276-.51.39-.969.447-.387.045-.3-.381-.3-.381l-.519.168c-.924 1.104-.561 2.718-1.971 3.465-.603.227-1.186.507-1.74.837-3.462 2.742-6.963 5.235-8.067 5.859z" fill="#FFA8A7"/><path d="M121.718 49.278l-1.746.102 1.653-.321a.651.651 0 01.093.219zm1.317.864l-1.974.255 1.92-.477c.025.072.043.146.054.222zm-.03.909a.621.621 0 01-.198.3 1.28 1.28 0 01-.3.198l.021-.024c-.027.114-.054.225-.084.336l-.054-.039a.393.393 0 01.324 0 .5.5 0 01.231.207.618.618 0 00-.249-.159.396.396 0 00-.27.021l-.051.009.015-.075c.027-.114.054-.228.084-.339v-.018h.018a2.21 2.21 0 00.3-.171.769.769 0 00.213-.246z" fill="#F28F8F"/><path d="M122.561 51.429c-.221.09-.447.167-.678.231a.777.777 0 01-.141.429c-.092.14-.192.276-.3.405l.519-.168s.066-.27.513-.483l.087-.414z" fill="#F28F8F"/><path d="M94.475 54.87c1.258.023 2.508.2 3.723.525 1.128.3 5.259 1.086 6.441 1.2 1.182.114 3.963.255 3.963.255l3.657-1.578s.645.219 1.302 1.578.222 3.15.222 3.15-3.231 2.232-3.933 2.685c-.702.453-1.104.558-2.184.48-1.08-.078-8.295-.525-9.117-.432-.822.093-1.05.384-1.5.651-.45.267-1.689-.192-2.478-1.383-.789-1.191-2.43-5.385-.096-7.131z" fill="#455A64"/></svg>