<svg width="151" height="150" fill="none" xmlns="http://www.w3.org/2000/svg"><path d="M23.741 79.371c-28.8 15.3-28.8 40.071 0 55.356 28.8 15.285 75.477 15.3 104.268 0 28.791-15.3 28.8-40.068 0-55.356-28.8-15.288-75.477-15.285-104.268 0zM13.34 54.147l.453.27 9.351-5.397-.453-.273-9.35 5.4z" fill="#FAFAFA"/><path d="M22.691 48.747l-8.898 5.136v-9.315l8.898-5.133v9.312z" fill="#fff"/><path d="M24.005 37.68l-11.07 6.39v11.838l11.07-6.393V37.68zm-.86 11.34l-9.352 5.4v-9.852l9.351-5.4v9.852z" fill="#F0F0F0"/><path d="M23.144 49.02l-.453-.273v-9.312l.453-.267v9.852z" fill="#E0E0E0"/><path d="M24.005 37.68l-.462-.267-11.07 6.393.462.264 11.07-6.39z" fill="#FAFAFA"/><path d="M12.473 43.806l.462.264v11.838l-.462-.267V43.806z" fill="#E0E0E0"/><path d="M22.343 48.468l-8.202 4.734v-2.367l2.052-4.734 1.275 1.185-.459 1.983 2.832-6.054 2.502 2.886v2.367z" fill="#F0F0F0"/><path d="M17.393 43.815a1.34 1.34 0 00-.6 1.05c0 .387.273.546.6.351a1.342 1.342 0 00.6-1.05c.006-.387-.267-.543-.6-.351z" fill="#F0F0F0"/><path d="M13.34 70.977l.453.273 9.351-5.4-.453-.273-9.35 5.4z" fill="#FAFAFA"/><path d="M22.691 65.577l-8.898 5.136v-9.315l8.898-5.13v9.309z" fill="#fff"/><path d="M24.005 54.51l-11.07 6.39v11.835l11.07-6.393V54.51zm-.86 11.34l-9.352 5.4v-9.852l9.351-5.4v9.852z" fill="#F0F0F0"/><path d="M23.144 65.85l-.453-.273v-9.31l.453-.27v9.853z" fill="#E0E0E0"/><path d="M24.005 54.51l-.462-.264-11.07 6.39.462.267 11.07-6.393z" fill="#FAFAFA"/><path d="M12.473 60.636l.462.267v11.835l-.462-.264V60.636z" fill="#E0E0E0"/><path d="M22.343 65.3l-8.202 4.735v-2.367l2.052-4.734 1.275 1.182-.459 1.986 2.832-6.057 2.502 2.889V65.3z" fill="#F0F0F0"/><path d="M17.393 60.648a1.338 1.338 0 00-.6 1.05c0 .387.273.543.6.348a1.342 1.342 0 00.6-1.05c.006-.396-.267-.543-.6-.348z" fill="#F0F0F0"/><path d="M27.521 62.676l.49.291 10.052-5.805-.489-.291-10.052 5.805z" fill="#FAFAFA"/><path d="M37.574 56.871l-9.564 5.52V36.486l9.564-5.517v25.902z" fill="#fff"/><path d="M38.975 29.082l-11.9 6.87v28.617l11.9-6.873V29.082zm-.9 28.08L28.01 62.967V36.486l10.065-5.802v26.478z" fill="#F0F0F0"/><path d="M38.063 57.162l-.489-.291V30.969l.49-.285v26.478z" fill="#E0E0E0"/><path d="M38.987 29.082l-.495-.285-11.904 6.87.498.285 11.901-6.87z" fill="#FAFAFA"/><path d="M26.588 35.667l.498.285v28.617l-.498-.285V35.667z" fill="#E0E0E0"/><path d="M36.858 56.298l-8.13 4.692V37.35l8.13-4.692v23.64z" fill="#F0F0F0"/><path d="M36.858 56.298l-8.13 4.692V37.35l8.13-4.692v23.64z" fill="#F0F0F0"/><path d="M28.727 53.1c.388.029.777.029 1.165 0a14.679 14.679 0 003.957-.861c.984-.363 1.968-.834 3-.864v4.923l-1.101.636a3.714 3.714 0 00-1.5-.837c-1.566-.414-3.174.375-4.782.558a6.064 6.064 0 01-.739.036V53.1zm0-5.88c1.822-.537 3.684-.984 4.984-2.319 1.047-1.074 1.538-2.565 1.883-4.026.346-1.461.58-2.967 1.242-4.314a.257.257 0 01.022-.039V47.4c-.102.15-.204.3-.3.45-1.2 1.62-2.956 2.97-4.962 3.075-.945.048-1.92-.171-2.857-.168l-.012-3.537zm.001-5.406a5.546 5.546 0 001.8-5.043 5.692 5.692 0 00-.093-.405l3.126-1.8c0 .204-.021.411-.027.6-.033 1.2 0 2.4-.255 3.57a7.003 7.003 0 01-3.564 4.602c-.318.165-.65.303-.99.414l.003-1.938zm88.823 13.59l-.534.321L99.329 45.51l.534-.321 17.688 10.215z" fill="#FAFAFA"/><path d="M99.863 45.189l17.154 9.906v-35.82l-17.154-9.9v35.814z" fill="#fff"/><path d="M98.318 46.092l19.71 11.382V18.69L98.318 7.308v38.784zm1.01-37.032l17.701 10.215v36.45l-17.7-10.215V9.06z" fill="#F5F5F5"/><path d="M99.33 45.51l.533-.321V9.375l-.534-.315v36.45z" fill="#E0E0E0"/><path d="M117.017 42.561v.627L99.329 32.973l.534-.318 17.154 9.906zm0-12.543v.627L99.329 20.433l.534-.321 17.154 9.906zM98.318 7.308l.543-.312 19.71 11.382-.543.312-19.71-11.382z" fill="#FAFAFA"/><path d="M118.571 18.378l-.543.312v38.784l.543-.312V18.378zm-9.348-3.603l-.546-.315v36.453l.546-.312V14.775z" fill="#E0E0E0"/><path d="M107.666 13.878l1.011.582v36.453l-1.011-.588V13.878z" fill="#F5F5F5"/><path d="M98.318 19.848v1.167l19.71 11.382V31.23l-19.71-11.382zm0 12.54v1.167l19.71 11.379V43.77l-19.71-11.382z" fill="#F5F5F5"/><path d="M108.677 25.833l.546-.315 7.794 4.5v.627l-8.34-4.812zm0 12.534l.546-.315 7.794 4.5v.63l-8.34-4.815zm33.612 31.317l-.537.32-17.688-10.214.537-.318 17.688 10.212z" fill="#FAFAFA"/><path d="M124.601 59.472l17.151 9.903v-35.82l-17.151-9.9v35.817z" fill="#fff"/><path d="M123.053 60.375l19.722 11.382V32.97L123.053 21.6v38.775zm1.011-37.035l17.7 10.215v36.45l-17.7-10.2V23.34z" fill="#F5F5F5"/><path d="M124.064 59.79l.537-.318V23.655l-.537-.315v36.45z" fill="#E0E0E0"/><path d="M141.752 56.84v.628l-17.688-10.212.537-.321 17.151 9.906zm0-12.542v.63l-17.688-10.215.537-.321 17.151 9.906zM123.053 21.59l.543-.311 19.71 11.382-.543.309-19.71-11.38z" fill="#FAFAFA"/><path d="M143.306 32.66l-.543.31v38.787l.543-.312V32.66zm-9.348-3.605l-.543-.315v36.453l.543-.312V29.055z" fill="#E0E0E0"/><path d="M132.404 28.16l1.011.58v36.453l-1.011-.585V28.16z" fill="#F5F5F5"/><path d="M123.053 34.128v1.167l19.71 11.382V45.51l-19.71-11.382zm0 12.54v1.167l19.71 11.382V58.05l-19.71-11.382z" fill="#F5F5F5"/><path d="M133.415 40.113l.543-.315 7.794 4.5v.63l-8.337-4.815zm0 12.537l.543-.315 7.794 4.5v.627l-8.337-4.812z" fill="#FAFAFA"/><path d="M12.485 99.552l25.59 14.775 74.337-42.918-25.59-14.775-74.337 42.918z" fill="#455A64"/><path d="M12.485 99.552l25.59 14.775v7.98l-25.59-14.775v-7.98z" fill="#263238"/><path d="M112.412 71.409v7.98l-74.337 42.918v-7.98l74.337-42.918z" fill="#37474F"/><path d="M10.049 95.556l28.026 16.179 76.764-44.322-28.03-16.182-76.76 44.325z" fill="#455A64"/><path d="M10.049 95.556l28.026 16.179v2.592L10.049 98.145v-2.59z" fill="#263238"/><path d="M114.839 67.413v2.589l-76.764 44.325v-2.592l76.764-44.322z" fill="#37474F"/><path opacity=".3" d="M12.485 101.607l25.59 14.775v-2.055l-25.59-14.775v2.055zm25.59 14.775h.003l74.334-42.924v-2.05l-74.337 42.919v2.055z" fill="#000"/><path d="M84.392 6.504l.243.138v34.356c0 .783-.477 1.695-1.065 2.034L50.9 61.89a.687.687 0 01-.663.072 5.644 5.644 0 01-.276-.159.933.933 0 01-.366-.855V26.595L84.392 6.504z" fill="#E0E0E0"/><path d="M50.48 61.884c-.3 0-.507-.3-.507-.798V26.811L84.5 6.876v34.122a2.4 2.4 0 01-.996 1.917l-32.67 18.858a.703.703 0 01-.354.111z" fill="#FAFAFA"/><path d="M84.365 7.11v33.9a2.291 2.291 0 01-.93 1.8L50.769 61.659a.6.6 0 01-.3.09c-.276 0-.375-.357-.375-.663v-34.2L84.365 7.11zm.27-.468l-34.8 20.1v34.344c0 .585.264.933.642.933a.847.847 0 00.42-.129l32.67-18.858c.6-.339 1.066-1.251 1.066-2.034V6.642h.002z" fill="#E0E0E0"/><path d="M53.996 56.637l25.338-14.628V13.158L53.996 27.789v28.848z" fill="#E0E0E0"/><path d="M55.037 56.313l-.117-.069a.747.747 0 01-.339-.582V28.527a.743.743 0 01.336-.582l24.426-14.13a.743.743 0 01.675 0l.117.066a.744.744 0 01.336.582v27.135a.745.745 0 01-.336.582L55.706 56.313a.757.757 0 01-.669 0z" fill="#459AE9"/><path opacity=".3" d="M55.037 56.313l-.117-.069a.747.747 0 01-.339-.582V28.527a.743.743 0 01.336-.582l24.426-14.13a.743.743 0 01.675 0l.117.066a.744.744 0 01.336.582v27.135a.745.745 0 01-.336.582L55.706 56.313a.757.757 0 01-.669 0z" fill="#fff"/><path d="M54.575 28.527v27.135a.74.74 0 00.336.6l.114.066a.755.755 0 00.6.033c-.153.045-.264-.042-.264-.228v-27.15a.672.672 0 01.102-.33l-.783-.453a.73.73 0 00-.105.327z" fill="#459AE9"/><path d="M55.56 56.277c-.094 0-.106-.111-.106-.159V28.986a.658.658 0 01.3-.513L80.177 14.34a.254.254 0 01.111-.033c.093 0 .105.111.105.156v27.135a.667.667 0 01-.3.513l-24.426 14.13a.229.229 0 01-.108.036z" fill="#FAFAFA"/><path d="M80.288 14.4c.014.022.02.049.018.075V41.61a.577.577 0 01-.258.44L55.622 56.18a.137.137 0 01-.072.025.117.117 0 01-.018-.075V28.986a.58.58 0 01.258-.444L80.219 14.4a.118.118 0 01.069-.024m0-.165a.302.302 0 00-.15.048l-24.429 14.13a.748.748 0 00-.336.6V56.12c0 .15.075.24.186.24a.314.314 0 00.15-.045l24.429-14.133a.743.743 0 00.336-.582V14.463c0-.15-.075-.24-.186-.24v-.012z" fill="#459AE9"/><path d="M77.522 18.129a1.275 1.275 0 00-.58.999c0 .369.262.516.58.333a1.273 1.273 0 00.576-.999c0-.369-.258-.516-.576-.333z" fill="#459AE9"/><path d="M76.505 19.254a.92.92 0 01-.426.708l-3.933 2.268c-.234.138-.426.042-.426-.213a.9.9 0 01.426-.717l3.933-2.271c.234-.129.426-.027.426.225z" fill="#EBEBEB"/><path d="M77.522 20.889a1.283 1.283 0 00-.58 1.011c0 .369.262.519.58.333a1.273 1.273 0 00.576-.999c0-.378-.258-.534-.576-.345z" fill="#459AE9"/><path opacity=".3" d="M77.522 20.889a1.283 1.283 0 00-.58 1.011c0 .369.262.519.58.333a1.273 1.273 0 00.576-.999c0-.378-.258-.534-.576-.345z" fill="#000"/><path d="M76.505 22.017a.9.9 0 01-.426.705l-3.933 2.271c-.234.135-.426.039-.426-.216a.916.916 0 01.426-.705l3.933-2.271c.234-.135.426-.039.426.216z" fill="#EBEBEB"/><path d="M68.1 34.899v-7.953c2.1-1.2 4.031 0 4.7 2.823.831 3.474-.549 8.892-3.102 11.772L68.1 34.899z" fill="#459AE9"/><path d="M67.844 42.759a3.63 3.63 0 01-1.287.465l1.287-6.834 1.284 5.349a6.166 6.166 0 01-1.284 1.02z" fill="#E6E6E6"/><path d="M67.844 42.759a3.63 3.63 0 01-1.287.465l1.287-6.834 1.284 5.349a6.166 6.166 0 01-1.284 1.02z" fill="#459AE9"/><path d="M67.844 42.759a3.63 3.63 0 01-1.287.465l1.287-6.834 1.284 5.349a6.166 6.166 0 01-1.284 1.02z" fill="#fff" opacity=".8"/><path d="M65.99 43.683c-1.386.054-2.53-1.053-3.021-2.91l4.476-4.818-1.455 7.728z" fill="#E6E6E6"/><path d="M65.99 43.683c-1.386.054-2.53-1.053-3.021-2.91l4.476-4.818-1.455 7.728z" fill="#459AE9"/><path d="M65.99 43.683c-1.386.054-2.53-1.053-3.021-2.91l4.476-4.818-1.455 7.728z" fill="#fff" opacity=".65"/><path d="M63.056 39.855a9.347 9.347 0 01-.168-1.884c0-4.074 2.085-8.62 4.698-10.332v7.332l-4.53 4.884z" fill="#E6E6E6"/><path d="M63.056 39.855a9.347 9.347 0 01-.168-1.884c0-4.074 2.085-8.62 4.698-10.332v7.332l-4.53 4.884z" fill="#459AE9"/><path d="M63.056 39.855a9.347 9.347 0 01-.168-1.884c0-4.074 2.085-8.62 4.698-10.332v7.332l-4.53 4.884z" fill="#fff" opacity=".35"/><path d="M71.447 30.429v-.078a.27.27 0 01.078-.138l.3-.174c.03-.018.039.018.02.078a.259.259 0 01-.077.135l-.3.177s-.018.006-.021 0zm.6-.354v-.078a.281.281 0 01.08-.135l.3-.177c.028-.018.037.018.022.078a.3.3 0 01-.081.138l-.3.174s-.006.006-.012 0h-.01zm.6-.351v-.078a.27.27 0 01.078-.138l.3-.174c.03-.018.039.018.02.078a.259.259 0 01-.077.135l-.3.177h-.021zm.6-.351a.096.096 0 010-.078.24.24 0 01.08-.138l.3-.177c.028-.018.037.018.022.078a.3.3 0 01-.081.138l-.3.174.009.003h-.03zm.6-.354v-.078a.27.27 0 01.078-.138l.3-.174c.027-.018.039.018.02.078a.259.259 0 01-.077.135l-.3.177s.024.006.02 0h-.041zm.6-.351a.096.096 0 010-.078.24.24 0 01.08-.138l.226-.129c.027-.018.039 0 .02.075a.24.24 0 01-.08.138l-.225.132h-.021zm-13.065 7.458v-.078c.011-.053.04-.1.08-.135l.3-.177c.028-.018.037.018.022.078a.3.3 0 01-.081.138l-.3.174s-.015.006-.021 0zm.6-.351v-.078a.27.27 0 01.078-.138l.3-.174c.03-.018.039.018.02.075a.257.257 0 01-.077.138l-.3.177s-.006.006-.01 0h-.011zm.6-.351a.096.096 0 010-.078.24.24 0 01.08-.138l.3-.177c.03-.018.04.018.025.078a.3.3 0 01-.081.138l-.3.174a.012.012 0 01-.003.003h-.021zm.6-.354v-.078a.27.27 0 01.078-.138l.3-.174c.03-.018.039.018.02.078a.257.257 0 01-.077.135l-.3.177s.015.006.012 0h-.033zm.6-.351a.102.102 0 010-.081c.011-.053.04-.1.08-.135l.3-.177c.03-.018.04.018.025.078a.3.3 0 01-.081.138l-.3.174a.019.019 0 01.01-.001l.008.004h-.042zm.6-.354v-.078a.27.27 0 01.078-.138l.219-.126c.027 0 .039.02.02.078a.24.24 0 01-.08.138l-.216.126s.036.006.033 0h-.054zm6.588-3.738a.492.492 0 01.189-.4c.102-.06.186.022.186.18a.498.498 0 01-.186.4c-.105.06-.19-.021-.19-.18z" fill="#455A64"/><path d="M64.586 34.2a.498.498 0 01.189-.4c.102-.06.186.022.186.18a.498.498 0 01-.186.4c-.105.06-.189-.021-.189-.18zm3.069 7.884a.497.497 0 01.189-.399c.102-.06.189.021.189.18a.503.503 0 01-.19.399c-.104.06-.188-.021-.188-.18zm-5.94 4.293v-.078a.3.3 0 01.08-.138l.3-.177c.028-.015.037.018.022.078a.251.251 0 01-.081.138l-.3.177h-.021zm.6-.354v-.078c.01-.053.039-.1.08-.135l.3-.177c.03-.018.04.018.022.078a.257.257 0 01-.078.135l-.3.177s-.01.006-.012 0h-.012zm.6-.351v-.078a.301.301 0 01.08-.138l.3-.177c.028-.015.037.02.022.078a.24.24 0 01-.081.138l-.3.177h-.021zm.6-.354v-.078a.259.259 0 01.078-.135l.3-.177c.03-.018.039.018.02.078a.245.245 0 01-.077.135l-.3.177s.015.006.012 0h-.033zm.6-.351v-.078a.3.3 0 01.08-.138l.3-.177c.028-.015.037.018.022.078a.251.251 0 01-.081.138l-.3.177a.018.018 0 01.02 0h-.041zm.438-.52a.04.04 0 010-.03v-.47a.32.32 0 01.06-.156c.03-.045.057-.045.057 0v.468a.342.342 0 01-.057.159c.009.03-.01.039-.018.03h-.042zm0-.941v-.498a.302.302 0 01.06-.156c.033-.045.057-.045.057 0v.47a.342.342 0 01-.057.16c.009.018-.01.036-.018.018l-.042.006zm0-.94a.04.04 0 010-.03v-.458a.32.32 0 01.06-.156c.033-.045.057-.045.057 0v.459a.329.329 0 01-.057.156c.009.03-.01.039-.018.03h-.042z" fill="#455A64"/><path d="M64.457 41.82a.492.492 0 01.189-.4c.102-.06.186.022.186.18a.5.5 0 01-.186.4c-.105.06-.19-.021-.19-.18zm3.336 2.712a.04.04 0 010-.03v-.279a.3.3 0 01.06-.156c.033-.045.06-.045.057 0v.234l.096-.054c.03 0 .039.018.021.078a.252.252 0 01-.081.138l-.123.072-.03-.003zm.429-.249a.094.094 0 010-.078.253.253 0 01.081-.138l.3-.174c.03-.018.039.018.024.078a.281.281 0 01-.081.135l-.3.177s-.018.006-.024 0zm-.429-.501v-.498a.3.3 0 01.06-.156c.033-.045.057-.045.057 0v.471a.3.3 0 01-.057.156c-.033.027-.051.045-.06.027zm1.038.15v-.081a.283.283 0 01.081-.135l.3-.177c.027-.018.039.018.021.078a.252.252 0 01-.081.138l-.3.174a.024.024 0 01-.021.003zm-1.038-1.089a.04.04 0 010-.03v-.468a.318.318 0 01.06-.159c.033-.045.057-.045.057 0v.471a.3.3 0 01-.057.156c-.03.03-.051.039-.06.03zm1.65.735a.094.094 0 010-.078.252.252 0 01.081-.138l.3-.174c.03-.018.039.018.024.078a.267.267 0 01-.081.135l-.3.177s-.018.006-.024 0zm.6-.351v-.081a.283.283 0 01.081-.135l.3-.177c.027-.015.039.021.021.078a.252.252 0 01-.081.138l-.3.174s-.006.006-.012.003h-.009zm.6-.354a.094.094 0 010-.078.253.253 0 01.081-.138l.3-.174c.03-.018.039.018.024.078a.282.282 0 01-.081.135l-.3.177s.003.006-.003 0h-.021zm.63-.351v-.081a.283.283 0 01.08-.135l.3-.177c.028-.018.04.018.022.078a.251.251 0 01-.081.138l-.3.174s-.015.006-.021.003zm.612-.354v-.078a.252.252 0 01.08-.138l.3-.174c.03-.018.04.015.025.075a.28.28 0 01-.081.138l-.3.177s-.018.006-.024 0zm.609-.354v-.078a.281.281 0 01.08-.135l.3-.177c.028-.018.04.018.022.078-.01.053-.04.1-.081.135l-.3.177s-.015.006-.021 0zm.612-.351v-.078a.251.251 0 01.081-.138l.3-.177c.03-.015.039.018.021.078a.27.27 0 01-.078.138l-.3.177a.018.018 0 01-.024 0z" fill="#455A64"/><path d="M57.194 39.942l3.504-2.055a.582.582 0 00.246-.453c0-.174-.108-.252-.243-.174l-3.537 2.019a.56.56 0 00-.231.471c.009.186.126.27.26.192zm.24 10.221l3.504-2.055a.573.573 0 00.246-.453c0-.174-.108-.249-.243-.174L57.404 49.5a.546.546 0 00-.228.471c.006.186.123.27.258.192zm16.554-7.599l3.504-2.064a.573.573 0 00.246-.453c0-.174-.108-.249-.24-.174l-3.54 2.019a.555.555 0 00-.228.474c.01.192.123.276.258.198zm1.068-12.072l3.519-2.052a.599.599 0 00.246-.456c0-.171-.108-.249-.243-.171l-3.537 2.019a.559.559 0 00-.231.471c-.006.183.11.27.246.189z" fill="#E0E0E0"/><path d="M49.664 27.762l-.81-1.413L84.464 5.79a.396.396 0 01.417.033 1.272 1.272 0 01.594.996.41.41 0 01-.159.366L49.664 27.762z" fill="#455A64"/><path d="M49.838 27.387a1.271 1.271 0 00-.576-.987c-.318-.186-.576-.036-.576.33a1.273 1.273 0 00.576.999c.318.171.576.024.576-.342z" fill="#263238"/><path d="M26.594 126.048c2.616 1.527 2.616 4.005 0 5.532-2.616 1.527-6.858 1.53-9.477 0-2.62-1.53-2.616-4.005 0-5.532 2.616-1.527 6.858-1.527 9.477 0zm80.049 3.789l-15.552-8.982c-.975-.564-.975-1.5.018-2.067l9.645-5.559a3.978 3.978 0 013.6 0l15.54 8.937c.993.573.993 1.5 0 2.076l-9.627 5.604a3.994 3.994 0 01-3.624-.009zm-19.968 11.505l-15.6-8.955c-.978-.564-.978-1.5.018-2.067l9.681-5.586a3.979 3.979 0 013.6 0l15.54 8.937c.993.573.993 1.5 0 2.076l-9.627 5.604a3.993 3.993 0 01-3.612-.009zm39.807-23.049l-15.6-8.952c-.975-.564-.975-1.5.018-2.07l9.693-5.571a3.978 3.978 0 013.6 0l15.54 8.934c.993.576.993 1.5 0 2.079l-9.624 5.604a4.005 4.005 0 01-3.627-.024z" fill="#E0E0E0"/><path d="M40.082 104.529c7.653 0 13.857-3.582 13.857-8.001s-6.204-8.001-13.857-8.001-13.857 3.582-13.857 8.001 6.204 8.001 13.857 8.001zm-22.107 24.348c-2.076-2.142-3.3-7.524-1.269-9.222h10.3c2.021 1.698.803 7.077-1.27 9.219l-.057.06-.069.072c-.06.057-.123.111-.189.168l-.05.039c-.049.039-.1.081-.157.12a2.867 2.867 0 01-.267.174c-1.707.996-4.473.996-6.18 0a2.216 2.216 0 01-.27-.177 1.883 1.883 0 01-.147-.111 3.337 3.337 0 01-.243-.21l-.08-.081-.052-.051z" fill="#37474F"/><path d="M26.111 118.971c2.35 1.374 2.35 3.6 0 4.968-2.349 1.368-6.159 1.371-8.508 0-2.349-1.371-2.349-3.6 0-4.968 2.35-1.368 6.16-1.371 8.508 0z" fill="#455A64"/><path d="M24.98 119.631c1.725 1.008 1.725 2.64 0 3.648s-4.521 1.008-6.25 0c-1.727-1.008-1.724-2.64 0-3.648 1.726-1.008 4.525-1.005 6.25 0z" fill="#263238"/><path d="M18.731 121.362c1.728-1.005 4.524-1.005 6.25 0 .418.229.774.559 1.034.96-.26.4-.616.728-1.035.957-1.725 1.008-4.52 1.008-6.249 0a2.893 2.893 0 01-1.032-.957c.26-.4.614-.73 1.032-.96z" fill="#FAFAFA"/><path d="M21.164 107.631c-.789.855-2.982 1.092-3.9-1.221-.852-2.166-1.77-4.218-2.034-5.016a.818.818 0 01.525-1.056s.063-1.2 2.082-.384c2.02.816 3.438 2.046 4.338 4.011.9 1.965.34 3.399-1.01 3.666z" fill="#459AE9"/><path opacity=".45" d="M21.164 107.631c-.789.855-2.982 1.092-3.9-1.221-.852-2.166-1.77-4.218-2.034-5.016a.818.818 0 01.525-1.056s.063-1.2 2.082-.384c2.02.816 3.438 2.046 4.338 4.011.9 1.965.34 3.399-1.01 3.666z" fill="#fff"/><path d="M22.037 110.7a11.614 11.614 0 00-.174-1.2c-.167-.79-.39-1.567-.669-2.325a17.102 17.102 0 00-2.34-4.317 14.787 14.787 0 00-1.836-2.082c-.021-.021-.036.027-.024.042a18.196 18.196 0 012.877 3.975 18.431 18.431 0 011.665 4.5c.099.438.195.879.276 1.323.081.444.129.9.204 1.353 0 .045.078.075.081 0a8.396 8.396 0 00-.06-1.269z" fill="#459AE9"/><path opacity=".3" d="M22.037 110.7a11.614 11.614 0 00-.174-1.2c-.167-.79-.39-1.567-.669-2.325a17.102 17.102 0 00-2.34-4.317 14.787 14.787 0 00-1.836-2.082c-.021-.021-.036.027-.024.042a18.196 18.196 0 012.877 3.975 18.431 18.431 0 011.665 4.5c.099.438.195.879.276 1.323.081.444.129.9.204 1.353 0 .045.078.075.081 0a8.396 8.396 0 00-.06-1.269z" fill="#000"/><path d="M22.712 107.031c-1.8.561-3.16-.852-2.7-3.072.459-2.22 2.796-4.68 3.678-4.017.549-.549 1.758-.351 2.328 1.449.57 1.8.057 6.426-3.306 5.64z" fill="#459AE9"/><path opacity=".25" d="M22.712 107.031c-1.8.561-3.16-.852-2.7-3.072.459-2.22 2.796-4.68 3.678-4.017.549-.549 1.758-.351 2.328 1.449.57 1.8.057 6.426-3.306 5.64z" fill="#fff"/><path d="M23.774 101.292a24.466 24.466 0 00-1.2 3.984 39.152 39.152 0 00-.699 4.173 65.296 65.296 0 00-.363 8.178c0 .753 0 1.5.03 2.262s0 1.563.069 2.337c.027.3.447.216.453-.054.027-1.359-.048-2.724-.06-4.083-.012-1.359 0-2.685.024-4.029.045-2.734.288-5.461.726-8.16.132-.753.273-1.5.45-2.247.177-.747.411-1.551.6-2.325.024-.039-.012-.078-.03-.036z" fill="#459AE9"/><path opacity=".3" d="M23.774 101.292a24.466 24.466 0 00-1.2 3.984 39.152 39.152 0 00-.699 4.173 65.296 65.296 0 00-.363 8.178c0 .753 0 1.5.03 2.262s0 1.563.069 2.337c.027.3.447.216.453-.054.027-1.359-.048-2.724-.06-4.083-.012-1.359 0-2.685.024-4.029.045-2.734.288-5.461.726-8.16.132-.753.273-1.5.45-2.247.177-.747.411-1.551.6-2.325.024-.039-.012-.078-.03-.036z" fill="#000"/><path d="M19.775 113.535c-.792.9-2.607.819-3.822-.78-1.215-1.599-1.947-7.614-.237-7.23.363-.804 5.1 1.125 5.7 5.049.432 2.853-1.641 2.961-1.641 2.961z" fill="#459AE9"/><path opacity=".25" d="M19.775 113.535c-.792.9-2.607.819-3.822-.78-1.215-1.599-1.947-7.614-.237-7.23.363-.804 5.1 1.125 5.7 5.049.432 2.853-1.641 2.961-1.641 2.961z" fill="#fff"/><path d="M21.176 116.379a8.62 8.62 0 00-.231-1.098 22.975 22.975 0 00-.705-2.175 22.811 22.811 0 00-2.1-4.149 20.559 20.559 0 00-1.5-2.121c0-.018-.03.024-.021.036.423.618.852 1.227 1.233 1.869.38.642.723 1.359 1.056 2.064a28.5 28.5 0 011.56 4.185c.117.408.213.822.333 1.227.12.405.282.834.387 1.263.018.06.096.084.087 0-.036-.366-.048-.735-.1-1.101z" fill="#459AE9"/><path opacity=".3" d="M21.176 116.379a8.62 8.62 0 00-.231-1.098 22.975 22.975 0 00-.705-2.175 22.811 22.811 0 00-2.1-4.149 20.559 20.559 0 00-1.5-2.121c0-.018-.03.024-.021.036.423.618.852 1.227 1.233 1.869.38.642.723 1.359 1.056 2.064a28.5 28.5 0 011.56 4.185c.117.408.213.822.333 1.227.12.405.282.834.387 1.263.018.06.096.084.087 0-.036-.366-.048-.735-.1-1.101z" fill="#000"/><path d="M22.658 112.647c-1.035-.234-1.086-1.479.207-3 1.293-1.521 4.557-2.193 4.713-1.548.723 0 .723 2.271-.879 4.356-1.602 2.085-3.942 1.596-4.04.192z" fill="#459AE9"/><path opacity=".25" d="M22.658 112.647c-1.035-.234-1.086-1.479.207-3 1.293-1.521 4.557-2.193 4.713-1.548.723 0 .723 2.271-.879 4.356-1.602 2.085-3.942 1.596-4.04.192z" fill="#fff"/><path d="M24.689 110.427a8.493 8.493 0 00-1.8 1.704 8.324 8.324 0 00-1.2 2.166c-.036.09.117.219.156.123a9.528 9.528 0 012.847-3.972s.009-.03-.003-.021z" fill="#459AE9"/><path opacity=".3" d="M24.689 110.427a8.493 8.493 0 00-1.8 1.704 8.324 8.324 0 00-1.2 2.166c-.036.09.117.219.156.123a9.528 9.528 0 012.847-3.972s.009-.03-.003-.021z" fill="#000"/><path d="M23.843 120.225c-1.434.579-.82 2.289.579 3.585a6.402 6.402 0 004.368 1.572c.963-.069 1.2-.201 1.2-.201a10.92 10.92 0 000-2.373 4.584 4.584 0 00-3.381-3.642c-2.23-.606-2.766.204-2.766 1.059z" fill="#459AE9"/><path opacity=".45" d="M23.843 120.225c-1.434.579-.82 2.289.579 3.585a6.402 6.402 0 004.368 1.572c.963-.069 1.2-.201 1.2-.201a10.92 10.92 0 000-2.373 4.584 4.584 0 00-3.381-3.642c-2.23-.606-2.766.204-2.766 1.059z" fill="#fff"/><path d="M27.815 122.748a11.603 11.603 0 00-2.199-2.034c-.816-.537-1.905-.996-2.883-.66-.38.129-.972.507-.9.978 0 .045.09.162.147.099a3.68 3.68 0 01.516-.6 1.53 1.53 0 01.771-.3c.7-.048 1.4.112 2.01.459.97.513 1.752 1.311 2.526 2.076.01.012.018-.012.012-.018z" fill="#459AE9"/><path opacity=".3" d="M27.815 122.748a11.603 11.603 0 00-2.199-2.034c-.816-.537-1.905-.996-2.883-.66-.38.129-.972.507-.9.978 0 .045.09.162.147.099a3.68 3.68 0 01.516-.6 1.53 1.53 0 01.771-.3c.7-.048 1.4.112 2.01.459.97.513 1.752 1.311 2.526 2.076.01.012.018-.012.012-.018z" fill="#000"/><path d="M18.38 112.878c.138-.651-.807-2.217-3.747-2.517-2.94-.3-5.145.939-5.59 1.518-.443.579-.668 1.17-.134 1.32.534.15 2.37.327 3.579.882 1.209.555 3.657 2.196 5.33 1.71 1.675-.486 1.396-2.262.562-2.913z" fill="#459AE9"/><path opacity=".45" d="M18.38 112.878c.138-.651-.807-2.217-3.747-2.517-2.94-.3-5.145.939-5.59 1.518-.443.579-.668 1.17-.134 1.32.534.15 2.37.327 3.579.882 1.209.555 3.657 2.196 5.33 1.71 1.675-.486 1.396-2.262.562-2.913z" fill="#fff"/><path d="M20.615 115.155c-1.239-2.562-4.437-3.342-7.05-3.33-.86.004-1.715.116-2.547.333v.03a13.509 13.509 0 014.257-.045 8.83 8.83 0 013.9 1.5 5.3 5.3 0 011.383 1.557c.036.066.084 0 .057-.045z" fill="#459AE9"/><path opacity=".3" d="M20.615 115.155c-1.239-2.562-4.437-3.342-7.05-3.33-.86.004-1.715.116-2.547.333v.03a13.509 13.509 0 014.257-.045 8.83 8.83 0 013.9 1.5 5.3 5.3 0 011.383 1.557c.036.066.084 0 .057-.045z" fill="#000"/><path d="M25.232 109.446c-.036 1.029 1.41 1.626 2.811.738 1.401-.888 2.871-1.755 4.167-2.1 1.296-.345 1.914-1.395 1.5-1.908-.414-.513-1.062-1.8-4.473-1.383-3.41.417-4.623 1.962-5.1 3.045-.477 1.083.582 1.905 1.095 1.608z" fill="#459AE9"/><path opacity=".45" d="M25.232 109.446c-.036 1.029 1.41 1.626 2.811.738 1.401-.888 2.871-1.755 4.167-2.1 1.296-.345 1.914-1.395 1.5-1.908-.414-.513-1.062-1.8-4.473-1.383-3.41.417-4.623 1.962-5.1 3.045-.477 1.083.582 1.905 1.095 1.608z" fill="#fff"/><path d="M30.788 106.182a3.72 3.72 0 00-1.464.153c-.431.11-.851.261-1.254.45a6.872 6.872 0 00-2.133 1.545c-.173.18-.334.37-.483.57-.15.182-.271.384-.363.6-.024.069.075.177.135.108.168-.192.3-.432.453-.636.17-.221.354-.431.55-.63a6.969 6.969 0 011.316-1.035c.46-.285.947-.522 1.455-.708.279-.1.562-.185.85-.255a2.9 2.9 0 01.93-.129s.023-.015.008-.033z" fill="#459AE9"/><path opacity=".3" d="M30.788 106.182a3.72 3.72 0 00-1.464.153c-.431.11-.851.261-1.254.45a6.872 6.872 0 00-2.133 1.545c-.173.18-.334.37-.483.57-.15.182-.271.384-.363.6-.024.069.075.177.135.108.168-.192.3-.432.453-.636.17-.221.354-.431.55-.63a6.969 6.969 0 011.316-1.035c.46-.285.947-.522 1.455-.708.279-.1.562-.185.85-.255a2.9 2.9 0 01.93-.129s.023-.015.008-.033z" fill="#000"/><path d="M22.775 114.999c-.48-.48-1.776-.369-2.4 1.047-.624 1.416.675 2.958.82 3.393.6-.342 1.055-.138 2.1-.342a2.601 2.601 0 001.997-2.598c-.048-1.299-.597-2.148-2.517-1.5z" fill="#459AE9"/><path opacity=".45" d="M22.775 114.999c-.48-.48-1.776-.369-2.4 1.047-.624 1.416.675 2.958.82 3.393.6-.342 1.055-.138 2.1-.342a2.601 2.601 0 001.997-2.598c-.048-1.299-.597-2.148-2.517-1.5z" fill="#fff"/><path d="M22.775 114.855a1.93 1.93 0 00-.642.645c-.17.245-.308.511-.411.792a3.354 3.354 0 00-.18 1.8c0 .024.021 0 .021 0a3.686 3.686 0 01.3-1.779 3.59 3.59 0 01.429-.714 3.43 3.43 0 01.3-.333c.1-.082.192-.175.273-.276.027-.054-.027-.168-.09-.135z" fill="#459AE9"/><path opacity=".3" d="M22.775 114.855a1.93 1.93 0 00-.642.645c-.17.245-.308.511-.411.792a3.354 3.354 0 00-.18 1.8c0 .024.021 0 .021 0a3.686 3.686 0 01.3-1.779 3.59 3.59 0 01.429-.714 3.43 3.43 0 01.3-.333c.1-.082.192-.175.273-.276.027-.054-.027-.168-.09-.135z" fill="#000"/><path d="M20.534 117.861c-.045-1.05-1.2-1.884-2.808-2.367a4.417 4.417 0 00-4.551 1.206c-1.185 1.287-1.8 2.4-1.317 2.7.483.3 2.63 1.095 4.035 1.533 1.404.438 3.243.57 4.647-.261 1.404-.831 1.308-2.283-.006-2.811z" fill="#459AE9"/><path opacity=".25" d="M20.534 117.861c-.045-1.05-1.2-1.884-2.808-2.367a4.417 4.417 0 00-4.551 1.206c-1.185 1.287-1.8 2.4-1.317 2.7.483.3 2.63 1.095 4.035 1.533 1.404.438 3.243.57 4.647-.261 1.404-.831 1.308-2.283-.006-2.811z" fill="#fff"/><path d="M20.624 117.744a4.446 4.446 0 00-1.75-.471 8.004 8.004 0 00-1.763.021 11.17 11.17 0 00-1.836.387c-.3.093-.624.195-.93.3a6.16 6.16 0 00-.846.351s-.018.039 0 .036c.3-.063.6-.177.879-.267.279-.09.627-.189.945-.273a12.23 12.23 0 011.8-.339 8.115 8.115 0 011.83 0c.56.095 1.113.232 1.653.411.114.039.069-.12.018-.156z" fill="#459AE9"/><path opacity=".3" d="M20.624 117.744a4.446 4.446 0 00-1.75-.471 8.004 8.004 0 00-1.763.021 11.17 11.17 0 00-1.836.387c-.3.093-.624.195-.93.3a6.16 6.16 0 00-.846.351s-.018.039 0 .036c.3-.063.6-.177.879-.267.279-.09.627-.189.945-.273a12.23 12.23 0 011.8-.339 8.115 8.115 0 011.83 0c.56.095 1.113.232 1.653.411.114.039.069-.12.018-.156z" fill="#000"/><path d="M23.879 116.295c-1.158-.921-.771-3.129 3.285-3.249 4.056-.12 6.957.942 6.828 2.247.65.654.32 2.481-2.964 3.054-3.285.573-7.986.285-7.15-2.052z" fill="#459AE9"/><path opacity=".25" d="M23.879 116.295c-1.158-.921-.771-3.129 3.285-3.249 4.056-.12 6.957.942 6.828 2.247.65.654.32 2.481-2.964 3.054-3.285.573-7.986.285-7.15-2.052z" fill="#fff"/><path d="M32.075 115.308a17.477 17.477 0 00-3.627-.213 14.11 14.11 0 00-3.345.384 4.837 4.837 0 00-1.173.489c-.093.057-.195.105-.228.213a.11.11 0 00.003.05.103.103 0 00.025.044.104.104 0 00.042.028.106.106 0 00.05.007 4.42 4.42 0 00.71-.351c.229-.101.463-.187.703-.258.462-.13.933-.222 1.41-.276a25.148 25.148 0 013.426-.189c.666 0 1.329.06 1.995.111.03.009.036-.036.009-.039z" fill="#459AE9"/><path opacity=".3" d="M32.075 115.308a17.477 17.477 0 00-3.627-.213 14.11 14.11 0 00-3.345.384 4.837 4.837 0 00-1.173.489c-.093.057-.195.105-.228.213a.11.11 0 00.003.05.103.103 0 00.025.044.104.104 0 00.042.028.106.106 0 00.05.007 4.42 4.42 0 00.71-.351c.229-.101.463-.187.703-.258.462-.13.933-.222 1.41-.276a25.148 25.148 0 013.426-.189c.666 0 1.329.06 1.995.111.03.009.036-.036.009-.039z" fill="#000"/><path d="M131.345 49.425a5.518 5.518 0 01-1.5 3.783l-.456.435a5.53 5.53 0 01-7.8-7.773l.435-.46a5.526 5.526 0 015.979-1.053 5.53 5.53 0 013.342 5.068z" fill="#fff"/><path d="M125.798 43.437a6.001 6.001 0 00-4.72 9.69 5.996 5.996 0 003.748 2.229l.678 1.737a.35.35 0 00.523.163.343.343 0 00.128-.163l.669-1.74a6.002 6.002 0 004.978-6.43 6 6 0 00-6.004-5.486zm5.547 6a5.518 5.518 0 01-1.5 3.783l-.456.435a5.528 5.528 0 01-7.8-7.773l.435-.46a5.532 5.532 0 018.408.981c.594.9.911 1.955.913 3.034z" fill="#E0E0E0"/><path opacity=".7" d="M131.345 49.425a5.518 5.518 0 01-1.5 3.783l-.456.435a5.53 5.53 0 01-7.8-7.773l.435-.46a5.526 5.526 0 015.979-1.053 5.53 5.53 0 013.342 5.068z" fill="#fff"/><path d="M122.975 48.708a.73.73 0 100 1.46.73.73 0 000-1.46zm5.673 0a.73.73 0 100 1.46.73.73 0 000-1.46zm-2.835 0a.73.73 0 100 1.46.73.73 0 000-1.46z" fill="#459AE9"/><path d="M91.574 72.504a5.52 5.52 0 01-1.5 3.783l-.456.438a5.529 5.529 0 01-7.8-7.776l.438-.459a5.527 5.527 0 019.318 4.014z" fill="#fff"/><path d="M86.027 66.516a6 6 0 00-.972 11.922l.678 1.737a.348.348 0 00.65 0l.67-1.74a6 6 0 00-1.026-11.916v-.003zm5.547 6a5.52 5.52 0 01-1.5 3.783l-.456.438a5.529 5.529 0 01-7.8-7.776l.438-.459a5.525 5.525 0 019.318 4.014z" fill="#E0E0E0"/><path opacity=".7" d="M91.574 72.504a5.52 5.52 0 01-1.5 3.783l-.456.438a5.529 5.529 0 01-7.8-7.776l.438-.459a5.527 5.527 0 019.318 4.014z" fill="#fff"/><path d="M83.789 69.213a4.48 4.48 0 01.432-.33c.16-.106.33-.198.507-.273a3.28 3.28 0 011.278-.246c.311-.004.621.042.918.138a2.1 2.1 0 01.71.396c.196.171.352.383.457.621.11.258.166.536.162.816a1.99 1.99 0 01-.447 1.32 2.344 2.344 0 01-.417.411l-.432.327c-.123.093-.24.193-.351.3a.6.6 0 00-.177.333l-.132.843h-.978l-.1-.942a.759.759 0 01.079-.477 1.5 1.5 0 01.3-.378c.133-.118.273-.228.42-.33.153-.104.298-.22.435-.345a1.85 1.85 0 00.339-.423c.093-.17.14-.363.135-.558a.841.841 0 00-.294-.657.942.942 0 00-.333-.183 1.357 1.357 0 00-.42-.063 1.882 1.882 0 00-.948.234c-.105.06-.195.114-.267.162a.38.38 0 01-.198.072.3.3 0 01-.3-.174l-.378-.594zm1.086 6.186a.878.878 0 01.249-.618.858.858 0 01.279-.186.835.835 0 01.345-.069.817.817 0 01.345.069.868.868 0 01.468.462.9.9 0 010 .687.939.939 0 01-.19.276.874.874 0 01-.278.18.898.898 0 01-.69 0 .843.843 0 01-.28-.18.865.865 0 01-.248-.621z" fill="#459AE9"/><path d="M32.675 26.913c0-4.113-4.662-7.467-10.419-7.467-5.757 0-10.425 3.354-10.425 7.467 0 4.113 4.668 7.467 10.425 7.467.345 0 .69 0 1.026-.036 1.14 2.142 3.075 2.508 4.581 2.337a2.816 2.816 0 01-1.608-2.871c3.771-1.11 6.42-3.786 6.42-6.897z" fill="#fff"/><path d="M27.23 36.825a4.359 4.359 0 01-4.01-2.367c-.325.021-.649.033-.964.033-5.808 0-10.533-3.399-10.533-7.578s4.725-7.575 10.533-7.575 10.533 3.399 10.533 7.575c0 3.06-2.514 5.787-6.432 6.987a2.718 2.718 0 001.551 2.7.114.114 0 01.063.117.11.11 0 01-.096.09c-.214.018-.43.024-.645.018zm-3.948-2.589a.109.109 0 01.096.057 4.2 4.2 0 004.107 2.307 2.961 2.961 0 01-1.338-2.802.102.102 0 01.075-.093c3.858-1.149 6.348-3.816 6.348-6.795 0-4.056-4.626-7.359-10.314-7.359s-10.314 3.3-10.314 7.359 4.626 7.359 10.314 7.359c.333 0 .675 0 1.02-.036l.006.003z" fill="#459AE9"/><path d="M18.77 27.126a1.062 1.062 0 11-2.125 0 1.062 1.062 0 012.125 0zm4.545 0a1.059 1.059 0 11-2.117-.006 1.059 1.059 0 012.117.006zm4.56 0a1.062 1.062 0 11-2.124 0 1.062 1.062 0 012.124 0z" fill="#459AE9"/><path d="M18.77 27.126a1.062 1.062 0 11-2.125 0 1.062 1.062 0 012.125 0zm4.545 0a1.059 1.059 0 11-2.117-.006 1.059 1.059 0 012.117.006zm4.56 0a1.062 1.062 0 11-2.124 0 1.062 1.062 0 012.124 0z" opacity=".3" fill="#fff"/><path d="M116.612 100.683c-.255.684-1.443.558-2.718.6-1.032.033-2.226-.159-2.88.183-.654.342-.783 1.137.3 2.043 1.353 1.128 3.141 1.002 4.146 1.101 1.005.099 1.596.45 2.505.423 1.179-.036 1.869-.441 2.025-.78.156-.339-.021-2.862-.513-2.739 0 0 .051-.078-1.68-.138-1.209-.039-1.185-.693-1.185-.693z" fill="#263238"/><path d="M119.474 101.667c0-.042.3-2.376.3-2.376s-.048-.204-1.452-.249c-.69-.024-1.5-.6-1.566-.054a38.746 38.746 0 00-.132 1.695c-.255.684-1.443.558-2.718.6h-.66c-.681.063-1.302.567-.513 1.044.789.477 1.983.525 3.084.561 1.296.042 3.612.09 3.657-1.221z" fill="#FFA8A7"/><path d="M116.267 85.746c-.105 2.547.243 14.562.243 14.562s1.2.585 3.186-.093l1.314-13.041-4.743-1.428z" fill="#37474F"/><path d="M110.51 103.671c-.228.693-2.067.99-3.342 1.074-1.029.066-2.229-.081-2.871.279-.642.36-.747 1.167.366 2.031 1.392 1.086 3.822.516 4.827.579 1.005.063 1.584.276 2.4.267 1.182 0 1.587-.438 1.731-.783.144-.345.276-2.853-.207-2.7 0 0 .045-.081-1.686-.081-1.218-.012-1.218-.666-1.218-.666z" fill="#263238"/><path d="M113.405 104.556c0-.039.93-3.729.93-3.729a2.809 2.809 0 01-2.181 1.146c-.69 0-1.5-.546-1.569 0-.069.546-.051 1.053-.126 1.557-.075.504-1.593.987-2.982 1.146-.216.024-.747.087-.969.09-.774.069-1.545.678-.741 1.128.804.45 2.907 0 4.008 0 1.311.006 3.63-.024 3.63-1.338z" fill="#FFA8A7"/><path d="M111.161 90.36c-.3 2.64-.585 10.125-.651 12.216 0 0 1.752.711 3.402.21 0 0 2.31-7.5 2.136-10.329-.081-1.341-4.887-2.097-4.887-2.097z" fill="#455A64"/><path d="M138.647 111.696l-1.899-15.852-1.551-.078 2.67 15.927a.223.223 0 00.105.141.595.595 0 00.552.027.19.19 0 00.123-.165z" fill="#263238"/><path d="M117.374 94.407h-1.554l-2.262 14.97a.196.196 0 00.114.171.62.62 0 00.555 0 .217.217 0 00.108-.135l3.039-15.006z" fill="#37474F"/><path d="M115.82 94.407l-.645 4.176c.371.29.773.535 1.2.732l.993-4.908h-1.548z" fill="#263238"/><path d="M128.261 117l-1.461-16.122-1.551-.078 2.226 16.2a.219.219 0 00.105.138.622.622 0 00.552.03c.084-.045.126-.105.123-.165l.006-.003z" fill="#37474F"/><path d="M127.016 103.245l-.216-2.355-1.551-.078.351 2.55c.474.083.962.043 1.416-.117zm-1.158-13.773h-1.554l-2.262 14.97a.19.19 0 00.114.171.597.597 0 00.555 0 .199.199 0 00.068-.054.2.2 0 00.04-.078l3.039-15.01z" fill="#263238"/><path d="M114.875 94.098c-.219-1.227.78-2.184 2.658-3.453a44.666 44.666 0 015.442-3.045c1.572-.723 3.18-.657 5.193.378C130.955 89.4 139.37 94.5 139.37 94.5s-12.579 7.101-15 6.783c-2.421-.318-8.472-4.251-8.949-5.637-.477-1.386-.546-1.548-.546-1.548z" fill="#459AE9"/><path d="M114.875 94.098c-.219-1.227.78-2.184 2.658-3.453a44.666 44.666 0 015.442-3.045c1.572-.723 3.18-.657 5.193.378C130.955 89.4 139.37 94.5 139.37 94.5s-12.579 7.101-15 6.783c-2.421-.318-8.472-4.251-8.949-5.637-.477-1.386-.546-1.548-.546-1.548z" fill="#fff" opacity=".6"/><path d="M125.585 99.795c-1.8 1.635-3.693.228-6.681-1.71-3.378-2.193-4.029-3.987-4.029-3.987s0 1.344.252 1.974c.252.63.798 1.344 3.234 3.027s4.2 2.52 5.841 2.832l1.293-.177" fill="#459AE9"/><path opacity=".25" d="M118.904 98.1c-3.378-2.208-4.029-4.002-4.029-4.002s0 1.344.252 1.974c.252.63.798 1.344 3.234 3.027s4.2 2.52 5.841 2.832l1.293-.177.102-1.96c-1.818 1.636-3.705.229-6.693-1.694z" fill="#fff"/><path d="M135.524 88.947s-10.563-3.186-12.399-3.69c-1.836-.504-5.358-1.347-6.387-.9-1.029.447-1.551.996-1.647 2.48-.018.28 0 1.639 0 1.639s5.1 1.58 9.3 1.58c4.2 0 11.133-1.11 11.133-1.11z" fill="#37474F"/><path d="M136.274 87.9c.663 2.262 1.017 5.016-.567 6.648-1.152 1.2-4.092 3.927-10.404 3.66-2.856-.123-10.857-5.7-10.857-5.7s-3.021-.477-3.039-1.539c0-.258-.3-.321-.246-.6.438-2.319 1.893-3.447 3.924-3.285 3.375.273 10.932 2.4 10.932 2.4l10.257-1.584z" fill="#455A64"/><path d="M124.046 69.735l1.056 4.581 3.879-.81-1.338-5.067-3.597 1.296z" fill="#FFA8A7"/><path d="M117.092 74.946l6.183 7.038.027.186-.042.14a.27.27 0 01-.138.163l-6.636 3.3a.271.271 0 01-.153.027.224.224 0 01-.126-.066l-6-7.23.042-.141 6.843-3.417z" fill="#263238"/><path d="M116.375 85.662c.053.008.106 0 .153-.024l6.633-3.3a.255.255 0 00.086-.066.254.254 0 00.052-.096.187.187 0 00.011-.097.196.196 0 00-.038-.09l-5.949-7.148-7.089 3.53 6.015 7.23a.199.199 0 00.126.06z" fill="#455A64"/><path d="M117.44 74.424l5.913 7.11.018.078-.171.546a.117.117 0 01-.063.066l-6.633 3.3a.164.164 0 01-.192-.03l-5.913-7.107.171-.546 6.87-3.417z" fill="#F5F5F5"/><path d="M110.57 77.847l.036.042.474.57.09.108 5.313 6.39a.163.163 0 00.189.027l6.636-3.3c.066-.033.087-.099.045-.147l-.039-.045-5.874-7.065-6.813 3.393-.057.027z" fill="#EBEBEB"/><path d="M116.57 84.999l-.171.546c.034.01.071.01.105 0l6.633-3.3a.117.117 0 00.063-.066l.171-.546a.124.124 0 01-.063.069l-6.636 3.3a.17.17 0 01-.102-.003z" fill="#E0E0E0"/><path d="M110.591 77.775l.528.627.081.099 5.304 6.38a.164.164 0 00.192.03l5.943-2.96.147-.072a1.75 1.75 0 00.528-.39l.018-.018a.243.243 0 00.021-.036.102.102 0 00-.027-.138 1.318 1.318 0 01-.3-.252l-5.559-6.687-6.876 3.417z" fill="#FAFAFA"/><path opacity=".1" d="M111.329 77.814a.092.092 0 01.013.08.097.097 0 01-.022.036.088.088 0 01-.036.022.152.152 0 01-.177-.027c-.039-.045-.018-.105.042-.135a.15.15 0 01.18.024z" fill="#000"/><path d="M110.654 77.637c0 .039-.021.081-.03.12l.078-.039.018-.069a.465.465 0 01.183-.279.101.101 0 01.072 0 .15.15 0 01.096.06c.1.163.138.357.108.546a.135.135 0 00.069 0 .9.9 0 00-.123-.618.18.18 0 00-.231-.057.569.569 0 00-.24.336z" fill="#459AE9"/><path d="M110.618 77.805a.054.054 0 000 .018v-.018z" fill="#263238"/><path opacity=".1" d="M111.992 77.484c.039.045.018.105-.042.135a.145.145 0 01-.177-.024.078.078 0 01-.017-.038.086.086 0 01.002-.042.085.085 0 01.057-.058.154.154 0 01.177.027z" fill="#000"/><path d="M111.32 77.307c0 .039-.021.078-.03.12l.078-.039.018-.072a.465.465 0 01.183-.279.168.168 0 01.165.06c.101.164.14.359.111.549a.135.135 0 00.069 0 .9.9 0 00-.123-.618.18.18 0 00-.234-.057.567.567 0 00-.237.336z" fill="#459AE9"/><path opacity=".1" d="M112.658 77.154a.087.087 0 01.017.037.094.094 0 01-.003.041.082.082 0 01-.021.035.092.092 0 01-.035.022.155.155 0 01-.18-.027c-.036-.045-.018-.105.045-.135a.153.153 0 01.177.027z" fill="#000"/><path d="M111.986 76.977a.794.794 0 00-.03.117l.075-.04c0-.02 0-.044.021-.068a.481.481 0 01.18-.28.123.123 0 01.072 0 .15.15 0 01.096.06c.1.164.138.358.108.547a.135.135 0 00.069 0 .899.899 0 00-.12-.618.184.184 0 00-.234-.057.576.576 0 00-.237.339z" fill="#459AE9"/><path opacity=".1" d="M113.324 76.82a.08.08 0 01.016.04.098.098 0 01-.003.041.097.097 0 01-.022.036.088.088 0 01-.036.022.152.152 0 01-.177-.027c-.039-.045-.018-.105.042-.138a.157.157 0 01.18.027z" fill="#000"/><path d="M112.649 76.644c0 .039-.021.078-.03.12l.078-.039.018-.069a.447.447 0 01.183-.279.125.125 0 01.072-.015.153.153 0 01.093.063.782.782 0 01.111.546.134.134 0 00.069 0 .9.9 0 00-.123-.618.18.18 0 00-.231-.057.559.559 0 00-.24.348z" fill="#459AE9"/><path opacity=".1" d="M113.975 76.5c.039.045.018.105-.042.135a.145.145 0 01-.177-.024.09.09 0 01-.018-.038.086.086 0 01.003-.042.085.085 0 01.057-.058.154.154 0 01.177.027z" fill="#000"/><path d="M113.315 76.314c0 .039-.021.078-.03.12l.078-.04.018-.071a.47.47 0 01.183-.28.118.118 0 01.069 0 .18.18 0 01.096.06c.101.165.14.36.111.55h.069a.9.9 0 00-.123-.618.181.181 0 00-.234-.06.597.597 0 00-.237.339z" fill="#459AE9"/><path opacity=".1" d="M114.653 76.158a.09.09 0 01.016.038.083.083 0 01-.002.041.114.114 0 01-.021.036.095.095 0 01-.035.023.155.155 0 01-.18-.027c-.036-.045-.018-.105.045-.135a.15.15 0 01.177.024z" fill="#000"/><path d="M113.975 75.984a.784.784 0 00-.03.117l.078-.039a.402.402 0 01.018-.069.481.481 0 01.18-.279.123.123 0 01.072 0 .15.15 0 01.096.06c.1.163.138.357.108.546a.134.134 0 00.069 0 .899.899 0 00-.12-.618.184.184 0 00-.234-.057.58.58 0 00-.237.339z" fill="#459AE9"/><path opacity=".1" d="M115.319 75.828c.036.045.018.105-.045.138a.153.153 0 01-.177-.027.09.09 0 01-.018-.038.1.1 0 01.002-.042.099.099 0 01.022-.036.085.085 0 01.036-.022.156.156 0 01.18.027z" fill="#000"/><path d="M114.644 75.651c0 .039-.021.078-.03.12l.078-.039.018-.072a.45.45 0 01.183-.276.125.125 0 01.072-.015c.037.008.07.03.093.06a.796.796 0 01.111.549.134.134 0 00.069 0 .9.9 0 00-.123-.618.18.18 0 00-.24-.06.56.56 0 00-.231.351z" fill="#459AE9"/><path opacity=".1" d="M115.982 75.498c.039.045.018.105-.042.135a.147.147 0 01-.165-.033c-.039-.045-.021-.105.042-.135a.152.152 0 01.165.033z" fill="#000"/><path d="M115.31 75.321c0 .039-.021.078-.03.117l.078-.036.018-.072a.47.47 0 01.183-.28.118.118 0 01.069 0 .152.152 0 01.096.06.808.808 0 01.111.55.178.178 0 00.069 0 .9.9 0 00-.123-.618.18.18 0 00-.231-.057.57.57 0 00-.24.336z" fill="#459AE9"/><path opacity=".1" d="M116.648 75.165a.09.09 0 01.016.038.083.083 0 01-.002.041.097.097 0 01-.021.036.094.094 0 01-.035.023.156.156 0 01-.18-.027c-.036-.045-.018-.105.045-.135a.148.148 0 01.177.024z" fill="#000"/><path d="M115.976 75a.832.832 0 00-.03.12l.075-.04a.74.74 0 01.201-.347.103.103 0 01.072 0 .15.15 0 01.096.06c.1.163.139.357.108.546a.134.134 0 00.069 0 .899.899 0 00-.12-.618.184.184 0 00-.234-.057.585.585 0 00-.237.336z" fill="#459AE9"/><path opacity=".1" d="M117.314 74.835c.036.045.018.105-.045.135a.149.149 0 01-.177-.024.09.09 0 01-.018-.038.086.086 0 01.003-.042.085.085 0 01.057-.058.158.158 0 01.18.027z" fill="#000"/><path d="M116.639 74.658c0 .039-.021.078-.03.12l.078-.04.018-.071a.47.47 0 01.183-.28.154.154 0 01.072 0 .18.18 0 01.096.06c.1.165.138.36.108.55a.134.134 0 00.069 0 .894.894 0 00-.123-.618.174.174 0 00-.104-.073.179.179 0 00-.127.016.574.574 0 00-.24.336z" fill="#459AE9"/><path d="M110.654 77.637c0 .039-.021.08-.03.12l.078-.04.018-.068a.465.465 0 01.183-.28.101.101 0 01.072 0 .15.15 0 01.096.06c.1.164.138.358.108.547a.135.135 0 00.069 0 .9.9 0 00-.123-.618.18.18 0 00-.231-.057.569.569 0 00-.24.336zm.666-.33c0 .039-.021.078-.03.12l.078-.039.018-.072a.465.465 0 01.183-.279.168.168 0 01.165.06c.101.164.14.359.111.549a.135.135 0 00.069 0 .9.9 0 00-.123-.618.18.18 0 00-.234-.057.567.567 0 00-.237.336zm.666-.33a.794.794 0 00-.03.117l.075-.04c0-.02 0-.044.021-.068a.481.481 0 01.18-.28.123.123 0 01.072 0 .15.15 0 01.096.06c.1.164.138.358.108.547a.135.135 0 00.069 0 .899.899 0 00-.12-.618.184.184 0 00-.234-.057.576.576 0 00-.237.339zm.663-.333c0 .039-.021.078-.03.12l.078-.04.018-.068a.447.447 0 01.183-.28.125.125 0 01.072-.014c.038.008.071.03.093.063a.782.782 0 01.111.546.137.137 0 00.069 0 .9.9 0 00-.123-.618.179.179 0 00-.231-.057.559.559 0 00-.24.348zm.666-.33c0 .039-.021.078-.03.12l.078-.04.018-.071a.47.47 0 01.183-.28.118.118 0 01.069 0 .18.18 0 01.096.06c.101.165.14.36.111.55h.069a.9.9 0 00-.123-.618.181.181 0 00-.234-.06.597.597 0 00-.237.339zm.66-.33a.781.781 0 00-.03.117l.078-.04a.276.276 0 01.018-.068.471.471 0 01.18-.28.123.123 0 01.072 0 .152.152 0 01.096.06.81.81 0 01.108.547.134.134 0 00.069 0 .899.899 0 00-.12-.618.184.184 0 00-.234-.057.575.575 0 00-.237.339zm.669-.334c0 .04-.021.079-.03.12l.078-.038.018-.072a.45.45 0 01.183-.276.125.125 0 01.072-.015c.037.008.07.03.093.06a.796.796 0 01.111.549.137.137 0 00.069 0 .9.9 0 00-.123-.618.18.18 0 00-.24-.06.56.56 0 00-.231.35zm.666-.329c0 .039-.021.078-.03.117l.078-.036.018-.072a.47.47 0 01.183-.28.118.118 0 01.069 0 .152.152 0 01.096.06.808.808 0 01.111.55.178.178 0 00.069 0 .9.9 0 00-.123-.618.18.18 0 00-.231-.057.57.57 0 00-.24.336zm.666-.321a.832.832 0 00-.03.12l.075-.04a.732.732 0 01.201-.347.103.103 0 01.072 0 .152.152 0 01.096.06c.1.163.138.357.108.546a.134.134 0 00.069 0 .899.899 0 00-.12-.618.183.183 0 00-.234-.057.576.576 0 00-.237.336zm.663-.342c0 .039-.021.078-.03.12l.078-.04.018-.071a.461.461 0 01.183-.28.154.154 0 01.072 0c.038.01.071.03.096.06a.818.818 0 01.108.55.135.135 0 00.069 0 .9.9 0 00-.123-.618.179.179 0 00-.231-.057.57.57 0 00-.24.336z" opacity=".3" fill="#000"/><path d="M117.995 85.002l-.6.3c-.387-.9-.711-1.125-1.149-1.887-.684-1.2-1.38-1.308-1.716-1.239-.336.069.129.72.546 1.524.204.425.379.864.522 1.314l-2.124-2.556s.225 1.146.333 1.566c.108.42.147.567 1.602 2.049.108.108.201.198.285.273.465.477 1.026.936 1.74 1.596s1.524 1.161 2.136 1.254l-1.575-4.194z" fill="#F28F8F"/><path d="M128.717 80.682l-7.734-4.281c-.585-.76-1.002-1.257-1.851-1.701a2.25 2.25 0 00-1.08-.04c-1.089.283-2.967 1.885-1.608 2.728.81.504 2.016.51 2.733.765.566.253 1.11.555 1.626.9 1.914 1.275 4.5 3.117 6.564 4.53.783.534 1.542 1.038 2.4.285 1.392-1.233-1.05-3.186-1.05-3.186z" fill="#FFA8A7"/><path d="M118.379 76.131l-1.704 1.386a.74.74 0 01.192.087l.984-.651c.321-.21.711-.495.711-.495s.825-.075 1.176-.342-1.359.015-1.359.015z" fill="#F28F8F"/><path d="M115.25 77.283l-.831 1.29a.047.047 0 00-.01.028c0 .01.003.02.01.028a.045.045 0 00.054.013l1.452-.522-.675-.837z" fill="#FFA8A7"/><path d="M114.464 78.645l1.452-.522-.357-.441-.15.117-.948.801.003.045z" fill="#F28F8F"/><path d="M114.473 78.642a.044.044 0 01-.029.003.044.044 0 01-.025-.016.042.042 0 01-.01-.028c0-.01.004-.02.01-.028l.162-.252a.262.262 0 00.177.204h.027l-.312.117z" fill="#263238"/><path d="M120.992 74.1l-.111.09-.132.105-4.824 3.825a.69.69 0 01-.447-.222.706.706 0 01-.228-.615l4.818-3.831.255-.204c-.156.14.507.984.669.852z" fill="#455A64"/><path d="M120.992 74.1l-.111.09-.132.108-4.824 3.822a.727.727 0 01-.522-.3l5.073-4.086v-.027c.177.234.426.462.516.393z" fill="#37474F"/><path d="M120.575 74.43l-.246.198c-.072.057-.24-.057-.396-.222-.207-.219-.363-.546-.27-.627l.183-.144.066-.051c-.093.078.063.408.27.624.15.159.3.273.387.228 0 0 .006-.003.006-.006z" fill="#EBEBEB"/><path d="M120.509 74.478c-.165.138-.828-.708-.666-.846l.249-.198c-.165.138.501.984.663.846l-.246.198z" fill="#37474F"/><path d="M120.992 74.1l-.243.195c-.159.138-.81-.672-.681-.834l.246-.195c-.147.123.516.966.678.834z" fill="#EBEBEB"/><path d="M121.508 73.689l-.516.41c-.069.06-.234-.053-.39-.215-.21-.22-.369-.546-.279-.627l.516-.405c.21-.165.6.216.708.537a.28.28 0 01-.039.3z" fill="#F28F8F"/><path opacity=".1" d="M121.148 73.623a.83.83 0 01-.354-.648.184.184 0 01.084-.153c.213-.102.567.255.672.558a.279.279 0 01-.039.3c-.078.066-.216.048-.363-.057z" fill="#000"/><path d="M118.64 74.583a2.715 2.715 0 00-.465-.183 1.8 1.8 0 00-.75-.093.604.604 0 00-.273.087.967.967 0 00-.192.228c-.3.426-.786.654-1.08 1.074-.261.372-.6 1.46-.3 1.734.18.17.558-.243.708-.558.054.249.414.156.675-.351l.486-.945 1.191-.993z" fill="#FFA8A7"/><path d="M117.371 75.15a.304.304 0 00-.126.282c.011.126.034.25.069.372l.123-.225-.066-.43z" fill="#F28F8F"/><path d="M120.983 76.401c-.48-.6-.6-1.2-1.275-1.32-.675-.12-.972.021-1.746-.06-1.101-.117-.624.84.3 1.083.478.151.992.151 1.47 0 0 0 .822 1.296 1.251.297zm8.667-5.679c.6-.186 1.995-.282 2.745.183.75.465 1.5 1.326 2.16 3.6.519 1.758 1.698 6.486 1.5 8.01-.198 1.524-5.664 2.499-5.664 2.499l-.741-14.292z" fill="#FFA8A7"/><path d="M135.347 84.666a15.534 15.534 0 01-1.65-3.87c-.507-3.258.636-4.728-.6-7.875-.567-1.437-2.355-2.499-3.861-2.133-.393.096-.549.102-.918.198.264.759-2.508 1.566-3.78.864-.537.165-3.129 1.317-3.129 1.317-.549 1.095-.867 2.343-1.131 4.695-.108.957.3 2 .813 2.919a12.714 12.714 0 011.605 7.998c0 .081-.021.162-.033.243 0 0 2.349 2.622 8.1 1.575 5.124-.933 5.28-4.362 5.28-4.362a15.77 15.77 0 00-.696-1.569z" fill="#F0F0F0"/><path d="M117.914 84.624c.162-1.743.435-4.437.816-7.287.369-2.772.879-3.405 2.676-4.17 2.607 1.608 1.719 6.774 1.719 6.774s-.954 5.508-1.548 7.275c-.387 1.149-1.2 2.463-2.475 1.845-1.275-.618-1.35-2.694-1.188-4.437z" fill="#FFA8A7"/><path d="M121.034 65.256s-.93 1.458-.81 1.587.81.24.81.24v-1.827z" fill="#F28F8F"/><path d="M123.422 61.026c-.807.474-2.199 1.344-2.4 4.419-.207 3.159.258 4.236.708 4.623.3.264 2.376.321 2.952.135.969-.3 2.91-1.668 3.81-3.342 1.059-1.968 1.161-4.521-.234-5.445-1.965-1.299-4.155-.792-4.836-.39z" fill="#FFA8A7"/><path d="M126.14 70.242a2.927 2.927 0 01-1.2-.624c-.402-.321-.999-1.713-.96-2.1.015 0 .555.393 1.275-.3.72-.693.741-1.992-.243-2.262-.699-.198-1.2.345-1.461.9-.042.09-.099.189-.198.213-.15.033-.261-.135-.318-.279a1.395 1.395 0 00-.24-.48 1.317 1.317 0 01-.42-.81c-.01-.264.013-.528.069-.786-.318.279-.564.63-.717 1.023a1.662 1.662 0 01.018-1.482c-.34.376-.574.836-.678 1.332a1.482 1.482 0 01-.474-.942 3.226 3.226 0 01.9-2.622 5.634 5.634 0 012.442-1.446 7.53 7.53 0 012.736-.315c1.962.12 3.027 1.077 3.33 1.431.273.397.443.856.495 1.335 1.179.6 1.2 2.076.942 3.201-.234.987-.9 1.878-1.536 2.646-.333.399-.681.789-.999 1.2-.16.194-.305.4-.435.615-.189.342-.324.633-.324.633a6.093 6.093 0 01-2.004-.081z" fill="#37474F"/><path d="M124.175 70.314l-.117-.477a3.917 3.917 0 01-1.251.204c-.9.048-1.2-.102-1.218-.108.041.048.085.093.132.135.261.222 1.644.336 2.454.246z" fill="#F28F8F"/><path d="M125.483 101.754c1.029-.054 1.836-.807 4.281-1.827 4.515-1.881 7.899-3.387 9.189-5.751 1.29-2.364 2.205-12.969 1.881-15.924a3.84 3.84 0 00-.219-.981l.315-.048-.822-.699c-.843-.69-2.217-.075-3.249.486-2.958 1.611-5.268 3.174-7.095 8.817-1.389 4.248-2.289 11.898-4.179 13.968" fill="#459AE9"/><path opacity=".25" d="M140.615 77.271l.315-.048-.822-.699c-.843-.69-2.217-.075-3.252.486-2.955 1.611-5.265 3.174-7.092 8.817-1.389 4.248-2.289 11.898-4.179 13.968l-.102 1.959c1.029-.054 1.836-.807 4.281-1.827 4.515-1.881 7.899-3.387 9.189-5.751 1.29-2.364 2.205-12.969 1.881-15.924a3.84 3.84 0 00-.219-.981z" fill="#fff"/><path d="M137.639 77.4c-2.955 1.608-5.73 3.366-7.296 9.153-1.551 5.727-2.55 14.418-6.153 15.384 0 0 1.629.648 6.618-1.464 1.59-.669 3.516-1.893 4.782-2.604 2.478-1.392 3.984-2.532 4.221-2.961 1.311-2.352 2.202-12.969 1.881-15.924-.321-2.955-2.571-2.394-4.053-1.584z" fill="#459AE9"/><path d="M137.639 77.4c-2.955 1.608-5.73 3.366-7.296 9.153-1.551 5.727-2.55 14.418-6.153 15.384 0 0 1.629.648 6.618-1.464 1.59-.669 3.516-1.893 4.782-2.604 2.478-1.392 3.984-2.532 4.221-2.961 1.311-2.352 2.202-12.969 1.881-15.924-.321-2.955-2.571-2.394-4.053-1.584z" fill="#fff" opacity=".4"/><path d="M96.344 112.989c0-.036.57-2.1.57-2.1s-.186.189-1.371-.123a6.64 6.64 0 01-1.29-.543l-.339 1.5c-.315.576-1.362.3-2.511.18-.192-.021-.39-.054-.6-.087-.621-.033-1.242.339-.6.867s1.704.729 2.7.9c1.164.228 3.231.573 3.441-.594z" fill="#F28F8F"/><path d="M88.11 112.8a1.199 1.199 0 00-.085.63c.021.228.585 1.005 1.584 1.479 1 .474 2.232.507 2.811.672.58.165 1.107.498 1.8.663.693.165 1.356.255 2.037-.195.13-.206.207-.441.225-.684-.12-.111-8.373-2.565-8.373-2.565z" fill="#263238"/><path d="M93.734 111.936c-.441.3-1.35.093-2.331-.021-.924-.105-1.968-.429-2.598-.213-.63.216-1.155.96-.3 1.911.33.377.733.683 1.185.9 1.056.378 2.007.411 2.7.579.885.216 1.371.6 2.187.705 1.062.123 1.731-.15 1.914-.432.183-.282.354-2.565-.102-2.517 0 0-.189.738-1.92.021-.777-.306-.765-.768-.735-.933z" fill="#37474F"/><path d="M90.797 113.16s.1-.963.81-1.218a.367.367 0 01.393.051s-.66.096-.876 1.224c0 0-.036.075-.18.048-.048-.006-.153-.027-.147-.105zm1.809-1.092s0-.033-.165-.063a.305.305 0 00-.195.021s-.531.228-.63 1.236c0 0 0 .12.162.156a.144.144 0 00.116-.009.149.149 0 00.045-.037.154.154 0 00.028-.053s.108-1.059.639-1.251zm.57.021s-.03-.063-.153-.06a.347.347 0 00-.195.06c-.273.35-.409.787-.381 1.23 0 0-.018.141.183.156.2.015.168-.147.168-.147s.069-1.071.378-1.239z" fill="#FAFAFA"/><path d="M96.614 99.46c-.66 2.792-2.7 11.162-2.7 11.162s1.5 1.344 3.12.732c1.731-4.569 4.83-7.689 4.8-11.034l-5.22-.86z" fill="#459AE9"/><path opacity=".4" d="M96.614 99.46c-.66 2.792-2.7 11.162-2.7 11.162s1.5 1.344 3.12.732c1.731-4.569 4.83-7.689 4.8-11.034l-5.22-.86z" fill="#000"/><path d="M90.392 115.884c.177-.261.843-2.1.843-2.1s-.696.396-1.89.114a2.77 2.77 0 01-1.17-.798l-.51 1.755c-.3.585-1.275.39-2.424.3-.195-.018-.393-.045-.6-.072-.621-.018-1.233.369-.576.882.657.513 1.722.687 2.7.837 1.182.177 2.964.069 3.627-.918z" fill="#F28F8F"/><path d="M81.473 115.83a1.28 1.28 0 00-.078.678c.03.246.657 1.062 1.743 1.545 1.086.483 2.4.486 3.033.648.633.162 1.2.507 1.938.666.738.159 1.46.237 2.184-.264.132-.226.208-.48.222-.741-.12-.123-9.042-2.532-9.042-2.532z" fill="#263238"/><path d="M87.476 114.729a2.38 2.38 0 01-.219.135.6.6 0 01-.24.048 3.293 3.293 0 01-.579 0c-.486-.024-.969-.096-1.455-.141-.996-.087-2.124-.408-2.793-.159-.669.249-1.281 1.059-.345 2.055.362.387.787.71 1.257.954 1.113.465 2.268.378 3 .54.957.213 1.485.621 2.367.699 1.14.105 1.854-.204 2.043-.513.105-.171 0-1.068.132-1.761.123-.6.09-1.005-.126-.978a1.01 1.01 0 01-.165.21.72.72 0 01-.255.201 1.89 1.89 0 01-.426.144 2.55 2.55 0 01-.795.111.387.387 0 01-.216-.069.458.458 0 01-.126-.27 6.82 6.82 0 00-.057-.264.359.359 0 00-.048-.138.375.375 0 00-.135-.108 1.198 1.198 0 01-.435-.33 1.009 1.009 0 01-.126-.411.09.09 0 00-.03-.066c-.03-.027-.078 0-.114.018l-.114.093z" fill="#37474F"/><path d="M84.365 116.139s.081-1.038.84-1.329a.4.4 0 01.423.045s-.708.12-.9 1.338c0 0-.036.081-.192.057-.06-.009-.177-.027-.171-.111zm1.915-1.221s0-.033-.18-.063a.338.338 0 00-.21.027s-.565.261-.643 1.344c0 0 0 .132.18.162a.17.17 0 00.064.008.164.164 0 00.06-.019.154.154 0 00.076-.1c.001 0 .091-1.14.652-1.359zm.614.006s-.036-.063-.168-.06c-.132.003-.207.072-.207.072a1.956 1.956 0 00-.378 1.329s-.015.153.198.165c.213.012.18-.162.18-.162s.045-1.152.375-1.344z" fill="#FAFAFA"/><path d="M90.974 102.117c-.681 2.1-2.424 8.079-3.222 11.154 0 0 1.431 1.287 3.273 1.176.975-2.298 5.424-8.661 4.884-11.385-.342-1.722-2.214-1.221-2.214-1.221l-2.721.276z" fill="#459AE9"/><path opacity=".3" d="M90.974 102.117c-.681 2.1-2.424 8.079-3.222 11.154 0 0 1.431 1.287 3.273 1.176.975-2.298 5.424-8.661 4.884-11.385-.342-1.722-2.214-1.221-2.214-1.221l-2.721.276z" fill="#000"/><path opacity=".3" d="M95.543 105.576c-.64-.447-2.073-1.341-2.241-1.8 0 0 .222 1.44 2.004 2.433l.237-.633z" fill="#000"/><path d="M118.871 123.282l-1.896-15.852-1.554-.081 2.67 15.93c.005.03.017.058.035.082a.223.223 0 00.067.059.6.6 0 00.555.027.18.18 0 00.12-.165h.003z" fill="#263238"/><path d="M97.595 105.99H96.04l-2.262 14.97a.18.18 0 00.11.171.596.596 0 00.556 0 .205.205 0 00.07-.053.204.204 0 00.04-.079l3.04-15.009z" fill="#37474F"/><path d="M96.041 105.99l-.63 4.179a6.2 6.2 0 001.2.729l.993-4.908h-1.563z" fill="#263238"/><path d="M108.485 128.595l-1.461-16.119-1.554-.078 2.232 16.2a.219.219 0 00.105.138.6.6 0 00.555.027.195.195 0 00.086-.064.203.203 0 00.037-.101v-.003z" fill="#37474F"/><path d="M107.237 114.831l-.213-2.355-1.554-.078.351 2.547c.474.084.961.045 1.416-.114zm-1.158-13.773h-1.554l-2.25 14.97a.183.183 0 00.111.171.597.597 0 00.555 0 .203.203 0 00.111-.132l3.027-15.009z" fill="#263238"/><path d="M95.075 105.684c-.219-1.227.78-2.184 2.661-3.453a44.13 44.13 0 015.445-3.057c1.572-.723 3.18-.657 5.193.378 2.796 1.437 11.208 6.54 11.208 6.54s-12.579 7.101-15 6.783c-2.421-.318-8.469-4.254-8.949-5.637-.48-1.383-.558-1.554-.558-1.554z" fill="#459AE9"/><path d="M95.075 105.684c-.219-1.227.78-2.184 2.661-3.453a44.13 44.13 0 015.445-3.057c1.572-.723 3.18-.657 5.193.378 2.796 1.437 11.208 6.54 11.208 6.54s-12.579 7.101-15 6.783c-2.421-.318-8.469-4.254-8.949-5.637-.48-1.383-.558-1.554-.558-1.554z" fill="#fff" opacity=".6"/><path d="M105.806 111.381c-1.8 1.635-3.693.228-6.678-1.71-3.38-2.193-4.053-3.987-4.053-3.987s0 1.344.252 1.974c.252.63.798 1.344 3.237 3.027s4.2 2.52 5.841 2.832l1.293-.18" fill="#459AE9"/><path opacity=".25" d="M99.128 109.671c-3.38-2.193-4.053-3.987-4.053-3.987s0 1.344.252 1.974c.252.63.798 1.344 3.237 3.027s4.2 2.52 5.841 2.832l1.293-.18.099-1.956c-1.797 1.635-3.684.219-6.669-1.71z" fill="#fff"/><path d="M114.875 99.204c-2.337-.237-9-1.908-10.626-2.187-3.108-.53-4.692-.6-5.586-.327-.894.273-1.662 1.278-1.935 2.352-.324 1.263-.492 1.908-.492 1.908s6.831 2.4 10.287 2.805c3.456.405 8.352-4.55 8.352-4.55z" fill="#459AE9"/><path opacity=".4" d="M114.875 99.204c-2.337-.237-9-1.908-10.626-2.187-3.108-.53-4.692-.6-5.586-.327-.894.273-1.662 1.278-1.935 2.352-.324 1.263-.492 1.908-.492 1.908s6.831 2.4 10.287 2.805c3.456.405 8.352-4.55 8.352-4.55z" fill="#000"/><path d="M114.875 99.204c.132 3.3.018 6.375-1.566 8.034-1.065 1.119-6.423 4.023-9.882 2.88-3.405-1.128-10.455-6.363-11.163-6.9-.708-.537-1.35-.9-1.284-1.113.95-3.156 2.343-3.402 4.92-2.835 3.15.693 10.068 3.516 10.068 3.516l8.907-3.582z" fill="#459AE9"/><path opacity=".3" d="M114.875 99.204c.132 3.3.018 6.375-1.566 8.034-1.065 1.119-6.423 4.023-9.882 2.88-3.405-1.128-10.455-6.363-11.163-6.9-.708-.537-1.35-.9-1.284-1.113.95-3.156 2.343-3.402 4.92-2.835 3.15.693 10.068 3.516 10.068 3.516l8.907-3.582z" fill="#000"/><path d="M101.381 81.735l1.29 3.768 4.113-1.263-1.266-4.314-4.137 1.809z" fill="#F28F8F"/><path d="M98.756 76.692s-.972 1.407-.87 1.548c.102.141.795.285.795.285l.075-1.833z" fill="#B16668"/><path d="M98.762 77.619a1.163 1.163 0 110-2.326 1.163 1.163 0 010 2.326zm0-2.1a.951.951 0 10.95.951.952.952 0 00-.95-.963v.012z" fill="#263238"/><path d="M101.459 72.804c-1.914.357-2.484 1.182-2.73 4.2-.261 3.156.039 4.158.444 4.593.273.3 1.83.381 2.619.18.99-.246 3.231-.984 4.308-2.55 1.266-1.842 1.644-4.368.357-5.436-1.809-1.49-4.221-1.134-4.998-.987z" fill="#F28F8F"/><path d="M101.42 81.849a3.574 3.574 0 01-2.16-.192c.458.1.934.083 1.383-.051.783-.219.93-.492.93-.492l-.153.735z" fill="#B16668"/><path d="M98.375 74.04a4.329 4.329 0 001.827.621 3.74 3.74 0 00.27 1.5c.111.34.507 1.401.942.816.3-.42.6-.804 1.2-.702.99.171 1.092 1.437.453 2.19-.639.753-1.218.447-1.218.447s-.09 1.36.627 2.322a3.237 3.237 0 002.574.162c.948-.3 2.319-1.5 2.823-2.442 1.389-2.57 1.395-5.03-.3-5.79-.156-1.23-1.11-1.8-2.208-2.082-1.518-.384-3.096.567-4.566-.06-.3-.135-.6-.32-.9-.435a.624.624 0 00-.546 0 .657.657 0 00-.234.417c-.097.29-.076.605.057.88a2.517 2.517 0 00-.69-.256.9.9 0 00-.7.156.9.9 0 00-.278.6 1.876 1.876 0 00.867 1.656z" fill="#263238"/><path d="M107.6 73.59l1.155-.648a.664.664 0 00-1.195.158.663.663 0 00.04.49zm-6.201 3.49l-3.7-.69.037-.18 3.696.692-.033.177z" fill="#263238"/><path d="M106.367 82.821l-.192-.621c2.64-1.254 4.827.783 6.252 4.356 1.524 3.822 2.463 8.142 2.472 13.428a12.125 12.125 0 01-4.773 3.54c-3.183 1.26-7.626.726-9-2.574 0 0 0-2.202-.099-4.107a19.187 19.187 0 00-1.452-5.82c-.753-1.755-1.746-5.016.3-6.231.6-.354 1.53-.735 2.346-1.128 1.854.615 4.386-.105 4.146-.843z" fill="#37474F"/><path d="M100.619 84.405c.225-.6.864-1.704 1.047-1.842a6.001 6.001 0 002.829-.12c1.449-.45 1.5-.867 1.5-.867l-.105-.348s.108-.153.498.153c.287.249.533.541.729.867.147.198.039 1.2-1.02 1.881s-2.949.402-3.663.315a6.758 6.758 0 01-1.287-.3l-.528.261z" fill="#455A64"/><path d="M96.854 101.31c-1.014-.384-1.635-1.527-1.758-2.268a4.425 4.425 0 01.42-2.57c.393-.676 1.338 4.838 1.338 4.838z" fill="#37474F"/><path d="M95.495 96.6c.3-1.8.945-4.605 1.539-7.518.576-2.829 1.362-3.663 2.838-4.278 3.579 2.133 1.971 8.454 1.971 8.454s-1.566 4.434-2.304 6.213c-.477 1.158-1.69 2.454-2.946 1.728-1.257-.726-1.386-2.826-1.098-4.599z" fill="#263238"/><path d="M105.707 113.337c1.029-.051 1.833-.804 4.278-1.824 4.515-1.881 7.902-3.387 9.192-5.751 1.29-2.364 2.202-12.969 1.881-15.927a3.862 3.862 0 00-.222-.978l.318-.048-.822-.699c-.846-.687-2.217-.072-3.252.49-2.955 1.607-5.268 3.17-7.095 8.816-1.374 4.245-2.28 11.895-4.179 13.965" fill="#459AE9"/><path opacity=".25" d="M120.836 88.857l.318-.048-.822-.699c-.846-.687-2.217-.072-3.252.49-2.955 1.607-5.268 3.17-7.095 8.816-1.374 4.245-2.28 11.895-4.179 13.965l-.099 1.956c1.029-.051 1.833-.804 4.278-1.824 4.515-1.881 7.902-3.387 9.192-5.751 1.29-2.364 2.202-12.969 1.881-15.927a3.862 3.862 0 00-.222-.978z" fill="#fff"/><path d="M117.875 88.98c-2.955 1.608-5.733 3.366-7.299 9.153-1.551 5.724-2.55 14.418-6.15 15.384 0 0 1.629.648 6.618-1.464 1.587-.672 3.513-1.896 4.779-2.607 2.481-1.389 3.984-2.532 4.221-2.958 1.311-2.352 2.205-12.969 1.881-15.924-.324-2.955-2.583-2.391-4.05-1.584z" fill="#459AE9"/><path d="M117.875 88.98c-2.955 1.608-5.733 3.366-7.299 9.153-1.551 5.724-2.55 14.418-6.15 15.384 0 0 1.629.648 6.618-1.464 1.587-.672 3.513-1.896 4.779-2.607 2.481-1.389 3.984-2.532 4.221-2.958 1.311-2.352 2.205-12.969 1.881-15.924-.324-2.955-2.583-2.391-4.05-1.584z" fill="#fff" opacity=".4"/><path d="M72.746 125.121s0-.936.663-1.251a.37.37 0 01.384 0s-.627.156-.726 1.266c0 0-.027.075-.168.063-.045.009-.15 0-.153-.078z" fill="#FAFAFA"/><path d="M72.173 124.308c-1.026 0-1.59-.12-2.814-.099-.924.018-1.26 1.143-.147 2.067a6.44 6.44 0 001.596.87c1.452.444 2.499.189 3.264.282.996.117 1.257.396 2.073.456 1.065.081 1.455-.087 1.737-.423.333-.771.123-1.053.237-1.959.063-.501.03-.711-.027-.705-.33-.033-5.421-.495-5.92-.489z" fill="#455A64"/><path d="M78.068 124.878c.159-.498.639-2.55.639-2.55s-.67.474-1.914.3c-.633-.087-1.06-1.734-1.06-1.734l-.36 2.745c-.248.627-1.46.66-2.642.672h-.6c-.636.045-1.221.501-.498.957.723.456 1.827.525 2.844.579 1.206.06 3.222.189 3.59-.969z" fill="#FFBDA7"/><path d="M76.775 109.749c-.363 2.751-1.263 12.63-1.263 12.63s1.593 1.254 3.096.507c1.224-4.566 3.627-9.6 3.285-12.816l-5.118-.321z" fill="#263238"/><path d="M66.704 127.521c-1.026 0-1.59-.12-2.814-.099-.924.018-1.26 1.143-.144 2.064a6.325 6.325 0 001.593.87c1.452.444 2.499.192 3.264.282.996.117 1.257.399 2.073.459 1.068.078 1.455-.09 1.737-.426.333-.771.123-1.05.237-1.956.063-.501.03-.714-.024-.708-.333-.03-5.424-.492-5.922-.486z" fill="#455A64"/><path d="M72.599 128.1c.159-.498.639-2.55.639-2.55s-.666.474-1.914.3c-.633-.084-1.06-1.734-1.06-1.734l-.36 2.745c-.248.627-1.457.66-2.642.675-.198 0-.402 0-.6-.015-.636.045-1.218.501-.498.957.72.456 1.827.522 2.847.579 1.203.063 3.219.192 3.588-.957z" fill="#FFBDA7"/><path d="M71.591 112.851c-.453 2.1-1.161 9.9-1.632 12.945a5.003 5.003 0 003.132.543c.717-2.304 4.125-10.485 3.342-13.056-.495-1.623-2.247-.96-2.247-.96l-2.595.528z" fill="#37474F"/><path d="M98.915 134.718l-1.905-15.9-1.557-.078 2.68 15.975a.217.217 0 00.104.138.615.615 0 00.555.03.189.189 0 00.12-.168l.003.003z" fill="#263238"/><path d="M77.579 117.381h-1.557l-2.268 15a.196.196 0 00.114.171.621.621 0 00.555 0 .21.21 0 00.11-.135l3.046-15.036z" fill="#37474F"/><path d="M76.022 117.381l-.633 4.2c.37.29.773.536 1.2.732l.993-4.92-1.56-.012z" fill="#263238"/><path d="M88.499 140.049l-1.464-16.167-1.557-.078 2.238 16.242a.2.2 0 00.102.141.603.603 0 00.555.027.192.192 0 00.086-.064.192.192 0 00.037-.101h.003z" fill="#37474F"/><path d="M87.248 126.246l-.213-2.364-1.557-.078.351 2.556a2.85 2.85 0 001.419-.114zm-1.173-13.812h-1.557l-2.268 15a.196.196 0 00.114.171.621.621 0 00.555 0 .21.21 0 00.111-.135l3.045-15.036z" fill="#263238"/><path d="M75.062 117.069c-.22-1.227.783-2.187 2.667-3.459a44.598 44.598 0 015.46-3.069c1.578-.723 3.189-.657 5.208.381 2.805 1.44 11.24 6.558 11.24 6.558s-12.6 7.122-15.041 6.804c-2.442-.318-8.493-4.266-8.976-5.655-.483-1.389-.558-1.56-.558-1.56z" fill="#459AE9"/><path d="M75.062 117.069c-.22-1.227.783-2.187 2.667-3.459a44.598 44.598 0 015.46-3.069c1.578-.723 3.189-.657 5.208.381 2.805 1.44 11.24 6.558 11.24 6.558s-12.6 7.122-15.041 6.804c-2.442-.318-8.493-4.266-8.976-5.655-.483-1.389-.558-1.56-.558-1.56z" fill="#fff" opacity=".6"/><path d="M85.814 122.784c-1.8 1.641-3.705.228-6.699-1.713-3.39-2.202-4.053-4.002-4.053-4.002s0 1.35.252 1.983.801 1.347 3.261 3.048 4.215 2.529 5.859 2.841l1.296-.177" fill="#459AE9"/><path opacity=".25" d="M79.115 121.071c-3.39-2.202-4.053-4.002-4.053-4.002s0 1.35.252 1.983.801 1.347 3.261 3.048 4.215 2.529 5.859 2.841l1.296-.177.099-1.965c-1.824 1.626-3.72.201-6.714-1.728z" fill="#fff"/><path d="M93.34 110.571s-5.171-1.5-8.7-2.28c-2.975-.663-4.181-.81-5.267-.753-1.17.057-2.436.558-2.616 2.121-.123 1.068-.231 2.136-.231 2.136s6.09 2.943 9.432 3.336c3.342.393 7.383-4.56 7.383-4.56z" fill="#263238"/><path d="M93.518 110.571c1.089 3.147.915 6.159-.993 7.932-1.095 1.017-6.216 3.9-9.561 2.784-3.3-1.092-9.444-6.849-10.131-7.359-.687-.51-1.305-.858-1.242-1.077.92-3.054 2.265-3.3 4.76-2.742 3.049.669 9.073 4.095 9.073 4.095l8.094-3.633z" fill="#37474F"/><path d="M83.42 93.855l.279 3.969 4.455-.606-.49-4.323-4.244.96z" fill="#FFBDA7"/><path d="M81.203 89.229s-.975 1.143-.882 1.284c.179.148.382.265.6.345l.282-1.629z" fill="#F0997A"/><path d="M90.248 86.574a2.751 2.751 0 00-1.311-1.932 6.84 6.84 0 00-3.486-.9c-1.431 0-3.105.441-3.942 1.704a2.645 2.645 0 00-.438 1.611c.04.585.273 1.14.66 1.581.351.432.72.849 1.071 1.284.351.435.6.9.939 1.329.204.248.394.506.57.774l.033.057a1.15 1.15 0 01-.528-.105s-.087 1.614 1.164 2.367c0 0 1.527.642 2.859.09.348-.531 1.107-1.134 1.89-2.148 1.56-2.01 1.482-4.302.519-5.712z" fill="#263238"/><path d="M85.064 91.755a.999.999 0 01-.72.336 1.09 1.09 0 01-.525-.105 4.04 4.04 0 00.849 2.142 3.002 3.002 0 01-.813.231c-.783.141-2.226-.123-2.478-.417-.372-.444-.933-1.566-.22-4.536.06-.933-.053-.939.034-1.329.094-.453.3-.875.6-1.227 0 .435.525 1.002 1.2 1.053a1.276 1.276 0 00-.324 1.023c.101.432.314.83.618 1.155.016.022.037.04.06.054a.448.448 0 00.273 0c.3-.363.732-.777 1.425-.456.789.36.63 1.374.02 2.076z" fill="#FFBDA7"/><path d="M81.449 94.002c.318.228 1.278.417 2.01.393l-.051-.555a3.204 3.204 0 01-.9.216 3.43 3.43 0 01-1.06-.054z" fill="#F0997A"/><path d="M83.093 91.137a.703.703 0 01-.324-.945.72.72 0 01.96-.315l-.636 1.26z" fill="#263238"/><path d="M87.938 95.307l-.04-.354c2.56-.465 4.32-.561 5.143 3.069.474 2.1.666 4.437.939 8.769.135 2.139.108 2.835.459 6.753 0 0-1.125 1.434-5.61 1.74-1.8.123-6.678-.576-7.38-2.331 0 0 .222-3.771.099-5.613a12.753 12.753 0 00-1.032-4.164c-.261-.66-.243-1.098-.411-1.764-.456-1.8-.69-4.056 1.449-4.908a21.249 21.249 0 012.004-.702c1.686.867 4.497.246 4.38-.495z" fill="#459AE9"/><path d="M76.709 83.289c.012-.773.14-1.54.38-2.274.16-.681.233-1.38.217-2.079v-.885c-.063-.231-.582-.027-.693.543-.06.3-.07.339-.153.708-.015.057-.093.321-.105.117-.015-.3-.033-.942-.04-1.2a5.294 5.294 0 00-.134-.759 23.922 23.922 0 00-.363-1.686.14.14 0 00-.201-.099c-.321.144-.366.465-.37.807 0 .219.03.435.04.654-.106-.534-.214-1.068-.324-1.602a.363.363 0 00-.057-.15c-.084-.099-.25-.063-.357 0a.654.654 0 00-.243.282 1.155 1.155 0 00-.093.453.828.828 0 00-.318.225.9.9 0 00-.141.618v.093c.018.3.03.9.048 1.2-.1-.396-.153-.711-.225-.933-.027-.081-.048-.105-.087-.117a.092.092 0 00-.081.021.601.601 0 00-.246.414c-.016.165-.008.332.024.495.078.552.17 1.107.252 1.659.034.248.042.5.024.75-.018.216-.033.42-.057.636-.078.378-.072.768.018 1.143.048.168.117.33.17.498a3.9 3.9 0 01.226.939c0 .153-.03.795-.048 1.14-.024.456-.132 3.741-.231 6-.075 1.677-.027 1.905.93 3.375.57.879 3.039 4.308 4.8 6.795.471.666.89 1.368 1.25 2.1.358.255 1.117-.552 1.624-1.881.423-1.113.678-2.613.39-3.741-.288-1.128-.993-1.377-2.034-2.55a26.2 26.2 0 01-2.832-3.9s-.97-7.146-.96-7.809z" fill="#FFBDA7"/><path d="M90.689 99.57c.399-.193.82-.337 1.254-.429a2.06 2.06 0 00.9-.66 2.4 2.4 0 00.396-2.064 3.99 3.99 0 00-.951-1.674c.358.193.67.46.915.786-.252-.9-.876-1.623-1.338-2.418a4.347 4.347 0 01-.537-1.2 6.805 6.805 0 01-.165-1.458c-.04-2.259-.078-3.075-.9-3.849-.075 1.065-.57 3.345-3.726 5.727-.7.528-2.187.456-2.7-.315-.105.573-.201 1.146-.318 1.713-.117.567-.192 1.26-.531 1.719a4.16 4.16 0 00-.9 2.244 2.307 2.307 0 001.044 2.082 1.56 1.56 0 010-1.158c.177.561.384 1.164.876 1.485.555.363 1.293.243 1.923.45.315.102.6.282.9.408a2.776 2.776 0 001.836.087c.86-.276 1.29-1.02 2.022-1.476z" fill="#263238"/><path d="M85.715 124.749c1.032-.054 1.839-.81 4.29-1.833 4.527-1.887 7.923-3.396 9.216-5.766 1.293-2.37 2.211-13.008 1.887-15.972a3.888 3.888 0 00-.222-.981l.318-.048-.825-.702c-.846-.693-2.223-.075-3.258.489-2.967 1.614-5.283 3.18-7.116 8.841-1.38 4.257-2.29 11.928-4.2 14.004" fill="#459AE9"/><path opacity=".25" d="M100.886 100.2l.318-.048-.825-.702c-.846-.693-2.223-.075-3.258.489-2.967 1.614-5.283 3.18-7.116 8.841-1.38 4.257-2.289 11.928-4.2 14.004l-.099 1.965c1.032-.054 1.84-.81 4.29-1.833 4.527-1.887 7.923-3.396 9.216-5.766 1.293-2.37 2.211-13.008 1.887-15.972a3.85 3.85 0 00-.213-.978z" fill="#fff"/><path d="M97.904 100.32c-2.964 1.614-5.748 3.375-7.32 9.177-1.554 5.745-2.556 14.46-6.165 15.429 0 0 1.632.651 6.636-1.467 1.593-.672 3.522-1.902 4.8-2.613 2.487-1.395 3.993-2.541 4.233-2.967 1.314-2.361 2.208-13.008 1.884-15.972-.324-2.964-2.583-2.394-4.068-1.587z" fill="#459AE9"/><path d="M97.904 100.32c-2.964 1.614-5.748 3.375-7.32 9.177-1.554 5.745-2.556 14.46-6.165 15.429 0 0 1.632.651 6.636-1.467 1.593-.672 3.522-1.902 4.8-2.613 2.487-1.395 3.993-2.541 4.233-2.967 1.314-2.361 2.208-13.008 1.884-15.972-.324-2.964-2.583-2.394-4.068-1.587z" fill="#fff" opacity=".4"/><path d="M44.108 94.191l1.194-.528-.405-.831-.783.693-.006.666z" fill="#000"/><path d="M42.752 91.893v1.125c0 .25 1.083 1.041 1.353 1.173v-.666c.248.29.458.612.624.957.21.36.474 1.038 1.053 1.5.861.693 2.205 1.053 3.582 1.116 1.377.063 2.166-.258 2.559-.546a.864.864 0 00.426-.963c-.084-.336-9.597-3.696-9.597-3.696z" fill="#263238"/><path d="M46.457 89.214l.02-.462c.256 0 .28.663.646 1.254.532.886 1.176 1.7 1.917 2.421 1.383 1.248 2.622 2.034 3.24 2.595.828.75-.645 1.917-2.892 1.776-1.113-.072-3.09-.636-3.642-1.281-.552-.645-.885-1.641-1.326-2.1-.441-.459-1.395-.945-1.668-1.5-.147-.3-.063-1.032.033-1.644.09-.564.114-1.428.44-1.356l.022.3c.132.249.438.657 1.335.813.45.045 1.788.096 1.875-.816z" fill="#455A64"/><path opacity=".15" d="M45.305 90.027c.43-.033.9-.165 1.074-.54a1.042 1.042 0 00.282.9c.4.462 2.907 3.7 2.907 3.7s-2.337-2.674-2.787-3.178c-.663-.744-.876-.834-1.5-.86l.024-.022zm.552.873a.135.135 0 01-.15.117.132.132 0 01-.12-.15.138.138 0 01.2-.101.134.134 0 01.07.134zm.657.702a.135.135 0 01-.15.117.133.133 0 01-.092-.05.133.133 0 01-.028-.1.136.136 0 11.27.033zm.657.717a.137.137 0 01-.096.121.138.138 0 11-.024-.268.135.135 0 01.12.147zm.657.717a.14.14 0 01-.096.121.137.137 0 01-.179-.119.138.138 0 01.155-.149.135.135 0 01.12.147zm.657.717a.138.138 0 11-.12-.147.135.135 0 01.12.147z" fill="#000"/><path d="M45.716 90.921a.048.048 0 01-.033-.015.052.052 0 01-.017-.038.052.052 0 01.017-.037c.429-.382.985-.59 1.56-.582a.057.057 0 01.05.057.06.06 0 01-.06.051 2.208 2.208 0 00-1.472.549.05.05 0 01-.045.015zm.657.717a.073.073 0 01-.033-.018.054.054 0 010-.075 2.3 2.3 0 011.56-.582.057.057 0 01.051.057.06.06 0 01-.06.051 2.214 2.214 0 00-1.473.552.075.075 0 01-.045.015zm.657.717a.048.048 0 01-.033-.015.054.054 0 010-.075 2.277 2.277 0 011.557-.582.057.057 0 01.051.057.06.06 0 01-.06.051 2.214 2.214 0 00-1.473.552.06.06 0 01-.042.012zm.645.72a.07.07 0 01-.033-.018.054.054 0 010-.075A2.277 2.277 0 0149.2 92.4a.057.057 0 01.051.057.06.06 0 01-.06.05 2.214 2.214 0 00-1.473.553.08.08 0 01-.042.015zm.669.717a.073.073 0 01-.033-.018.054.054 0 010-.075 2.277 2.277 0 011.557-.582.057.057 0 01.051.057.06.06 0 01-.06.051 2.214 2.214 0 00-1.473.552.081.081 0 01-.042.015zm-14.313 4.272c-.132 1.05-.345 1.74-.77 2.337-.427.597-1.246.705-1.864.615a2.586 2.586 0 01-2.145-1.83c-.24-.708-.15-1.536.081-2.505l4.698 1.383z" fill="#263238"/><path d="M31.175 90.21c-.3 0-.486 1.416-.753 2.823-.3 1.5-.822 2.331-1.044 3.348-.3 1.407-.249 2.052.21 2.943.459.891 2.631 1.887 3.6.708.795-.963.9-2.076.924-3.501a34.94 34.94 0 01.168-3.621c.129-1.062.273-2.1.018-2.226-.033.156-.066.354-.096.504-.03.15-.093.693-.264.69a2.262 2.262 0 01.024-.402.465.465 0 00-.06-.348.582.582 0 00-.327-.168 8.435 8.435 0 00-.9-.186c-.15-.024-.3-.039-.453-.048a5.062 5.062 0 00-.798 0 .256.256 0 00-.174.135.403.403 0 00-.027.159 1.198 1.198 0 01-.057.3c0 .042-.048.09-.09.078-.042-.012-.045-.054-.045-.09 0-.171.042-.3.063-.492 0-.093.033-.219.042-.3.009-.081.039-.216.039-.306z" fill="#455A64"/><path opacity=".15" d="M30.482 96.798a.1.1 0 00.049.105.1.1 0 00.038.012.105.105 0 00.12-.125.102.102 0 00-.087-.079.105.105 0 00-.12.087zm.165-.978a.105.105 0 00.167.102.108.108 0 00.043-.069.105.105 0 00-.165-.1.108.108 0 00-.045.067zm.156-.921a.105.105 0 00.166.102.108.108 0 00.044-.069.1.1 0 00-.019-.077.102.102 0 00-.068-.04.105.105 0 00-.123.084zm.153-.909a.106.106 0 00.168.103.107.107 0 00.042-.07.106.106 0 00-.087-.117.11.11 0 00-.123.084zm2.394.288a.105.105 0 00.148.109.106.106 0 00.061-.1.104.104 0 00-.07-.095.105.105 0 00-.139.086zm-.156.915a.105.105 0 00.087.117.108.108 0 00.123-.084.105.105 0 00-.087-.12.106.106 0 00-.108.048.106.106 0 00-.015.039zm-.156.921a.1.1 0 00.02.077.103.103 0 00.067.04.105.105 0 10-.087-.117zm-.165.975a.102.102 0 00.087.12.11.11 0 00.123-.087.105.105 0 00-.09-.117.105.105 0 00-.12.084zm-.923.411l1.262-6.807-.393-.03-.87 6.837z" fill="#000"/><path d="M30.575 96.867c.711-.108 1.905.033 2.358.282a.055.055 0 00.042.005.053.053 0 00.033-.026.048.048 0 00-.005-.057.05.05 0 00-.016-.012c-.483-.267-1.683-.408-2.427-.3a.054.054 0 00-.045.06.054.054 0 00.06.048zm.168-.978h.027c.552-.213 1.827 0 2.346.282a.057.057 0 00.075-.018.05.05 0 00.005-.04.052.052 0 00-.026-.032c-.54-.3-1.857-.516-2.439-.3a.048.048 0 00-.03.066.055.055 0 00.042.042zm.157-.921h.03c.548-.216 1.823 0 2.342.282a.057.057 0 00.075-.018.05.05 0 00.005-.04.05.05 0 00-.026-.032c-.54-.3-1.857-.516-2.439-.3a.057.057 0 00-.03.07.057.057 0 00.042.038zm.155-.909a.042.042 0 00.027 0c.552-.213 1.827 0 2.346.3a.057.057 0 00.072-.021.054.054 0 00-.018-.072c-.543-.3-1.86-.516-2.439-.3a.05.05 0 00-.03.026.048.048 0 000 .04.049.049 0 00.042.027zM33.5 55.521c-.822 8.655-1.41 20.448-1.41 20.448-.072.657-.762 3.456-1.13 6.696-.385 3.435-.76 9.831-.76 9.831s2.451 1.323 4.461.702c0 0 2.29-10.77 3.37-14.793 1.02-3.804 2.633-11.022 2.633-11.022l.94 7.176s-.172 2.469-.118 4.2c.06 2.01 1.254 11.7 1.254 11.7s2.664 1.572 4.764.06c0 0 .3-13.248.36-15.666.126-4.866.243-13.272.144-19.395l-14.508.063z" fill="#263238"/><path d="M36.998 65.544a273.571 273.571 0 01-.708 6.216c-.126 1.035-.255 2.07-.393 3.102l-.2 1.55-.106.778c-.033.258-.09.513-.135.768-.378 2.052-.972 5.778-1.383 7.824a239.004 239.004 0 01-1.31 6.123c.305-2.064.638-4.122.998-6.174.357-2.055.927-5.784 1.317-7.83.045-.258.105-.513.138-.771l.108-.774.222-1.545c.15-1.032.303-2.063.46-3.093.311-2.061.638-4.12.992-6.174zm9.432-.444c.198 1.941.3 3.9.351 5.838.051 1.938.114 3.9 0 5.847-.114 1.947-.171 5.211-.273 7.158-.102 1.947-.216 3.9-.363 5.835 0-1.95.02-3.898.06-5.844.039-1.947.117-5.211.186-7.155l.084-1.479.015-.363v-6.921c-.015-.975-.039-1.947-.06-2.916zm-5.766 2.283l.936-4.734s2.43-.3 3.687-1.374c0 0-.822 1.419-3.117 1.947l-.92 4.182.353 7.155-.939-7.176z" fill="#000"/><path d="M45.761 38.553c1.48.435 1.668.765 4.35 3.03 2.19 1.848 3.36 2.631 3.36 2.631s2.28 2.7 2.38 3.24a2.951 2.951 0 01-1.099 2.586c-.56.423-1.2.258-1.818-.063-.744-.396-1.116-.6-1.482-.819-2.472-1.43-4.455-2.742-4.455-2.742l-1.236-7.863z" fill="#37474F"/><path d="M61.475 36.861c-.372-.213-.431.13-.558.177 0 0 .372-.444-.267-.81-.392-.228-.575.321-.6.25-.023-.073.457-1.156.829-2.1.354-.9.032-1.156-.114-1.225-.148-.069-.3 0-.624.651-.325.651-1.302 2.634-1.521 3.042-.22.408-.381.6-.531.078a3 3 0 00-.564-1.263c-.486-.5-.858-.273-.777.114.114.546.114 1.2.204 2.082.047.465.063.9.12 1.221.18 1.122-.466 1.644-1.23 2.535-.624.732-1.273 1.33-2.7 2.8-1.366 1.388-1.186 4.445.107 5.165 1.428.801 1.819.333 3.3-1.965.96-1.482 2.236-4.2 2.59-4.833.353-.633.476-1.01.971-1.323a3.666 3.666 0 001.342-1.539c.174-.318.507-.9.723-1.374.216-.474.236-.807-.033-1.005-.37-.27-.469.138-.508.096-.038-.042.355-.47-.159-.774z" fill="#FFA8A7"/><path d="M60.983 39.222c-.126-.177 0-.507 0-.507a.6.6 0 01-.3.258.455.455 0 01-.522-.228.658.658 0 01.07-.429.735.735 0 01-.316.177c-.2.057-.384-.069-.459-.3-.075-.23.198-.852.486-1.41-.173.187-.32.397-.438.624a1.48 1.48 0 00-.252.756 1.567 1.567 0 00-.6-.477c.513.495.9 1.842.684 2.74a1.98 1.98 0 00.171-1.777.402.402 0 00.471-.039.477.477 0 00.282.498.471.471 0 00.52 0s-.064.201.203.336.477 0 .621-.273a.415.415 0 01-.62.051z" fill="#F28F8F"/><path d="M34.124 39.057s-1.344 1.2-.987 4.443c.3 2.823.45 5.19.486 6.285.051 1.68-.369 7.305-.369 7.305 2.421 3.12 13.341 2.793 14.757.087v-7.641c0-2.748.078-5.277-.267-6.9-.465-2.169-1.182-3.447-1.974-4.086l-3.57-.984-3.267-.159-4.809 1.65z" fill="#455A64"/><path d="M37.997 36.048c-.213-1.077-1.32-2.175-1.83-3.105-.51-.93-.789-1.593-.759-2.448a1.842 1.842 0 01.567-1.395c-.099-1.848 1.761-2.805 3-3.144 1.455-.393 2.649-.489 4.158.141a3.332 3.332 0 011.869 1.764c.214.567.295 1.176.237 1.779a1.07 1.07 0 01-.156.333c-.042.042-.033.195-.045.255-.022.172-.08.338-.171.486a1.768 1.768 0 01-.6.576c-.789.402-1.668.552-2.523.753l-1.014.24c-.06 0-.366.039-.402.093l-2.331 3.672z" fill="#263238"/><path d="M36.692 34.698a1.043 1.043 0 001.272-.075l-.189 3.255c.64 1.458 2.4.834 4.428 3.369 0 0 .645-1.062.114-3.165l.1-1.092c.428-.008.857-.04 1.283-.093.9-.141 1.365-.942 1.644-2.142a7.71 7.71 0 00.04-3.27 3.154 3.154 0 01-.07-.9 4.18 4.18 0 00-.339-1.89c-.95-.726-3.117-.924-5.1.354.264 1.2-.174 2.154-1.035 2.634.051.321.114 1.137-.417 1.137-.384 0-.423-.48-.828-.9-.405-.42-1.326-.498-1.662.135a2.07 2.07 0 00.76 2.643z" fill="#FFA8A7"/><path d="M42.758 30.804L44.396 33l-1.506.393-.132-2.589z" fill="#F28F8F"/><path d="M41.735 30.45l-.828.411a.486.486 0 01.22-.636.446.446 0 01.608.225zm3.189.192l-.822-.438a.442.442 0 01.6-.204.489.489 0 01.222.642z" fill="#263238"/><path d="M42.407 36.99c-1.35-.123-2.418-.252-3.144-1.2a8.485 8.485 0 01-.855-1.572 6.57 6.57 0 00.63 1.98c.357.6 1.2 1.158 3.327 1.281l.042-.489z" fill="#F28F8F"/><path d="M41.864 31.578a.378.378 0 11-.408-.366.387.387 0 01.408.366z" fill="#263238"/><path d="M41.516 33.939l1.5.402a.82.82 0 01-.984.564.764.764 0 01-.516-.966z" fill="#B16668"/><path d="M42.473 34.893a.924.924 0 00-.987-.735.753.753 0 00.987.735z" fill="#F28F8F"/><path d="M44.26 31.023a.387.387 0 01.373.399.378.378 0 11-.372-.399z" fill="#263238"/><path d="M42.194 41.247a4.635 4.635 0 01-.735-.62c-.327-.352-.483-.514-.6-.394a8.26 8.26 0 00-.849 1.458c-.144.321-.117.321-.56.024a7.858 7.858 0 01-2.014-1.938 5.938 5.938 0 01-.8-1.599s.506-.699.653-.966c.3-.516.276-.729.57-.684v.372c.051.45.7.855 1.33 1.398.63.543 1.646 1.062 1.886 1.293.165.16 1.12 1.656 1.12 1.656zm1.803-.324c-.069.183-.654-1.254-.942-1.224-.138 0-.396.723-.54.987-.144.264-.225.393-.32.561.173-.432.221-1.545.257-1.836a5.075 5.075 0 00-.144-1.329l.1-1.092h.257c.146.151.28.313.402.483.282.46.795 1.293.9 1.842a4.77 4.77 0 01.03 1.608zm-9.285-2.067c-2.046.657-3.378.945-4.107 2.463-.729 1.518-1.977 5.265-2.67 7.536-.6 1.947-.9 3.714-.474 4.599l4.293-1.539 2.334-6.105s1.965-4.869.624-6.954z" fill="#37474F"/><path d="M32.303 48.9c-.381.471-.801.645-1.716 1.011-.852.345-1.833.66-2.4 1.533.192-.825.672-1.2 1.737-1.737 1.065-.537 2.625-1.131 2.625-1.131l-.246.324z" fill="#263238"/><path d="M32.303 48.9c-.38.471-.8.645-1.716 1.011-.852.345-1.833.66-2.4 1.533-.483.771-.999 1.407-.74 2.001.18.408 1.328.723 2.432.711 1.104-.012 1.902-.882 3.054-1.611.99-.624 1.5-1.026 1.5-1.026l-2.13-2.619z" fill="#FFA8A7"/><path d="M34.103 50.046c-.405-.408-.48-.822-1.083-1.167-.603-.345-.984-.333-1.626-.66-.642-.327-1.16-.498-1.647-.339-.486.159-.408.435-.045.663.363.228.99.534 1.422.849.432.315.858.498.861 1.05a24.66 24.66 0 01-.198 2.607c-.117.921-.3 1.668-.234 1.767.066.099.465.144.711-.369.246-.513.561-2.4.561-2.4s.177 1.302.25 2.199c.071.897.098 1.581.125 1.773.027.192.66.045.762-.63.102-.675-.027-2.685-.027-2.685l.867 1.5c.34.6.76 1.401.9 1.599.141.198.543-.153.447-.69-.096-.537-.786-1.857-.786-1.857s.834.873.978.957c.144.084.6.018.438-.576-.099-.396-.354-.651-1.023-1.416-.669-.765-.66-1.086-.867-1.437-.276-.444-.492-.441-.786-.738z" fill="#FFA8A7"/><path d="M29.747 47.88a.782.782 0 00-.23.123.21.21 0 00-.088.216.711.711 0 00.366.339l.927.504c.156.092.308.192.453.3.141.099.3.192.435.3.155.107.282.25.37.417.067.176.094.364.077.552-.027.708-.084 1.41-.17 2.1-.049.351-.106.699-.172 1.047l-.105.519a1.607 1.607 0 00-.057.519 1.632 1.632 0 01.021-.525l.07-.525c.05-.348.095-.696.125-1.047a27.51 27.51 0 00.138-2.1 1.07 1.07 0 00-.057-.489 1.02 1.02 0 00-.324-.369c-.135-.102-.3-.198-.429-.3-.129-.102-.285-.198-.432-.3l-.9-.54a.762.762 0 01-.363-.393.238.238 0 01.114-.24.788.788 0 01.231-.108zm2.693 2.478c.667.3 1.32 0 1.41-.168-.044.46-.96.726-1.41.168zM36.794 54c-.06.087-.249.114-.417-.027-.168-.141-.582-.6-.77-.822l-.832-.984.6 1.104s.834.873.978.957a.325.325 0 00.441-.228z" fill="#F28F8F"/><path d="M46.475 35.037l-.38-.174s.317-.417.137-.726a2.577 2.577 0 00-.717-.621c0-.177.018-.357 0-.54.336.206.646.452.924.732a.95.95 0 01.036 1.329z" fill="#000"/><path d="M46.364 34.74c-.285-.234-.489-.069-.849.426s-.237.681 0 .855c.237.174.507.045.786-.369.33-.465.372-.66.063-.912z" fill="#459AE9"/><path opacity=".1" d="M46.364 34.74c-.285-.234-.489-.069-.849.426s-.237.681 0 .855c.237.174.507.045.786-.369.33-.465.372-.66.063-.912z" fill="#000"/></svg>