<svg width="151" height="150" fill="none" xmlns="http://www.w3.org/2000/svg"><path d="M75.625 143.781c39.706 0 71.895-18.584 71.895-41.508 0-22.924-32.189-41.508-71.895-41.508-39.706 0-71.895 18.584-71.895 41.508 0 22.924 32.189 41.508 71.895 41.508z" fill="#F5F5F5"/><path d="M72.15 129.252l-2.94-1.698a.239.239 0 01-.118-.364.25.25 0 01.119-.086l55.014-31.767a.868.868 0 01.78 0l2.94 1.698c.216.126.216.327 0 .45l-55.02 31.767a.867.867 0 01-.774 0zm-7.778-29.913L42.082 112.2a2.147 2.147 0 01-1.938 0l-22.26-12.861c-.534-.3-.534-.81 0-1.119l22.29-12.858a2.136 2.136 0 011.935 0L64.372 98.22c.534.309.534.81 0 1.119z" fill="#E0E0E0"/><path d="M126.007 79.596s-.621-5.1.933-9.555 4.377-7.665 7.5-8.67 6.366 1.299 3.45 4.113c-2.916 2.814-8.454 6.3-9.441 14.442l-2.442-.33z" fill="#459AE9"/><path d="M126.007 79.596s-.621-5.1.933-9.555 4.377-7.665 7.5-8.67 6.366 1.299 3.45 4.113c-2.916 2.814-8.454 6.3-9.441 14.442l-2.442-.33z" fill="#000" opacity=".3"/><path d="M126.625 78.084h-.036a.175.175 0 01-.144-.13.173.173 0 01-.003-.068c1.383-9.036 6.933-13.995 9.675-15.354a.174.174 0 01.208.202.172.172 0 01-.055.098c-2.7 1.332-8.121 6.201-9.483 15.096a.178.178 0 01-.162.156z" fill="#fff"/><path d="M142.225 75.828c-.558 1.389-3 1.242-3.021 2.961 0 .459.201.9.246 1.356.141 1.41-1.023 2.331-2.271 2.532-1.248.201-2.76-.537-3.951.201-.87.543-1.107 1.677-1.554 2.601a5.312 5.312 0 01-4.863 2.916c-.6-.021-1.119-.249-1.014-.9a1.41 1.41 0 00.069-.696c-.069-.333-.222-.648-.318-.972-.438-1.431-.84-2.922-1.659-4.2-.819-1.278-.198-3.186.9-4.086 1.023-.84 2.505-1.083 3.33-2.121.411-.513.6-1.164.951-1.722A3.718 3.718 0 01132.415 72c.963.066 1.845.495 2.772.726a7.883 7.883 0 002.448.09c1.476-.096 3.3-.081 4.272 1.254a1.908 1.908 0 01.318 1.758z" fill="#459AE9"/><path d="M142.225 75.828c-.558 1.389-3 1.242-3.021 2.961 0 .459.201.9.246 1.356.141 1.41-1.023 2.331-2.271 2.532-1.248.201-2.76-.537-3.951.201-.87.543-1.107 1.677-1.554 2.601a5.312 5.312 0 01-4.863 2.916c-.6-.021-1.119-.249-1.014-.9a1.41 1.41 0 00.069-.696c-.069-.333-.222-.648-.318-.972-.438-1.431-.84-2.922-1.659-4.2-.819-1.278-.198-3.186.9-4.086 1.023-.84 2.505-1.083 3.33-2.121.411-.513.6-1.164.951-1.722A3.718 3.718 0 01132.415 72c.963.066 1.845.495 2.772.726a7.883 7.883 0 002.448.09c1.476-.096 3.3-.081 4.272 1.254a1.908 1.908 0 01.318 1.758z" fill="#000" opacity=".1"/><path d="M126.283 85.38h-.015a.148.148 0 01-.055-.025.166.166 0 01-.041-.044.153.153 0 01-.018-.117c2.154-9.474 12-11.196 14.307-11.1a.155.155 0 01.182.08.154.154 0 01-.111.223.155.155 0 01-.071-.003c-2.271-.081-11.889 1.602-13.998 10.872a.153.153 0 01-.18.114z" fill="#fff"/><path d="M137.089 80.22a.16.16 0 01-.084-.042 8.216 8.216 0 00-6.78-1.644.16.16 0 01-.18-.126.158.158 0 01.024-.116.153.153 0 01.099-.064 8.548 8.548 0 017.065 1.725.152.152 0 01.034.169.135.135 0 01-.034.05.155.155 0 01-.144.048z" fill="#fff"/><path d="M62.773 89.805L41.14 102.297 19.504 89.808 41.14 77.316l21.633 12.489z" fill="#459AE9"/><path opacity=".1" d="M62.773 89.805L41.14 102.297 19.504 89.808 41.14 77.316l21.633 12.489z" fill="#000"/><path opacity=".1" d="M41.14 102.297v-1.56L20.857 89.025l-1.356.78 21.639 12.492z" fill="#000"/><path d="M41.14 102.3v8.547c.502.011.997-.107 1.44-.342l9.372-5.4 9.954-5.751a1.905 1.905 0 00.867-1.5v-8.049L41.14 102.3z" fill="#459AE9"/><path opacity=".65" d="M41.14 102.3v8.547c.502.011.997-.107 1.44-.342l9.372-5.4 9.954-5.751a1.905 1.905 0 00.867-1.5v-8.049L41.14 102.3z" fill="#fff"/><path d="M19.501 89.805v8.037a1.913 1.913 0 00.867 1.5l8.601 4.968 10.731 6.195c.443.235.939.353 1.44.342V102.3L19.501 89.805z" fill="#459AE9"/><path opacity=".5" d="M19.501 89.805v8.037a1.913 1.913 0 00.867 1.5l8.601 4.968 10.731 6.195c.443.235.939.353 1.44.342V102.3L19.501 89.805z" fill="#fff"/><path d="M62.773 80.439L41.14 92.928 19.504 80.439 41.14 67.947l21.633 12.492z" fill="#459AE9"/><path opacity=".1" d="M62.773 80.439L41.14 92.928 19.504 80.439 41.14 67.947l21.633 12.492z" fill="#000"/><path opacity=".1" d="M41.14 92.928v-1.56L20.857 79.656l-1.353.783L41.14 92.928z" fill="#000"/><path d="M62.773 86.682L41.137 99.174l.003-6.246 21.633-12.489v6.243z" fill="#459AE9"/><path opacity=".65" d="M62.773 86.682L41.137 99.174l.003-6.246 21.633-12.489v6.243z" fill="#fff"/><path d="M41.137 99.174L19.504 86.682v-6.243L41.14 92.928l-.003 6.246z" fill="#459AE9"/><path opacity=".5" d="M41.137 99.174L19.504 86.682v-6.243L41.14 92.928l-.003 6.246z" fill="#fff"/><path d="M60.07 89.805v-1.56L41.137 99.174l.003 1.563 18.93-10.932z" fill="#455A64"/><path d="M20.854 87.465l.003 1.56 20.283 11.712-.003-1.563-20.283-11.709z" fill="#459AE9"/><path d="M20.854 87.465l.003 1.56 20.283 11.712-.003-1.563-20.283-11.709z" fill="#37474F"/><path d="M62.773 71.07L41.14 83.562 19.504 71.07 41.14 58.578 62.773 71.07z" fill="#459AE9"/><path opacity=".1" d="M62.773 71.07L41.14 83.562 19.504 71.07 41.14 58.578 62.773 71.07z" fill="#000"/><path opacity=".1" d="M41.14 83.562v-1.563L20.857 70.287l-1.353.783L41.14 83.562z" fill="#000"/><path d="M62.773 77.316L41.137 89.808l.003-6.246L62.773 71.07v6.246z" fill="#459AE9"/><path opacity=".65" d="M62.773 77.316L41.137 89.808l.003-6.246L62.773 71.07v6.246z" fill="#fff"/><path d="M41.137 89.808L19.504 77.316V71.07L41.14 83.562l-.003 6.246z" fill="#459AE9"/><path opacity=".5" d="M41.137 89.808L19.504 77.316V71.07L41.14 83.562l-.003 6.246z" fill="#fff"/><path d="M60.07 80.439v-1.563L41.137 89.808l.003 1.56 18.93-10.929z" fill="#455A64"/><path d="M20.854 78.096l.003 1.56L41.14 91.368l-.003-1.56-20.283-11.712z" fill="#37474F"/><path d="M60.07 71.07v-1.563L41.137 80.439l.003 1.56L60.07 71.07z" fill="#455A64"/><path d="M20.854 68.727l.003 1.56L41.14 81.999l-.003-1.56-20.283-11.712z" fill="#37474F"/><path d="M62.773 61.701L41.14 74.193 19.504 61.701 41.14 49.209l21.633 12.492z" fill="#459AE9"/><path opacity=".15" d="M62.773 61.701L41.14 74.193 19.504 61.701 41.14 49.209l21.633 12.492z" fill="#fff"/><path opacity=".1" d="M62.773 61.701L41.14 74.193 19.504 61.701 41.14 49.209l21.633 12.492z" fill="#000"/><path opacity=".1" d="M41.14 72.633v1.56L19.504 61.701l1.353-.78L41.14 72.633z" fill="#000"/><path d="M62.773 67.947L41.137 80.439l.003-6.246 21.633-12.492v6.246z" fill="#459AE9"/><path opacity=".65" d="M62.773 67.947L41.137 80.439l.003-6.246 21.633-12.492v6.246z" fill="#fff"/><path d="M41.137 80.439L19.504 67.947v-6.246L41.14 74.193l-.003 6.246z" fill="#459AE9"/><path opacity=".5" d="M41.137 80.439L19.504 67.947v-6.246L41.14 74.193l-.003 6.246z" fill="#fff"/><path d="M60.07 61.704v-1.563L41.137 71.073l.003 1.56 18.93-10.929z" fill="#455A64"/><path d="M20.854 59.361l.003 1.56L41.14 72.633l-.003-1.56-20.283-11.712z" fill="#37474F"/><path d="M62.773 52.314L41.14 64.806 19.504 52.314 41.14 39.822l21.633 12.492z" fill="#459AE9"/><path opacity=".15" d="M62.773 52.314L41.14 64.806 19.504 52.314 41.14 39.822l21.633 12.492z" fill="#fff"/><path opacity=".1" d="M62.773 52.314L41.14 64.806 19.504 52.314 41.14 39.822l21.633 12.492z" fill="#000"/><path opacity=".1" d="M41.14 63.246v1.56L19.504 52.314l1.353-.777L41.14 63.246z" fill="#000"/><path d="M62.773 58.56L41.137 71.052l.003-6.246 21.633-12.492v6.246z" fill="#459AE9"/><path opacity=".65" d="M62.773 58.56L41.137 71.052l.003-6.246 21.633-12.492v6.246z" fill="#fff"/><path d="M41.137 71.052L19.504 58.56v-6.246L41.14 64.806l-.003 6.246z" fill="#459AE9"/><path opacity=".5" d="M41.137 71.052L19.504 58.56v-6.246L41.14 64.806l-.003 6.246z" fill="#fff"/><path d="M20.368 42.45l19.917-11.493a1.914 1.914 0 011.731 0L61.909 42.45a1.913 1.913 0 01.867 1.5v5.25L41.125 61.686 19.501 49.2v-5.253a1.914 1.914 0 01.867-1.497z" fill="#459AE9"/><path opacity=".5" d="M20.368 42.45l19.917-11.493a1.914 1.914 0 011.731 0L61.909 42.45a1.913 1.913 0 01.867 1.5v5.25L41.125 61.686 19.501 49.2v-5.253a1.914 1.914 0 01.867-1.497z" fill="#fff"/><path d="M41.125 55.146v6.54L62.773 49.2v-5.253a1.942 1.942 0 00-.708-1.389c.3.279.264.648-.156.9l-19.92 11.493a1.782 1.782 0 01-.864.195z" fill="#459AE9"/><path opacity=".65" d="M41.125 55.146v6.54L62.773 49.2v-5.253a1.942 1.942 0 00-.708-1.389c.3.279.264.648-.156.9l-19.92 11.493a1.782 1.782 0 01-.864.195z" fill="#fff"/><path d="M61.909 43.449l-19.92 11.493a1.907 1.907 0 01-1.728 0L20.368 43.449c-.48-.276-.48-.723 0-.999l19.917-11.493a1.914 1.914 0 011.73 0L61.91 42.45c.48.276.48.723 0 .999z" fill="#459AE9"/><path opacity=".85" d="M61.909 43.449l-19.92 11.493a1.907 1.907 0 01-1.728 0L20.368 43.449c-.48-.276-.48-.723 0-.999l19.917-11.493a1.914 1.914 0 011.73 0L61.91 42.45c.48.276.48.723 0 .999z" fill="#fff"/><path d="M60.07 52.317v-1.56L41.137 61.686l.003 1.56 18.93-10.929z" fill="#455A64"/><path d="M20.854 49.974l.003 1.563L41.14 63.246l-.003-1.56-20.283-11.712z" fill="#37474F"/><path d="M24.208 99.765a.653.653 0 01.3.519c0 .192-.135.27-.3.174a.679.679 0 01-.3-.522c0-.192.135-.267.3-.171zm2.517 1.446a.672.672 0 01.3.516c0 .192-.135.27-.3.174a.666.666 0 01-.3-.519c0-.189.12-.267.3-.171zm2.445 1.419a.653.653 0 01.3.516c0 .189-.132.267-.3.171a.653.653 0 01-.3-.516c0-.201.135-.267.3-.171zm2.481 1.434a.65.65 0 01.3.513c0 .189-.135.267-.3.171a.647.647 0 01-.3-.513c.003-.189.135-.267.3-.171z" fill="#455A64"/><path d="M21.292 92.4l2.54 1.461a1.584 1.584 0 01.72 1.248v1.458c0 .459-.32.645-.72.414l-2.54-1.458a1.597 1.597 0 01-.723-1.248v-1.461c0-.468.324-.654.723-.414z" fill="#fff" opacity=".75"/><path d="M21.976 94.035l.33-.192a.444.444 0 01.441.045 1.382 1.382 0 01.627 1.086.447.447 0 01-.183.405l-.3.174-.054-.09a.688.688 0 01-.18-.072 1.374 1.374 0 01-.627-1.083c0-.055.005-.109.018-.162l-.072-.111z" fill="#459AE9"/><path opacity=".2" d="M21.976 94.035l.33-.192a.444.444 0 01.441.045 1.382 1.382 0 01.627 1.086.447.447 0 01-.183.405l-.3.174-.054-.09a.688.688 0 01-.18-.072 1.374 1.374 0 01-.627-1.083c0-.055.005-.109.018-.162l-.072-.111z" fill="#000"/><path d="M22.432 94.071a1.383 1.383 0 01.627 1.083c0 .402-.282.564-.627.363a1.392 1.392 0 01-.627-1.086c0-.399.282-.561.627-.36z" fill="#459AE9"/><path d="M21.292 83.016l2.54 1.458a1.592 1.592 0 01.72 1.248v1.461c0 .459-.32.645-.72.414l-2.54-1.461a1.589 1.589 0 01-.723-1.236v-1.47c0-.459.324-.63.723-.414z" fill="#fff" opacity=".75"/><path d="M21.976 84.66l.33-.192a.438.438 0 01.441.045 1.383 1.383 0 01.627 1.083.44.44 0 01-.183.405l-.3.174-.066-.075a.582.582 0 01-.18-.069 1.374 1.374 0 01-.627-1.086c0-.053.006-.107.018-.159l-.06-.126z" fill="#459AE9"/><path opacity=".2" d="M21.976 84.66l.33-.192a.438.438 0 01.441.045 1.383 1.383 0 01.627 1.083.44.44 0 01-.183.405l-.3.174-.066-.075a.582.582 0 01-.18-.069 1.374 1.374 0 01-.627-1.086c0-.053.006-.107.018-.159l-.06-.126z" fill="#000"/><path d="M22.432 84.696a1.383 1.383 0 01.627 1.083c0 .399-.282.561-.627.363a1.392 1.392 0 01-.627-1.086c0-.399.282-.561.627-.36z" fill="#459AE9"/><path d="M21.292 73.644l2.54 1.461a1.592 1.592 0 01.72 1.248v1.458c0 .462-.32.648-.72.417l-2.54-1.461a1.59 1.59 0 01-.723-1.248v-1.458c0-.459.324-.645.723-.417z" fill="#fff" opacity=".75"/><path d="M21.976 75.3l.33-.189a.444.444 0 01.441.045 1.392 1.392 0 01.627 1.086.445.445 0 01-.183.405l-.3.177-.054-.093a.582.582 0 01-.18-.069 1.383 1.383 0 01-.627-1.086c0-.053.005-.107.018-.159l-.072-.117z" fill="#459AE9"/><path opacity=".2" d="M21.976 75.3l.33-.189a.444.444 0 01.441.045 1.392 1.392 0 01.627 1.086.445.445 0 01-.183.405l-.3.177-.054-.093a.582.582 0 01-.18-.069 1.383 1.383 0 01-.627-1.086c0-.053.005-.107.018-.159l-.072-.117z" fill="#000"/><path d="M22.432 75.324a1.392 1.392 0 01.627 1.086c0 .399-.282.561-.627.363a1.392 1.392 0 01-.627-1.086c0-.387.282-.561.627-.363z" fill="#459AE9"/><path d="M21.292 64.287l2.54 1.461a1.586 1.586 0 01.72 1.248v1.458c0 .459-.32.645-.72.417l-2.54-1.461a1.597 1.597 0 01-.723-1.248v-1.458c0-.462.324-.648.723-.417z" fill="#fff" opacity=".75"/><path d="M21.976 65.931l.33-.192a.444.444 0 01.441.045 1.392 1.392 0 01.627 1.086.447.447 0 01-.183.405l-.3.177-.054-.093a.6.6 0 01-.18-.072 1.374 1.374 0 01-.627-1.083c0-.054.006-.109.018-.162l-.072-.111z" fill="#459AE9"/><path opacity=".2" d="M21.976 65.931l.33-.192a.444.444 0 01.441.045 1.392 1.392 0 01.627 1.086.447.447 0 01-.183.405l-.3.177-.054-.093a.6.6 0 01-.18-.072 1.374 1.374 0 01-.627-1.083c0-.054.006-.109.018-.162l-.072-.111z" fill="#000"/><path d="M22.432 65.967a1.382 1.382 0 01.627 1.086c0 .399-.282.561-.627.36a1.383 1.383 0 01-.627-1.086c0-.399.282-.561.627-.36z" fill="#459AE9"/><path d="M21.292 54.9l2.54 1.461a1.592 1.592 0 01.72 1.248v1.458c0 .459-.32.648-.72.417l-2.54-1.461a1.59 1.59 0 01-.723-1.248v-1.458c0-.459.324-.645.723-.417z" fill="#fff" opacity=".75"/><path d="M21.976 56.544l.33-.189a.444.444 0 01.441.045 1.392 1.392 0 01.627 1.086.445.445 0 01-.183.405l-.3.177-.054-.093a.582.582 0 01-.18-.069 1.383 1.383 0 01-.627-1.086c0-.054.005-.107.018-.159l-.072-.117z" fill="#459AE9"/><path opacity=".2" d="M21.976 56.544l.33-.189a.444.444 0 01.441.045 1.392 1.392 0 01.627 1.086.445.445 0 01-.183.405l-.3.177-.054-.093a.582.582 0 01-.18-.069 1.383 1.383 0 01-.627-1.086c0-.054.005-.107.018-.159l-.072-.117z" fill="#000"/><path d="M22.432 56.58a1.392 1.392 0 01.627 1.086c0 .399-.282.561-.627.36a1.382 1.382 0 01-.627-1.083c0-.399.282-.561.627-.363z" fill="#459AE9"/><path d="M21.292 45.525l2.54 1.458a1.593 1.593 0 01.72 1.251v1.458c0 .459-.32.645-.72.414l-2.54-1.458a1.597 1.597 0 01-.723-1.248v-1.458c0-.462.324-.642.723-.417z" fill="#fff" opacity=".75"/><path d="M21.976 47.169l.33-.192a.444.444 0 01.441.045 1.381 1.381 0 01.627 1.086.448.448 0 01-.183.405l-.3.174-.066-.087a.684.684 0 01-.18-.072 1.374 1.374 0 01-.627-1.083c0-.054.005-.109.018-.162l-.06-.114z" fill="#459AE9"/><path opacity=".2" d="M21.976 47.169l.33-.192a.444.444 0 01.441.045 1.381 1.381 0 01.627 1.086.448.448 0 01-.183.405l-.3.174-.066-.087a.684.684 0 01-.18-.072 1.374 1.374 0 01-.627-1.083c0-.054.005-.109.018-.162l-.06-.114z" fill="#000"/><path d="M22.432 47.205a1.382 1.382 0 01.627 1.095c0 .402-.282.564-.627.363a1.392 1.392 0 01-.627-1.086c0-.411.282-.573.627-.372z" fill="#459AE9"/><path d="M60.7 92.568L49.972 98.76a1.6 1.6 0 00-.72 1.251v1.458c0 .459.324.645.72.414L60.7 95.7a1.597 1.597 0 00.723-1.248v-1.461c0-.468-.324-.654-.723-.423z" fill="#455A64"/><path d="M60.66 93.801v.699a.3.3 0 01-.143.249l-.162.096c-.078.045-.144 0-.144-.084v-.708a.32.32 0 01.144-.249l.162-.093c.08-.039.144 0 .144.09zm-.728.42v.708a.3.3 0 01-.144.249l-.162.096c-.078.045-.144 0-.144-.084v-.708a.319.319 0 01.144-.249l.162-.093c.08-.048.144-.009.144.081zm-.726.42v.708a.318.318 0 01-.144.249l-.165.096c-.078.045-.144 0-.144-.084v-.708a.317.317 0 01.144-.249l.165-.093c.078-.06.144-.009.144.081z" fill="#459AE9"/><path d="M58.477 95.061v.708a.32.32 0 01-.144.249l-.162.096c-.081.045-.144 0-.144-.084v-.708a.3.3 0 01.144-.249l.162-.093c.078-.048.144-.009.144.081zm-.729.42v.708a.32.32 0 01-.144.249l-.162.096c-.081.045-.144 0-.144-.084v-.708a.3.3 0 01.144-.249l.162-.093c.078-.048.144 0 .144.081z" fill="#37474F"/><path d="M57.025 95.901v.699a.3.3 0 01-.144.249l-.162.096c-.08.045-.144 0-.144-.084v-.708a.3.3 0 01.144-.249l.162-.093c.075-.039.144 0 .144.09zm-.735.42v.708a.302.302 0 01-.144.249l-.162.096a.09.09 0 01-.1.006.09.09 0 01-.044-.09v-.708a.317.317 0 01.144-.249l.162-.093c.08-.048.144-.009.144.081zm-.73.42v.708a.302.302 0 01-.143.249l-.162.096a.09.09 0 01-.144-.084v-.708a.318.318 0 01.144-.249l.162-.093c.08-.06.144-.009.144.081zm-.725.42v.708a.32.32 0 01-.144.249l-.165.096a.09.09 0 01-.1.006.09.09 0 01-.044-.09v-.708a.317.317 0 01.144-.249l.165-.093c.078-.048.144-.009.144.081zm-.729.42v.708a.32.32 0 01-.144.249l-.162.096c-.081.045-.144 0-.144-.084v-.708a.3.3 0 01.144-.249l.162-.093c.078-.048.144 0 .144.081zm-.729.42v.699a.32.32 0 01-.144.249l-.162.096c-.081.045-.144 0-.144-.084v-.708a.3.3 0 01.144-.249l.162-.093c.078-.039.144 0 .144.09zm-.729.42v.708a.301.301 0 01-.144.249l-.162.096c-.081.045-.144 0-.144-.084v-.708a.3.3 0 01.144-.249l.162-.093c.08-.048.144-.009.144.081z" fill="#459AE9"/><path d="M51.925 98.841v.708a.3.3 0 01-.144.249l-.156.102a.09.09 0 01-.144-.084v-.708a.318.318 0 01.144-.249l.162-.093c.069-.066.138-.015.138.075z" fill="#37474F"/><path d="M51.19 99.261v.708a.302.302 0 01-.144.249l-.162.093c-.078.048-.144 0-.144-.081v-.708a.319.319 0 01.144-.249l.162-.093c.08-.048.144-.009.144.081zm-.726.42v.708a.321.321 0 01-.144.249l-.165.093c-.078.048-.144 0-.144-.081v-.708a.319.319 0 01.144-.249l.165-.096a.09.09 0 01.144.084z" fill="#459AE9"/><path d="M60.7 83.202L49.972 89.4a1.6 1.6 0 00-.72 1.248V92.1c0 .462.324.648.72.417L60.7 86.322a1.587 1.587 0 00.723-1.248v-1.458c0-.459-.324-.645-.723-.414z" fill="#455A64"/><path d="M60.66 84.435v.708a.3.3 0 01-.143.249l-.162.093c-.078.048-.144 0-.144-.081v-.708a.319.319 0 01.144-.249l.162-.096c.08-.051.144-.006.144.084z" fill="#459AE9"/><path d="M59.932 84.855v.708a.3.3 0 01-.144.249l-.162.093c-.078.048-.144 0-.144-.081v-.708a.319.319 0 01.144-.249l.162-.096c.08-.045.144-.006.144.084z" fill="#37474F"/><path d="M59.206 85.275v.708a.318.318 0 01-.144.249l-.165.093c-.078.048-.144 0-.144-.081v-.708a.317.317 0 01.144-.249l.165-.096a.09.09 0 01.144.084z" fill="#459AE9"/><path d="M58.477 85.695v.705a.32.32 0 01-.144.249l-.162.093c-.081.048-.144 0-.144-.081v-.708a.3.3 0 01.144-.249l.162-.096a.09.09 0 01.102-.006.09.09 0 01.042.093zm-.729.42v.708a.32.32 0 01-.144.249l-.162.093c-.081.048-.144 0-.144-.081v-.708a.3.3 0 01.144-.249l.162-.096c.078-.045.144-.009.144.084z" fill="#37474F"/><path d="M57.025 86.535v.708a.3.3 0 01-.144.249l-.156.108c-.08.048-.144 0-.144-.081v-.708a.3.3 0 01.144-.249l.162-.096c.07-.066.138-.024.138.069zm-.735.42v.708a.3.3 0 01-.144.249l-.162.093c-.078.048-.144 0-.144-.081v-.708a.319.319 0 01.144-.249l.162-.096c.08-.045.144-.009.144.084zm-.73.42v.708a.3.3 0 01-.143.249l-.162.093c-.078.048-.144 0-.144-.081v-.708a.319.319 0 01.144-.249l.162-.096c.08-.045.144-.009.144.084z" fill="#459AE9"/><path d="M54.835 87.795v.705a.318.318 0 01-.144.249l-.165.093c-.078.048-.144 0-.144-.081v-.708a.319.319 0 01.144-.249l.165-.096c.078-.042.144-.006.144.087z" fill="#37474F"/><path d="M54.106 88.215v.708a.319.319 0 01-.144.249l-.162.093c-.081.048-.144 0-.144-.081v-.708a.3.3 0 01.144-.249l.162-.096c.078-.045.144-.009.144.084z" fill="#459AE9"/><path d="M53.377 88.635v.708a.32.32 0 01-.144.249l-.162.093c-.081.048-.144 0-.144-.081v-.708a.3.3 0 01.144-.249l.162-.096c.078-.051.144-.009.144.084z" fill="#37474F"/><path d="M52.648 89.055v.708a.3.3 0 01-.144.249l-.162.093c-.081.048-.144 0-.144-.081v-.708a.3.3 0 01.144-.249l.162-.096c.08-.045.144-.009.144.084z" fill="#459AE9"/><path d="M51.925 89.475v.708a.315.315 0 01-.144.249l-.162.093c-.078.048-.144 0-.144-.081v-.708a.33.33 0 01.144-.252l.162-.093c.075-.045.144-.009.144.084z" fill="#37474F"/><path d="M51.19 89.895v.705a.314.314 0 01-.144.249l-.162.093c-.078.048-.144 0-.144-.081v-.708a.331.331 0 01.144-.252l.162-.093c.08-.042.144-.006.144.087zm-.726.42v.708a.323.323 0 01-.144.249l-.165.093c-.078.048-.144 0-.144-.081v-.708a.331.331 0 01.144-.252l.165-.093c.078-.045.144-.009.144.084z" fill="#459AE9"/><path d="M60.7 73.824l-10.728 6.192a1.6 1.6 0 00-.72 1.251v1.458c0 .459.324.645.72.414L60.7 76.947a1.597 1.597 0 00.723-1.248v-1.461c0-.459-.324-.645-.723-.414z" fill="#455A64"/><path d="M60.66 75.057v.708a.3.3 0 01-.143.249l-.162.096c-.078.045-.144 0-.144-.084v-.708a.319.319 0 01.144-.249l.162-.093c.08-.048.144-.009.144.081zm-.728.42v.723a.3.3 0 01-.144.249l-.162.096c-.078.045-.144 0-.144-.084v-.708a.319.319 0 01.144-.249l.162-.093c.08-.063.144-.024.144.066zm-.726.423v.708a.32.32 0 01-.144.249l-.165.096a.09.09 0 01-.1.006.09.09 0 01-.044-.09v-.708a.317.317 0 01.144-.249l.165-.093c.078-.051.144-.012.144.081zm-.729.417v.708a.32.32 0 01-.144.249l-.162.096c-.081.045-.144 0-.144-.084v-.708a.3.3 0 01.144-.249l.162-.093c.078-.036.144-.009.144.081z" fill="#459AE9"/><path d="M57.748 76.737v.708a.319.319 0 01-.144.249l-.162.096c-.081.045-.144 0-.144-.084v-.708a.3.3 0 01.144-.249l.162-.093c.078-.048.144-.009.144.081zm-.723.42v.708a.3.3 0 01-.144.249l-.162.096c-.08.045-.144 0-.144-.084v-.708a.3.3 0 01.144-.249l.162-.093c.075-.048.144-.009.144.081z" fill="#37474F"/><path d="M56.29 77.577v.723a.302.302 0 01-.144.249l-.162.096a.09.09 0 01-.144-.084v-.708a.317.317 0 01.144-.249l.162-.093c.08-.063.144-.024.144.066zm-.73.423v.708a.302.302 0 01-.143.249l-.162.096a.09.09 0 01-.1.006.09.09 0 01-.044-.09v-.708a.317.317 0 01.144-.249l.162-.093c.08-.051.144-.012.144.081zm-.725.417v.708a.32.32 0 01-.144.249l-.165.096a.09.09 0 01-.1.006.09.09 0 01-.044-.09v-.708a.317.317 0 01.144-.249l.165-.093c.078-.036.144-.009.144.081z" fill="#459AE9"/><path d="M54.106 78.837v.708a.32.32 0 01-.144.249l-.162.093c-.081.048-.144 0-.144-.081v-.708a.3.3 0 01.144-.249l.162-.093c.078-.048.144-.009.144.081z" fill="#37474F"/><path d="M53.377 79.257v.708a.32.32 0 01-.144.249l-.162.093c-.081.048-.144 0-.144-.081v-.708a.3.3 0 01.144-.249l.162-.096a.09.09 0 01.1-.006.09.09 0 01.044.09zm-.729.42v.723a.3.3 0 01-.144.249l-.162.093c-.081.048-.144 0-.144-.081v-.708a.3.3 0 01.144-.249l.162-.096c.08-.06.144-.021.144.069z" fill="#459AE9"/><path d="M51.925 80.1v.708a.3.3 0 01-.144.249l-.162.093c-.078.048-.144 0-.144-.081v-.708a.318.318 0 01.15-.261l.162-.096c.07-.036.138.003.138.096z" fill="#37474F"/><path d="M51.19 80.517v.708a.3.3 0 01-.144.249l-.162.093c-.078.048-.144 0-.144-.081v-.708a.319.319 0 01.144-.249l.162-.096c.08-.033.144-.006.144.084z" fill="#459AE9"/><path d="M50.464 80.937v.708a.318.318 0 01-.144.249l-.165.093c-.078.048-.144 0-.144-.081v-.708a.319.319 0 01.144-.249l.165-.096a.09.09 0 01.144.084z" fill="#37474F"/><path d="M60.7 64.461l-10.728 6.195a1.6 1.6 0 00-.72 1.248v1.458c0 .459.324.648.72.417L60.7 67.584a1.59 1.59 0 00.723-1.248v-1.458c0-.459-.324-.645-.723-.417z" fill="#455A64"/><path d="M60.66 65.7v.708a.314.314 0 01-.143.249l-.162.093c-.078.048-.144 0-.144-.084v-.705a.33.33 0 01.144-.252l.162-.093c.08-.048.144-.012.144.084z" fill="#459AE9"/><path d="M59.932 66.117v.708a.314.314 0 01-.144.249l-.162.093c-.078.045-.144 0-.144-.084v-.705a.33.33 0 01.144-.252l.162-.093c.08-.033.144-.009.144.084z" fill="#37474F"/><path d="M59.206 66.537v.708a.323.323 0 01-.144.249l-.165.093c-.078.045-.144 0-.144-.084v-.705a.33.33 0 01.144-.252l.165-.093c.078-.045.144-.009.144.084zm-.729.42v.708a.325.325 0 01-.144.249l-.162.093c-.081.045-.144 0-.144-.084v-.705a.32.32 0 01.144-.252l.162-.093c.078-.045.144-.009.144.084zm-.729.42v.723a.325.325 0 01-.144.249l-.162.093c-.081.045-.144 0-.144-.084v-.705a.32.32 0 01.144-.252l.162-.093c.078-.06.144-.024.144.069z" fill="#459AE9"/><path d="M57.025 67.8v.708a.316.316 0 01-.144.249l-.162.093c-.08.045-.144 0-.144-.084v-.705a.322.322 0 01.15-.261l.162-.093c.07-.039.138-.003.138.093zm-.735.417v.708a.314.314 0 01-.144.249l-.162.093c-.078.045-.144 0-.144-.084v-.705a.332.332 0 01.144-.252l.162-.093c.08-.033.144-.009.144.084z" fill="#37474F"/><path d="M55.56 68.637v.708a.314.314 0 01-.143.249l-.162.093c-.078.045-.144 0-.144-.084v-.705a.33.33 0 01.144-.252l.162-.093c.08-.045.144-.009.144.084z" fill="#459AE9"/><path d="M54.835 69.057v.708a.323.323 0 01-.144.249l-.165.093c-.078.045-.144 0-.144-.084v-.705a.33.33 0 01.144-.252l.165-.093c.078-.045.144-.009.144.084z" fill="#37474F"/><path d="M54.106 69.477v.723a.323.323 0 01-.144.249l-.162.093c-.081.045-.144 0-.144-.084v-.708a.32.32 0 01.144-.249l.162-.093c.078-.06.144-.024.144.069zm-.729.423v.708a.325.325 0 01-.144.249l-.162.093c-.081.045-.144 0-.144-.084v-.708a.32.32 0 01.144-.249l.162-.093c.078-.048.144-.012.144.084zm-.729.417v.708a.321.321 0 01-.144.249l-.162.093c-.081.045-.144 0-.144-.084v-.708a.32.32 0 01.144-.249l.162-.093c.08-.033.144-.009.144.084z" fill="#459AE9"/><path d="M51.925 70.737v.708a.321.321 0 01-.144.249l-.162.093c-.078.045-.144 0-.144-.084v-.708a.326.326 0 01.144-.249l.162-.093c.075-.045.144-.009.144.084z" fill="#37474F"/><path d="M51.19 71.157v.708a.32.32 0 01-.144.249l-.162.093c-.078.045-.144 0-.144-.084v-.708a.327.327 0 01.144-.249l.162-.093c.08-.045.144-.009.144.084zm-.726.42v.723a.328.328 0 01-.144.249l-.165.093c-.078.045-.144 0-.144-.084v-.708a.328.328 0 01.144-.249l.165-.093c.078-.06.144-.024.144.069z" fill="#459AE9"/><path d="M60.7 55.077l-10.728 6.192a1.6 1.6 0 00-.72 1.248v1.461c0 .459.324.645.72.414L60.7 58.2a1.596 1.596 0 00.723-1.251V55.5c0-.468-.324-.654-.723-.423z" fill="#455A64"/><path d="M60.66 56.31v.708a.3.3 0 01-.143.249l-.162.096a.09.09 0 01-.1.006.09.09 0 01-.044-.09v-.708a.317.317 0 01.144-.249l.162-.093c.08-.048.144-.009.144.081z" fill="#459AE9"/><path d="M59.932 56.73v.708a.3.3 0 01-.144.249l-.162.096a.09.09 0 01-.1.006.09.09 0 01-.044-.09V57a.317.317 0 01.144-.249l.162-.093c.08-.057.144-.018.144.072z" fill="#37474F"/><path d="M59.206 57.15v.708a.32.32 0 01-.144.249l-.165.096a.09.09 0 01-.144-.084v-.708a.318.318 0 01.144-.249l.165-.093c.078-.048.144-.009.144.081zm-.729.42v.708a.32.32 0 01-.144.249l-.162.093c-.081.048-.144 0-.144-.081v-.708a.3.3 0 01.144-.249l.162-.093c.078-.048.144-.009.144.081zm-.729.42v.708a.32.32 0 01-.144.249l-.162.093c-.081.048-.144 0-.144-.081v-.708a.3.3 0 01.144-.249l.162-.096a.09.09 0 01.144.084z" fill="#459AE9"/><path d="M57.025 58.41v.708a.3.3 0 01-.144.249l-.162.093c-.08.048-.144 0-.144-.081v-.708a.3.3 0 01.144-.249l.162-.096c.075-.045.144-.006.144.084zm-.735.42v.708a.3.3 0 01-.144.249l-.162.093c-.078.048-.144 0-.144-.081V59.1a.32.32 0 01.144-.249l.162-.096c.08-.054.144-.015.144.075z" fill="#37474F"/><path d="M55.56 59.25v.708a.3.3 0 01-.143.249l-.162.093c-.078.048-.144 0-.144-.081v-.708a.319.319 0 01.144-.249l.162-.096c.08-.045.144-.006.144.084z" fill="#459AE9"/><path d="M54.835 59.67v.708a.317.317 0 01-.144.249l-.165.093c-.078.048-.144 0-.144-.081v-.708a.32.32 0 01.144-.249l.165-.096a.09.09 0 01.144.084z" fill="#37474F"/><path d="M54.106 60.09v.708a.32.32 0 01-.144.249l-.162.093c-.081.048-.144 0-.144-.081v-.708a.3.3 0 01.144-.249l.162-.096a.09.09 0 01.1-.006.09.09 0 01.044.09zm-.729.42v.708a.32.32 0 01-.144.249l-.162.093c-.081.048-.144 0-.144-.081v-.708a.3.3 0 01.144-.249l.162-.096c.078-.045.144-.009.144.084zm-.729.42v.708a.3.3 0 01-.144.249l-.162.093c-.081.048-.144 0-.144-.081V61.2a.3.3 0 01.144-.249l.162-.096c.08-.054.144-.018.144.075z" fill="#459AE9"/><path d="M51.925 61.35v.708a.3.3 0 01-.144.249l-.156.093c-.078.048-.144 0-.144-.081v-.708a.318.318 0 01.144-.249l.162-.096c.069-.045.138-.009.138.084z" fill="#37474F"/><path d="M51.19 61.77v.708a.3.3 0 01-.144.249l-.162.093c-.078.048-.144 0-.144-.081v-.708a.319.319 0 01.144-.249l.162-.096c.08-.045.144-.009.144.084zm-.726.42v.708a.318.318 0 01-.144.249l-.165.093c-.078.048-.144 0-.144-.081v-.708a.319.319 0 01.144-.249l.165-.096c.078-.045.144-.006.144.084z" fill="#459AE9"/><path d="M60.7 45.705L49.972 51.9a1.599 1.599 0 00-.72 1.248V54.6c0 .462.324.648.72.417L60.7 48.822a1.588 1.588 0 00.723-1.248v-1.458c0-.453-.324-.639-.723-.411z" fill="#455A64"/><path d="M60.66 46.941v.708a.3.3 0 01-.143.249l-.162.093c-.078.048-.144 0-.144-.081v-.708a.32.32 0 01.144-.249l.162-.096c.08-.057.144-.006.144.084z" fill="#37474F"/><path d="M59.932 47.361v.708a.3.3 0 01-.144.249l-.162.093c-.078.048-.144 0-.144-.081v-.708a.319.319 0 01.144-.249l.162-.096c.08-.045.144-.006.144.084z" fill="#459AE9"/><path d="M59.206 47.781v.708a.318.318 0 01-.144.249l-.165.093c-.078.048-.144 0-.144-.081v-.708a.317.317 0 01.144-.249l.165-.096a.09.09 0 01.144.084zm-.729.42v.699a.32.32 0 01-.144.249l-.162.093c-.081.048-.144 0-.144-.081v-.708a.3.3 0 01.144-.249l.162-.096c.078-.036.144 0 .144.093zm-.729.42v.708a.319.319 0 01-.144.249l-.162.093c-.081.048-.144 0-.144-.081v-.708a.3.3 0 01.144-.249l.162-.096c.078-.045.144-.009.144.084z" fill="#37474F"/><path d="M57.025 49.041v.708a.3.3 0 01-.144.249l-.156.102c-.08.048-.144 0-.144-.081v-.708a.3.3 0 01.144-.249l.162-.096c.07-.066.138-.018.138.075zm-.735.42v.708a.3.3 0 01-.144.249l-.162.093c-.078.048-.144 0-.144-.081v-.708a.319.319 0 01.144-.249l.162-.096c.08-.045.144-.009.144.084z" fill="#459AE9"/><path d="M55.56 49.881v.708a.3.3 0 01-.143.249l-.162.093c-.078.048-.144 0-.144-.081v-.708a.319.319 0 01.144-.249l.162-.096c.08-.045.144.003.144.084z" fill="#37474F"/><path d="M54.835 50.301V51a.318.318 0 01-.144.249l-.165.093c-.078.048-.144 0-.144-.081v-.708a.319.319 0 01.144-.249l.165-.096c.078-.036.144 0 .144.093z" fill="#459AE9"/><path d="M54.106 50.721v.708a.323.323 0 01-.144.249l-.162.093c-.081.048-.144 0-.144-.081v-.708a.3.3 0 01.144-.249l.162-.096c.078-.045.144-.009.144.084zm-.729.42v.708a.325.325 0 01-.144.249l-.162.093c-.081.048-.144 0-.144-.081v-.708a.32.32 0 01.144-.252l.162-.093c.078-.057.144-.009.144.084zm-.729.42v.708a.315.315 0 01-.144.249l-.162.093c-.081.048-.144 0-.144-.081v-.708a.32.32 0 01.144-.252l.162-.093c.08-.045.144-.009.144.084z" fill="#37474F"/><path d="M51.925 51.981v.708a.315.315 0 01-.144.249l-.162.093c-.078.048-.144 0-.144-.081v-.708a.33.33 0 01.144-.252l.162-.093c.075-.045.144.003.144.084z" fill="#459AE9"/><path d="M51.19 52.401v.699a.314.314 0 01-.144.249l-.162.093c-.078.048-.144 0-.144-.084v-.705a.331.331 0 01.144-.252l.162-.093c.08-.036.144 0 .144.093zm-.726.42v.708a.323.323 0 01-.144.249l-.165.093c-.078.048-.144 0-.144-.084v-.705a.331.331 0 01.144-.252l.165-.093c.078-.045.144-.009.144.084z" fill="#37474F"/><path d="M47.332 101.43l-.33-.192a.435.435 0 00-.438.045 1.383 1.383 0 00-.627 1.086.44.44 0 00.183.405l.3.177.057-.093a.646.646 0 00.18-.072 1.38 1.38 0 00.627-1.083.679.679 0 00-.021-.162l.069-.111z" fill="#459AE9"/><path opacity=".4" d="M47.332 101.43l-.33-.192a.435.435 0 00-.438.045 1.383 1.383 0 00-.627 1.086.44.44 0 00.183.405l.3.177.057-.093a.646.646 0 00.18-.072 1.38 1.38 0 00.627-1.083.679.679 0 00-.021-.162l.069-.111z" fill="#000"/><path d="M46.876 101.466a1.387 1.387 0 00-.624 1.086c0 .399.279.561.624.36a1.37 1.37 0 00.627-1.086c0-.399-.279-.561-.627-.36z" fill="#459AE9"/><path opacity=".2" d="M46.876 101.466a1.387 1.387 0 00-.624 1.086c0 .399.279.561.624.36a1.37 1.37 0 00.627-1.086c0-.399-.279-.561-.627-.36z" fill="#000"/><path d="M44.614 102.999l-.33-.189a.44.44 0 00-.441.045 1.393 1.393 0 00-.627 1.086.447.447 0 00.183.405l.3.177.054-.093a.724.724 0 00.18-.069 1.383 1.383 0 00.627-1.086.827.827 0 00-.018-.159l.072-.117z" fill="#459AE9"/><path opacity=".4" d="M44.614 102.999l-.33-.189a.44.44 0 00-.441.045 1.393 1.393 0 00-.627 1.086.447.447 0 00.183.405l.3.177.054-.093a.724.724 0 00.18-.069 1.383 1.383 0 00.627-1.086.827.827 0 00-.018-.159l.072-.117z" fill="#000"/><path d="M44.158 103.035a1.393 1.393 0 00-.627 1.086c0 .399.282.561.627.36a1.383 1.383 0 00.627-1.083c0-.402-.282-.564-.627-.363z" fill="#459AE9"/><path opacity=".2" d="M44.158 103.035a1.393 1.393 0 00-.627 1.086c0 .399.282.561.627.36a1.383 1.383 0 00.627-1.083c0-.402-.282-.564-.627-.363z" fill="#000"/><path d="M47.332 92.061l-.33-.189a.441.441 0 00-.438.045 1.383 1.383 0 00-.64 1.083.44.44 0 00.184.405l.3.177.057-.093a.597.597 0 00.18-.069 1.392 1.392 0 00.627-1.086.637.637 0 00-.021-.159l.08-.114z" fill="#459AE9"/><path opacity=".4" d="M47.332 92.061l-.33-.189a.441.441 0 00-.438.045 1.383 1.383 0 00-.64 1.083.44.44 0 00.184.405l.3.177.057-.093a.597.597 0 00.18-.069 1.392 1.392 0 00.627-1.086.637.637 0 00-.021-.159l.08-.114z" fill="#000"/><path d="M46.876 92.1a1.389 1.389 0 00-.624 1.086c0 .399.279.561.624.36a1.375 1.375 0 00.627-1.083c0-.402-.279-.564-.627-.363z" fill="#459AE9"/><path opacity=".2" d="M46.876 92.1a1.389 1.389 0 00-.624 1.086c0 .399.279.561.624.36a1.375 1.375 0 00.627-1.083c0-.402-.279-.564-.627-.363z" fill="#000"/><path d="M44.614 93.63l-.33-.189a.444.444 0 00-.44.045 1.392 1.392 0 00-.628 1.086.443.443 0 00.183.405l.3.177.054-.093a.603.603 0 00.18-.069 1.381 1.381 0 00.627-1.086.833.833 0 00-.018-.159l.072-.117z" fill="#459AE9"/><path opacity=".4" d="M44.614 93.63l-.33-.189a.444.444 0 00-.44.045 1.392 1.392 0 00-.628 1.086.443.443 0 00.183.405l.3.177.054-.093a.603.603 0 00.18-.069 1.381 1.381 0 00.627-1.086.833.833 0 00-.018-.159l.072-.117z" fill="#000"/><path d="M44.158 93.666a1.392 1.392 0 00-.627 1.086c0 .399.282.561.627.363a1.393 1.393 0 00.627-1.086c0-.399-.282-.561-.627-.363z" fill="#459AE9"/><path opacity=".2" d="M44.158 93.666a1.392 1.392 0 00-.627 1.086c0 .399.282.561.627.363a1.393 1.393 0 00.627-1.086c0-.399-.282-.561-.627-.363z" fill="#000"/><path d="M47.332 82.692l-.33-.189a.441.441 0 00-.438.045 1.382 1.382 0 00-.627 1.086.438.438 0 00.183.405l.3.177.057-.093a.603.603 0 00.18-.069 1.392 1.392 0 00.627-1.086.637.637 0 00-.02-.159l.068-.117z" fill="#459AE9"/><path opacity=".4" d="M47.332 82.692l-.33-.189a.441.441 0 00-.438.045 1.382 1.382 0 00-.627 1.086.438.438 0 00.183.405l.3.177.057-.093a.603.603 0 00.18-.069 1.392 1.392 0 00.627-1.086.637.637 0 00-.02-.159l.068-.117z" fill="#000"/><path d="M46.876 82.728a1.389 1.389 0 00-.624 1.086c0 .399.279.561.624.363a1.382 1.382 0 00.627-1.086c0-.399-.279-.561-.627-.363z" fill="#459AE9"/><path opacity=".2" d="M46.876 82.728a1.389 1.389 0 00-.624 1.086c0 .399.279.561.624.363a1.382 1.382 0 00.627-1.086c0-.399-.279-.561-.627-.363z" fill="#000"/><path d="M44.614 84.264l-.33-.192a.438.438 0 00-.441.045 1.382 1.382 0 00-.618 1.083.444.444 0 00.183.405l.3.177.054-.093a.603.603 0 00.18-.069 1.382 1.382 0 00.627-1.086.833.833 0 00-.018-.159l.063-.111z" fill="#459AE9"/><path opacity=".4" d="M44.614 84.264l-.33-.192a.438.438 0 00-.441.045 1.382 1.382 0 00-.618 1.083.444.444 0 00.183.405l.3.177.054-.093a.603.603 0 00.18-.069 1.382 1.382 0 00.627-1.086.833.833 0 00-.018-.159l.063-.111z" fill="#000"/><path d="M44.158 84.3a1.39 1.39 0 00-.627 1.086c0 .399.282.561.627.363a1.393 1.393 0 00.627-1.086c0-.402-.282-.564-.627-.363z" fill="#459AE9"/><path opacity=".2" d="M44.158 84.3a1.39 1.39 0 00-.627 1.086c0 .399.282.561.627.363a1.393 1.393 0 00.627-1.086c0-.402-.282-.564-.627-.363z" fill="#000"/><path d="M47.332 73.326l-.33-.192a.432.432 0 00-.438.045 1.374 1.374 0 00-.627 1.083.438.438 0 00.183.405l.3.177.057-.093a.603.603 0 00.18-.069 1.392 1.392 0 00.627-1.086.637.637 0 00-.02-.159l.068-.111z" fill="#459AE9"/><path opacity=".4" d="M47.332 73.326l-.33-.192a.432.432 0 00-.438.045 1.374 1.374 0 00-.627 1.083.438.438 0 00.183.405l.3.177.057-.093a.603.603 0 00.18-.069 1.392 1.392 0 00.627-1.086.637.637 0 00-.02-.159l.068-.111z" fill="#000"/><path d="M46.876 73.359a1.389 1.389 0 00-.624 1.086c0 .399.279.561.624.363a1.382 1.382 0 00.627-1.086c0-.399-.279-.561-.627-.363z" fill="#459AE9"/><path opacity=".2" d="M46.876 73.359a1.389 1.389 0 00-.624 1.086c0 .399.279.561.624.363a1.382 1.382 0 00.627-1.086c0-.399-.279-.561-.627-.363z" fill="#000"/><path d="M44.614 74.895l-.33-.192a.438.438 0 00-.441.045 1.385 1.385 0 00-.627 1.083.441.441 0 00.183.405l.3.174.054-.093a.596.596 0 00.18-.069 1.375 1.375 0 00.627-1.086.85.85 0 00-.018-.159l.072-.108z" fill="#459AE9"/><path opacity=".4" d="M44.614 74.895l-.33-.192a.438.438 0 00-.441.045 1.385 1.385 0 00-.627 1.083.441.441 0 00.183.405l.3.174.054-.093a.596.596 0 00.18-.069 1.375 1.375 0 00.627-1.086.85.85 0 00-.018-.159l.072-.108z" fill="#000"/><path d="M44.158 74.931a1.382 1.382 0 00-.627 1.083c0 .399.282.561.627.363a1.392 1.392 0 00.627-1.077c0-.408-.282-.57-.627-.369z" fill="#459AE9"/><path opacity=".2" d="M44.158 74.931a1.382 1.382 0 00-.627 1.083c0 .399.282.561.627.363a1.392 1.392 0 00.627-1.077c0-.408-.282-.57-.627-.369z" fill="#000"/><path d="M47.332 63.939l-.33-.192a.441.441 0 00-.438.045 1.375 1.375 0 00-.627 1.086.441.441 0 00.183.405l.3.174.057-.09a.725.725 0 00.18-.072 1.383 1.383 0 00.627-1.083.66.66 0 00-.021-.162l.069-.111z" fill="#459AE9"/><path opacity=".4" d="M47.332 63.939l-.33-.192a.441.441 0 00-.438.045 1.375 1.375 0 00-.627 1.086.441.441 0 00.183.405l.3.174.057-.09a.725.725 0 00.18-.072 1.383 1.383 0 00.627-1.083.66.66 0 00-.021-.162l.069-.111z" fill="#000"/><path d="M46.876 63.975a1.38 1.38 0 00-.624 1.083c0 .402.279.564.624.363a1.383 1.383 0 00.627-1.086c0-.399-.279-.561-.627-.36z" fill="#459AE9"/><path opacity=".2" d="M46.876 63.975a1.38 1.38 0 00-.624 1.083c0 .402.279.564.624.363a1.383 1.383 0 00.627-1.086c0-.399-.279-.561-.627-.36z" fill="#000"/><path d="M44.614 65.508l-.33-.192a.444.444 0 00-.441.045 1.392 1.392 0 00-.627 1.086.447.447 0 00.183.405l.3.177.054-.093a.626.626 0 00.18-.072 1.374 1.374 0 00.627-1.083.9.9 0 00-.018-.162l.072-.111z" fill="#459AE9"/><path opacity=".4" d="M44.614 65.508l-.33-.192a.444.444 0 00-.441.045 1.392 1.392 0 00-.627 1.086.447.447 0 00.183.405l.3.177.054-.093a.626.626 0 00.18-.072 1.374 1.374 0 00.627-1.083.9.9 0 00-.018-.162l.072-.111z" fill="#000"/><path d="M44.158 65.544a1.389 1.389 0 00-.633 1.086c0 .399.282.561.627.36a1.383 1.383 0 00.627-1.086c.006-.399-.276-.561-.621-.36z" fill="#459AE9"/><path opacity=".2" d="M44.158 65.544a1.389 1.389 0 00-.633 1.086c0 .399.282.561.627.36a1.383 1.383 0 00.627-1.086c.006-.399-.276-.561-.621-.36z" fill="#000"/><path d="M47.332 54.573l-.33-.192a.44.44 0 00-.438.045 1.38 1.38 0 00-.64 1.074.44.44 0 00.184.405l.3.177.057-.093a.729.729 0 00.18-.072 1.382 1.382 0 00.627-1.083.66.66 0 00-.021-.162l.08-.099z" fill="#459AE9"/><path opacity=".4" d="M47.332 54.573l-.33-.192a.44.44 0 00-.438.045 1.38 1.38 0 00-.64 1.074.44.44 0 00.184.405l.3.177.057-.093a.729.729 0 00.18-.072 1.382 1.382 0 00.627-1.083.66.66 0 00-.021-.162l.08-.099z" fill="#000"/><path d="M46.876 54.6a1.38 1.38 0 00-.624 1.083c0 .402.279.564.624.363a1.38 1.38 0 00.627-1.086c0-.39-.279-.552-.627-.36z" fill="#459AE9"/><path opacity=".2" d="M46.876 54.6a1.38 1.38 0 00-.624 1.083c0 .402.279.564.624.363a1.38 1.38 0 00.627-1.086c0-.39-.279-.552-.627-.36z" fill="#000"/><path d="M44.614 56.142l-.33-.192a.444.444 0 00-.441.045 1.392 1.392 0 00-.627 1.086.447.447 0 00.183.405l.3.177.054-.093a.626.626 0 00.18-.072 1.374 1.374 0 00.627-1.083.9.9 0 00-.018-.162l.072-.111z" fill="#459AE9"/><path opacity=".4" d="M44.614 56.142l-.33-.192a.444.444 0 00-.441.045 1.392 1.392 0 00-.627 1.086.447.447 0 00.183.405l.3.177.054-.093a.626.626 0 00.18-.072 1.374 1.374 0 00.627-1.083.9.9 0 00-.018-.162l.072-.111z" fill="#000"/><path d="M44.158 56.178a1.39 1.39 0 00-.627 1.086c0 .399.282.561.627.36a1.385 1.385 0 00.627-1.083c0-.402-.282-.564-.627-.363z" fill="#459AE9"/><path opacity=".2" d="M44.158 56.178a1.39 1.39 0 00-.627 1.086c0 .399.282.561.627.36a1.385 1.385 0 00.627-1.083c0-.402-.282-.564-.627-.363z" fill="#000"/><path d="M26.596 76.137l12.327 7.113a.877.877 0 01.399.69v3.405c0 .255-.177.36-.4.231l-12.326-7.11a.883.883 0 01-.4-.693v-3.405c0-.255.178-.357.4-.231z" fill="#455A64"/><path d="M26.947 77.637a.857.857 0 00.399.663l10.827 6.246c.222.126.402.036.402-.204a.861.861 0 00-.402-.663l-10.827-6.243c-.222-.126-.4-.036-.4.201z" fill="#459AE9"/><path d="M26.947 79.368a.849.849 0 00.399.663l10.827 6.246c.222.129.402.039.402-.201a.854.854 0 00-.402-.663l-10.827-6.246c-.222-.126-.4-.036-.4.201z" fill="#263238"/><path d="M27.346 79.167l5.979 3.447v.867l-5.982-3.45a.85.85 0 01-.4-.663c.004-.237.18-.327.403-.201z" fill="#459AE9"/><path d="M26.596 85.527l12.327 7.113a.873.873 0 01.399.69v3.405c0 .255-.177.357-.4.231l-12.326-7.113a.873.873 0 01-.4-.69v-3.405c0-.258.178-.357.4-.231z" fill="#455A64"/><path d="M26.947 87.027a.849.849 0 00.399.663l10.827 6.246c.222.129.402.039.402-.201a.854.854 0 00-.402-.663l-10.827-6.246c-.222-.126-.4-.039-.4.201z" fill="#459AE9"/><path d="M26.947 88.758a.849.849 0 00.399.663l10.827 6.246c.222.129.402.036.402-.201a.854.854 0 00-.402-.663l-10.827-6.246c-.222-.129-.4-.039-.4.201z" fill="#263238"/><path d="M27.346 88.557l7.479 4.311v.867l-7.48-4.314a.848.848 0 01-.398-.663c0-.24.177-.33.399-.201z" fill="#459AE9"/><path d="M26.596 94.848l12.327 7.113a.873.873 0 01.399.69v3.405c0 .255-.177.357-.4.231l-12.326-7.113a.873.873 0 01-.4-.69v-3.405c0-.255.178-.357.4-.231z" fill="#455A64"/><path d="M26.947 96.348a.849.849 0 00.399.663l10.827 6.246c.222.129.402.039.402-.201a.854.854 0 00-.402-.663l-10.827-6.246c-.222-.129-.4-.039-.4.201z" fill="#459AE9"/><path d="M26.947 98.079a.849.849 0 00.399.663L38.173 105c.222.129.402.036.402-.201a.854.854 0 00-.402-.663l-10.827-6.258c-.222-.129-.4-.039-.4.201z" fill="#263238"/><path d="M27.346 97.878l8.979 5.178v.864l-8.98-5.178a.848.848 0 01-.398-.663c0-.24.177-.33.399-.201z" fill="#459AE9"/><path d="M26.596 66.84l12.327 7.11a.882.882 0 01.399.693v3.405c0 .255-.177.357-.4.231l-12.326-7.113a.879.879 0 01-.4-.693v-3.402c0-.255.178-.36.4-.231z" fill="#455A64"/><path d="M26.947 68.34a.85.85 0 00.399.66l10.827 6.246c.222.126.402.036.402-.201a.854.854 0 00-.402-.663l-10.827-6.243c-.222-.129-.4-.039-.4.201z" fill="#459AE9"/><path d="M26.947 70.071a.857.857 0 00.399.663l10.827 6.246c.222.126.402.036.402-.201a.862.862 0 00-.402-.666l-10.827-6.246c-.222-.126-.4-.036-.4.204z" fill="#263238"/><path d="M27.346 69.867l9.729 5.613v.864l-9.73-5.61a.857.857 0 01-.398-.663c0-.24.177-.33.399-.204z" fill="#459AE9"/><path d="M26.596 48.081L38.923 55.2a.873.873 0 01.399.69v3.405c0 .255-.177.357-.4.231l-12.326-7.119a.873.873 0 01-.4-.69V48.3c0-.243.178-.345.4-.219z" fill="#455A64"/><path d="M26.947 49.581a.849.849 0 00.399.663l10.827 6.246c.222.129.402.039.402-.201a.854.854 0 00-.402-.663L27.346 49.38c-.222-.129-.4-.039-.4.201z" fill="#459AE9"/><path d="M26.947 51.3a.849.849 0 00.399.663l10.827 6.246c.222.129.402.036.402-.201a.853.853 0 00-.402-.663l-10.827-6.234c-.222-.129-.4-.039-.4.189z" fill="#263238"/><path d="M27.346 51.111l7.479 4.311v.867l-7.48-4.314a.849.849 0 01-.398-.675c0-.228.177-.318.399-.189z" fill="#459AE9"/><path d="M26.596 57.453l12.327 7.113a.873.873 0 01.399.69v3.405c0 .255-.177.357-.4.231l-12.326-7.113a.873.873 0 01-.4-.69v-3.405c0-.255.178-.357.4-.231z" fill="#455A64"/><path d="M26.947 58.953a.849.849 0 00.399.663l10.827 6.246c.222.129.402.039.402-.201a.854.854 0 00-.402-.663l-10.827-6.246c-.222-.129-.4-.036-.4.201z" fill="#459AE9"/><path d="M26.947 60.684a.849.849 0 00.399.663l10.827 6.246c.222.129.402.039.402-.201a.854.854 0 00-.402-.663l-10.827-6.246c-.222-.129-.4-.039-.4.201z" fill="#263238"/><path d="M27.346 60.483l9.729 5.61v.867l-9.73-5.613a.848.848 0 01-.398-.663c0-.24.177-.33.399-.201zm14.301-9.102l14.478-8.361a.833.833 0 00.375-.651v-.486a.832.832 0 00-.375-.651L41.64 32.871a.824.824 0 00-.75 0l-14.466 8.361a.832.832 0 00-.375.651v.486a.832.832 0 00.375.651l14.487 8.361a.825.825 0 00.735 0z" fill="#459AE9"/><path opacity=".35" d="M41.647 51.381l14.478-8.361a.833.833 0 00.375-.651v-.486a.832.832 0 00-.375-.651L41.64 32.871a.824.824 0 00-.75 0l-14.466 8.361a.832.832 0 00-.375.651v.486a.832.832 0 00.375.651l14.487 8.361a.825.825 0 00.735 0z" fill="#000"/><path d="M56.125 41.664l-14.484 8.364a.826.826 0 01-.75 0l-14.466-8.361a.231.231 0 010-.435l14.487-8.361a.824.824 0 01.75 0l14.463 8.361a.228.228 0 010 .432z" fill="#459AE9"/><path d="M41.269 50.118v1.353a.774.774 0 00.378-.09l14.478-8.364a.822.822 0 00.375-.648v-.489a.83.83 0 00-.3-.6c.135.12.114.282-.069.384l-14.484 8.364a.775.775 0 01-.378.09z" fill="#459AE9"/><path opacity=".2" d="M41.269 50.118v1.353a.774.774 0 00.378-.09l14.478-8.364a.822.822 0 00.375-.648v-.489a.83.83 0 00-.3-.6c.135.12.114.282-.069.384l-14.484 8.364a.775.775 0 01-.378.09z" fill="#000"/><path d="M41.647 47.322l9.795-5.655a.83.83 0 00.375-.651v-.486a.832.832 0 00-.375-.651l-6.279-3.627a2.473 2.473 0 01-.633-.564l-3-4.041a.498.498 0 00-.633-.129L31.1 37.173a.83.83 0 00-.375.648v3.195a.83.83 0 00.375.651l9.798 5.655a.825.825 0 00.75 0z" fill="#263238"/><path d="M40.897 45.969l-6.282-3.627a2.504 2.504 0 01-.633-.564l-3-4.041a.375.375 0 01.117-.564l9.798-5.655a.499.499 0 01.633.129l3 4.041c.156.233.352.436.58.6l6.332 3.6a.228.228 0 010 .432l-9.795 5.658a.825.825 0 01-.75-.009z" fill="#455A64"/><path d="M31.1 37.173l9.797-5.655a.499.499 0 01.633.129l3 4.041c.088.118.189.225.3.321 0 0-10.545 6.093-10.548 6.09a2.308 2.308 0 01-.3-.321l-3-4.041a.375.375 0 01.117-.564z" fill="#37474F"/><path d="M49.066 39.978a.985.985 0 00-.879 0 .267.267 0 000 .507.966.966 0 00.88 0 .267.267 0 000-.507zm-1.758 1.017a.966.966 0 00-.88 0 .267.267 0 000 .507.984.984 0 00.88 0 .267.267 0 000-.507z" fill="#459AE9"/><path d="M45.55 42a.966.966 0 00-.879 0 .267.267 0 000 .507.966.966 0 00.879 0 .267.267 0 000-.507zm-1.758 1.023a.966.966 0 00-.879 0 .266.266 0 00-.132.41c.032.045.079.08.132.097a.966.966 0 00.88 0 .267.267 0 000-.507z" fill="#263238"/><path d="M47.75 39.219a.966.966 0 00-.88 0 .267.267 0 000 .507.984.984 0 00.88 0 .267.267 0 000-.507z" fill="#459AE9"/><path d="M45.99 40.233a.966.966 0 00-.878 0 .267.267 0 000 .507.966.966 0 00.879 0 .267.267 0 000-.507z" fill="#263238"/><path d="M43.792 41.862c.343 0 .62-.161.62-.36 0-.199-.277-.36-.62-.36-.343 0-.621.161-.621.36 0 .199.278.36.62.36z" fill="#459AE9"/><path d="M42.475 42.261a.983.983 0 00-.88 0 .27.27 0 000 .51.985.985 0 00.88 0 .27.27 0 000-.51zm3.954-3.804a.966.966 0 00-.88 0 .267.267 0 000 .507.966.966 0 00.88 0 .267.267 0 000-.507z" fill="#263238"/><path d="M44.671 39.471a.966.966 0 00-.879 0 .267.267 0 000 .507.966.966 0 00.88 0 .266.266 0 000-.507z" fill="#459AE9"/><path d="M42.925 40.5a.984.984 0 00-.879 0 .27.27 0 000 .51.985.985 0 00.879 0 .27.27 0 000-.51z" fill="#263238"/><path d="M42.025 44.019a.966.966 0 00-.879 0 .267.267 0 000 .507.966.966 0 00.88 0 .267.267 0 000-.507z" fill="#459AE9"/><path d="M40.708 43.257a.966.966 0 00-.879 0 .267.267 0 000 .507.966.966 0 00.88 0 .267.267 0 000-.507zm.447-1.755a.966.966 0 00-.879 0 .27.27 0 000 .507.966.966 0 00.88 0 .267.267 0 000-.507z" fill="#263238"/><path d="M45.112 37.695a.983.983 0 00-.879 0 .27.27 0 000 .51.985.985 0 00.879 0 .27.27 0 000-.51z" fill="#459AE9"/><path d="M43.354 38.7a.966.966 0 00-.879 0 .267.267 0 000 .507.966.966 0 00.88 0 .267.267 0 000-.507z" fill="#263238"/><path d="M41.596 39.726a.966.966 0 00-.88 0 .267.267 0 000 .507.966.966 0 00.88 0 .267.267 0 000-.507z" fill="#459AE9"/><path d="M39.4 41.355c.343 0 .62-.161.62-.36 0-.199-.277-.36-.62-.36-.343 0-.621.161-.621.36 0 .199.278.36.62.36z" fill="#263238"/><path d="M39.388 42.495a.985.985 0 00-.88 0 .27.27 0 000 .51.984.984 0 00.88 0 .27.27 0 000-.51z" fill="#459AE9"/><path d="M38.071 41.736a.966.966 0 00-.879 0 .267.267 0 000 .507.966.966 0 00.879 0 .267.267 0 000-.507z" fill="#263238"/><path d="M41.251 46.059V47.4a.787.787 0 00.396-.087l9.795-5.658a.814.814 0 00.375-.648v-.489a.83.83 0 00-.3-.6c.138.12.114.282-.069.384l-9.795 5.658a.787.787 0 01-.402.099z" fill="#37474F"/><path d="M43.225 35.52a.33.33 0 00-.423-.087l-8.526 4.923a.248.248 0 00-.075.375.333.333 0 00.42.087l8.526-4.923a.253.253 0 00.078-.375z" fill="#263238"/><path d="M43.225 35.52a.33.33 0 00-.423-.087l-6.34 3.66.355.474 6.339-3.66a.253.253 0 00.122-.289.252.252 0 00-.053-.098z" fill="#459AE9"/><path d="M42.529 34.575a.33.33 0 00-.423-.087l-8.526 4.92a.253.253 0 00-.075.378.333.333 0 00.42.087l8.526-4.923a.253.253 0 00.078-.375z" fill="#263238"/><path d="M42.529 34.575a.336.336 0 00-.423-.09L39.979 35.7l.354.474 2.118-1.221a.253.253 0 00.078-.378z" fill="#459AE9"/><path d="M41.824 33.627a.333.333 0 00-.42-.087l-8.526 4.923a.248.248 0 00-.078.375.327.327 0 00.42.087l8.526-4.92a.256.256 0 00.078-.378z" fill="#263238"/><path d="M41.824 33.627a.34.34 0 00-.423-.087l-4.44 2.556.354.474 4.44-2.553a.254.254 0 00.069-.39z" fill="#459AE9"/><path d="M41.125 32.682a.327.327 0 00-.42-.087L32.164 37.5a.25.25 0 00-.078.375.333.333 0 00.42.087l8.526-4.923a.252.252 0 00.093-.357z" fill="#263238"/><path d="M41.125 32.682a.327.327 0 00-.42-.087l-7.74 4.467.354.474 7.737-4.467a.251.251 0 00.069-.387zm36.51 76.818a.157.157 0 01-.093.074.153.153 0 01-.117-.017l-11.739-6.78a1.333 1.333 0 00-1.17 0L41.038 116.34a1.472 1.472 0 01-.735.177 1.506 1.506 0 01-.738-.177l-13.557-7.827a.55.55 0 01-.352-.515.552.552 0 01.352-.514l5.571-3.213a.069.069 0 01.035-.008.07.07 0 01.034.008.237.237 0 01.111.186.09.09 0 01-.018.06.049.049 0 01-.02.015h-.022l-5.538 3.219a.318.318 0 00-.198.246c0 .087.072.177.198.252l13.557 7.827a1.312 1.312 0 001.167 0l23.478-13.554a1.619 1.619 0 011.476 0l11.74 6.777a.15.15 0 01.057.201z" fill="#459AE9"/><path d="M75.154 110.937a.158.158 0 01-.09.073.156.156 0 01-.117-.013l-9.26-5.349a1.333 1.333 0 00-1.17 0l-23.479 13.557a1.473 1.473 0 01-.735.18 1.507 1.507 0 01-.738-.18l-18.519-10.692a.55.55 0 01-.352-.515.55.55 0 01.352-.514l8.046-4.644a.082.082 0 01.075 0 .231.231 0 01.105.186.09.09 0 01-.005.038.096.096 0 01-.022.031l-8.046 4.656a.328.328 0 00-.198.246c0 .087.075.177.198.252l18.52 10.689a1.312 1.312 0 001.166 0l23.478-13.554a1.618 1.618 0 011.476 0l9.261 5.346a.15.15 0 01.054.207z" fill="#459AE9"/><path d="M72.673 112.371a.154.154 0 01-.207.057l-6.78-3.915a1.319 1.319 0 00-1.17 0l-23.478 13.554a1.473 1.473 0 01-.735.18 1.507 1.507 0 01-.738-.18l-23.478-13.554a.604.604 0 01-.348-.513.613.613 0 01.351-.513l10.527-6.048a.05.05 0 01.027-.018.075.075 0 01.033-.007c.012 0 .023.002.033.007a.243.243 0 01.108.189.067.067 0 01-.005.037.067.067 0 01-.025.029l-10.548 6.075c-.126.072-.195.162-.195.246 0 .084.07.177.195.252L39.718 121.8a1.312 1.312 0 001.167 0l23.478-13.554a1.619 1.619 0 011.476 0l6.78 3.9a.155.155 0 01.079.165.153.153 0 01-.025.06z" fill="#459AE9"/><path d="M70.195 113.802a.154.154 0 01-.207.057l-4.302-2.481a1.319 1.319 0 00-1.17 0l-23.478 13.554a1.496 1.496 0 01-.735.18 1.531 1.531 0 01-.738-.18l-28.44-16.419a.556.556 0 010-1.029l12.99-7.5a.03.03 0 01.024-.015.069.069 0 01.07 0 .224.224 0 01.11.186.108.108 0 010 .057h-.024l-12.987 7.5a.324.324 0 00-.195.246c0 .087.072.177.195.252l28.44 16.419a1.326 1.326 0 001.167 0l23.478-13.557a1.619 1.619 0 011.476 0l4.302 2.484c.02.012.038.029.051.05a.149.149 0 01.014.137.15.15 0 01-.04.059z" fill="#459AE9"/><g opacity=".2" fill="#000"><path d="M77.635 109.5a.157.157 0 01-.093.074.153.153 0 01-.117-.017l-11.739-6.78a1.333 1.333 0 00-1.17 0L41.038 116.34a1.472 1.472 0 01-.735.177 1.506 1.506 0 01-.738-.177l-13.557-7.827a.55.55 0 01-.352-.515.552.552 0 01.352-.514l5.571-3.213a.069.069 0 01.035-.008.07.07 0 01.034.008.237.237 0 01.111.186.09.09 0 01-.018.06.049.049 0 01-.02.015h-.022l-5.538 3.219a.318.318 0 00-.198.246c0 .087.072.177.198.252l13.557 7.827a1.312 1.312 0 001.167 0l23.478-13.554a1.619 1.619 0 011.476 0l11.74 6.777a.15.15 0 01.057.201z"/><path d="M75.154 110.937a.158.158 0 01-.09.073.156.156 0 01-.117-.013l-9.26-5.349a1.333 1.333 0 00-1.17 0l-23.479 13.557a1.473 1.473 0 01-.735.18 1.507 1.507 0 01-.738-.18l-18.519-10.692a.55.55 0 01-.352-.515.55.55 0 01.352-.514l8.046-4.644a.082.082 0 01.075 0 .231.231 0 01.105.186.09.09 0 01-.005.038.096.096 0 01-.022.031l-8.046 4.656a.328.328 0 00-.198.246c0 .087.075.177.198.252l18.52 10.689a1.312 1.312 0 001.166 0l23.478-13.554a1.618 1.618 0 011.476 0l9.261 5.346a.15.15 0 01.054.207z"/><path d="M72.673 112.371a.154.154 0 01-.207.057l-6.78-3.915a1.319 1.319 0 00-1.17 0l-23.478 13.554a1.473 1.473 0 01-.735.18 1.507 1.507 0 01-.738-.18l-23.478-13.554a.604.604 0 01-.348-.513.613.613 0 01.351-.513l10.527-6.048a.05.05 0 01.027-.018.075.075 0 01.033-.007c.012 0 .023.002.033.007a.243.243 0 01.108.189.067.067 0 01-.005.037.067.067 0 01-.025.029l-10.548 6.075c-.126.072-.195.162-.195.246 0 .084.07.177.195.252L39.718 121.8a1.312 1.312 0 001.167 0l23.478-13.554a1.619 1.619 0 011.476 0l6.78 3.9a.155.155 0 01.079.165.153.153 0 01-.025.06z"/><path d="M70.195 113.802a.154.154 0 01-.207.057l-4.302-2.481a1.319 1.319 0 00-1.17 0l-23.478 13.554a1.496 1.496 0 01-.735.18 1.531 1.531 0 01-.738-.18l-28.44-16.419a.556.556 0 010-1.029l12.99-7.5a.03.03 0 01.024-.015.069.069 0 01.07 0 .224.224 0 01.11.186.108.108 0 010 .057h-.024l-12.987 7.5a.324.324 0 00-.195.246c0 .087.072.177.195.252l28.44 16.419a1.326 1.326 0 001.167 0l23.478-13.557a1.619 1.619 0 011.476 0l4.302 2.484c.02.012.038.029.051.05a.149.149 0 01.014.137.15.15 0 01-.04.059z"/></g><path d="M104.938 117.108l7.887-4.56c.81-.468 1.218-1.083 1.218-1.698v-1.098l-7.419-4.2a1.72 1.72 0 01-.786-1.359v-9.72l-13.77 7.956v9.711a1.73 1.73 0 00.786 1.359l6.198 3.6c1.626.948 4.26.948 5.886.009z" fill="#263238"/><path opacity=".15" d="M95.377 113.862v1.092l-2.526-1.455a1.736 1.736 0 01-.783-1.359v-9.72l2.625-1.5.165 2.025-1.833 1.05v7.605a1.722 1.722 0 00.783 1.359l1.569.903z" fill="#000"/><path d="M93.025 111.6a1.74 1.74 0 00.786 1.362l5.247 3.057c1.623.939 4.26.939 5.886 0l7.89-4.56c1.626-.939 1.626-2.46 0-3.399l-5.256-3.06a1.73 1.73 0 01-.786-1.359v-7.602l-13.767 7.956v7.605z" fill="#37474F"/><path opacity=".15" d="M109.174 105.918l-1.596-.918a1.73 1.73 0 01-.786-1.359v-7.602l-13.767 7.956v7.605a1.74 1.74 0 00.786 1.362l1.569.9 13.794-7.944zm4.872 3.834v1.098c0 .615-.408 1.227-1.221 1.698l-7.887 4.557a5.89 5.89 0 01-2.808.699V116.7a5.89 5.89 0 002.808-.699l7.887-4.548c.813-.453 1.221-1.083 1.221-1.701z" fill="#000"/><path d="M70.906 122.079a2.09 2.09 0 001.902-.033c6.77-3.9 46.5-26.844 53.262-30.75a2.176 2.176 0 00.981-1.701v-46.62a1.847 1.847 0 00-1.877-1.91 1.846 1.846 0 00-.946.281l-53.262 30.75a2.178 2.178 0 00-.981 1.704v46.62a2.098 2.098 0 00.92 1.659z" fill="#455A64"/><path d="M72.808 122.043l53.262-30.75a2.17 2.17 0 00.981-1.698v-46.62c0-.627-.441-.879-.981-.567l-53.262 30.75a2.166 2.166 0 00-.98 1.701v46.617c0 .624.437.882.98.567z" fill="#459AE9"/><path d="M72.808 122.043l53.262-30.75a2.17 2.17 0 00.981-1.698v-46.62c0-.627-.441-.879-.981-.567l-53.262 30.75a2.166 2.166 0 00-.98 1.701v46.617c0 .624.437.882.98.567z" fill="#37474F"/><path d="M72.664 122.238a1.837 1.837 0 01-2.68-1.704v-5.244l1.84 1.065v5.244c0 .57.363.831.84.639z" fill="#000"/><path d="M71.824 119.838v1.761c0 .624.438.879.981.564l53.262-30.75a2.17 2.17 0 00.981-1.698v-1.761l-55.224 31.884z" fill="#263238"/><path d="M73.666 115.896V75.468a1.302 1.302 0 01.6-1.02l50.364-29.076c.324-.189.6-.036.6.339v40.428a1.3 1.3 0 01-.6 1.02l-50.376 29.076c-.324.189-.588.036-.588-.339zm25.773-11.097a1.106 1.106 0 00-.501.87c0 .318.222.447.501.3a1.105 1.105 0 00.501-.867c0-.333-.225-.462-.501-.303z" fill="#459AE9"/><path d="M72.115 73.887a2.1 2.1 0 00-.3.969v44.982l-1.839-1.065V73.8a2.03 2.03 0 01.3-.969l1.84 1.056z" fill="#263238"/><path d="M95.398 94.05a6.792 6.792 0 01-2.574-.501c-2.427-.99-4.29-3.423-5.247-6.849a1.108 1.108 0 012.133-.6c.768 2.754 2.172 4.671 3.951 5.4 1.518.621 3.327.369 5.223-.729 4.539-2.619 8.664-9.48 10.266-17.07a1.101 1.101 0 01.481-.702 1.11 1.11 0 011.699.727c.027.144.025.291-.005.434-1.752 8.295-6.198 15.57-11.325 18.531a9.24 9.24 0 01-4.602 1.359zm-.396-18.303c0 1.476-.777 3.12-1.734 3.672s-1.734-.195-1.734-1.668c0-1.473.777-3.12 1.734-3.672s1.734.195 1.734 1.668zm10.98-6.339c0 1.476-.777 3.12-1.734 3.672s-1.734-.195-1.734-1.668c0-1.473.777-3.117 1.734-3.672.957-.555 1.734.195 1.734 1.668z" fill="#FAFAFA"/><path d="M78.025 61.158l-1.158-3.3.93-2.7v-1.644l-2.847 1.644v1.644l1.224 3.237c.02.033.049.06.084.075l1.767 1.044z" fill="#459AE9"/><path opacity=".3" d="M78.025 61.158l-1.158-3.3.93-2.7v-1.644l-2.847 1.644v1.644l1.224 3.237c.02.033.049.06.084.075l1.767 1.044z" fill="#000"/><path d="M84.838 35.931a1.887 1.887 0 00-.855-1.479l-.693-.399a1.888 1.888 0 00-1.71 0l-10.662 6.168a1.874 1.874 0 00-.855 1.479v16.26a1.874 1.874 0 00.855 1.479l.693.402a1.887 1.887 0 001.71 0l3.429-1.98 1.221 3.231a.183.183 0 00.33-.03l1.293-4.845 4.389-2.544a1.874 1.874 0 00.855-1.479V35.931z" fill="#459AE9"/><path opacity=".2" d="M70.063 57.96a1.874 1.874 0 00.855 1.479l.693.402a1.915 1.915 0 001.563.069c-.402.153-.708-.075-.708-.561V43.086a1.75 1.75 0 01.249-.84l-2.4-1.389a1.761 1.761 0 00-.249.843l-.003 16.26z" fill="#000"/><path opacity=".3" d="M84.81 35.7c-.098-.363-.431-.48-.824-.252L73.32 41.616c-.253.156-.46.377-.6.639l-2.4-1.386a1.7 1.7 0 01.6-.639l10.662-6.168a1.887 1.887 0 011.71 0l.696.402a1.88 1.88 0 01.822 1.236z" fill="#fff"/><path d="M74.125 53.4l9.258-5.346c.183-.105.33-.03.33.168a.705.705 0 01-.33.546l-9.258 5.346c-.183.105-.33.033-.33-.165a.706.706 0 01.33-.549zm0 1.44l9.246-5.34c.183-.105.33-.03.33.168a.705.705 0 01-.33.549l-9.246 5.34c-.183.105-.33.03-.33-.168a.706.706 0 01.33-.549zm0 1.443l9.258-5.346c.183-.105.33-.03.33.165a.705.705 0 01-.33.549L74.125 57c-.183.105-.33.03-.33-.165a.704.704 0 01.33-.552zm7.2-16.383a.75.75 0 00-.98.399l-2.83 6.735-.675-.657a.75.75 0 00-1.044 1.074l1.461 1.422c.14.135.328.21.522.21.05.004.1.004.15 0a.744.744 0 00.54-.444l3.255-7.743a.749.749 0 00-.399-.996z" fill="#FAFAFA"/><path d="M97.93 49.662l-1.155-3.3.93-2.685V42.03l-2.85 1.647v1.644l1.224 3.237c.02.033.049.06.084.075l1.767 1.029z" fill="#459AE9"/><path opacity=".3" d="M97.93 49.662l-1.155-3.3.93-2.685V42.03l-2.85 1.647v1.644l1.224 3.237c.02.033.049.06.084.075l1.767 1.029z" fill="#000"/><path d="M104.725 24.438a1.88 1.88 0 00-.855-1.479l-.696-.402a1.88 1.88 0 00-1.707 0l-10.656 6.168a1.89 1.89 0 00-.855 1.479v16.263a1.893 1.893 0 00.855 1.479l.696.402a1.899 1.899 0 001.707 0l3.43-1.983 1.223 3.234a.182.182 0 00.27.05.184.184 0 00.06-.083l1.293-4.845 4.389-2.541a1.894 1.894 0 00.855-1.479l-.009-16.263z" fill="#459AE9"/><path opacity=".2" d="M89.956 46.467a1.893 1.893 0 00.855 1.479l.696.402a1.914 1.914 0 001.563.069c-.402.15-.708-.075-.708-.564v-16.26c.009-.298.095-.588.25-.843l-2.4-1.389a1.742 1.742 0 00-.253.843l-.003 16.263z" fill="#000"/><path opacity=".3" d="M104.704 24.195c-.099-.363-.429-.477-.825-.252l-10.665 6.171a1.712 1.712 0 00-.6.636l-2.4-1.386c.141-.26.348-.48.6-.636l10.662-6.171a1.903 1.903 0 011.71 0l.696.402a1.87 1.87 0 01.822 1.236z" fill="#fff"/><path d="M93.952 41.934l9.273-5.334c.183-.108.333-.033.333.165a.702.702 0 01-.333.549l-9.258 5.346c-.183.105-.33.03-.33-.168a.711.711 0 01.315-.558zm0 1.443l9.273-5.346c.183-.105.333-.03.333.168a.714.714 0 01-.333.549L93.952 44.1c-.183.108-.33.033-.33-.165a.705.705 0 01.33-.558zm0 1.44l9.273-5.346c.183-.105.333-.03.333.168a.713.713 0 01-.333.561l-9.258 5.346c-.183.105-.33.03-.33-.168a.704.704 0 01.315-.561zm7.215-16.371a.747.747 0 00-.981.399l-2.83 6.732-.674-.654a.748.748 0 10-1.041 1.074l1.46 1.419a.734.734 0 00.67.198.748.748 0 00.54-.444l3.255-7.746a.757.757 0 00.004-.572.746.746 0 00-.403-.406z" fill="#FAFAFA"/><path d="M117.82 38.19l-1.158-3.3.93-2.7v-1.647l-2.847 1.647v1.644l1.224 3.237a.166.166 0 00.084.072l1.767 1.047z" fill="#459AE9"/><path opacity=".3" d="M117.82 38.19l-1.158-3.3.93-2.7v-1.647l-2.847 1.647v1.644l1.224 3.237a.166.166 0 00.084.072l1.767 1.047z" fill="#000"/><path d="M124.621 12.966a1.877 1.877 0 00-.852-1.479l-.696-.387a1.887 1.887 0 00-1.71 0l-10.662 6.153a1.886 1.886 0 00-.855 1.479v16.263a1.88 1.88 0 00.855 1.479l.693.402a1.907 1.907 0 001.71 0l3.429-1.983 1.221 3.234a.185.185 0 00.271.05.181.181 0 00.059-.083l1.293-4.845 4.392-2.541a1.892 1.892 0 00.852-1.479V12.966z" fill="#459AE9"/><path opacity=".2" d="M109.846 34.995a1.88 1.88 0 00.855 1.479l.693.402a1.916 1.916 0 001.563.069c-.402.15-.708-.075-.708-.564v-16.26c.011-.298.096-.588.249-.843l-2.4-1.389a1.779 1.779 0 00-.249.843l-.003 16.263z" fill="#000"/><path opacity=".3" d="M124.594 12.723c-.099-.363-.432-.48-.825-.252l-10.665 6.171c-.253.155-.46.374-.6.636l-2.4-1.386c.142-.26.348-.48.6-.636l10.659-6.156a1.903 1.903 0 011.71 0l.696.402a1.898 1.898 0 01.825 1.221z" fill="#fff"/><path d="M113.791 30.471l9.261-5.346c.18-.105.33-.03.33.168a.71.71 0 01-.33.549l-9.261 5.358c-.183.105-.33.03-.33-.168a.7.7 0 01.33-.561zm0 1.44l9.261-5.343c.18-.108.33-.033.33.165a.71.71 0 01-.33.549l-9.261 5.346c-.183.105-.33.03-.33-.168a.708.708 0 01.33-.549zm0 1.443l9.261-5.346c.18-.105.33-.03.33.168a.71.71 0 01-.33.549l-9.261 5.346c-.183.105-.33.03-.33-.168a.712.712 0 01.33-.549zm7.215-16.374a.75.75 0 00-.981.399l-2.832 6.735-.672-.657a.75.75 0 00-1.044 1.074l1.461 1.422c.14.135.328.21.522.21a.603.603 0 00.147 0 .746.746 0 00.543-.441l3.255-7.746a.744.744 0 00.01-.582.75.75 0 00-.409-.414z" fill="#FAFAFA"/></svg>