<svg width="151" height="150" fill="none" xmlns="http://www.w3.org/2000/svg"><path d="M75.5 144.924c37.758 0 68.367-17.672 68.367-39.471 0-21.8-30.609-39.471-68.367-39.471S7.133 83.654 7.133 105.453c0 21.799 30.61 39.471 68.367 39.471z" fill="#FAFAFA"/><path d="M122.147 135.411c11.35 0 20.55-5.312 20.55-11.865s-9.2-11.865-20.55-11.865c-11.349 0-20.55 5.312-20.55 11.865s9.201 11.865 20.55 11.865zm-83.19 7.155l-22.329-12.9c-.663-.381-.663-1.002 0-1.383l56.046-32.352a2.656 2.656 0 012.4 0l22.33 12.9c.662.384.662 1.002 0 1.383l-56.05 32.352a2.654 2.654 0 01-2.397 0z" fill="#EBEBEB"/><path d="M68.204 95.931l-59.37 31.734c-.678.393-.678 1.029 0 1.419l4.536 2.616a2.705 2.705 0 002.457 0L75.2 99.969c.678-.393.678-1.026 0-1.419l-4.536-2.619a2.7 2.7 0 00-2.46 0z" fill="#EBEBEB"/><path d="M87.755 27.309l.51.306 10.488-6.057-.513-.303-10.485 6.054z" fill="#FAFAFA"/><path d="M98.24 21.255l-9.975 5.757V16.566l9.978-5.754-.003 10.443z" fill="#fff"/><path d="M99.716 8.841l-12.414 7.167v13.275l12.414-7.167V8.841zm-.963 12.717l-10.5 6.057V16.566l10.5-6.054v11.046z" fill="#F0F0F0"/><path d="M98.753 21.558l-.513-.303.003-10.443.51-.3v11.046z" fill="#E0E0E0"/><path d="M99.716 8.841l-.519-.297-12.414 7.17.52.297 12.413-7.17z" fill="#FAFAFA"/><path d="M86.783 15.714l.52.297v13.272l-.52-.297V15.714z" fill="#E0E0E0"/><path d="M97.853 20.943l-9.198 5.31v-2.655l2.298-5.31 1.434 1.326-.516 2.226 3.177-6.792 2.805 3.24v2.655z" fill="#F0F0F0"/><path d="M92.3 15.723a1.5 1.5 0 00-.68 1.179c0 .432.3.6.68.393a1.5 1.5 0 00.681-1.179c0-.435-.306-.609-.68-.393z" fill="#F0F0F0"/><path d="M87.755 43.626l.51.306 10.488-6.057-.513-.303-10.485 6.054z" fill="#FAFAFA"/><path d="M98.24 37.572l-9.975 5.757V32.883l9.978-5.754-.003 10.443z" fill="#fff"/><path d="M99.716 25.158l-12.414 7.167V45.6l12.414-7.167V25.158zm-.963 12.717l-10.5 6.054V32.883l10.5-6.054v11.046z" fill="#F0F0F0"/><path d="M98.753 37.875l-.513-.303.003-10.443.51-.3v11.046z" fill="#E0E0E0"/><path d="M99.716 25.158l-.519-.297-12.414 7.167.52.297 12.413-7.167z" fill="#FAFAFA"/><path d="M86.783 32.028l.52.297V45.6l-.52-.297V32.028z" fill="#E0E0E0"/><path d="M97.853 37.26l-9.198 5.31v-2.655l2.298-5.31 1.434 1.326-.516 2.226 3.177-6.792 2.805 3.24v2.655z" fill="#F0F0F0"/><path d="M92.3 32.04a1.5 1.5 0 00-.68 1.18c0 .431.3.6.68.392a1.501 1.501 0 00.681-1.179c0-.435-.306-.609-.68-.393z" fill="#F0F0F0"/><path d="M87.938 107.859s-1.5-6.498 1.8-12.84c1.845-3.543 5.352-5.466 7.158-5.592 2.025-.138 3.978 1.692 2.046 4.014-1.839 2.208-5.175 3.057-7.46 8.862-1.5 3.828-1.486 6.693-1.486 6.693l-2.058-1.137z" fill="#459AE9"/><path opacity=".5" d="M87.938 107.859s-1.5-6.498 1.8-12.84c1.845-3.543 5.352-5.466 7.158-5.592 2.025-.138 3.978 1.692 2.046 4.014-1.839 2.208-5.175 3.057-7.46 8.862-1.5 3.828-1.486 6.693-1.486 6.693l-2.058-1.137z" fill="#fff"/><path d="M89.255 106.23a.11.11 0 00.083-.029.11.11 0 00.026-.036.11.11 0 00.011-.043c-.426-7.158 4.251-13.053 7.707-14.955a.086.086 0 00.055-.101.087.087 0 00-.019-.037.144.144 0 00-.174-.027c-3.507 1.929-8.253 7.899-7.82 15.135a.111.111 0 00.131.093z" fill="#fff"/><path d="M89.987 108.996c.402-1.638 1.66-3.618 4.2-5.361 2.541-1.743 6-3.3 5.62-4.914-.382-1.614-3.052-1.641-4.972-.81-1.92.831-6.366 4.653-5.925 10.5l1.077.585z" fill="#459AE9"/><path opacity=".65" d="M89.987 108.996c.402-1.638 1.66-3.618 4.2-5.361 2.541-1.743 6-3.3 5.62-4.914-.382-1.614-3.052-1.641-4.972-.81-1.92.831-6.366 4.653-5.925 10.5l1.077.585z" fill="#fff"/><path d="M89.6 106.833a.126.126 0 00.12-.09c.58-3.465 5.877-7.707 8.235-8.322a.1.1 0 00.087-.083.1.1 0 00-.003-.043.126.126 0 00-.156-.063c-2.472.645-7.8 4.887-8.4 8.49 0 .054.042.105.111.111h.006z" fill="#fff"/><path d="M11.774 128.589a.932.932 0 01.51-.75l50.682-31.86V49.353l6.285-7.776a9.354 9.354 0 001.8-5.046V10.257c0-1.569-1.08-2.169-2.4-1.341L12.284 43.938a.932.932 0 00-.51.75v83.901z" fill="#459AE9"/><path opacity=".3" d="M67.571 17.262c0-1.569-1.113-2.223-2.484-1.464l-51.6 28.557c-.52.26-1.111.35-1.686.252a.782.782 0 000 .081v83.82a.969.969 0 01.498-.669l50.682-31.86V49.353l4.605-5.7-.015-26.391z" fill="#000"/><path d="M12.236 129.258a2.706 2.706 0 002.4-.021l51.6-28.557c1.374-.759 2.484-2.646 2.484-4.2V18.243c0-1.566-1.11-2.223-2.484-1.464l-51.6 28.557a2.699 2.699 0 01-2.4.024.8.8 0 01-.462-.66v83.889a.794.794 0 00.462.669z" fill="#459AE9"/><path opacity=".3" d="M12.236 129.258a2.706 2.706 0 002.4-.021l51.6-28.557c1.374-.759 2.484-2.646 2.484-4.2V18.243c0-1.566-1.11-2.223-2.484-1.464l-51.6 28.557a2.699 2.699 0 01-2.4.024.8.8 0 01-.462-.66v83.889a.794.794 0 00.462.669z" fill="#fff"/><path opacity=".3" d="M13.4 45.627a2.362 2.362 0 01-1.155-.267.8.8 0 01-.47-.66v83.889a.794.794 0 00.461.669c.356.187.753.28 1.155.27l.01-83.901z" fill="#fff"/><path d="M20.3 44.67a.14.14 0 00-.14.144v78.543a.15.15 0 00.15.15.15.15 0 00.15-.15V44.814a.14.14 0 00-.16-.144zm-4.61 2.664a.14.14 0 00-.142.141v78.546c0 .037.015.073.041.1a.143.143 0 00.2 0 .144.144 0 00.041-.1V47.475a.141.141 0 00-.135-.141h-.006zm2.306-1.332a.144.144 0 00-.144.141v78.546a.143.143 0 00.244.1.144.144 0 00.041-.1V46.143a.141.141 0 00-.135-.141h-.006z" fill="#459AE9"/><path d="M25.082 49.182l-1.185-.684 53.26-30.75 1.187.684-53.262 30.75z" fill="#F0F0F0"/><path d="M78.344 18.432v81.798l-53.283 30.762.021-81.81 53.262-30.75z" fill="#FAFAFA"/><path d="M78.06 18.921v81.147L25.345 130.5l.021-81.156L78.06 18.921zm.3-.489l-53.278 30.75-.02 81.81 53.282-30.762V18.432h.015z" fill="#EBEBEB"/><path d="M25.082 49.182l-.02 81.81-1.153-.666-.012-81.828 1.164.669.021.015z" fill="#E0E0E0"/><path d="M93.254 107.526v1.374l-53.262 30.744-.6-.339A23.745 23.745 0 0127.56 118.8V55.329l53.26-30.75 1.2.684v62.784a22.5 22.5 0 0011.234 19.479z" fill="#F0F0F0"/><path d="M82.007 88.047V25.263l-53.259 30.75V118.8a22.5 22.5 0 0011.244 19.479l53.262-30.75a22.503 22.503 0 01-11.247-19.482zM29 118.8V56.163l52.743-30.447v62.331a22.818 22.818 0 0010.992 19.476l-52.743 30.45A22.3 22.3 0 0129 118.8z" fill="#E0E0E0"/><path d="M92.735 107.523l-52.743 30.45A22.3 22.3 0 0129 118.8V56.163l52.743-30.447v62.331a22.818 22.818 0 0010.992 19.476z" fill="#FAFAFA"/><path d="M28.745 118.8V56.013l-1.2-.684V118.8a23.745 23.745 0 0011.838 20.508l.6.339v-1.368A22.503 22.503 0 0128.745 118.8z" fill="#E0E0E0"/><path opacity=".15" d="M39.992 138.276v1.368l53.265-30.747v-1.371l-53.265 30.75z" fill="#000"/><path d="M65.411 41.841L78.122 34.5c.3-.18.567-.051.567.3a1.218 1.218 0 01-.567.942l-12.71 7.341c-.316.18-.57.051-.57-.3a1.2 1.2 0 01.57-.942zm0 4.92l12.711-7.341c.3-.18.567-.051.567.3a1.218 1.218 0 01-.567.942L65.412 48c-.316.18-.57.051-.57-.3a1.201 1.201 0 01.57-.939zm4.759-5.208l7.952-4.593c.3-.18.567-.051.567.3a1.217 1.217 0 01-.567.942l-7.953 4.593c-.3.18-.57.051-.57-.3a1.2 1.2 0 01.57-.942zM35.015 73.935L76.56 49.95c.315-.18.567-.051.567.3a1.2 1.2 0 01-.567.942l-41.544 24c-.3.183-.567.054-.567-.3a1.225 1.225 0 01.567-.957zm0 2.46l41.544-24c.315-.18.567-.051.567.3a1.2 1.2 0 01-.567.942L35.015 77.625c-.3.183-.567.054-.567-.3a1.224 1.224 0 01.567-.93zm0 2.46l41.544-24c.315-.18.567-.051.567.3a1.2 1.2 0 01-.567.942L35.015 80.1c-.3.183-.567.054-.567-.3a1.224 1.224 0 01.567-.945zm0 2.46l41.544-24c.315-.18.567-.051.567.3a1.2 1.2 0 01-.567.942L35.015 82.545c-.3.183-.567.054-.567-.3a1.22 1.22 0 01.567-.93zm0 4.968l41.544-24c.315-.183.567-.054.567.3a1.214 1.214 0 01-.567.945L35.015 87.513c-.3.18-.567.051-.567-.3a1.219 1.219 0 01.567-.93zm0 2.46L76.56 64.758c.315-.183.567-.054.567.285a1.213 1.213 0 01-.567.945l-41.544 24c-.3.18-.567.051-.567-.3a1.219 1.219 0 01.567-.945zm0 2.457L76.56 67.218c.315-.183.567-.054.567.285a1.214 1.214 0 01-.567.945L35.015 92.43c-.3.183-.567.054-.567-.3a1.231 1.231 0 01.567-.93zm0 2.46L76.56 69.678c.315-.183.567-.054.567.3a1.213 1.213 0 01-.567.945L35.015 94.89c-.3.183-.567.054-.567-.285a1.23 1.23 0 01.567-.945zm0 4.968L76.56 74.643c.315-.18.567-.054.567.3a1.2 1.2 0 01-.567.942l-41.544 24c-.3.18-.567.051-.567-.3a1.219 1.219 0 01.567-.957zm0 2.472l41.544-24c.315-.18.567-.054.567.3a1.2 1.2 0 01-.567.942l-41.544 23.976c-.3.18-.567.051-.567-.3a1.219 1.219 0 01.567-.918zm0 2.448l22.266-12.864c.3-.18.567-.051.567.3a1.218 1.218 0 01-.567.942L35.015 104.79c-.3.18-.567.051-.567-.3a1.22 1.22 0 01.567-.942z" fill="#E0E0E0"/><path d="M35.015 107.919l14.793-8.553c.3-.18.567-.054.567.3a1.202 1.202 0 01-.567.942l-14.793 8.553c-.3.18-.567.051-.567-.3a1.224 1.224 0 01.567-.942zM37.7 65.466a.382.382 0 01.048-.165.235.235 0 01.084-.093l.37-.216a.075.075 0 01.09 0 .14.14 0 01.032.117 3.294 3.294 0 01-.336 1.29c-.113.222-.253.43-.417.618-.17.2-.372.368-.6.498a1.11 1.11 0 01-.555.177.6.6 0 01-.41-.162 1.02 1.02 0 01-.262-.465 2.806 2.806 0 01-.114-.714v-1.2c.012-.284.05-.566.114-.843a3.46 3.46 0 01.261-.768c.108-.23.246-.443.411-.636a2.1 2.1 0 01.555-.465c.18-.118.386-.188.6-.204a.66.66 0 01.43.165.832.832 0 01.242.381c.054.168.085.343.093.519a.3.3 0 01-.033.156.245.245 0 01-.09.105l-.369.213a.084.084 0 01-.087 0 .123.123 0 01-.048-.108.78.78 0 00-.066-.237.38.38 0 00-.135-.162.366.366 0 00-.219-.045.754.754 0 00-.3.114 1.119 1.119 0 00-.3.261 1.608 1.608 0 00-.222.354 1.803 1.803 0 00-.135.417 2.505 2.505 0 00-.057.444v1.185c.003.13.022.259.057.384a.558.558 0 00.135.255.33.33 0 00.222.096.58.58 0 00.3-.093c.111-.068.212-.15.3-.246a1.618 1.618 0 00.36-.621c.027-.1.044-.203.051-.306zm1.047-2.13c.01-.268.042-.535.096-.798.055-.257.139-.508.25-.747.107-.231.246-.447.41-.642.169-.198.372-.364.6-.489a1.12 1.12 0 01.58-.186.572.572 0 01.407.168c.121.13.208.287.252.459.061.224.094.455.1.687v1.266a4.567 4.567 0 01-.097.798 3.582 3.582 0 01-.249.747 2.731 2.731 0 01-.414.642c-.163.193-.36.357-.579.483-.18.116-.386.181-.6.189a.6.6 0 01-.41-.165 1.06 1.06 0 01-.25-.462 3.004 3.004 0 01-.096-.684v-.966a3.328 3.328 0 010-.3zm2.064-1.158a.9.9 0 00-.21-.66c-.132-.111-.3-.105-.513.018a1.311 1.311 0 00-.513.576 2.176 2.176 0 00-.213.9v1.2a.899.899 0 00.213.657c.13.108.3.099.513-.024a1.33 1.33 0 00.513-.57 2.14 2.14 0 00.21-.9v-.6c0-.219.006-.423 0-.597zm3.289 1.149c-.052.03-.09.033-.118 0l-.06-.063-1.278-2.184v2.892a.383.383 0 01-.036.156.226.226 0 01-.087.105l-.369.213a.066.066 0 01-.087 0 .153.153 0 01-.036-.114v-4.533c0-.054.013-.107.036-.156a.224.224 0 01.087-.105l.321-.186c.051-.03.09-.03.117 0l.06.066 1.275 2.184V58.71a.362.362 0 01.04-.156.206.206 0 01.086-.105l.37-.213a.06.06 0 01.083 0 .136.136 0 01.04.111v4.536a.322.322 0 01-.04.153.232.232 0 01-.084.108l-.32.183zm3.278-6.807a.066.066 0 01.087 0 .15.15 0 01.036.111v.501a.356.356 0 01-.036.153.252.252 0 01-.087.108l-.819.474v3.846a.342.342 0 01-.039.156.222.222 0 01-.087.105l-.369.213a.063.063 0 01-.084 0 .143.143 0 01-.039-.114v-3.846l-.819.474a.066.066 0 01-.087 0 .155.155 0 01-.036-.114v-.498c0-.053.013-.105.036-.153a.252.252 0 01.087-.108l2.256-1.308zm1.878-1.086c.381-.219.67-.249.867-.093.198.156.3.48.3.96a2.97 2.97 0 01-.153.963 2.4 2.4 0 01-.45.795l.63 1.371a.2.2 0 010 .069.3.3 0 01-.03.126.195.195 0 01-.072.087l-.387.225c-.06.036-.105.036-.135 0a.24.24 0 01-.06-.087l-.6-1.29-.6.35v1.636a.379.379 0 01-.036.156.225.225 0 01-.087.105l-.369.213a.063.063 0 01-.087 0 .15.15 0 01-.036-.111v-4.533c0-.054.013-.107.036-.156a.225.225 0 01.087-.105l1.182-.681zm-.684 2.607l.663-.381c.167-.092.309-.222.414-.381.114-.187.168-.403.156-.621 0-.264-.05-.408-.156-.438a.57.57 0 00-.414.105l-.663.375v1.341zm3.942-4.485c.048-.03.084-.03.108 0 .032.042.055.09.066.141l1.116 3.792a.193.193 0 010 .048.36.36 0 01-.039.153.23.23 0 01-.087.108l-.327.189c-.06.033-.105.039-.129 0a.192.192 0 01-.048-.087l-.198-.666-1.44.834-.195.9a.7.7 0 01-.05.144.3.3 0 01-.13.135l-.327.189a.063.063 0 01-.087 0 .151.151 0 01-.036-.111.304.304 0 010-.054l1.12-5.082a1.05 1.05 0 01.062-.216.26.26 0 01.111-.123l.51-.294zm.25 2.937l-.502-1.713-.5 2.292 1.001-.579zm3.356-1.665a.46.46 0 01.048-.165.256.256 0 01.084-.093l.37-.213a.074.074 0 01.09 0 .14.14 0 01.035.117 3.576 3.576 0 01-.096.63 2.94 2.94 0 01-.243.66c-.11.227-.247.44-.408.636a2.369 2.369 0 01-.6.498 1.112 1.112 0 01-.555.177.6.6 0 01-.41-.165 1.046 1.046 0 01-.262-.462 2.846 2.846 0 01-.11-.714v-1.185c.01-.284.047-.566.11-.843.06-.264.148-.52.261-.765.11-.23.248-.444.411-.639a2.18 2.18 0 01.555-.462c.179-.12.386-.19.6-.204a.654.654 0 01.414.138.81.81 0 01.243.384c.054.168.087.343.096.519a.323.323 0 01-.036.156.235.235 0 01-.09.102l-.369.216a.09.09 0 01-.087 0c-.027 0-.042-.051-.048-.108a.661.661 0 00-.066-.237.373.373 0 00-.135-.159.327.327 0 00-.219-.045.74.74 0 00-.3.111 1.2 1.2 0 00-.3.264 1.687 1.687 0 00-.357.768 2.52 2.52 0 00-.057.447v1.185c.003.13.022.259.057.384a.569.569 0 00.135.255c.06.06.139.095.222.099a.58.58 0 00.3-.096 1.574 1.574 0 00.66-.864c.03-.107.05-.216.057-.327zm3.285-5.25a.06.06 0 01.084 0 .14.14 0 01.04.111v.498a.324.324 0 01-.04.156.223.223 0 01-.084.105l-.822.474v3.849a.358.358 0 01-.036.153.253.253 0 01-.087.108l-.369.213a.072.072 0 01-.087 0 .157.157 0 01-.036-.114V51.3l-.822.474a.072.072 0 01-.087 0 .157.157 0 01-.036-.114v-.498c0-.053.013-.105.036-.153a.233.233 0 01.087-.108l2.26-1.323z" fill="#459AE9"/><path opacity=".2" d="M71.84 91.545v-1.284c-2.838 1.641-5.15 6.057-5.15 9.843l.962-.555c0-3.081 1.881-6.669 4.188-8.004zm3.714 3.441c0-2.73-1.665-3.99-3.714-2.808-2.049 1.182-3.71 4.365-3.71 7.095 0 2.73 1.664 3.99 3.71 2.808 2.046-1.182 3.714-4.365 3.714-7.095zM68.6 99c0-2.373 1.45-5.145 3.231-6.174.126-.072.25-.129.37-.183l-3.577 6.837c-.006-.159-.024-.318-.024-.48zm.138 1.167l4.03-7.695c1.04-.18 1.86.447 2.165 1.665l-4.008 7.656c-1.035.189-1.863-.426-2.178-1.632l-.009.006zm6.3-5.34c0 .141.018.3.018.444 0 2.376-1.452 5.145-3.234 6.174-.11.064-.223.121-.339.171l3.555-6.789zm-3.198-5.841c-3.366 1.944-6.108 7.179-6.108 11.67s2.742 6.564 6.108 4.617c3.366-1.947 6.111-7.173 6.111-11.673s-2.75-6.558-6.11-4.614zm0 15.645c-3.102 1.8-5.625-.117-5.625-4.254s2.523-8.958 5.625-10.749c3.102-1.791 5.628.117 5.628 4.254s-2.523 8.958-5.628 10.749zm4.2-9.921c0 3.081-1.88 6.672-4.2 8.004v1.284c2.841-1.641 5.154-6.054 5.154-9.843l-.954.555z" fill="#459AE9"/><path d="M61.49 112.71l-22.911 13.236a.416.416 0 01-.37.041.412.412 0 01-.251-.275v-.039a.69.69 0 01.3-.762l22.911-13.239a.397.397 0 01.36-.031.399.399 0 01.24.271v.039a.672.672 0 01-.279.759zm-5.51 6.291l-16.045 9.3a.462.462 0 01-.669-.216v-.021a.6.6 0 01.252-.747l16.047-9.3a.443.443 0 01.654.222v.021a.6.6 0 01-.24.741zm26.327-15.099l-16.044 9.3a.464.464 0 01-.385.048.46.46 0 01-.284-.264v-.021a.6.6 0 01.252-.747l16.044-9.3a.454.454 0 01.657.222v.021a.6.6 0 01-.24.741z" fill="#E0E0E0"/><path d="M52.073 111.3a4.794 4.794 0 01-1.287 1.782.45.45 0 01-.186.12c-.11.021-.147-.072-.162-.198-.012-.209 0-.418.04-.624.047-.411.107-.819.173-1.227.112-.656.232-1.311.36-1.965a21.835 21.835 0 001.098-3.357c.201-.84.387-1.755.234-2.622-.015-.084-.126-.15-.168-.057-.36.798-.486 1.764-.666 2.643l-.63 3.06-.042.204a18.585 18.585 0 01-1.086 2.205c-.13.253-.28.495-.45.723-.23.276-.53.189-.669-.162a1.024 1.024 0 01-.06-.234c.215-.218.395-.47.531-.744.168-.307.312-.627.43-.957a6.95 6.95 0 00.278-1.086c.04-.243.13-.615-.018-.819-.147-.204-.357-.021-.47.171a6.928 6.928 0 00-.466.99 6.114 6.114 0 00-.468 2.313c-.024.018-.045.039-.072.057a.42.42 0 01-.636-.114.416.416 0 01-.05-.237c0-.117-.142-.165-.19-.063-.162.36-.174.81-.369 1.143-.09.15-.255.336-.402.228a.33.33 0 01-.117-.264c.018-.054.04-.105.054-.159.04-.114-.114-.195-.168-.117a.423.423 0 00-.08.234 12.9 12.9 0 01-.3.786 2.618 2.618 0 010-.825c.017-.108-.166-.18-.187-.063a7.865 7.865 0 01-.3 1.074 6.561 6.561 0 01-.213.522c-.07.198-.172.383-.3.549-.06.06-.147.117-.222.072-.075-.045-.087-.231-.09-.348 0-.195 0-.393.015-.6.03-.385.09-.768.183-1.143.03-.129-.153-.213-.192-.084a13.5 13.5 0 01-.645 1.749 9.871 9.871 0 01-.396.798c-.066.12-.24.387-.384.381.03-.054.057-.108.087-.159a13.57 13.57 0 00.831-1.899 8.446 8.446 0 00.465-2.04.573.573 0 00-.168-.516c.07-.352.077-.713.024-1.068-.117-.627-.582-.858-1.038-.714-.546.171-.978.72-1.356 1.239a13.07 13.07 0 00-1.773 3.399 14.91 14.91 0 00-.53 1.941c-.127.624-.3 1.38-.085 1.995.51 1.464 1.93.117 2.502-.6.339-.438.64-.903.9-1.392a.418.418 0 00.453-.15c.192-.233.347-.494.46-.774.158-.33.3-.669.437-1.017v.387a1.4 1.4 0 00.075.645.331.331 0 00.321.174c.321-.03.51-.543.651-.864.109-.248.202-.503.28-.762.02.134.05.267.092.396a.092.092 0 00.027.048.09.09 0 00.049.023c.018.003.037 0 .053-.009a.09.09 0 00.04-.038c.121-.262.232-.529.332-.801a.427.427 0 00.414.21c.441-.108.52-.735.66-1.227a.6.6 0 00.897.225c.041.195.138.373.28.513a.453.453 0 00.626.039c.24-.251.436-.538.582-.852.186-.324.366-.657.537-.996l.192-.399a39.222 39.222 0 00-.3 1.674c-.036.237-.069.474-.096.714a2.783 2.783 0 00-.036.6c.036.33.246.513.495.411a1.5 1.5 0 00.423-.33c.161-.154.31-.32.444-.498.277-.37.507-.773.684-1.2.054-.099-.135-.186-.186-.063zm-.417-5.286c.102-.495.198-.99.3-1.482a8.13 8.13 0 01.252-.948 6.007 6.007 0 01-.168 1.599c-.132.6-.3 1.218-.462 1.8-.102.333-.21.66-.324.984.135-.648.27-1.305.402-1.959v.006zm-9.05 9.774a6.283 6.283 0 01-1.084 1.305c-.19.168-.4.313-.624.432-.216.114-.453.198-.657.018-.393-.345-.348-1.059-.267-1.596.086-.554.204-1.103.354-1.644a13.919 13.919 0 011.23-3.039c.26-.472.55-.926.87-1.359.342-.456.747-.96 1.248-1.062.714-.144.76.699.618 1.542a.965.965 0 00-.56.357 4.195 4.195 0 00-.769 1.77 5.411 5.411 0 00-.108.624c-.178.12-.385.19-.6.204-.315 0-.27-.525-.237-.807.037-.309.114-.611.228-.9.03-.072-.093-.177-.126-.102a3.864 3.864 0 00-.279 1.005 1.23 1.23 0 00.105.855c.162.216.43.165.636.105.083-.027.164-.059.243-.096-.029.371-.013.745.045 1.113.023.193.076.382.16.558-.133.24-.28.48-.427.711v.006zm1.64-5.148a6.66 6.66 0 01-.327 1.122c-.174.459-.455.87-.819 1.2.074-.455.2-.9.378-1.326.101-.265.244-.512.423-.732a.939.939 0 01.3-.246l.045-.018zm-1.092 4.2c-.024-.087-.039-.189-.054-.258a3.652 3.652 0 01-.057-.444 4.682 4.682 0 010-.87c.097-.065.188-.137.273-.216a3.804 3.804 0 00.957-1.68c.063-.201.126-.426.177-.657v.063c.006.071.006.142 0 .213a8.926 8.926 0 01-.387 1.722 12.722 12.722 0 01-.909 2.133v-.006zm5.457-4.14c.094-.603.266-1.19.51-1.749.103-.278.241-.541.411-.783.015-.021.102-.114.13-.09.026.024.017.093.017.111a1.04 1.04 0 010 .216 5.82 5.82 0 01-.08.486 6.197 6.197 0 01-.667 1.833 3.387 3.387 0 01-.369.561c.002-.196.018-.391.048-.585zm9.666-2.895l-.093-.021c.024-.468.027-.939.018-1.401-.015-.9-.072-1.773-.17-2.649 0-.09-.022-.18-.037-.27.045-.27.084-.54.114-.813.054-.531.09-1.2-.3-1.515-.05-.042-.132-.039-.144.054a6.375 6.375 0 00.093 1.836c0 .102.027.207.04.3a13.1 13.1 0 01-.27 1.287c-.14.543-.314 1.076-.523 1.596-.102.258-.213.513-.33.762-.1.271-.282.504-.522.666a.679.679 0 01-.063-.336c0-.111-.144-.186-.174-.06a.767.767 0 01-.024.087c.024-.3.057-.6.102-.9.015-.099-.144-.183-.17-.078-.083.34-.197.672-.343.99a4.35 4.35 0 01-.258.483c-.054.09-.17.3-.27.276-.225-.03-.057-.9 0-1.08 0-.054.027-.105.042-.159a6.84 6.84 0 00.3-.807c.04-.108-.108-.207-.156-.108-.086.178-.16.361-.222.549a12.125 12.125 0 01-.939 1.8c-.219.342-.507.873-.87.93-.21.03-.279-.156-.285-.396.37-.402.69-.846.954-1.323.195-.354 1.15-2.307.267-2.223-.384.036-.624.537-.792.936a8.153 8.153 0 00-.603 2.304 1.885 1.885 0 000 .228 5.806 5.806 0 01-.915.795c-.072.048.036.189.1.147.298-.203.578-.433.836-.687a.714.714 0 00.063.192c.216.408.654.207.9-.048.374-.433.69-.912.942-1.425.051-.096.102-.192.15-.3-.042.3-.06.708.156.822.216.114.477-.246.6-.477a4.6 4.6 0 00.246-.51c0 .105-.015.21-.018.3-.003.09.075.159.132.12a.597.597 0 00.132-.132.89.89 0 00.096.222.118.118 0 00.047.04c.02.008.04.011.061.008.507-.15.78-.921 1.005-1.467a13.412 13.412 0 00.72-2.319c.036.375.066.75.084 1.125.057.852.064 1.706.021 2.559a2.016 2.016 0 00-1.176.408 5.268 5.268 0 00-1.302 1.164 2.428 2.428 0 00-.507 1.617c.036.555.3 1.032.73 1.161.9.276 1.667-.9 2.012-1.845.248-.734.393-1.5.43-2.274a.546.546 0 01.098 0c.108.093.108-.102-.015-.132v-.009zm-5.352.204c.08-.42.19-.833.333-1.236.111-.421.316-.81.6-1.14.057-.054.21-.171.28-.126.068.045.092.222.074.354a3.24 3.24 0 01-.177.66 6.83 6.83 0 01-.555 1.14 7.013 7.013 0 01-.639.9c.018-.219.06-.426.084-.543v-.009zm4.962-5.283a5.51 5.51 0 01-.06-1.293c.183.336.12.882.06 1.302v-.009zm-.054 6.348c-.189 1.047-.615 2.244-1.419 2.7a.702.702 0 01-.888-.056.692.692 0 01-.177-.265 1.962 1.962 0 01.117-1.611c.32-.539.76-.996 1.287-1.335a2.276 2.276 0 011.218-.528c-.027.37-.073.739-.138 1.104v-.009z" fill="#455A64"/><path d="M27.716 120.132a22.32 22.32 0 00.684 4.926l6.453-3.711 1.72-4.998-1.72-.327-7.137 4.11z" fill="#E0E0E0"/><path d="M34.274 115.017L21.59 122.34v5.325l12.684-7.323 2.304-3.993-2.304-1.332z" fill="#459AE9"/><path d="M26.453 120.771a.044.044 0 01.011-.008.056.056 0 01.013-.002l.014.002a.044.044 0 01.01.008.075.075 0 01.021.063v2.541a.175.175 0 01-.02.084.113.113 0 01-.049.06l-.207.12a.035.035 0 01-.024.009.035.035 0 01-.024-.009.074.074 0 01-.02-.063v-1.038l-.778.444v1.038a.177.177 0 01-.02.087.143.143 0 01-.049.06l-.207.12a.041.041 0 01-.024.008.04.04 0 01-.024-.008.074.074 0 01-.02-.063v-2.544c0-.03.006-.06.02-.087a.13.13 0 01.048-.06l.207-.12a.04.04 0 01.024-.008c.01 0 .017.003.024.008.008.009.014.02.018.031.003.011.005.023.003.035v1.008l.771-.444v-1.011c0-.03.008-.06.021-.087a.14.14 0 01.048-.06l.213-.114zm1.647 1.302a.035.035 0 01.024-.009c.01 0 .018.003.024.009.014.017.02.038.018.06v.282a.211.211 0 01-.018.084.133.133 0 01-.048.06l-1.122.648a.035.035 0 01-.024.009.035.035 0 01-.024-.009.074.074 0 01-.02-.063V120.6c0-.03.006-.06.02-.087a.12.12 0 01.048-.06l1.122-.63a.035.035 0 01.024-.009c.01 0 .018.003.024.009.015.017.023.04.021.063v.279a.243.243 0 01-.02.087.135.135 0 01-.049.057l-.825.477v.624l.768-.441a.044.044 0 01.011-.008.057.057 0 01.013-.002l.014.002a.044.044 0 01.01.008.075.075 0 01.021.063v.279c0 .03-.007.06-.02.087a.115.115 0 01-.049.057l-.768.444v.654l.825-.48zm1.125-2.904c.213-.123.375-.141.486-.051a.68.68 0 01.165.537 1.65 1.65 0 01-.087.54 1.373 1.373 0 01-.249.444l.36.768a.107.107 0 010 .039.16.16 0 01-.057.12l-.219.126c-.033.018-.057.021-.075 0a.134.134 0 01-.033-.051l-.336-.723-.339.198v.915c0 .03-.007.06-.02.087a.127.127 0 01-.049.06l-.207.12a.035.035 0 01-.024.009.035.035 0 01-.024-.009.07.07 0 01-.017-.028.069.069 0 01-.004-.032V119.7c0-.03.007-.06.021-.087a.125.125 0 01.048-.06l.66-.384zm-.384 1.461l.372-.213a.72.72 0 00.231-.213.633.633 0 00.087-.351c0-.147-.03-.228-.087-.243a.292.292 0 00-.121.005.284.284 0 00-.11.052l-.372.216v.747zm2.559-.453a.048.048 0 01.012-.008.033.033 0 01.028 0 .047.047 0 01.011.008c.014.018.02.04.018.063v.279c0 .03-.006.059-.018.087a.12.12 0 01-.05.057l-1.12.648a.047.047 0 01-.011.008.033.033 0 01-.028 0 .048.048 0 01-.012-.008.087.087 0 01-.018-.063v-2.541a.24.24 0 01.018-.087.12.12 0 01.051-.057l1.101-.636a.035.035 0 01.024-.009c.01 0 .018.003.024.009.015.017.023.04.021.063v.279a.229.229 0 01-.02.087.171.171 0 01-.049.06l-.825.474v.627l.768-.444a.035.035 0 01.024-.009c.01 0 .018.003.024.009a.075.075 0 01.018.029.083.083 0 01.003.034v.279c0 .03-.007.06-.02.087a.171.171 0 01-.049.06l-.77.438v.651l.845-.474z" fill="#fff"/><path d="M116.339 120.84l-1.779-.678.588-1.203 1.092 1.026.099.855z" fill="#000"/><path d="M118.196 117.633s.066 1.161.081 1.527c.015.366-1.551 1.5-1.938 1.68l-.099-.84a6.55 6.55 0 00-.9 1.38c-.3.519-.69 1.5-1.518 2.172-1.227.993-3.138 1.5-5.085 1.551-1.947.051-3.06-.423-3.6-.846s-.726-.921-.585-1.413c.141-.492 13.644-5.211 13.644-5.211z" fill="#263238"/><path d="M113 113.649l-.021-.672c-.36 0-.408.963-.933 1.815a17.44 17.44 0 01-2.757 3.489c-1.983 1.8-3.75 2.91-4.632 3.717-1.2 1.077.879 2.811 4.056 2.646 1.575-.081 4.38-.861 5.172-1.8.792-.939 1.281-2.379 1.917-3.051.636-.672 1.989-1.35 2.385-2.172.219-.45.108-1.5-.015-2.4-.114-.822-.135-2.082-.6-1.98l-.036.42c-.189.36-.63.951-1.905 1.158-.621.117-2.517.165-2.631-1.17z" fill="#37474F"/><path opacity=".15" d="M114.623 114.861c-.6-.054-1.257-.258-1.5-.807v-.018a1.53 1.53 0 01-.417 1.293c-.57.66-4.182 5.331-4.182 5.331s3.36-3.849 4.002-4.575c.954-1.071 1.254-1.2 2.121-1.221l-.024-.003zm-.798 1.239a.194.194 0 00.387-.042.194.194 0 00-.073-.13.194.194 0 00-.143-.041.201.201 0 00-.072.022.21.21 0 00-.058.049.187.187 0 00-.041.142zm-.942 1.032a.192.192 0 10.28-.192.186.186 0 00-.109-.021.201.201 0 00-.072.022.194.194 0 00-.099.191zm-.945 1.032a.194.194 0 00.073.13.194.194 0 00.243-.302.212.212 0 00-.067-.034.19.19 0 00-.075-.007.188.188 0 00-.073.022.184.184 0 00-.094.115.18.18 0 00-.007.076zm-.942 1.032a.194.194 0 00.073.13c.04.032.092.047.143.041a.201.201 0 00.072-.022.21.21 0 00.058-.049.187.187 0 00.041-.142.194.194 0 00-.387.042zm-.942 1.032a.194.194 0 00.213.171.183.183 0 00.073-.022.184.184 0 00.059-.048.217.217 0 00.036-.067.196.196 0 00-.065-.205.197.197 0 00-.274.028.196.196 0 00-.035.067c-.007.025-.01.051-.007.076z" fill="#000"/><path d="M114.023 116.157a.071.071 0 00.04-.016.075.075 0 00.026-.035.08.08 0 00.003-.043.095.095 0 00-.021-.038c-.039-.039-.969-.945-2.19-.882a.077.077 0 00-.052.028.078.078 0 00-.02.056c.001.01.004.02.008.029.005.01.011.018.019.024a.072.072 0 00.027.015c.01.004.02.005.03.004 1.152-.06 2.064.828 2.073.837a.106.106 0 00.026.017c.01.003.021.005.031.004zm-.942 1.029a.074.074 0 00.048-.024.085.085 0 00.017-.025.08.08 0 000-.061.085.085 0 00-.017-.025c-.039-.039-.969-.945-2.193-.879a.096.096 0 00-.029.008.065.065 0 00-.024.019.072.072 0 00-.015.027c-.004.009-.005.02-.004.03a.08.08 0 00.081.072c1.152-.06 2.067.825 2.076.834a.101.101 0 00.027.019.076.076 0 00.033.005zm-.942 1.035a.052.052 0 00.027-.007.068.068 0 00.021-.017.07.07 0 00.017-.025.081.081 0 000-.061.07.07 0 00-.017-.025c-.039-.036-.969-.942-2.193-.879a.077.077 0 00-.052.028.076.076 0 00-.02.056.08.08 0 00.081.072c1.152-.06 2.067.828 2.076.834a.064.064 0 00.027.019.064.064 0 00.033.005zm-.939 1.032a.052.052 0 00.027-.007.068.068 0 00.021-.017.074.074 0 00.017-.025.072.072 0 000-.058.074.074 0 00-.017-.025c-.039-.039-.969-.945-2.193-.882a.075.075 0 00-.053.027.072.072 0 00-.015.027.075.075 0 00-.004.03c.001.01.003.02.007.029a.089.089 0 00.018.024.076.076 0 00.026.015c.01.004.02.005.03.004 1.152-.06 2.064.828 2.073.837a.079.079 0 00.029.017.08.08 0 00.034.004zm-.948 1.047a.08.08 0 00.073-.079.082.082 0 00-.022-.056 3.2 3.2 0 00-2.193-.879.08.08 0 00-.054.027.08.08 0 00-.021.057c.001.01.004.02.008.029.005.01.011.018.019.024a.072.072 0 00.027.015c.01.004.02.005.03.004 1.152-.06 2.064.825 2.073.834a.087.087 0 00.06.024zm20.649 6.147c.27 1.518.627 2.505 1.278 3.336s1.815.927 2.682.744c1.215-.255 2.4-1.101 2.88-2.841.279-1.047.087-2.247-.318-3.639l-6.522 2.4z" fill="#263238"/><path d="M134.282 114.783c.429-.018.801 2.022 1.293 4.047.525 2.172 1.347 3.324 1.743 4.785.549 2.022.516 2.967-.06 4.302-.576 1.335-3.564 2.961-5.037 1.323-1.2-1.335-1.437-2.946-1.59-5.016a52.673 52.673 0 00-.531-5.259c-.267-1.536-.552-3.021-.201-3.237.054.225.117.51.174.729.042.168.186.999.426.978a3.164 3.164 0 00-.066-.582.704.704 0 01.06-.513.806.806 0 01.447-.267c.41-.138.826-.254 1.248-.348.21-.046.422-.08.636-.102.372-.06.748-.089 1.125-.087a.376.376 0 01.255.18.626.626 0 01.051.234c.018.143.053.283.105.417.021.06.072.129.132.108.06-.021.06-.084.054-.135-.027-.249-.081-.426-.126-.714-.021-.132-.066-.3-.081-.447-.015-.147-.039-.264-.057-.396z" fill="#37474F"/><path opacity=".15" d="M135.8 124.311a.144.144 0 01-.007.087.147.147 0 01-.136.095.148.148 0 01-.151-.175.149.149 0 01.114-.121.167.167 0 01.059-.002.155.155 0 01.121.116zm-.3-1.407a.152.152 0 01-.06.155.147.147 0 01-.083.027.148.148 0 01-.151-.175.149.149 0 01.114-.121.167.167 0 01.059-.002.163.163 0 01.055.022c.017.01.031.024.042.04.012.016.02.035.024.054zm-.3-1.329a.152.152 0 01-.06.155.155.155 0 01-.083.027.146.146 0 01-.14-.089.149.149 0 01.103-.207.167.167 0 01.059-.002.184.184 0 01.055.021.15.15 0 01.042.041c.012.016.02.035.024.054zm-.3-1.308a.152.152 0 01-.06.155.155.155 0 01-.083.027.146.146 0 01-.084-.023.15.15 0 01-.067-.152.149.149 0 01.114-.121.167.167 0 01.059-.002.163.163 0 01.055.022c.017.01.031.024.042.04.012.016.02.035.024.054zm-3.342.612a.144.144 0 01-.007.087.147.147 0 01-.136.095.148.148 0 01-.151-.175.149.149 0 01.114-.121.168.168 0 01.059-.002c.02.004.038.011.055.022.017.01.031.024.043.04a.152.152 0 01.023.054zm.294 1.32a.162.162 0 01.002.058.155.155 0 01-.022.055.152.152 0 01-.181.057.145.145 0 01-.069-.053.158.158 0 01-.027-.084.147.147 0 01.091-.14.152.152 0 01.087-.01c.029.006.056.02.077.04a.154.154 0 01.042.077zm.294 1.326a.152.152 0 01-.06.155.155.155 0 01-.083.027.148.148 0 01-.151-.175.149.149 0 01.114-.121.167.167 0 01.059-.002.163.163 0 01.055.022c.017.01.031.024.042.04.012.016.02.035.024.054zm.312 1.41c.004.02.004.04.001.06a.157.157 0 01-.023.055.153.153 0 01-.096.067.16.16 0 01-.116-.022.14.14 0 01-.042-.042.15.15 0 01-.002-.17.151.151 0 01.097-.066.151.151 0 01.181.118zm1.338.522l-2.331-9.804.549-.078 1.782 9.882z" fill="#000"/><path d="M135.68 124.419h-.024c-1.011-.099-2.682.201-3.3.6a.069.069 0 01-.028.011.057.057 0 01-.029-.001.07.07 0 01-.048-.034.078.078 0 01.024-.105c.657-.426 2.343-.732 3.402-.624a.075.075 0 010 .15l.003.003zm-.312-1.419a.086.086 0 01-.039 0c-.795-.267-2.58.147-3.3.6a.076.076 0 01-.057.009.074.074 0 01-.059-.061.1.1 0 01.001-.03.072.072 0 01.034-.047c.738-.48 2.58-.9 3.42-.621a.074.074 0 01.06.074.074.074 0 01-.06.073V123zm-.294-1.317a.075.075 0 01-.042 0c-.795-.267-2.58.147-3.3.6a.075.075 0 01-.053.003.078.078 0 01-.044-.032.08.08 0 01-.012-.052.083.083 0 01.025-.048c.741-.477 2.583-.9 3.42-.621a.07.07 0 01.027.014.071.071 0 01.019.023.073.073 0 01.007.029.06.06 0 01-.005.03.063.063 0 01-.015.032.073.073 0 01-.027.022zm-.291-1.311h-.042c-.795-.267-2.58.147-3.3.6a.064.064 0 01-.027.011.076.076 0 01-.078-.116.104.104 0 01.021-.021c.741-.48 2.583-.9 3.42-.624.01.003.019.008.027.015a.075.075 0 01.019.024.073.073 0 01.007.03.063.063 0 01-.005.03.073.073 0 01-.014.031.069.069 0 01-.028.02zM131.966 64.8c.996 12.633 1.608 29.835 1.608 29.835.09.96 1.014 5.055 1.476 9.786.489 4.992.885 14.343.885 14.343s-3.492 1.878-6.321.936c0 0-3.033-15.75-4.482-21.633-1.374-5.568-3.522-16.122-3.522-16.122L120.149 92.4s.192 3.6.087 6.12c-.126 2.931-1.995 17.013-1.995 17.013s-3.798 2.226-6.741-.033c0 0-.51-19.422-.6-22.947-.162-6.915.645-20.316.9-29.241l20.166 1.488z" fill="#263238"/><path d="M126.83 79.344c.264 3.026.559 6.051.885 9.075a513.4 513.4 0 00.495 4.53l.258 2.265.132 1.131c.042.378.12.75.177 1.125.498 3 1.266 8.442 1.8 11.433a324.729 324.729 0 001.74 8.949c-.4-3.012-.832-6.018-1.296-9.018-.468-3-1.2-8.448-1.716-11.442-.06-.375-.138-.747-.183-1.122l-.138-1.131-.285-2.259a287.482 287.482 0 00-.6-4.515 391.227 391.227 0 00-1.269-9.021zm-13.989-.858c-.318 2.823-.486 5.664-.6 8.502-.114 2.838-.234 5.7-.126 8.523.108 2.823.141 7.599.249 10.44.108 2.841.234 5.676.402 8.511.046-2.842.055-5.682.027-8.52a864.24 864.24 0 00-.129-10.434l-.051-2.127-.015-.534v-1.59l.054-4.257.069-4.257c.027-1.419.072-2.838.12-4.257zm8.769 3.462l-1.233-6.918s-3.429-.501-5.187-2.079c0 0 1.134 2.1 4.368 2.904l1.242 6.114-.651 10.431 1.461-10.452z" fill="#000"/><path d="M106.7 43.2c.024-.6.3-1.074 1.026-1.56a5.194 5.194 0 001.47-1.287c.399-.534 1.077-1.53 1.485-1.863.408-.333-.081-.807-.798-.723-.717.084-2.34.9-2.73 1.764-.39.864-.648 2.697-.453 3.669z" fill="#F28F8F"/><path d="M116.03 40.347c-1.65.126-3.624.126-5.334 3.282-1.764 3.261-3.231 5.832-3.231 5.832a31.208 31.208 0 01-.693-4.581c-.141-2.262-.081-3.252.636-4.551a37.578 37.578 0 002.751-4.437 22.125 22.125 0 00-3.759.519.767.767 0 00-.477.33c-.063.126-.06.279-.12.408a.846.846 0 01-.447.378c-.378.18-.819.339-.999.717-.099.21-.099.459-.183.675-.144.363-.489.6-.759.846a2.337 2.337 0 00-.555 1.2c-.576 2.328-.732 4.695-.732 8.304 0 2.505.15 5.934 1.008 7.83s2.583 4.038 5.115 1.5c2.532-2.538 6.948-9.573 6.948-9.573l.831-8.679z" fill="#FFA8A7"/><path d="M107.687 39.9a4.203 4.203 0 00-1.176.69 1.456 1.456 0 01.015 1.272c-.3.768-.876 1.065-.732 1.8a1.259 1.259 0 01.672-1.152c.834-.51 1.32-2.166 1.221-2.61z" fill="#F28F8F"/><path d="M115.856 40.242c-1.569.168-3.177.255-4.725 2.376-1.548 2.121-3.723 6.6-3.723 6.6l.057.252s1.275 1.62 1.533 4.818a6.65 6.65 0 01-1.728 5.1c-.231.144-.483.25-.747.318 0 0 .63.462 1.545-.183.915-.645 7.962-10.755 7.962-10.755l-.174-8.526z" fill="#F0F0F0"/><path d="M107.366 49.011l.099.45s.831 2.91-.228 5.118-2.586 2.433-3.381 2.364c-.873-.075-1.161-1.14-1.161-1.14l-.162-.747a.647.647 0 00-.195.747c.334.928.735 1.83 1.2 2.7.483.873 2.1 2.133 3.492 1.365s2.259-2.655 2.259-5.163c0-2.508-.576-4.107-.966-4.641-.39-.534-1.083-1.674-1.083-1.674l.126.621z" fill="#E0E0E0"/><path d="M132.275 41.562s2.211 1.83 1.167 6.327a65.895 65.895 0 00-1.401 8.91c-.162 2.37.105 10.362.105 10.362-3.585 4.284-18.576 3.189-20.436-.711 0 0-.213-15.162 1.143-20.532.768-3.042 1.848-4.8 3-5.676l5.1-1.2 4.629-.057 6.693 2.577z" fill="#E6E6E6"/><path d="M130.211 15.924a1.613 1.613 0 00-.065-1.787 1.611 1.611 0 00-2.246-.362c-.172.124-.317.28-.428.46l-.849 1.38a.802.802 0 00.057.807 2.524 2.524 0 001.938 1.2.802.802 0 00.744-.3l.849-1.38v-.018z" fill="#455A64"/><path d="M128.618 17.616a.802.802 0 00.744-.3l.849-1.38a1.604 1.604 0 00.069-1.563c.144.432-.264 1.086-.735 1.851-.471.765-1.05 1.131-2.208.483-.843-.471-.741-.987-.621-1.233l-.093.153a.802.802 0 00.057.807 2.513 2.513 0 001.938 1.182z" fill="#37474F"/><path d="M130.124 22.527a4.997 4.997 0 00-8.511-5.241c-.387.63-.36 1.5.177 2.505 1.071 1.983 3.765 3.642 6.018 3.705 1.125.033 1.926-.339 2.316-.969z" fill="#459AE9"/><path d="M129.947 20.022c-1.071-1.98-3.765-3.642-6.018-3.705-1.125-.033-1.929.342-2.316.969l-18.705 30.363c-.387.63-.357 1.5.177 2.505 1.071 1.983 3.765 3.642 6.018 3.708 1.125.03 1.929-.342 2.316-.969l18.705-30.366c.387-.627.357-1.512-.177-2.505z" fill="#459AE9"/><path opacity=".2" d="M129.947 20.022c-1.071-1.98-3.765-3.642-6.018-3.705-1.125-.033-1.929.342-2.316.969l-18.705 30.363c-.387.63-.357 1.5.177 2.505 1.071 1.983 3.765 3.642 6.018 3.708 1.125.03 1.929-.342 2.316-.969l18.705-30.366c.387-.627.357-1.512-.177-2.505z" fill="#fff"/><path d="M108.047 55.764c-2.316-.066-5.085-1.773-6.186-3.81-.549-1.02-.579-1.929-.18-2.574l1.437-2.337c.399-.645 1.224-1.029 2.382-.996 2.316.066 5.085 1.773 6.186 3.81.549 1.02.579 1.929.18 2.577l-1.437 2.334c-.399.645-1.224 1.032-2.382.996z" fill="#459AE9"/><path opacity=".35" d="M108.047 55.764c-2.316-.066-5.085-1.773-6.186-3.81-.549-1.02-.579-1.929-.18-2.574l1.437-2.337c.399-.645 1.224-1.029 2.382-.996 2.316.066 5.085 1.773 6.186 3.81.549 1.02.579 1.929.18 2.577l-1.437 2.334c-.399.645-1.224 1.032-2.382.996z" fill="#fff"/><path d="M104.06 48.384c2.316.066 5.085 1.77 6.186 3.81.552 1.017.579 1.926.18 2.574-.399.648-1.221 1.029-2.379.996-2.316-.066-5.085-1.773-6.186-3.81-.549-1.02-.579-1.929-.18-2.574.399-.645 1.221-1.029 2.379-.996z" fill="#459AE9"/><path opacity=".15" d="M104.06 48.384c2.316.066 5.085 1.77 6.186 3.81.552 1.017.579 1.926.18 2.574-.399.648-1.221 1.029-2.379.996-2.316-.066-5.085-1.773-6.186-3.81-.549-1.02-.579-1.929-.18-2.574.399-.645 1.221-1.029 2.379-.996z" fill="#000"/><path d="M85.064 77.661c.345-.558 1.06-.9 2.064-.861 2.004.057 4.404 1.533 5.358 3.3.477.882.501 1.671.156 2.229l-1.149 1.128a2.232 2.232 0 01-1.704.552c-1.848-.051-4.056-1.413-4.935-3.039a2.237 2.237 0 01-.273-1.77l.483-1.539z" fill="#459AE9"/><path d="M85.064 77.661c.345-.558 1.06-.9 2.064-.861 2.004.057 4.404 1.533 5.358 3.3.477.882.501 1.671.156 2.229l-1.149 1.128a2.232 2.232 0 01-1.704.552c-1.848-.051-4.056-1.413-4.935-3.039a2.237 2.237 0 01-.273-1.77l.483-1.539z" fill="#000" opacity=".15"/><path d="M87.128 76.8c2.004.057 4.404 1.533 5.358 3.3.477.882.501 1.671.156 2.229l16.869-27.384c.345-.561.321-1.35-.156-2.232-.954-1.767-3.351-3.243-5.358-3.3-1.002-.03-1.719.3-2.064.861L85.064 77.661c.336-.561 1.06-.891 2.064-.861z" fill="#459AE9"/><path d="M91.346 83.556c.321-.498.3-1.2-.132-2.01-.855-1.581-3.015-2.898-4.82-2.943-.9-.021-1.534.267-1.84.768v.015c-1.074 1.758-3.186 7.068-2.934 9.714l.048.03a.945.945 0 00.123.411 2.317 2.317 0 001.8 1.089.969.969 0 00.405-.072c2.466-.96 6.282-5.268 7.35-7.002z" fill="#459AE9"/><path opacity=".2" d="M109.355 52.713a5.192 5.192 0 00-.642-.915L91.844 79.2c.247.28.462.587.642.915.03.057.054.114.081.171l16.872-27.387c-.039-.072-.039-.129-.084-.186zm2.736-1.752a2.234 2.234 0 00-.066-.279l16.638-27c2.184-3.543 2.175-5.034 1.383-6.501.471 1.449-1.53 4.674-1.8 5.1L111.476 49.5c.075.117.144.234.21.351l-1.44 2.337c.19.344.327.716.405 1.101l1.44-2.328zM82.772 90.432l.876-.393s.636.066 2.532-1.659 3.04-3.6 5.034-6.834a4.856 4.856 0 00-.783-1.041c-.02.042-2.244 4.35-5.03 7.395a16.14 16.14 0 01-2.776 2.454c.048.027.096.054.147.078z" fill="#fff"/><path d="M82.322 89.223l-.699 1.134c-.3.495-.795 1.893-.402 2.136.393.243 1.422-.825 1.728-1.32l.7-1.131s-.016-.3-.538-.6-.789-.219-.789-.219z" fill="#455A64"/><path d="M81.728 92.4a.514.514 0 00-.648-.399c-.024.234.021.42.141.495.12.075.303.027.507-.096z" fill="#263238"/><path d="M110.15 35.892c.429 0 1.221.462 1.842.867.621.405 1.2.435.996.9a.9.9 0 01-.825.378 3.575 3.575 0 01-1.011-.189c.735.633.9.885.681 1.107-.3.321-.846.282-1.29.063.249.255.531.387.402.63s-.582.318-1.11.222a3.064 3.064 0 01-.963-.339c-.561.15-1.185.366-1.185.366a13.516 13.516 0 012.463-4.005z" fill="#FFA8A7"/><path d="M110.543 39c-.3-.171-.6-.387-.9-.564a1.359 1.359 0 00-.987-.108c-.345.042-.69.108-1.035.174-.345.066-.69.12-1.041.165.336-.096.678-.18 1.023-.264.345-.084.687-.15 1.038-.201.178-.025.358-.035.537-.03a.99.99 0 01.516.18c.306.21.57.438.849.648zm.609-1.164a22.514 22.514 0 00-.807-.501c-.138-.075-.276-.162-.411-.219a1.216 1.216 0 00-.447-.042c-.3 0-.627.057-.939.096-.312.039-.63.081-.948.108.3-.081.618-.147.933-.207.314-.06.632-.102.951-.123.166-.012.334.008.492.06.146.07.287.15.42.243.265.177.518.373.756.585z" fill="#F28F8F"/><path d="M126.782 25.47s.999 0 1.731 1.224c.369.6.678 1.743 0 5.1a13.179 13.179 0 01-1.347 3.723c-.183.377-.506.67-.9.813l-.096-2.529-.018-1.764s-1.227-1.47-1.431-2.727c-.261-1.614.039-2.301.039-2.301l2.022-1.539z" fill="#37474F"/><path d="M127.133 25.533c-.339-1.404-2.247-2.979-5.73-2.943-2.853.033-4.455 1.116-5.337 2.838-.882 1.722-.093 3.828-.093 3.828l8.898-1.158 2.262-2.565z" fill="#37474F"/><path d="M128.522 34.377c-.957.573-1.929-.276-1.929-.276l.138 5.217s-.039 1.011-1.584 1.995c-2.19 1.395-3.15 1.758-4.038 3.156-.876-2.196-1.776-3.402-.432-5.193l-.072-1.2a8.294 8.294 0 01-1.572.051c-1.17-.108-1.956-.981-2.382-2.214-.627-1.824-1.02-4.779-.522-7.983.09-.621.393-1.192.858-1.614 2.172-1.923 4.821-.783 6.807-.153a3.66 3.66 0 002.436-.165c-.627.789-.9 1.53-.705 5.118.139.239.322.449.54.618.447.342.732-.633 1.065-1.026a1.455 1.455 0 011.862-.13c.184.132.334.305.439.505a2.392 2.392 0 01.234 1.837 2.394 2.394 0 01-1.143 1.457z" fill="#FFA8A7"/><path d="M121.862 29.055l1.314.474a.726.726 0 00-.435-.915.681.681 0 00-.879.441zm-4.851.378l1.326-.477a.669.669 0 00-.346-.407.675.675 0 00-.533-.031.744.744 0 00-.447.915z" fill="#37474F"/><path d="M122.684 30.402a.564.564 0 01-.336.538.569.569 0 11-.249-1.09.566.566 0 01.585.552zm-4.236.06a.567.567 0 01-.333.536.569.569 0 11-.267-1.088.52.52 0 01.6.552z" fill="#263238"/><path d="M120.524 29.274l-.237 3.642-1.956-.582a8.493 8.493 0 012.193-3.06z" fill="#F28F8F"/><path d="M125.54 30.825c-.087 2.484-.939 2.667-1.818 2.82-1.167.207-1.749-.417-3.837-.39-1.266.015-1.659.396-2.376.702-.528.225-.963.165-1.173-.3a8.28 8.28 0 01-.432-2.676 19.88 19.88 0 00.153 4.065c.186 1.164.624 2.157 1.275 2.7.9.744 2.769 1.029 5.1.486 2.331-.543 3.198-1.524 3.471-2.352.876-2.7.504-3.948.804-4.458.3-.51-1.167-.597-1.167-.597z" fill="#37474F"/><path d="M120.179 33.996c1.2-.039 1.584.171 1.65.987.096 1.167.045 1.56-.402 1.626-.525.081-.9.117-.933-.216-.05-.25-.027-.51.066-.747.183-.228.117-.258-.405-.24-.522.018-.516.111-.357.27.114.117.108.516.111.747.003.231-.054.351-.807.3-.657-.054-.552-.582-.552-1.587 0-.687.279-1.095 1.629-1.14z" fill="#FFA8A7"/><path d="M121.31 34.164l-1.938.3a.95.95 0 00.365.659.953.953 0 00.727.193 1.027 1.027 0 00.846-1.152z" fill="#B16668"/><path d="M121.058 34.461a.901.901 0 01.237.018 1.015 1.015 0 01-.831.828.92.92 0 01-.315 0 .901.901 0 01.909-.846z" fill="#F28F8F"/><path d="M120.164 44.289s-.864-1.626-.867-2.265l1.032-1.077.336 2.661-.501.681z" fill="#459AE9"/><path opacity=".2" d="M120.164 44.289s-.864-1.626-.867-2.265l1.032-1.077.336 2.661-.501.681z" fill="#000"/><path d="M121.58 43.71l1.764-1.212 1.482.987-2.712 1.401-.534-1.176z" fill="#459AE9"/><path opacity=".2" d="M121.58 43.71l1.764-1.212 1.482.987-2.712 1.401-.534-1.176z" fill="#000"/><path d="M122.825 60.096c-.168-5.7-1.44-12.939-1.341-14.325l-.969-.09c-.663 1.665-2.142 10.905-2.073 14.841-.042 1.374 1.299 3.9 2.223 3.942.924.042 2.184-3.534 2.16-4.368z" fill="#459AE9"/><path opacity=".1" d="M122.825 60.096c-.168-5.7-1.44-12.939-1.341-14.325l-.969-.09c-.663 1.665-2.142 10.905-2.073 14.841-.042 1.374 1.299 3.9 2.223 3.942.924.042 2.184-3.534 2.16-4.368z" fill="#fff"/><path opacity=".5" d="M120.44 45.9c.03-.087.048-.144.075-.21l.969.09a4.323 4.323 0 000 .426 1.704 1.704 0 01-1.044-.306z" fill="#000"/><path d="M121.604 43.575a4.133 4.133 0 00-.915-.033 2.17 2.17 0 00-.525.747c.014.484.134.96.351 1.392a1.165 1.165 0 00.969.09 2.02 2.02 0 00.693-.936 1.84 1.84 0 00-.573-1.26z" fill="#459AE9"/><path opacity=".1" d="M121.604 43.575a4.133 4.133 0 00-.915-.033 2.17 2.17 0 00-.525.747c.014.484.134.96.351 1.392a1.165 1.165 0 00.969.09 2.02 2.02 0 00.693-.936 1.84 1.84 0 00-.573-1.26z" fill="#fff"/><path d="M121.586 43.572c.03 0 .072.072.102.078.672-.372.777-.495.957-.447.339.093 1.155 1.5 1.359 1.95.204.45.168.45.786.03a11.16 11.16 0 002.79-2.754 8.263 8.263 0 001.095-2.253s-.72-.972-.933-1.344c-.411-.72-.639-1.008-1.05-.942v.471c-.066.633-.717 1.242-1.59 2.013-.873.771-2.292 1.5-2.625 1.842a6.7 6.7 0 00-.891 1.356zm-3.186.573c.102.255.9-1.767 1.299-1.731.192.015.636.555 1.002 1.128h.276a6.124 6.124 0 01-.435-1.53c-.09-.684.159-2.727.159-2.727l-.06-.789-.354.015a3.144 3.144 0 00-.345.471c-.384.648-1.389 2.148-1.5 2.916a6.727 6.727 0 00-.042 2.247z" fill="#F5F5F5"/><path d="M124.436 55.422a7.604 7.604 0 01-1.17-1.659c-.405-.765-.552-1.281-.852-1.908l-.3-.6a.368.368 0 00-.093-.138.3.3 0 00-.351.015 1.224 1.224 0 00-.549 1.05c.014.413.08.824.195 1.221.057.264.315 1.239.315 1.239l2.805.78z" fill="#F28F8F"/><path d="M137 45.072c-.987-2.328-2.226-2.679-5.514-3.624-1.782 3.045-.453 8.961-.453 8.961l1.5 6.996s-5.133-.159-6.039-.576c-.906-.417-3.468-2.508-4.314-3.123-1.155-.834-1.641-.633-2.148-.486-1.659.49-2.013.684-2.34.963a.778.778 0 00-.237.705c-.444.117-1.119.198-1.104.948-.009.202.01.404.057.6a.49.49 0 00-.27.207c-.315.486.534 1.9.993 2.208.324.22.735.195 1.263.048.447-.126.171-.56.171-.56l.642-.052c1.515.79 1.854 2.592 3.735 2.766.766.037 1.528.12 2.283.252 4.107.777 8.142 3.165 11.679 2.982 3.453-.18 3.105-1.986 2.868-4.083-.195-1.872-1.641-12.474-2.772-15.132z" fill="#FFA8A7"/><path d="M132.398 56.7l.15.696c1.608.183 3.441 1.071 3.93 1.869-.474-1.299-1.245-2.205-4.08-2.565z" fill="#F28F8F"/><path d="M131.414 41.217c1.2.357 3.321.714 4.245 1.635.924.921 1.542 1.461 2.268 4.5.726 3.039 1.614 10.272 2.001 11.556.387 1.284.702 2.142 0 2.925-.867-2.319-3.321-4.299-7.377-4.437-.669 0-.513-.831-.75-1.602-.237-.771-1.119-5.319-1.5-6.831-.381-1.512-.936-6.141 1.113-7.746z" fill="#F0F0F0"/><path d="M132.062 57.06l-.096.3a9.47 9.47 0 013.738 2.064c1.587 1.518 1.947 2.763 2.028 3.558.081.795 0 1.27-.6 1.293l-.549.021s.114.3 1.152.216c.9-.072 1.77-.324 2.196-1.25a2.804 2.804 0 00.111-2.4c-.3-.835-1.095-2.308-3.561-3.328-2.025-.834-4.419-.474-4.419-.474z" fill="#E0E0E0"/><path d="M117.47 54.9l1.956-.687-1.953.387a.758.758 0 00-.003.3zm-1.047 1.533l2.277-.633-2.316.351c.003.095.016.19.039.282zm.447.978a.745.745 0 00.348.228 1.5 1.5 0 00.414.078l-.033-.018c.078.114.162.225.243.333l.042-.069a.47.47 0 00-.357.141.605.605 0 00-.159.33.758.758 0 01.201-.285.464.464 0 01.3-.099h.09l-.051-.075a9.558 9.558 0 00-.246-.333v-.018h-.021a2.032 2.032 0 01-.399-.054.886.886 0 01-.372-.159z" fill="#F28F8F"/><path d="M117.524 57.624c.284-.003.567-.022.849-.057 0 0 .039.162.348.405.161.11.328.21.501.3l-.642.051a1.042 1.042 0 00-.786-.3l-.27-.399z" fill="#F28F8F"/></svg>