<svg width="151" height="150" fill="none" xmlns="http://www.w3.org/2000/svg"><path d="M75.1 146.568c39.435 0 71.403-19.018 71.403-42.477 0-23.46-31.968-42.477-71.403-42.477S3.697 80.632 3.697 104.091c0 23.459 31.968 42.477 71.403 42.477z" fill="#F5F5F5"/><path d="M113.638 101.745l23.538-13.578c.93-.534.93-1.404 0-1.941l-33.966-19.65a3.715 3.715 0 00-3.366 0L76.3 80.154c-.93.537-.93 1.407 0 1.941l33.966 19.65a3.717 3.717 0 003.372 0zM53.737 134.88l-35.27-20.334c-.994-.573-.994-1.5 0-2.076l49.07-28.335a3.978 3.978 0 013.6 0l35.271 20.334c.993.573.993 1.5 0 2.076L57.334 134.88a3.972 3.972 0 01-3.597 0zm19.125-3.237l.033-.039 1.776-1.95v-.015a.17.17 0 01.033-.033l.018-.021c.255-.243.657-.264 1.11 0a3.074 3.074 0 011.392 2.4c0 .516-.21.852-.537.957h-.02l-.1.021h-.024l-2.57.561a.627.627 0 01-.45-.096 1.754 1.754 0 01-.796-1.377.665.665 0 01.135-.408z" fill="#E0E0E0"/><path d="M114.43 113.682L77 135.315l-5.185 1.056a.16.16 0 01-.159-.061.162.162 0 01-.012-.17l1.623-2.979 37.434-21.636c1.023-.591 4.53 1.695 3.729 2.157zm-21.3 17.67c.375 1.02 1.464 1.656 3.282 1.893l32.424-18.882 3.366-3.411a.261.261 0 00-.267-.432l-6.198 2.052-32.607 18.78z" fill="#E0E0E0"/><path d="M132.325 87.222l-20.877 11.79-32.06-18.4 20.873-11.79 32.064 18.4z" fill="#459AE9"/><path opacity=".6" d="M132.325 87.222l-20.877 11.79-32.06-18.4 20.873-11.79 32.064 18.4z" fill="#000"/><path d="M111.22 98.15l20.175-11.45c-.501-1.422-.465-1.854.105-3.747l-20.052 11.346s-.366-.04-.228 3.852z" fill="#F5F5F5"/><path d="M112.426 92.733a4.036 4.036 0 00-1.842 3.174V98.4c0 1.167.825 1.641 1.842 1.059l19.896-11.304v-.918l-19.644 11.1c-.6.348-1.107.066-1.104-.636l.015-2.208a2.444 2.444 0 011.11-1.905l19.62-11.1v-1.041l-19.893 11.286z" fill="#459AE9"/><path opacity=".5" d="M112.426 92.733a4.036 4.036 0 00-1.842 3.174V98.4c0 1.167.825 1.641 1.842 1.059l19.896-11.304v-.918l-19.644 11.1c-.6.348-1.107.066-1.104-.636l.015-2.208a2.444 2.444 0 011.11-1.905l19.62-11.1v-1.041l-19.893 11.286z" fill="#000"/><path d="M132.322 81.432l-32.061-18.399-19.893 11.301a4.045 4.045 0 00-1.845 3.174v2.481c0 .582.204.993.54 1.185l32.061 18.396c-.336-.192-.54-.6-.54-1.182v-2.484a4.058 4.058 0 011.842-3.174l19.896-11.298z" fill="#459AE9"/><path opacity=".35" d="M132.322 81.432l-32.061-18.399-19.893 11.301a4.045 4.045 0 00-1.845 3.174v2.481c0 .582.204.993.54 1.185l32.061 18.396c-.336-.192-.54-.6-.54-1.182v-2.484a4.058 4.058 0 011.842-3.174l19.896-11.298z" fill="#000"/><path d="M111.121 94.098a3.745 3.745 0 00-.54 1.8V98.4c0 .582.204.99.54 1.182L79.063 81.174c-.336-.192-.54-.6-.54-1.185v-2.481c.024-.636.21-1.256.54-1.8l32.058 18.39z" fill="#459AE9"/><path opacity=".45" d="M111.121 94.098a3.745 3.745 0 00-.54 1.8V98.4c0 .582.204.99.54 1.182L79.063 81.174c-.336-.192-.54-.6-.54-1.185v-2.481c.024-.636.21-1.256.54-1.8l32.058 18.39z" fill="#000"/><path d="M83.395 78.162c-.6 2.595-.6 3.6 0 5.511l1.524.882c-.6-1.902-.6-2.916 0-5.511l-1.524-.882zm21.027 12.084c-.6 2.595-.6 3.576 0 5.478l1.527.882c-.6-1.905-.6-2.886 0-5.478l-1.527-.882zm32.115-9.123l-20.877 11.79L83.6 74.514l20.873-11.79 32.064 18.399z" fill="#459AE9"/><path opacity=".4" d="M136.537 81.123l-20.877 11.79L83.6 74.514l20.873-11.79 32.064 18.399z" fill="#000"/><path d="M115.432 92.049l20.175-11.46c-.501-1.422-.465-2.058.102-3.951L115.66 87.981s-.36.177-.228 4.068z" fill="#F5F5F5"/><path d="M116.638 86.427a4.052 4.052 0 00-1.845 3.174v2.685c0 1.167.825 1.641 1.845 1.056l19.896-11.301v-.918l-19.644 11.1c-.6.351-1.107.066-1.107-.633l.018-2.4a2.43 2.43 0 011.107-1.905l19.623-11.1v-1.041l-19.893 11.283z" fill="#459AE9"/><path opacity=".25" d="M116.638 86.427a4.052 4.052 0 00-1.845 3.174v2.685c0 1.167.825 1.641 1.845 1.056l19.896-11.301v-.918l-19.644 11.1c-.6.351-1.107.066-1.107-.633l.018-2.4a2.43 2.43 0 011.107-1.905l19.623-11.1v-1.041l-19.893 11.283z" fill="#000"/><path d="M136.534 75.129L104.473 56.73 84.577 68.031a4.042 4.042 0 00-1.842 3.174v2.7c0 .582.204.99.54 1.182l32.061 18.399c-.336-.192-.54-.6-.54-1.185v-2.685a4.046 4.046 0 011.842-3.174l19.896-11.313z" fill="#459AE9"/><path d="M115.333 87.795a3.721 3.721 0 00-.54 1.8v2.685c0 .582.204.993.54 1.185L83.275 75.072c-.336-.192-.54-.6-.54-1.182v-2.7c.023-.636.21-1.256.54-1.8l32.058 18.405z" fill="#459AE9"/><path opacity=".15" d="M115.333 87.795a3.721 3.721 0 00-.54 1.8v2.685c0 .582.204.993.54 1.185L83.275 75.072c-.336-.192-.54-.6-.54-1.182v-2.7c.023-.636.21-1.256.54-1.8l32.058 18.405z" fill="#000"/><path d="M87.604 71.856c-.6 2.595-.6 3.816 0 5.718l1.527.882c-.6-1.905-.6-3.123 0-5.718l-1.527-.882zm21.03 12.099c-.6 2.595-.6 3.771 0 5.673l1.527.882c-.6-1.902-.6-3.087 0-5.682l-1.527-.873z" fill="#459AE9"/><path d="M87.604 71.856c-.6 2.595-.6 3.816 0 5.718l1.527.882c-.6-1.905-.6-3.123 0-5.718l-1.527-.882zm21.03 12.099c-.6 2.595-.6 3.771 0 5.673l1.527.882c-.6-1.902-.6-3.087 0-5.682l-1.527-.873z" opacity=".4" fill="#fff"/><path d="M23.65 113.523l32.427 18.423 47.034-27-32.424-18.423-47.037 27z" fill="#459AE9"/><path opacity=".4" d="M23.65 113.523l32.427 18.423 47.034-27-32.424-18.423-47.037 27z" fill="#000"/><path d="M56.32 131.025l-31.677-18.072c.537-1.521.495-2.202-.11-4.224l31.544 17.949s.39.189.243 4.347z" fill="#F5F5F5"/><path d="M55.03 125.016a4.325 4.325 0 011.971 3.39v2.868c0 1.251-.882 1.755-1.97 1.131l-31.378-17.901v-.981l31.11 17.673c.651.375 1.18.072 1.18-.678l-.019-2.577a2.6 2.6 0 00-1.182-2.034l-31.089-17.682v-1.11l31.377 17.901z" fill="#459AE9"/><path opacity=".3" d="M55.03 125.016a4.325 4.325 0 011.971 3.39v2.868c0 1.251-.882 1.755-1.97 1.131l-31.378-17.901v-.981l31.11 17.673c.651.375 1.18.072 1.18-.678l-.019-2.577a2.6 2.6 0 00-1.182-2.034l-31.089-17.682v-1.11l31.377 17.901z" fill="#000"/><path d="M23.653 107.115l47.034-27 31.377 17.901a4.32 4.32 0 011.971 3.39v2.868c0 .624-.219 1.062-.576 1.266l-47.037 27c.357-.204.576-.645.576-1.266V128.4a4.324 4.324 0 00-1.968-3.39l-31.377-17.895z" fill="#459AE9"/><path opacity=".2" d="M23.653 107.115l47.034-27 31.377 17.901a4.32 4.32 0 011.971 3.39v2.868c0 .624-.219 1.062-.576 1.266l-47.037 27c.357-.204.576-.645.576-1.266V128.4a4.324 4.324 0 00-1.968-3.39l-31.377-17.895z" fill="#000"/><path d="M56.425 126.477a3.98 3.98 0 01.576 1.929v2.871c0 .621-.219 1.062-.576 1.266l47.037-27c.357-.204.576-.642.576-1.266V101.4a4.01 4.01 0 00-.576-1.929l-47.037 27.006z" fill="#459AE9"/><path d="M56.425 126.477c.355.583.553 1.247.576 1.929v2.871c0 .621-.219 1.059-.576 1.266l47.034-27c.36-.204.576-.645.579-1.266V101.4a3.964 3.964 0 00-.576-1.929l-47.037 27.006z" fill="#459AE9"/><path d="M98.83 102.108c.64 2.772.63 4.074 0 6.108l-1.632.942c.63-2.034.64-3.336 0-6.108l1.632-.942zm-35.247 20.259c.64 2.772.63 4.035 0 6.069l-1.629.933c.627-2.034.636-3.3 0-6.066l1.63-.936z" fill="#459AE9"/><path d="M98.83 102.108c.639 2.772.63 4.074 0 6.108l-1.632.942c.63-2.034.639-3.336 0-6.108l1.632-.942zm-35.247 20.259c.64 2.772.63 4.035 0 6.069l-1.629.933c.627-2.034.636-3.3 0-6.066l1.63-.936z" opacity=".4" fill="#fff"/><path d="M19.495 107.292l32.427 18.423 47.034-27-32.424-18.423-47.037 27z" fill="#459AE9"/><path opacity=".2" d="M19.495 107.292l32.427 18.423 47.034-27-32.424-18.423-47.037 27z" fill="#fff"/><path d="M52.165 124.8L20.5 106.722c.537-1.521.495-1.983-.11-4.005l31.544 17.946s.366-.027.231 4.137z" fill="#F5F5F5"/><path d="M50.875 119.004a4.323 4.323 0 011.971 3.39v2.649c0 1.251-.882 1.755-1.971 1.131l-31.377-17.901v-.981l31.11 17.673c.651.375 1.179.072 1.179-.678l-.018-2.358a2.598 2.598 0 00-1.182-2.037l-31.089-17.679V101.1l31.377 17.904z" fill="#459AE9"/><path opacity=".4" d="M50.875 119.004a4.323 4.323 0 011.971 3.39v2.649c0 1.251-.882 1.755-1.971 1.131l-31.377-17.901v-.981l31.11 17.673c.651.375 1.179.072 1.179-.678l-.018-2.358a2.598 2.598 0 00-1.182-2.037l-31.089-17.679V101.1l31.377 17.904z" fill="#fff"/><path d="M19.495 101.1l47.037-27L97.9 92.004a4.324 4.324 0 011.98 3.396v2.649c0 .624-.219 1.062-.579 1.266L52.267 126.3c.357-.207.576-.645.576-1.266V122.4a4.325 4.325 0 00-1.968-3.393L19.495 101.1z" fill="#459AE9"/><path opacity=".85" d="M19.495 101.1l47.037-27L97.9 92.004a4.324 4.324 0 011.98 3.396v2.649c0 .624-.219 1.062-.579 1.266L52.267 126.3c.357-.207.576-.645.576-1.266V122.4a4.325 4.325 0 00-1.968-3.393L19.495 101.1z" fill="#fff"/><path d="M52.27 120.465c.355.583.553 1.247.576 1.929v2.652c0 .621-.219 1.059-.576 1.266l47.034-27c.36-.204.579-.642.579-1.266V95.4a3.975 3.975 0 00-.579-1.93L52.27 120.466z" fill="#459AE9"/><path opacity=".6" d="M52.27 120.465c.355.583.553 1.247.576 1.929v2.652c0 .621-.219 1.059-.576 1.266l47.034-27c.36-.204.579-.642.579-1.266V95.4a3.975 3.975 0 00-.579-1.93L52.27 120.466z" fill="#fff"/><path d="M94.675 96.096c.64 2.772.63 3.855 0 5.889l-1.632.942c.63-2.034.64-3.117 0-5.892l1.632-.94zm-35.247 20.25c.64 2.772.63 3.822 0 5.856l-1.632.939c.63-2.031.64-3.081 0-5.853l1.632-.942z" fill="#fff"/><path d="M110.83 109.377a3.077 3.077 0 001.392 2.4c.235.155.52.216.798.168a.694.694 0 01-.15.12l.333-.192h.021l.048-.033a.53.53 0 00.063-.054l.036-.036.033-.039a.852.852 0 00.138-.276.062.062 0 000-.033 1.361 1.361 0 00.054-.408 3.072 3.072 0 00-1.389-2.4 1.236 1.236 0 00-.624-.192h-.087l-.081.015h-.075l-.057.024-.054.027-.3.165a.672.672 0 01.15-.054 1.11 1.11 0 00-.249.798z" fill="#459AE9"/><path d="M74.87 129.48l1.958 3.42.333-.192 35.7-20.625a.694.694 0 00.15-.12c.184-.217.276-.496.258-.78a3.077 3.077 0 00-1.392-2.4 1.265 1.265 0 00-.621-.189.672.672 0 00-.327.072h-.024L74.869 129.48z" fill="#F0F0F0"/><path d="M75.85 129.579c-.768-.444-1.39-.084-1.39.801a3.075 3.075 0 001.39 2.4c.768.444 1.392.084 1.392-.804a3.072 3.072 0 00-1.392-2.397z" fill="#459AE9"/><path d="M95.59 118.983l.045-.027a.366.366 0 01.324.048 1.095 1.095 0 01.495.855.366.366 0 01-.117.3l-.06.036-21.132 12.198-1.389-.804 21.834-12.606z" fill="#455A64"/><path d="M77.116 131.253l-1.962 1.134-1.389-.804 2.658-1.533c.312.348.549.758.693 1.203z" fill="#37474F"/><path d="M72.163 132.57l1.611-1.77.042-.048a.632.632 0 01.795 0 2.18 2.18 0 01.981 1.701.647.647 0 01-.375.678l-.063.015-2.361.513a.37.37 0 01-.255-.054.99.99 0 01-.447-.777.354.354 0 01.072-.258z" fill="#459AE9"/><path opacity=".1" d="M72.163 132.57l1.611-1.77.042-.048a.632.632 0 01.795 0 2.18 2.18 0 01.981 1.701.647.647 0 01-.375.678l-.063.015-2.361.513a.37.37 0 01-.255-.054.99.99 0 01-.447-.777.354.354 0 01.072-.258z" fill="#000"/><path d="M72.073 132.828a.99.99 0 00.45.774.36.36 0 00.252.054l1.2-.258c.186-.042.3-.219.3-.501a1.58 1.58 0 00-.714-1.242.466.466 0 00-.573 0l-.033.036-.798.876a.342.342 0 00-.084.261z" fill="#459AE9"/><path opacity=".1" d="M72.52 132.567c-.246-.141-.447-.027-.447.258a.997.997 0 00.447.777c.249.141.447.027.447-.258a.989.989 0 00-.447-.777z" fill="#000"/><path d="M107.935 111.846a.335.335 0 01.348.033 1.082 1.082 0 01.492.852.342.342 0 01-.147.321l-12.282 7.101a.372.372 0 00.117-.3 1.095 1.095 0 00-.495-.855.37.37 0 00-.324-.048l12.291-7.104z" fill="#FAFAFA"/><path d="M107.8 112.164a1.103 1.103 0 00.492.852.33.33 0 00.168.063.336.336 0 00.177-.03.335.335 0 00.147-.318 1.077 1.077 0 00-.492-.852.3.3 0 00-.492.285z" fill="#F5F5F5"/><path d="M108.892 110.058h.039l2.052-1.2.048-.027a.902.902 0 01.846.105c.365.237.668.558.885.935.218.377.343.799.366 1.234a.877.877 0 01-.369.81l-2.076 1.2a.896.896 0 01-.867-.096 2.766 2.766 0 01-1.251-2.169.894.894 0 01.327-.792z" fill="#459AE9"/><path opacity=".05" d="M108.892 110.058h.039l2.052-1.2.048-.027a.902.902 0 01.846.105c.365.237.668.558.885.935.218.377.343.799.366 1.234a.877.877 0 01-.369.81l-2.076 1.2a.896.896 0 01-.867-.096 2.766 2.766 0 01-1.251-2.169.894.894 0 01.327-.792z" fill="#000"/><path opacity=".1" d="M109.801 110.13c-.69-.399-1.251-.078-1.251.72a2.77 2.77 0 001.251 2.169c.69.399 1.251.075 1.251-.723a2.766 2.766 0 00-1.251-2.166z" fill="#000"/><path d="M71.5 133.317l.849-.51a.16.16 0 01.165 0 .516.516 0 01.231.399.16.16 0 01-.069.147l-.846.513a.327.327 0 01-.156.039.324.324 0 01-.174-.6v.012z" fill="#455A64"/><path d="M71.455 133.356l.045-.036a.165.165 0 01.147.024.516.516 0 01.231.399.156.156 0 01-.066.144h-.033a.325.325 0 01-.432-.309.301.301 0 01.108-.222z" fill="#263238"/><path d="M125.977 110.268l5.523-1.068a.18.18 0 01.105.011.173.173 0 01.1.175.175.175 0 01-.043.096L127.9 113.7l-1.923-3.432z" fill="#FFA8A7"/><path d="M131.653 109.467a.17.17 0 00.007-.181.172.172 0 00-.16-.086l-1.077.213a.938.938 0 01.444.879v.096l.786-.921z" fill="#263238"/><path d="M100.807 129.225l.45-.258.546-.3L127.9 113.7a2.502 2.502 0 00-.153-1.83c-.39-.876-1.149-1.566-1.779-1.608l-26.1 14.946-1.04.6c.71-.345 2.672 3.057 1.979 3.417z" fill="#455A64"/><path d="M102.526 128.244l1.008-.579c.3-.159.126-.9-.222-1.644-.459-1.002-1.365-1.974-1.758-1.767l-.744.426-.261.159c.393-.21 1.299.762 1.758 1.767.333.723.501 1.428.249 1.617a.057.057 0 01-.013.014.05.05 0 01-.017.007z" fill="#EBEBEB"/><path d="M102.778 128.1c.69-.366-1.29-3.774-1.98-3.408l-1.008.579c.69-.366 2.67 3.042 1.977 3.408l1.011-.579z" fill="#459AE9"/><path d="M100.807 129.225l.996-.57c.681-.354-1.2-3.66-1.92-3.441l-.042.015-.999.582c.696-.348 2.658 3.054 1.965 3.414z" fill="#EBEBEB"/><path opacity=".15" d="M131.677 109.281l-.177-.081-4.002 2.19-27.231 15.6c-.039-.06-.072-.066-.096-.024.6.918 1.032 2.073.645 2.274l.45-.258.546-.3L127.9 113.7l3.741-4.236a.17.17 0 00.036-.183z" fill="#000"/><path d="M96.58 131.643l4.227-2.418c.3-.153.132-.876-.21-1.629-.456-1.005-1.359-1.986-1.755-1.785l-4.242 2.43c-.843.486-.069 2.316.87 3.132.348.309.738.444 1.11.27z" fill="#F28F8F"/><path opacity=".1" d="M96.832 130.332c-.243-.951-1.014-1.887-1.725-2.085a.686.686 0 00-.633.084c-.636.6.105 2.268.993 3.042a1.014 1.014 0 001.089.279c.318-.186.444-.672.276-1.32z" fill="#000"/><path d="M78.892 28.407l4.545-2.376s2.883.738 7.701.453c7.125-.423 11.283-3.432 10.224-7.656-1.086-4.329-5.85-6.03-14.343-5.7-10.623.414-13.2 7.617-6.858 11.874l-1.269 3.405z" fill="#459AE9"/><path opacity=".7" d="M78.892 28.407l4.545-2.376s2.883.738 7.701.453c7.125-.423 11.283-3.432 10.224-7.656-1.086-4.329-5.85-6.03-14.343-5.7-10.623.414-13.2 7.617-6.858 11.874l-1.269 3.405z" fill="#fff"/><path d="M83.764 21.096a1.134 1.134 0 100-2.268 1.134 1.134 0 000 2.268zm5.328 0a1.134 1.134 0 100-2.268 1.134 1.134 0 000 2.268zm5.328 0a1.134 1.134 0 100-2.268 1.134 1.134 0 000 2.268z" fill="#fff"/><path d="M21.781 96.984c0 .774.582 1.272 1.299 1.686l29.355 16.95a2.868 2.868 0 002.595 0l47.37-27.342c.717-.414 1.299-.948 1.299-1.722s-.582-1.257-1.296-1.671L73.03 67.938a2.859 2.859 0 00-2.592 0L23.08 95.28c-.717.42-1.299.927-1.299 1.704z" fill="#37474F"/><path d="M23.08 96.777l29.355 16.947a2.868 2.868 0 002.595 0l47.37-27.342c.714-.411.714-1.083 0-1.5L73.03 67.938a2.859 2.859 0 00-2.592 0L23.08 95.28c-.717.42-.717 1.083 0 1.497z" fill="#455A64"/><path d="M53.734 114.039v1.89a2.654 2.654 0 01-1.299-.3L23.08 98.67c-.717-.414-1.299-.9-1.299-1.686 0-.729.522-1.236 1.2-1.647-.558.393-.567 1.053.102 1.44l29.355 16.95c.398.213.844.32 1.296.312z" fill="#263238"/><path d="M21.22 95.48c-.57-.263-.723-.713-.78-1.5l-2.544-37.23a2.58 2.58 0 011.2-2.19l47.358-27.353c.714-.414 1.239-.64 1.902-.186.663.453.675.702.729 1.5l2.544 37.233a2.577 2.577 0 01-1.2 2.19L23.074 95.283c-.717.417-1.122.534-1.854.198z" fill="#37474F"/><path d="M69.1 28.518c-.054-.795-.678-1.104-1.395-.693L20.332 55.17a2.45 2.45 0 00-.9.951l-1.224-.621a2.5 2.5 0 01.9-.951l47.343-27.342c.717-.414 1.245-.642 1.905-.186.66.456.675.702.744 1.497z" fill="#455A64"/><path d="M22.978 95.337c-.654.384-1.065.432-1.758.141-.53-.222-.723-.711-.777-1.5l-2.547-37.239a2.3 2.3 0 01.3-1.236l1.236.615a2.345 2.345 0 00-.3 1.236L21.68 94.59c.048.738.687 1.11 1.3.747z" fill="#263238"/><path d="M21.154 56.592L66.73 30.3c.43-.249.804-.063.837.414l2.373 34.734a1.548 1.548 0 01-.717 1.314L23.647 93.054c-.429.249-.804.063-.837-.414L20.434 57.9a1.557 1.557 0 01.72-1.308z" fill="#000"/><path d="M21.154 56.592a1.557 1.557 0 00-.72 1.314l2.337 34.155 45.054-26.004a1.548 1.548 0 00.717-1.314L66.208 30.6 21.154 56.592z" fill="#459AE9"/><path opacity=".8" d="M21.154 56.592a1.557 1.557 0 00-.72 1.314l2.337 34.155 45.054-26.004a1.548 1.548 0 00.717-1.314L66.208 30.6 21.154 56.592z" fill="#fff"/><path d="M27.1 95.499l43.5-25.125a1.353 1.353 0 011.224 0l1.587.9a.375.375 0 010 .708l-43.524 25.11a1.353 1.353 0 01-1.224 0l-1.578-.9a.372.372 0 01.015-.693zm4.257 2.52l43.521-25.12a1.241 1.241 0 011.116-.06l11.328 6.54c.279.163.234.45-.105.646l-43.47 25.092a1.256 1.256 0 01-1.116.063l-11.376-6.51c-.282-.168-.234-.456.102-.651z" fill="#263238"/><path d="M69.07 83.448l1.362-.786c.057-.036.063-.087 0-.117l-1.305-.75a.218.218 0 00-.198 0l-1.362.786c-.057.033-.063.084 0 .114l1.305.753a.22.22 0 00.198 0zm-1.992-2.724l-1.362.789c-.057.033-.063.084 0 .114L67 82.38a.213.213 0 00.198 0l1.362-.786c.057-.033.063-.084 0-.114l-1.305-.753a.219.219 0 00-.177-.003zm-4.4 2.544L60.37 84.6c-.057.036-.063.087 0 .117l1.305.75a.22.22 0 00.198 0l2.307-1.332c.057-.033.063-.084 0-.114l-1.302-.753a.23.23 0 00-.2 0zm2.4-1.392l-1.366.786c-.057.033-.063.084 0 .114l1.305.753a.22.22 0 00.198 0l1.362-.789c.057-.033.063-.084 0-.114l-1.305-.753a.225.225 0 00-.183.003h-.012zm-5.335 3.084l-1.365.789c-.057.033-.063.084 0 .114l1.302.753a.213.213 0 00.198 0l1.362-.786c.06-.033.063-.084 0-.114l-1.302-.753a.218.218 0 00-.195-.003zm-1.992 1.14l-1.362.786c-.06.033-.063.084 0 .114l1.302.753a.22.22 0 00.198 0l1.362-.789c.06-.033.063-.084 0-.114l-1.302-.75a.218.218 0 00-.198 0zm5.1 3.069l1.362-.786c.06-.033.063-.084 0-.114l-1.302-.753a.218.218 0 00-.198 0l-1.365.789c-.057.033-.063.084 0 .114l1.302.753a.213.213 0 00.21.009l-.009-.012zm-1.992 1.152l1.362-.789c.06-.033.063-.084 0-.114l-1.302-.75a.218.218 0 00-.198 0l-1.362.786c-.06.033-.063.084 0 .114l1.302.753a.22.22 0 00.207.012l-.009-.012zm-1.992 1.149l1.365-.786c.057-.033.063-.084 0-.114l-1.302-.753a.218.218 0 00-.198 0l-1.332.804c-.06.033-.063.084 0 .114l1.302.753a.22.22 0 00.174-.006l-.009-.012zm-1.989 1.149l1.362-.786c.057-.033.063-.084 0-.114l-1.305-.753a.218.218 0 00-.198 0l-1.362.789c-.057.033-.063.084 0 .114l1.305.75a.22.22 0 00.207.012l-.009-.012zm10.2-8.034l1.362-.786c.057-.033.063-.084 0-.114l-1.305-.753a.218.218 0 00-.198 0l-1.362.786c-.057.033-.063.087 0 .114l1.305.768a.22.22 0 00.198 0v-.015zm-2.226 3.435l3.048-1.743c.057-.033.063-.084 0-.114l-3.165-1.827a.218.218 0 00-.198 0l-1.572.9c-.06.033-.063.084 0 .114l1.674.966c.054.03.048.081 0 .114l-1.26.726c-.057.036-.063.087 0 .117l1.305.75a.218.218 0 00.168.009v-.012zm-9.093-.771l-1.359.798c-.06.033-.063.084 0 .114l1.302.753a.22.22 0 00.198 0l1.365-.786c.057-.033.063-.084 0-.114l-1.302-.753a.219.219 0 00-.204 0v-.012zm-1.992 1.149l-1.362.786c-.057.036-.063.087 0 .117l1.305.75a.22.22 0 00.198 0l1.362-.786c.057-.033.063-.084 0-.114l-1.305-.753a.218.218 0 00-.198.012v-.012zm-11.019 12.276a.213.213 0 00.198 0l1.362-.786c.057-.033.063-.084 0-.114l-1.305-.753a.218.218 0 00-.198 0l-1.362.786c-.057.036-.063.087 0 .114l1.305.753zm-4.914-3.078l-1.362.804c-.057.033-.063.084 0 .114l1.305.753a.232.232 0 00.198 0l1.362-.786c.057-.033.063-.084 0-.114l-1.305-.753a.219.219 0 00-.198-.006v-.012zm2.526 2.307a.22.22 0 00.198 0l1.362-.789c.06-.033.063-.084 0-.114l-1.302-.753a.213.213 0 00-.198 0l-1.362.786c-.06.033-.063.084 0 .114l1.302.756zm5.496 1.236l1.362-.786c.057-.036.063-.087 0-.117l-1.305-.75a.218.218 0 00-.198 0l-1.362.786c-.057.033-.063.084 0 .114l1.305.753a.217.217 0 00.198.012v-.012zm-2.19 1.155a.213.213 0 00.198 0l1.362-.786c.057-.033.063-.084 0-.114l-1.302-.753a.214.214 0 00-.198 0l-1.365.786c-.057.033-.063.084 0 .114l1.305.753zm-3.84-5.847l-1.362.786c-.057.036-.063.087 0 .114l1.305.753a.22.22 0 00.198 0l1.362-.786c.057-.033.063-.084 0-.114l-1.305-.753a.218.218 0 00-.198.012v-.012zm9.957-5.748l-1.362.801c-.057.033-.063.084 0 .114l1.305.753a.22.22 0 00.198 0l1.362-.786c.057-.036.063-.087 0-.117l-1.305-.75a.218.218 0 00-.198-.003v-.012zm-7.965 4.611l-1.362.786c-.057.033-.063.084 0 .114l1.305.753a.22.22 0 00.198 0l1.362-.786c.057-.036.063-.087 0-.117l-1.305-.75a.218.218 0 00-.198 0zm9.957-5.748l-1.362.786c-.057.033-.063.084 0 .114l1.305.753a.213.213 0 00.198 0l1.362-.786c.057-.033.063-.084 0-.114l-1.305-.753a.213.213 0 00-.198 0zM47.8 91.86l-1.365.786c-.057.033-.063.084 0 .114l1.302.753a.22.22 0 00.198 0l1.362-.786c.06-.033.063-.084 0-.114l-1.302-.753a.219.219 0 00-.195 0zM45.802 93l-1.362.789c-.06.033-.063.084 0 .114l1.302.753a.232.232 0 00.198 0l1.362-.786c.06-.033.063-.084 0-.114L46 93a.218.218 0 00-.198 0zm-1.992 1.152l-1.362.786c-.06.033-.063.084 0 .114l1.302.753a.22.22 0 00.198 0l1.365-.789c.057-.033.063-.084 0-.114l-1.302-.753a.212.212 0 00-.2.012v-.009zm9.09.78l1.362-.786c.057-.036.063-.087 0-.117l-1.305-.75a.218.218 0 00-.198 0l-1.359.792c-.057.033-.063.084 0 .114l1.305.753a.22.22 0 00.195-.006zm18.58-16.749l-1.363.786c-.06.036-.063.087 0 .117l1.302.75a.22.22 0 00.198 0l1.362-.786c.06-.033.063-.084 0-.114l-1.302-.753a.219.219 0 00-.195 0h-.003zm-2.4 1.392l-1.363.786c-.057.036-.063.087 0 .114l1.305.753a.22.22 0 00.198 0l1.362-.786c.057-.033.063-.084 0-.114l-1.305-.753a.219.219 0 00-.207 0h.01zm4.403-2.541l-1.383.786c-.057.033-.063.084 0 .114l1.302.753a.22.22 0 00.198 0l1.362-.786c.06-.033.063-.087 0-.114l-1.302-.753a.218.218 0 00-.186 0h.01zm-11.01 10.227l1.365-.789c.057-.033.063-.084 0-.114l-1.305-.753a.231.231 0 00-.198 0l-1.359.795c-.057.033-.063.084 0 .114l1.302.753a.22.22 0 00.186-.006h.01zm13.2-11.4a.231.231 0 00-.198 0l-1.362.786c-.057.033-.063.084 0 .114l1.305.753a.22.22 0 00.198 0l1.362-.789c.057-.033.063-.084 0-.114l-1.305-.75zM54.895 93.78l1.362-.786c.057-.033.063-.084 0-.114l-1.305-.753a.213.213 0 00-.198 0l-1.362.786c-.057.033-.063.084 0 .114l1.305.753a.213.213 0 00.198 0zm24.42-14.1l1.365-.78c.057-.033.063-.084 0-.114l-1.305-.753a.213.213 0 00-.198 0l-1.362.786c-.057.033-.063.084 0 .114l1.302.753a.211.211 0 00.198-.006zm-3.852.075l1.362-.786c.057-.033.063-.084 0-.114l-1.305-.753a.218.218 0 00-.198 0l-1.35.798c-.057.033-.063.084 0 .114l1.305.753a.232.232 0 00.186-.012zm2.061-2.802a.218.218 0 00-.198 0l-1.362.786c-.057.033-.063.087 0 .114l1.305.753a.22.22 0 00.198 0l1.362-.786c.057-.033.063-.084 0-.114l-1.305-.753zm.42-.243l3.156 1.827a.22.22 0 00.198 0l1.362-.786c.06-.033.063-.084 0-.114l-3.165-1.827a.218.218 0 00-.198 0l-1.362.786c-.036.033-.042.084.01.114zm-4.599 2.55l-1.365.786c-.057.033-.063.084 0 .114l1.305.753a.22.22 0 00.198 0l1.362-.789c.057-.033.063-.084 0-.114l-1.302-.753a.208.208 0 00-.198.003zm-15 8.652l-1.362.786c-.057.036-.063.087 0 .117l1.305.75a.22.22 0 00.198 0l1.362-.786c.057-.033.063-.084 0-.114l-1.296-.765a.218.218 0 00-.198 0l-.009.012zm18.774-7.074a.22.22 0 00.198 0l1.362-.789c.057-.033.063-.084 0-.114l-1.305-.753a.231.231 0 00-.198 0l-1.362.786c-.057.033-.063.084 0 .114l1.305.756zm-16.782 5.925l-1.362.786c-.057.033-.063.084 0 .114l1.305.753a.22.22 0 00.198 0l1.362-.786c.057-.033.063-.087 0-.114l-1.305-.753a.218.218 0 00-.189 0h-.009zm-15.6 12.774a.22.22 0 00.198 0l1.362-.786c.057-.036.063-.087 0-.117l-1.305-.75a.218.218 0 00-.198 0l-1.362.786c-.057.033-.063.084 0 .114l1.305.753zm-2.316-2.427l-1.365.789c-.057.033-.063.084 0 .114l1.302.753a.232.232 0 00.198 0l1.362-.786c.06-.033.063-.084 0-.114l-1.302-.753a.218.218 0 00-.192-.003h-.003zm4.5 1.272l1.365-.789c.057-.033.063-.084 0-.114l-1.302-.753a.213.213 0 00-.198 0l-1.362.786c-.06.033-.063.084 0 .114l1.302.753a.219.219 0 00.201.003h-.006zm1.992-1.152l1.362-.786c.06-.033.063-.084 0-.114L49 95.577a.218.218 0 00-.198 0l-1.362.789c-.06.033-.063.084 0 .114l1.302.753a.232.232 0 00.177-.003h-.006zm1.992-1.149l1.362-.786c.06-.033.063-.084 0-.114l-1.302-.753a.218.218 0 00-.198 0l-1.365.786c-.057.033-.063.087 0 .114l1.302.753a.22.22 0 00.207 0h-.006zm-6.498-.12l-1.362.786c-.057.033-.063.084 0 .114l1.305.753a.22.22 0 00.198 0l1.362-.786c.057-.033.063-.084 0-.114l-1.305-.753a.219.219 0 00-.192 0h-.006zm1.992-1.149l-1.362.786c-.057.033-.063.084 0 .114l1.305.753a.22.22 0 00.198 0l1.362-.789c.057-.033.063-.084 0-.114L46.6 94.8a.219.219 0 00-.195 0l-.006.012zm7.968-4.599l-1.365.786c-.057.033-.063.084 0 .114l1.302.753a.22.22 0 00.198 0l1.362-.789c.06-.033.063-.084 0-.114l-1.302-.753a.231.231 0 00-.189.003h-.006zm-1.992 1.149l-1.362.786c-.06.033-.063.084 0 .114l1.302.753a.22.22 0 00.198 0l1.362-.786c.06-.033.063-.084 0-.114l-1.302-.753a.219.219 0 00-.192 0h-.006zm3.981-2.301L55 89.85c-.057.033-.063.084 0 .114l1.305.753a.213.213 0 00.198 0l1.362-.786c.057-.033.063-.084 0-.114l-1.305-.753a.218.218 0 00-.198-.003h-.006zM48.4 93.663l-1.362.786c-.057.033-.063.084 0 .114l1.305.753a.213.213 0 00.198 0l1.362-.786c.057-.033.063-.084 0-.114l-1.305-.753a.213.213 0 00-.198 0zm1.992-1.152l-1.365.789c-.06.036-.063.087 0 .117l1.302.75a.22.22 0 00.198 0l1.365-.786c.057-.033.063-.084 0-.114l-1.305-.753a.218.218 0 00-.198-.003h.003zm-2.54 7.5l1.361-.786c.057-.033.063-.084 0-.114l-1.305-.753a.213.213 0 00-.198 0l-1.362.786c-.057.033-.063.084 0 .114l1.305.753a.21.21 0 00.195-.012l.003.012zm-10.5-.495l-1.303-.753a.231.231 0 00-.198 0l-1.365.786c-.057.033-.063.084 0 .114l1.302.753a.213.213 0 00.198 0l1.362-.789a.07.07 0 00-.003-.123l.006.012zm2.594.651l-1.302-.75a.218.218 0 00-.198 0l-2.1 1.2c-.057.033-.063.084 0 .114l1.305.753a.213.213 0 00.198 0l2.1-1.2c.051-.048.051-.084-.009-.129l.006.012zm-4.539-2.136l-1.305-.753a.218.218 0 00-.198 0l-1.677.969c-.057.033-.063.084 0 .114l1.305.753a.22.22 0 00.198 0l1.677-.969c.04-.045.045-.096-.006-.126l.006.012zm1.284-.744a.22.22 0 00.198 0l1.362-.786c.06-.033.063-.084 0-.114l-1.302-.753a.218.218 0 00-.198 0l-1.362.786c-.06.036-.066.087 0 .114l1.302.753zm5.643 3.654l-1.305-.753a.214.214 0 00-.198 0l-2.63 1.512c-.058.033-.064.084 0 .114l1.304.753a.213.213 0 00.198 0l2.62-1.5c.05-.057.056-.108.005-.138l.006.012zm.918 1.62l-1.302-.753a.214.214 0 00-.198 0l-1.677.969c-.06.033-.063.084 0 .114l1.302.753a.213.213 0 00.198 0l1.677-.969c.048-.045.048-.096-.006-.126l.006.012zM51.5 88.74a.22.22 0 00.198 0l1.362-.789c.057-.033.063-.084 0-.114l-1.305-.753a.213.213 0 00-.198 0l-1.356.777c-.057.033-.063.084 0 .114l1.3.765zm-4 2.286a.22.22 0 00.198 0l1.362-.786c.06-.033.063-.084 0-.114l-1.302-.753a.218.218 0 00-.198 0l-1.362.786c-.06.033-.066.084 0 .114l1.302.753zm-8.832 5.1a.22.22 0 00.198 0l1.362-.786c.057-.036.063-.087 0-.114l-1.302-.753a.218.218 0 00-.198 0l-1.365.786c-.057.033-.063.084 0 .114l1.305.753zm10.824-6.249a.22.22 0 00.198 0l1.362-.786c.057-.036.063-.087 0-.117l-1.302-.75a.218.218 0 00-.198 0l-1.365.786c-.057.033-.063.084 0 .114l1.305.753zm-3.984 2.301a.232.232 0 00.198 0l1.362-.786c.06-.033.066-.084 0-.114l-1.302-.753a.218.218 0 00-.198 0l-1.362.789c-.06.033-.063.084 0 .114l1.302.75zm-1.293 10.452a.214.214 0 00-.198 0l-2.1 1.2c-.057.036-.063.087 0 .117l1.302.75a.213.213 0 00.198 0l2.1-1.2c.057-.033.063-.084 0-.114l-1.302-.753zm-1.563-8.802a.232.232 0 00.198 0l1.362-.786c.057-.033.063-.084 0-.114l-1.305-.753a.218.218 0 00-.198 0l-1.362.789c-.057.033-.063.084 0 .114l1.305.75zm-1.992 1.149a.22.22 0 00.198 0l1.362-.789c.057-.033.063-.084 0-.114l-1.305-.753a.221.221 0 00-.198 0l-1.362.786c-.057.033-.063.084 0 .114l1.305.756zm40.452-13.65a.213.213 0 00-.198 0l-3.354 1.935c-.06.033-.063.084 0 .114l1.302.753a.22.22 0 00.198 0l3.351-1.929c.06-.033.063-.084 0-.114l-1.299-.759zm-4.404 2.544a.218.218 0 00-.198 0l-1.362.786c-.057.033-.063.084 0 .114l1.305.753a.22.22 0 00.198 0l1.362-.789c.057-.033.063-.084 0-.114l-1.305-.75zM49.828 98.85l1.365-.786c.057-.033.063-.084 0-.114L49.9 97.2a.218.218 0 00-.198 0l-1.362.789c-.057.033-.063.084 0 .114l1.305.75a.214.214 0 00.192-.003h-.009zm22.9-12.681a.218.218 0 00-.199 0l-1.365.789c-.057.033-.063.084 0 .114l1.302.753a.232.232 0 00.198 0l1.362-.786c.06-.033.063-.084 0-.114l-1.299-.756zm10.376-6a.218.218 0 00-.198 0l-1.365.789c-.057.033-.063.084 0 .114l1.305.75a.22.22 0 00.198 0l1.362-.786c.057-.033.063-.084 0-.114l-1.302-.753zm3.3-.396l-3.165-1.83a.21.21 0 00-.198 0l-1.365.786c-.057.033-.063.084 0 .114l3.16 1.857a.22.22 0 00.197 0l1.362-.786c.057-.051.063-.114.012-.132l-.003-.009zM65.29 90.456a.213.213 0 00-.198 0l-1.677.966c-.057.033-.063.084 0 .114l1.305.753a.22.22 0 00.198 0l1.677-.969c.057-.033.063-.084 0-.114l-1.305-.75zm5.031-2.904a.218.218 0 00-.198 0l-2.1 1.2c-.057.033-.063.084 0 .114l1.305.753a.213.213 0 00.198 0l2.1-1.2c.057-.033.063-.084 0-.114l-1.305-.753zM60.68 93.12a.218.218 0 00-.198 0L49.267 99.6c-.057.036-.063.087 0 .117l1.305.75a.213.213 0 00.198 0l11.214-6.474c.06-.033.063-.084 0-.114l-1.305-.759zm-11.844 6.837a.218.218 0 00-.198 0l-1.677.969c-.06.033-.066.084 0 .114l1.302.753a.213.213 0 00.198 0l1.677-.969c.057-.033.063-.084 0-.114l-1.302-.753zm14.15-8.157a.218.218 0 00-.198 0l-1.677.969c-.057.033-.063.084 0 .114l1.305.753a.22.22 0 00.198 0l1.677-.969c.057-.033.063-.084 0-.114l-1.305-.753zm-16.455 9.501a.214.214 0 00-.198 0l-1.677.969c-.057.033-.063.084 0 .114l1.305.753a.213.213 0 00.198 0l1.677-.969c.057-.033.063-.084 0-.114l-1.305-.753zm21.07-12.168a.231.231 0 00-.199 0l-1.677.966c-.06.036-.063.087 0 .117l1.302.75a.22.22 0 00.198 0L68.89 90c.06-.033.063-.084 0-.114l-1.29-.753zm7.124-4.113a.218.218 0 00-.198 0l-1.362.78c-.057.033-.063.084 0 .114l1.305.753a.22.22 0 00.198 0l1.362-.786c.057-.033.063-.084 0-.114l-1.305-.747zm4.461-3.12l1.365-.786c.057-.033.063-.084 0-.114l-1.302-.753a.218.218 0 00-.198 0l-1.362.786c-.06.036-.063.087 0 .114L79 81.9a.22.22 0 00.186 0zm-8.127.393l1.365-.789c.057-.033.063-.084 0-.114l-1.305-.753a.213.213 0 00-.198 0l-1.362.786c-.06.033-.063.084 0 .114l1.302.753a.219.219 0 00.198.009v-.006zm-5.289 7.359l3.984-2.298c.057-.036.063-.087 0-.117l-1.305-.75a.218.218 0 00-.198 0L64.282 88.8c-.06.036-.063.087 0 .114l1.302.753a.22.22 0 00.186-.015zm11.23-6.6a.213.213 0 00.194 0l1.365-.786c.057-.033.063-.084 0-.114l-1.305-.753a.218.218 0 00-.198 0L75.7 82.2c-.057.033-.063.084 0 .114l1.3.738zm-1.666-1.083l1.362-.786c.057-.033.063-.084 0-.114l-1.296-.741a.218.218 0 00-.198 0l-1.362.786c-.057.033-.063.084 0 .114l1.305.753a.22.22 0 00.19 0v-.012zm-11.556 8.82l1.365-.786c.057-.033.063-.084 0-.114l-1.302-.753a.218.218 0 00-.198 0l-1.362.789c-.06.033-.063.084 0 .114l1.302.753a.211.211 0 00.195.009v-.012zm8.817-5.196a.22.22 0 00.198 0l1.362-.789c.06-.033.063-.084 0-.114l-1.302-.753a.21.21 0 00-.198 0l-1.365.786c-.057.033-.063.084 0 .114l1.305.756zM53.821 96.54l1.362-.789c.06-.033.063-.084 0-.114l-1.302-.753a.231.231 0 00-.198 0l-1.35.816c-.06.033-.063.084 0 .114l1.302.753a.22.22 0 00.186-.015v-.012zm1.992-1.152l1.362-.786c.06-.033.063-.084 0-.114l-1.275-.741a.218.218 0 00-.198 0l-1.365.789c-.057.033-.063.084 0 .114l1.305.753a.214.214 0 00.171-.003v-.012zm-3.984 2.301l1.365-.786c.057-.033.063-.084 0-.114l-1.302-.753a.218.218 0 00-.198 0l-1.362.786c-.06.033-.063.084 0 .114l1.302.753a.22.22 0 00.195.012v-.012zm7.971-4.587l1.362-.786c.057-.033.063-.087 0-.114l-1.305-.753a.218.218 0 00-.198 0l-1.359.792c-.057.033-.063.084 0 .114l1.305.753a.22.22 0 00.195-.006zm-1.992 1.149l1.362-.786c.057-.033.063-.084 0-.114l-1.305-.753a.218.218 0 00-.198 0l-1.362.786c-.057.036-.063.087 0 .117l1.305.75a.22.22 0 00.195 0h.003zm3.981-2.298l1.365-.789c.057-.033.063-.084 0-.114l-1.296-.75a.231.231 0 00-.198 0l-1.362.786c-.057.033-.063.084 0 .114l1.305.753a.213.213 0 00.183 0h.003zm10.87-15.996a.22.22 0 00.197 0l1.362-.789c.06-.033.063-.084 0-.114l-.345-.201a.231.231 0 00-.198 0l-1.365.786c-.057.033-.063.084 0 .114l.348.204zm-9.9 6.267a.22.22 0 00.197 0l1.362-.789c.057-.033.063-.084 0-.114l-1.305-.75a.218.218 0 00-.198 0l-1.362.786c-.057.033-.063.084 0 .114l1.305.753zm3.98-2.301a.22.22 0 00.198 0l1.362-.786c.06-.033.063-.084 0-.114L67 78.264a.218.218 0 00-.198 0l-1.362.786c-.06.036-.063.087 0 .117l1.3.756zm-6.414 3.705a.22.22 0 00.198 0l1.362-.789c.057-.033.063-.084 0-.114l-1.302-.753a.231.231 0 00-.198 0l-1.365.786c-.057.033-.063.084 0 .114l1.305.756zm4.422-2.553a.21.21 0 00.198 0l1.365-.786c.057-.033.063-.084 0-.114l-1.302-.753a.218.218 0 00-.198 0l-1.362.789c-.06.033-.063.084 0 .114l1.3.75zm-8.4 4.851a.22.22 0 00.198 0l1.362-.786c.06-.033.066-.084 0-.114l-1.302-.753a.218.218 0 00-.198 0l-1.362.786c-.06.036-.063.087 0 .117l1.302.75zm1.992-1.149a.22.22 0 00.198 0l1.362-.786c.06-.033.063-.084 0-.114l-1.299-.759a.218.218 0 00-.198 0l-1.362.786c-.06.033-.066.084 0 .114l1.3.759zm10.338-6.522a.22.22 0 00.198 0l1.365-.786c.057-.033.063-.084 0-.114l-.348-.201a.218.218 0 00-.198 0l-1.362.789c-.06.033-.063.084 0 .114l.345.198zm5.976-3.447a.222.222 0 00.198 0l1.362-.786c.057-.033.063-.084 0-.114l-.348-.201a.213.213 0 00-.198 0l-1.362.786c-.057.033-.063.084 0 .114l.348.201zm2.74 1.581a.213.213 0 00.197 0l1.362-.786c.057-.033.063-.084 0-.114l-1.305-.753a.218.218 0 00-.198 0l-1.362.789c-.057.033-.063.084 0 .114l1.305.75zm3.791 4.368l1.362-.786c.06-.036.063-.087 0-.114l-1.302-.753a.218.218 0 00-.198 0l-1.362.786c-.06.033-.063.084 0 .114l1.302.753a.22.22 0 00.192 0h.006zm-10.5-3.651a.22.22 0 00.198 0l1.362-.786c.06-.033.063-.087 0-.114l-.345-.201a.218.218 0 00-.198 0l-1.374.795c-.057.033-.063.084 0 .114l.357.192zM54.37 87.078a.21.21 0 00.198 0l1.365-.786c.057-.033.063-.084 0-.114l-1.305-.753a.213.213 0 00-.198 0l-1.362.786c-.057.033-.063.084 0 .114l1.302.753z" fill="#455A64"/><path d="M60.055 98.409l.297.171 7.87 4.545 13.994-8.082.291-.165-8.166-4.713-14.286 8.244z" fill="#263238"/><path d="M82.036 95.148l-7.695-4.44-13.812 7.977 7.692 4.44 13.815-7.977z" fill="#37474F"/><path d="M42.025 17.04c-2.46-1.611-5.631-1.323-7.347-.024-2.4 1.824-3.246 3.831-3.678 7.8-.6 5.592-1.23 7.2-1.893 8.469a4.72 4.72 0 01-2.772 2.361 3.267 3.267 0 003.177.129c-.564 2.7-1.35 4.965-.651 7.818.471 1.92 1.473 4.095 2.952 5.472 1.26 1.173 3.063 1.53 4.578 2.193-1.023-2.193-1.572-4.263-.864-6.729.78-2.721 2.604-5.037 3.411-7.779 1.122-3.792 2.4-7.722 2.721-11.679.267-3.336.393-5.739.366-8.031z" fill="#263238"/><path d="M40.798 17.541c-.393-.369-2.13-.129-3.18 1.122-1.05 1.251-1.674 3.069-.4 4.044 1.195.915 5.836-3.954 3.58-5.166z" fill="#459AE9"/><path d="M55.045 23.031c.864-.318 1.233-1.431.975-2.316-.258-.885-.981-1.557-1.752-2.064a9.05 9.05 0 00-5.958-1.386 11.742 11.742 0 00-5.985-.3 6.219 6.219 0 00-4.8 5.601c-3.081.726-4.428 4.5-2.526 8.55 1.383 2.928 4.5 4.953 4.887 6.411l11.682-9.078c.456.711 1.866.744 2.442.462.576-.282.936-1.326.552-1.842a2.035 2.035 0 00.48-4.041l.003.003z" fill="#263238"/><path d="M42.325 16.968a6.337 6.337 0 00-3.249 2.073 6.004 6.004 0 00-.996 1.659 6.24 6.24 0 00-.414 1.881v.099l-.096.024c-.725.17-1.387.54-1.911 1.068a4.606 4.606 0 00-1.11 1.899 7.26 7.26 0 00.201 4.413 11.234 11.234 0 002.34 3.852c.501.576 1.029 1.128 1.536 1.701.255.3.51.573.738.9.24.3.422.643.534 1.011a3.093 3.093 0 00-.585-.972 11.411 11.411 0 00-.768-.846c-.537-.546-1.083-1.083-1.599-1.65a15.278 15.278 0 01-1.44-1.8 8.961 8.961 0 01-1.026-2.082A8.175 8.175 0 0134 27.9c-.064-.783.02-1.57.246-2.322a4.88 4.88 0 011.2-2.013 4.25 4.25 0 012.055-1.125l-.105.123a6.183 6.183 0 011.548-3.633c.444-.497.963-.92 1.539-1.257a5.8 5.8 0 011.842-.705z" fill="#000"/><path d="M85.135 42.243c.642-.546.759-.687 1.623-1.38.642-.513 1.155-.93 1.32-1.23.324-.6.02-1.179-.25-1.083-.542.192-1.184.651-2.435 1.5-1.377.945-2.35 1.878-2.421 1.728a14.93 14.93 0 011.467-1.74c1.686-1.821 2.016-2.151 2.325-2.736.654-1.218-.264-1.419-.666-1.167-.46.3-.957.837-2.163 2.034-1.308 1.299-2.448 2.622-2.553 2.544-.105-.078 1.707-2.061 2.793-3.513 1.005-1.347.35-1.917.063-1.962-.288-.045-.657.345-1.143.867-.88.957-3.435 4.095-3.97 4.695-.533.6-.938.816-1.007-.153-.066-.9-.021-1.878-.417-2.505-.663-1.047-1.395-.789-1.398-.09 0 .99-.237 2.1-.411 3.681-.093.825-.078 1.8-.096 2.382-.102 2.007-1.785 3.045-3.186 4.011-1.401.966-5.217 3.141-5.217 3.141s-7.116-7.329-9.192-9.123c-2.466-2.136-3.171-2.286-6.654-2.259l4.926 12.669s6.696 6.195 8.97 7.518c2.274 1.323 3.198.6 5.96-1.851 2.122-1.881 5.614-6.192 6.457-7.149.843-.957 1.2-1.575 2.187-1.935 1.329-.486 2.013-1.155 2.898-2.169.423-.483 1.122-1.455 1.767-2.1a30.011 30.011 0 012.757-2.319c.582-.489.672-1.5-.144-1.176-1.548.6-3.1 1.908-3.15 1.821-.051-.087.525-.579.96-.951z" fill="#FFBDA7"/><path d="M78.658 42.3c.711 1.047.87 3.522.177 4.995 1.431-1.395 1.281-3.918-.177-4.995zm-11.265 8.979c-1.179.771-2.586 3-2.184 5.292-.513-1.692-.957-3.804 1.629-5.91l.555.618z" fill="#F0997A"/><path d="M33.4 43.602l2.745-1.098s4.095-1.062 7.5-1.8c3.6-.453 6.693-.792 6.693-.792l1.215-.021s2.7 2.376 4.677 4.569c1.977 2.193 3.714 4.026 3.825 6.795.147 3.741-2.256 5.1-2.256 5.1l.147 4.767 3.123 8.835-30.18 17.418c.918-10.755 3.3-12.528 4.647-19.983-.258-3.9-2.2-9.252-2.53-11.97-1.151-9.387.394-11.82.394-11.82z" fill="#459AE9"/><path d="M39.778 38.916c.114-1.317.3-3.936.3-3.936-.327.435-2.1 1.038-3.3-.666-1.398-1.965-1.176-3.372-.201-4.314 1.11-1.074 3.054-.798 3.864.9.507 1.2 1.5-.216.501-2.1-.333-3.318 3.9-1.119 6.537-8.037 2.661-.15 4.266.6 5.559 2.814.6 1.002 1.299 2.445 1.155 6.624-.186 5.322-.987 6.996-2.85 7.887-.858.411-1.74.567-3.393.444l-.015.51c-.003.118.003.237.018.354a.6.6 0 00.564.567c.61.024 1.22.007 1.827-.051 0 0 1.356 3.408-3.144 4.377a15.51 15.51 0 01-11.07-1.785c.67-.343 1.314-.733 1.929-1.167 1.389-1.005 1.641-1.596 1.719-2.421z" fill="#FFBDA7"/><path d="M38.053 34.062a.648.648 0 101.295-.048.648.648 0 00-1.295.048z" fill="#FAFAFA"/><path d="M46.552 33.351l2.892.9a1.5 1.5 0 01-1.87 1.05 1.587 1.587 0 01-1.022-1.95z" fill="#B16668"/><path d="M46.74 34.017a1.662 1.662 0 011.675 1.287 1.458 1.458 0 01-.84 0 1.563 1.563 0 01-1.06-1.254c.075-.016.15-.027.226-.033z" fill="#F28F8F"/><path d="M53.074 26.121l-1.821-.435a.902.902 0 011.095-.708.984.984 0 01.59.427.98.98 0 01.136.716zm-8.874-.093l1.773-.669a.9.9 0 00-1.2-.57.996.996 0 00-.573 1.239zm7.086 2.454a.807.807 0 00.714.843.75.75 0 00.831-.696.804.804 0 00-.726-.843.752.752 0 00-.819.696zm-6.346.039a.802.802 0 001.024.819.749.749 0 00.53-.669.798.798 0 00-1.02-.815.754.754 0 00-.533.665z" fill="#263238"/><path d="M47.938 38.535a14.441 14.441 0 01-4.96-1.392 4.66 4.66 0 01-1.931-2.142 3.686 3.686 0 001.332 2.7c1.5 1.26 5.562 1.686 5.562 1.686a1.839 1.839 0 01-.018-.354l.015-.498zM45.793 57c1.464-1.245 2.208-1.737 2.913-1.983.705-.246 3.15-1.452 4.098-1.752.6-.192.9.765.174 1.482-.567.552-2.082 1.326-2.742 1.743-.66.417-1.899 2.133-1.899 2.133L45.793 57z" fill="#F0997A"/><path d="M42.472 67.932c-4.8 2.724-9 6.117-13.653 6.816-4.536.678-4.677-3.078-4.596-5.877.102-3.534 2.082-14.616 3.111-18.3 1.092-3.921 1.8-5.367 6.051-6.963 3.51 2.301 2.7 9.9 1.953 12.801-.795 3.027-2.082 8.682-2.082 8.682s5.532-1.743 6.861-2.445c1.329-.702 3.555-3.69 4.434-4.647 1.2-1.302 1.839-1.179 2.49-1.122 2.139.186 2.616.333 3.081.6a.956.956 0 01.465.798c.567.036 1.407-.036 1.575.882.063.24.09.49.081.738a.618.618 0 01.378.186c.504.513-.183 2.442-.663 2.931-.339.345-.846.417-1.521.369-.576-.042-.348-.639-.348-.639l-.795.099c-1.644 1.332-1.725 3.3-3.969 3.978-1.002.225-1.963.6-2.853 1.113z" fill="#FFBDA7"/><path d="M50.587 58.26l-2.547-.36h2.46a.964.964 0 01.087.36zm1.656 1.62l-2.919-.192 2.901-.144c.018.11.024.224.018.336zm-.303 1.299a.9.9 0 01-.366.363 1.915 1.915 0 01-.486.201l.036-.03c-.066.156-.141.3-.213.462l-.066-.072a.577.577 0 01.468.084c.127.09.223.217.276.363a.9.9 0 00-.3-.3.572.572 0 00-.396-.048l-.111.03.045-.105c.069-.156.138-.3.216-.462v-.024h.024c.162-.04.32-.095.471-.165.156-.066.294-.167.402-.297z" fill="#F0997A"/><path d="M51.196 61.602a8.856 8.856 0 01-1.044.138c-.048.221-.16.423-.324.579-.168.18-.346.35-.534.507l.795-.099s.174-.369.882-.552l.225-.573zm-17.7 2.436l-.24 1.047c-2.043.666-4.2 2.256-4.623 3.423.267-1.827 1.27-3.264 4.863-4.47z" fill="#F0997A"/><path d="M54.925 26.508l-.3-.039c-1.005-.105-2.343-.129-3.15.138-1.044.348-1.404.732-2.013.747-.66 0-1.095-.369-2.325-.702-1.002-.264-2.7-.216-4.05-.075l-.429.048a.675.675 0 00-.498.675c.049.297.19.57.402.783a.97.97 0 01.138.318c.138.552.22 1.629.501 2.223.134.296.32.564.552.792.087.083.181.159.282.225l.165.102c.153.083.315.15.483.198l.081.021.126.03.135.021c.139.023.28.036.42.039h.402c1.69-.111 2.35-.966 2.718-1.8.37-.834.22-1.935.933-1.953h.066a.215.215 0 01.063 0c.525.108.513 1.119.88 1.842.14.287.322.551.542.783.04.042.082.082.126.12l.066.054.07.054.062.045.07.045.053.03.036.021c.192.106.4.18.615.222h.054c.239.041.482.051.723.03a1.96 1.96 0 001.887-1.539c.16-.54.15-1.476.204-1.965a.555.555 0 01.09-.252c.137-.209.211-.452.213-.702-.018-.288-.222-.558-.393-.579zm-6.798 3a2.512 2.512 0 01-.528 1.164 2.4 2.4 0 01-1.8.777 2.004 2.004 0 01-1.827-.765c-.02-.027-.039-.057-.057-.084a.627.627 0 01-.054-.081.516.516 0 01-.045-.078l-.039-.069-.027-.057a.382.382 0 01-.024-.051c0-.027-.027-.054-.039-.084a2.701 2.701 0 01-.132-.393c-.012-.048-.045-.165-.06-.237v-.087c-.129-.582-.279-1.719.024-1.977.303-.258 1.074-.528 2.316-.426h.132c.187.018.372.048.555.087.072 0 .144.03.216.048.181.042.36.096.534.162l.165.063c.063.024.12.054.177.081l.036.018.063.033c.14.067.263.162.363.279.21.324.165 1.041.051 1.668v.009zm6.417-.495c-.042.408-.135 1.305-.837 1.743a1.653 1.653 0 01-.78.24 1.767 1.767 0 01-1.7-.726l-.034-.048a.427.427 0 01-.036-.057.184.184 0 01-.02-.03l-.049-.084-.05-.099c0-.018-.016-.033-.022-.051a.102.102 0 010-.027.215.215 0 01-.018-.039v-.033a3.232 3.232 0 01-.129-.402c-.15-.6-.249-1.29-.06-1.623.19-.333.966-.693 1.71-.801a4.85 4.85 0 01.48-.045h.421l.13.015c.08.009.16.023.24.042h.164l.072.024.114.045h.021c.096.042.184.098.264.165.201.261.171 1.278.12 1.782v.009z" fill="#37474F"/><path d="M42.436 26.889L38.59 29.4c.412.06.798.238 1.11.513l2.952-2.01-.216-1.014z" fill="#37474F"/><path d="M51.814 31.632l-2.34 1.173-.6-3.72a1.034 1.034 0 01.372-.729l2.568 3.276z" fill="#F0997A"/><path opacity=".9" d="M24.241 90.123l-.033-.015-.9-.531a.924.924 0 01-.453-.669v-1.644a1.8 1.8 0 01.3-.939l1.068.615a2.487 2.487 0 00-.282 1.263v1.398a.636.636 0 00.042.213.6.6 0 00.258.309z" fill="#263238"/><path opacity=".6" d="M68.92 61.272a.621.621 0 00-.582.075L24.808 86.4a1.846 1.846 0 00-.384.309 1.22 1.22 0 00-.192.252l-1.086-.624a1.87 1.87 0 01.183-.246l.069-.075.072-.069.075-.063c.05-.04.101-.076.156-.108L67.234 60.72a.6.6 0 01.627-.051c.159.096.873.504 1.059.603z" fill="#455A64"/><path d="M27.214 87.414v-1.065c0-.078.048-.159.096-.159h.939c.06 0 .06.135 0 .207l-.94 1.071c-.047.045-.095.021-.095-.054zm2.184-1.263v-1.065c0-.075.048-.156.096-.156h.939c.06 0 .06.135 0 .204l-.933 1.065c-.054.054-.102.03-.102-.048z" fill="#fff"/><path d="M30.55 85.596c-.039.024-.072 0-.072-.054V84.45a.178.178 0 01.072-.138c.039-.021.072 0 .072.054v1.095a.171.171 0 01-.072.135zm-4.44 2.454V87c0-.075-.048-.099-.096-.048l-.936 1.074c-.063.072-.063.207 0 .207h.936a.24.24 0 00.096-.183z" fill="#fff"/><path d="M24.958 88.824a.172.172 0 00.072-.135V87.6c0-.051-.033-.075-.072-.054a.177.177 0 00-.072.138v1.092c0 .048.033.072.072.048zm42.138-25.083a.087.087 0 01-.084-.084v-.486a.086.086 0 01.042-.072l.39-.225a.084.084 0 01.124.06.08.08 0 01-.04.081l-.351.204v.438a.084.084 0 01-.081.084zm1.062-.615a.084.084 0 01-.084-.081V62.7l-.264.153a.084.084 0 01-.114-.03.08.08 0 01.006-.09.081.081 0 01.024-.021l.39-.225a.083.083 0 01.113.03c.007.011.01.025.01.039v.489a.081.081 0 01-.081.081zm-.39 1.146a.084.084 0 01-.072-.039.084.084 0 01.03-.114l.348-.201v-.441a.084.084 0 01.084-.081.081.081 0 01.08.081v.489a.084.084 0 01-.038.072l-.39.225-.042.009zm-.672.39a.1.1 0 01-.042 0 .086.086 0 01-.042-.072v-.486a.086.086 0 01.084-.084.084.084 0 01.081.084v.342l.267-.153a.084.084 0 01.123.024.084.084 0 01-.01.1.085.085 0 01-.029.02l-.39.225a.11.11 0 01-.042 0z" fill="#fff"/><path d="M40.41 79.443V78.9l-8.246 4.764a.567.567 0 00-.285.429c0 .147.126.192.285.099l8.247-4.749z" fill="#459AE9"/><path opacity=".5" d="M63.787 65.439a.321.321 0 00-.111.042L40.41 78.9v.531L63.676 66a.624.624 0 00.264-.312.322.322 0 00.02-.117.132.132 0 00-.173-.132z" fill="#fff"/><path d="M40.825 78.975a1.005 1.005 0 01-.414.789c-.228.129-.411 0-.411-.315a.984.984 0 01.411-.786c.225-.132.414.006.414.312z" fill="#459AE9"/><path opacity=".5" d="M40.825 78.975a1.005 1.005 0 01-.414.789c-.228.129-.411 0-.411-.315a.984.984 0 01.411-.786c.225-.132.414.006.414.312z" fill="#fff"/><path d="M40.678 79.059a.645.645 0 01-.267.51c-.147.084-.267 0-.267-.204a.637.637 0 01.267-.507c.147-.084.267.003.267.201z" fill="#459AE9"/></svg>