<svg width="151" height="150" fill="none" xmlns="http://www.w3.org/2000/svg"><path d="M75.625 139.944c38.835 0 70.317-20.193 70.317-45.102 0-24.91-31.482-45.102-70.317-45.102-38.835 0-70.317 20.193-70.317 45.102 0 24.909 31.482 45.102 70.317 45.102z" fill="#F0F0F0"/><path d="M32.686 107.115l36.831 21.264a2.874 2.874 0 002.598 0l60.702-34.941c.717-.414.717-1.083 0-1.5l-36.83-21.261a2.863 2.863 0 00-2.599 0l-60.702 34.938c-.717.414-.717 1.086 0 1.5z" fill="#E0E0E0"/><path d="M107.152 128.292c8.482 0 15.357-3.97 15.357-8.868s-6.875-8.868-15.357-8.868c-8.481 0-15.357 3.97-15.357 8.868s6.876 8.868 15.357 8.868z" fill="#E0E0E0"/><path d="M70.126 20.87c.096.316 1.593 1.465 1.659 1.8a.397.397 0 00.5.325l1.465-.4a.363.363 0 01.267.022c-.075-.04-3.123-1.8-3.222-1.863a.348.348 0 00-.267-.024l-.408.11.006.03z" fill="#459AE9"/><path opacity=".2" d="M70.126 20.87c.096.316 1.593 1.465 1.659 1.8a.397.397 0 00.5.325l1.465-.4a.363.363 0 01.267.022c-.075-.04-3.123-1.8-3.222-1.863a.348.348 0 00-.267-.024l-.408.11.006.03z" fill="#000"/><path d="M67.552 17.124c.204.144 1.818 1.128 2.004 1.302a.483.483 0 00.645 0l1.428-1.302a.357.357 0 01.438-.048l-3.24-1.866a.353.353 0 00-.42.06l-.972.9-.105.3a.618.618 0 00.222.654z" fill="#459AE9"/><path opacity=".2" d="M67.552 17.124c.204.144 1.818 1.128 2.004 1.302a.483.483 0 00.645 0l1.428-1.302a.357.357 0 01.438-.048l-3.24-1.866a.353.353 0 00-.42.06l-.972.9-.105.3a.618.618 0 00.222.654z" fill="#000"/><path d="M55.807 41.328l.663-1.896a.6.6 0 00-.222-.663 5.565 5.565 0 01-.6-.477.486.486 0 00-.648 0l-1.608-.879-.816 2.058a.414.414 0 00.186.504l3.222 1.866a.417.417 0 01-.177-.513z" fill="#459AE9"/><path opacity=".3" d="M55.807 41.328l.663-1.896a.6.6 0 00-.222-.663 5.565 5.565 0 01-.6-.477.486.486 0 00-.648 0l-1.608-.879-.816 2.058a.414.414 0 00.186.504l3.222 1.866a.417.417 0 01-.177-.513z" fill="#000"/><path d="M61.225 41.775l-.12-1.5a.42.42 0 00-.48-.375 7.063 7.063 0 01-.711.036h-.339a.495.495 0 00-.216.054L58 39.933a.343.343 0 00.147.267 656.34 656.34 0 003.237 1.875h.03a.324.324 0 01-.189-.3z" fill="#459AE9"/><path opacity=".3" d="M61.225 41.775l-.12-1.5a.42.42 0 00-.48-.375 7.063 7.063 0 01-.711.036h-.339a.495.495 0 00-.216.054L58 39.933a.343.343 0 00.147.267 656.34 656.34 0 003.237 1.875h.03a.324.324 0 01-.189-.3z" fill="#000"/><path d="M66.955 38.625l-.693-.882a.433.433 0 00-.618-.066l-.195.15.027-.021 1.599.924a.385.385 0 01-.12-.105z" fill="#459AE9"/><path opacity=".3" d="M66.955 38.625l-.693-.882a.433.433 0 00-.618-.066l-.195.15.027-.021 1.599.924a.385.385 0 01-.12-.105z" fill="#000"/><path d="M72.895 29.517l-1.404-.813a.521.521 0 00.282.324l1.122.489z" fill="#459AE9"/><path opacity=".3" d="M72.895 29.517l-1.404-.813a.521.521 0 00.282.324l1.122.489z" fill="#000"/><path d="M64.582 16.8c.222-.021.447-.033.669-.033h.366a.654.654 0 00.56-.37l.856-1.724a.546.546 0 01.624-.273l1.476.432a.38.38 0 01.14.072l-.035-.027-3.231-1.872a.544.544 0 00-.096-.04l-1.48-.431a.544.544 0 00-.62.273l-.855 1.725a.728.728 0 01-.327.318l1.476 1.55a.43.43 0 00.477.4z" fill="#459AE9"/><path opacity=".1" d="M65.617 16.776a.555.555 0 00.33-.108l-3.222-1.866a.998.998 0 01-.096.057l1.476 1.551a.43.43 0 00.477.39 7.134 7.134 0 011.035-.024z" fill="#000"/><path opacity=".5" d="M69.274 14.913l-.036-.027-3.231-1.872a.534.534 0 00-.096-.039l-1.48-.432a.537.537 0 00-.44.072l3.234 1.866a.54.54 0 01.444-.072l1.476.432a.41.41 0 01.129.072z" fill="#FAFAFA"/><path opacity=".2" d="M63.991 12.615a.504.504 0 00-.18.201l-.855 1.725a.717.717 0 01-.23.261l3.221 1.866a.69.69 0 00.231-.261l.855-1.725a.492.492 0 01.177-.198l-3.219-1.869z" fill="#000"/><path d="M53.029 39.495l-.879-1.431a.651.651 0 01.054-.717l1.305-1.542a.9.9 0 00.144-.759 8.8 8.8 0 01-.252-.996.398.398 0 00-.504-.321l-2.466-.54a.877.877 0 01-.147.75l-1.302 1.542a.65.65 0 00-.054.717l.879 1.431a.382.382 0 00.144.141l3.219 1.863.042.021a.388.388 0 01-.183-.159z" fill="#459AE9"/><path opacity=".2" d="M53.653 35.046a8.82 8.82 0 01-.252-.996.398.398 0 00-.504-.321l-2.466-.54a.9.9 0 01-.033.549l3.222 1.866a.899.899 0 00.033-.558z" fill="#000"/><path opacity=".3" d="M48.856 35.766l3.225 1.866a.599.599 0 01.123-.3l1.305-1.542a.656.656 0 00.111-.201l-3.222-1.866a.66.66 0 01-.114.2l-1.302 1.543a.599.599 0 00-.126.3z" fill="#000"/><path opacity=".2" d="M53.17 39.633l.042.021a.387.387 0 01-.183-.159l-.88-1.431a.624.624 0 01-.068-.432l-3.225-1.866a.624.624 0 00.072.432l.879 1.431a.38.38 0 00.144.141l3.219 1.863z" fill="#000"/><path d="M51.04 33.789v-2.217a.768.768 0 01.402-.636l1.5-.714a.952.952 0 00.47-.63c.073-.438.169-.88.283-1.32a.531.531 0 00-.3-.6l-1.08-.471a.45.45 0 01-.234-.6l.999-2.373a.6.6 0 01.6-.34l1.2.196a.684.684 0 00.654-.3c.252-.441.519-.87.8-1.281a.851.851 0 00.067-.765l-.555-1.167a.693.693 0 01.117-.723l1.713-1.782a.375.375 0 01.582.03l.666.846a.433.433 0 00.618.069 12.719 12.719 0 011.263-.882.838.838 0 00.3-.6l.117-1.575a.756.756 0 01.45-.6l1.857-.693a.34.34 0 01.3.015c-.078-.045-3.135-1.818-3.225-1.866a.34.34 0 00-.3 0l-1.857.693a.755.755 0 00-.45.6l-.117 1.575a.85.85 0 01-.3.6 4.97 4.97 0 00-.267.168 8.26 8.26 0 00-.843.6l-1.566-.9a.373.373 0 00-.453.08l-1.716 1.783a.698.698 0 00-.117.723l.555 1.167a.843.843 0 01-.066.765c-.28.41-.55.84-.801 1.28a.678.678 0 01-.654.3l-1.182-.194a.6.6 0 00-.6.339l-1 2.373a.456.456 0 00.18.56l1.414.817c.03.098.03.202 0 .3-.114.44-.21.882-.285 1.32a.958.958 0 01-.468.63l-1.5.714a.77.77 0 00-.393.597v2.217a.335.335 0 00.153.3c.075.042 3.129 1.8 3.222 1.866h.02a.33.33 0 01-.173-.294z" fill="#459AE9"/><path opacity=".5" d="M58.14 17.979l-3.215-1.87a.372.372 0 00-.453.082l-1.716 1.782a.656.656 0 00-.162.35l3.225 1.867a.635.635 0 01.162-.351l1.644-1.71a.538.538 0 01.516-.15zm5.695-3.315c-.078-.045-3.135-1.818-3.225-1.866a.34.34 0 00-.3 0l-1.857.693a.714.714 0 00-.252.177l3.225 1.866a.704.704 0 01.249-.177l1.857-.693a.339.339 0 01.303 0z" fill="#FAFAFA"/><path opacity=".2" d="M58.207 13.653a.756.756 0 00-.198.423l-.117 1.575a.925.925 0 01-.07.282l3.226 1.866a.923.923 0 00.066-.282l.117-1.575a.74.74 0 01.2-.423l-3.224-1.866z" fill="#000"/><path opacity=".1" d="M57.823 15.933a.67.67 0 01-.234.321c-.09.054-.18.108-.267.168a8.26 8.26 0 00-.843.6l1.662.96c.046.025.086.06.117.102l.672.852a.435.435 0 00.618.069 12.719 12.719 0 011.263-.882.693.693 0 00.237-.321l-3.225-1.869z" fill="#000"/><path opacity=".2" d="M55.852 20.562a.62.62 0 01-.045-.372l-3.225-1.866a.672.672 0 00.045.372l.555 1.167a.76.76 0 01.063.3l3.222 1.866a.761.761 0 00-.06-.3l-.555-1.167z" fill="#000"/><path opacity=".1" d="M53.125 20.628c-.28.41-.55.84-.801 1.28a.66.66 0 01-.3.259l3.222 1.866a.651.651 0 00.3-.258c.252-.441.519-.87.8-1.281a.84.84 0 00.127-.462l-3.228-1.866a.84.84 0 01-.12.462z" fill="#000"/><path opacity=".2" d="M51.66 22.224l-1.181-.195a.6.6 0 00-.372.078l3.222 1.866a.6.6 0 01.372-.078l1.2.195a.615.615 0 00.354-.057l-3.222-1.866a.621.621 0 01-.372.057z" fill="#000"/><path opacity=".5" d="M50.107 22.107a.561.561 0 00-.24.26l-.999 2.374a.456.456 0 00.18.56l1.413.817 1.767 1.02a.444.444 0 01-.14-.528l.998-2.373a.576.576 0 01.24-.261l-3.219-1.87z" fill="#FAFAFA"/><path opacity=".2" d="M50.46 26.118c.03.098.03.202 0 .3-.113.44-.21.882-.284 1.32a.9.9 0 01-.171.372l3.222 1.866a.9.9 0 00.174-.372c.072-.438.168-.88.282-1.32a.53.53 0 00-.3-.6l-1.08-.471a.594.594 0 01-.093-.057l-1.75-1.038z" fill="#000"/><path opacity=".1" d="M50.017 28.098a.856.856 0 01-.3.258l-1.5.714a.756.756 0 00-.3.3l3.225 1.866a.722.722 0 01.3-.3l1.5-.714a.856.856 0 00.3-.258l-3.225-1.866z" fill="#000"/><path opacity=".5" d="M51.214 34.098a.33.33 0 01-.174-.3v-2.217a.69.69 0 01.093-.324l-3.225-1.866a.677.677 0 00-.09.324v2.217a.335.335 0 00.153.3c.075.042 3.129 1.8 3.222 1.866h.02z" fill="#FAFAFA"/><path d="M74.173 22.845a.461.461 0 00-.021-.069.309.309 0 00-.081-.102.344.344 0 00-.3-.045l-1.464.399a.397.397 0 01-.501-.324 9.863 9.863 0 00-.24-.978.832.832 0 01-.027-.3.902.902 0 010-.093v-.018l.018-.078a.555.555 0 00.036-.093l.024-.048.018-.036a.814.814 0 01.054-.075l1.326-1.569a.665.665 0 00.135-.462.578.578 0 00-.081-.267l-.444-.756-.441-.714a.527.527 0 00-.048-.066.352.352 0 00-.054-.045.357.357 0 00-.438.048l-1.428 1.302a.483.483 0 01-.645 0 5.903 5.903 0 00-.6-.48.618.618 0 01-.222-.666l.105-.3.213-.6.345-.987a.81.81 0 00.021-.081v-.024a.362.362 0 000-.057.082.082 0 000-.027.15.15 0 000-.051.087.087 0 000-.027l-.018-.048a.088.088 0 010-.024.276.276 0 00-.036-.054l-.054-.057h-.018a.393.393 0 00-.141-.072l-1.509-.501a.546.546 0 00-.624.273l-.855 1.725a.654.654 0 01-.561.369h-.366c-.222 0-.447 0-.669.033a.43.43 0 01-.477-.39l-.057-.729v-.036l-.054-.708a.403.403 0 00-.018-.087v-.024c0-.018 0-.036-.024-.051s0-.015-.018-.024l-.039-.051-.024-.021-.036-.027a.339.339 0 00-.3-.015l-1.857.693a.756.756 0 00-.45.6l-.117 1.575a.836.836 0 01-.3.6 12.719 12.719 0 00-1.263.882.436.436 0 01-.618-.069l-.666-.846a.375.375 0 00-.582-.03l-1.713 1.782a.693.693 0 00-.117.723l.555 1.167a.852.852 0 01-.066.765c-.282.411-.549.84-.801 1.281a.684.684 0 01-.654.3l-1.2-.195a.6.6 0 00-.6.339l-.999 2.373a.45.45 0 00.234.6l1.08.471a.531.531 0 01.3.6c-.114.441-.21.882-.282 1.32a.95.95 0 01-.471.63l-1.5.714a.768.768 0 00-.402.636v2.217a.33.33 0 00.174.3h.174a.392.392 0 00.081 0l.381-.102 1.047-.285a.399.399 0 01.504.321 8.8 8.8 0 00.252.996.9.9 0 01-.144.759l-1.305 1.542a.65.65 0 00-.054.717l.879 1.431a.388.388 0 00.183.159.432.432 0 00.066.018h.156l.054-.024h.018a.24.24 0 00.063-.045l1.419-1.293a.486.486 0 01.648 0c.189.173.39.332.6.477a.6.6 0 01.222.663l-.663 1.896a.417.417 0 00.267.537l.738.216.741.216a.451.451 0 00.18.018.601.601 0 00.333-.144.481.481 0 00.108-.147l.432-.873.432-.873a.712.712 0 01.054-.09l.021-.027.048-.054.024-.027.057-.048.024-.018a.495.495 0 01.3-.108h.339c.241.021.484.03.726.027a.421.421 0 01.474.387l.12 1.5a.325.325 0 00.189.3h.117a.325.325 0 00.054 0h.027a.404.404 0 00.081-.021l1.857-.693a.762.762 0 00.306-.24.84.84 0 00.054-.087.623.623 0 00.09-.273l.12-1.626a.989.989 0 01.138-.432.471.471 0 01.144-.159l.246-.153.234-.153.09-.063.138-.096.114-.084.108-.081c.045-.03.087-.063.129-.096l.195-.15a.436.436 0 01.618.066l.693.882a.384.384 0 00.126.108h.018l.051.021h.096a.21.21 0 00.126-.018h.021l.048-.024h.021a.318.318 0 00.06-.051l1.716-1.782a.6.6 0 00.138-.249.714.714 0 00.033-.195.618.618 0 00-.054-.279l-.579-1.218a.601.601 0 01-.054-.183.955.955 0 01.042-.408.67.67 0 01.084-.174c.135-.198.267-.402.396-.6.129-.198.255-.414.378-.627a.682.682 0 01.561-.324.466.466 0 01.093 0l1.233.204h.093a.564.564 0 00.267-.078.522.522 0 00.114-.081.508.508 0 00.138-.186l.999-2.373a.45.45 0 000-.342.444.444 0 00-.237-.246l-1.122-.489a.521.521 0 01-.282-.324v-.021a.473.473 0 010-.063.087.087 0 010-.027.362.362 0 010-.057.087.087 0 010-.027.378.378 0 010-.081c.027-.108.054-.216.078-.321.051-.213.099-.429.141-.642.021-.105.039-.21.057-.318 0-.03 0-.06.024-.093a.984.984 0 01.447-.537l.774-.366.777-.369a.738.738 0 00.282-.264.732.732 0 00.117-.372v-2.229a.638.638 0 00-.009-.078zM67.171 30.3c-.087.177-.234.462-.327.636a11.101 11.101 0 01-3.558 4.002 5.236 5.236 0 01-2.817.939 3.229 3.229 0 01-2.34-.951 4.067 4.067 0 01-.879-1.389.11.11 0 010-.027l-.063-.174-.018-.051-.048-.156-.018-.066-.042-.15-.018-.078c0-.048-.021-.096-.033-.147l-.018-.081-.027-.15v-.087c0-.03-.015-.102-.024-.153-.009-.051 0-.057 0-.087 0-.03 0-.111-.015-.168v-.33c-.047-1.925.4-3.83 1.299-5.532a11.25 11.25 0 013.723-4.317 5.25 5.25 0 012.817-.939h.273l.159.015h.057l.165.024h.039c.066.012.132.027.198.045 1.575.414 2.613 1.944 2.718 4.131.034 1.82-.38 3.619-1.203 5.241z" fill="#459AE9"/><path d="M68.359 25.08c-.02-.966-.3-1.91-.81-2.73a3.255 3.255 0 00-2.106-1.446h-.04l-.164-.024h-.057l-.16-.015h-.485a5.7 5.7 0 01.6 2.373 11.08 11.08 0 01-1.2 5.22c-.084.177-.231.462-.327.636a11.1 11.1 0 01-3.555 4.002 5.4 5.4 0 01-2.604.933c.145.28.323.54.53.777l.136.144a3.233 3.233 0 002.343.951 5.25 5.25 0 002.817-.939 11.1 11.1 0 003.558-4.002c.093-.174.24-.459.327-.636a11.116 11.116 0 001.197-5.244z" fill="#459AE9"/><path opacity=".35" d="M68.359 25.08c-.02-.966-.3-1.91-.81-2.73a3.255 3.255 0 00-2.106-1.446h-.04l-.164-.024h-.057l-.16-.015h-.485a5.7 5.7 0 01.6 2.373 11.08 11.08 0 01-1.2 5.22c-.084.177-.231.462-.327.636a11.1 11.1 0 01-3.555 4.002 5.4 5.4 0 01-2.604.933c.145.28.323.54.53.777l.136.144a3.233 3.233 0 002.343.951 5.25 5.25 0 002.817-.939 11.1 11.1 0 003.558-4.002c.093-.174.24-.459.327-.636a11.116 11.116 0 001.197-5.244z" fill="#000"/><path d="M36.073 35.037c1.608 1.611 2.6 4.086 2.75 7.161.172 3.525-.743 7.53-2.582 11.349a35.372 35.372 0 01-.711 1.383c-2.037 3.717-4.761 6.789-7.731 8.7-2.1 1.353-4.161 2.037-6.126 2.037a7.674 7.674 0 01-1.938-.243 7.024 7.024 0 005.1 2.064c1.965 0 4.026-.684 6.126-2.037 2.97-1.914 5.7-4.986 7.734-8.7.204-.378.522-.996.708-1.383 1.842-3.819 2.757-7.824 2.583-11.349-.237-4.755-2.493-8.082-5.913-8.982z" fill="#459AE9"/><path opacity=".35" d="M36.073 35.037c1.608 1.611 2.6 4.086 2.75 7.161.172 3.525-.743 7.53-2.582 11.349a35.372 35.372 0 01-.711 1.383c-2.037 3.717-4.761 6.789-7.731 8.7-2.1 1.353-4.161 2.037-6.126 2.037a7.674 7.674 0 01-1.938-.243 7.024 7.024 0 005.1 2.064c1.965 0 4.026-.684 6.126-2.037 2.97-1.914 5.7-4.986 7.734-8.7.204-.378.522-.996.708-1.383 1.842-3.819 2.757-7.824 2.583-11.349-.237-4.755-2.493-8.082-5.913-8.982z" fill="#000"/><path d="M36.793 36.972h-.018l-3.321-1.923h-.027c-2.1-1.062-4.887-.75-7.896 1.2-6.045 3.9-10.665 12.873-10.317 20.055.174 3.579 1.55 6.036 3.636 7.119h.018l3.324 1.926h.024c2.1 1.065 4.89.753 7.902-1.185 6.045-3.9 10.665-12.873 10.314-20.055-.18-3.61-1.554-6.054-3.64-7.137z" fill="#37474F"/><path d="M22.033 65.241l-3.168-1.845h-.021c-2.082-1.086-3.459-3.543-3.633-7.119-.156-3.213.678-6.777 2.181-10.077l3.333 1.926c-1.5 3.3-2.34 6.861-2.184 10.065.162 3.504 1.482 5.931 3.492 7.05z" fill="#263238"/><path d="M37.668 55.355c4.028-7.832 3.629-16.067-.893-18.393-4.522-2.326-11.453 2.138-15.482 9.97-4.029 7.833-3.63 16.068.892 18.394 4.522 2.326 11.454-2.138 15.483-9.97z" fill="#455A64"/><path d="M25.045 63.648c-3.564.171-4.143-3.837-4.227-5.568-.3-6.333 3.936-14.586 9.267-18.021 1.359-.873 2.682-1.365 3.83-1.422 3.565-.171 4.144 3.837 4.228 5.568.3 6.333-3.936 14.586-9.27 18.021-1.356.873-2.68 1.365-3.828 1.422z" fill="#FAFAFA"/><path d="M30.181 52.329a.384.384 0 01-.39-.387v-9.165a.388.388 0 01.389-.424.39.39 0 01.388.424v8.034l4.275-5.49a.387.387 0 01.6.477l-4.956 6.384a.387.387 0 01-.306.147z" fill="#37474F"/><path d="M27.99 59.1a.175.175 0 01-.053 0 .163.163 0 01-.111-.201l2.15-7.251a.165.165 0 01.205-.108.162.162 0 01.108.201l-2.148 7.251a.174.174 0 01-.15.108z" fill="#459AE9"/><path d="M30.058 50.1c.71-.459 1.32-.144 1.362.702a2.944 2.944 0 01-1.215 2.358c-.711.459-1.32.144-1.362-.702a2.934 2.934 0 011.215-2.358z" fill="#459AE9"/><path d="M49.684 41.508a.04.04 0 000-.018.488.488 0 00-.04-.117v-.021a.41.41 0 00-.06-.099.664.664 0 00-.08-.078.6.6 0 00-.528-.081l-2.56.696a.694.694 0 01-.875-.561 16.749 16.749 0 00-.423-1.71 1.502 1.502 0 01-.042-.552.962.962 0 01.024-.162.107.107 0 010-.033c0-.045.02-.093.036-.135.015-.042.015-.039.02-.06a.956.956 0 01.082-.186c0-.021.02-.045.033-.066a1.42 1.42 0 01.093-.129l2.319-2.742a.97.97 0 00.162-.282 1.2 1.2 0 00.072-.501.995.995 0 00-.141-.471l-.768-1.251-.783-1.275a.783.783 0 00-.087-.111.799.799 0 00-.096-.081h-.021a.6.6 0 00-.765.084L42.76 33.84a.834.834 0 01-1.125-.021 11.224 11.224 0 00-1.023-.837 1.075 1.075 0 01-.39-1.164l.186-.528.372-1.059.6-1.725a.62.62 0 00.033-.144v-.189a.732.732 0 00-.015-.087v-.048a.687.687 0 00-.033-.084l-.018-.042a.628.628 0 00-.063-.093.074.074 0 000-.021.967.967 0 00-.096-.096l-.033-.024a.713.713 0 00-.243-.123l-2.58-.756a.954.954 0 00-1.107.447l-1.5 3.018a1.157 1.157 0 01-.99.636c-.21 0-.423-.018-.636-.018-.39 0-.783.018-1.173.054a.738.738 0 01-.831-.678l-.102-1.272v-.063l-.1-1.239a.81.81 0 00-.026-.153l-.021-.045a.435.435 0 00-.036-.087.23.23 0 00-.033-.042.342.342 0 00-.048-.063.46.46 0 00-.045-.036.27.27 0 00-.057-.045.6.6 0 00-.52-.03l-3.251 1.221a1.317 1.317 0 00-.783 1.044l-.204 2.754a1.473 1.473 0 01-.534 1.053l-.465.3c-.6.382-1.18.798-1.74 1.248a.761.761 0 01-1.08-.117l-1.164-1.482a.657.657 0 00-1.017-.051l-3 3.117a1.2 1.2 0 00-.207 1.26l.963 2.034a1.47 1.47 0 01-.114 1.335c-.492.72-.958 1.465-1.398 2.235a1.2 1.2 0 01-1.146.555L13.9 43.35a1.038 1.038 0 00-1.068.6l-1.746 4.149a.786.786 0 00.408 1.026l1.89.822A.93.93 0 0113.903 51c-.2.774-.366 1.544-.498 2.31a1.657 1.657 0 01-.82 1.101l-2.621 1.245a1.347 1.347 0 00-.702 1.11v3.876a.58.58 0 00.3.54l.063.018.072.021h.048c.03.003.06.003.09 0h.045a.627.627 0 00.144-.024l.663-.18 1.83-.498a.696.696 0 01.882.561c.114.587.26 1.168.438 1.74a1.548 1.548 0 01-.25 1.326l-2.28 2.7a1.143 1.143 0 00-.092 1.254l1.536 2.502a.66.66 0 00.318.273.557.557 0 00.117.03h.033a.482.482 0 00.093 0h.03a.94.94 0 00.12-.024h.024a.648.648 0 00.093-.045l.033-.018a.958.958 0 00.11-.081l2.479-2.259a.846.846 0 011.13.018c.327.298.672.575 1.033.831a1.07 1.07 0 01.39 1.173l-1.161 3.3a.726.726 0 00.336.9h.018a.531.531 0 00.135.054l1.29.378 1.29.378c.05.016.103.026.156.03a.731.731 0 00.162 0 1.015 1.015 0 00.57-.252.9.9 0 00.192-.255l.756-1.524.765-1.509a1.07 1.07 0 01.096-.159l.033-.045.087-.099a.283.283 0 01.042-.042l.099-.087.039-.03a.9.9 0 01.54-.189c.195 0 .393.015.6.015.414 0 .829-.021 1.242-.063a.74.74 0 01.83.675l.208 2.628a.565.565 0 00.33.504l.048.021.078.015h.186a.851.851 0 00.144-.039l3.249-1.2a1.02 1.02 0 00.3-.165c.091-.074.174-.159.246-.252.033-.048.066-.099.096-.15a1.16 1.16 0 00.156-.477l.21-2.844a1.819 1.819 0 01.24-.753.814.814 0 01.252-.276l.41-.288.409-.273.159-.108.24-.168.2-.147.19-.138.225-.171.342-.264a.763.763 0 011.08.117l1.2 1.545a.7.7 0 00.222.189h.03l.087.033h.042l.09.015h.033a.603.603 0 00.126 0h.024l.099-.03.039-.015.084-.045.033-.024a.601.601 0 00.108-.09l3-3.117a1.08 1.08 0 00.246-.432c.033-.111.05-.226.054-.342a1.05 1.05 0 00-.093-.486l-1.011-2.127a1.126 1.126 0 01-.093-.324 1.422 1.422 0 010-.357c.008-.12.032-.24.069-.354a1.06 1.06 0 01.147-.3 36.666 36.666 0 001.353-2.163 1.202 1.202 0 01.98-.564.708.708 0 01.163 0l2.157.351a.918.918 0 00.159 0 1.05 1.05 0 00.47-.132.937.937 0 00.199-.147.918.918 0 00.24-.321l1.746-4.149a.785.785 0 00-.411-1.026l-1.962-.855a.918.918 0 01-.49-.567v-.036a.66.66 0 01-.02-.105.32.32 0 010-.048v-.105a.797.797 0 01.021-.186c.048-.189.096-.375.14-.561.088-.375.169-.747.244-1.119.036-.186.069-.372.102-.558a.89.89 0 01.039-.162c.136-.399.415-.733.783-.939l1.353-.642 1.353-.642a1.356 1.356 0 00.702-1.11v-3.852a.701.701 0 00-.042-.141zm-10.29 13.86a39.989 39.989 0 01-.708 1.383c-2.04 3.717-4.764 6.789-7.734 8.7-2.1 1.353-4.161 2.037-6.126 2.037a7.023 7.023 0 01-5.1-2.064c-.1-.102-.198-.207-.3-.3a8.885 8.885 0 01-1.623-2.7c0-.018-.015-.039-.024-.06a7.678 7.678 0 01-.135-.378c-.015-.036-.027-.075-.04-.111l-.107-.342c0-.048-.027-.096-.04-.144-.03-.108-.06-.216-.086-.327 0-.054-.027-.108-.042-.165l-.072-.318-.036-.183a7.94 7.94 0 01-.057-.321c0-.063-.024-.126-.033-.189a11.106 11.106 0 01-.048-.333c0-.063-.018-.126-.024-.189 0-.12-.027-.243-.04-.366 0-.057 0-.111-.014-.168 0-.18-.03-.363-.04-.546-.18-3.744.862-8.022 2.932-12.048s4.947-7.362 8.1-9.39c2.1-1.35 4.16-2.037 6.126-2.037h.591c.117 0 .234.018.348.033h.12l.36.057.084.018c.147.027.3.06.435.096 3.42.9 5.676 4.227 5.904 8.982.186 3.549-.73 7.554-2.571 11.373z" fill="#459AE9"/><path d="M45.091 39.501c.17.562.312 1.133.423 1.71a.694.694 0 00.876.561l2.559-.696a.6.6 0 01.462.039c-.126-.069-2.976-1.722-3.15-1.818a.598.598 0 00-.465-.042l-.714.195.009.051z" fill="#459AE9"/><path opacity=".2" d="M45.091 39.501c.17.562.312 1.133.423 1.71a.694.694 0 00.876.561l2.559-.696a.6.6 0 01.462.039c-.126-.069-2.976-1.722-3.15-1.818a.598.598 0 00-.465-.042l-.714.195.009.051z" fill="#000"/><path d="M40.597 32.952c.357.259.698.538 1.023.837a.834.834 0 001.125.02l2.496-2.273a.6.6 0 01.765-.084h-.024l-3.16-1.824a.621.621 0 00-.734.102l-1.695 1.545-.186.528a1.074 1.074 0 00.39 1.149z" fill="#459AE9"/><path opacity=".2" d="M40.597 32.952c.357.259.698.538 1.023.837a.834.834 0 001.125.02l2.496-2.273a.6.6 0 01.765-.084h-.024l-3.16-1.824a.621.621 0 00-.734.102l-1.695 1.545-.186.528a1.074 1.074 0 00.39 1.149z" fill="#000"/><path d="M17.593 73.8l1.16-3.3a1.07 1.07 0 00-.392-1.161 10.88 10.88 0 01-1.032-.831.846.846 0 00-1.131-.018l-.783.714L14.44 72a.728.728 0 00.324.885c.05.027 2.85 1.647 3.153 1.818a.726.726 0 01-.324-.903z" fill="#459AE9"/><path opacity=".3" d="M17.593 73.8l1.16-3.3a1.07 1.07 0 00-.392-1.161 10.88 10.88 0 01-1.032-.831.846.846 0 00-1.131-.018l-.783.714L14.44 72a.728.728 0 00.324.885c.05.027 2.85 1.647 3.153 1.818a.726.726 0 01-.324-.903z" fill="#000"/><path d="M27.07 74.592l-.207-2.628a.741.741 0 00-.831-.675c-.413.042-.827.063-1.242.063-.198 0-.396 0-.6-.015a.9.9 0 00-.39.096l.105 1.338a.6.6 0 00.258.468c.14.093 3.02 1.746 3.174 1.836l.054.021a.564.564 0 01-.321-.504z" fill="#459AE9"/><path opacity=".3" d="M27.07 74.592l-.207-2.628a.741.741 0 00-.831-.675c-.413.042-.827.063-1.242.063-.198 0-.396 0-.6-.015a.9.9 0 00-.39.096l.105 1.338a.6.6 0 00.258.468c.14.093 3.02 1.746 3.174 1.836l.054.021a.564.564 0 01-.321-.504z" fill="#000"/><path d="M37.075 69.09l-1.2-1.545a.762.762 0 00-1.08-.117l-.342.264.048-.033 2.796 1.614a.699.699 0 01-.222-.183z" fill="#459AE9"/><path opacity=".3" d="M37.075 69.09l-1.2-1.545a.762.762 0 00-1.08-.117l-.342.264.048-.033 2.796 1.614a.699.699 0 01-.222-.183z" fill="#000"/><path d="M47.452 53.172l-2.451-1.422a.918.918 0 00.489.567l1.962.855z" fill="#459AE9"/><path opacity=".3" d="M47.452 53.172l-2.451-1.422a.918.918 0 00.489.567l1.962.855z" fill="#000"/><path d="M32.926 30.945a12.787 12.787 0 011.809-.036 1.158 1.158 0 00.98-.645l1.5-3.018a.954.954 0 011.09-.477l2.58.756c.088.025.17.067.243.123l-.06-.045-3.168-1.83a.764.764 0 00-.168-.07l-2.58-.755a.954.954 0 00-1.09.477l-1.5 3.018c-.125.24-.325.434-.57.552l.103 1.272a.739.739 0 00.83.678z" fill="#459AE9"/><path opacity=".1" d="M34.735 30.9a.975.975 0 00.576-.192l-3.153-1.818a1.132 1.132 0 01-.165.096l.102 1.272a.739.739 0 00.83.678c.39-.036.784-.054 1.174-.054.213.018.426.018.636.018z" fill="#000"/><path opacity=".5" d="M41.125 27.648l-.06-.045-3.168-1.83a.76.76 0 00-.168-.07l-2.58-.755a.934.934 0 00-.774.129l3.15 1.82a.933.933 0 01.774-.128l2.58.756c.09.025.173.066.246.123z" fill="#FAFAFA"/><path opacity=".2" d="M34.369 25.077a.872.872 0 00-.3.348l-1.5 3.018a1.2 1.2 0 01-.405.456l3.153 1.818a1.2 1.2 0 00.405-.453l1.5-3.018a.9.9 0 01.3-.345l-3.153-1.824z" fill="#000"/><path d="M9.262 60.636V56.76a1.347 1.347 0 01.702-1.11l2.622-1.245a1.66 1.66 0 00.819-1.101c.132-.766.298-1.536.498-2.31a.93.93 0 00-.507-1.06l-1.89-.821a.786.786 0 01-.408-1.026l1.746-4.15a1.038 1.038 0 011.068-.6l2.067.34a1.2 1.2 0 001.146-.543c.438-.77.904-1.515 1.398-2.235a1.471 1.471 0 00.114-1.335l-.97-2.043a1.2 1.2 0 01.208-1.26l3-3.117a.655.655 0 011.017.05l1.164 1.483a.763.763 0 001.08.117c.57-.45 1.15-.866 1.74-1.248l.465-.3a1.473 1.473 0 00.534-1.053l.204-2.754a1.318 1.318 0 01.783-1.044l3.249-1.215a.6.6 0 01.519.03c-.141-.078-3-1.737-3.156-1.824a.6.6 0 00-.507-.018l-3.246 1.2a1.311 1.311 0 00-.783 1.044l-.213 2.769a1.462 1.462 0 01-.531 1.053c-.156.093-.3.192-.465.3-.498.32-.99.666-1.473 1.038 0 0-2.652-1.536-2.736-1.578a.65.65 0 00-.792.138l-3.003 3.108a1.2 1.2 0 00-.204 1.26l.969 2.043a1.482 1.482 0 01-.114 1.335c-.492.72-.96 1.465-1.401 2.235a1.2 1.2 0 01-1.143.555l-2.067-.34a1.035 1.035 0 00-1.068.6l-1.75 4.15a.792.792 0 00.319.978l2.469 1.425a.9.9 0 01.02.504c-.2.774-.365 1.544-.497 2.31a1.662 1.662 0 01-.822 1.1l-2.622 1.249a1.335 1.335 0 00-.7 1.107v3.876a.6.6 0 00.27.525l3.15 1.818.037.018a.578.578 0 01-.31-.552z" fill="#459AE9"/><path opacity=".5" d="M31.624 27.219c-.141-.078-3-1.737-3.156-1.824a.601.601 0 00-.507-.018l-3.246 1.2c-.166.067-.316.17-.438.3l3.144 1.833c.12-.131.27-.234.435-.3l3.249-1.215a.6.6 0 01.519.024z" fill="#FAFAFA"/><path opacity=".2" d="M24.265 26.889a1.27 1.27 0 00-.345.738l-.195 2.754a1.658 1.658 0 01-.117.492l3.14 1.827c.066-.157.106-.323.12-.492l.205-2.754a1.28 1.28 0 01.348-.738l-3.156-1.827z" fill="#000"/><path opacity=".1" d="M23.596 30.873a1.2 1.2 0 01-.414.56c-.156.094-.3.193-.465.3-.498.32-.988.667-1.47 1.039l.432.252a.69.69 0 01.207.177l1.164 1.482a.762.762 0 001.08.117c.57-.45 1.15-.866 1.74-1.248l.465-.3c.19-.139.334-.331.414-.552l-3.153-1.827z" fill="#000"/><path opacity=".5" d="M21.646 33l-3.135-1.8a.651.651 0 00-.792.138l-2.994 3.102c-.152.167-.25.376-.282.6l3.153 1.821c.037-.226.141-.435.3-.6l3-3.117a.654.654 0 01.75-.144z" fill="#FAFAFA"/><path opacity=".2" d="M17.668 37.52a1.112 1.112 0 01-.078-.644l-3.165-1.821c-.035.22-.004.444.09.645l.969 2.043c.073.166.11.346.108.528l3.153 1.82a1.201 1.201 0 00-.108-.527l-.97-2.043z" fill="#000"/><path opacity=".1" d="M15.37 39.078c-.492.72-.96 1.465-1.401 2.235-.123.2-.304.36-.52.456l3.154 1.821c.216-.096.397-.255.522-.456.438-.77.904-1.515 1.398-2.235.152-.241.23-.522.222-.807l-3.153-1.821c.007.285-.07.566-.222.807z" fill="#000"/><path opacity=".2" d="M12.826 41.868l-2.067-.34a.99.99 0 00-.648.133l3.153 1.82a.994.994 0 01.648-.131l2.067.339c.213.028.43-.007.624-.1l-3.153-1.82a1.11 1.11 0 01-.624.099z" fill="#000"/><path opacity=".5" d="M10.111 41.66a.993.993 0 00-.42.457l-1.749 4.149a.792.792 0 00.318.978l2.469 1.425.6.345a.786.786 0 01-.243-.924l1.746-4.15a.993.993 0 01.42-.455l-3.141-1.824z" fill="#FAFAFA"/><path opacity=".2" d="M10.729 48.669a.9.9 0 01.02.504c-.2.774-.365 1.544-.497 2.31a1.53 1.53 0 01-.3.648l3.153 1.82c.15-.188.252-.41.3-.647.132-.766.298-1.536.498-2.31a.93.93 0 00-.507-1.06l-1.89-.821a.804.804 0 01-.162-.1l-.615-.344z" fill="#000"/><path opacity=".1" d="M9.952 52.131c-.136.19-.315.345-.522.453l-2.622 1.248c-.232.121-.42.31-.54.543l3.153 1.821a1.3 1.3 0 01.543-.546l2.622-1.245a1.5 1.5 0 00.519-.453l-3.153-1.821z" fill="#000"/><path opacity=".5" d="M9.565 61.176a.58.58 0 01-.3-.54V56.76c.007-.198.061-.392.159-.564L6.27 54.375a1.2 1.2 0 00-.16.564v3.876a.6.6 0 00.27.525l3.15 1.818.034.018z" fill="#FAFAFA"/><path d="M12.739 70.61l-1.536-2.51a1.143 1.143 0 01.093-1.254l2.28-2.7a1.547 1.547 0 00.249-1.326 16.584 16.584 0 01-.438-1.74.695.695 0 00-.882-.561l-1.83.498a1.548 1.548 0 01-.255 1.308l-2.277 2.7a1.15 1.15 0 00-.096 1.254l1.539 2.502c.06.1.146.185.249.243a848.24 848.24 0 013.147 1.818l.075.033a.66.66 0 01-.318-.264z" fill="#459AE9"/><path opacity=".2" d="M13.825 62.832a16.56 16.56 0 01-.438-1.74.696.696 0 00-.882-.561l-1.83.498c.08.317.06.651-.057.957l3.153 1.821c.121-.31.14-.653.054-.975z" fill="#000"/><path opacity=".3" d="M7.924 65.529l3.156 1.82a1.03 1.03 0 01.216-.494l2.28-2.7c.085-.105.15-.224.195-.351l-3.153-1.821a1.113 1.113 0 01-.198.35l-2.277 2.7c-.115.144-.19.315-.22.496z" fill="#000"/><path opacity=".2" d="M12.982 70.85l.075.034a.66.66 0 01-.318-.273L11.203 68.1a1.1 1.1 0 01-.123-.76l-3.156-1.82c-.05.26-.006.528.123.759l1.539 2.502c.06.1.147.185.249.243.228.135 3.054 1.776 3.147 1.827z" fill="#000"/><path d="M35.81 103.755a3.15 3.15 0 001.47 2.442l32.018 18.492a3.257 3.257 0 002.943 0l56.382-32.553a2.76 2.76 0 000-4.884L96.604 68.76a3.256 3.256 0 00-2.94 0L37.28 101.313a3.153 3.153 0 00-1.47 2.442z" fill="#459AE9"/><path opacity=".5" d="M130.096 89.7a3.17 3.17 0 01-1.47 2.442l-56.4 32.553a3.058 3.058 0 01-1.47.351v-3.192a3.01 3.01 0 001.47-.351l56.4-32.553c.711-.411.798-1.044.264-1.5a3.155 3.155 0 011.206 2.25z" fill="#000"/><path opacity=".3" d="M37.279 103.011L69.298 121.5a3.257 3.257 0 002.943 0l56.382-32.55c.813-.471.813-1.23 0-1.698L96.603 68.76a3.256 3.256 0 00-2.94 0L37.28 101.313c-.813.468-.813 1.23 0 1.698z" fill="#000"/><path opacity=".7" d="M70.771 121.857v3.183a2.999 2.999 0 01-1.47-.351L37.28 106.2a2.748 2.748 0 01-.15-4.8c-.66.471-.6 1.164.15 1.602L69.301 121.5a2.99 2.99 0 001.47.357z" fill="#000"/><path d="M34.429 101.367c-.762-.441-.72-1.185-.72-2.121V55.017a3.253 3.253 0 011.473-2.547L91.56 19.917a3.163 3.163 0 012.85-.054c.765.441.723 1.2.723 2.121v44.229a3.253 3.253 0 01-1.47 2.547l-56.385 32.553a3.163 3.163 0 01-2.85.054z" fill="#459AE9"/><path opacity=".3" d="M95.125 21.984c0-.936-.66-1.317-1.47-.849L37.279 53.7c-.436.27-.795.648-1.041 1.098l-2.1-1.221a3 3 0 011.04-1.098l56.383-32.562a3.153 3.153 0 012.85-.054c.762.441.714 1.185.714 2.121z" fill="#000"/><path opacity=".5" d="M35.81 56.235v44.229c0 .939.656 1.317 1.47.849l56.4-32.553a3.252 3.252 0 001.47-2.547v-44.23c0-.935-.66-1.316-1.47-.848L37.28 53.7a3.255 3.255 0 00-1.47 2.535z" fill="#000"/><path opacity=".7" d="M37.105 101.4a3.166 3.166 0 01-2.676-.039c-.762-.438-.72-1.182-.72-2.118V55.017a2.953 2.953 0 01.432-1.449l2.1 1.218a3.024 3.024 0 00-.432 1.446v44.232c-.003.87.567 1.26 1.296.936z" fill="#000"/><path d="M38.071 55.386L92.425 24c.486-.282.882-.054.882.51v38.616a1.943 1.943 0 01-.882 1.527L38.071 96.03c-.489.282-.885.054-.885-.507v-38.61a1.95 1.95 0 01.885-1.527z" fill="#FAFAFA"/><path opacity=".3" d="M41.347 101.4l52.338-30.216a1.627 1.627 0 011.47 0l.873.48c.405.234.405.6 0 .849l-52.344 30.21a1.625 1.625 0 01-1.473 0l-.864-.474c-.405-.234-.405-.615 0-.849zm4.107 2.442l52.335-30.216a1.5 1.5 0 011.344-.075l13.623 7.866c.336.195.279.54-.129.774l-52.275 30.177a1.504 1.504 0 01-1.344.075l-13.683-7.827c-.333-.195-.279-.54.129-.774z" fill="#263238"/><path d="M90.802 86.316l1.64-.945c.07-.042.076-.102 0-.138l-1.565-.9a.26.26 0 00-.24 0l-1.638.945c-.07.042-.075.102 0 .138l1.566.9a.264.264 0 00.237 0zm-2.4-3.273l-1.63.957c-.071.042-.077.102-.014.138l1.569.9a.264.264 0 00.237 0l1.638-.945c.069-.042.075-.102.015-.138l-1.57-.9a.255.255 0 00-.236-.012h-.01zM83.125 86.1l-2.772 1.599c-.07.042-.075.102-.015.138l1.569.9a.256.256 0 00.237 0l2.772-1.6c.072-.041.078-.101.015-.137l-1.566-.9a.26.26 0 00-.24 0zm2.9-1.674l-1.64.945c-.07.042-.075.102 0 .138l1.566.9a.269.269 0 00.24 0l1.638-.945c.069-.042.075-.102 0-.138l-1.566-.9a.255.255 0 00-.246 0h.009zm-6.428 3.711l-1.638.945c-.072.042-.078.102-.015.138l1.566.9a.269.269 0 00.24 0l1.638-.945c.069-.042.075-.102.015-.138l-1.57-.9a.264.264 0 00-.245 0h.009zm-2.4 1.383l-1.638.945c-.07.042-.075.102 0 .138l1.566.9a.265.265 0 00.237 0l1.64-.945c.07-.042.076-.102 0-.138l-1.565-.9a.261.261 0 00-.246 0h.006zm6.147 3.693l1.638-.945c.069-.042.075-.102.015-.138l-1.57-.9a.256.256 0 00-.236 0l-1.641.945c-.07.042-.075.102 0 .138l1.566.9a.269.269 0 00.222 0h.006zm-2.4 1.383l1.64-.948c.07-.04.076-.1 0-.135l-1.565-.9a.26.26 0 00-.24 0l-1.638.945c-.07.039-.075.102-.015.138l1.569.9a.276.276 0 00.246 0h.003zm-2.4 1.383l1.638-.948c.069-.04.078-.102.015-.135l-1.57-.9a.255.255 0 00-.236 0l-1.638.945c-.07.039-.075.102-.015.138l1.569.9a.264.264 0 00.24 0h-.003zm-2.4 1.383l1.638-.948c.069-.039.075-.102 0-.138l-1.57-.9a.264.264 0 00-.236 0l-1.641.948c-.07.039-.075.102 0 .138l1.566.9a.271.271 0 00.252 0h-.01zm12.255-9.663l1.638-.945c.069-.042.078-.102.015-.138l-1.57-.9a.256.256 0 00-.236 0l-1.638.945c-.07.042-.075.102-.015.138l1.569.9a.263.263 0 00.246 0h-.01zm-2.676 4.131l3.654-2.1c.072-.042.078-.102.015-.138l-3.807-2.2a.256.256 0 00-.237 0L83.464 88.5c-.07.039-.075.099 0 .135l2.016 1.164c.06.036.054.099-.015.138l-1.5.873c-.07.042-.078.102-.015.138l1.569.9a.263.263 0 00.213-.018h-.01zm-10.926-.93l-1.638.945c-.07.042-.075.102-.015.138l1.569.9a.264.264 0 00.237 0l1.638-.945c.072-.042.078-.102 0-.138l-1.563-.9a.256.256 0 00-.228 0zm-2.4 1.383l-1.638.945c-.072.039-.078.102-.015.138l1.566.9a.281.281 0 00.24 0l1.638-.948c.069-.04.075-.1.015-.135l-1.57-.9a.255.255 0 00-.23.003l-.006-.003zm-13.254 14.763a.27.27 0 00.237 0l1.64-.945c.07-.042.076-.102 0-.138l-1.565-.9a.263.263 0 00-.24 0l-1.638.945c-.07.042-.075.102 0 .138l1.566.9zm-5.907-3.702l-1.638.945c-.07.042-.075.102-.015.138l1.569.9a.257.257 0 00.237 0l1.638-.945c.072-.042.078-.102 0-.138l-1.566-.9a.275.275 0 00-.219.003l-.006-.003zm3.039 2.772a.257.257 0 00.237 0l1.638-.945c.069-.039.075-.102 0-.138l-1.57-.9a.27.27 0 00-.236 0l-1.638.945c-.072.042-.078.102-.015.138l1.584.9zm6.6 1.485l1.638-.945c.072-.039.078-.102.015-.138l-1.566-.9a.263.263 0 00-.12-.028.263.263 0 00-.12.028l-1.638.948c-.07.039-.075.102 0 .135l1.569.9a.263.263 0 00.116.03.268.268 0 00.118-.027l-.012-.003zm-2.631 1.392a.257.257 0 00.237 0l1.638-.945c.069-.039.075-.102 0-.138l-1.57-.9a.27.27 0 00-.236 0l-1.638.948c-.072.039-.078.099-.015.135l1.584.9zm-4.617-7.032l-1.63.939c-.068.042-.074.102 0 .138l1.567.9a.263.263 0 00.24 0l1.638-.945c.069-.042.075-.102 0-.138l-1.566-.9a.273.273 0 00-.12-.024.269.269 0 00-.117.033l-.012-.003zM67.6 95.046L65.974 96c-.07.039-.075.102-.015.138l1.569.9a.264.264 0 00.237 0l1.638-.948c.072-.04.078-.102.015-.138l-1.57-.9a.264.264 0 00-.236-.003l-.012-.003zm-9.58 5.532l-1.637.945c-.072.042-.078.102-.015.138l1.569.9a.257.257 0 00.237 0l1.638-.945c.069-.039.075-.102 0-.138l-1.57-.9a.273.273 0 00-.21.003l-.011-.003zm11.974-6.9l-1.638.945c-.07.039-.075.102 0 .138l1.566.9a.264.264 0 00.237 0l1.64-.948c.07-.04.076-.102 0-.135l-1.565-.9a.261.261 0 00-.228-.009l-.012.009zm-4.8 2.763l-1.638.948c-.072.039-.078.102 0 .138l1.566.9a.269.269 0 00.24 0L67 97.479c.069-.04.075-.102.015-.138l-1.57-.9a.265.265 0 00-.227-.01l-.024.01zm-2.4 1.383l-1.641.948c-.07.039-.075.102 0 .135l1.566.9a.26.26 0 00.24 0l1.638-.945c.069-.039.075-.102 0-.138l-1.566-.9a.264.264 0 00-.207-.01l-.03.01zm-2.4 1.383l-1.638.948c-.07.039-.075.099 0 .135l1.569.9a.257.257 0 00.237 0l1.638-.945c.072-.039.078-.102.015-.138l-1.566-.9a.27.27 0 00-.222-.009l-.033.009zm10.935.927l1.638-.945c.069-.039.078-.102.015-.138l-1.57-.9a.264.264 0 00-.236 0l-1.638.948c-.07.039-.075.102 0 .135l1.569.9c.04.021.084.031.128.03a.257.257 0 00.127-.039l-.033.009zm22.344-20.14l-1.641.946c-.07.042-.075.102 0 .138l1.566.9a.26.26 0 00.24 0l1.638-.945c.069-.042.075-.102 0-.138l-1.566-.9a.266.266 0 00-.204-.01l-.033.01zm-2.901 1.675l-1.638.945c-.07.042-.075.102-.015.138l1.569.9a.264.264 0 00.237 0l1.638-.945c.072-.042.078-.102.015-.138l-1.566-.9a.268.268 0 00-.207-.009l-.033.009zm5.328-3.07l-1.638.946c-.07.042-.078.102-.015.138l1.569.9a.255.255 0 00.237 0l1.638-.945c.069-.042.075-.102 0-.138l-1.566-.9a.276.276 0 00-.225 0zM82.86 90.9l1.642-.944c.069-.039.075-.102 0-.138l-1.566-.9a.281.281 0 00-.24 0l-1.638.948c-.07.039-.075.099 0 .135l1.569.9a.255.255 0 00.234 0zm15.865-13.688a.283.283 0 00-.24 0l-1.638.948c-.07.039-.075.099 0 .135l1.569.9a.256.256 0 00.237 0l1.638-.945c.072-.04.078-.102.015-.138l-1.581-.9zM73.747 98.745l1.64-.948c.07-.04.076-.102 0-.138l-1.565-.9a.27.27 0 00-.24 0l-1.638.948c-.07.039-.075.102-.015.138l1.569.9a.264.264 0 00.258 0h-.01zm29.37-16.96l1.638-.944c.072-.04.078-.102.015-.138l-1.545-.903a.286.286 0 00-.24 0l-1.638.948c-.069.039-.075.099-.015.135l1.569.9a.251.251 0 00.225.003h-.009zm-4.635.091l1.641-.945c.069-.04.075-.102 0-.138l-1.566-.9a.283.283 0 00-.24 0l-1.638.945c-.07.042-.075.102-.015.138l1.569.9a.255.255 0 00.258 0h-.01zm2.481-3.372a.278.278 0 00-.237 0l-1.641.948c-.07.039-.075.099 0 .135l1.566.9a.26.26 0 00.24 0l1.638-.945c.069-.039.075-.102.015-.138l-1.581-.9zm.504-.3l3.816 2.196a.26.26 0 00.24 0l1.638-.945c.069-.039.075-.102.015-.138l-3.81-2.196a.267.267 0 00-.237 0l-1.638.948c-.066.048-.066.11-.015.144l-.009-.01zm-5.532 3.066l-1.638.945c-.07.042-.075.102 0 .138l1.569.9a.256.256 0 00.237 0l1.638-.945c.072-.042.078-.102.015-.138l-1.57-.9a.265.265 0 00-.242.009l-.01-.01zM77.91 91.677l-1.638.945c-.072.042-.078.102-.015.138l1.566.9a.27.27 0 00.24 0l1.638-.945c.069-.042.075-.102.015-.138l-1.57-.9a.266.266 0 00-.227.009l-.01-.01zm22.575-8.508a.253.253 0 00.237 0l1.638-.945c.069-.042.075-.102.015-.138l-1.569-.9a.268.268 0 00-.237 0l-1.638.945c-.07.042-.078.102-.015.138l1.569.9zm-20.172 7.13l-1.638.946c-.07.042-.075.102-.015.138l1.569.9a.255.255 0 00.237 0l1.638-.945c.069-.042.078-.102 0-.138l-1.57-.9a.264.264 0 00-.221 0zm-18.771 15.364a.277.277 0 00.24 0l1.638-.945c.069-.042.075-.102.015-.138l-1.57-.9a.257.257 0 00-.118-.028.257.257 0 00-.118.028l-1.638.945c-.072.042-.078.102 0 .138l1.55.9zm-2.784-2.919l-1.638.948c-.07.039-.075.102 0 .135l1.569.9a.257.257 0 00.237 0l1.638-.945c.072-.039.078-.102.015-.138l-1.566-.9a.271.271 0 00-.128-.029.27.27 0 00-.127.032v-.003zm5.418 1.527l1.638-.945c.072-.042.078-.102 0-.138l-1.57-.9a.257.257 0 00-.118-.028.257.257 0 00-.118.028l-1.638.945c-.07.042-.075.102-.015.138l1.569.9a.263.263 0 00.125.035.265.265 0 00.127-.032v-.003zm2.4-1.383l1.64-.945c.07-.039.076-.102 0-.138l-1.565-.9a.263.263 0 00-.12-.028.263.263 0 00-.12.028l-1.638.945c-.07.042-.075.102 0 .138l1.566.9a.255.255 0 00.23.012l.007-.012zm2.4-1.383l1.638-.945c.069-.039.075-.102 0-.138l-1.57-.9a.276.276 0 00-.236 0l-1.638.948c-.072.039-.078.102-.015.135l1.566.9a.25.25 0 00.122.032.253.253 0 00.124-.029l.009-.003zm-7.8-.144l-1.662.939c-.07.039-.075.102 0 .135l1.566.9a.263.263 0 00.24 0l1.638-.945c.069-.039.075-.102 0-.138l-1.566-.9a.26.26 0 00-.237.012l.02-.003zm2.4-1.383l-1.638.948c-.072.039-.078.102 0 .138l1.569.9a.27.27 0 00.237 0l1.638-.948c.069-.039.075-.102.015-.138l-1.57-.9a.263.263 0 00-.278.003l.027-.003zm9.579-5.53l-1.665.952c-.07.042-.075.102-.015.138l1.569.9a.264.264 0 00.237 0l1.638-.945c.072-.042.078-.102 0-.138l-1.57-.9a.254.254 0 00-.221-.003l.027-.003zm-2.4 1.384l-1.638.945c-.072.039-.078.102-.015.138l1.566.9a.281.281 0 00.24 0l1.638-.945c.069-.042.075-.102.015-.138l-1.57-.9a.256.256 0 00-.257.003l.02-.003zm4.8-2.766l-1.638.945c-.07.042-.075.102 0 .138l1.566.9a.264.264 0 00.237 0l1.64-.945c.07-.042.076-.102 0-.138l-1.565-.9a.261.261 0 00-.273.003l.033-.003zm-9.58 5.529l-1.637.948c-.07.039-.075.102-.015.138l1.569.9a.27.27 0 00.237 0l1.638-.948c.072-.04.078-.102.015-.138l-1.57-.9a.265.265 0 00-.27.003l.034-.003zm2.4-1.38l-1.637.945c-.07.039-.075.102 0 .138l1.566.9a.265.265 0 00.237 0l1.64-.948c.07-.04.076-.102 0-.135l-1.565-.9a.261.261 0 00-.28.003l.04-.003zm-3.056 9l1.64-.948c.07-.039.076-.102 0-.138l-1.565-.9a.263.263 0 00-.12-.028.263.263 0 00-.12.028l-1.638.948c-.07.039-.075.102 0 .138l1.566.9a.261.261 0 00.198.009l.039-.009zm-12.627-.6l-1.57-.9a.257.257 0 00-.236 0l-1.662.96c-.072.042-.078.102 0 .138l1.569.9a.27.27 0 00.237 0l1.638-.945c.039-.045.045-.105-.015-.141l.039-.012zm3.12.783l-1.566-.9a.257.257 0 00-.119-.028.257.257 0 00-.118.028l-2.523 1.455c-.07.042-.075.102 0 .138l1.566.9a.27.27 0 00.237 0l2.523-1.455c.012-.036.012-.09-.04-.126l.04-.012zm-5.46-2.571l-1.57-.9a.257.257 0 00-.118-.028.257.257 0 00-.118.028l-2.055 1.173c-.07.039-.078.102 0 .138l1.569.9a.27.27 0 00.237 0l2.016-1.164c.054-.039.06-.099 0-.135l.039-.012zm1.545-.9a.277.277 0 00.24 0l1.587-.927c.069-.039.075-.102.015-.135l-1.57-.9a.257.257 0 00-.236 0l-1.641.945c-.07.039-.075.102 0 .138l1.605.879zm6.747 4.413l-1.566-.9a.263.263 0 00-.24 0l-3.15 1.818c-.07.042-.078.102 0 .138l1.569.9a.27.27 0 00.237 0l3.15-1.818c.057-.042.063-.102 0-.138zm1.104 1.947l-1.566-.9a.257.257 0 00-.119-.028.257.257 0 00-.118.028l-2.02 1.164c-.068.042-.074.102 0 .138l1.567.9a.27.27 0 00.237 0l2.019-1.164c.057-.042.063-.102 0-.138zm9.918-16.62a.276.276 0 00.237 0l1.638-.948c.072-.039.078-.1.015-.135l-1.566-.9a.26.26 0 00-.24 0l-1.626.939c-.07.039-.075.102-.015.138l1.557.906zm-4.8 2.763a.27.27 0 00.24 0l1.638-.948c.069-.04.075-.102 0-.138l-1.566-.9a.264.264 0 00-.237 0l-1.617.945c-.07.039-.075.102 0 .138l1.542.903zm-10.62 6.132a.27.27 0 00.237 0l1.638-.948c.069-.039.075-.099 0-.135l-1.57-.9a.256.256 0 00-.236 0l-1.638.945c-.07.039-.078.102-.015.138l1.584.9zm13.017-7.515a.264.264 0 00.237 0l1.638-.948c.069-.04.075-.102.015-.135l-1.57-.9a.256.256 0 00-.236 0L65.725 93c-.072.039-.078.102 0 .138l1.539.909zm-4.8 2.766a.264.264 0 00.237 0l1.638-.948c.072-.04.078-.102.015-.138l-1.566-.9a.27.27 0 00-.24 0l-1.623.945c-.07.039-.075.102 0 .138l1.539.903zm-1.54 12.57a.257.257 0 00-.118-.028.257.257 0 00-.118.028l-2.52 1.455c-.07.042-.075.102-.015.138l1.569.9a.27.27 0 00.237 0l2.52-1.455c.072-.042.078-.102 0-.138l-1.554-.9zm-1.88-10.584a.27.27 0 00.24 0l1.638-.945c.069-.042.075-.102 0-.138l-1.566-.9a.256.256 0 00-.237 0l-1.641.945c-.07.042-.075.102 0 .138l1.566.9zm-2.4 1.383a.27.27 0 00.237 0l1.638-.945c.072-.042.078-.102.015-.138l-1.566-.9a.26.26 0 00-.24 0l-1.638.945c-.07.042-.075.102 0 .138l1.554.9zm48.651-16.416a.278.278 0 00-.237 0l-4.035 2.334c-.069.042-.075.102 0 .138l1.566.9a.26.26 0 00.24 0l4.032-2.328c.069-.039.078-.102.015-.138l-1.581-.906zm-5.292 3.057a.272.272 0 00-.24 0l-1.638.954c-.07.042-.075.102-.015.138l1.569.9a.255.255 0 00.237 0l1.638-.945c.072-.042.078-.102.015-.138l-1.566-.91zM67.678 104.84l1.638-.948c.069-.039.075-.102.015-.138l-1.57-.9a.257.257 0 00-.118-.028.257.257 0 00-.118.028l-1.638.945c-.072.039-.078.102 0 .138l1.566.9a.272.272 0 00.225.003zm27.534-15.252a.255.255 0 00-.237 0l-1.65.954c-.07.042-.075.102 0 .138l1.566.9a.27.27 0 00.24 0l1.638-.945c.069-.042.075-.102 0-.138l-1.557-.909zm12.48-7.2a.286.286 0 00-.24 0l-1.638.948c-.069.039-.075.102-.015.135l1.569.9a.252.252 0 00.237 0l1.638-.945c.072-.04.078-.102.015-.138l-1.566-.9zm3.963-.49l-3.81-2.195a.268.268 0 00-.237 0l-1.638.948c-.069.039-.075.102 0 .135l3.807 2.199a.26.26 0 00.24 0l1.638-.945c.054-.036.06-.1 0-.141zM86.263 94.75a.27.27 0 00-.24 0l-2.016 1.164c-.07.042-.075.102 0 .138l1.566.9a.265.265 0 00.237 0l2.019-1.164c.069-.039.075-.102 0-.138l-1.566-.9zm6.05-3.492a.26.26 0 00-.24 0l-2.52 1.455c-.068.039-.074.102-.014.138l1.569.9a.264.264 0 00.237 0l2.523-1.455c.069-.042.075-.102 0-.138l-1.554-.9zM80.725 97.96a.265.265 0 00-.237 0l-13.5 7.8c-.07.042-.075.102-.015.138l1.569.9a.27.27 0 00.237 0l13.5-7.8c.069-.04.075-.102.015-.138l-1.57-.9zm-14.244 8.223a.257.257 0 00-.237 0l-2.02 1.173c-.071.039-.077.102 0 .138l1.567.9a.277.277 0 00.24 0l2.016-1.167c.069-.039.075-.099.015-.135l-1.581-.909zm17.016-9.825a.256.256 0 00-.237 0l-2.016 1.164c-.07.039-.078.102-.015.138l1.569.9a.264.264 0 00.237 0l2.016-1.164c.072-.042.078-.102.015-.138l-1.57-.9zm-19.8 11.427a.263.263 0 00-.12-.028.263.263 0 00-.12.028l-2.016 1.164c-.07.042-.075.102 0 .138l1.566.9a.257.257 0 00.237 0l2.019-1.164c.069-.039.075-.102 0-.138l-1.566-.9zm25.335-14.628a.265.265 0 00-.237 0l-2.016 1.167c-.072.039-.078.099-.015.135l1.566.9a.261.261 0 00.24 0l2.016-1.164c.069-.039.075-.102.015-.138l-1.57-.9zm8.574-4.956a.256.256 0 00-.237 0l-1.644.96c-.07.042-.078.102 0 .138l1.569.9a.264.264 0 00.237 0l1.638-.945c.069-.042.075-.102.015-.138l-1.578-.915zm5.364-3.744l1.641-.945c.069-.042.075-.102 0-.138l-1.566-.9a.286.286 0 00-.24 0l-1.638.945c-.069.042-.075.102 0 .138l1.566.9a.252.252 0 00.237.006v-.006zm-9.771.47L94.825 84c.069-.042.075-.102 0-.138l-1.57-.9a.264.264 0 00-.236 0l-1.638.945c-.072.042-.078.102-.015.138l1.566.9a.26.26 0 00.267-.012v-.006zm-6.363 8.845l4.8-2.763c.069-.042.075-.102.015-.138l-1.57-.9a.256.256 0 00-.236 0l-4.8 2.766c-.07.039-.075.099 0 .135l1.569.9a.257.257 0 00.222.006v-.006zm13.5-7.923a.252.252 0 00.237 0l1.638-.945c.072-.042.078-.102.015-.138l-1.569-.9a.268.268 0 00-.237 0l-1.638.945c-.07.042-.075.102-.015.138l1.569.9zm-2.001-1.302l1.638-.945c.069-.042.075-.102.015-.138l-1.57-.9a.265.265 0 00-.236 0l-1.641.945c-.07.042-.075.102 0 .138l1.566.9a.261.261 0 00.23.006l-.002-.006zM84.442 95.16l1.638-.945c.069-.042.078-.102 0-.138l-1.57-.9a.265.265 0 00-.236 0l-1.638.945c-.07.042-.075.102-.015.138l1.569.9a.255.255 0 00.252 0zm10.602-6.25a.264.264 0 00.237 0l1.64-.944c.07-.042.076-.102 0-.138l-1.565-.9a.261.261 0 00-.24 0l-1.638.945c-.07.042-.075.102 0 .138l1.566.9zm-22.578 13.165l1.64-.948c.07-.039.076-.099 0-.135l-1.565-.9a.263.263 0 00-.24 0l-1.638.945c-.07.039-.075.102-.015.138l1.569.9a.27.27 0 00.249 0zm2.4-1.383l1.638-.945c.069-.042.075-.102.015-.138l-1.57-.9a.256.256 0 00-.236 0l-1.638.945c-.072.039-.078.102-.015.138l1.566.9a.285.285 0 00.237 0h.003zm-4.8 2.766l1.659-.948c.072-.039.078-.102.015-.135l-1.57-.9a.257.257 0 00-.236 0l-1.638.945c-.07.039-.075.102-.015.138l1.569.9a.266.266 0 00.222 0h-.006zm9.579-5.532l1.64-.945c.07-.042.076-.102 0-.138l-1.565-.9a.27.27 0 00-.24 0l-1.62.957c-.07.042-.075.102-.015.138l1.569.9a.263.263 0 00.237-.012h-.006zm-2.4 1.383l1.638-.945c.069-.042.078-.102.015-.138l-1.57-.9a.255.255 0 00-.236 0l-1.638.945c-.07.042-.075.102-.015.138l1.569.9a.264.264 0 00.249-.01l-.012.01zm4.8-2.766l1.638-.945c.069-.042.075-.102.015-.138l-1.57-.9a.264.264 0 00-.236 0l-1.641.945c-.07.042-.075.102 0 .138l1.566.9a.26.26 0 00.23 0h-.002zm13.08-19.236a.264.264 0 00.237 0l1.64-.948c.07-.04.076-.102 0-.138l-.416-.24a.256.256 0 00-.237 0l-1.638.945c-.07.042-.078.102-.015.138l.429.243zM83.22 84.846a.283.283 0 00.24 0l1.638-.948c.069-.04.075-.1 0-.135l-1.566-.9a.256.256 0 00-.237 0l-1.641.945c-.07.039-.075.102 0 .138l1.566.9zm4.8-2.766a.265.265 0 00.237 0l1.638-.945c.072-.042.078-.102.015-.138l-1.566-.9a.26.26 0 00-.24 0l-1.638.945c-.07.042-.075.102-.015.138l1.569.9zm-7.716 4.452a.269.269 0 00.24 0l1.638-.948c.069-.04.075-.102.015-.138l-1.57-.9a.255.255 0 00-.236 0l-1.656.954c-.072.039-.078.102-.015.138l1.584.894zm5.322-3.07a.264.264 0 00.237 0l1.638-.944c.069-.042.075-.102.015-.138l-1.57-.9a.255.255 0 00-.236 0l-1.638.945c-.072.042-.078.102-.015.138l1.569.9zm-10.11 5.836a.255.255 0 00.237 0l1.638-.945c.072-.039.078-.102 0-.138l-1.57-.9a.265.265 0 00-.236 0l-1.638.948c-.07.039-.075.102-.015.135l1.584.9zm2.4-1.383a.264.264 0 00.237 0l1.64-.948c.07-.039.076-.102 0-.138l-1.565-.9a.27.27 0 00-.24 0l-1.638.948c-.07.039-.075.102 0 .138l1.566.9zm12.408-7.842a.26.26 0 00.24 0l1.638-.945c.069-.039.075-.102.015-.138l-.417-.24a.26.26 0 00-.24 0l-1.638.945c-.07.039-.075.102-.015.138l.417.24zm7.2-4.15a.269.269 0 00.24 0l1.638-.947c.069-.04.075-.102.015-.138l-.417-.24a.26.26 0 00-.24 0l-1.638.945c-.07.042-.075.102-.015.138l.417.243zm3.3 1.903a.26.26 0 00.24 0l1.638-.945c.069-.04.075-.102 0-.138l-1.566-.9a.268.268 0 00-.237 0l-1.65.957c-.07.039-.075.102 0 .135l1.575.891zm4.563 5.253l1.638-.945c.069-.04.075-.102 0-.138l-1.569-.9a.267.267 0 00-.237 0l-1.638.948c-.072.039-.078.099-.015.135l1.566.9a.258.258 0 00.234 0h.021zm-12.663-4.39a.255.255 0 00.237 0l1.638-.944c.072-.04.078-.102.015-.138l-.417-.24a.255.255 0 00-.237 0l-1.644.933c-.07.039-.075.102 0 .138l.408.252zm-19.62 12a.261.261 0 00.24 0l1.638-.944c.069-.04.075-.102.015-.138l-1.57-.9a.276.276 0 00-.236 0l-1.638.948c-.072.039-.078.099 0 .135l1.55.9z" fill="#459AE9"/><path opacity=".1" d="M90.802 86.316l1.64-.945c.07-.042.076-.102 0-.138l-1.565-.9a.26.26 0 00-.24 0l-1.638.945c-.07.042-.075.102 0 .138l1.566.9a.264.264 0 00.237 0zm-2.4-3.273l-1.63.957c-.071.042-.077.102-.014.138l1.569.9a.264.264 0 00.237 0l1.638-.945c.069-.042.075-.102.015-.138l-1.57-.9a.255.255 0 00-.236-.012h-.01zM83.125 86.1l-2.772 1.599c-.07.042-.075.102-.015.138l1.569.9a.256.256 0 00.237 0l2.772-1.6c.072-.041.078-.101.015-.137l-1.566-.9a.26.26 0 00-.24 0zm2.9-1.674l-1.64.945c-.07.042-.075.102 0 .138l1.566.9a.269.269 0 00.24 0l1.638-.945c.069-.042.075-.102 0-.138l-1.566-.9a.255.255 0 00-.246 0h.009zm-6.428 3.711l-1.638.945c-.072.042-.078.102-.015.138l1.566.9a.269.269 0 00.24 0l1.638-.945c.069-.042.075-.102.015-.138l-1.57-.9a.264.264 0 00-.245 0h.009zm-2.4 1.383l-1.638.945c-.07.042-.075.102 0 .138l1.566.9a.265.265 0 00.237 0l1.64-.945c.07-.042.076-.102 0-.138l-1.565-.9a.261.261 0 00-.246 0h.006zm6.147 3.693l1.638-.945c.069-.042.075-.102.015-.138l-1.57-.9a.256.256 0 00-.236 0l-1.641.945c-.07.042-.075.102 0 .138l1.566.9a.269.269 0 00.222 0h.006zm-2.4 1.383l1.64-.948c.07-.04.076-.1 0-.135l-1.565-.9a.26.26 0 00-.24 0l-1.638.945c-.07.039-.075.102-.015.138l1.569.9a.276.276 0 00.246 0h.003zm-2.4 1.383l1.638-.948c.069-.04.078-.102.015-.135l-1.57-.9a.255.255 0 00-.236 0l-1.638.945c-.07.039-.075.102-.015.138l1.569.9a.264.264 0 00.24 0h-.003zm-2.4 1.383l1.638-.948c.069-.039.075-.102 0-.138l-1.57-.9a.264.264 0 00-.236 0l-1.641.948c-.07.039-.075.102 0 .138l1.566.9a.271.271 0 00.252 0h-.01zm12.255-9.663l1.638-.945c.069-.042.078-.102.015-.138l-1.57-.9a.256.256 0 00-.236 0l-1.638.945c-.07.042-.075.102-.015.138l1.569.9a.263.263 0 00.246 0h-.01zm-2.676 4.131l3.654-2.1c.072-.042.078-.102.015-.138l-3.807-2.2a.256.256 0 00-.237 0L83.464 88.5c-.07.039-.075.099 0 .135l2.016 1.164c.06.036.054.099-.015.138l-1.5.873c-.07.042-.078.102-.015.138l1.569.9a.263.263 0 00.213-.018h-.01zm-10.926-.93l-1.638.945c-.07.042-.075.102-.015.138l1.569.9a.264.264 0 00.237 0l1.638-.945c.072-.042.078-.102 0-.138l-1.563-.9a.256.256 0 00-.228 0zm-2.4 1.383l-1.638.945c-.072.039-.078.102-.015.138l1.566.9a.281.281 0 00.24 0l1.638-.948c.069-.04.075-.1.015-.135l-1.57-.9a.255.255 0 00-.23.003l-.006-.003zm-13.254 14.763a.27.27 0 00.237 0l1.64-.945c.07-.042.076-.102 0-.138l-1.565-.9a.263.263 0 00-.24 0l-1.638.945c-.07.042-.075.102 0 .138l1.566.9zm-5.907-3.702l-1.638.945c-.07.042-.075.102-.015.138l1.569.9a.257.257 0 00.237 0l1.638-.945c.072-.042.078-.102 0-.138l-1.566-.9a.275.275 0 00-.219.003l-.006-.003zm3.039 2.772a.257.257 0 00.237 0l1.638-.945c.069-.039.075-.102 0-.138l-1.57-.9a.27.27 0 00-.236 0l-1.638.945c-.072.042-.078.102-.015.138l1.584.9zm6.6 1.485l1.638-.945c.072-.039.078-.102.015-.138l-1.566-.9a.263.263 0 00-.12-.028.263.263 0 00-.12.028l-1.638.948c-.07.039-.075.102 0 .135l1.569.9a.263.263 0 00.116.03.268.268 0 00.118-.027l-.012-.003zm-2.631 1.392a.257.257 0 00.237 0l1.638-.945c.069-.039.075-.102 0-.138l-1.57-.9a.27.27 0 00-.236 0l-1.638.948c-.072.039-.078.099-.015.135l1.584.9zm-4.617-7.032l-1.63.939c-.068.042-.074.102 0 .138l1.567.9a.263.263 0 00.24 0l1.638-.945c.069-.042.075-.102 0-.138l-1.566-.9a.273.273 0 00-.12-.024.269.269 0 00-.117.033l-.012-.003zM67.6 95.046L65.974 96c-.07.039-.075.102-.015.138l1.569.9a.264.264 0 00.237 0l1.638-.948c.072-.04.078-.102.015-.138l-1.57-.9a.264.264 0 00-.236-.003l-.012-.003zm-9.58 5.532l-1.637.945c-.072.042-.078.102-.015.138l1.569.9a.257.257 0 00.237 0l1.638-.945c.069-.039.075-.102 0-.138l-1.57-.9a.273.273 0 00-.21.003l-.011-.003zm11.974-6.9l-1.638.945c-.07.039-.075.102 0 .138l1.566.9a.264.264 0 00.237 0l1.64-.948c.07-.04.076-.102 0-.135l-1.565-.9a.261.261 0 00-.228-.009l-.012.009zm-4.8 2.763l-1.638.948c-.072.039-.078.102 0 .138l1.566.9a.269.269 0 00.24 0L67 97.479c.069-.04.075-.102.015-.138l-1.57-.9a.265.265 0 00-.227-.01l-.024.01zm-2.4 1.383l-1.641.948c-.07.039-.075.102 0 .135l1.566.9a.26.26 0 00.24 0l1.638-.945c.069-.039.075-.102 0-.138l-1.566-.9a.264.264 0 00-.207-.01l-.03.01zm-2.4 1.383l-1.638.948c-.07.039-.075.099 0 .135l1.569.9a.257.257 0 00.237 0l1.638-.945c.072-.039.078-.102.015-.138l-1.566-.9a.27.27 0 00-.222-.009l-.033.009zm10.935.927l1.638-.945c.069-.039.078-.102.015-.138l-1.57-.9a.264.264 0 00-.236 0l-1.638.948c-.07.039-.075.102 0 .135l1.569.9c.04.021.084.031.128.03a.257.257 0 00.127-.039l-.033.009zm22.344-20.14l-1.641.946c-.07.042-.075.102 0 .138l1.566.9a.26.26 0 00.24 0l1.638-.945c.069-.042.075-.102 0-.138l-1.566-.9a.266.266 0 00-.204-.01l-.033.01zm-2.901 1.675l-1.638.945c-.07.042-.075.102-.015.138l1.569.9a.264.264 0 00.237 0l1.638-.945c.072-.042.078-.102.015-.138l-1.566-.9a.268.268 0 00-.207-.009l-.033.009zm5.328-3.07l-1.638.946c-.07.042-.078.102-.015.138l1.569.9a.255.255 0 00.237 0l1.638-.945c.069-.042.075-.102 0-.138l-1.566-.9a.276.276 0 00-.225 0zM82.86 90.9l1.642-.944c.069-.039.075-.102 0-.138l-1.566-.9a.281.281 0 00-.24 0l-1.638.948c-.07.039-.075.099 0 .135l1.569.9a.255.255 0 00.234 0zm15.865-13.688a.283.283 0 00-.24 0l-1.638.948c-.07.039-.075.099 0 .135l1.569.9a.256.256 0 00.237 0l1.638-.945c.072-.04.078-.102.015-.138l-1.581-.9zM73.747 98.745l1.64-.948c.07-.04.076-.102 0-.138l-1.565-.9a.27.27 0 00-.24 0l-1.638.948c-.07.039-.075.102-.015.138l1.569.9a.264.264 0 00.258 0h-.01zm29.37-16.96l1.638-.944c.072-.04.078-.102.015-.138l-1.545-.903a.286.286 0 00-.24 0l-1.638.948c-.069.039-.075.099-.015.135l1.569.9a.251.251 0 00.225.003h-.009zm-4.635.091l1.641-.945c.069-.04.075-.102 0-.138l-1.566-.9a.283.283 0 00-.24 0l-1.638.945c-.07.042-.075.102-.015.138l1.569.9a.255.255 0 00.258 0h-.01zm2.481-3.372a.278.278 0 00-.237 0l-1.641.948c-.07.039-.075.099 0 .135l1.566.9a.26.26 0 00.24 0l1.638-.945c.069-.039.075-.102.015-.138l-1.581-.9zm.504-.3l3.816 2.196a.26.26 0 00.24 0l1.638-.945c.069-.039.075-.102.015-.138l-3.81-2.196a.267.267 0 00-.237 0l-1.638.948c-.066.048-.066.11-.015.144l-.009-.01zm-5.532 3.066l-1.638.945c-.07.042-.075.102 0 .138l1.569.9a.256.256 0 00.237 0l1.638-.945c.072-.042.078-.102.015-.138l-1.57-.9a.265.265 0 00-.242.009l-.01-.01zM77.91 91.677l-1.638.945c-.072.042-.078.102-.015.138l1.566.9a.27.27 0 00.24 0l1.638-.945c.069-.042.075-.102.015-.138l-1.57-.9a.266.266 0 00-.227.009l-.01-.01zm22.575-8.508a.253.253 0 00.237 0l1.638-.945c.069-.042.075-.102.015-.138l-1.569-.9a.268.268 0 00-.237 0l-1.638.945c-.07.042-.078.102-.015.138l1.569.9zm-20.172 7.13l-1.638.946c-.07.042-.075.102-.015.138l1.569.9a.255.255 0 00.237 0l1.638-.945c.069-.042.078-.102 0-.138l-1.57-.9a.264.264 0 00-.221 0zm-18.771 15.364a.277.277 0 00.24 0l1.638-.945c.069-.042.075-.102.015-.138l-1.57-.9a.257.257 0 00-.118-.028.257.257 0 00-.118.028l-1.638.945c-.072.042-.078.102 0 .138l1.55.9zm-2.784-2.919l-1.638.948c-.07.039-.075.102 0 .135l1.569.9a.257.257 0 00.237 0l1.638-.945c.072-.039.078-.102.015-.138l-1.566-.9a.271.271 0 00-.128-.029.27.27 0 00-.127.032v-.003zm5.418 1.527l1.638-.945c.072-.042.078-.102 0-.138l-1.57-.9a.257.257 0 00-.118-.028.257.257 0 00-.118.028l-1.638.945c-.07.042-.075.102-.015.138l1.569.9a.263.263 0 00.125.035.265.265 0 00.127-.032v-.003zm2.4-1.383l1.64-.945c.07-.039.076-.102 0-.138l-1.565-.9a.263.263 0 00-.12-.028.263.263 0 00-.12.028l-1.638.945c-.07.042-.075.102 0 .138l1.566.9a.255.255 0 00.23.012l.007-.012zm2.4-1.383l1.638-.945c.069-.039.075-.102 0-.138l-1.57-.9a.276.276 0 00-.236 0l-1.638.948c-.072.039-.078.102-.015.135l1.566.9a.25.25 0 00.122.032.253.253 0 00.124-.029l.009-.003zm-7.8-.144l-1.662.939c-.07.039-.075.102 0 .135l1.566.9a.263.263 0 00.24 0l1.638-.945c.069-.039.075-.102 0-.138l-1.566-.9a.26.26 0 00-.237.012l.02-.003zm2.4-1.383l-1.638.948c-.072.039-.078.102 0 .138l1.569.9a.27.27 0 00.237 0l1.638-.948c.069-.039.075-.102.015-.138l-1.57-.9a.263.263 0 00-.278.003l.027-.003zm9.579-5.53l-1.665.952c-.07.042-.075.102-.015.138l1.569.9a.264.264 0 00.237 0l1.638-.945c.072-.042.078-.102 0-.138l-1.57-.9a.254.254 0 00-.221-.003l.027-.003zm-2.4 1.384l-1.638.945c-.072.039-.078.102-.015.138l1.566.9a.281.281 0 00.24 0l1.638-.945c.069-.042.075-.102.015-.138l-1.57-.9a.256.256 0 00-.257.003l.02-.003zm4.8-2.766l-1.638.945c-.07.042-.075.102 0 .138l1.566.9a.264.264 0 00.237 0l1.64-.945c.07-.042.076-.102 0-.138l-1.565-.9a.261.261 0 00-.273.003l.033-.003zm-9.58 5.529l-1.637.948c-.07.039-.075.102-.015.138l1.569.9a.27.27 0 00.237 0l1.638-.948c.072-.04.078-.102.015-.138l-1.57-.9a.265.265 0 00-.27.003l.034-.003zm2.4-1.38l-1.637.945c-.07.039-.075.102 0 .138l1.566.9a.265.265 0 00.237 0l1.64-.948c.07-.04.076-.102 0-.135l-1.565-.9a.261.261 0 00-.28.003l.04-.003zm-3.056 9l1.64-.948c.07-.039.076-.102 0-.138l-1.565-.9a.263.263 0 00-.12-.028.263.263 0 00-.12.028l-1.638.948c-.07.039-.075.102 0 .138l1.566.9a.261.261 0 00.198.009l.039-.009zm-12.627-.6l-1.57-.9a.257.257 0 00-.236 0l-1.662.96c-.072.042-.078.102 0 .138l1.569.9a.27.27 0 00.237 0l1.638-.945c.039-.045.045-.105-.015-.141l.039-.012zm3.12.783l-1.566-.9a.257.257 0 00-.119-.028.257.257 0 00-.118.028l-2.523 1.455c-.07.042-.075.102 0 .138l1.566.9a.27.27 0 00.237 0l2.523-1.455c.012-.036.012-.09-.04-.126l.04-.012zm-5.46-2.571l-1.57-.9a.257.257 0 00-.118-.028.257.257 0 00-.118.028l-2.055 1.173c-.07.039-.078.102 0 .138l1.569.9a.27.27 0 00.237 0l2.016-1.164c.054-.039.06-.099 0-.135l.039-.012zm1.545-.9a.277.277 0 00.24 0l1.587-.927c.069-.039.075-.102.015-.135l-1.57-.9a.257.257 0 00-.236 0l-1.641.945c-.07.039-.075.102 0 .138l1.605.879zm6.747 4.413l-1.566-.9a.263.263 0 00-.24 0l-3.15 1.818c-.07.042-.078.102 0 .138l1.569.9a.27.27 0 00.237 0l3.15-1.818c.057-.042.063-.102 0-.138zm1.104 1.947l-1.566-.9a.257.257 0 00-.119-.028.257.257 0 00-.118.028l-2.02 1.164c-.068.042-.074.102 0 .138l1.567.9a.27.27 0 00.237 0l2.019-1.164c.057-.042.063-.102 0-.138zm9.918-16.62a.276.276 0 00.237 0l1.638-.948c.072-.039.078-.1.015-.135l-1.566-.9a.26.26 0 00-.24 0l-1.626.939c-.07.039-.075.102-.015.138l1.557.906zm-4.8 2.763a.27.27 0 00.24 0l1.638-.948c.069-.04.075-.102 0-.138l-1.566-.9a.264.264 0 00-.237 0l-1.617.945c-.07.039-.075.102 0 .138l1.542.903zm-10.62 6.132a.27.27 0 00.237 0l1.638-.948c.069-.039.075-.099 0-.135l-1.57-.9a.256.256 0 00-.236 0l-1.638.945c-.07.039-.078.102-.015.138l1.584.9zm13.017-7.515a.264.264 0 00.237 0l1.638-.948c.069-.04.075-.102.015-.135l-1.57-.9a.256.256 0 00-.236 0L65.725 93c-.072.039-.078.102 0 .138l1.539.909zm-4.8 2.766a.264.264 0 00.237 0l1.638-.948c.072-.04.078-.102.015-.138l-1.566-.9a.27.27 0 00-.24 0l-1.623.945c-.07.039-.075.102 0 .138l1.539.903zm-1.54 12.57a.257.257 0 00-.118-.028.257.257 0 00-.118.028l-2.52 1.455c-.07.042-.075.102-.015.138l1.569.9a.27.27 0 00.237 0l2.52-1.455c.072-.042.078-.102 0-.138l-1.554-.9zm-1.88-10.584a.27.27 0 00.24 0l1.638-.945c.069-.042.075-.102 0-.138l-1.566-.9a.256.256 0 00-.237 0l-1.641.945c-.07.042-.075.102 0 .138l1.566.9zm-2.4 1.383a.27.27 0 00.237 0l1.638-.945c.072-.042.078-.102.015-.138l-1.566-.9a.26.26 0 00-.24 0l-1.638.945c-.07.042-.075.102 0 .138l1.554.9zm48.651-16.416a.278.278 0 00-.237 0l-4.035 2.334c-.069.042-.075.102 0 .138l1.566.9a.26.26 0 00.24 0l4.032-2.328c.069-.039.078-.102.015-.138l-1.581-.906zm-5.292 3.057a.272.272 0 00-.24 0l-1.638.954c-.07.042-.075.102-.015.138l1.569.9a.255.255 0 00.237 0l1.638-.945c.072-.042.078-.102.015-.138l-1.566-.91zM67.678 104.84l1.638-.948c.069-.039.075-.102.015-.138l-1.57-.9a.257.257 0 00-.118-.028.257.257 0 00-.118.028l-1.638.945c-.072.039-.078.102 0 .138l1.566.9a.272.272 0 00.225.003zm27.534-15.252a.255.255 0 00-.237 0l-1.65.954c-.07.042-.075.102 0 .138l1.566.9a.27.27 0 00.24 0l1.638-.945c.069-.042.075-.102 0-.138l-1.557-.909zm12.48-7.2a.286.286 0 00-.24 0l-1.638.948c-.069.039-.075.102-.015.135l1.569.9a.252.252 0 00.237 0l1.638-.945c.072-.04.078-.102.015-.138l-1.566-.9zm3.963-.49l-3.81-2.195a.268.268 0 00-.237 0l-1.638.948c-.069.039-.075.102 0 .135l3.807 2.199a.26.26 0 00.24 0l1.638-.945c.054-.036.06-.1 0-.141zM86.263 94.75a.27.27 0 00-.24 0l-2.016 1.164c-.07.042-.075.102 0 .138l1.566.9a.265.265 0 00.237 0l2.019-1.164c.069-.039.075-.102 0-.138l-1.566-.9zm6.05-3.492a.26.26 0 00-.24 0l-2.52 1.455c-.068.039-.074.102-.014.138l1.569.9a.264.264 0 00.237 0l2.523-1.455c.069-.042.075-.102 0-.138l-1.554-.9zM80.725 97.96a.265.265 0 00-.237 0l-13.5 7.8c-.07.042-.075.102-.015.138l1.569.9a.27.27 0 00.237 0l13.5-7.8c.069-.04.075-.102.015-.138l-1.57-.9zm-14.244 8.223a.257.257 0 00-.237 0l-2.02 1.173c-.071.039-.077.102 0 .138l1.567.9a.277.277 0 00.24 0l2.016-1.167c.069-.039.075-.099.015-.135l-1.581-.909zm17.016-9.825a.256.256 0 00-.237 0l-2.016 1.164c-.07.039-.078.102-.015.138l1.569.9a.264.264 0 00.237 0l2.016-1.164c.072-.042.078-.102.015-.138l-1.57-.9zm-19.8 11.427a.263.263 0 00-.12-.028.263.263 0 00-.12.028l-2.016 1.164c-.07.042-.075.102 0 .138l1.566.9a.257.257 0 00.237 0l2.019-1.164c.069-.039.075-.102 0-.138l-1.566-.9zm25.335-14.628a.265.265 0 00-.237 0l-2.016 1.167c-.072.039-.078.099-.015.135l1.566.9a.261.261 0 00.24 0l2.016-1.164c.069-.039.075-.102.015-.138l-1.57-.9zm8.574-4.956a.256.256 0 00-.237 0l-1.644.96c-.07.042-.078.102 0 .138l1.569.9a.264.264 0 00.237 0l1.638-.945c.069-.042.075-.102.015-.138l-1.578-.915zm5.364-3.744l1.641-.945c.069-.042.075-.102 0-.138l-1.566-.9a.286.286 0 00-.24 0l-1.638.945c-.069.042-.075.102 0 .138l1.566.9a.252.252 0 00.237.006v-.006zm-9.771.47L94.825 84c.069-.042.075-.102 0-.138l-1.57-.9a.264.264 0 00-.236 0l-1.638.945c-.072.042-.078.102-.015.138l1.566.9a.26.26 0 00.267-.012v-.006zm-6.363 8.845l4.8-2.763c.069-.042.075-.102.015-.138l-1.57-.9a.256.256 0 00-.236 0l-4.8 2.766c-.07.039-.075.099 0 .135l1.569.9a.257.257 0 00.222.006v-.006zm13.5-7.923a.252.252 0 00.237 0l1.638-.945c.072-.042.078-.102.015-.138l-1.569-.9a.268.268 0 00-.237 0l-1.638.945c-.07.042-.075.102-.015.138l1.569.9zm-2.001-1.302l1.638-.945c.069-.042.075-.102.015-.138l-1.57-.9a.265.265 0 00-.236 0l-1.641.945c-.07.042-.075.102 0 .138l1.566.9a.261.261 0 00.23.006l-.002-.006zM84.442 95.16l1.638-.945c.069-.042.078-.102 0-.138l-1.57-.9a.265.265 0 00-.236 0l-1.638.945c-.07.042-.075.102-.015.138l1.569.9a.255.255 0 00.252 0zm10.602-6.25a.264.264 0 00.237 0l1.64-.944c.07-.042.076-.102 0-.138l-1.565-.9a.261.261 0 00-.24 0l-1.638.945c-.07.042-.075.102 0 .138l1.566.9zm-22.578 13.165l1.64-.948c.07-.039.076-.099 0-.135l-1.565-.9a.263.263 0 00-.24 0l-1.638.945c-.07.039-.075.102-.015.138l1.569.9a.27.27 0 00.249 0zm2.4-1.383l1.638-.945c.069-.042.075-.102.015-.138l-1.57-.9a.256.256 0 00-.236 0l-1.638.945c-.072.039-.078.102-.015.138l1.566.9a.285.285 0 00.237 0h.003zm-4.8 2.766l1.659-.948c.072-.039.078-.102.015-.135l-1.57-.9a.257.257 0 00-.236 0l-1.638.945c-.07.039-.075.102-.015.138l1.569.9a.266.266 0 00.222 0h-.006zm9.579-5.532l1.64-.945c.07-.042.076-.102 0-.138l-1.565-.9a.27.27 0 00-.24 0l-1.62.957c-.07.042-.075.102-.015.138l1.569.9a.263.263 0 00.237-.012h-.006zm-2.4 1.383l1.638-.945c.069-.042.078-.102.015-.138l-1.57-.9a.255.255 0 00-.236 0l-1.638.945c-.07.042-.075.102-.015.138l1.569.9a.264.264 0 00.249-.01l-.012.01zm4.8-2.766l1.638-.945c.069-.042.075-.102.015-.138l-1.57-.9a.264.264 0 00-.236 0l-1.641.945c-.07.042-.075.102 0 .138l1.566.9a.26.26 0 00.23 0h-.002zm13.08-19.236a.264.264 0 00.237 0l1.64-.948c.07-.04.076-.102 0-.138l-.416-.24a.256.256 0 00-.237 0l-1.638.945c-.07.042-.078.102-.015.138l.429.243zM83.22 84.846a.283.283 0 00.24 0l1.638-.948c.069-.04.075-.1 0-.135l-1.566-.9a.256.256 0 00-.237 0l-1.641.945c-.07.039-.075.102 0 .138l1.566.9zm4.8-2.766a.265.265 0 00.237 0l1.638-.945c.072-.042.078-.102.015-.138l-1.566-.9a.26.26 0 00-.24 0l-1.638.945c-.07.042-.075.102-.015.138l1.569.9zm-7.716 4.452a.269.269 0 00.24 0l1.638-.948c.069-.04.075-.102.015-.138l-1.57-.9a.255.255 0 00-.236 0l-1.656.954c-.072.039-.078.102-.015.138l1.584.894zm5.322-3.07a.264.264 0 00.237 0l1.638-.944c.069-.042.075-.102.015-.138l-1.57-.9a.255.255 0 00-.236 0l-1.638.945c-.072.042-.078.102-.015.138l1.569.9zm-10.11 5.836a.255.255 0 00.237 0l1.638-.945c.072-.039.078-.102 0-.138l-1.57-.9a.265.265 0 00-.236 0l-1.638.948c-.07.039-.075.102-.015.135l1.584.9zm2.4-1.383a.264.264 0 00.237 0l1.64-.948c.07-.039.076-.102 0-.138l-1.565-.9a.27.27 0 00-.24 0l-1.638.948c-.07.039-.075.102 0 .138l1.566.9zm12.408-7.842a.26.26 0 00.24 0l1.638-.945c.069-.039.075-.102.015-.138l-.417-.24a.26.26 0 00-.24 0l-1.638.945c-.07.039-.075.102-.015.138l.417.24zm7.2-4.15a.269.269 0 00.24 0l1.638-.947c.069-.04.075-.102.015-.138l-.417-.24a.26.26 0 00-.24 0l-1.638.945c-.07.042-.075.102-.015.138l.417.243zm3.3 1.903a.26.26 0 00.24 0l1.638-.945c.069-.04.075-.102 0-.138l-1.566-.9a.268.268 0 00-.237 0l-1.65.957c-.07.039-.075.102 0 .135l1.575.891zm4.563 5.253l1.638-.945c.069-.04.075-.102 0-.138l-1.569-.9a.267.267 0 00-.237 0l-1.638.948c-.072.039-.078.099-.015.135l1.566.9a.258.258 0 00.234 0h.021zm-12.663-4.39a.255.255 0 00.237 0l1.638-.944c.072-.04.078-.102.015-.138l-.417-.24a.255.255 0 00-.237 0l-1.644.933c-.07.039-.075.102 0 .138l.408.252zm-19.62 12a.261.261 0 00.24 0l1.638-.944c.069-.04.075-.102.015-.138l-1.57-.9a.276.276 0 00-.236 0l-1.638.948c-.072.039-.078.099 0 .135l1.55.9z" fill="#000"/><path opacity=".4" d="M80.19 103.032l.337.195 8.925 5.151 15.87-9.162.33-.19-9.261-5.345-16.2 9.351z" fill="#000"/><path d="M80.527 103.227l8.925 5.151 15.87-9.162-8.931-5.154-15.864 9.165z" fill="#459AE9"/><path opacity=".45" d="M80.527 103.227l8.925 5.151 15.87-9.162-8.931-5.154-15.864 9.165z" fill="#000"/><path d="M34.43 101.364c.142.08.293.144.45.192a2.099 2.099 0 01-.45-.189 1.004 1.004 0 01-.142-.093c.045.033.092.063.141.09zm2.573.138a.088.088 0 01.024-.021l-.018.018-.006.003z" fill="#459AE9"/><path d="M90.44 32.841l-.96-.558-48.988 28.284V89.4a.723.723 0 00.3.663l.96.558a.71.71 0 00.723-.072l46.95-27.093a2.272 2.272 0 001.023-1.776l-.009-28.839z" fill="#E6E6E6"/><path d="M41.452 89.964c0 .654.456.918 1.023.6l46.95-27.108a2.272 2.272 0 001.023-1.776V32.84L41.452 61.126v28.839z" fill="#FAFAFA"/><path d="M90.202 33.252V61.68a2.032 2.032 0 01-.9 1.569L42.358 90.35a.692.692 0 01-.339.108c-.3 0-.333-.345-.333-.495V61.26l48.516-28.008zm.237-.411L41.452 61.125v28.839c0 .465.231.732.567.732a.922.922 0 00.456-.141l46.95-27.1a2.272 2.272 0 001.023-1.775V32.84h-.009z" fill="#E0E0E0"/><path d="M41.452 61.125v4.434L90.44 37.275V32.84L41.452 61.125z" fill="#459AE9"/><path d="M72.19 45.117v.954c0 .195.138.276.3.177l15.06-8.7v-1.665l-15.06 8.7a.68.68 0 00-.3.534z" fill="#FAFAFA"/><path d="M89.173 34.956c.168-.096.3-.018.3.18v.954a.685.685 0 01-.3.531l-1.617.933v-1.665l1.617-.933z" fill="#455A64"/><path d="M89.053 36.267l-.18-.057a.999.999 0 00.027-.231.434.434 0 00-.162-.387.26.26 0 00-.264 0 .921.921 0 00-.36.747.42.42 0 00.165.384c.035.02.074.032.114.033a.278.278 0 00.147-.045.73.73 0 00.3-.39l.18.057h.021a.066.066 0 00.063-.045.066.066 0 00-.05-.066zm-.579.333a.13.13 0 01-.129 0 .315.315 0 01-.096-.27.802.802 0 01.3-.633.189.189 0 01.081-.024.087.087 0 01.048 0 .314.314 0 01.1.27.807.807 0 01-.304.657z" fill="#FAFAFA"/><path d="M89.188 29.481a.71.71 0 00-.732.066l-46.94 27.102a2.252 2.252 0 00-1.024 1.773v2.145l.96.558L90.44 32.841v-2.145a.723.723 0 00-.3-.66c-.168-.099-.783-.453-.95-.555z" fill="#263238"/><path d="M41.452 58.98a2.256 2.256 0 011.023-1.773l46.95-27.102c.564-.327 1.023-.06 1.023.6v2.145L41.452 61.125V58.98z" fill="#37474F"/><path d="M90.154 30.042a.714.714 0 00-.738.063l-46.94 27.102c-.303.189-.551.45-.724.762l-.963-.555c.173-.313.423-.576.726-.765l46.941-27.102a.71.71 0 01.732-.066c.168.102.783.456.954.555l.012.006z" fill="#455A64"/><path d="M84.676 33.948a1.064 1.064 0 00-.48.83c0 .3.216.433.48.28a1.065 1.065 0 00.48-.834c0-.306-.216-.43-.48-.276zm1.68-.969a1.068 1.068 0 00-.48.834c0 .3.216.429.48.276a1.056 1.056 0 00.48-.831c0-.306-.213-.432-.48-.279zm1.684-.966a1.059 1.059 0 00-.484.831c0 .3.216.429.483.276a1.062 1.062 0 00.48-.831c.006-.306-.216-.429-.48-.276z" fill="#459AE9"/><path d="M42.475 90.555l8.583-4.953V60l-9.6 5.547v24.405c-.006.666.45.93 1.017.603z" fill="#F5F5F5"/><path d="M50.821 60.423v25.041l-8.463 4.887a.693.693 0 01-.339.108c-.3 0-.333-.345-.333-.495V65.7l9.135-5.271m.237-.411l-9.6 5.547V89.97c0 .465.231.732.567.732a.925.925 0 00.456-.141l8.583-4.953V60l-.006.018z" fill="#E0E0E0"/><path d="M44.641 65.937l4.584-2.658c.168-.096.3-.018.3.177v.402a.677.677 0 01-.3.53l-4.593 2.656c-.171.099-.3.02-.3-.177v-.4a.676.676 0 01.309-.53z" fill="#E0E0E0"/><path d="M43.372 67.023v.399a.677.677 0 01-.3.531l-.348.201c-.168.099-.3.018-.3-.177v-.399a.684.684 0 01.3-.534l.348-.198c.153-.099.3-.018.3.177z" fill="#459AE9"/><path d="M44.641 68.145l4.584-2.655c.168-.099.3-.018.3.177v.399a.678.678 0 01-.3.534l-4.593 2.655c-.171.099-.3.018-.3-.177v-.399a.678.678 0 01.309-.534z" fill="#E0E0E0"/><path d="M43.372 69.234v.399a.677.677 0 01-.3.531l-.348.201c-.168.096-.3.018-.3-.177v-.402a.683.683 0 01.3-.531l.348-.201c.153-.096.3-.018.3.18z" fill="#459AE9"/><path d="M44.641 70.356l4.584-2.655c.168-.099.3-.021.3.177v.399a.675.675 0 01-.3.531l-4.593 2.658c-.171.096-.3.018-.3-.177v-.402a.679.679 0 01.309-.531z" fill="#E0E0E0"/><path d="M43.372 71.442v.402a.684.684 0 01-.3.531l-.348.198c-.168.099-.3.021-.3-.177V72a.678.678 0 01.3-.531l.348-.201c.153-.102.3-.021.3.174z" fill="#459AE9"/><path d="M44.641 77.7l4.584-2.673c.168-.096.3-.018.3.18v.393a.675.675 0 01-.3.531l-4.593 2.658c-.171.096-.3.018-.3-.177v-.402a.679.679 0 01.309-.51z" fill="#E0E0E0"/><path d="M43.372 78.771v.399a.683.683 0 01-.3.534l-.348.198c-.168.099-.3.021-.3-.177v-.399a.679.679 0 01.3-.531l.348-.201c.153-.099.3-.018.3.177z" fill="#459AE9"/><path d="M44.641 79.64l4.584-2.654c.168-.1.3-.018.3.177v.399a.678.678 0 01-.3.534l-4.593 2.655c-.171.099-.3.018-.3-.177v-.4a.679.679 0 01.309-.533z" fill="#E0E0E0"/><path d="M43.372 80.73v.399a.677.677 0 01-.3.531l-.348.201c-.168.096-.3.018-.3-.177v-.402a.683.683 0 01.3-.531l.348-.198c.153-.099.3-.021.3.177z" fill="#459AE9"/><path d="M44.641 81.6l4.584-2.658c.168-.096.3-.018.3.18v.399a.677.677 0 01-.3.53l-4.593 2.659c-.171.096-.3.018-.3-.18v-.4a.678.678 0 01.309-.53z" fill="#E0E0E0"/><path d="M43.372 82.686v.414a.683.683 0 01-.3.534l-.348.198c-.168.099-.3.018-.3-.177v-.399a.679.679 0 01.3-.531l.348-.201c.153-.114.3-.024.3.162zm.96-9.918v.69l.597-.69h-.597z" fill="#459AE9"/><path d="M45.295 72.627c0 .126.09.177.204.114l3.84-2.211a.458.458 0 00.204-.354c0-.129-.093-.183-.204-.117l-3.84 2.217a.447.447 0 00-.204.351z" fill="#E0E0E0"/><path d="M44.332 73.878v.69l.597-.69h-.597z" fill="#459AE9"/><path d="M45.295 73.734c0 .129.09.18.204.114l3.84-2.211a.45.45 0 00.204-.351c0-.132-.093-.183-.204-.117l-3.84 2.217a.442.442 0 00-.204.348z" fill="#E0E0E0"/><path d="M44.332 74.985v.69l.597-.69h-.597z" fill="#459AE9"/><path d="M45.295 74.844c0 .129.09.18.204.114l3.84-2.211a.457.457 0 00.204-.354c0-.13-.093-.18-.204-.117l-3.84 2.217a.446.446 0 00-.204.35z" fill="#E0E0E0"/><path d="M44.332 76.095v.69l.597-.69h-.597z" fill="#459AE9"/><path d="M45.295 75.954c0 .126.09.177.204.11l3.84-2.207a.458.458 0 00.204-.354c0-.13-.093-.183-.204-.117l-3.84 2.214a.448.448 0 00-.204.354z" fill="#E0E0E0"/><path d="M53.938 61.335v5.778c0 .243.171.339.381.219l6.354-3.669a.834.834 0 00.378-.657v-4.752c0-.243-.168-.339-.378-.219l-3.687 2.13c-.21.12-.381.021-.381-.219v-.153c0-.24-.168-.339-.378-.219l-1.902 1.104a.837.837 0 00-.387.657z" fill="#459AE9"/><path d="M55.189 68.205v.369c0 .18.126.255.282.165L60.238 66a.622.622 0 00.285-.492v-.369c0-.183-.126-.255-.285-.165l-4.767 2.751a.632.632 0 00-.282.48z" fill="#E0E0E0"/><path d="M62.773 56.262v5.778c0 .243.17.339.38.219l6.355-3.669a.834.834 0 00.378-.657v-4.752c0-.243-.168-.339-.378-.219l-3.687 2.127c-.21.123-.381.024-.381-.216v-.153c0-.24-.168-.339-.378-.219l-1.908 1.104a.838.838 0 00-.381.657z" fill="#459AE9"/><path d="M64.024 63.129v.372c0 .18.126.255.282.162l4.767-2.763a.623.623 0 00.3-.492v-.369c0-.183-.126-.255-.3-.165l-4.767 2.751a.629.629 0 00-.282.504z" fill="#E0E0E0"/><path d="M53.938 72.945v5.778c0 .243.171.339.381.219l6.354-3.669a.834.834 0 00.378-.657v-4.752c0-.243-.168-.339-.378-.219l-3.687 2.13c-.21.12-.381.021-.381-.219V71.4c0-.24-.168-.339-.378-.219L54.325 72.3a.836.836 0 00-.387.645z" fill="#459AE9"/><path d="M55.189 79.815v.369c0 .18.126.255.282.165l4.767-2.754a.62.62 0 00.285-.492v-.37c0-.182-.126-.254-.285-.164l-4.767 2.75a.634.634 0 00-.282.496z" fill="#E0E0E0"/><path d="M62.773 67.872v5.778c0 .243.17.339.38.219l6.355-3.669a.834.834 0 00.378-.657V64.8c0-.243-.168-.339-.378-.219l-3.687 2.13c-.21.12-.381.021-.381-.219v-.153c0-.24-.168-.339-.378-.219l-1.908 1.104a.837.837 0 00-.381.648z" fill="#459AE9"/><path d="M64.024 74.739v.372c0 .18.126.255.282.165l4.767-2.754a.623.623 0 00.3-.492v-.37c0-.182-.126-.254-.3-.164l-4.767 2.75a.635.635 0 00-.282.493z" fill="#E0E0E0"/><path d="M71.725 50.907V56.7c0 .24.168.339.378.219l6.354-3.67a.837.837 0 00.381-.656v-4.764c0-.243-.17-.342-.38-.22l-3.688 2.128c-.21.123-.378.024-.378-.22v-.15c0-.242-.17-.338-.378-.218l-1.91 1.104a.83.83 0 00-.379.654z" fill="#459AE9"/><path d="M72.859 58.056v.372c0 .18.126.255.282.162l4.767-2.751a.625.625 0 00.285-.492v-.372c0-.18-.126-.255-.285-.162l-4.767 2.751a.63.63 0 00-.282.492z" fill="#E0E0E0"/><path d="M80.443 46.113V51.9c0 .24.17.339.38.219l6.355-3.67a.844.844 0 00.378-.656v-4.761c0-.24-.168-.34-.378-.216l-3.687 2.127c-.21.123-.381.024-.381-.22v-.15c0-.242-.168-.338-.378-.218l-1.908 1.1a.847.847 0 00-.381.658z" fill="#459AE9"/><path d="M81.694 52.983v.369c0 .183.126.255.282.165l4.767-2.751a.624.624 0 00.285-.492v-.372c0-.18-.126-.255-.285-.162l-4.767 2.76a.63.63 0 00-.282.483zm-8.835 16.68v.369c0 .183.126.255.282.165l4.767-2.751a.63.63 0 00.285-.495v-.37c0-.18-.126-.254-.285-.164L73.14 69.17a.624.624 0 00-.282.492z" fill="#E0E0E0"/><path d="M72.976 61.539l4.947-2.853c.225-.132.408-.024.408.237v5.7a.9.9 0 01-.408.71l-4.947 2.854c-.225.132-.408.027-.408-.234v-5.7a.9.9 0 01.408-.714z" fill="#FAFAFA"/><path d="M72.793 68.367a.3.3 0 01-.165-.042.4.4 0 01-.177-.366v-5.7a1.023 1.023 0 01.468-.813l4.944-2.853a.366.366 0 01.6.339v5.7a1.023 1.023 0 01-.47.813l-4.945 2.856a.507.507 0 01-.255.066zm.243-6.723a.786.786 0 00-.35.6v5.7a.138.138 0 00.153.175.139.139 0 00.08-.043l4.944-2.853a.793.793 0 00.351-.6v-5.7a.18.18 0 00-.063-.162c-.039-.024-.099 0-.17.027l-4.945 2.856z" fill="#EBEBEB"/><path d="M78.502 59.457l-1.1.636a.9.9 0 00-.409.708v1.275c0 .261.183.366.408.234l1.101-.636a.9.9 0 00.411-.708V59.7c.012-.267-.183-.375-.41-.243z" fill="#459AE9"/><path d="M73.354 62.157l2.478-1.425c.11-.066.204 0 .204.117v.081a.459.459 0 01-.204.354L73.354 62.7c-.114.063-.204 0-.204-.12v-.081a.452.452 0 01.204-.342zm0 1.107l2.478-1.425c.11-.066.204 0 .204.12v.078a.46.46 0 01-.204.354l-2.478 1.428c-.114.066-.204 0-.204-.117v-.084a.453.453 0 01.204-.354zm0 1.107l2.478-1.425c.11-.063.204 0 .204.12v.078a.45.45 0 01-.204.354l-2.478 1.428c-.114.066-.204 0-.204-.117v-.081a.452.452 0 01.204-.357zm0 1.11l4.116-2.373c.11-.066.204 0 .204.117v.075a.46.46 0 01-.204.354l-4.116 2.373c-.114.066-.204 0-.204-.117v-.081a.443.443 0 01.204-.348zm0 1.119l4.116-2.373c.11-.066.204 0 .204.12v.078a.456.456 0 01-.204.354l-4.116 2.376c-.114.063-.204 0-.204-.12v-.081a.446.446 0 01.204-.354z" fill="#EBEBEB"/><path d="M81.502 64.671v.372c0 .18.129.255.3.162l4.767-2.751a.634.634 0 00.285-.492v-.372c0-.18-.129-.255-.285-.162l-4.767 2.751a.634.634 0 00-.3.492z" fill="#E0E0E0"/><path d="M81.625 56.55l4.941-2.85c.228-.129.411-.024.411.237v5.7a.9.9 0 01-.41.708l-4.942 2.859c-.225.129-.408.024-.408-.237v-5.7a.9.9 0 01.408-.717z" fill="#FAFAFA"/><path d="M81.439 63.378a.335.335 0 01-.165-.042.407.407 0 01-.18-.369v-5.7a1.02 1.02 0 01.468-.81l4.944-2.856a.365.365 0 01.6.339v5.7a1.02 1.02 0 01-.468.81l-4.956 2.85a.489.489 0 01-.243.078zm.243-6.726a.78.78 0 00-.351.6v5.7c0 .081.02.141.06.162a.178.178 0 00.17-.027l4.945-2.856a.78.78 0 00.35-.6v-5.7c0-.081-.02-.141-.06-.162a.18.18 0 00-.17.027l-4.944 2.856z" fill="#EBEBEB"/><path d="M87.148 54.465l-1.1.636a.9.9 0 00-.412.711v1.272c0 .261.183.366.411.237l1.101-.636a.915.915 0 00.411-.711v-1.272c0-.261-.186-.366-.41-.237z" fill="#459AE9"/><path d="M82 57.165l2.475-1.425c.114-.063.207 0 .207.12v.078a.448.448 0 01-.207.354L82 57.72c-.114.066-.207 0-.207-.117v-.084a.456.456 0 01.207-.354zm0 1.11l2.475-1.425c.114-.066.207-.015.207.117v.078a.457.457 0 01-.207.357L82 58.827c-.114.066-.207 0-.207-.117v-.081a.447.447 0 01.207-.354zm0 1.107l2.475-1.425c.114-.066.207 0 .207.117v.081a.456.456 0 01-.207.354L82 59.937c-.114.063-.207 0-.207-.12v-.081a.447.447 0 01.207-.354zm0 1.107l4.125-2.373c.114-.063.207 0 .207.12v.078a.448.448 0 01-.207.354l-4.113 2.376c-.114.066-.207 0-.207-.12v-.081a.456.456 0 01.195-.354zm0 1.107l4.113-2.37c.114-.066.207 0 .207.117v.078a.457.457 0 01-.207.357L82 62.151c-.114.066-.207 0-.207-.117v-.084a.456.456 0 01.207-.354z" fill="#EBEBEB"/><path d="M41.452 61.125l-.96-.558v4.437l.96.555v-4.434z" fill="#459AE9"/><path opacity=".1" d="M41.452 61.125l-.96-.558v4.437l.96.555v-4.434z" fill="#000"/><path d="M26.974 81.384a.805.805 0 01.36-.627l18.489-10.674a.806.806 0 01.723 0l.408.237a.8.8 0 01.36.624v14.172a.8.8 0 01-.36.627l-18.49 10.674a.807.807 0 01-.722 0l-.417-.234a.811.811 0 01-.36-.627l.009-14.172z" fill="#459AE9"/><path opacity=".4" d="M27.079 81.027l1.026.6 19.104-11.03a.738.738 0 00-.255-.27l-.408-.235a.79.79 0 00-.723 0L27.325 80.757a.79.79 0 00-.246.27z" fill="#fff"/><path opacity=".1" d="M26.974 81.384v14.172a.797.797 0 00.35.624l.409.237a.496.496 0 00.099.045.734.734 0 00.15.033.9.9 0 00.3 0l.069-.018.042-.018a.21.21 0 01-.171 0 .252.252 0 01-.111-.24V82.038a.315.315 0 01.189-.3l-.19-.108-1.025-.6a.741.741 0 00-.111.354z" fill="#000"/><path opacity=".2" d="M28.105 81.621l8.562 3.198a1.392 1.392 0 001.65-.543l1.377-2.1 7.584-11.616-7.311 11.7 7.347 2.874a.744.744 0 01-.114.363l-7.254-3.204-1.596 2.556a1.39 1.39 0 01-1.743.534l-1.137-.5-7.245 11.564a.252.252 0 01-.111-.24v-.234l7.311-11.118-7.32-3.234z" fill="#000"/><path d="M25.906 107.532l39.78 22.899c.393.225.44.798.3 1.23a3.552 3.552 0 01-2.253 2.343c-.783.3-1.68.099-2.4-.324L21.21 110.241l-5.133-6.18a.251.251 0 01.13-.412.253.253 0 01.17.019l9.528 3.864z" fill="#E0E0E0"/><path d="M21.868 108.705l-4.935-5.859a.232.232 0 01-.02-.27.233.233 0 01.248-.108l7.524 1.656-2.817 4.581z" fill="#F28F8F"/><path d="M17.125 102.468h.039l7.524 1.656-1.5 2.424-.81-.489-5.253-3.324v-.267z" fill="#FFA8A7"/><path d="M17.16 102.468a.233.233 0 00-.228.378l.964 1.143a1.283 1.283 0 01.756-1.11l.12-.057-1.611-.354z" fill="#263238"/><path d="M58.72 124.668l-.6-.366-.732-.444-32.7-19.734a3.41 3.41 0 00-2.076 1.395c-.786 1.044-1.107 2.4-.738 3.183l32.679 19.722 1.4.843c-.878-.597 1.879-5.187 2.767-4.599z" fill="#37474F"/><path d="M58.72 124.668l-.6-.366-.729-.444-32.7-19.731a3.637 3.637 0 00-2.4 1.872l34.11 20.811c-.048.087-.033.129.036.129.705-1.305 1.788-2.601 2.283-2.271z" fill="#455A64"/><path d="M56.425 123.264l-1.356-.816c-.384-.249-1.143.438-1.8 1.35-.9 1.2-1.452 2.934-.942 3.267l.999.6.36.21c-.51-.333.048-2.055.942-3.267.642-.876 1.37-1.542 1.767-1.368a.095.095 0 01.03.024z" fill="#EBEBEB"/><path d="M56.074 123.066c-.9-.582-3.648 4.029-2.754 4.611l1.356.822c-.9-.582 1.86-5.193 2.754-4.614l-1.356-.819z" fill="#37474F"/><path d="M58.72 124.668l-1.338-.81c-.873-.579-3.567 3.849-2.832 4.566l.048.039 1.353.804c-.876-.597 1.88-5.187 2.769-4.599z" fill="#EBEBEB"/><path d="M64.399 128.1l-5.68-3.438c-.377-.252-1.133.423-1.8 1.326-.9 1.2-1.466 2.934-.965 3.273l5.7 3.447c1.137.684 2.805-1.449 3.156-3.111.138-.597.042-1.164-.411-1.497z" fill="#F28F8F"/><path opacity=".1" d="M62.668 128.673c-.975.918-1.578 2.457-1.347 3.435a.935.935 0 00.522.696c1.125.369 2.634-1.623 2.967-3.195.135-.6.042-1.152-.387-1.482-.432-.255-1.098-.078-1.755.546z" fill="#000"/><path d="M103.123 115.557s.471 3.213 1.41 4.407c.846 1.074 1.455 2.448 2.46 3.567.219.246.717.699.9.9a.381.381 0 01.128.307.387.387 0 01-.158.293c-.429.426-2.286.558-3.339-.204s-2.1-2.226-2.736-2.844l-.831-.822a.851.851 0 01-.222-.798c.021-.081.042-.177.066-.3.132-.6-.702-3.048-.702-3.048l3.024-1.458z" fill="#FFA8A7"/><path d="M100.885 121.8c-.001.198.034.394.102.579.105.228.642.57.981.732a2.18 2.18 0 011.08 1.116 3.871 3.871 0 001.83 1.764 5.564 5.564 0 003.3.276c1.371-.273 1.464-1.086 1.464-1.086s.06-.765-.285-.876c-.345-.111-8.472-2.505-8.472-2.505z" fill="#263238"/><path d="M100.525 118.446a7.28 7.28 0 01.093 1.977c-.03.399-.036 1.026.264 1.377.414.555 1.287.72 1.854 1.476.567.756 1.407 2.124 3.213 2.445 1.806.321 3.162-.276 3.486-.795.324-.519 0-.996-1.158-1.596-1.236-.636-2.886-2.574-2.886-2.574a6.986 6.986 0 01-1.164-1.935l-.438-1.398c-.096-.273-2.04.3-2.244.702l.234 1.239-.501-1.17a1.26 1.26 0 00-.753.252z" fill="#455A64"/><path d="M104.779 125.316a2.287 2.287 0 011.296-1.98c1.341-.72 2.175-.3 2.595 0 .504.348 1.224 1.077.804 1.623-.45.6-1.2.9-2.571.927a3.305 3.305 0 01-2.124-.57zm-1.941-4.17a.157.157 0 00.123-.069c.15-.216 1.122-1.038 2.079-.792.048-.111-.036-.222-.234-.336-1.002-.072-1.926.702-2.1.966a.145.145 0 00-.023.112.152.152 0 00.068.092.16.16 0 00.087.027zm2.763-.153a.471.471 0 00-.276-.327 2.852 2.852 0 00-1.983.972.145.145 0 00-.023.112.15.15 0 00.024.053.15.15 0 00.044.039c.017.012.036.02.056.024a.14.14 0 00.061.001.162.162 0 00.056-.023.163.163 0 00.043-.044c.147-.21 1.068-.99 1.998-.807zm-.99-1.359a.275.275 0 00-.195-.372c-1.098-.24-2.163.645-2.358.93a.145.145 0 00-.023.054.126.126 0 00.001.058.134.134 0 00.024.053.134.134 0 00.043.039c.027.019.06.029.093.027a.157.157 0 00.123-.069c.159-.234 1.269-1.164 2.292-.72zm2.514 2.874a.852.852 0 00-.435-.393 2.813 2.813 0 00-2.064.969.147.147 0 00-.023.113c.005.02.013.038.025.054.011.016.026.03.043.04a.17.17 0 00.093.024.157.157 0 00.123-.069c.159-.228 1.233-1.131 2.238-.738zm-3 .084a.153.153 0 00.12-.069c.15-.213 1.101-1.017 2.049-.798a.525.525 0 00-.327-.336 2.833 2.833 0 00-1.98.972.147.147 0 00.042.207.178.178 0 00.096.024z" fill="#FAFAFA"/><path d="M83.992 92.823c-.222 2.01-.684 3.237.12 5.001.825 1.8 3.114 3.129 5.655 4.749 2.358 1.5 4.65 3.207 5.235 3.6.63.423.957.666 1.089 1.71.153 1.224.732 3.186 2.025 5.742 1.473 2.919 2.046 4.377 2.046 4.377s1.893-.621 3.336-1.224c0 0-2.568-11.859-3.141-13.455s-6.711-6.687-6.711-6.687.6-2.556 1.047-4.416l-10.701.603z" fill="#37474F"/><path d="M111.181 112.752s.852 2.631 1.533 3.864a18.983 18.983 0 002.418 3.504c.213.24.702.684.879.879a.396.396 0 01.13.307.383.383 0 01-.16.293c-.423.417-2.244.549-3.282-.201-1.038-.75-2.064-2.187-2.685-2.793l-.816-.807a.825.825 0 01-.219-.783c.021-.078.042-.174.066-.282.129-.6-.69-3-.69-3l2.826-.981z" fill="#FFA8A7"/><path d="M92.263 89.277c-.333 1.863-.435 2.919.219 4.8.654 1.881 2.184 4.872 4.815 6.345 2.178 1.218 5.007 2.718 5.628 3.078.543.321.969.744 1.182 2.1.192 1.218.828 2.607 2.238 5.1a36.701 36.701 0 012.058 4.071 19.363 19.363 0 013.249-1.2s-3.126-11.658-3.699-13.254-4.752-3.942-6.528-4.971c-1.776-1.029-2.784-1.671-4.821-3.054l-4.341-3.015z" fill="#37474F"/><path d="M109.105 118.407c.001.193.035.385.102.567.102.225.63.561.963.72a2.13 2.13 0 011.059 1.095 3.827 3.827 0 001.8 1.734 5.462 5.462 0 003.231.27c1.344-.27 1.44-1.068 1.44-1.068s.054-.747-.282-.861c-.336-.114-8.313-2.457-8.313-2.457z" fill="#263238"/><path d="M108.757 115.113c.118.64.149 1.293.093 1.941-.03.39-.039 1.008.255 1.353.408.543 1.266.705 1.824 1.449.558.744 1.38 2.1 3.156 2.4 1.776.3 3.102-.27 3.42-.78.318-.51 0-.978-1.134-1.566-1.215-.627-2.838-2.529-2.838-2.529a6.824 6.824 0 01-1.14-1.902l-.36-1.293c-.096-.267-2.034.231-2.238.6l.24 1.182-.531-1.11-.747.255z" fill="#455A64"/><path d="M112.93 121.857a2.252 2.252 0 011.272-1.944c1.32-.705 2.139-.282 2.55 0 .492.339 1.2 1.056.792 1.593-.447.582-1.17.867-2.529.9a3.247 3.247 0 01-2.085-.549zm-1.905-4.095a.148.148 0 00.068-.019.138.138 0 00.052-.047c.147-.213 1.101-1.02 2.043-.777.045-.108-.036-.219-.228-.33a2.75 2.75 0 00-2.07.948.142.142 0 00.042.201c.028.018.06.026.093.024zm2.715-.162a.472.472 0 00-.273-.321 2.804 2.804 0 00-1.947.954.143.143 0 00.003.165.142.142 0 00.042.039.17.17 0 00.093.024.144.144 0 00.117-.066c.15-.195 1.05-.96 1.965-.795zm-.975-1.32a.266.266 0 00-.011-.228.268.268 0 00-.181-.138c-1.077-.234-2.121.633-2.316.9a.133.133 0 00-.021.054.148.148 0 00.066.15c.028.017.06.025.093.024a.162.162 0 00.12-.066c.159-.219 1.248-1.134 2.25-.696zm2.46 2.82a.857.857 0 00-.426-.384 2.76 2.76 0 00-2.028.951.148.148 0 00-.023.053.148.148 0 00.023.109.153.153 0 00.135.063.146.146 0 00.12-.063c.168-.228 1.221-1.113 2.199-.729zm-2.937.084a.161.161 0 00.068-.019.18.18 0 00.052-.047c.144-.213 1.08-1.002 2.01-.786a.51.51 0 00-.321-.33 2.798 2.798 0 00-1.944.954.142.142 0 000 .164c.011.016.026.03.042.04.028.017.06.025.093.024z" fill="#FAFAFA"/><path d="M94.966 94.971a14.51 14.51 0 01-1.32 1.665l.375.315c.45-.587.772-1.261.945-1.98z" fill="#37474F"/><path d="M95.806 76.887c1.668.255 2.634 1.134 2.682 2.451.048 1.317-2.028 6.363-2.028 6.363 1.02.92 2.07 1.806 3.15 2.658.414.324.837.645 1.26.96.24.177 1.011.564 1.053.873a.534.534 0 01-.069.3c-.402.864-1.326 1.617-2.268 1.242a33.15 33.15 0 01-2.499-1.149 21.613 21.613 0 01-2.436-1.374c-.492-.333-1.017-.6-1.374-1.08-.582-.831 2.53-11.244 2.53-11.244z" fill="#E0E0E0"/><path d="M87.391 78.615c-.57.858-2.289 5.859-3.549 15.3 1.68 1.827 10.176 2.271 12.75-1.626 0 0 1.12-8.574 1.101-10.443 0-1.293.378-4.2-1.887-5.013l-3.39-.228-3.89.534a12.96 12.96 0 00-1.135 1.476z" fill="#F5F5F5"/><path d="M91.99 78.858c.582.423 1.65.738 2.316.558.666-.18.9-.813.948-1.458l-.774.111-.3.471-.39-.3-1.8.618z" fill="#459AE9"/><path opacity=".3" d="M91.99 78.858c.582.423 1.65.738 2.316.558.666-.18.9-.813.948-1.458l-.774.111-.3.471-.39-.3-1.8.618z" fill="#000"/><path d="M98.651 70.27a3.489 3.489 0 10-6.263-3.078 3.489 3.489 0 006.263 3.077zm-9.271.662s.44 2.679.645 3.126a1.2 1.2 0 00.669.6l.048-1.869-1.362-1.857zm.888-3.768a1.309 1.309 0 00-1.098.33c-.489.453-.3 1.953.21 3.438l1.059.174-.171-3.942z" fill="#263238"/><path d="M90.67 71.136c-.231-.03-.3-.399-.552-.687a1.05 1.05 0 00-1.677.255c-.48.9.276 2.154.942 2.4 1.149.42 1.359-.318 1.359-.318l-.111 4.2c.672.822 3.246 1.239 3.555 1.548 0 0 .477-.849.243-1.482l.057-1.278c.515.108 1.04.159 1.566.153.864-.09 1.434-.741 1.74-1.656.486-1.47.702-2.667.486-5.613-.234-3.231-3.969-3.441-6.045-2.265-2.076 1.176-1.563 4.743-1.563 4.743z" fill="#FFA8A7"/><path d="M90.742 71.481c-.201-.042-.37-.78-.624-1.032-.351-.354.15-3.3.15-3.3a1.435 1.435 0 01.429-1.5 3.046 3.046 0 012.928-.849c.928.21 1.866.372 2.81.486a6.437 6.437 0 002.917-.345 2.999 2.999 0 01-.183 1.548 2.4 2.4 0 01-1.002 1.095c-.498.3-1.005.465-2.046.507a11.94 11.94 0 01-3.804-.411c-.393-.075-.495.3-.76 1.344-.227.915.106 2.64-.815 2.457z" fill="#263238"/><path d="M90.259 67.401l-1.257-.753a.714.714 0 01.993-.279.77.77 0 01.264 1.032z" fill="#263238"/><path d="M94.486 75.78s-1.896-.477-2.547-.864a2.209 2.209 0 01-.882-.957c.083.396.244.771.474 1.104.462.648 2.931 1.224 2.931 1.224l.024-.507z" fill="#F28F8F"/><path d="M99.097 70.146h-.159a4.799 4.799 0 00-1.608.132c-.522.183-.714.366-.999.381-.285.015-.48-.15-1.014-.276a5.432 5.432 0 00-1.71.04l-.174.026a.32.32 0 00-.213.3c.012.119.061.23.141.318a.35.35 0 01.048.13c.022.303.07.604.144.9.044.116.11.223.195.314a.78.78 0 00.105.093l.063.04c.058.034.12.062.186.08h.132c.056.01.112.017.168.018h.165a1.348 1.348 0 001.221-.735c.198-.35.19-.837.513-.852h.06c.234.045.174.492.3.804a1.065 1.065 0 00.255.39l.027.024c.009.01.019.018.03.024l.024.021.03.018.024.015h.015a.976.976 0 00.273.096h.024c.114.014.229.014.342 0a1.146 1.146 0 001.038-.68c.113-.3.202-.606.267-.919a.3.3 0 01.07-.123.7.7 0 00.17-.342c.021-.102-.066-.228-.153-.237zm-3.468 1.461a1.152 1.152 0 01-.279.49 1.131 1.131 0 01-.786.3.75.75 0 01-.714-.3l-.02-.034-.019-.033a.143.143 0 01-.015-.03s0-.02-.015-.03v-.075c0-.036-.02-.069-.03-.099 0-.02 0-.039-.015-.06-.015-.02 0-.066 0-.096v-.036c-.039-.237-.069-.705.06-.819a1.5 1.5 0 01.978-.216h.054a.7.7 0 01.237.027l.09.018c.077.017.153.038.228.063l.07.027.074.033h.015l.027.015c.059.028.11.07.15.12.057.248.025.508-.09.735zm3.063-.26a1.199 1.199 0 01-.552.794.95.95 0 01-.396.105.748.748 0 01-.756-.32v-.022l-.015-.024-.018-.039-.018-.042v-.054a1.1 1.1 0 01-.036-.177 1.15 1.15 0 01.07-.726c.246-.22.553-.359.881-.399.08-.015.16-.025.24-.03h.508l.057.021a.358.358 0 01.123.075c.078.117-.018.591-.087.837z" fill="#37474F"/><path d="M93.436 70.464l-3.71-.264c.219.08.407.228.536.423l3.102.3.072-.459z" fill="#37474F"/><path d="M94.97 71.298a.339.339 0 01-.37.3.342.342 0 01-.3-.384.335.335 0 01.652-.055.333.333 0 01.011.13l.006.009z" fill="#263238"/><path d="M94.546 73.5l1.116.564a.614.614 0 01-.834.3.657.657 0 01-.282-.864z" fill="#F28F8F"/><path d="M98.038 69.9l-.84-.234a.436.436 0 01.84.234zm-3.213-.123l-.837.255a.438.438 0 01.837-.255zm3.039 1.458a.337.337 0 01-.438.272.337.337 0 01.138-.653.343.343 0 01.3.381z" fill="#263238"/><path d="M96.196 71.1l-.078 2.061 1.281-.345-1.074-1.749a.228.228 0 00-.129.033z" fill="#F28F8F"/><path d="M89.626 98.07v.246a.69.69 0 00.345.6l6.576 3.786a.716.716 0 00.69 0l12.069-6.969a.688.688 0 00.345-.6v-.168l-12.756 7.365-7.269-4.26z" fill="#EBEBEB"/><path d="M109.651 94.965l-7.155-4.13a.416.416 0 00-.411 0l-12.414 7.17a.089.089 0 00-.045.077.09.09 0 00.045.078l7.224 4.173 12.756-7.368z" fill="#FAFAFA"/><path d="M99.586 91.728c.555.21.642.456 1.092.711a3.24 3.24 0 001.608.438c.361.128.708.293 1.035.492.6.405.831.492 1.563.264.798-.252.234-1.044 0-1.434a13.998 13.998 0 00-1.227-1.689c-.255-.234-1.587-.44-2.736-1.143-.888.333-1.272 1.191-1.335 2.361z" fill="#FFA8A7"/><path d="M96.83 101.724l-3.862-2.226 11.286-6.516 3.879 2.214-11.304 6.528zm-1.9-6.192l.072.042 1.893 1.092 3.363-1.944.069-.04-1.962-1.133-3.435 1.983z" fill="#E0E0E0"/><path d="M95.002 95.574l1.893 1.092 3.363-1.944-1.893-1.092-3.363 1.944z" fill="#E6E6E6"/><path d="M96.895 102.33v.459c.12 0 .238-.031.342-.09l12.069-6.969a.686.686 0 00.345-.6v-.168l-12.756 7.368z" fill="#EBEBEB"/><path d="M96.895 102.33v.459c.12 0 .238-.031.342-.09l12.069-6.969a.686.686 0 00.345-.6v-.168l-12.756 7.368z" fill="#E0E0E0" opacity=".5"/><path d="M97.087 102.432a.813.813 0 00.705-.054l12.015-6.936a.823.823 0 00.399-.57l1.314-7.845c.003-.045.003-.09 0-.135a.832.832 0 00-.243-.582l-12.486 7.2a.6.6 0 00-.3.423l-1.404 8.499z" fill="#EBEBEB"/><path d="M96.895 102.333l.081.045c.036.02.073.038.111.054l1.422-8.487a.6.6 0 01.3-.423l12.486-7.2a.867.867 0 00-.165-.126L98.617 93.42a.6.6 0 00-.3.423l-1.422 8.49z" fill="#FAFAFA"/><path d="M103.855 95.193a2.653 2.653 0 011.2-1.56c.579-.333.978-.18.9.345a2.635 2.635 0 01-1.2 1.557c-.588.336-.987.183-.9-.342z" fill="#459AE9"/><path d="M90.745 95.166c-1.341-.681-6.027-3-7.54-3.9-1.25-.744-1.76-1.41-1.613-2.343.135-.867 2.1-7.326 2.883-8.979.696-1.452 2.319-2.319 3.9-2.685 1.1 1.281.3 5.082-.771 6.471a48.31 48.31 0 00-1.707 4.674s2.193 1.695 4.179 2.913c1.077.66 2.055 1.452 2.934 1.911.77.399 1.932 1.152 2.136 1.428.204.276 1.224 1.929 1.46 2.316.643 1.056.082 1.278-.75 1.377-.761.09-1.286-.324-1.8-.834a7.629 7.629 0 01-.653-.789 2.895 2.895 0 01-1.62-.651l-1.038-.909z" fill="#FFA8A7"/><path d="M82.318 85.86s.978-3.3 1.455-4.599c.663-1.8.97-2.307 1.995-3.3.9-.885 2.766-.819 2.766-.819.762.648.9 1.743.6 3.642a7.632 7.632 0 01-1.29 3.177l-1.74 4.341 5.26 3.861a3.711 3.711 0 00-1.726 2.445s-4.64-2.217-6.123-3c-1.482-.783-2.214-1.299-2.016-2.571.206-1.075.48-2.136.82-3.177zm8.352-10.278c-.393.102-.72.828-.96 1.137-.24.309.34 1.653 1.5 2.295 1.161.642 1.875.645 1.875.645s.141-.834.351-1.044a.6.6 0 01.753-.075s0-.561-.75-.663c-.75-.102-2.28-.768-2.78-1.719l.011-.576z" fill="#E0E0E0"/><path d="M94.186 78.54a1.224 1.224 0 01.117-.633c.1-.271.143-.56.126-.849l.048-1.101a.787.787 0 01.393.201c.208.317.376.659.5 1.017.094.354.109 1.56-.176 1.968 0 0-.162-.696-.387-.846-.327-.213-.621.243-.621.243z" fill="#E0E0E0"/><path d="M93.847 79.998c-.279 1.83-.95 8.262-.927 8.838.024.576.855 2.898 1.335 2.529.261-.201 1.293-2.607 1.251-3.219-.042-.612-.762-8.364-.762-8.364s-.474-.582-.897.216z" fill="#459AE9"/><path opacity=".15" d="M94.744 79.782s-.474-.582-.9.216c-.039.255-.087.6-.138 1.008a3.54 3.54 0 01.42-.9c.18-.152.39-.262.618-.324z" fill="#000"/><path d="M94.186 78.336c-.5.096-.744.279-.729.63a2.4 2.4 0 00.39 1.032 1.201 1.201 0 01.9-.216c.145-.278.223-.586.228-.9.01-.507-.198-.657-.789-.546z" fill="#459AE9"/></svg>