<svg width="151" height="150" viewBox="0 0 151 150" fill="none" xmlns="http://www.w3.org/2000/svg">
<path d="M75.8748 146.166C115.59 146.166 147.785 127.578 147.785 104.649C147.785 81.7198 115.59 63.132 75.8748 63.132C36.16 63.132 3.96484 81.7198 3.96484 104.649C3.96484 127.578 36.16 146.166 75.8748 146.166Z" fill="#F5F5F5"/>
<path d="M57.1764 83.76L69.8334 76.452L52.6374 66.534L39.9834 73.842L57.1764 83.76Z" fill="#E6E6E6"/>
<path d="M22.0702 100.752C25.5502 102.783 25.5502 106.077 22.0702 108.111C18.5902 110.145 12.9472 110.142 9.4702 108.111C5.9932 106.08 5.9902 102.783 9.4702 100.752C12.9502 98.721 18.5902 98.721 22.0702 100.752Z" fill="#E0E0E0"/>
<path d="M132.197 110.139L145.997 102.192C146.068 102.169 146.129 102.124 146.173 102.063C146.216 102.003 146.24 101.93 146.24 101.856C146.24 101.782 146.216 101.709 146.173 101.649C146.129 101.588 146.068 101.543 145.997 101.52L111.908 81.774C111.728 81.6823 111.529 81.6346 111.328 81.6346C111.126 81.6346 110.927 81.6823 110.747 81.774L96.9471 89.721C96.8765 89.7444 96.8151 89.7895 96.7716 89.8498C96.728 89.9101 96.7046 89.9826 96.7046 90.057C96.7046 90.1314 96.728 90.2039 96.7716 90.2642C96.8151 90.3245 96.8765 90.3696 96.9471 90.393L131.024 110.136C131.205 110.229 131.406 110.278 131.61 110.279C131.814 110.279 132.015 110.231 132.197 110.139Z" fill="#E0E0E0"/>
<path d="M95.4291 88.149L106.295 81.9C106.35 81.8812 106.398 81.8456 106.432 81.7983C106.466 81.7509 106.484 81.6942 106.484 81.636C106.484 81.5778 106.466 81.5211 106.432 81.4737C106.398 81.4264 106.35 81.3908 106.295 81.372L94.6431 74.619C94.5035 74.5486 94.3494 74.5119 94.1931 74.5119C94.0368 74.5119 93.8826 74.5486 93.7431 74.619L82.8651 80.868C82.6101 81.012 82.6101 81.249 82.8651 81.396L94.5141 88.149C94.6557 88.2214 94.8125 88.2592 94.9716 88.2592C95.1307 88.2592 95.2874 88.2214 95.4291 88.149Z" fill="#E0E0E0"/>
<path d="M31.4573 98.037L18.3653 90.495C18.2993 90.4716 18.2422 90.4283 18.2018 90.3711C18.1613 90.3139 18.1396 90.2456 18.1396 90.1755C18.1396 90.1055 18.1613 90.0371 18.2018 89.9799C18.2422 89.9227 18.2993 89.8794 18.3653 89.856L39.7493 77.442C39.9195 77.3541 40.1083 77.3083 40.2998 77.3083C40.4914 77.3083 40.6801 77.3541 40.8503 77.442L53.9423 84.987C54.0087 85.0097 54.0663 85.0525 54.1071 85.1095C54.1479 85.1665 54.1698 85.2349 54.1698 85.305C54.1698 85.3751 54.1479 85.4435 54.1071 85.5005C54.0663 85.5575 54.0087 85.6004 53.9423 85.623L32.5583 98.037C32.3881 98.1249 32.1994 98.1707 32.0078 98.1707C31.8163 98.1707 31.6275 98.1249 31.4573 98.037Z" fill="#E6E6E6"/>
<path d="M66.8241 141.948C79.4444 141.948 89.6751 136.041 89.6751 128.754C89.6751 121.467 79.4444 115.56 66.8241 115.56C54.2039 115.56 43.9731 121.467 43.9731 128.754C43.9731 136.041 54.2039 141.948 66.8241 141.948Z" fill="#E0E0E0"/>
<path d="M88.4544 130.605C100.382 130.605 110.051 125.022 110.051 118.134C110.051 111.246 100.382 105.663 88.4544 105.663C76.5267 105.663 66.8574 111.246 66.8574 118.134C66.8574 125.022 76.5267 130.605 88.4544 130.605Z" fill="#E0E0E0"/>
<path d="M57.0171 82.581V74.109L68.0241 67.752V76.227L57.0171 82.581Z" fill="#F0F0F0"/>
<path d="M57.0171 74.109L41.7891 65.328V73.803L57.0171 82.581V74.109Z" fill="#E6E6E6"/>
<path d="M57.0169 74.109L68.3509 67.563L52.7959 58.593L41.4619 65.139L57.0169 74.109Z" fill="#FAFAFA"/>
<path d="M57.0171 74.109V76.227L68.3511 69.684V67.563L57.0171 74.109Z" fill="#F0F0F0"/>
<path d="M41.4619 65.139L57.0169 74.109V76.227L41.4619 67.26V65.139Z" fill="#E6E6E6"/>
<path opacity="0.1" d="M57.0171 76.227V76.692L68.0241 70.338V69.873L57.0171 76.227ZM41.7891 67.914L57.0171 76.692V76.227L41.7891 67.446V67.914Z" fill="black"/>
<path d="M60.6408 75.396L64.3998 73.224C64.5618 73.131 64.6998 73.209 64.6998 73.395V75.618C64.6934 75.7202 64.6629 75.8194 64.6108 75.9075C64.5586 75.9957 64.4863 76.0702 64.3998 76.125L60.6408 78.3C60.4788 78.393 60.3408 78.318 60.3408 78.132V75.9C60.3477 75.7983 60.3784 75.6997 60.4305 75.6121C60.4827 75.5245 60.5547 75.4505 60.6408 75.396Z" fill="#E0E0E0"/>
<path opacity="0.1" d="M60.6408 75.396L64.3998 73.224C64.5618 73.131 64.6998 73.209 64.6998 73.395V75.618C64.6934 75.7202 64.6629 75.8194 64.6108 75.9075C64.5586 75.9957 64.4863 76.0702 64.3998 76.125L60.6408 78.3C60.4788 78.393 60.3408 78.318 60.3408 78.132V75.9C60.3477 75.7983 60.3784 75.6997 60.4305 75.6121C60.4827 75.5245 60.5547 75.4505 60.6408 75.396Z" fill="black"/>
<path d="M60.8747 75.648L64.1747 73.755C64.2827 73.692 64.3697 73.755 64.3697 73.869V75.537C64.3661 75.6044 64.3466 75.6701 64.3127 75.7285C64.2788 75.7869 64.2315 75.8365 64.1747 75.873L60.8747 77.766C60.7667 77.829 60.6797 77.766 60.6797 77.655V75.987C60.6835 75.9192 60.7031 75.8532 60.7369 75.7943C60.7708 75.7355 60.818 75.6854 60.8747 75.648Z" fill="#F5F5F5"/>
<g opacity="0.2">
<path d="M60.9743 76.089C60.9658 76.0891 60.9574 76.0869 60.9501 76.0827C60.9427 76.0785 60.9365 76.0724 60.9323 76.065C60.9291 76.0595 60.927 76.0534 60.9262 76.0471C60.9254 76.0408 60.9258 76.0344 60.9275 76.0282C60.9291 76.0221 60.932 76.0163 60.9359 76.0113C60.9399 76.0063 60.9447 76.0021 60.9503 75.999L64.0463 74.199C64.0514 74.1957 64.0571 74.1935 64.063 74.1925C64.069 74.1915 64.0751 74.1917 64.081 74.1931C64.0869 74.1945 64.0924 74.1971 64.0973 74.2007C64.1021 74.2043 64.1062 74.2088 64.1093 74.214C64.1129 74.2194 64.1154 74.2255 64.1165 74.2319C64.1175 74.2383 64.1172 74.2449 64.1155 74.2511C64.1138 74.2574 64.1107 74.2632 64.1066 74.2682C64.1024 74.2732 64.0972 74.2772 64.0913 74.28L60.9983 76.08L60.9743 76.089Z" fill="black"/>
<path d="M60.9741 76.5C60.9656 76.5001 60.9573 76.4979 60.9499 76.4937C60.9425 76.4895 60.9364 76.4834 60.9321 76.476C60.929 76.4707 60.9269 76.4649 60.9262 76.4588C60.9254 76.4527 60.9258 76.4465 60.9275 76.4406C60.9292 76.4347 60.9321 76.4292 60.936 76.4245C60.9398 76.4197 60.9447 76.4158 60.9501 76.413L64.0461 74.613C64.0514 74.6099 64.0573 74.6078 64.0633 74.607C64.0694 74.6062 64.0756 74.6067 64.0815 74.6084C64.0874 74.6101 64.0929 74.6129 64.0976 74.6168C64.1024 74.6207 64.1063 74.6255 64.1091 74.631C64.1128 74.6361 64.1152 74.642 64.1162 74.6482C64.1173 74.6544 64.117 74.6608 64.1152 74.6668C64.1135 74.6729 64.1104 74.6784 64.1063 74.6831C64.1021 74.6878 64.0969 74.6916 64.0911 74.694L60.9981 76.494C60.991 76.4985 60.9826 76.5007 60.9741 76.5Z" fill="black"/>
<path d="M60.9741 76.908C60.9634 76.9082 60.9529 76.9047 60.9444 76.8983C60.9358 76.8918 60.9297 76.8827 60.9269 76.8724C60.9242 76.862 60.9249 76.851 60.9291 76.8412C60.9333 76.8313 60.9407 76.8232 60.9501 76.818L64.0461 75.018C64.0569 75.0125 64.0694 75.0112 64.0811 75.0146C64.0928 75.0179 64.1028 75.0256 64.1091 75.036C64.1127 75.0414 64.1152 75.0475 64.1162 75.0539C64.1173 75.0603 64.117 75.0669 64.1153 75.0731C64.1136 75.0794 64.1105 75.0852 64.1063 75.0902C64.1022 75.0952 64.0969 75.0992 64.0911 75.102L60.9981 76.902L60.9741 76.908Z" fill="black"/>
<path d="M60.9741 77.316C60.9656 77.3161 60.9573 77.3139 60.9499 77.3097C60.9425 77.3055 60.9364 77.2994 60.9321 77.292C60.929 77.2867 60.9269 77.2809 60.9262 77.2748C60.9254 77.2687 60.9258 77.2625 60.9275 77.2566C60.9292 77.2507 60.9321 77.2452 60.936 77.2405C60.9398 77.2357 60.9447 77.2318 60.9501 77.229L64.0461 75.429C64.0514 75.426 64.0573 75.4242 64.0633 75.4235C64.0694 75.4228 64.0755 75.4233 64.0813 75.425C64.0872 75.4266 64.0927 75.4294 64.0974 75.4332C64.1022 75.437 64.1062 75.4417 64.1091 75.447C64.1121 75.4523 64.114 75.4582 64.1146 75.4642C64.1153 75.4703 64.1148 75.4764 64.1132 75.4822C64.1115 75.4881 64.1087 75.4935 64.1049 75.4983C64.1011 75.5031 64.0964 75.507 64.0911 75.51L60.9981 77.31L60.9741 77.316Z" fill="black"/>
</g>
<path opacity="0.1" d="M42.3677 64.617L57.6497 73.431L68.0807 67.407L52.7957 58.593L42.3677 64.617Z" fill="black"/>
<path d="M57.7427 72.762V64.287L68.7497 57.933V66.405L57.7427 72.762Z" fill="#F0F0F0"/>
<path d="M57.7431 64.287L42.5181 55.509V63.981L57.7431 72.762V64.287Z" fill="#E6E6E6"/>
<path d="M57.7429 64.287L69.0769 57.741L53.5249 48.771L42.1909 55.317L57.7429 64.287Z" fill="#FAFAFA"/>
<path d="M57.7427 64.287V66.405L69.0767 59.862V57.741L57.7427 64.287Z" fill="#F0F0F0"/>
<path d="M42.1909 55.317L57.7429 64.287V66.405L42.1909 57.438V55.317Z" fill="#E6E6E6"/>
<path opacity="0.1" d="M57.7431 66.405V66.873L68.7501 60.516V60.051L57.7431 66.405ZM42.5181 58.092L57.7431 66.873V66.405L42.5151 57.627L42.5181 58.092Z" fill="black"/>
<path d="M61.3669 65.574L65.1289 63.405C65.2909 63.312 65.4289 63.387 65.4289 63.573V65.796C65.4232 65.8988 65.393 65.9987 65.3408 66.0874C65.2886 66.1761 65.216 66.2511 65.1289 66.306L61.3669 68.475C61.2049 68.571 61.0669 68.493 61.0669 68.307V66.084C61.0733 65.9814 61.1038 65.8817 61.1559 65.7931C61.208 65.7045 61.2803 65.6294 61.3669 65.574Z" fill="#E0E0E0"/>
<path opacity="0.1" d="M61.3669 65.574L65.1289 63.405C65.2909 63.312 65.4289 63.387 65.4289 63.573V65.796C65.4232 65.8988 65.393 65.9987 65.3408 66.0874C65.2886 66.1761 65.216 66.2511 65.1289 66.306L61.3669 68.475C61.2049 68.571 61.0669 68.493 61.0669 68.307V66.084C61.0733 65.9814 61.1038 65.8817 61.1559 65.7931C61.208 65.7045 61.2803 65.6294 61.3669 65.574Z" fill="black"/>
<path d="M61.6071 65.829L64.8861 63.936C64.9941 63.873 65.0811 63.936 65.0811 64.047V65.715C65.0773 65.7828 65.0577 65.8488 65.0239 65.9076C64.99 65.9665 64.9428 66.0166 64.8861 66.054L61.6071 67.947C61.4991 68.007 61.4121 67.947 61.4121 67.833V66.165C61.4156 66.0975 61.4352 66.0319 61.4691 65.9735C61.503 65.915 61.5503 65.8655 61.6071 65.829Z" fill="#F5F5F5"/>
<g opacity="0.2">
<path d="M61.7002 66.267C61.6917 66.2671 61.6833 66.2649 61.6759 66.2607C61.6686 66.2565 61.6624 66.2504 61.6582 66.243C61.6551 66.2377 61.653 66.2319 61.6522 66.2258C61.6514 66.2197 61.6519 66.2135 61.6536 66.2076C61.6553 66.2017 61.6581 66.1962 61.662 66.1915C61.6659 66.1867 61.6707 66.1828 61.6762 66.18L64.7722 64.38C64.7773 64.3764 64.7832 64.3739 64.7894 64.3729C64.7956 64.3718 64.802 64.3722 64.808 64.3739C64.8141 64.3756 64.8196 64.3787 64.8243 64.3829C64.829 64.387 64.8328 64.3922 64.8352 64.398C64.8434 64.4064 64.8481 64.4177 64.8481 64.4295C64.8481 64.4413 64.8434 64.4526 64.8352 64.461L61.7392 66.261C61.734 66.2657 61.7275 66.2688 61.7206 66.2698C61.7137 66.2709 61.7066 66.2699 61.7002 66.267Z" fill="black"/>
<path d="M61.7001 66.678C61.6894 66.6782 61.679 66.6748 61.6704 66.6683C61.6619 66.6618 61.6557 66.6527 61.653 66.6424C61.6502 66.632 61.651 66.6211 61.6552 66.6112C61.6594 66.6013 61.6668 66.5932 61.6761 66.588L64.7751 64.8C64.7863 64.7936 64.7995 64.792 64.8119 64.7953C64.8242 64.7987 64.8348 64.8069 64.8411 64.818C64.8475 64.8291 64.8492 64.8423 64.8458 64.8547C64.8424 64.8671 64.8343 64.8776 64.8231 64.884L61.7271 66.684L61.7001 66.678Z" fill="black"/>
<path d="M61.7003 67.086C61.6918 67.0861 61.6835 67.0839 61.6761 67.0797C61.6687 67.0755 61.6626 67.0694 61.6583 67.062C61.6526 67.0507 61.6513 67.0377 61.6546 67.0255C61.658 67.0133 61.6657 67.0028 61.6763 66.996L64.7753 65.211C64.7805 65.2074 64.7863 65.2049 64.7925 65.2039C64.7987 65.2028 64.8051 65.2032 64.8112 65.2049C64.8172 65.2066 64.8228 65.2097 64.8275 65.2139C64.8322 65.218 64.8359 65.2232 64.8383 65.229C64.8466 65.2374 64.8512 65.2487 64.8512 65.2605C64.8512 65.2723 64.8466 65.2836 64.8383 65.292L61.7423 67.092L61.7003 67.086Z" fill="black"/>
<path d="M61.7004 67.5C61.6921 67.5007 61.6838 67.4991 61.6764 67.4954C61.669 67.4917 61.6628 67.486 61.6584 67.479C61.6552 67.4735 61.6531 67.4674 61.6523 67.4611C61.6514 67.4548 61.6519 67.4484 61.6535 67.4422C61.6552 67.4361 61.6581 67.4303 61.662 67.4253C61.6659 67.4203 61.6708 67.4161 61.6764 67.413L64.7724 65.613C64.7776 65.6099 64.7835 65.6078 64.7896 65.607C64.7957 65.6062 64.8019 65.6067 64.8078 65.6084C64.8137 65.6101 64.8192 65.6129 64.8239 65.6168C64.8286 65.6207 64.8325 65.6255 64.8354 65.631C64.8438 65.6399 64.8485 65.6517 64.8485 65.664C64.8485 65.6763 64.8438 65.6881 64.8354 65.697L61.7394 67.497C61.7339 67.5012 61.7272 67.5037 61.7203 67.5043C61.7134 67.5048 61.7065 67.5033 61.7004 67.5Z" fill="black"/>
</g>
<path d="M31.8588 97.206L19.7778 90.231V52.365L31.8588 59.34V97.206Z" fill="#E0E0E0"/>
<path d="M31.8589 59.34L52.5769 47.379V85.245L31.8589 97.206V59.34Z" fill="#EBEBEB"/>
<path d="M52.5768 47.379L31.8588 59.34L19.7778 52.365L40.4928 40.404L52.5768 47.379Z" fill="#F5F5F5"/>
<path d="M33.584 83.883L50.849 73.914V83.511L51.167 83.694L33.902 93.663L33.584 93.477V83.883Z" fill="#E0E0E0"/>
<path d="M33.9019 84.066L51.1669 74.097V83.694L33.9019 93.663V84.066Z" fill="#F5F5F5"/>
<path d="M40.5349 81.864L42.8809 80.508C43.1809 80.331 43.4329 80.412 43.4329 80.688C43.4106 80.8575 43.3491 81.0195 43.2533 81.1612C43.1575 81.3028 43.03 81.4202 42.8809 81.504L40.5349 82.86C40.2349 83.037 39.9829 82.956 39.9829 82.68C40.0052 82.5105 40.0667 82.3484 40.1626 82.2068C40.2584 82.0652 40.3859 81.9478 40.5349 81.864Z" fill="#E0E0E0"/>
<path d="M33.584 72.294L50.849 62.328V71.922L51.167 72.108L33.902 82.074L33.584 81.891V72.294Z" fill="#E0E0E0"/>
<path d="M33.9019 72.477L51.1669 62.511V72.108L33.9019 82.074V72.477Z" fill="#F5F5F5"/>
<path d="M40.5349 70.275L42.8809 68.919C43.1809 68.745 43.4329 68.826 43.4329 69.099C43.4106 69.2689 43.3491 69.4313 43.2533 69.5735C43.1575 69.7156 43.03 69.8335 42.8809 69.918L40.5349 71.271C40.2349 71.448 39.9829 71.367 39.9829 71.094C40.0052 70.9241 40.0667 70.7616 40.1625 70.6195C40.2583 70.4774 40.3858 70.3595 40.5349 70.275Z" fill="#E0E0E0"/>
<path d="M33.584 60.708L50.849 50.739V60.336L51.167 60.519L33.902 70.488L33.584 70.302V60.708Z" fill="#E0E0E0"/>
<path d="M33.9019 60.891L51.1669 50.922V60.519L33.9019 70.488V60.891Z" fill="#F5F5F5"/>
<path d="M40.532 58.689L42.881 57.333C43.181 57.156 43.433 57.237 43.433 57.513C43.4107 57.6825 43.3492 57.8445 43.2533 57.9862C43.1575 58.1278 43.03 58.2452 42.881 58.329L40.532 59.7C40.232 59.877 39.98 59.796 39.98 59.52C40.0008 59.348 40.0615 59.1833 40.1574 59.039C40.2532 58.8947 40.3815 58.7748 40.532 58.689Z" fill="#E0E0E0"/>
<path d="M10.1753 104.301C7.17531 101.217 5.42931 91.158 8.34531 88.701H23.1863C26.1023 91.146 24.3473 101.199 21.3593 104.301L21.2783 104.385L21.1763 104.487C21.0905 104.573 21.0004 104.654 20.9063 104.73L20.8343 104.787C20.7623 104.844 20.6873 104.904 20.6093 104.958C20.4793 105.052 20.3503 105.136 20.2223 105.21C17.7623 106.644 13.7753 106.644 11.3183 105.21C11.1839 105.133 11.0537 105.049 10.9283 104.958C10.8533 104.904 10.7873 104.85 10.7183 104.796L10.6283 104.727C10.5353 104.649 10.4513 104.571 10.3703 104.493L10.2503 104.376L10.1753 104.301Z" fill="#EBEBEB"/>
<path d="M21.8992 87.726C25.2832 89.703 25.2832 92.907 21.8992 94.884C18.5152 96.861 13.0252 96.861 9.64118 94.884C6.25718 92.907 6.25418 89.703 9.64118 87.726C13.0282 85.749 18.5152 85.749 21.8992 87.726Z" fill="#F5F5F5"/>
<path d="M20.2702 88.677C22.7572 90.129 22.7572 92.481 20.2702 93.933C17.7832 95.385 13.7542 95.385 11.2702 93.933C8.78623 92.481 8.78623 90.129 11.2702 88.677C13.7542 87.225 17.7862 87.225 20.2702 88.677Z" fill="#E0E0E0"/>
<path d="M11.2671 91.17C13.7541 89.721 17.7861 89.721 20.2671 91.17C20.8742 91.4993 21.3897 91.9746 21.7671 92.553C21.3904 93.1312 20.8747 93.6057 20.2671 93.933C17.7831 95.385 13.7511 95.385 11.2671 93.933C10.6595 93.6057 10.1438 93.1312 9.76709 92.553C10.1445 91.9746 10.66 91.4993 11.2671 91.17Z" fill="#FAFAFA"/>
<path d="M20.0331 68.721L16.0431 72.84L20.0901 70.284C20.2644 71.6787 20.1923 73.0932 19.8771 74.463C18.7911 75.3223 17.774 76.2651 16.8351 77.283L19.9671 75.543C19.9671 75.543 20.4801 77.691 20.0121 81.132C19.8891 82.032 19.1301 83.832 18.6741 85.143C18.4679 85.7541 18.2203 86.3505 17.9331 86.928C17.9331 86.964 17.8971 87 17.8791 87.036C17.0691 86.702 16.2291 86.387 15.3591 86.091C14.6811 85.041 13.6281 82.374 13.0791 80.148C10.9791 71.625 16.8801 65.811 21.9171 63.459C21.9171 63.459 20.4081 65.961 20.0331 68.721Z" fill="#EBEBEB"/>
<path d="M16.3553 69.57C15.5663 70.605 15.1913 71.88 14.9423 73.137C14.7017 74.4041 14.6011 75.6939 14.6423 76.983C14.6943 79.562 15.3564 82.0921 16.5743 84.366C16.5902 84.3954 16.5938 84.43 16.5842 84.4621C16.5747 84.4941 16.5528 84.5211 16.5233 84.537C16.4939 84.5529 16.4593 84.5565 16.4273 84.5469C16.3952 84.5373 16.3682 84.5154 16.3523 84.486C15.1571 82.1659 14.528 79.5958 14.5163 76.986C14.4961 75.6896 14.6178 74.3949 14.8793 73.125C15.1523 71.865 15.5483 70.593 16.3553 69.57Z" fill="white"/>
<path d="M2.4502 72.03C2.5432 72.192 4.0672 74.829 6.1432 79.806L10.7752 81.423H7.1482L8.5072 84.75L13.0312 86.55L9.2752 86.493C9.2752 86.493 9.6622 90.252 12.0202 92.208C13.3252 93.288 13.9492 93.408 14.5192 93.201C15.2152 92.937 15.6952 91.962 16.2202 90.477C16.7452 88.992 16.7602 85.803 15.8452 82.539C15.5939 81.6657 15.2202 80.8325 14.7352 80.064C11.9362 75.582 5.7052 72.555 2.4502 72.03Z" fill="#F0F0F0"/>
<path d="M7.17529 74.475C9.49854 75.9654 11.4833 77.9267 13.0013 80.232C13.752 81.3932 14.3168 82.6645 14.6753 84C15.0155 85.3397 15.1321 86.7263 15.0203 88.104C14.9998 86.74 14.8063 85.3842 14.4443 84.069C14.0838 82.758 13.5458 81.5024 12.8453 80.337C11.4293 78.003 9.41629 76.068 7.18729 74.487V74.466L7.17529 74.475Z" fill="white"/>
<path d="M32.093 73.647C31.6131 73.6412 31.1333 73.6632 30.656 73.713C28.7738 73.9324 26.9259 74.3827 25.154 75.054C24.497 75.297 23.837 75.576 23.189 75.885C22.865 76.038 22.544 76.203 22.229 76.374C20.6557 77.1929 19.2309 78.2698 18.014 79.56C17.4473 80.1772 16.9595 80.8625 16.562 81.6C16.511 81.693 16.457 81.786 16.409 81.885C16.286 82.137 16.175 82.383 16.07 82.629C14.87 85.374 14.753 87.282 14.831 89.397C14.888 91.035 15.431 92.91 15.767 93.219C15.8093 93.2599 15.8567 93.2952 15.908 93.324C16.376 93.624 17.108 93.45 18.509 92.673C21.296 91.113 22.388 87.168 22.388 87.168L18.518 86.511L23.489 85.518L25.508 82.371L21.791 81.693L26.84 80.916C29.903 76.215 31.961 73.8 32.075 73.656L32.093 73.647Z" fill="#F0F0F0"/>
<path d="M30.656 73.713C28.7738 73.9324 26.9259 74.3827 25.154 75.054C24.497 75.297 23.837 75.576 23.189 75.885C22.865 76.038 22.544 76.203 22.229 76.374C20.6557 77.1929 19.2309 78.2698 18.014 79.56C17.4473 80.1772 16.9595 80.8625 16.562 81.6C16.511 81.693 16.457 81.786 16.409 81.885C16.286 82.137 16.175 82.383 16.07 82.629C14.87 85.374 14.753 87.282 14.831 89.397C14.888 91.035 15.431 92.91 15.767 93.219C15.8093 93.2599 15.8567 93.2952 15.908 93.324C16 93.3803 16.1017 93.419 16.208 93.438C15.863 90.894 17.108 84.438 19.007 81.795C20.975 79.038 25.661 75.036 32.075 73.656C31.6013 73.6489 31.1275 73.6679 30.656 73.713Z" fill="#E6E6E6"/>
<path d="M87.245 49.077L93.347 45.552C93.8689 45.2886 94.4454 45.1513 95.03 45.1513C95.6146 45.1513 96.1911 45.2886 96.713 45.552L102.815 49.077C103.305 49.3962 103.712 49.8263 104.005 50.3324C104.297 50.8385 104.466 51.4064 104.498 51.99V81.024L95.03 86.49L85.562 81.024V51.99C85.594 51.4064 85.763 50.8385 86.0554 50.3324C86.3478 49.8263 86.7554 49.3962 87.245 49.077Z" fill="#F5F5F5"/>
<path d="M95.03 57.456C94.9981 56.8724 94.829 56.3045 94.5366 55.7984C94.2442 55.2923 93.8367 54.8622 93.347 54.543L87.245 51.021C86.315 50.484 85.562 50.919 85.562 51.99V81.024L95.03 86.49V57.456Z" fill="#EBEBEB"/>
<path d="M104.498 51.99V81.024L95.0302 86.49V57.456C95.0002 56.7508 94.7622 56.0702 94.3462 55.5L103.811 50.034C104.227 50.6045 104.466 51.2847 104.498 51.99Z" fill="#E0E0E0"/>
<path d="M86.3511 56.013L94.2411 60.57V71.058L86.3511 66.501V56.013Z" fill="#F5F5F5"/>
<path d="M88.5322 65.241V57.264L94.2412 60.57V68.547L88.5322 65.241Z" fill="#E0E0E0"/>
<path d="M88.5321 65.241L86.3511 66.501L94.2411 71.058V68.547L88.5321 65.241Z" fill="#EBEBEB"/>
<path d="M87.5122 56.682L87.8122 58.074L88.1122 58.254C88.2591 58.3388 88.4256 58.3834 88.5952 58.3834C88.7648 58.3834 88.9314 58.3388 89.0782 58.254L89.1382 58.221L89.2582 57.69L87.5122 56.682Z" fill="#FAFAFA"/>
<path d="M91.3281 58.884L91.6281 60.3L91.9281 60.477C92.075 60.5618 92.2416 60.6064 92.4111 60.6064C92.5807 60.6064 92.7473 60.5618 92.8941 60.477L92.9541 60.444L93.0741 59.901L91.3281 58.884Z" fill="#FAFAFA"/>
<path d="M102.974 46.521C102.974 45.474 102.182 44.421 100.802 43.62C99.3022 42.75 97.2022 42.252 95.0332 42.252C92.8642 42.252 90.7732 42.75 89.2672 43.62C87.8872 44.418 87.0952 45.474 87.0952 46.521V47.814C87.0952 48.861 87.8872 49.914 89.2672 50.715C90.7672 51.585 92.8672 52.083 95.0332 52.083C97.1992 52.083 99.2962 51.585 100.802 50.715C102.182 49.917 102.974 48.861 102.974 47.814V46.521Z" fill="#E0E0E0"/>
<path d="M95.0332 50.79C92.8762 50.79 90.7732 50.292 89.2672 49.422C87.8872 48.627 87.0952 47.568 87.0952 46.521C87.0952 45.474 87.8872 44.421 89.2672 43.62C90.7672 42.75 92.8672 42.252 95.0332 42.252C97.1992 42.252 99.2962 42.75 100.802 43.62C102.182 44.418 102.974 45.474 102.974 46.521C102.974 47.568 102.182 48.621 100.802 49.422C99.2962 50.292 97.1932 50.79 95.0332 50.79Z" fill="#FAFAFA"/>
<path d="M103.688 44.745V27.972C103.856 26.574 103.025 25.143 101.174 24.072C97.7841 22.113 92.2851 22.113 88.8951 24.072C87.1941 25.053 86.3481 26.34 86.3511 27.627V45.492H86.3751C86.5311 46.638 87.3651 47.763 88.8861 48.639C92.2761 50.598 97.7751 50.598 101.165 48.639C102.686 47.763 103.517 46.638 103.676 45.492V45.444C103.707 45.2122 103.711 44.9777 103.688 44.745Z" fill="#E6E6E6"/>
<path opacity="0.4" d="M95.0328 48.996C92.9058 48.996 90.9258 48.528 89.4528 47.676C88.3008 47.013 87.6018 46.176 87.4878 45.342L87.4668 45.183V33.621C87.4668 32.721 88.1868 31.764 89.4528 31.032C90.9258 30.183 92.9058 29.715 95.0328 29.715C97.1598 29.715 99.1428 30.183 100.616 31.032C101.984 31.824 102.701 32.832 102.581 33.831V33.897V44.814V44.88C102.599 45.0245 102.599 45.1706 102.581 45.315V45.387C102.449 46.212 101.756 47.025 100.625 47.676C99.1428 48.528 97.1748 48.996 95.0328 48.996Z" fill="white"/>
<path d="M100.616 31.032C98.8921 30.139 96.9741 29.6866 95.0329 29.715C93.099 29.7409 91.1943 30.1904 89.4529 31.032C88.1809 31.632 87.4549 32.691 87.4669 33.831C87.4789 34.971 88.1809 36.03 89.4529 36.627C91.1943 37.4686 93.099 37.9182 95.0329 37.944C97.1599 37.944 99.1429 37.476 100.616 36.627C101.984 35.835 102.581 34.854 102.581 33.831C102.647 32.769 102.017 31.8 100.616 31.032Z" fill="#F5F5F5"/>
<path d="M95.0332 31.89C92.8762 31.89 90.7732 31.392 89.2672 30.522C87.8872 29.724 87.0952 28.668 87.0952 27.621C87.0952 26.574 87.8872 25.521 89.2672 24.72C90.7672 23.85 92.8672 23.349 95.0332 23.349C97.1992 23.349 99.2962 23.85 100.802 24.717C102.182 25.515 102.974 26.574 102.974 27.621C102.974 28.668 102.182 29.721 100.802 30.522C99.2962 31.392 97.1932 31.89 95.0332 31.89Z" fill="#F0F0F0"/>
<path d="M92.0059 56.073L91.6699 56.268L91.6849 56.298C91.6422 56.3716 91.6214 56.4559 91.6249 56.541C91.6351 56.7211 91.6874 56.8964 91.7775 57.0526C91.8676 57.2089 91.9931 57.3419 92.1439 57.441C92.2167 57.4867 92.301 57.5107 92.3869 57.51V57.54L92.7259 57.345C92.7783 57.3072 92.8198 57.2562 92.8462 57.1972C92.8725 57.1382 92.8828 57.0733 92.8759 57.009C92.8664 56.8287 92.8144 56.6532 92.7242 56.4968C92.6341 56.3404 92.5082 56.2075 92.3569 56.109C92.3061 56.0742 92.2473 56.0526 92.186 56.0463C92.1247 56.04 92.0628 56.0492 92.0059 56.073Z" fill="#E0E0E0"/>
<path d="M92.5551 57.204C92.5551 57.534 92.3211 57.669 92.0361 57.504C91.8848 57.4055 91.7589 57.2726 91.6687 57.1162C91.5785 56.9598 91.5266 56.7843 91.5171 56.604C91.5171 56.274 91.7481 56.139 92.0361 56.304C92.1869 56.4031 92.3124 56.5361 92.4025 56.6924C92.4926 56.8486 92.5449 57.0239 92.5551 57.204Z" fill="#FAFAFA"/>
<path d="M88.1752 53.892L87.8392 54.087L87.8542 54.117C87.8139 54.1915 87.7943 54.2754 87.7972 54.36C87.8064 54.5404 87.8583 54.7159 87.9485 54.8724C88.0387 55.0288 88.1647 55.1617 88.3162 55.26C88.3883 55.3051 88.4711 55.33 88.5562 55.332L88.5742 55.359L88.9102 55.164C88.9632 55.1266 89.0052 55.0758 89.0321 55.0167C89.059 54.9577 89.0697 54.8925 89.0632 54.828C89.0534 54.6478 89.0014 54.4724 88.9112 54.316C88.821 54.1596 88.6953 54.0267 88.5442 53.928C88.4914 53.8897 88.4294 53.8662 88.3646 53.8598C88.2997 53.8535 88.2343 53.8646 88.1752 53.892Z" fill="#E0E0E0"/>
<path d="M88.7362 55.023C88.7362 55.356 88.5052 55.488 88.2172 55.323C88.0661 55.2243 87.9404 55.0914 87.8502 54.935C87.76 54.7786 87.708 54.6032 87.6982 54.423C87.6982 54.093 87.9322 53.958 88.2172 54.123C88.3682 54.2219 88.4938 54.3548 88.584 54.5112C88.6741 54.6675 88.7263 54.8428 88.7362 55.023Z" fill="#FAFAFA"/>
<path d="M129.278 102.453L130.463 108.327L131.615 108.993L132.755 108.333L133.949 102.453L131.615 101.103L129.278 102.453Z" fill="#E0E0E0"/>
<path opacity="0.05" d="M129.278 102.453L130.463 108.327L131.615 108.993L132.755 108.333L133.949 102.453L131.615 101.103L129.278 102.453Z" fill="black"/>
<path d="M131.615 108.993V103.8L129.278 102.453L130.463 108.327L131.615 108.993Z" fill="#EBEBEB"/>
<path opacity="0.05" d="M129.278 102.453L130.043 106.245L131.615 107.154L133.178 106.251L133.949 102.453L131.615 101.103L129.278 102.453Z" fill="black"/>
<path d="M139.547 96.525L140.732 102.399L141.884 103.062L143.024 102.405L144.218 96.525L141.884 95.175L139.547 96.525Z" fill="#E0E0E0"/>
<path opacity="0.05" d="M139.547 96.525L140.732 102.399L141.884 103.062L143.024 102.405L144.218 96.525L141.884 95.175L139.547 96.525Z" fill="black"/>
<path d="M141.884 103.062V97.872L139.547 96.525L140.732 102.399L141.884 103.062Z" fill="#EBEBEB"/>
<path opacity="0.05" d="M139.547 96.525L140.312 100.317L141.884 101.223L143.447 100.32L144.218 96.525L141.884 95.175L139.547 96.525Z" fill="black"/>
<path opacity="0.05" d="M98.9033 84.915L100.088 90.789L101.24 91.455L102.38 90.795L103.574 84.915L101.24 83.565L98.9033 84.915Z" fill="black"/>
<path d="M101.24 91.455V86.262L98.9033 84.915L100.088 90.789L101.24 91.455Z" fill="#EBEBEB"/>
<path opacity="0.05" d="M98.9033 84.915L99.6683 88.707L101.24 89.616L102.803 88.713L103.574 84.915L101.24 83.565L98.9033 84.915Z" fill="black"/>
<path d="M131.615 106.206L144.341 98.856V71.313L131.615 78.66V106.206Z" fill="#E0E0E0"/>
<path d="M131.615 78.66L98.2432 59.394V86.937L131.615 106.206V78.66Z" fill="#EBEBEB"/>
<path d="M98.2432 59.394L131.615 78.66L144.341 71.313L110.969 52.047L98.2432 59.394Z" fill="#F5F5F5"/>
<path d="M129.797 92.307L100.061 75.138V85.245L99.7251 85.44L129.464 102.606L129.797 102.414V92.307Z" fill="#E0E0E0"/>
<path d="M129.464 92.499L99.7251 75.33V85.44L129.464 102.606V92.499Z" fill="#F5F5F5"/>
<path d="M115.175 86.154L112.703 84.726C112.382 84.543 112.121 84.627 112.121 84.915C112.145 85.0939 112.209 85.2648 112.31 85.4143C112.411 85.5637 112.546 85.6876 112.703 85.776L115.175 87.204C115.496 87.39 115.757 87.306 115.757 87.015C115.733 86.8363 115.668 86.6657 115.567 86.5163C115.466 86.367 115.332 86.243 115.175 86.154Z" fill="#E0E0E0"/>
<path d="M129.797 80.1L100.061 62.931V73.041L99.7251 73.233L129.464 90.402L129.797 90.207V80.1Z" fill="#E0E0E0"/>
<path d="M129.464 80.295L99.7251 63.126V73.233L129.464 90.402V80.295Z" fill="#F5F5F5"/>
<path d="M115.175 73.95L112.703 72.522C112.382 72.336 112.121 72.42 112.121 72.711C112.145 72.8898 112.21 73.0606 112.311 73.2101C112.412 73.3595 112.546 73.4834 112.703 73.572L115.175 75C115.496 75.186 115.757 75.099 115.757 74.811C115.733 74.6322 115.669 74.4614 115.568 74.3119C115.467 74.1625 115.332 74.0386 115.175 73.95Z" fill="#E0E0E0"/>
<path d="M143.876 54.672L143.189 54.717L109.307 35.142L109.649 34.893L143.876 54.672Z" fill="#FAFAFA"/>
<path d="M109.649 34.893L143.189 54.276V25.878L109.649 6.49799V34.893Z" fill="white"/>
<path d="M108.62 35.538L143.876 55.908V25.482L108.62 5.11499V35.538ZM109.307 6.29999L143.189 25.878V54.717L109.307 35.142V6.29999Z" fill="#F0F0F0"/>
<path d="M109.307 35.142L109.649 34.893V6.49798L109.307 6.30298V35.142Z" fill="#E0E0E0"/>
<path d="M108.62 5.11499L108.962 4.91699L144.218 25.284L143.876 25.482L108.62 5.11499Z" fill="#FAFAFA"/>
<path d="M144.218 25.284L143.876 25.482V55.908L144.218 55.71V25.284Z" fill="#E0E0E0"/>
<path d="M143.189 40.041L109.649 20.655L109.307 20.859L143.189 40.434V40.041Z" fill="#FAFAFA"/>
<path d="M109.307 20.859V21.627L143.189 41.202V40.434L109.307 20.859Z" fill="#F0F0F0"/>
<path d="M143.189 26.454L109.649 7.07401L109.469 7.87801L143.189 27.369V26.454Z" fill="#F0F0F0"/>
<path d="M143.189 26.454V26.82L109.58 7.39501L109.649 7.07401L143.189 26.454Z" fill="#E0E0E0"/>
<path d="M143.189 27.735L109.649 8.35501L109.469 9.15901L143.189 28.65V27.735Z" fill="#F0F0F0"/>
<path d="M143.189 27.735V28.101L109.58 8.67601L109.649 8.35501L143.189 27.735Z" fill="#E0E0E0"/>
<path d="M143.189 29.016L109.649 9.63602L109.469 10.44L143.189 29.931V29.016Z" fill="#F0F0F0"/>
<path d="M143.189 29.016V29.382L109.58 9.95702L109.649 9.63602L143.189 29.016Z" fill="#E0E0E0"/>
<path d="M143.189 30.294L109.649 10.917L109.469 11.721L143.189 31.212V30.294Z" fill="#F0F0F0"/>
<path d="M143.189 30.294V30.663L109.58 11.235L109.649 10.917L143.189 30.294Z" fill="#E0E0E0"/>
<path d="M143.189 31.575L109.649 12.198L109.469 13.002L143.189 32.493V31.575Z" fill="#F0F0F0"/>
<path d="M143.189 31.575V31.944L109.58 12.516L109.649 12.198L143.189 31.575Z" fill="#E0E0E0"/>
<path d="M143.189 32.856L109.649 13.479L109.469 14.283L143.189 33.774V32.856Z" fill="#F0F0F0"/>
<path d="M143.189 32.856V33.225L109.58 13.797L109.649 13.479L143.189 32.856Z" fill="#E0E0E0"/>
<path d="M143.189 34.137L109.649 14.76L109.469 15.564L143.189 35.052V34.137Z" fill="#F0F0F0"/>
<path d="M143.189 34.137V34.506L109.58 15.078L109.649 14.76L143.189 34.137Z" fill="#E0E0E0"/>
<path d="M143.189 35.418L109.649 16.041L109.469 16.845L143.189 36.333V35.418Z" fill="#F0F0F0"/>
<path d="M143.189 35.418V35.787L109.58 16.359L109.649 16.041L143.189 35.418Z" fill="#E0E0E0"/>
<path d="M143.189 36.699L109.649 17.322L109.469 18.126L143.189 37.614V36.699Z" fill="#F0F0F0"/>
<path d="M143.189 36.699V37.068L109.58 17.64L109.649 17.322L143.189 36.699Z" fill="#E0E0E0"/>
<path d="M143.189 37.98L109.649 18.603L109.469 19.407L143.189 38.895V37.98Z" fill="#F0F0F0"/>
<path d="M143.189 37.98V38.349L109.58 18.921L109.649 18.603L143.189 37.98Z" fill="#E0E0E0"/>
<path d="M8.40527 54.672L9.09227 54.717L42.9713 35.142L42.6293 34.893L8.40527 54.672Z" fill="#FAFAFA"/>
<path d="M42.6293 34.893L9.09229 54.276V25.878L42.6293 6.49799V34.893Z" fill="white"/>
<path d="M43.6583 5.11499L8.40527 25.482V55.908L43.6583 35.538V5.11499ZM42.9713 35.142L9.09227 54.717V25.878L42.9713 6.29999V35.142Z" fill="#F0F0F0"/>
<path d="M42.9709 35.142L42.6289 34.893V6.49798L42.9709 6.30298V35.142Z" fill="#E0E0E0"/>
<path d="M43.6581 5.11499L43.3161 4.91699L8.06006 25.284L8.40506 25.482L43.6581 5.11499Z" fill="#FAFAFA"/>
<path d="M8.06006 25.284L8.40506 25.482V55.908L8.06006 55.71V25.284Z" fill="#E0E0E0"/>
<path d="M9.09229 40.041L42.6293 20.655L42.9713 20.859L9.09229 40.434V40.041Z" fill="#FAFAFA"/>
<path d="M42.9713 20.859V21.627L9.09229 41.202V40.434L42.9713 20.859Z" fill="#F0F0F0"/>
<path d="M9.09229 26.454L42.6293 7.07401L42.8093 7.87801L9.09229 27.369V26.454Z" fill="#F0F0F0"/>
<path d="M9.09229 26.454V26.82L42.7013 7.39501L42.6293 7.07401L9.09229 26.454Z" fill="#E0E0E0"/>
<path d="M9.09229 27.735L42.6293 8.35501L42.8093 9.15901L9.09229 28.65V27.735Z" fill="#F0F0F0"/>
<path d="M9.09229 27.735V28.101L42.7013 8.67601L42.6293 8.35501L9.09229 27.735Z" fill="#E0E0E0"/>
<path d="M9.09229 29.016L42.6293 9.63602L42.8093 10.44L9.09229 29.931V29.016Z" fill="#F0F0F0"/>
<path d="M9.09229 29.016V29.382L42.7013 9.95702L42.6293 9.63602L9.09229 29.016Z" fill="#E0E0E0"/>
<path d="M9.09229 30.294L42.6293 10.917L42.8093 11.721L9.09229 31.212V30.294Z" fill="#F0F0F0"/>
<path d="M9.09229 30.294V30.663L42.7013 11.235L42.6293 10.917L9.09229 30.294Z" fill="#E0E0E0"/>
<path d="M9.09229 31.575L42.6293 12.198L42.8093 13.002L9.09229 32.493V31.575Z" fill="#F0F0F0"/>
<path d="M9.09229 31.575V31.944L42.7013 12.516L42.6293 12.198L9.09229 31.575Z" fill="#E0E0E0"/>
<path d="M9.09229 32.856L42.6293 13.479L42.8093 14.283L9.09229 33.774V32.856Z" fill="#F0F0F0"/>
<path d="M9.09229 32.856V33.225L42.7013 13.797L42.6293 13.479L9.09229 32.856Z" fill="#E0E0E0"/>
<path d="M9.09229 34.137L42.6293 14.76L42.8093 15.564L9.09229 35.052V34.137Z" fill="#F0F0F0"/>
<path d="M9.09229 34.137V34.506L42.7013 15.078L42.6293 14.76L9.09229 34.137Z" fill="#E0E0E0"/>
<path d="M9.09229 35.418L42.6293 16.041L42.8093 16.845L9.09229 36.333V35.418Z" fill="#F0F0F0"/>
<path d="M9.09229 35.418V35.787L42.7013 16.359L42.6293 16.041L9.09229 35.418Z" fill="#E0E0E0"/>
<path d="M9.09229 36.699L42.6293 17.322L42.8093 18.126L9.09229 37.614V36.699Z" fill="#F0F0F0"/>
<path d="M9.09229 36.699V37.068L42.7013 17.64L42.6293 17.322L9.09229 36.699Z" fill="#E0E0E0"/>
<path d="M9.09229 37.98L42.6293 18.603L42.8093 19.407L9.09229 38.895V37.98Z" fill="#F0F0F0"/>
<path d="M9.09229 37.98V38.349L42.7013 18.921L42.6293 18.603L9.09229 37.98Z" fill="#E0E0E0"/>
<path d="M73.7032 116.715C73.7032 117.294 73.5952 117.516 74.3032 118.038C75.0112 118.56 76.5412 118.797 77.7052 118.482C78.7252 118.209 79.0972 117.915 79.5862 117.348C79.9857 116.823 80.3505 116.273 80.6782 115.701C80.8852 115.44 81.8302 114.942 82.7452 114.537C83.7082 114.108 85.5532 113.259 86.2132 111.696C86.8732 110.133 86.4172 109.017 86.4172 109.017L73.7032 116.715Z" fill="#263238"/>
<path d="M79.8532 108.789C77.9902 110.007 76.4212 113.064 73.8742 112.134C73.7452 113.634 73.3492 115.245 73.7032 116.715C74.7892 118.059 77.1712 118.317 78.5392 117.351C79.2292 116.751 79.6162 116.073 80.2822 115.452C80.8293 114.984 81.4482 114.607 82.1152 114.336C82.8802 113.976 83.6207 113.566 84.3322 113.109C88.4512 110.07 86.4082 104.508 79.8532 108.789Z" fill="#455A64"/>
<path d="M86.4258 123.3C86.4258 123.924 86.4648 124.395 86.8488 124.659C87.2328 124.923 90.0888 125.394 90.8478 125.481C91.6068 125.568 91.7178 125.07 92.2518 125.247C92.7858 125.424 94.0248 126.333 95.8878 126.747C97.7508 127.161 99.2778 127.599 101.861 126.747C104.444 125.895 104.702 124.893 104.669 124.02C104.636 123.147 86.4258 123.3 86.4258 123.3Z" fill="#263238"/>
<path d="M86.798 117.447C86.381 119.247 85.94 121.92 86.426 123.285C86.945 123.801 88.6909 124.104 90.2149 124.311C91.623 124.481 92.9883 124.906 94.244 125.565C97.202 126.798 102.398 127.248 104.471 124.464C106.538 120.75 95.771 121.665 94.457 117.366C93.977 115.8 88.754 117.87 86.798 117.447Z" fill="#455A64"/>
<path d="M72.8749 96.756C74.3149 81.483 73.5709 69.279 74.9419 56.985C74.9419 56.985 95.3239 54.63 95.8519 61.914C96.3799 69.198 96.4519 89.706 96.2989 92.916C96.2239 96.165 95.0539 116.016 95.0539 118.296C89.7259 120.942 86.423 118.944 86.423 118.944C86.456 115.986 84.1429 104.925 85.3969 97.71L84.5449 83.646C84.5449 83.646 80.891 107.4 80.273 113.313C78.701 115.647 74.2339 115.113 73.4899 113.694C73.4899 113.7 72.3739 101.253 72.8749 96.756Z" fill="#37474F"/>
<path d="M84.5481 83.646L83.6031 71.853C83.6031 71.853 79.5621 71.1 77.2251 68.187C77.8611 70.524 80.3991 72.555 82.0071 73.125L83.6121 83.136L82.9461 94.2L84.5481 83.646Z" fill="#263238"/>
<path d="M81.695 81.333C81.443 85.377 81.182 89.559 80.828 91.533C80.276 94.614 78.728 110.82 78.356 114.66C78.476 114.621 78.596 114.576 78.713 114.528C79.106 110.418 80.624 94.62 81.167 91.593C81.524 89.601 81.788 85.407 82.04 81.354C82.232 78.303 82.412 75.42 82.61 73.923L82.268 73.875C82.067 75.387 81.875 78.276 81.695 81.333Z" fill="#263238"/>
<path d="M92.3481 119.319C92.8101 112.404 93.9141 97.137 93.8271 90.141C93.7191 81.789 93.4401 66.969 92.7621 61.572L92.4201 61.614C93.0951 66.996 93.3741 81.801 93.4821 90.147C93.5721 97.167 92.4531 112.569 91.9971 119.403C92.1141 119.379 92.2311 119.352 92.3481 119.319Z" fill="#263238"/>
<path d="M93.0947 70.161C94.9817 68.256 94.7207 64.275 94.5527 61.791C94.5527 61.584 94.5257 61.386 94.5137 61.191L94.8587 61.17C94.8587 61.356 94.8857 61.551 94.8977 61.77C95.0777 64.419 95.3657 68.733 93.0977 70.644L93.0947 70.161Z" fill="#263238"/>
<path d="M79.5226 31.5C80.2636 30.873 80.6776 28.905 80.3056 27.834C79.9336 26.763 78.4276 24.219 78.2236 21.15C78.0196 18.081 82.1566 13.35 85.7236 13.734C89.2906 14.118 91.1746 16.077 92.1346 18.741C92.7196 20.364 92.1196 20.679 92.3446 21.612C92.7886 23.451 93.4486 24.87 92.5936 28.383C92.2936 29.667 91.1956 30.162 90.1726 30.411C89.4126 30.5591 88.6338 30.5854 87.8656 30.489C87.8193 31.2822 87.8143 32.0773 87.8506 32.871C87.8591 33.1449 87.9696 33.4057 88.1606 33.6022C88.3515 33.7987 88.6091 33.9167 88.8826 33.933C88.8826 33.933 78.7846 32.13 79.5226 31.5Z" fill="#FFA8A7"/>
<path d="M89.9387 26.478C89.9081 26.6255 89.8474 26.765 89.7605 26.888C89.6735 27.0109 89.5621 27.1146 89.4332 27.1926C89.3044 27.2705 89.1608 27.3211 89.0115 27.341C88.8623 27.361 88.7105 27.3499 88.5657 27.3085C88.4209 27.2672 88.2861 27.1964 88.1699 27.1006C88.0537 27.0047 87.9585 26.886 87.8903 26.7517C87.8221 26.6175 87.7823 26.4706 87.7734 26.3203C87.7645 26.1699 87.7867 26.0194 87.8387 25.878L89.9387 26.478Z" fill="#B16668"/>
<path d="M89.1139 27.24C89.011 26.9656 88.8324 26.7261 88.5987 26.5492C88.365 26.3724 88.086 26.2655 87.7939 26.241C87.8076 26.4664 87.8904 26.6821 88.031 26.8587C88.1717 27.0353 88.3633 27.1643 88.5799 27.228C88.7541 27.2768 88.9378 27.2809 89.1139 27.24Z" fill="#F28F8F"/>
<path d="M87.6616 22.29C87.6913 22.3979 87.6885 22.5121 87.6537 22.6184C87.6188 22.7247 87.5535 22.8184 87.4658 22.8879C87.3781 22.9573 87.2718 22.9994 87.1604 23.0089C87.0489 23.0184 86.9371 22.9949 86.8389 22.9413C86.7407 22.8877 86.6605 22.8064 86.6081 22.7075C86.5558 22.6086 86.5338 22.4965 86.5447 22.3851C86.5557 22.2738 86.5992 22.1682 86.6697 22.0814C86.7403 21.9946 86.8349 21.9304 86.9416 21.897C87.0892 21.8542 87.2478 21.8715 87.3826 21.9451C87.5175 22.0187 87.6178 22.1427 87.6616 22.29Z" fill="#263238"/>
<path d="M87.617 20.166L86.3179 20.661C86.2555 20.4837 86.2636 20.2892 86.3407 20.1177C86.4178 19.9462 86.5579 19.811 86.732 19.74C86.8179 19.7075 86.9095 19.6928 87.0013 19.6968C87.093 19.7008 87.183 19.7235 87.2658 19.7633C87.3485 19.8031 87.4223 19.8594 87.4827 19.9286C87.5431 19.9978 87.5887 20.0786 87.617 20.166Z" fill="#263238"/>
<path d="M92.0267 20.664L90.7217 20.154C90.7504 20.0671 90.7965 19.9871 90.8573 19.9187C90.918 19.8503 90.9921 19.795 91.075 19.7563C91.1578 19.7175 91.2477 19.6961 91.3391 19.6933C91.4306 19.6905 91.5216 19.7064 91.6067 19.74C91.7811 19.8116 91.9217 19.9471 91.9997 20.1188C92.0778 20.2905 92.0874 20.4854 92.0267 20.664Z" fill="#263238"/>
<path d="M91.5919 22.02C91.5872 22.1228 91.5524 22.222 91.4918 22.3052C91.4312 22.3883 91.3475 22.4519 91.2511 22.4879C91.1546 22.5239 91.0498 22.5307 90.9495 22.5076C90.8492 22.4844 90.7579 22.4324 90.687 22.3578C90.6161 22.2832 90.5687 22.1894 90.5506 22.0881C90.5326 21.9868 90.5447 21.8824 90.5855 21.7879C90.6263 21.6934 90.694 21.613 90.7801 21.5566C90.8662 21.5003 90.967 21.4705 91.0699 21.471C91.2118 21.4749 91.3464 21.5349 91.4442 21.6378C91.5421 21.7407 91.5952 21.8781 91.5919 22.02Z" fill="#263238"/>
<path d="M92.1256 24.576L90.0946 25.476L89.4526 21.489C90.2056 21.228 91.1746 23.058 92.1256 24.576Z" fill="#F28F8F"/>
<path d="M87.8747 30.489C87.8747 30.489 85.9517 30.189 85.4057 29.889C83.9237 29.043 83.3867 28.389 83.0537 27.465C83.1517 28.0959 83.4014 28.6935 83.7813 29.2067C84.1612 29.7198 84.6599 30.1331 85.2347 30.411C86.071 30.764 86.9417 31.0294 87.8327 31.203L87.8747 30.489Z" fill="#F28F8F"/>
<path d="M82.5378 25.728C82.5618 26.298 82.4538 27.27 81.8718 27.693C81.2898 28.116 80.9448 28.329 80.3958 28.179C80.2098 27.666 79.6308 26.337 79.0698 25.212C78.5088 24.087 76.0128 19.848 78.4008 18.237C77.8788 16.512 78.7008 14.778 80.2158 13.716C81.4878 12.816 84.4667 12.777 86.4827 13.095C91.2407 13.848 91.9938 12.537 92.6688 12.867C93.3438 13.197 92.8728 14.844 92.3358 15.327C93.0768 15.171 93.6258 15.561 93.2358 16.479C92.8458 17.397 91.8378 18.033 90.1398 18.297C88.113 18.6338 86.0333 18.4267 84.1128 17.697C84.4077 18.359 84.6261 19.0525 84.7638 19.764C84.812 20.0811 84.7891 20.405 84.6967 20.7121C84.6044 21.0193 84.4449 21.3021 84.2298 21.54C83.8638 21.888 84.3857 22.803 84.3077 23.19C84.2297 23.577 83.7618 24.333 83.0538 22.866C82.3458 21.399 80.8188 21.366 80.1978 22.098C79.5768 22.83 79.5978 23.598 80.1978 24.903C80.6748 25.956 81.8748 26.373 82.5378 25.728Z" fill="#263238"/>
<path d="M74.1948 32.052C72.0168 32.511 70.9428 34.956 70.8948 39.372C70.8189 43.0657 71.154 46.7564 71.8938 50.376C72.3018 52.203 73.2288 53.076 76.6608 52.632C82.3908 51.888 88.8738 50.556 88.8738 50.556L87.8778 46.056L77.9208 46.698L74.1948 32.052Z" fill="#37474F"/>
<path d="M75.8747 31.977C79.0007 31.326 84.1127 32.127 88.7507 34.377C90.9347 35.439 92.5577 36.033 93.9557 36.813C95.3537 37.593 96.0077 40.458 96.1607 42.66C96.5417 48.282 96.2207 51.3 96.1607 54.939C96.0647 60.36 96.1607 63.285 96.1607 63.285C96.1607 63.285 89.6417 66.864 79.3007 63.738C74.2637 62.217 74.4617 59.7 74.4407 57.9C74.4197 56.1 74.6237 49.911 73.4507 44.835C72.2777 39.759 72.0677 32.766 75.8747 31.977Z" fill="#F0F0F0"/>
<path d="M89.7559 34.854C88.1359 33.396 88.6249 33.318 87.5749 32.454C86.2669 31.377 80.5489 30.054 80.0899 30.507C79.6024 31.0173 79.0311 31.4405 78.4009 31.758C78.4009 31.758 78.6739 32.637 82.1269 33.471C85.4179 34.269 86.7199 34.158 89.7559 34.854Z" fill="#F0F0F0"/>
<path d="M79.4387 31.092C81.3407 31.41 84.7667 32.334 86.5697 32.826C88.3727 33.318 90.8447 34.95 90.8447 34.95C90.8447 34.95 94.3067 36.45 94.7447 36.933C95.1827 37.416 96.0407 39.591 96.3887 44.337C96.7367 49.083 96.8237 69 96.8237 69C96.1338 69.2106 95.4327 69.3828 94.7237 69.516L94.0607 64.116L93.3317 69.78C93.3317 69.78 86.8127 70.224 81.3557 69.084C75.8987 67.944 73.4747 64.413 73.4747 64.413C73.4747 64.413 74.2877 52.974 74.0747 51.03C73.8617 49.086 72.1517 40.872 72.3407 37.644C72.5297 34.416 73.0517 32.055 75.0407 31.758C77.4647 31.398 79.4387 31.092 79.4387 31.092Z" fill="#455A64"/>
<path d="M78.5146 32.076C79.0066 32.268 79.5136 32.418 80.0146 32.565C80.5156 32.712 81.0287 32.865 81.5387 33C82.5587 33.276 83.5787 33.552 84.6047 33.807C85.6307 34.062 86.6567 34.26 87.7007 34.44L90.8356 34.95C89.7737 34.899 88.7357 34.797 87.6677 34.668C86.6117 34.5442 85.5646 34.3538 84.5326 34.098C83.5036 33.834 82.4807 33.549 81.4727 33.219C80.4591 32.9135 79.4703 32.5314 78.5146 32.076Z" fill="#37474F"/>
<path d="M80.4829 38.658C80.9209 40.794 81.2629 42.951 81.4909 45.123C81.7289 47.2974 81.7991 49.4869 81.7009 51.672L81.3349 58.2L81.1249 61.461L80.8849 64.722L80.9779 61.455L81.1039 58.188L81.4039 51.657C81.5154 49.4855 81.4693 47.3088 81.2659 45.144C81.1789 44.061 81.0619 42.978 80.9269 41.898C80.7919 40.818 80.6389 39.738 80.4829 38.658Z" fill="#37474F"/>
<path d="M94.3159 60.3C96.1909 60 96.8239 59.4 96.8239 59.4V60.789C96.8239 60.789 95.4409 61.512 94.3159 61.563V60.3Z" fill="#37474F"/>
<path d="M94.7356 36.933C93.7696 36.333 92.2366 36.633 91.2016 39.813C90.1666 42.993 90.5446 44.493 90.8446 46.278C91.0276 47.388 95.4976 56.217 96.8236 57.639C98.1496 59.061 100.304 59.157 101.324 57.882C102.344 56.607 102.938 54.846 101.324 50.832C99.7096 46.818 96.0436 38.241 94.7356 36.933Z" fill="#37474F"/>
<path d="M99.6828 47.001C99.8178 47.382 99.8088 47.601 99.3648 47.901C98.9208 48.201 98.1438 48.711 97.6668 49.038C97.588 49.0782 97.5195 49.1361 97.4666 49.207C97.4137 49.278 97.3779 49.3602 97.362 49.4472C97.346 49.5343 97.3503 49.6238 97.3746 49.709C97.3988 49.7941 97.4424 49.8724 97.5018 49.938C97.6218 50.079 97.9188 50.076 98.9748 49.68C100.031 49.284 100.493 49.194 100.607 49.362C100.68 49.5343 100.701 49.7244 100.666 49.9084C100.632 50.0924 100.545 50.2624 100.415 50.397C100.082 50.748 98.5998 51.363 98.4048 51.771C98.2098 52.179 98.2788 52.758 99.1458 52.416C100.013 52.074 100.946 51.516 101.273 51.36C101.486 51.267 101.555 51.36 101.615 51.75C101.647 51.8709 101.644 51.9984 101.607 52.1178C101.57 52.2373 101.5 52.3438 101.405 52.425C101.075 52.698 100.301 53.268 100.064 53.625C99.7638 54.066 99.8838 54.612 100.349 54.405C100.916 54.0986 101.463 53.7569 101.987 53.382C102.608 52.971 102.983 52.692 103.031 51.81C103.079 50.928 103.031 50.385 102.845 50.262C102.659 50.139 102.764 49.593 102.503 49.395C102.242 49.197 101.792 49.233 101.78 48.666C101.768 48.099 101.591 47.619 101.078 47.493C100.565 47.367 100.388 47.217 100.358 46.593C100.328 45.969 100.04 45.909 99.1578 45.594C98.2758 45.279 98.1558 45.228 97.9338 45.156C97.7118 45.084 97.4298 45.774 98.1348 46.143C98.8398 46.512 99.6828 47.001 99.6828 47.001Z" fill="#FFA8A7"/>
<path d="M79.0549 120.075C79.2019 120.903 79.4778 121.86 79.7088 123.552C79.9398 125.244 79.5679 125.307 80.6419 129.552C81.2869 132.096 81.1609 133.107 79.5919 135.234C77.9119 137.511 76.1778 137.034 75.0648 134.481C74.1138 132.3 74.1648 131.292 74.1918 129.039C74.2188 126.786 74.1918 126.132 74.0988 124.347C74.0208 122.772 74.1588 121.698 74.0688 120.492L79.0549 120.075Z" fill="#37474F"/>
<path d="M79.5233 126.249C79.2233 124.065 79.1723 121.803 79.0703 120.33C78.8423 117.03 79.5623 110.499 79.1273 105.528L70.7603 104.628C71.0273 106.566 73.2743 115.344 74.0753 120.639C74.0753 120.639 74.3543 127.818 74.7893 130.98C74.7999 131.075 74.8329 131.165 74.8854 131.244C74.938 131.324 75.0087 131.389 75.0916 131.436C75.1745 131.483 75.2673 131.509 75.3624 131.512C75.4574 131.516 75.552 131.497 75.6383 131.457C76.8366 130.937 78.1807 130.861 79.4303 131.241C79.522 131.276 79.621 131.288 79.7184 131.275C79.8158 131.263 79.9088 131.227 79.989 131.171C80.0693 131.114 80.1344 131.039 80.1788 130.951C80.2231 130.863 80.2452 130.766 80.2433 130.668C80.2313 129.489 79.7453 127.887 79.5233 126.249Z" fill="#B16668"/>
<path d="M54.8959 104.298C55.0159 111.177 55.0279 117.264 54.8059 119.052C54.5839 120.84 54.4879 121.452 54.0469 122.697C53.6059 123.942 52.8469 125.622 52.1899 126.435C52.1899 126.435 50.2519 128.556 50.6899 128.766C51.1279 128.976 55.2499 129.366 57.0859 128.766C58.9219 128.166 59.0959 126.621 59.6869 123.759C60.2779 120.897 60.7639 116.721 60.7639 116.721C60.6761 116.571 60.6104 116.41 60.5689 116.241C60.3139 115.422 61.0339 113.271 61.1959 111.198L54.8959 104.298Z" fill="#B16668"/>
<path d="M62.6541 120.972C62.5401 121.638 61.9791 122.4 61.7361 123.441C61.4541 124.622 61.2903 125.828 61.2471 127.041L61.1751 128.739L60.7131 128.721C60.7131 128.721 60.8031 126.57 60.8421 125.625C60.8811 124.68 60.8181 123.99 60.3711 123.867C60.3711 123.882 60.4221 120.876 62.6541 120.972Z" fill="#263238"/>
<path d="M60.686 116.349C60.986 117.132 62.012 118.227 62.45 118.974C62.6751 119.367 62.8017 119.809 62.819 120.261C62.828 120.449 62.7977 120.636 62.73 120.811C62.6624 120.986 62.5588 121.145 62.426 121.278C61.9181 121.777 61.4469 122.313 61.016 122.88C60.461 123.642 59.429 125.421 59.15 126.672C58.871 127.923 58.718 129.021 57.65 129.654C56.822 130.146 53.408 130.854 51.677 130.995C49.313 131.175 48.677 130.047 49.559 129.126C50.441 128.205 51.917 126.633 52.184 126.426C52.9298 126.325 53.6891 126.421 54.386 126.705C55.718 127.257 56.15 128.022 57.533 127.305C58.784 126.663 59.255 124.326 59.105 120.978C58.94 117.189 60.686 116.349 60.686 116.349Z" fill="#37474F"/>
<path d="M72.9262 57.18C73.0882 58.041 73.2712 58.848 73.5862 59.28C75.5062 61.899 77.4652 65.073 77.8462 69.978C78.3996 77.7201 78.5358 85.4863 78.2542 93.243C78.3502 94.287 79.1752 96.816 79.3642 102.783C79.5142 107.538 79.2922 114.933 79.2922 114.933C79.2922 114.933 75.8992 116.628 72.9232 115.533C71.6992 111.006 69.6232 100.116 68.4232 94.935C67.1452 89.472 65.8282 82.956 65.8282 82.956L63.9022 92.541C64.1331 94.5945 64.1331 96.6675 63.9022 98.721C63.5632 101.901 61.1242 113.121 61.1242 113.121C61.1242 113.121 57.3532 114.321 54.7852 112.569C54.7852 112.569 54.3592 96.732 54.3112 93.237C54.2632 89.742 54.6742 68.964 56.7562 59.811C56.8308 59.1045 56.8678 58.3945 56.8672 57.684C59.3752 59.727 69.6082 59.451 72.9262 57.18Z" fill="#459AE9"/>
<path d="M79.3399 113.286C78.0559 114.486 74.0899 114.828 72.5269 114.012L73.0279 116.478C73.0279 116.478 74.0599 117.165 76.3279 116.946C78.5959 116.727 79.2949 115.815 79.2949 115.815L79.3399 113.286Z" fill="#459AE9"/>
<g opacity="0.2">
<path d="M79.3399 113.286C78.0559 114.486 74.0899 114.828 72.5269 114.012L73.0279 116.478C73.0279 116.478 74.0599 117.165 76.3279 116.946C78.5959 116.727 79.2949 115.815 79.2949 115.815L79.3399 113.286Z" fill="white"/>
</g>
<path d="M61.4752 111.543C60.1342 112.005 56.1323 111.822 54.6562 110.943L54.7463 113.067C54.7463 113.067 55.5802 113.85 57.8362 114.06C60.0922 114.27 61.0672 113.628 61.0672 113.628L61.4752 111.543Z" fill="#459AE9"/>
<g opacity="0.2">
<path d="M61.4752 111.543C60.1342 112.005 56.1323 111.822 54.6562 110.943L54.7463 113.067C54.7463 113.067 55.5802 113.85 57.8362 114.06C60.0922 114.27 61.0672 113.628 61.0672 113.628L61.4752 111.543Z" fill="white"/>
</g>
<g opacity="0.2">
<path d="M65.8162 82.947L64.1902 71.247C63.052 71.273 61.9232 71.0361 60.8914 70.5548C59.8596 70.0735 58.9527 69.3608 58.2412 68.472C58.2412 68.472 58.1812 71.4 63.0112 72.672L64.9132 83.448L63.8902 92.514L65.8162 82.947Z" fill="black"/>
</g>
<path d="M56.7739 59.637C56.7739 59.637 59.2219 61.437 64.9399 61.137C70.6579 60.837 73.4089 58.983 73.3699 58.884C73.1877 58.3982 73.0531 57.8958 72.9679 57.384C72.9497 57.3129 72.9357 57.2408 72.9259 57.168C69.6079 59.439 59.3779 59.715 56.8579 57.669C56.8579 57.669 56.8579 59.037 56.7739 59.625V59.637Z" fill="#263238"/>
<path d="M61.5921 38.529C58.9341 39.327 58.4091 39.369 56.9871 40.233C55.5651 41.097 54.4611 42.333 51.5361 49.08C50.1471 52.284 48.9051 57.24 50.0751 58.539C51.2451 59.838 54.4341 59.619 54.4341 59.619L55.8291 56.1L61.5921 38.529Z" fill="#459AE9"/>
<path opacity="0.2" d="M61.5921 38.529C58.9341 39.327 58.4091 39.369 56.9871 40.233C55.5651 41.097 54.4611 42.333 51.5361 49.08C50.1471 52.284 48.9051 57.24 50.0751 58.539C51.2451 59.838 54.4341 59.619 54.4341 59.619L55.8291 56.1L61.5921 38.529Z" fill="white"/>
<path opacity="0.8" d="M56.177 53.178C54.4123 53.3756 52.7439 54.0846 51.377 55.218C51.377 55.218 52.199 53.022 56.237 52.149L56.177 53.178Z" fill="#459AE9"/>
<path d="M68.339 37.236L73.643 38.883C74.543 39.183 77.993 41.283 76.79 46.473C76.391 48.183 75.851 50.589 75.362 52.989C74.987 54.825 76.361 58.359 77.462 63.984C77.462 63.984 72.914 67.602 63.875 66.582C56.975 65.802 56.234 63.222 56.234 63.222C56.426 56.802 56.993 54.324 56.981 51.885C56.981 51.885 55.973 50.655 55.931 48.474C55.886 46.185 56.489 44.955 58.538 42.36C60.491 39.891 61.691 38.604 61.691 38.604L68.339 37.236Z" fill="#FAFAFA"/>
<path d="M56.8132 54.819C56.6662 56.346 56.4651 58.26 56.3271 61.071C57.6492 61.0188 58.9672 60.8926 60.2751 60.693C60.2751 60.693 63.5391 63.567 70.4031 65.268C71.0541 65.427 72.3022 65.634 73.6462 65.805C76.1931 65.001 77.4712 63.984 77.4712 63.984C76.8712 60.945 76.1961 58.521 75.7611 56.643L56.8132 54.819Z" fill="#E0E0E0"/>
<path d="M63.992 37.878C63.746 37.968 61.592 38.529 61.592 38.529C58.808 40.881 57.008 43.629 56.33 45.195C55.514 47.07 55.406 49.137 55.358 52.095C55.316 54.66 54.626 62.154 54.626 65.895C54.905 66.885 56.582 67.815 56.582 67.815C56.702 69.117 57.257 55.005 57.953 48.186C58.853 42.186 63.353 39.096 64.34 38.409L63.992 37.878Z" fill="#459AE9"/>
<path opacity="0.5" d="M63.992 37.878C63.746 37.968 61.592 38.529 61.592 38.529C58.808 40.881 57.008 43.629 56.33 45.195C55.514 47.07 55.406 49.137 55.358 52.095C55.316 54.66 54.626 62.154 54.626 65.895C54.905 66.885 56.582 67.815 56.582 67.815C56.702 69.117 57.257 55.005 57.953 48.186C58.853 42.186 63.353 39.096 64.34 38.409L63.992 37.878Z" fill="white"/>
<path opacity="0.4" d="M62.1141 38.853C61.8141 39.153 61.5291 39.414 61.2351 39.693C60.9411 39.972 60.6351 40.242 60.3351 40.518L60.3681 40.413L60.5991 41.163L60.6201 41.235L60.5601 41.289C59.8161 41.961 59.0641 42.624 58.3041 43.278L58.3521 43.188C58.2201 44.061 58.0941 44.931 57.9471 45.801L57.5361 48.414C57.5361 47.973 57.5781 47.532 57.6081 47.091C57.6381 46.65 57.6891 46.212 57.7341 45.774C57.8211 44.895 57.9381 44.019 58.0611 43.146V43.092L58.1031 43.056C58.8591 42.396 59.6211 41.745 60.3891 41.103L60.3531 41.229L60.1641 40.47V40.404L60.2121 40.365C60.5271 40.11 60.8361 39.849 61.1571 39.6C61.4781 39.351 61.7901 39.096 62.1141 38.853Z" fill="#459AE9"/>
<path d="M70.814 37.44L70.835 38.217C69.509 42.579 69.545 48.165 69.515 52.248C69.452 60.819 70.7 69.918 70.7 69.918C70.7 69.918 76.076 70.875 78.5 67.599C78.5 67.599 77.084 62.37 76.271 57.399C75.788 54.456 77.75 47.253 77.243 42.999C77.03 41.217 76.55 39.738 75.212 39.321C74.108 38.961 70.814 37.44 70.814 37.44Z" fill="#459AE9"/>
<path opacity="0.5" d="M70.814 37.44L70.835 38.217C69.509 42.579 69.545 48.165 69.515 52.248C69.452 60.819 70.7 69.918 70.7 69.918C70.7 69.918 76.076 70.875 78.5 67.599C78.5 67.599 77.084 62.37 76.271 57.399C75.788 54.456 77.75 47.253 77.243 42.999C77.03 41.217 76.55 39.738 75.212 39.321C74.108 38.961 70.814 37.44 70.814 37.44Z" fill="white"/>
<path opacity="0.4" d="M69.5122 51.396C69.6006 50.7534 69.7421 50.1192 69.9352 49.5C70.1242 48.882 70.3342 48.27 70.5562 47.661C70.7782 47.052 71.0272 46.461 71.2792 45.861C71.5312 45.261 71.7802 44.661 72.0622 44.088V44.202L71.1472 41.772L71.1142 41.682L71.1832 41.628L72.3292 40.728L72.2992 40.833C72.1672 40.398 72.0322 39.966 71.9092 39.531C71.7862 39.096 71.6542 38.661 71.5342 38.223C71.7022 38.646 71.8582 39.072 72.0172 39.495C72.1762 39.918 72.3172 40.347 72.4792 40.773L72.5002 40.833L72.4492 40.875L71.3452 41.823L71.3842 41.679L72.3352 44.097L72.3592 44.154L72.3322 44.211C72.0682 44.811 71.7922 45.381 71.5372 45.972C71.2822 46.563 71.0332 47.157 70.7842 47.751C70.5352 48.345 70.2982 48.951 70.0822 49.551C69.8516 50.1527 69.6612 50.7691 69.5122 51.396Z" fill="#459AE9"/>
<path d="M68.9483 18.771C67.7753 19.266 67.2653 19.671 66.2693 18.573C65.0963 17.571 63.2933 17.913 62.3693 19.089C62.0513 19.473 61.7273 19.989 61.2383 19.962C60.9653 19.962 60.6173 19.77 60.1253 19.707C59.7491 19.6742 59.3716 19.7532 59.0402 19.9341C58.7088 20.1151 58.4381 20.3898 58.2623 20.724C58.1003 21.135 58.2203 21.606 58.2623 22.05C58.292 22.2639 58.262 22.4819 58.1757 22.6798C58.0894 22.8778 57.9502 23.0481 57.7733 23.172C57.6817 23.2219 57.58 23.2507 57.4758 23.2562C57.3716 23.2616 57.2675 23.2437 57.1711 23.2038C57.0747 23.1638 56.9885 23.1027 56.9188 23.025C56.8491 22.9474 56.7977 22.8551 56.7683 22.755C56.3333 23.106 56.4203 23.883 56.8253 24.279C57.04 24.4563 57.2895 24.5866 57.5577 24.6615C57.8259 24.7365 58.1068 24.7543 58.3823 24.714C57.3743 24.861 56.4713 25.98 56.9453 27.036C57.1583 27.498 57.6233 27.828 57.7223 28.332C57.8453 28.956 57.3953 29.607 57.3983 30.24C57.4176 30.6129 57.5564 30.9696 57.7941 31.2576C58.0318 31.5455 58.3558 31.7494 58.7183 31.839C59.2346 31.9607 59.7083 32.2199 60.0893 32.589C60.5903 33.084 60.8093 33.843 61.2893 34.389C63.6503 36.855 65.2193 33.435 67.5893 34.635C67.9017 34.8263 68.1942 35.0484 68.4623 35.298C68.5823 35.4 68.6993 35.496 68.8223 35.598C68.9359 35.6606 69.0375 35.7429 69.1223 35.841C69.2005 35.9524 69.3024 36.0451 69.4207 36.1125C69.5389 36.1799 69.6706 36.2204 69.8063 36.231C70.0701 36.2495 70.3352 36.2272 70.5923 36.165C71.4203 36.012 72.2993 35.796 72.8753 35.154C73.0565 34.9301 73.2229 34.6946 73.3733 34.449C73.6502 33.9715 74.0774 33.5991 74.5883 33.39C75.1883 33.201 75.8693 33.39 76.3883 33.06C76.77 32.7612 77.0318 32.3354 77.1263 31.86C77.2237 31.3869 77.4046 30.9348 77.6603 30.525C77.8332 30.3015 78.0658 30.1314 78.3311 30.0342C78.5965 29.9371 78.8839 29.9169 79.1603 29.976C79.0392 29.4075 78.7203 28.9004 78.2603 28.545C77.9603 28.314 77.6033 28.164 77.2823 27.966C77.1743 27.9022 77.0737 27.8268 76.9823 27.741C76.8836 27.6441 76.7988 27.5341 76.7303 27.414C76.5894 27.1659 76.4939 26.8946 76.4483 26.613C76.4284 26.5089 76.4144 26.4037 76.4063 26.298C76.3523 25.719 76.4063 25.134 76.3433 24.555C76.2323 23.622 75.7433 22.698 74.9363 22.272C74.5703 22.08 74.1623 21.996 73.7843 21.837C73.5138 21.734 73.2735 21.5649 73.0853 21.345C73.0073 21.249 72.9413 21.144 72.8603 21.045C72.7878 20.9546 72.7301 20.8534 72.6893 20.745C72.5503 20.2985 72.3406 19.8772 72.0683 19.497C71.3243 18.531 69.9983 18.381 68.9483 18.771Z" fill="#263238"/>
<path d="M71.7172 33.786C72.3592 33.786 73.0342 33.309 73.4422 32.733C74.0812 31.833 74.2552 30.489 73.7752 29.694C73.3792 29.043 72.5962 28.557 71.8912 28.983C71.1352 29.439 71.1262 29.781 70.8352 30.303C70.5442 30.825 69.9682 30.903 69.7402 28.77C69.5272 26.775 69.2542 24.948 68.2942 24.036C66.8602 22.671 65.5672 23.436 64.5142 24.291C63.9352 23.355 62.6872 22.71 61.9102 23.241C61.0102 23.865 60.3862 24.828 59.9872 28.596C59.5792 32.439 60.4462 34.854 61.3192 35.514C61.9792 36.015 62.7262 36.249 64.1692 36.336L63.9832 38.715C63.9832 38.715 62.4052 42.981 62.3602 46.281C63.7451 44.6023 65.2372 43.015 66.8272 41.529C68.9752 39.6 70.4752 38.421 70.4752 38.421L70.6642 33.159C70.7686 33.3472 70.9211 33.5044 71.1061 33.6146C71.291 33.7247 71.5019 33.7839 71.7172 33.786Z" fill="#B16668"/>
<path d="M62.3754 46.281C61.5954 44.313 61.5234 43.509 61.7754 42.528C62.0274 41.547 62.9214 38.358 64.1034 37.176L63.9864 38.715C63.1295 41.1581 62.5881 43.7007 62.3754 46.281Z" fill="#EBEBEB"/>
<path d="M62.3755 46.281C62.7559 45.6362 63.0657 44.9522 63.2995 44.241C63.5695 43.302 63.8845 42.786 65.6545 41.541C67.4245 40.296 70.1545 37.494 70.5385 36.816L70.5535 36.348C70.5535 36.348 70.8265 36.387 70.8355 37.248C70.8355 37.848 70.8355 38.202 70.8355 38.202C69.6415 40.2 65.9065 43.275 62.3755 46.281Z" fill="#EBEBEB"/>
<path d="M60.9894 27.102L62.3754 26.445C62.3369 26.3539 62.2802 26.2715 62.2089 26.2029C62.1376 26.1343 62.0532 26.0808 61.9606 26.0458C61.8681 26.0107 61.7694 25.9948 61.6706 25.999C61.5717 26.0031 61.4747 26.0273 61.3854 26.07C61.1995 26.1582 61.0546 26.3146 60.9809 26.5067C60.9072 26.6989 60.9102 26.912 60.9894 27.102Z" fill="#263238"/>
<path d="M65.8013 27.279L67.3013 27.879C67.3452 27.7825 67.3691 27.678 67.3713 27.572C67.3736 27.466 67.3541 27.3606 67.3143 27.2623C67.2744 27.164 67.2149 27.0749 67.1394 27.0004C67.0639 26.9259 66.9741 26.8676 66.8753 26.829C66.6725 26.7545 66.4491 26.7594 66.2498 26.8429C66.0506 26.9264 65.8903 27.0822 65.8013 27.279Z" fill="#263238"/>
<path d="M65.7685 32.187L63.8755 32.7C63.9109 32.8313 63.9732 32.9539 64.0585 33.0598C64.1438 33.1658 64.2502 33.2528 64.371 33.3155C64.4917 33.3781 64.6242 33.4149 64.7599 33.4236C64.8957 33.4323 65.0317 33.4127 65.1595 33.366C65.2785 33.331 65.3891 33.2722 65.4847 33.1933C65.5804 33.1143 65.659 33.0168 65.7159 32.9066C65.7729 32.7965 65.8069 32.6759 65.8159 32.5522C65.8249 32.4285 65.8088 32.3043 65.7685 32.187Z" fill="#9A4A4D"/>
<path d="M64.6284 33.381C64.6696 33.1299 64.8026 32.903 65.0016 32.7445C65.2006 32.5859 65.4515 32.507 65.7054 32.523L65.7984 32.541C65.7937 32.7264 65.7297 32.9054 65.6158 33.0517C65.5019 33.1981 65.344 33.304 65.1654 33.354C64.9914 33.4074 64.8069 33.4166 64.6284 33.381Z" fill="#FFA8A7"/>
<path d="M64.4511 27.693L63.5931 31.401L61.6431 30.381L64.4511 27.693Z" fill="#9A4A4D"/>
<path d="M66.9113 28.77C66.9022 28.8789 66.8612 28.9827 66.7934 29.0683C66.7257 29.154 66.6341 29.2178 66.5302 29.2516C66.4263 29.2855 66.3148 29.2879 66.2095 29.2586C66.1042 29.2294 66.0099 29.1697 65.9385 29.087C65.867 29.0044 65.8215 28.9025 65.8077 28.7941C65.7939 28.6857 65.8123 28.5757 65.8608 28.4778C65.9093 28.3799 65.9856 28.2984 66.0801 28.2437C66.1747 28.1889 66.2833 28.1633 66.3923 28.17C66.4661 28.1745 66.5382 28.1938 66.6044 28.2265C66.6706 28.2593 66.7296 28.305 66.778 28.3609C66.8263 28.4167 66.863 28.4817 66.8859 28.552C66.9088 28.6222 66.9174 28.6964 66.9113 28.77Z" fill="#263238"/>
<path d="M62.3244 28.467C62.3153 28.576 62.2741 28.6799 62.2062 28.7656C62.1382 28.8513 62.0465 28.915 61.9424 28.9487C61.8384 28.9824 61.7267 28.9847 61.6214 28.9551C61.5161 28.9256 61.4218 28.8656 61.3505 28.7826C61.2792 28.6997 61.234 28.5976 61.2205 28.489C61.2071 28.3805 61.226 28.2704 61.2749 28.1725C61.3238 28.0747 61.4006 27.9935 61.4955 27.9392C61.5904 27.8848 61.6992 27.8597 61.8084 27.867C61.8819 27.8719 61.9537 27.8914 62.0195 27.9244C62.0854 27.9573 62.1441 28.003 62.1921 28.0589C62.2401 28.1147 62.2766 28.1796 62.2993 28.2496C62.322 28.3197 62.3305 28.3936 62.3244 28.467Z" fill="#263238"/>
<path d="M64.1754 36.336C65.7324 36.519 67.7754 35.85 68.4924 35.343C68.9154 35.043 69.2874 34.263 69.8514 33.324C69.8514 33.324 69.5694 35.562 68.5164 36.168C66.9144 37.089 64.1064 37.176 64.1064 37.176L64.1754 36.336Z" fill="#9A4A4D"/>
<path d="M71.7292 33.201C71.9877 33.201 72.1972 32.9915 72.1972 32.733C72.1972 32.4745 71.9877 32.265 71.7292 32.265C71.4708 32.265 71.2612 32.4745 71.2612 32.733C71.2612 32.9915 71.4708 33.201 71.7292 33.201Z" fill="#FAFAFA"/>
<path d="M59.948 54.027C59.231 52.686 58.262 50.973 57.812 50.01C57.362 49.047 57.263 48.888 56.516 48.396C55.8139 47.9254 55.0846 47.4966 54.332 47.112C53.948 46.92 53.849 47.379 54.125 47.949C54.365 48.45 55.55 49.125 55.55 49.125C55.55 49.125 54.503 49.059 54.026 49.065C53.687 49.065 53.231 49.293 52.697 49.524C52.163 49.755 52.118 49.932 52.247 50.1C52.376 50.268 52.619 50.418 53.147 50.355C53.675 50.292 54.188 50.193 54.188 50.193L55.37 50.31L55.499 50.469C55.499 50.469 54.707 50.568 54.068 50.724C53.6139 50.83 53.1888 51.0349 52.823 51.324C52.337 51.624 52.037 51.792 52.016 51.924C51.995 52.056 52.058 52.413 52.7 52.356C53.1395 52.2981 53.5624 52.15 53.942 51.921L55.319 51.744L55.967 52.284C55.967 52.284 55.187 52.332 54.734 52.389C54.2324 52.484 53.746 52.6465 53.288 52.872C53.105 52.983 53.369 53.388 53.723 53.493C54.077 53.598 55.013 53.253 55.523 53.346C55.9978 53.46 56.4639 53.6074 56.918 53.787L59.948 54.027Z" fill="#B16668"/>
<path d="M59.9479 54.027C59.8879 53.919 59.6929 53.556 59.6479 53.427C58.7166 53.4212 57.7863 53.3661 56.8609 53.262C56.2911 53.1998 55.7153 53.219 55.1509 53.319C55.2087 53.3134 55.267 53.3134 55.3249 53.319C55.8259 53.409 56.9389 53.772 56.9389 53.772L59.9479 54.027Z" fill="#9A4A4D"/>
<path d="M57.9563 51.447C57.7534 51.2376 57.5669 51.0129 57.3983 50.775C57.2303 50.538 57.0983 50.286 56.9183 50.052C56.7744 49.8108 56.5774 49.6056 56.3423 49.452C56.0981 49.3009 55.8304 49.1914 55.5503 49.128C55.846 49.1431 56.1348 49.223 56.3963 49.362C56.6547 49.5141 56.8729 49.726 57.0323 49.98C57.1913 50.226 57.3323 50.475 57.4853 50.721C57.6383 50.967 57.7943 51.204 57.9563 51.447Z" fill="#9A4A4D"/>
<path d="M58.1152 52.341C57.8761 52.2076 57.6501 52.0519 57.4402 51.876C57.2272 51.705 57.0262 51.519 56.8222 51.339C56.6182 51.159 56.4262 50.961 56.2222 50.787C56.0334 50.5958 55.7797 50.4823 55.5112 50.469C55.6501 50.4515 55.7912 50.4636 55.9251 50.5044C56.059 50.5453 56.1827 50.614 56.2882 50.706C56.5132 50.874 56.6992 51.066 56.9092 51.24C57.3112 51.6 57.6982 51.99 58.1152 52.341Z" fill="#9A4A4D"/>
<path d="M57.3919 52.899C57.1459 52.788 56.9359 52.629 56.7079 52.515C56.599 52.4512 56.4833 52.3999 56.3629 52.362C56.2386 52.3231 56.1111 52.295 55.9819 52.278C56.1141 52.2434 56.2522 52.2373 56.3869 52.26C56.5211 52.285 56.6506 52.3305 56.7709 52.395C57.0027 52.53 57.2122 52.7 57.3919 52.899Z" fill="#9A4A4D"/>
<path d="M71.5312 56.073C70.8562 55.968 69.8032 55.812 68.3452 55.638C67.0882 55.488 61.7872 54.405 60.5242 54.318L56.3242 57.318C57.4642 58.014 60.5242 59.235 62.1292 59.802C64.4062 60.612 67.0282 61.536 69.3682 62.259C69.3202 60.21 70.3492 57.3 71.5312 56.073Z" fill="#B16668"/>
<path d="M60.5242 54.318L56.3242 57.318C57.4642 58.014 60.5242 59.235 62.1292 59.802L63.6292 60.33C65.6842 59.544 68.2702 58.107 70.7092 57.213L70.7632 57.165C70.9774 56.7729 71.2383 56.4083 71.5402 56.079C70.8652 55.974 69.8122 55.818 68.3542 55.644C67.0882 55.5 61.7752 54.405 60.5242 54.318Z" fill="#9A4A4D"/>
<path d="M79.3221 43.833C78.7821 41.202 77.7411 39.729 75.2121 39.309C72.8811 40.242 72.3381 44.487 72.3801 49.107L73.1151 56.073C72.5884 56.127 72.0577 56.127 71.5311 56.073C70.3491 57.3 69.0771 60.327 69.1311 62.373C71.074 62.8087 73.0517 63.0717 75.0411 63.159C77.6091 63.189 79.8411 63.108 80.0661 60.729C80.3366 57.5581 80.3225 54.3694 80.0241 51.201C79.6761 46.755 79.6941 45.651 79.3221 43.833Z" fill="#459AE9"/>
<path opacity="0.2" d="M79.3221 43.833C78.7821 41.202 77.7411 39.729 75.2121 39.309C72.8811 40.242 72.3381 44.487 72.3801 49.107L73.1151 56.073C72.5884 56.127 72.0577 56.127 71.5311 56.073C70.3491 57.3 69.0771 60.327 69.1311 62.373C71.074 62.8087 73.0517 63.0717 75.0411 63.159C77.6091 63.189 79.8411 63.108 80.0661 60.729C80.3366 57.5581 80.3225 54.3694 80.0241 51.201C79.6761 46.755 79.6941 45.651 79.3221 43.833Z" fill="white"/>
<path opacity="0.8" d="M70.7002 57.207C71.2716 57.0528 71.8561 56.9524 72.4462 56.907C74.1142 56.7 76.2952 57.249 76.7902 58.281C76.7902 58.281 76.1902 56.481 73.1152 56.07C72.5553 56.1454 71.9912 56.1855 71.4262 56.19C71.1524 56.5051 70.9093 56.8457 70.7002 57.207Z" fill="#459AE9"/>
<path d="M67.958 57.321C66.209 57.792 59.603 59.76 53.501 59.634C53.072 58.899 53.132 57.585 53.474 56.364C53.957 54.651 54.515 53.91 55.31 53.328C60.11 53.928 63.41 53.451 68.369 53.847C70.4 54.009 73.043 55.392 73.043 55.392L73.115 56.073C73.115 56.073 69.704 56.85 67.958 57.321Z" fill="#B16668"/>
<path d="M39.6324 68.268L42.0684 67.329L44.2193 68.805C44.2788 68.8443 44.348 68.8664 44.4192 68.8689C44.4905 68.8714 44.561 68.8541 44.6231 68.8191C44.6851 68.784 44.7363 68.7325 44.7709 68.6702C44.8056 68.6079 44.8223 68.5372 44.8193 68.466L44.6814 65.859L46.7484 64.269C46.8059 64.2255 46.8501 64.1666 46.8757 64.0992C46.9014 64.0318 46.9075 63.9585 46.8934 63.8877C46.8793 63.8169 46.8456 63.7515 46.796 63.6991C46.7465 63.6466 46.6832 63.6092 46.6134 63.591L44.0934 62.916L43.2174 60.459C43.1938 60.3907 43.1515 60.3304 43.0952 60.2851C43.0389 60.2398 42.971 60.2113 42.8993 60.2028C42.8275 60.1943 42.7549 60.2063 42.6896 60.2373C42.6243 60.2683 42.5691 60.3171 42.5304 60.378L41.1113 62.568L38.5044 62.64C38.4315 62.6395 38.3599 62.6598 38.2981 62.6984C38.2363 62.7371 38.1868 62.7925 38.1553 62.8583C38.1238 62.924 38.1117 62.9974 38.1204 63.0698C38.1291 63.1421 38.1582 63.2106 38.2044 63.267L39.8484 65.295L39.1224 67.8C39.1026 67.8691 39.1025 67.9423 39.122 68.0115C39.1415 68.0806 39.1798 68.143 39.2328 68.1916C39.2857 68.2401 39.3511 68.273 39.4217 68.2865C39.4923 68.3 39.5652 68.2936 39.6324 68.268Z" fill="#455A64"/>
<path d="M40.8052 55.899L39.9502 54.654H38.4502C38.3876 54.6549 38.3261 54.6379 38.2729 54.605C38.2197 54.572 38.1771 54.5245 38.1502 54.468C38.1224 54.4115 38.1111 54.3484 38.1174 54.2858C38.1238 54.2233 38.1476 54.1637 38.1862 54.114L39.1042 52.914L38.6392 51.477C38.6202 51.4173 38.6181 51.3536 38.6329 51.2927C38.6477 51.2319 38.6789 51.1763 38.7232 51.132C38.7689 51.089 38.8254 51.0594 38.8867 51.0461C38.948 51.0329 39.0118 51.0367 39.0712 51.057L40.4932 51.561L41.7172 50.661C41.7675 50.6237 41.8273 50.6014 41.8898 50.5966C41.9522 50.5918 42.0148 50.6047 42.0702 50.6338C42.1257 50.6629 42.1718 50.7071 42.2033 50.7613C42.2347 50.8155 42.2503 50.8774 42.2482 50.94L42.2092 52.44L43.4302 53.34C43.4826 53.3764 43.5237 53.427 43.5484 53.4859C43.5732 53.5448 43.5807 53.6095 43.57 53.6724C43.5593 53.7354 43.5308 53.794 43.488 53.8414C43.4452 53.8888 43.3897 53.923 43.3282 53.94L41.8822 54.369L41.4022 55.8C41.3825 55.8597 41.3466 55.9128 41.2983 55.9531C41.25 55.9934 41.1914 56.0193 41.1292 56.028C41.0954 56.0338 41.0609 56.0338 41.0272 56.028C40.9392 56.0155 40.8596 55.9692 40.8052 55.899ZM41.8282 50.844L40.5172 51.795L38.9902 51.255C38.9679 51.2465 38.9436 51.2446 38.9202 51.2494C38.8969 51.2542 38.8753 51.2655 38.8582 51.282C38.8409 51.2987 38.8287 51.32 38.8228 51.3433C38.817 51.3666 38.8178 51.3911 38.8252 51.414L39.3262 52.953L38.3392 54.24C38.3259 54.2594 38.3188 54.2825 38.3188 54.306C38.3188 54.3296 38.3259 54.3526 38.3392 54.372C38.3494 54.3936 38.3655 54.4118 38.3857 54.4245C38.4059 54.4373 38.4293 54.444 38.4532 54.444H40.0732L40.9732 55.779C40.9862 55.799 41.0048 55.8147 41.0266 55.8243C41.0485 55.8339 41.0726 55.8369 41.0962 55.833C41.1202 55.8301 41.1428 55.8204 41.1614 55.8049C41.1801 55.7895 41.1938 55.7691 41.2012 55.746L41.7022 54.207L43.2532 53.748C43.2762 53.7411 43.2968 53.7279 43.3127 53.7098C43.3286 53.6918 43.3391 53.6697 43.3432 53.646C43.348 53.6223 43.3457 53.5977 43.3366 53.5753C43.3276 53.5529 43.3121 53.5337 43.2922 53.52L41.9752 52.569L42.0172 50.949C42.0178 50.9254 42.0117 50.9021 41.9994 50.8818C41.9872 50.8616 41.9694 50.8454 41.9482 50.835C41.9353 50.8326 41.922 50.8326 41.9092 50.835C41.8819 50.8282 41.8532 50.8314 41.8282 50.844Z" fill="#455A64"/>
<path d="M49.1753 75.6L48.3203 74.355H46.8203C46.7577 74.3559 46.6962 74.3389 46.643 74.306C46.5898 74.273 46.5472 74.2255 46.5203 74.169C46.4925 74.1125 46.4812 74.0494 46.4876 73.9868C46.4939 73.9243 46.5177 73.8647 46.5563 73.815L47.4743 72.615L47.0093 71.178C46.9904 71.1183 46.9882 71.0546 47.003 70.9937C47.0178 70.9329 47.049 70.8773 47.0933 70.833C47.139 70.79 47.1955 70.7604 47.2569 70.7471C47.3182 70.7339 47.3819 70.7377 47.4413 70.758L48.8633 71.262L50.0873 70.377C50.1376 70.3392 50.1976 70.3166 50.2603 70.3118C50.3231 70.3071 50.3858 70.3203 50.4413 70.35C50.4952 70.3793 50.5401 70.4227 50.5713 70.4755C50.6024 70.5284 50.6187 70.5887 50.6183 70.65L50.5793 72.15L51.8003 73.05C51.8528 73.0864 51.8938 73.137 51.9186 73.1959C51.9433 73.2548 51.9508 73.3195 51.9401 73.3824C51.9294 73.4454 51.9009 73.504 51.8581 73.5514C51.8153 73.5988 51.7598 73.633 51.6983 73.65L50.2523 74.079L49.7753 75.519C49.7557 75.5787 49.7197 75.6318 49.6714 75.6721C49.6232 75.7124 49.5646 75.7384 49.5023 75.747C49.4685 75.7528 49.434 75.7528 49.4003 75.747C49.3548 75.739 49.3114 75.7218 49.2727 75.6965C49.2341 75.6713 49.2009 75.6384 49.1753 75.6ZM50.1953 70.545L48.8753 71.502L47.3483 70.962C47.326 70.9535 47.3017 70.9516 47.2784 70.9564C47.255 70.9612 47.2335 70.9725 47.2163 70.989C47.199 71.0057 47.1868 71.027 47.181 71.0503C47.1751 71.0736 47.1759 71.0981 47.1833 71.121L47.6753 72.66L46.6883 73.947C46.675 73.9664 46.6679 73.9895 46.6679 74.013C46.6679 74.0366 46.675 74.0596 46.6883 74.079C46.6985 74.1006 46.7147 74.1188 46.7348 74.1315C46.755 74.1443 46.7784 74.151 46.8023 74.151H48.4193L49.3373 75.486C49.3503 75.506 49.3689 75.5217 49.3908 75.5313C49.4126 75.5409 49.4367 75.5439 49.4603 75.54C49.4843 75.5371 49.5069 75.5274 49.5256 75.5119C49.5442 75.4965 49.558 75.476 49.5653 75.453L50.0663 73.914L51.6173 73.455C51.6403 73.4481 51.6609 73.4349 51.6768 73.4168C51.6927 73.3988 51.7033 73.3767 51.7073 73.353C51.7123 73.3297 51.7101 73.3055 51.701 73.2835C51.6919 73.2616 51.6763 73.2429 51.6563 73.23L50.3483 72.276L50.3903 70.656C50.3909 70.6324 50.3848 70.6091 50.3725 70.5888C50.3603 70.5686 50.3425 70.5524 50.3213 70.542C50.3084 70.5396 50.2952 70.5396 50.2823 70.542C50.2503 70.5322 50.2158 70.5354 50.1863 70.551L50.1953 70.545Z" fill="#455A64"/>
<path d="M112.736 58.257C112.63 58.2474 112.531 58.2043 112.451 58.134L110.534 56.454L108.062 57.078C107.972 57.1008 107.877 57.0979 107.788 57.0696C107.7 57.0413 107.621 56.9887 107.56 56.9178C107.5 56.8469 107.461 56.7605 107.447 56.6685C107.434 56.5764 107.446 56.4824 107.483 56.397L108.488 54.057L107.129 51.897C107.08 51.8183 107.054 51.7273 107.054 51.6345C107.054 51.5417 107.08 51.4507 107.129 51.372C107.178 51.2926 107.248 51.2284 107.331 51.1865C107.414 51.1447 107.507 51.1268 107.6 51.135L110.141 51.369L111.77 49.41C111.829 49.3381 111.908 49.2844 111.996 49.2549C112.085 49.2255 112.18 49.2214 112.271 49.2433C112.361 49.2652 112.444 49.3121 112.509 49.3787C112.575 49.4453 112.62 49.5289 112.64 49.62L113.204 52.107L115.571 53.052C115.656 53.0884 115.728 53.1474 115.781 53.2226C115.834 53.2978 115.865 53.3862 115.871 53.478C115.879 53.5705 115.86 53.6633 115.817 53.7456C115.774 53.8279 115.708 53.8963 115.628 53.943L113.438 55.248L113.27 57.792C113.265 57.8843 113.234 57.9733 113.181 58.0491C113.128 58.1249 113.055 58.1844 112.97 58.221C112.896 58.2507 112.816 58.263 112.736 58.257ZM110.594 56.205L112.601 57.966C112.639 58 112.686 58.0223 112.737 58.0303C112.787 58.0383 112.839 58.0316 112.886 58.011C112.934 57.9928 112.975 57.9609 113.005 57.9193C113.035 57.8777 113.052 57.8282 113.054 57.777L113.231 55.116L115.523 53.751C115.567 53.725 115.603 53.6871 115.626 53.6417C115.65 53.5964 115.66 53.5453 115.656 53.4943C115.652 53.4434 115.634 53.3946 115.603 53.3535C115.573 53.3124 115.532 53.2807 115.484 53.262L113.006 52.272L112.406 49.668C112.395 49.6186 112.37 49.5732 112.335 49.5372C112.299 49.5011 112.254 49.4757 112.205 49.464C112.155 49.4515 112.103 49.4534 112.054 49.4693C112.005 49.4852 111.962 49.5146 111.929 49.554L110.234 51.6L107.576 51.357C107.525 51.3523 107.474 51.3619 107.429 51.3847C107.383 51.4075 107.345 51.4426 107.318 51.486C107.288 51.5304 107.273 51.5826 107.273 51.636C107.273 51.6894 107.288 51.7416 107.318 51.786L108.74 54.045L107.687 56.496C107.663 56.5444 107.654 56.599 107.661 56.6525C107.669 56.7061 107.692 56.7561 107.729 56.796C107.762 56.8354 107.805 56.8648 107.854 56.8807C107.903 56.8967 107.955 56.8985 108.005 56.886L110.594 56.205Z" fill="#455A64"/>
<path d="M108.536 62.022L108.317 63.522L109.421 64.551C109.468 64.5929 109.502 64.6474 109.519 64.708C109.536 64.7686 109.536 64.8328 109.517 64.893C109.499 64.9529 109.464 65.0064 109.417 65.0477C109.37 65.0891 109.312 65.1165 109.25 65.127L107.75 65.382L107.114 66.75C107.088 66.8063 107.046 66.854 106.994 66.888C106.942 66.9219 106.881 66.9408 106.819 66.9423C106.757 66.9439 106.695 66.9281 106.642 66.8968C106.588 66.8655 106.544 66.8199 106.514 66.765L105.815 65.427L104.315 65.247C104.253 65.2394 104.195 65.2147 104.146 65.1756C104.097 65.1365 104.06 65.0846 104.039 65.0257C104.018 64.9668 104.014 64.9033 104.028 64.8422C104.041 64.7811 104.071 64.7249 104.114 64.68L105.17 63.6L104.87 62.118C104.858 62.0563 104.864 61.9924 104.886 61.9336C104.908 61.8748 104.947 61.8234 104.996 61.785C105.046 61.7469 105.105 61.7235 105.167 61.7177C105.229 61.7119 105.292 61.7237 105.347 61.752L106.703 62.421L108.02 61.686C108.075 61.655 108.137 61.6402 108.2 61.6434C108.263 61.6466 108.323 61.6676 108.374 61.704C108.403 61.7221 108.429 61.7455 108.449 61.773C108.48 61.8065 108.503 61.8458 108.518 61.8886C108.533 61.9314 108.539 61.9768 108.536 62.022Z" fill="#455A64"/>
<path d="M112.01 40.917L111.791 42.417L112.898 43.446C112.945 43.488 112.978 43.5427 112.995 43.6033C113.011 43.664 113.01 43.7281 112.991 43.788C112.974 43.848 112.94 43.9018 112.893 43.9432C112.846 43.9847 112.789 44.012 112.727 44.022L111.227 44.277L110.591 45.645C110.564 45.7013 110.523 45.749 110.471 45.783C110.418 45.817 110.358 45.8358 110.296 45.8373C110.233 45.8389 110.172 45.8231 110.118 45.7918C110.064 45.7605 110.02 45.7149 109.991 45.66L109.289 44.325L107.789 44.142C107.727 44.1344 107.668 44.1097 107.62 44.0706C107.571 44.0316 107.534 43.9796 107.513 43.9207C107.492 43.8618 107.488 43.7983 107.501 43.7372C107.515 43.6761 107.545 43.6199 107.588 43.575L108.644 42.495L108.344 41.013C108.332 40.9517 108.338 40.8883 108.36 40.8299C108.382 40.7716 108.42 40.7205 108.469 40.6825C108.519 40.6445 108.578 40.621 108.64 40.6148C108.702 40.6085 108.765 40.6197 108.821 40.647L110.174 41.316L111.494 40.581C111.549 40.5507 111.611 40.5363 111.674 40.5395C111.736 40.5427 111.797 40.5633 111.848 40.599C111.877 40.619 111.902 40.6433 111.923 40.671C111.954 40.7034 111.978 40.7421 111.993 40.7846C112.008 40.827 112.014 40.8722 112.01 40.917Z" fill="#455A64"/>
</svg>
