<svg width="151" height="150" viewBox="0 0 151 150" fill="none" xmlns="http://www.w3.org/2000/svg">
<path d="M75.9001 142.089C116.279 142.089 149.013 122.323 149.013 97.941C149.013 73.5587 116.279 53.793 75.9001 53.793C35.5209 53.793 2.78711 73.5587 2.78711 97.941C2.78711 122.323 35.5209 142.089 75.9001 142.089Z" fill="#F5F5F5"/>
<path d="M6.95991 101.139L71.9999 138.693C72.3914 138.891 72.8241 138.995 73.2629 138.995C73.7017 138.995 74.1344 138.891 74.5259 138.693L108.726 118.947C109.425 118.542 109.425 117.891 108.726 117.486L43.6919 79.932C43.2999 79.7337 42.8667 79.6304 42.4274 79.6304C41.9881 79.6304 41.5549 79.7337 41.1629 79.932L6.96291 99.681C6.26091 100.083 6.26091 100.737 6.95991 101.139Z" fill="#E0E0E0"/>
<path d="M75.1527 62.052C77.7687 63.579 77.7687 66.054 75.1527 67.581C72.5367 69.108 68.2977 69.108 65.6817 67.581C63.0657 66.054 63.0657 63.579 65.6817 62.052C68.2977 60.525 72.5367 60.525 75.1527 62.052Z" fill="#E0E0E0"/>
<path d="M138.402 82.233L97.2001 58.44C96.9675 58.3128 96.7075 58.2441 96.4425 58.2399C96.1775 58.2358 95.9155 58.2962 95.679 58.416L72.7561 71.7C72.3331 71.946 72.3331 72.339 72.7561 72.585L82.674 78.3L74.1 84.084C71.352 85.935 70.7611 88.383 72.7801 89.547C74.7991 90.711 79.539 90.795 82.509 89.325L92.34 83.871L96.456 86.247L113.886 96.321C114.124 96.4408 114.386 96.5031 114.653 96.5031C114.919 96.5031 115.181 96.4408 115.419 96.321L138.405 83.121C138.813 82.893 138.819 82.5 138.402 82.233Z" fill="#E0E0E0"/>
<path d="M105.189 118.263L74.9487 135.72C74.4713 135.997 73.9313 136.147 73.3796 136.157C72.8279 136.167 72.2828 136.036 71.7957 135.777L10.9167 100.626C9.95669 100.074 9.17969 98.826 9.17969 97.86C9.17969 96.894 9.95669 95.649 10.9137 95.094L41.0427 77.694C41.5808 77.4219 42.1752 77.2802 42.7782 77.2802C43.3811 77.2802 43.9756 77.4219 44.5137 77.694L105.189 112.731C106.149 113.286 106.926 114.531 106.926 115.497C106.926 116.463 106.149 117.711 105.189 118.263Z" fill="#459AE9"/>
<path opacity="0.5" d="M41.0427 77.7L10.9137 95.1C9.9567 95.655 9.1767 96.9 9.1797 97.866C9.1827 98.832 9.9567 100.08 10.9137 100.632L71.7957 135.777C72.2592 136.018 72.7732 136.147 73.2957 136.152V94.323L44.4957 77.7C43.96 77.4309 43.3687 77.2907 42.7692 77.2907C42.1697 77.2907 41.5784 77.4309 41.0427 77.7Z" fill="black"/>
<path opacity="0.4" d="M74.9487 135.72L105.189 118.263C106.149 117.711 106.926 116.463 106.926 115.497C106.926 114.531 106.149 113.286 105.189 112.731L73.3047 94.323V136.152C73.8816 136.159 74.4497 136.01 74.9487 135.72Z" fill="black"/>
<path d="M74.2315 132.6C73.7566 132.84 73.232 132.965 72.7 132.965C72.168 132.965 71.6435 132.84 71.1685 132.6L10.9075 97.8C9.61155 97.05 9.61155 95.826 10.9075 95.079L41.0395 77.7C41.5781 77.4279 42.1731 77.2861 42.7765 77.2861C43.38 77.2861 43.975 77.4279 44.5135 77.7L105.186 112.731C106.143 113.283 106.143 114.186 105.186 114.735L74.2315 132.6Z" fill="#459AE9"/>
<path opacity="0.3" d="M74.2315 132.6C73.7566 132.84 73.232 132.965 72.7 132.965C72.168 132.965 71.6435 132.84 71.1685 132.6L10.9075 97.8C9.61155 97.05 9.61155 95.826 10.9075 95.079L41.0395 77.7C41.5781 77.4279 42.1731 77.2861 42.7765 77.2861C43.38 77.2861 43.975 77.4279 44.5135 77.7L105.186 112.731C106.143 113.283 106.143 114.186 105.186 114.735L74.2315 132.6Z" fill="black"/>
<path d="M71.3036 129.105C70.7925 129.365 70.2271 129.501 69.6536 129.501C69.08 129.501 68.5146 129.365 68.0036 129.105L16.1516 99.168C15.2516 98.643 15.2516 97.788 16.1516 97.263L44.4956 80.898C45.0076 80.6409 45.5726 80.5071 46.1456 80.5071C46.7185 80.5071 47.2835 80.6409 47.7956 80.898L99.6476 110.835C100.548 111.36 100.548 112.218 99.6476 112.743L71.3036 129.105Z" fill="#37474F"/>
<path d="M46.0466 80.511C45.506 80.5133 44.9739 80.6461 44.4956 80.898L16.1516 97.263C15.2516 97.788 15.2516 98.643 16.1516 99.168L21.7706 102.411L46.0466 86.91V80.511Z" fill="#263238"/>
<path d="M47.8167 82.137C47.3048 81.8795 46.7397 81.7454 46.1667 81.7454C45.5937 81.7454 45.0286 81.8795 44.5167 82.137L16.1697 98.502C16.0091 98.5931 15.8642 98.7096 15.7407 98.847C15.8598 98.9752 15.9985 99.0836 16.1517 99.168L68.0037 129.105C68.5148 129.365 69.0802 129.501 69.6537 129.501C70.2273 129.501 70.7926 129.365 71.3037 129.105L99.6507 112.743C99.8098 112.652 99.9536 112.537 100.077 112.401C99.9589 112.271 99.8212 112.161 99.6687 112.074L47.8167 82.137Z" fill="#459AE9"/>
<path opacity="0.75" d="M47.8167 82.137C47.3048 81.8795 46.7397 81.7454 46.1667 81.7454C45.5937 81.7454 45.0286 81.8795 44.5167 82.137L16.1697 98.502C16.0091 98.5931 15.8642 98.7096 15.7407 98.847C15.8598 98.9752 15.9985 99.0836 16.1517 99.168L68.0037 129.105C68.5148 129.365 69.0802 129.501 69.6537 129.501C70.2273 129.501 70.7926 129.365 71.3037 129.105L99.6507 112.743C99.8098 112.652 99.9536 112.537 100.077 112.401C99.9589 112.271 99.8212 112.161 99.6687 112.074L47.8167 82.137Z" fill="white"/>
<path d="M26.5108 89.61L31.5358 86.7C31.8358 86.526 31.8358 86.256 31.5688 86.1C31.4045 86.0205 31.2238 85.981 31.0413 85.9846C30.8588 85.9883 30.6798 86.035 30.5188 86.121L25.4998 89.022C25.1998 89.193 25.1998 89.466 25.4668 89.622C25.6298 89.7012 25.809 89.7413 25.9902 89.7392C26.1714 89.7372 26.3497 89.6929 26.5108 89.61Z" fill="#37474F"/>
<path d="M35.1388 84.636C35.2183 84.636 35.2946 84.6044 35.3509 84.5481C35.4072 84.4918 35.4388 84.4155 35.4388 84.336C35.4388 84.2564 35.4072 84.1801 35.3509 84.1238C35.2946 84.0676 35.2183 84.036 35.1388 84.036C34.9812 83.9561 34.807 83.9145 34.6303 83.9145C34.4536 83.9145 34.2794 83.9561 34.1218 84.036C34.0422 84.036 33.9659 84.0676 33.9096 84.1238C33.8534 84.1801 33.8218 84.2564 33.8218 84.336C33.8218 84.4155 33.8534 84.4918 33.9096 84.5481C33.9659 84.6044 34.0422 84.636 34.1218 84.636C34.2794 84.7158 34.4536 84.7575 34.6303 84.7575C34.807 84.7575 34.9812 84.7158 35.1388 84.636Z" fill="#37474F"/>
<path d="M37.1757 83.457C37.242 83.4419 37.3012 83.4047 37.3436 83.3515C37.386 83.2984 37.409 83.2324 37.409 83.1645C37.409 83.0965 37.386 83.0305 37.3436 82.9774C37.3012 82.9242 37.242 82.8871 37.1757 82.872C37.018 82.7907 36.8431 82.7482 36.6657 82.7482C36.4883 82.7482 36.3134 82.7907 36.1557 82.872C36.0894 82.8871 36.0302 82.9242 35.9878 82.9774C35.9455 83.0305 35.9224 83.0965 35.9224 83.1645C35.9224 83.2324 35.9455 83.2984 35.9878 83.3515C36.0302 83.4047 36.0894 83.4419 36.1557 83.457C36.3134 83.5383 36.4883 83.5807 36.6657 83.5807C36.8431 83.5807 37.018 83.5383 37.1757 83.457Z" fill="#37474F"/>
<path d="M20.8829 92.865C20.9625 92.865 21.0388 92.8334 21.0951 92.7771C21.1513 92.7208 21.1829 92.6445 21.1829 92.565C21.1829 92.4854 21.1513 92.4091 21.0951 92.3528C21.0388 92.2966 20.9625 92.265 20.8829 92.265C20.7253 92.1851 20.5511 92.1435 20.3744 92.1435C20.1977 92.1435 20.0235 92.1851 19.8659 92.265C19.7864 92.265 19.71 92.2966 19.6538 92.3528C19.5975 92.4091 19.5659 92.4854 19.5659 92.565C19.5659 92.6445 19.5975 92.7208 19.6538 92.7771C19.71 92.8334 19.7864 92.865 19.8659 92.865C20.0235 92.9448 20.1977 92.9864 20.3744 92.9864C20.5511 92.9864 20.7253 92.9448 20.8829 92.865Z" fill="#37474F"/>
<path d="M22.9199 91.689C23.2019 91.524 23.2019 91.263 22.9199 91.089C22.7623 91.0091 22.5881 90.9675 22.4114 90.9675C22.2347 90.9675 22.0605 91.0091 21.9029 91.089C21.6209 91.251 21.6209 91.512 21.9029 91.689C22.0605 91.7689 22.2347 91.8105 22.4114 91.8105C22.5881 91.8105 22.7623 91.7689 22.9199 91.689Z" fill="#37474F"/>
<path d="M29.9997 109.662C30.1548 109.759 30.2848 109.89 30.3792 110.047C30.4736 110.203 30.5296 110.38 30.5427 110.562C30.5488 110.624 30.5381 110.686 30.5117 110.742C30.4853 110.798 30.4442 110.846 30.3927 110.88C30.3267 110.916 30.0927 111.063 30.0117 111.099C29.9486 111.127 29.8792 111.138 29.8106 111.13C29.742 111.122 29.6768 111.096 29.6217 111.054L22.5747 106.98C22.42 106.883 22.2902 106.751 22.1958 106.595C22.1015 106.438 22.0453 106.262 22.0317 106.08C22.0275 106.023 22.0376 105.965 22.0611 105.913C22.0847 105.86 22.121 105.815 22.1667 105.78L22.5597 105.552C22.6235 105.525 22.6933 105.515 22.7621 105.523C22.831 105.531 22.8966 105.556 22.9527 105.597L29.9997 109.662Z" fill="#459AE9"/>
<path opacity="0.4" d="M29.9997 109.662C30.1548 109.759 30.2848 109.89 30.3792 110.047C30.4736 110.203 30.5296 110.38 30.5427 110.562C30.5488 110.624 30.5381 110.686 30.5117 110.742C30.4853 110.798 30.4442 110.846 30.3927 110.88C30.3267 110.916 30.0927 111.063 30.0117 111.099C29.9486 111.127 29.8792 111.138 29.8106 111.13C29.742 111.122 29.6768 111.096 29.6217 111.054L22.5747 106.98C22.42 106.883 22.2902 106.751 22.1958 106.595C22.1015 106.438 22.0453 106.262 22.0317 106.08C22.0275 106.023 22.0376 105.965 22.0611 105.913C22.0847 105.86 22.121 105.815 22.1667 105.78L22.5597 105.552C22.6235 105.525 22.6933 105.515 22.7621 105.523C22.831 105.531 22.8966 105.556 22.9527 105.597L29.9997 109.662Z" fill="black"/>
<path d="M29.6337 109.881L22.5747 105.804C22.2747 105.63 22.0317 105.753 22.0317 106.077C22.0453 106.259 22.1015 106.435 22.1959 106.592C22.2902 106.748 22.42 106.88 22.5747 106.977L29.6337 111.051C29.9337 111.225 30.1767 111.102 30.1767 110.778C30.1632 110.596 30.1069 110.42 30.0126 110.264C29.9182 110.109 29.7884 109.977 29.6337 109.881Z" fill="#459AE9"/>
<path opacity="0.3" d="M29.6337 109.881L22.5747 105.804C22.2747 105.63 22.0317 105.753 22.0317 106.077C22.0453 106.259 22.1015 106.435 22.1959 106.592C22.2902 106.748 22.42 106.88 22.5747 106.977L29.6337 111.051C29.9337 111.225 30.1767 111.102 30.1767 110.778C30.1632 110.596 30.1069 110.42 30.0126 110.264C29.9182 110.109 29.7884 109.977 29.6337 109.881Z" fill="black"/>
<path d="M20.5618 104.205C20.7165 104.302 20.8463 104.434 20.9406 104.59C21.035 104.747 21.0912 104.923 21.1048 105.105C21.1116 105.167 21.1011 105.229 21.0747 105.285C21.0482 105.341 21.0067 105.389 20.9548 105.423L20.5738 105.645C20.5103 105.671 20.4412 105.681 20.3729 105.673C20.3046 105.665 20.2395 105.64 20.1838 105.6L16.8538 103.677C16.699 103.58 16.5692 103.448 16.4749 103.292C16.3806 103.135 16.3243 102.959 16.3108 102.777C16.3071 102.719 16.3178 102.662 16.3419 102.61C16.366 102.557 16.4027 102.512 16.4488 102.477C16.5178 102.435 16.7728 102.285 16.8418 102.249C16.9053 102.221 16.9749 102.211 17.0438 102.218C17.1127 102.225 17.1785 102.25 17.2348 102.291L20.5618 104.205Z" fill="#459AE9"/>
<path opacity="0.4" d="M20.5618 104.205C20.7165 104.302 20.8463 104.434 20.9406 104.59C21.035 104.747 21.0912 104.923 21.1048 105.105C21.1116 105.167 21.1011 105.229 21.0747 105.285C21.0482 105.341 21.0067 105.389 20.9548 105.423L20.5738 105.645C20.5103 105.671 20.4412 105.681 20.3729 105.673C20.3046 105.665 20.2395 105.64 20.1838 105.6L16.8538 103.677C16.699 103.58 16.5692 103.448 16.4749 103.292C16.3806 103.135 16.3243 102.959 16.3108 102.777C16.3071 102.719 16.3178 102.662 16.3419 102.61C16.366 102.557 16.4027 102.512 16.4488 102.477C16.5178 102.435 16.7728 102.285 16.8418 102.249C16.9053 102.221 16.9749 102.211 17.0438 102.218C17.1127 102.225 17.1785 102.25 17.2348 102.291L20.5618 104.205Z" fill="black"/>
<path d="M20.1835 104.424L16.8535 102.501C16.5535 102.33 16.3105 102.453 16.3105 102.777C16.3241 102.959 16.3803 103.135 16.4747 103.292C16.569 103.448 16.6988 103.58 16.8535 103.677L20.1835 105.6C20.4835 105.771 20.7265 105.648 20.7265 105.324C20.7134 105.142 20.6574 104.965 20.563 104.809C20.4687 104.652 20.3386 104.521 20.1835 104.424Z" fill="#459AE9"/>
<path opacity="0.3" d="M20.1835 104.424L16.8535 102.501C16.5535 102.33 16.3105 102.453 16.3105 102.777C16.3241 102.959 16.3803 103.135 16.4747 103.292C16.569 103.448 16.6988 103.58 16.8535 103.677L20.1835 105.6C20.4835 105.771 20.7265 105.648 20.7265 105.324C20.7134 105.142 20.6574 104.965 20.563 104.809C20.4687 104.652 20.3386 104.521 20.1835 104.424Z" fill="black"/>
<path opacity="0.15" d="M47.2195 112.686L55.0645 117.234C55.1967 117.302 55.3433 117.337 55.492 117.337C55.6406 117.337 55.7872 117.302 55.9195 117.234L78.4375 104.253C78.4894 104.236 78.5345 104.202 78.5664 104.158C78.5984 104.114 78.6156 104.06 78.6156 104.005C78.6156 103.951 78.5984 103.897 78.5664 103.853C78.5345 103.809 78.4894 103.775 78.4375 103.758L70.5925 99.21C70.46 99.1428 70.3135 99.1077 70.165 99.1077C70.0164 99.1077 69.8699 99.1428 69.7375 99.21L47.2195 112.2C47.1706 112.219 47.1287 112.253 47.0991 112.296C47.0695 112.339 47.0537 112.39 47.0537 112.443C47.0537 112.495 47.0695 112.547 47.0991 112.59C47.1287 112.633 47.1706 112.667 47.2195 112.686Z" fill="black"/>
<path d="M77.5194 103.089C77.5142 103.037 77.4953 102.987 77.4648 102.944C77.4343 102.902 77.3931 102.868 77.3454 102.846L70.3284 98.796C70.1989 98.7294 70.0555 98.6946 69.9099 98.6946C69.7643 98.6946 69.6208 98.7294 69.4914 98.796L48.0744 111.18C48.0267 111.202 47.9855 111.236 47.955 111.278C47.9244 111.321 47.9056 111.371 47.9004 111.423V112.158C47.9056 112.21 47.9244 112.26 47.955 112.303C47.9855 112.345 48.0267 112.379 48.0744 112.401L55.0914 116.451C55.2213 116.516 55.3646 116.55 55.5099 116.55C55.6552 116.55 55.7985 116.516 55.9284 116.451L77.3454 104.1C77.3927 104.078 77.4336 104.045 77.4641 104.003C77.4946 103.961 77.5137 103.912 77.5194 103.86V103.089Z" fill="#263238"/>
<path d="M55.0915 115.695L48.0745 111.663C48.024 111.646 47.9802 111.613 47.9491 111.57C47.9181 111.527 47.9014 111.475 47.9014 111.421C47.9014 111.368 47.9181 111.316 47.9491 111.273C47.9802 111.23 48.024 111.197 48.0745 111.18L69.4915 98.796C69.621 98.7294 69.7644 98.6946 69.91 98.6946C70.0556 98.6946 70.199 98.7294 70.3285 98.796L77.3455 102.846C77.396 102.863 77.4398 102.896 77.4709 102.939C77.5019 102.982 77.5186 103.034 77.5186 103.087C77.5186 103.141 77.5019 103.193 77.4709 103.236C77.4398 103.279 77.396 103.312 77.3455 103.329L55.9285 115.695C55.799 115.762 55.6556 115.796 55.51 115.796C55.3644 115.796 55.221 115.762 55.0915 115.695Z" fill="#37474F"/>
<path d="M55.4813 115.8V116.553C55.3445 116.553 55.2096 116.52 55.0883 116.457L48.0773 112.407C48.0296 112.385 47.9884 112.351 47.9579 112.309C47.9274 112.266 47.9086 112.216 47.9033 112.164V111.42C47.9086 111.472 47.9274 111.522 47.9579 111.565C47.9884 111.607 48.0296 111.641 48.0773 111.663L55.0883 115.698C55.2098 115.761 55.3443 115.796 55.4813 115.8Z" fill="#263238"/>
<path d="M69.8574 99.4349L70.5534 99.8339L69.6114 100.38L68.8914 99.9749L69.8334 99.4319L69.8574 99.4349ZM70.9464 100.062L71.6394 100.464L70.9014 100.89L70.1994 100.5L70.9404 100.071L70.9464 100.062ZM68.5464 100.194H68.5614L69.2574 100.596L68.5164 101.022L67.7994 100.623L68.5374 100.194H68.5464ZM72.0384 100.689L72.7344 101.091L71.5344 101.781L70.8174 101.379L72.0174 100.689H72.0384ZM69.8364 100.704L70.5324 101.106L69.9324 101.445L69.2154 101.043L69.8154 100.704H69.8364ZM67.4364 100.839H67.4514L68.1474 101.238L67.4064 101.667L66.6894 101.262L67.4274 100.836L67.4364 100.839ZM68.8764 101.262H68.8944L69.5874 101.661L68.9994 102L68.2824 101.598L68.8824 101.259L68.8764 101.262ZM73.1304 101.319L73.8234 101.718L72.8994 102.267L72.1824 101.862L73.1244 101.319H73.1304ZM66.3234 101.481L67.0164 101.883L61.6704 104.97L60.9504 104.565L66.2994 101.481H66.3234ZM70.4724 101.595H70.4874L71.1834 101.997L70.5834 102.336L69.8634 101.934L70.4634 101.595H70.4724ZM67.9164 101.817L68.6124 102.216L68.0124 102.555L67.2924 102.153L67.8924 101.814L67.9164 101.817ZM74.2164 101.946L74.9124 102.348L74.3124 102.687L73.5924 102.282L74.1924 101.943L74.2164 101.946ZM71.8164 102.078H71.8314L72.5244 102.48L71.9244 102.819L71.2074 102.414L71.8074 102.075L71.8164 102.078ZM69.5124 102.153H69.5274L70.2234 102.552L69.6234 102.891L68.9034 102.489L69.5034 102.15L69.5124 102.153ZM66.9564 102.372L67.6524 102.774L67.0524 103.113L66.3324 102.708L66.9324 102.369L66.9564 102.372ZM73.2564 102.501H73.2744L73.9674 102.903L73.3674 103.242L72.6504 102.837L73.2504 102.498L73.2564 102.501ZM70.8564 102.633H70.8714L71.5674 103.035L70.9674 103.374L70.2474 102.969L70.8474 102.63L70.8564 102.633ZM68.5524 102.708H68.5704L69.2634 103.107L68.6634 103.446L67.9464 103.044L68.5464 102.705L68.5524 102.708ZM75.5424 102.708H75.5574L76.2534 103.107L75.5124 103.536L74.7954 103.131L75.5334 102.705L75.5424 102.708ZM65.9964 102.927H65.9994L66.6924 103.329L66.0924 103.668L65.3994 103.266L65.9844 102.927H65.9964ZM72.2994 103.056L72.9924 103.458L72.3924 103.797L71.6994 103.395L72.2994 103.056ZM69.8964 103.188L70.5924 103.59L69.9924 103.929L69.2994 103.53L69.8994 103.191L69.8964 103.188ZM67.5954 103.263H67.6104L68.3034 103.665L67.7034 104.004L66.9864 103.599L67.5864 103.26L67.5954 103.263ZM65.0394 103.482L65.7324 103.884L65.1324 104.223L64.4154 103.818L65.0154 103.479L65.0394 103.482ZM74.0124 103.593L74.7084 103.992L74.1084 104.334L73.3884 103.929L73.9884 103.59L74.0124 103.593ZM71.3394 103.611L72.0354 104.013L71.4354 104.352L70.7154 103.95L71.3154 103.611H71.3394ZM68.9394 103.743H68.9574L69.6504 104.145L69.0504 104.484L68.3214 104.1L68.9214 103.761L68.9394 103.743ZM66.6384 103.818L67.3344 104.22L66.7344 104.559L66.0144 104.154L66.6144 103.815L66.6384 103.818ZM64.0824 104.037H64.0974L64.7934 104.439L64.1934 104.778L63.4734 104.376L64.0734 104.037H64.0824ZM73.0554 104.148H73.0734L73.7664 104.55L73.1664 104.889L72.4494 104.484L73.0344 104.145L73.0554 104.148ZM70.3824 104.166H70.3974L71.0934 104.568L70.4934 104.907L69.7734 104.505L70.3734 104.166H70.3824ZM67.9824 104.301L68.6784 104.7L68.0784 105.039L67.3584 104.637L67.9584 104.298L67.9824 104.301ZM65.6784 104.373L66.3744 104.775L65.7744 105.114L65.0574 104.7L65.6424 104.361L65.6784 104.373ZM63.1224 104.595H63.1374L63.8334 104.994L63.2334 105.333L62.5164 104.931L63.1014 104.592L63.1224 104.595ZM72.0984 104.703L72.7914 105.105L72.1914 105.444L71.4744 105.039L72.0744 104.7L72.0984 104.703ZM69.4224 104.724H69.4404L70.1334 105.123L69.5334 105.462L68.8164 105.06L69.4164 104.721L69.4224 104.724ZM60.6174 104.784H60.5994L61.2954 105.186L60.5544 105.612L59.8374 105.21L60.5754 104.781L60.6174 104.784ZM67.0194 104.856H67.0344L67.7304 105.255L67.1304 105.597L66.4104 105.192L67.0104 104.853L67.0194 104.856ZM64.7184 104.928H64.7334L65.4264 105.33L64.8264 105.669L64.1094 105.267L64.7094 104.928H64.7184ZM62.1624 105.15L62.8554 105.549L62.2554 105.888L61.5384 105.486L62.1384 105.147L62.1624 105.15ZM71.1354 105.258H71.1504L71.8464 105.66L71.2464 105.999L70.4994 105.6L71.0994 105.261L71.1354 105.258ZM68.4624 105.279L69.1584 105.678L68.5584 106.02L67.8414 105.615L68.4414 105.276L68.4624 105.279ZM66.0624 105.411H66.0804L66.7734 105.813L66.1734 106.152L65.4564 105.747L66.0564 105.408L66.0624 105.411ZM59.5104 105.429H59.5254L60.2214 105.828L59.4804 106.257L58.7634 105.852L59.5014 105.426L59.5104 105.429ZM63.7614 105.483L64.4394 105.9L63.8394 106.239L63.1194 105.837L63.7194 105.498L63.7614 105.483ZM61.2054 105.705H61.1994L61.8954 106.107L61.2954 106.446L60.5754 106.041L61.1754 105.702L61.2054 105.705ZM67.5054 105.834H67.4994L68.1954 106.236L67.5954 106.575L66.8754 106.17L67.4754 105.831L67.5054 105.834ZM65.1054 105.966L65.8014 106.368L65.2014 106.707L64.4844 106.302L65.0844 105.963L65.1054 105.966ZM62.8014 106.041H62.8164L63.5124 106.44L62.9124 106.779L62.1924 106.377L62.7924 106.038L62.8014 106.041ZM69.7644 106.041L70.4574 106.443L69.8574 106.782L69.1404 106.377L69.7404 106.038L69.7644 106.041ZM58.4004 106.056L59.0934 106.458L58.3554 106.884L57.6354 106.479L58.3764 106.053L58.4004 106.056ZM60.2454 106.245H60.2604L60.9564 106.647L60.3564 106.986L59.6394 106.581L60.2244 106.242L60.2454 106.245ZM66.5454 106.374H66.5634L67.2564 106.776L66.6564 107.115L65.9394 106.71L66.5244 106.371L66.5454 106.374ZM64.1454 106.506H64.1604L64.8564 106.908L64.2564 107.247L63.5364 106.842L64.1364 106.503L64.1454 106.506ZM61.8414 106.581H61.8594L62.5524 106.983L61.9524 107.322L61.1994 106.935L61.7994 106.596L61.8414 106.581ZM68.8044 106.596H68.8194L69.5154 106.998L68.9154 107.337L68.1954 106.932L68.7954 106.593L68.8044 106.596ZM57.2874 106.698L57.9834 107.1L57.0414 107.643L56.3214 107.241L57.2634 106.698H57.2874ZM59.2854 106.8H59.3034L59.9964 107.202L58.1034 108.3L57.3864 107.895L59.2404 106.824L59.2854 106.8ZM65.5854 106.929H65.6004L66.2934 107.331L65.6934 107.67L64.9764 107.265L65.5764 106.929H65.5854ZM63.1854 107.061H63.2034L63.8964 107.463L63.2964 107.802L62.5794 107.4L63.1644 107.061H63.1854ZM60.8844 107.136H60.8994L61.5954 107.538L60.9954 107.877L60.2754 107.472L60.8754 107.133L60.8844 107.136ZM67.8444 107.151H67.8594L68.5554 107.553L67.9554 107.892L67.1994 107.508L67.7844 107.169L67.8444 107.151ZM64.6284 107.484H64.6434L65.3394 107.886L64.7394 108.225L64.0194 107.823L64.6194 107.484H64.6284ZM55.7724 107.577L56.4684 107.976L55.8684 108.315L55.1484 107.913L55.7484 107.574L55.7724 107.577ZM62.2254 107.619H62.2404L62.9334 108.018L62.3334 108.357L61.6164 107.955L62.2164 107.616L62.2254 107.619ZM59.9214 107.691H59.9364L60.6324 108.093L60.0954 108.393C60.0774 108.403 60.0624 108.417 60.0519 108.434C60.0413 108.452 60.0356 108.472 60.0354 108.492C60.0354 108.513 60.0412 108.534 60.0524 108.552C60.0635 108.57 60.0794 108.584 60.0984 108.594L60.9984 109.119L60.3084 109.518L58.5084 108.486L59.9064 107.679L59.9214 107.691ZM66.8844 107.706H66.8994L67.5924 108.108L66.9924 108.447L66.2754 108.045L66.8754 107.706H66.8844ZM63.6654 108.042L64.3614 108.441L63.7614 108.78L63.0444 108.378L63.6444 108.039L63.6654 108.042ZM54.8094 108.132H54.8244L55.5204 108.531L54.8994 108.9L54.1824 108.495L54.7674 108.156L54.8094 108.132ZM61.2624 108.174H61.2774L61.9734 108.573L61.3734 108.912L60.6534 108.51L61.2534 108.171L61.2624 108.174ZM65.5014 108.504H65.5194L66.2124 108.906L65.6124 109.245L64.8954 108.84L65.4804 108.501L65.5014 108.504ZM62.7054 108.597H62.7204L63.4134 108.996L62.8134 109.338L62.0964 108.933L62.6964 108.594L62.7054 108.597ZM53.8464 108.687H53.8644L54.5574 109.089L53.9574 109.428L53.2404 109.023L53.8404 108.684L53.8464 108.687ZM55.8984 108.759H55.9134L56.6064 109.161L56.0064 109.5L55.2894 109.095L55.8894 108.756L55.8984 108.759ZM64.5414 109.059H64.5564L65.2494 109.461L64.6494 109.8L63.8994 109.416L64.4994 109.077L64.5414 109.059ZM61.7424 109.152H61.7574L62.4534 109.551L61.4094 110.151L60.6894 109.749L61.7334 109.149L61.7424 109.152ZM52.6824 109.359H52.6974L53.3934 109.761L51.8424 110.661L51.1254 110.256L52.6734 109.356L52.6824 109.359ZM59.0334 109.458H59.0514L59.7444 109.86L59.1444 110.199L58.4274 109.797L59.0274 109.458H59.0334ZM63.5784 109.617H63.5934L64.2894 110.019L63.6894 110.358L62.9694 109.956L63.5694 109.617H63.5784ZM53.7714 109.986H53.7864L54.4794 110.388L53.8794 110.727L53.1624 110.325L53.7624 109.986H53.7714ZM58.0734 110.016H58.0884L58.7814 110.415L58.1814 110.754L57.4644 110.352L58.0644 110.013L58.0734 110.016ZM60.1224 110.088L60.8184 110.487L60.2184 110.829L59.4984 110.424L60.0984 110.085L60.1224 110.088ZM62.6154 110.172L63.3114 110.571L62.7114 110.91L61.9944 110.508L62.5944 110.169L62.6154 110.172ZM50.7594 110.472H50.7744L51.4704 110.874L50.8704 111.213L50.1504 110.811L50.7504 110.472H50.7594ZM52.8084 110.547H52.8234L53.5194 110.946L52.9194 111.285L52.1994 110.883L52.7994 110.544L52.8084 110.547ZM57.1104 110.574H57.1254L57.7794 111L57.1794 111.342L56.4594 110.937L57.0594 110.598L57.1104 110.574ZM54.8574 110.619H54.8724L55.5684 111.018L54.9684 111.357L54.2514 110.955L54.8364 110.616L54.8574 110.619ZM59.1594 110.646H59.1744L59.8704 111.048L59.2704 111.387L58.5504 110.982L59.1504 110.643L59.1594 110.646ZM61.4424 110.853H61.4574L62.1504 111.252L61.5504 111.594L60.8334 111.189L61.4334 110.85L61.4424 110.853ZM49.7964 111.03H49.8114L51.5934 112.056L50.9934 112.398L49.1934 111.366L49.7934 111.027L49.7964 111.03ZM51.8454 111.102H51.8634L52.5564 111.501L51.9564 111.843L51.2394 111.438L51.8394 111.099L51.8454 111.102ZM53.8944 111.174H53.9124L54.6054 111.573L54.0054 111.915L53.2884 111.51L53.8884 111.171L53.8944 111.174ZM58.1964 111.201H58.2144L58.9074 111.603L58.3074 111.942L57.5904 111.537L58.1754 111.198L58.1964 111.201ZM55.9464 111.246H55.9614L56.6544 111.648L56.0544 111.987L55.3074 111.6L55.9074 111.261L55.9464 111.246ZM60.4794 111.408L61.1754 111.81L60.5754 112.149L59.8554 111.744L60.4554 111.405L60.4794 111.408ZM52.9344 111.729H52.9494L53.6454 112.131L53.0454 112.47L52.3254 112.065L52.9254 111.726L52.9344 111.729ZM54.9834 111.801H54.9984L55.6944 112.203L55.0944 112.542L54.3744 112.137L54.9744 111.798L54.9834 111.801ZM56.9994 111.9L57.6954 112.302L57.0954 112.641L56.3754 112.236L56.9754 111.897L56.9994 111.9ZM59.4834 111.99H59.4984L60.1944 112.392L59.5944 112.731L58.8774 112.326L59.4624 111.987L59.4834 111.99ZM51.9384 112.311H51.9534L53.7354 113.34L53.1354 113.679L51.3354 112.647L51.9354 112.308L51.9384 112.311ZM53.9874 112.383L54.6834 112.785L54.0834 113.124L53.3994 112.707L53.9994 112.371L53.9874 112.383ZM56.0364 112.455H56.0514L56.7474 112.857L56.1474 113.196L55.4304 112.794L56.0304 112.455H56.0364ZM58.5894 112.8L58.8894 112.971L58.2894 113.31L57.9654 113.136L58.5654 112.797L58.5894 112.8ZM55.0674 112.986H55.0824L55.7754 113.388L55.1754 113.727L54.4584 113.325L55.0584 112.986H55.0674ZM57.6264 113.355H57.6444L57.9444 113.526L57.3444 113.865L57.0234 113.691L57.6054 113.352L57.6264 113.355ZM54.1044 113.544H54.1194L54.8154 113.943L54.2154 114.282L53.4954 113.88L54.0954 113.541L54.1044 113.544ZM56.6664 113.91H56.6814L56.9814 114.081L56.3814 114.42L56.0604 114.246L56.6604 113.91H56.6664ZM55.7034 114.465L56.0034 114.636L55.4034 114.975L55.0794 114.801L55.6794 114.465H55.7034Z" fill="#459AE9"/>
<path opacity="0.1" d="M29.6998 104.184C30.0238 105.003 30.7228 105.429 31.7578 105.891C34.7878 107.256 42.0508 108.891 46.1278 109.617C48.5008 110.04 50.9278 110.817 53.3518 110.922C55.5208 111.009 57.7708 110.622 59.5708 109.398C59.8286 109.256 60.033 109.034 60.1528 108.765C60.2023 108.548 60.1796 108.32 60.0881 108.117C59.9965 107.914 59.8413 107.747 59.6458 107.64C59.2488 107.435 58.8115 107.319 58.3648 107.301C53.5333 106.72 48.8067 105.467 44.3218 103.578C46.3348 103.365 48.3808 103.146 50.2528 102.378C52.1248 101.61 53.8528 100.209 54.5008 98.295C54.6328 97.911 54.7408 97.485 55.0588 97.23C55.2373 97.1107 55.4426 97.0377 55.6564 97.0178C55.8701 96.9979 56.0854 97.0317 56.2828 97.116C57.5998 97.587 58.1218 99.129 58.5118 100.473C58.9018 101.817 59.5498 103.35 60.9118 103.659C60.4168 103.359 60.6118 102.501 61.1338 102.294C61.6558 102.087 62.2948 102.411 62.6128 102.894C62.9308 103.377 63.0118 103.926 63.2758 104.415C63.5398 104.904 64.1068 105.315 64.6198 105.114C64.8899 104.978 65.1027 104.751 65.2198 104.472C65.9458 103.053 65.8198 101.304 65.1778 99.843C64.5358 98.382 63.4588 97.158 62.3068 96.057C60.7018 94.524 58.8958 93.147 56.8168 92.367C52.4668 90.732 47.5738 91.923 43.2628 93.663C40.0108 94.9742 36.8882 96.5862 33.9358 98.478C32.8157 99.1467 31.7837 99.953 30.8638 100.878C30.2068 101.58 29.5168 102.576 29.5858 103.578C29.593 103.785 29.6314 103.989 29.6998 104.184Z" fill="black"/>
<path d="M66.5698 99.513C65.9338 98.529 64.7938 96.513 64.4368 96.099C63.4618 94.989 61.4518 93.234 61.4518 93.234C59.5558 91.689 53.7328 86.547 53.7328 86.547C53.7328 86.547 52.8328 75.147 51.8248 73.323C50.6608 71.199 48.4468 71.112 46.1548 70.974C46.1548 70.974 45.5548 73.449 45.3208 75.474C45.3208 75.474 47.3818 88.26 47.6278 89.448C47.8738 90.636 48.4768 91.158 49.7038 91.947C51.5788 93.147 58.3618 96.792 58.3618 96.792L58.6948 97.023C58.9234 97.184 59.0955 97.4128 59.1868 97.677C59.2747 97.9399 59.3341 98.2114 59.3638 98.487C59.4718 99.432 59.3638 99.687 59.4448 100.719C59.5258 101.751 59.7448 101.718 60.1498 102.603C60.5128 103.422 60.6208 103.935 60.9208 103.965C61.2208 103.995 61.6048 103.329 61.6048 102.654C61.6048 101.979 61.1938 101.235 61.1788 100.95C61.1638 100.665 61.3138 100.311 61.9558 100.689C62.5978 101.067 63.1978 102.216 63.6748 103.011C64.1518 103.806 64.4068 104.856 64.8898 105.429C65.3728 106.002 65.5528 105.366 65.7748 104.829C65.9968 104.292 67.0798 103.416 67.3648 102.558C67.6498 101.7 67.1998 100.5 66.5698 99.513Z" fill="#FFA8A7"/>
<path d="M46.1547 70.902C47.7327 70.902 49.0137 70.728 50.4027 71.574C51.7917 72.42 52.1667 73.578 52.4817 75.378C52.7667 77.016 53.3457 82.656 53.3457 82.656C53.3457 82.656 49.3377 84.867 45.8457 83.457L46.1547 70.902Z" fill="#37474F"/>
<path d="M49.4729 63.168C50.1395 63.386 50.7779 63.6821 51.3749 64.05C51.7497 64.278 52.0202 64.6437 52.1284 65.0688C52.2366 65.4939 52.174 65.9445 51.9539 66.324L51.2309 66.18C51.2309 66.18 51.6029 65.331 51.1679 64.878C50.7329 64.425 49.4609 64.032 49.4609 64.032L49.4729 63.168Z" fill="#263238"/>
<path d="M51.6537 65.853C51.0537 65.568 50.7837 65.934 50.3697 66.93C49.9557 67.926 50.2407 68.199 50.7447 68.397C51.2487 68.595 51.6447 68.262 51.9447 67.437C52.2927 66.51 52.2837 66.162 51.6537 65.853Z" fill="#459AE9"/>
<path opacity="0.1" d="M51.702 65.862C51.102 65.577 50.832 65.943 50.418 66.939C50.004 67.935 50.289 68.208 50.793 68.406C51.297 68.604 51.693 68.271 51.993 67.446C52.344 66.519 52.335 66.171 51.702 65.862Z" fill="black"/>
<path d="M39.6448 71.628C36.3448 72.369 32.7988 73.428 30.1408 74.583C30.1408 74.583 29.9278 85.956 31.7698 91.383C33.6118 96.81 33.0808 102.993 33.0808 102.993C42.0808 104.448 52.9978 100.266 52.7278 95.73C52.2934 94.782 51.7859 93.8692 51.2098 93C51.2098 93 50.9848 89.355 51.0838 87.732C57.6838 81.555 48.5188 73.632 46.1548 70.914C44.7148 71.1 42.5998 70.965 39.6448 71.628Z" fill="#455A64"/>
<path d="M39.1018 54.915C38.6758 55.68 38.8528 56.583 39.0268 57.393C39.1618 58.011 39.5308 58.776 39.3748 59.403C39.1267 60.2671 38.5992 61.0246 37.8748 61.557C37.6967 61.7057 37.5071 61.8401 37.3078 61.959C37.1368 62.052 36.9388 62.094 36.7648 62.19C36.3957 62.4069 36.0905 62.7174 35.8798 63.09C35.5902 63.6266 35.3743 64.1997 35.2378 64.794C35.1008 65.3883 34.8731 65.958 34.5628 66.483C34.2157 66.9738 33.7478 67.3668 33.2044 67.6238C32.661 67.8808 32.0604 67.9931 31.4608 67.95C30.7991 67.9004 30.1586 67.6948 29.5918 67.35C29.3052 67.1775 29.0368 66.9765 28.7908 66.75C28.5657 66.5573 28.3855 66.3177 28.2628 66.048C28.1747 66.848 28.3747 67.6531 28.8268 68.319C28.2092 68.4285 27.5744 68.3904 26.9743 68.2077C26.3742 68.0251 25.8258 67.7032 25.3738 67.2682C24.9219 66.8332 24.5792 66.2975 24.3738 65.7049C24.1684 65.1122 24.106 64.4794 24.1918 63.858C24.2998 63.09 24.6268 62.358 24.7918 61.611C25.2478 59.571 23.4178 58.455 23.1178 56.595C23.0341 56.0135 23.13 55.4204 23.3927 54.895C23.6555 54.3695 24.0724 53.9369 24.5878 53.655C25.2148 53.325 26.0398 53.16 26.3008 52.503C26.5018 51.999 26.2558 51.438 26.2648 50.895C26.2648 49.821 27.2788 49.002 28.2988 48.678C29.3188 48.354 30.4258 48.357 31.4548 48.051C32.5528 47.727 33.5548 47.058 34.6708 46.851C35.3363 46.7459 36.0175 46.8047 36.6552 47.0222C37.2929 47.2396 37.8681 47.6092 38.3308 48.099C38.7538 48.549 38.9848 49.074 39.3598 49.539C39.7348 50.004 40.3078 50.244 40.5838 50.79C40.7819 51.1425 40.8924 51.5374 40.906 51.9415C40.9195 52.3456 40.8358 52.747 40.6618 53.112C40.2868 53.829 39.4918 54.222 39.1018 54.915Z" fill="#37474F"/>
<path d="M49.2509 57.339C49.1249 53.769 47.0519 48.675 39.3809 49.326C31.9049 49.962 29.7059 56.631 30.3809 60.252C31.3319 65.25 34.9679 65.571 35.9129 68.838L49.2509 57.339Z" fill="#455A64"/>
<path d="M32.5316 60.069C32.7494 59.7929 33.0434 59.5866 33.3772 59.4758C33.7109 59.3649 34.0698 59.3542 34.4096 59.445C34.7713 59.5467 35.0935 59.756 35.3336 60.045C35.6786 60.426 35.6726 60.945 35.9156 61.38C35.9865 61.5204 36.0899 61.6419 36.2172 61.7343C36.3445 61.8266 36.4921 61.8872 36.6476 61.911C37.6766 62.004 37.2926 60.333 37.3496 59.739C39.2936 59.049 39.2396 58.329 39.5036 56.613C40.8656 55.143 43.2296 54.927 45.2756 56.334C46.5236 53.934 47.8766 54.234 48.4616 54.975C48.8936 55.8559 49.188 56.7978 49.3346 57.768C49.6185 59.2188 49.7283 60.6982 49.6616 62.175C49.4096 67.908 47.5196 69.285 46.5776 69.675C45.6356 70.065 44.4776 69.783 42.7466 69.456V72.9C44.5466 76.335 45.9836 81.534 45.9146 84.93C43.1456 79.686 38.8106 76.881 36.7616 74.976C36.2925 74.5517 35.8765 74.0722 35.5226 73.548V64.5C35.5226 64.5 34.7666 65.307 33.5666 64.353C31.9616 63.069 31.4696 61.269 32.5316 60.069Z" fill="#FFA8A7"/>
<path d="M42.7469 69.462C41.2469 69.072 39.6419 68.505 38.5469 67.662C37.8056 67.0647 37.243 66.2748 36.9209 65.379C36.9209 65.379 37.0499 67.59 38.1629 68.586C39.2759 69.582 42.7589 70.731 42.7589 70.731L42.7469 69.462Z" fill="#F28F8F"/>
<path d="M42.9808 61.47C42.9958 61.6251 42.9649 61.7813 42.8919 61.9189C42.8189 62.0566 42.707 62.1698 42.5702 62.2445C42.4334 62.3191 42.2776 62.3519 42.1223 62.3387C41.967 62.3255 41.819 62.267 41.6967 62.1704C41.5744 62.0737 41.4832 61.9433 41.4344 61.7953C41.3857 61.6472 41.3815 61.4881 41.4224 61.3377C41.4634 61.1874 41.5476 61.0523 41.6647 60.9494C41.7817 60.8465 41.9264 60.7803 42.0808 60.759C42.1866 60.7464 42.2939 60.7549 42.3964 60.7839C42.4989 60.8128 42.5948 60.8617 42.6784 60.9278C42.762 60.9938 42.8317 61.0757 42.8836 61.1687C42.9355 61.2618 42.9686 61.3642 42.9808 61.47Z" fill="#263238"/>
<path d="M48.6148 60.771C48.646 60.9615 48.6004 61.1566 48.4879 61.3135C48.3754 61.4705 48.2053 61.5763 48.0148 61.608C47.9179 61.6261 47.8183 61.6232 47.7226 61.5996C47.627 61.576 47.5374 61.5321 47.4601 61.471C47.3828 61.4099 47.3195 61.333 47.2744 61.2453C47.2293 61.1577 47.2036 61.0614 47.1988 60.963C47.1862 60.8692 47.1922 60.7739 47.2164 60.6824C47.2407 60.591 47.2827 60.5052 47.3401 60.43C47.3974 60.3548 47.4691 60.2916 47.5509 60.2441C47.6327 60.1965 47.723 60.1656 47.8168 60.153C47.9106 60.1404 48.0059 60.1463 48.0974 60.1706C48.1888 60.1948 48.2746 60.2368 48.3498 60.2942C48.425 60.3516 48.4882 60.4232 48.5357 60.505C48.5833 60.5868 48.6142 60.6772 48.6268 60.771H48.6148Z" fill="#263238"/>
<path d="M44.646 59.778L45.21 64.554L47.664 63.618L44.646 59.778Z" fill="#F28F8F"/>
<path d="M42.555 59.061L40.755 59.883C40.6489 59.6381 40.6418 59.3615 40.7352 59.1115C40.8286 58.8614 41.0153 58.6573 41.256 58.542C41.3749 58.4875 41.5037 58.4578 41.6344 58.4545C41.7652 58.4513 41.8952 58.4746 42.0167 58.5232C42.1381 58.5717 42.2485 58.6444 42.341 58.7368C42.4336 58.8293 42.5064 58.9396 42.555 59.061Z" fill="#263238"/>
<path d="M41.976 65.154L44.559 66.03C44.4318 66.3771 44.1753 66.6615 43.8431 66.8237C43.5109 66.9859 43.1289 67.0132 42.777 66.9C42.6076 66.841 42.4518 66.7483 42.3191 66.6276C42.1864 66.5069 42.0794 66.3606 42.0046 66.1976C41.9298 66.0345 41.8887 65.858 41.8838 65.6787C41.8789 65.4994 41.9102 65.3209 41.976 65.154Z" fill="#B16668"/>
<path d="M42.0387 65.757C42.3582 65.7731 42.6614 65.9029 42.8935 66.123C43.1257 66.343 43.2715 66.6388 43.3047 66.957C43.1261 66.9706 42.9465 66.9482 42.7767 66.891C42.5383 66.8089 42.329 66.659 42.1744 66.4597C42.0199 66.2604 41.9269 66.0203 41.9067 65.769C41.9504 65.7618 41.9945 65.7578 42.0387 65.757Z" fill="#F28F8F"/>
<path d="M48.8458 59.268L47.0278 58.47C47.0737 58.3488 47.144 58.2383 47.2341 58.1452C47.3243 58.0521 47.4326 57.9785 47.5523 57.9287C47.6719 57.879 47.8005 57.8543 47.9301 57.856C48.0597 57.8578 48.1876 57.886 48.3058 57.939C48.5486 58.0496 48.7398 58.2489 48.8402 58.4961C48.9407 58.7432 48.9427 59.0194 48.8458 59.268Z" fill="#263238"/>
<path d="M42.7466 70.563C43.9046 70.899 47.2886 75.477 48.3866 77.127L47.1446 80.295C47.8881 81.0638 48.545 81.9119 49.1036 82.824L46.5746 90.189C46.5746 90.189 46.8026 80.376 42.7466 72.909V70.563Z" fill="#263238"/>
<path d="M46.2387 84.573C47.1387 86.91 47.2647 92.328 47.2647 92.328C47.2647 92.328 46.3647 87.273 42.1137 85.503C42.1137 85.26 42.1587 81.798 42.1587 81.798C42.1587 81.798 36.4587 80.352 35.2587 79.809L34.0317 73.209C34.0317 73.209 34.8507 71.163 35.5317 71.109V72.534C37.4088 74.0139 39.2044 75.5942 40.9107 77.268C44.0187 80.265 45.3447 82.236 46.2387 84.573Z" fill="#37474F"/>
<path d="M60.9748 107.871C60.0568 107.1 58.7278 106.032 57.6748 105.771C57.4296 105.7 57.18 105.645 56.9278 105.606C57.2832 105.53 57.633 105.43 57.9748 105.306C58.318 105.169 58.614 104.936 58.8268 104.634C58.9048 104.511 58.9528 104.334 58.8268 104.238C58.7816 104.208 58.728 104.193 58.6738 104.196C57.8968 104.235 57.2758 104.166 56.5738 104.172C56.2547 104.154 55.9347 104.186 55.6258 104.268C55.3438 104.373 55.0618 104.481 54.7858 104.601C53.5348 105.153 52.3858 105.651 50.5378 105.378L49.7638 105.174L36.7498 98.469L34.2808 85.029C34.2808 85.029 33.6808 76.695 30.3058 74.673C28.5058 75.357 26.5348 77.049 26.0008 78.873C25.3708 81.042 25.6168 84.123 26.6908 88.902C27.5908 92.901 28.5298 97.002 29.5468 100.047C30.5638 103.092 30.9538 104.169 32.9518 104.766C36.3028 105.768 48.3928 109.083 48.3928 109.083C48.6404 109.179 48.8928 109.262 49.1488 109.332C49.5658 109.449 49.9558 109.737 50.9488 109.953C52.1278 110.211 53.5618 109.674 54.5488 109.536C55.5358 109.398 57.2698 109.722 58.2268 110.022C59.1838 110.322 60.1768 108.804 60.6538 108.939C61.1308 109.074 61.8958 108.645 60.9748 107.871Z" fill="#FFA8A7"/>
<path d="M56.4419 105.096C55.9581 105.114 55.4833 105.231 55.0469 105.441C55.6744 105.421 56.302 105.477 56.9159 105.609C57.2713 105.533 57.6211 105.433 57.9629 105.309C58.264 105.186 58.5307 104.991 58.7399 104.742C58.1999 105.168 57.1199 105.108 56.4419 105.096Z" fill="#F28F8F"/>
<path d="M30.1408 74.583C27.8098 75.579 26.2648 76.797 25.6408 79.362C25.0168 81.927 25.4578 84.18 25.9828 86.895C26.5078 89.61 27.7378 94.023 27.7378 94.023C27.7378 94.023 32.7268 94.323 35.6038 92.328L34.0288 82.092C34.0288 82.092 33.1978 76.014 30.2998 74.676" fill="#37474F"/>
<path d="M34.1519 50.517C32.3999 52.14 30.7199 54.441 31.9649 59.766C31.5731 60.1465 31.2972 60.6304 31.1693 61.1614C31.0413 61.6923 31.0665 62.2487 31.2419 62.766C31.7219 64.41 33.2999 65.493 34.7669 65.166C36.2339 64.839 37.0289 63.273 36.5489 61.626C36.1859 60.396 34.8659 59.205 33.7799 59.283C33.7799 59.283 32.7389 57.006 33.7139 53.778C35.0459 49.38 40.1729 49.014 42.4289 49.371C41.6729 48.3 36.4679 48.372 34.1519 50.517Z" fill="#459AE9"/>
<path opacity="0.4" d="M34.1519 50.517C32.3999 52.14 30.7199 54.441 31.9649 59.766C31.5731 60.1465 31.2972 60.6304 31.1693 61.1614C31.0413 61.6923 31.0665 62.2487 31.2419 62.766C31.7219 64.41 33.2999 65.493 34.7669 65.166C36.2339 64.839 37.0289 63.273 36.5489 61.626C36.1859 60.396 34.8659 59.205 33.7799 59.283C33.7799 59.283 32.7389 57.006 33.7139 53.778C35.0459 49.38 40.1729 49.014 42.4289 49.371C41.6729 48.3 36.4679 48.372 34.1519 50.517Z" fill="black"/>
<path d="M36.8606 61.569C36.3266 59.745 34.5776 58.548 32.9606 58.89C32.7135 58.9416 32.4758 59.0306 32.2556 59.154C32.0726 59.256 31.5206 59.634 31.4126 59.706C30.3746 60.393 29.9126 61.806 30.3236 63.258C30.8576 65.082 32.6066 66.279 34.2236 65.937C34.5218 65.8743 34.8063 65.7584 35.0636 65.595C35.1956 65.511 35.7116 65.166 35.8376 65.076C36.8306 64.377 37.2776 63 36.8606 61.569Z" fill="#459AE9"/>
<path opacity="0.3" d="M36.8606 61.569C36.3266 59.745 34.5776 58.548 32.9606 58.89C32.7135 58.9416 32.4758 59.0306 32.2556 59.154C32.0726 59.256 31.5206 59.634 31.4126 59.706C30.3746 60.393 29.9126 61.806 30.3236 63.258C30.8576 65.082 32.6066 66.279 34.2236 65.937C34.5218 65.8743 34.8063 65.7584 35.0636 65.595C35.1956 65.511 35.7116 65.166 35.8376 65.076C36.8306 64.377 37.2776 63 36.8606 61.569Z" fill="black"/>
<path d="M36.198 62.013C35.664 60.192 33.915 58.992 32.298 59.337C30.681 59.682 29.79 61.437 30.324 63.258C30.858 65.079 32.607 66.279 34.224 65.937C35.841 65.595 36.732 63.837 36.198 62.013Z" fill="#459AE9"/>
<path opacity="0.1" d="M36.198 62.013C35.664 60.192 33.915 58.992 32.298 59.337C30.681 59.682 29.79 61.437 30.324 63.258C30.858 65.079 32.607 66.279 34.224 65.937C35.841 65.595 36.732 63.837 36.198 62.013Z" fill="black"/>
<path d="M34.647 62.343C34.395 61.482 33.567 60.918 32.802 61.08C32.037 61.242 31.602 62.07 31.869 62.931C32.136 63.792 32.949 64.356 33.714 64.194C34.479 64.032 34.899 63.201 34.647 62.343Z" fill="#37474F"/>
<path opacity="0.1" d="M70.4246 126.852L64.3586 123.3C64.279 123.3 64.2027 123.268 64.1465 123.212C64.0902 123.156 64.0586 123.08 64.0586 123C64.0586 122.92 64.0902 122.844 64.1465 122.788C64.2027 122.732 64.279 122.7 64.3586 122.7L88.1456 108.966C88.3016 108.886 88.4744 108.845 88.6496 108.845C88.8248 108.845 88.9976 108.886 89.1536 108.966L95.2136 112.491C95.2785 112.507 95.336 112.545 95.3772 112.597C95.4183 112.65 95.4407 112.715 95.4407 112.782C95.4407 112.849 95.4183 112.914 95.3772 112.967C95.336 113.019 95.2785 113.057 95.2136 113.073L71.4296 126.855C71.2739 126.934 71.1015 126.975 70.9267 126.975C70.752 126.974 70.5799 126.932 70.4246 126.852Z" fill="black"/>
<path d="M92.5614 106.842L94.1544 87.942C94.1677 87.6651 94.1096 87.3894 93.9856 87.1414C93.8616 86.8934 93.6759 86.6815 93.4464 86.526C93.1929 86.404 92.9142 86.3432 92.6329 86.3484C92.3515 86.3536 92.0753 86.4247 91.8264 86.556L68.0664 100.275C67.8192 100.437 67.6094 100.649 67.4511 100.899C67.2928 101.148 67.1896 101.428 67.1484 101.721L65.5584 120.621C65.5437 120.898 65.6008 121.174 65.7244 121.422C65.8479 121.67 66.0336 121.882 66.2634 122.037C66.5174 122.159 66.7966 122.221 67.0785 122.215C67.3604 122.21 67.6372 122.139 67.8864 122.007L91.6464 108.3C91.895 108.137 92.1055 107.923 92.2634 107.671C92.4214 107.419 92.523 107.137 92.5614 106.842Z" fill="#263238"/>
<path d="M94.1515 87.939L92.5615 106.839L93.7165 88.077C93.7585 87.546 93.5665 87.345 93.1165 87.609L69.6475 101.172C69.403 101.328 69.1977 101.539 69.0475 101.787L67.4785 100.887C67.6289 100.643 67.8344 100.437 68.0785 100.287L91.8355 86.568C92.0855 86.4368 92.3627 86.3659 92.645 86.3607C92.9272 86.3555 93.2068 86.4162 93.4615 86.538C93.6857 86.694 93.8666 86.9044 93.9872 87.1495C94.1079 87.3945 94.1644 87.6661 94.1515 87.939Z" fill="#37474F"/>
<path d="M67.1275 121.527L68.7205 102.627C68.7606 102.335 68.863 102.054 69.0209 101.805C69.1787 101.555 69.3884 101.342 69.6355 101.181L93.1045 87.6C93.5665 87.333 93.7585 87.537 93.7045 88.068L92.5495 106.83C92.5099 107.123 92.4077 107.404 92.2498 107.654C92.0919 107.904 91.8821 108.117 91.6345 108.279L67.8745 121.995C67.4245 122.274 67.0855 122.061 67.1275 121.527Z" fill="#455A64"/>
<path d="M78.8002 110.103L78.6172 115.797L85.2172 112.002L83.6092 107.34L78.8002 110.103Z" fill="#263238"/>
<path d="M79.7635 110.73L84.3715 108.054L83.5855 107.601L78.9805 110.28L79.7635 110.73Z" fill="#455A64"/>
<path d="M86.8914 116.049L84.3714 108.054L79.7634 110.733L78.9834 110.277L79.4994 116.433L79.6284 118.203L79.7034 118.581L79.3674 118.389L77.8674 117.531C77.8349 117.509 77.7976 117.494 77.7585 117.489C77.7194 117.484 77.6797 117.488 77.6424 117.501C77.6063 117.524 77.5774 117.557 77.5588 117.596C77.5403 117.634 77.5329 117.677 77.5374 117.72V117.855C77.5425 117.969 77.5745 118.08 77.6308 118.179C77.6871 118.278 77.7662 118.362 77.8614 118.425L80.3274 119.85C80.4206 119.897 80.523 119.924 80.6274 119.928C80.7516 119.934 80.8749 119.906 80.9844 119.847L86.5974 116.607C86.6951 116.552 86.7749 116.471 86.8271 116.372C86.8793 116.272 86.9016 116.16 86.8914 116.049ZM83.3484 115.365C83.2169 115.456 83.0648 115.513 82.9058 115.531C82.7468 115.549 82.5859 115.527 82.4373 115.468C82.2888 115.408 82.1573 115.313 82.0545 115.19C81.9518 115.068 81.881 114.922 81.8484 114.765C81.7683 114.393 81.8044 114.005 81.952 113.654C82.0995 113.303 82.3514 113.006 82.6734 112.803C82.8046 112.71 82.9568 112.652 83.1163 112.633C83.2757 112.615 83.4373 112.636 83.5864 112.696C83.7354 112.755 83.8672 112.851 83.9697 112.975C84.0723 113.098 84.1423 113.245 84.1734 113.403C84.2541 113.775 84.2181 114.163 84.0705 114.514C83.9229 114.865 83.6708 115.162 83.3484 115.365Z" fill="#37474F"/>
<path d="M77.6484 117.504L79.5624 116.4L79.9494 118.974L77.6484 117.504Z" fill="black"/>
<path d="M79.7635 110.733L78.9805 110.28L79.6285 118.2C79.6705 118.41 79.5505 118.5 79.3705 118.386L77.8705 117.528C77.6875 117.42 77.5405 117.51 77.5405 117.72V117.852C77.5449 117.966 77.576 118.077 77.6312 118.176C77.6864 118.276 77.7643 118.361 77.8585 118.425L80.3305 119.85C80.4233 119.898 80.5259 119.925 80.6305 119.928L79.7635 110.733Z" fill="#263238"/>
<path d="M83.3482 115.365C83.1579 115.497 82.9264 115.556 82.6961 115.531C82.4657 115.507 82.2521 115.4 82.0942 115.23C82.3388 115.256 82.5851 115.199 82.7932 115.068C83.1157 114.866 83.3679 114.57 83.5156 114.219C83.6632 113.868 83.6991 113.481 83.6182 113.109C83.5743 112.932 83.4889 112.769 83.3692 112.632C83.5652 112.664 83.7469 112.755 83.89 112.893C84.033 113.03 84.1308 113.208 84.1702 113.403C84.2512 113.775 84.2157 114.163 84.0686 114.514C83.9216 114.865 83.6701 115.162 83.3482 115.365Z" fill="#263238"/>
<path d="M79.4003 103.335L79.1003 106.98C79.0793 107.22 79.2113 107.331 79.4003 107.226C79.5025 107.155 79.588 107.063 79.6512 106.955C79.7144 106.848 79.7536 106.729 79.7663 106.605L80.0663 102.963C80.0873 102.72 79.9553 102.612 79.7663 102.714C79.6649 102.786 79.5798 102.878 79.5167 102.985C79.4537 103.092 79.414 103.211 79.4003 103.335Z" fill="#459AE9"/>
<path d="M80.5825 102.654L80.2825 106.296C80.2615 106.536 80.3935 106.647 80.5825 106.545C80.6844 106.473 80.7698 106.38 80.8329 106.273C80.896 106.165 80.9354 106.045 80.9485 105.921L81.2485 102.279C81.2695 102.039 81.1375 101.928 80.9485 102.033C80.8468 102.104 80.7615 102.197 80.6984 102.304C80.6353 102.411 80.5957 102.53 80.5825 102.654Z" fill="#459AE9"/>
<path d="M81.7646 101.97L81.4646 105.615C81.4436 105.855 81.5756 105.966 81.7646 105.861C81.8667 105.79 81.9523 105.698 82.0155 105.59C82.0786 105.483 82.1179 105.364 82.1306 105.24L82.4306 101.598C82.4516 101.355 82.3196 101.247 82.1306 101.349C82.0292 101.421 81.9441 101.513 81.881 101.62C81.8179 101.727 81.7782 101.846 81.7646 101.97Z" fill="#459AE9"/>
<path d="M82.9462 101.289L82.6462 104.931C82.6282 105.171 82.7572 105.282 82.9462 105.18C83.0481 105.108 83.1335 105.015 83.1966 104.908C83.2597 104.8 83.2992 104.68 83.3122 104.556L83.6122 100.914C83.6332 100.674 83.5012 100.563 83.3122 100.668C83.2105 100.739 83.1252 100.832 83.0621 100.939C82.999 101.046 82.9595 101.165 82.9462 101.289Z" fill="#459AE9"/>
<path d="M66.8247 65.421C64.9047 63.438 63.7737 55.368 65.6487 53.793H75.1857C77.0607 55.365 75.9327 63.435 74.0127 65.418L73.9587 65.472L73.8927 65.538C73.8375 65.5931 73.7794 65.6451 73.7187 65.694L73.6737 65.73C73.6257 65.769 73.5807 65.805 73.5297 65.841C73.4495 65.8992 73.3664 65.9533 73.2807 66.003C71.6997 66.924 69.1377 66.924 67.5567 66.003C67.4697 65.955 67.3887 65.898 67.3047 65.841C67.2207 65.784 67.2147 65.772 67.1697 65.736C67.1247 65.7 67.1307 65.709 67.1127 65.691C67.0947 65.673 66.9987 65.592 66.9447 65.541L66.8697 65.466L66.8247 65.421Z" fill="#459AE9"/>
<path opacity="0.3" d="M66.8247 65.421C64.9047 63.438 63.7737 55.368 65.6487 53.793H75.1857C77.0607 55.365 75.9327 63.435 74.0127 65.418L73.9587 65.472L73.8927 65.538C73.8375 65.5931 73.7794 65.6451 73.7187 65.694L73.6737 65.73C73.6257 65.769 73.5807 65.805 73.5297 65.841C73.4495 65.8992 73.3664 65.9533 73.2807 66.003C71.6997 66.924 69.1377 66.924 67.5567 66.003C67.4697 65.955 67.3887 65.898 67.3047 65.841C67.2207 65.784 67.2147 65.772 67.1697 65.736C67.1247 65.7 67.1307 65.709 67.1127 65.691C67.0947 65.673 66.9987 65.592 66.9447 65.541L66.8697 65.466L66.8247 65.421Z" fill="black"/>
<path d="M74.3578 53.16C76.5328 54.432 76.5328 56.49 74.3578 57.762C72.1828 59.034 68.6578 59.031 66.4768 57.762C64.2958 56.493 64.3018 54.432 66.4768 53.16C68.6518 51.888 72.1828 51.9 74.3578 53.16Z" fill="#459AE9"/>
<path opacity="0.1" d="M74.3578 53.16C76.5328 54.432 76.5328 56.49 74.3578 57.762C72.1828 59.034 68.6578 59.031 66.4768 57.762C64.2958 56.493 64.3018 54.432 66.4768 53.16C68.6518 51.888 72.1828 51.9 74.3578 53.16Z" fill="black"/>
<path d="M73.3109 53.772C74.9099 54.705 74.9099 56.217 73.3109 57.15C71.7119 58.083 69.1109 58.083 67.5239 57.15C65.9369 56.217 65.9249 54.705 67.5239 53.772C69.1229 52.839 71.7149 52.839 73.3109 53.772Z" fill="#455A64"/>
<path d="M67.5239 55.374C69.1229 54.441 71.7239 54.441 73.3109 55.374C73.7001 55.5893 74.0291 55.8987 74.2679 56.274C74.03 56.65 73.7008 56.9596 73.3109 57.174C71.7149 58.107 69.1109 58.107 67.5239 57.174C67.1346 56.9588 66.8056 56.6494 66.5669 56.274C66.8069 55.8998 67.1357 55.5906 67.5239 55.374Z" fill="#F5F5F5"/>
<path d="M75.7046 39.717L71.8916 42.324L75.4916 40.959C75.4605 41.9243 75.2167 42.8708 74.7776 43.731C74.7776 43.731 72.3956 44.886 71.1026 46.104L74.2736 45.108C74.2362 46.2878 74.064 47.4594 73.7606 48.6C73.4876 49.608 72.5606 51.483 71.9906 52.452C71.7281 52.9006 71.4365 53.3316 71.1176 53.742C71.0996 53.769 71.0786 53.793 71.0576 53.82C70.4576 53.427 69.8576 53.04 69.2216 52.665C68.8526 51.729 68.4506 49.455 68.3756 47.61C68.0996 40.545 73.6826 36.903 78.0386 35.856C77.0371 36.994 76.2468 38.3015 75.7046 39.717Z" fill="#459AE9"/>
<path opacity="0.2" d="M75.7046 39.717L71.8916 42.324L75.4916 40.959C75.4605 41.9243 75.2167 42.8708 74.7776 43.731C74.7776 43.731 72.3956 44.886 71.1026 46.104L74.2736 45.108C74.2362 46.2878 74.064 47.4594 73.7606 48.6C73.4876 49.608 72.5606 51.483 71.9906 52.452C71.7281 52.9006 71.4365 53.3316 71.1176 53.742C71.0996 53.769 71.0786 53.793 71.0576 53.82C70.4576 53.427 69.8576 53.04 69.2216 52.665C68.8526 51.729 68.4506 49.455 68.3756 47.61C68.0996 40.545 73.6826 36.903 78.0386 35.856C77.0371 36.994 76.2468 38.3015 75.7046 39.717Z" fill="black"/>
<path d="M72.6628 39.795C72.2753 40.1439 71.9417 40.5483 71.6728 40.995C71.4053 41.4409 71.1717 41.9062 70.9738 42.387C70.5819 43.3483 70.2952 44.3491 70.1188 45.372C69.7457 47.4169 69.8608 49.5211 70.4548 51.513C70.458 51.5369 70.4527 51.5612 70.4398 51.5816C70.4269 51.6019 70.4072 51.617 70.3841 51.6242C70.3611 51.6314 70.3363 51.6302 70.3141 51.6208C70.2919 51.6115 70.2737 51.5945 70.2628 51.573C69.6936 49.548 69.6114 47.417 70.0228 45.354C70.2131 44.3244 70.5149 43.3185 70.9228 42.354C71.1277 41.8741 71.3695 41.4107 71.6458 40.968C71.9262 40.5298 72.2688 40.1347 72.6628 39.795Z" fill="#FAFAFA"/>
<path d="M58.7998 41.808C60.1135 43.5439 61.3217 45.3572 62.4178 47.238L66.0718 47.943L63.3508 48.333L64.7338 50.679L68.3338 51.54L65.4988 51.912C65.4988 51.912 66.1978 54.69 68.1808 55.899C69.2758 56.568 69.8188 56.682 70.1638 56.373C70.4038 56.157 70.4998 54.837 70.7308 53.673C70.9618 52.509 71.0308 50.586 69.9958 48.237C69.7126 47.6092 69.3408 47.0253 68.8918 46.503C66.3148 43.44 61.3078 41.85 58.7998 41.808Z" fill="#459AE9"/>
<path opacity="0.3" d="M58.7998 41.808C60.1135 43.5439 61.3217 45.3572 62.4178 47.238L66.0718 47.943L63.3508 48.333L64.7338 50.679L68.3338 51.54L65.4988 51.912C65.4988 51.912 66.1978 54.69 68.1808 55.899C69.2758 56.568 69.8188 56.682 70.1638 56.373C70.4038 56.157 70.4998 54.837 70.7308 53.673C70.9618 52.509 71.0308 50.586 69.9958 48.237C69.7126 47.6092 69.3408 47.0253 68.8918 46.503C66.3148 43.44 61.3078 41.85 58.7998 41.808Z" fill="white"/>
<path opacity="0.1" d="M69.2277 49.437C69.6224 50.416 69.875 51.4464 69.9777 52.497C70.0523 53.8241 70.0463 55.1546 69.9597 56.481C70.0356 56.4558 70.1059 56.4161 70.1667 56.364C70.4067 56.148 70.5027 54.828 70.7337 53.664C70.9647 52.5 71.0337 50.577 69.9987 48.228C69.7155 47.6002 69.3437 47.0162 68.8947 46.494C66.3117 43.434 61.3047 41.844 58.8057 41.802C62.6217 42.549 66.6657 45.225 68.6097 48.255C68.8494 48.6304 69.0562 49.0259 69.2277 49.437Z" fill="black"/>
<path d="M62.616 43.128C64.5214 43.9941 66.224 45.2501 67.614 46.815C68.308 47.6037 68.8721 48.4979 69.285 49.464C69.6865 50.43 69.9247 51.4559 69.99 52.5C69.8265 51.4788 69.5331 50.4827 69.117 49.536C68.7021 48.5921 68.1622 47.7082 67.512 46.908C66.8487 46.1127 66.0946 45.3978 65.265 44.778C64.4358 44.1547 63.5534 43.6056 62.628 43.137C62.628 43.137 62.61 43.128 62.616 43.128Z" fill="#FAFAFA"/>
<path d="M81.5997 44.415C81.2919 44.3967 80.9834 44.3967 80.6757 44.415C79.4613 44.4849 78.2602 44.7045 77.0997 45.069C76.6677 45.204 76.2357 45.369 75.8097 45.534C75.5937 45.621 75.3837 45.714 75.1737 45.813C74.1354 46.2848 73.1824 46.9255 72.3537 47.709C71.9687 48.0848 71.6321 48.507 71.3517 48.966L71.2407 49.143C71.1537 49.299 71.0757 49.443 70.9977 49.605C70.2937 50.9281 69.9376 52.4085 69.9627 53.907C69.9417 54.963 70.2327 56.184 70.4277 56.394C70.4539 56.4212 70.4831 56.4453 70.5147 56.466C70.8147 56.676 71.2887 56.589 72.2067 56.139C74.0517 55.239 74.9067 52.746 74.9067 52.746L72.4467 52.185L75.6717 51.726L77.0787 49.776L74.6997 49.2L77.9577 48.9C79.0756 47.3373 80.2857 45.8426 81.5817 44.424L81.5997 44.415Z" fill="#459AE9"/>
<path opacity="0.1" d="M80.6637 44.4C79.4527 44.4757 78.2557 44.7004 77.0997 45.069C76.6677 45.204 76.2357 45.369 75.8097 45.534C75.5937 45.621 75.3837 45.714 75.1737 45.813C74.1354 46.2849 73.1824 46.9255 72.3537 47.709C71.9687 48.0848 71.6321 48.507 71.3517 48.966L71.2407 49.143C71.1537 49.299 71.0757 49.443 70.9977 49.605C70.2937 50.9282 69.9376 52.4085 69.9627 53.907C69.9417 54.963 70.2327 56.184 70.4277 56.394C70.4539 56.4212 70.4831 56.4453 70.5147 56.466C70.5724 56.5066 70.6377 56.5351 70.7067 56.55C70.5777 54.906 71.6067 50.811 72.9177 49.176C74.2827 47.475 77.4177 45.075 81.5967 44.415C81.2863 44.3909 80.9747 44.3859 80.6637 44.4Z" fill="black"/>
<path d="M70.6828 56.553C70.6712 55.3392 70.8174 54.1291 71.1178 52.953C71.4014 51.7684 71.8691 50.6356 72.5038 49.596C72.8412 49.0858 73.2347 48.6148 73.6768 48.192C74.1124 47.7669 74.5809 47.3767 75.0778 47.025C76.0702 46.3185 77.1542 45.7503 78.2998 45.336C77.2069 45.842 76.1685 46.4582 75.2008 47.175C74.7164 47.529 74.2545 47.9127 73.8178 48.324C73.3764 48.7274 72.9819 49.1793 72.6418 49.671C71.9986 50.6905 71.5178 51.8038 71.2168 52.971C70.8942 54.1342 70.7228 55.334 70.7068 56.541L70.6828 56.553Z" fill="#FAFAFA"/>
<path d="M98.7808 81.69H101.826L101.337 84.66C101.318 84.7401 101.281 84.8148 101.229 84.8787C101.177 84.9425 101.111 84.9939 101.037 85.029C100.808 85.1445 100.556 85.2046 100.3 85.2046C100.044 85.2046 99.7921 85.1445 99.5638 85.029C99.4895 84.9936 99.4241 84.9421 99.3722 84.8783C99.3204 84.8144 99.2833 84.7399 99.2638 84.66L98.7808 81.69Z" fill="#FAFAFA"/>
<path d="M115.5 72.732H118.545L118.059 75.702C118.039 75.7813 118.002 75.8551 117.95 75.9184C117.898 75.9816 117.833 76.0327 117.759 76.068C117.531 76.1835 117.278 76.2436 117.023 76.2436C116.767 76.2436 116.514 76.1835 116.286 76.068C116.212 76.033 116.147 75.9821 116.095 75.9188C116.043 75.8555 116.006 75.7814 115.986 75.702L115.5 72.732Z" fill="#FAFAFA"/>
<path d="M76.2241 69.057H79.2691L78.7831 72.027C78.7644 72.1069 78.7276 72.1814 78.6756 72.2448C78.6236 72.3083 78.5578 72.359 78.4831 72.393C78.2552 72.5099 78.0028 72.5708 77.7466 72.5708C77.4905 72.5708 77.238 72.5099 77.0101 72.393C76.9355 72.359 76.8696 72.3083 76.8176 72.2448C76.7656 72.1814 76.7288 72.1069 76.7101 72.027L76.2241 69.057Z" fill="#FAFAFA"/>
<path d="M91.7129 60.048H94.7579L94.2719 63.018C94.2527 63.0977 94.2158 63.172 94.1639 63.2354C94.1119 63.2988 94.0463 63.3496 93.9719 63.384C93.7436 63.4994 93.4913 63.5596 93.2354 63.5596C92.9795 63.5596 92.7272 63.4994 92.4989 63.384C92.4245 63.3496 92.3589 63.2988 92.3069 63.2354C92.255 63.172 92.218 63.0977 92.1989 63.018L91.7129 60.048Z" fill="#FAFAFA"/>
<path d="M73.7998 53.448V67.632C73.8264 68.1453 73.9733 68.6452 74.2287 69.0912C74.484 69.5373 74.8407 69.9171 75.2698 70.2L76.4698 70.896H76.4908C77.0631 71.1749 77.7033 71.2842 78.3358 71.211L96.4108 80.775C96.4546 81.2671 96.6084 81.7431 96.8607 82.1678C97.1131 82.5925 97.4576 82.9552 97.8688 83.229H97.8838L99.0838 83.919C99.1188 83.9424 99.156 83.9625 99.1948 83.979L99.2578 84.009H99.2758C100.003 84.3121 100.813 84.3493 101.565 84.114C101.653 84.0879 101.739 84.0569 101.823 84.021C101.835 84.0138 101.848 84.0077 101.862 84.003C101.922 83.9772 101.98 83.9472 102.036 83.913L119.436 73.899C119.865 73.6181 120.222 73.2406 120.478 72.7966C120.734 72.3527 120.883 71.8548 120.912 71.343L120.936 53.388V46.575C120.906 46.0631 120.756 45.5653 120.5 45.1211C120.244 44.6769 119.888 44.2985 119.46 44.016L100.008 32.808C99.5647 32.5834 99.0735 32.4703 98.5769 32.4787C98.0802 32.4871 97.593 32.6166 97.1578 32.856L95.9578 33.549C95.5184 33.8376 95.1415 34.2115 94.8493 34.6485C94.5571 35.0855 94.3556 35.5767 94.2568 36.093L93.0988 43.692L92.0278 43.074C91.5397 42.7911 90.9855 42.6421 90.4213 42.6421C89.8571 42.6421 89.3029 42.7911 88.8148 43.074L75.2698 50.892C74.8422 51.1737 74.4866 51.5516 74.2313 51.9954C73.976 52.4393 73.8283 52.9368 73.7998 53.448Z" fill="#37474F"/>
<path d="M95.9549 33.549L97.1549 32.856C97.5901 32.6166 98.0773 32.4871 98.5739 32.4787C99.0706 32.4703 99.5618 32.5834 100.005 32.808L119.454 44.016C119.541 44.067 119.634 44.133 119.607 44.112C120.318 44.6482 120.788 45.4442 120.915 46.326C120.807 45.57 120.192 45.297 119.457 45.726L118.257 46.422C117.8 46.6542 117.294 46.7751 116.781 46.7751C116.268 46.7751 115.762 46.6542 115.305 46.422L95.9579 35.262C95.1389 34.8 95.1389 34.02 95.9549 33.549Z" fill="#455A64"/>
<path d="M73.7998 53.448V67.632C73.8264 68.1453 73.9733 68.6452 74.2287 69.0913C74.484 69.5373 74.8407 69.9171 75.2698 70.2L76.4698 70.896H76.4908C77.0253 71.1665 77.6255 71.2799 78.2218 71.223C78.6415 71.1976 79.0508 71.0819 79.4218 70.884L93.0958 63C93.5249 62.7187 93.882 62.3406 94.1383 61.8961C94.3947 61.4517 94.5431 60.9533 94.5718 60.441V46.251C94.5436 45.7386 94.3953 45.24 94.1389 44.7955C93.8825 44.351 93.5252 43.973 93.0958 43.692L92.0248 43.074C91.5367 42.7911 90.9825 42.6422 90.4183 42.6422C89.8541 42.6422 89.2999 42.7911 88.8118 43.074L75.2698 50.892C74.8422 51.1737 74.4866 51.5516 74.2313 51.9955C73.976 52.4393 73.8283 52.9368 73.7998 53.448Z" fill="#263238"/>
<path d="M92.0219 43.074L93.0959 43.692C93.9089 44.16 93.9089 44.928 93.0959 45.396L79.4279 53.289C78.9981 53.5698 78.6404 53.9477 78.3835 54.3922C78.1265 54.8367 77.9777 55.3354 77.9489 55.848V70.029C77.9489 70.968 77.2829 71.352 76.4699 70.884L75.2699 70.188C74.8413 69.907 74.4844 69.5294 74.2281 69.0855C73.9718 68.6416 73.8231 68.1438 73.7939 67.632V53.448C73.8242 52.9361 73.9734 52.4383 74.2296 51.9941C74.4858 51.5499 74.842 51.1715 75.2699 50.889L88.8119 43.089C89.2982 42.8038 89.8512 42.6522 90.4149 42.6496C90.9786 42.6469 91.533 42.7934 92.0219 43.074Z" fill="#455A64"/>
<path d="M77.9489 55.848V70.029C77.9489 70.968 77.2829 71.352 76.4699 70.884L75.2699 70.188C74.8413 69.907 74.4844 69.5293 74.2281 69.0854C73.9718 68.6416 73.8231 68.1437 73.7939 67.632V53.448C73.8131 52.9339 73.9628 52.4332 74.2289 51.993L78.3839 54.393C78.1174 54.833 77.9677 55.3339 77.9489 55.848Z" fill="#37474F"/>
<path d="M78.564 71.223C78.7054 71.5168 78.8872 71.7894 79.104 72.033C79.5209 72.4183 79.9882 72.7453 80.493 73.005C85.686 76.005 89.433 78.159 94.626 81.159C94.8549 81.2745 95.1077 81.3347 95.364 81.3347C95.6204 81.3347 95.8731 81.2745 96.102 81.159L100.902 78.384L110.502 72.84C110.948 72.604 111.321 72.2509 111.581 71.8188C111.841 71.3867 111.979 70.8919 111.979 70.3875C111.979 69.8831 111.841 69.3882 111.581 68.9561C111.321 68.524 110.948 68.171 110.502 67.935L105.06 64.8L100.905 62.4L96.39 59.802C95.9322 59.5693 95.426 59.4481 94.9125 59.4481C94.399 59.4481 93.8928 59.5693 93.435 59.802L79.77 67.686C79.3484 67.9498 78.9948 68.3091 78.7379 68.7349C78.4809 69.1607 78.3279 69.641 78.291 70.137C78.3026 70.5144 78.3957 70.8849 78.564 71.223Z" fill="#263238"/>
<path d="M94.6261 77.961L79.0261 68.961C78.6211 68.727 78.2881 68.919 78.2881 69.39V70.89C78.303 71.1458 78.3775 71.3946 78.5056 71.6165C78.6338 71.8384 78.812 72.0272 79.0261 72.168L94.6261 81.168C95.0341 81.402 95.3641 81.21 95.3641 80.742V79.242C95.3511 78.9854 95.2774 78.7355 95.1491 78.5128C95.0208 78.2901 94.8416 78.101 94.6261 77.961Z" fill="#37474F"/>
<path d="M96.39 52.479L110.511 60.621C110.941 60.9014 111.299 61.2793 111.555 61.724C111.812 62.1686 111.96 62.6674 111.987 63.18V66.18C111.959 66.6919 111.81 67.19 111.554 67.634C111.297 68.078 110.94 68.4555 110.511 68.736L96.84 76.617C96.3826 76.8492 95.8769 76.9702 95.364 76.9702C94.8511 76.9702 94.3454 76.8492 93.888 76.617L79.767 68.472C79.3378 68.1915 78.9806 67.814 78.7242 67.37C78.4678 66.926 78.3194 66.4279 78.291 65.916V62.916C78.3192 62.4036 78.4675 61.905 78.7239 61.4605C78.9803 61.016 79.3376 60.638 79.767 60.357L93.438 52.467C93.8963 52.2367 94.4025 52.1178 94.9155 52.1198C95.4284 52.1219 95.9336 52.245 96.39 52.479Z" fill="#37474F"/>
<path d="M95.3638 70.569V76.971C95.8782 76.9806 96.3865 76.8576 96.8398 76.614L110.511 68.724C110.94 68.4435 111.297 68.066 111.554 67.622C111.81 67.178 111.958 66.6799 111.987 66.168V63.168C111.96 62.6854 111.827 62.2147 111.598 61.7891C111.369 61.3635 111.049 60.9934 110.661 60.705C111.321 61.179 111.261 61.875 110.511 62.316L96.8398 70.206C96.3871 70.4517 95.8788 70.5767 95.3638 70.569Z" fill="#263238"/>
<path d="M93.9002 70.218L79.7792 62.073C78.9662 61.602 78.9662 60.84 79.7792 60.369L93.4502 52.479C93.9076 52.2468 94.4133 52.1259 94.9262 52.1259C95.4391 52.1259 95.9448 52.2468 96.4022 52.479L110.523 60.621C111.339 61.092 111.339 61.857 110.523 62.328L96.8522 70.218C96.3948 70.4502 95.8891 70.5712 95.3762 70.5712C94.8633 70.5712 94.3576 70.4502 93.9002 70.218Z" fill="#455A64"/>
<path d="M83.8047 70.995C83.8047 70.995 84.9447 74.643 84.9027 76.041C84.8547 77.499 85.1667 78.009 84.7857 79.566C84.7047 79.905 84.4647 80.577 84.3987 80.853C84.378 80.9103 84.3704 80.9715 84.3763 81.0321C84.3822 81.0927 84.4014 81.1513 84.4327 81.2035C84.464 81.2558 84.5066 81.3005 84.5572 81.3343C84.6079 81.3681 84.6654 81.3902 84.7257 81.399C85.3437 81.582 86.4897 80.499 87.0957 79.242C87.7286 77.8007 88.2726 76.3219 88.7247 74.814C88.7781 74.466 88.7388 74.11 88.6107 73.782C88.5475 73.5902 88.4651 73.4053 88.3647 73.23C88.2087 72.582 88.2117 71.373 88.1067 70.53L83.8047 70.995Z" fill="#E2B3B5"/>
<path d="M89.8439 76.239C89.9143 76.3935 89.9579 76.5589 89.9729 76.728C89.9729 77.028 89.2289 77.928 88.9439 78.243C88.5467 78.6832 88.3321 79.2582 88.3439 79.851C88.2567 80.7979 87.8368 81.6832 87.1589 82.35C86.2535 83.2738 85.0893 83.9015 83.8199 84.15C82.2539 84.492 81.7799 83.682 81.7799 83.682C81.7799 83.682 81.3659 82.905 81.6779 82.626C81.9899 82.347 89.8439 76.239 89.8439 76.239Z" fill="#263238"/>
<path d="M88.3649 73.23C88.4129 73.23 88.4939 73.23 88.6019 73.383C88.6439 73.44 88.8629 74.151 89.0639 74.532C89.2649 74.913 89.8139 75.648 89.8439 76.239C89.3939 77.34 88.2659 78.039 88.0169 79.095C87.7679 80.151 87.6419 81.39 85.8899 82.56C84.1379 83.73 82.4369 83.724 81.8579 83.325C81.2789 82.926 81.3899 82.281 82.3409 81.114C83.3489 79.875 84.1949 77.076 84.1949 77.076C84.3072 76.6819 84.3944 76.2811 84.4559 75.876C84.4855 75.4765 84.4855 75.0754 84.4559 74.676C84.4398 74.4885 84.4828 74.3007 84.5789 74.139C84.7065 74.001 84.8728 73.9049 85.0559 73.863C85.337 73.7597 85.6289 73.6882 85.9259 73.65C86.2246 73.6108 86.5279 73.6731 86.7869 73.827C86.9513 73.9665 87.1225 74.0976 87.2999 74.22C87.43 74.2847 87.5754 74.3119 87.7201 74.2987C87.8647 74.2854 88.0028 74.2322 88.1189 74.145C88.2346 74.0681 88.3237 73.9574 88.3742 73.8281C88.4247 73.6987 88.434 73.5569 88.4009 73.422C88.3925 73.3574 88.3805 73.2933 88.3649 73.23Z" fill="#455A64"/>
<path d="M86.9399 81.6C86.7338 81.1662 86.413 80.7972 86.0121 80.5328C85.6113 80.2684 85.1457 80.1187 84.6659 80.1C82.9199 79.962 82.2419 80.799 81.9329 81.3C81.5639 81.9 81.1409 82.995 81.8339 83.379C82.5809 83.793 83.4899 83.763 84.9689 83.172C86.4479 82.581 86.9399 81.6 86.9399 81.6Z" fill="#FAFAFA"/>
<path d="M87.0629 76.311C87.037 76.3205 87.0093 76.3241 86.9817 76.3215C86.9542 76.3189 86.9277 76.3102 86.9039 76.296C86.6459 76.137 85.2449 75.717 84.3509 76.419C84.2489 76.323 84.2849 76.167 84.4409 75.957C85.4669 75.42 86.7929 75.81 87.1049 76.005C87.124 76.0172 87.1404 76.033 87.1531 76.0516C87.1659 76.0702 87.1748 76.0912 87.1793 76.1133C87.1838 76.1355 87.1837 76.1583 87.1792 76.1804C87.1747 76.2025 87.1658 76.2234 87.1529 76.242C87.131 76.274 87.0995 76.2981 87.0629 76.311Z" fill="#FAFAFA"/>
<path d="M84.0837 77.421C84.0691 77.3367 84.0745 77.2502 84.0995 77.1684C84.1246 77.0865 84.1684 77.0117 84.2277 76.95C84.6358 76.7986 85.07 76.7304 85.5049 76.7495C85.9398 76.7685 86.3664 76.8745 86.7597 77.061C86.7787 77.0731 86.7951 77.089 86.8079 77.1076C86.8206 77.1262 86.8295 77.1472 86.834 77.1693C86.8385 77.1914 86.8385 77.2142 86.8339 77.2363C86.8294 77.2585 86.8205 77.2794 86.8077 77.298C86.7814 77.3368 86.7412 77.364 86.6954 77.3741C86.6497 77.3841 86.6018 77.3762 86.5617 77.352C86.3097 77.199 84.9807 76.8 84.0837 77.421Z" fill="#FAFAFA"/>
<path d="M83.1748 79.719C83.1937 79.4885 83.2912 79.2714 83.4508 79.104C84.4678 78.603 85.7638 78.984 86.0728 79.173C86.0919 79.1854 86.1084 79.2016 86.1212 79.2204C86.134 79.2393 86.1429 79.2606 86.1474 79.2829C86.1518 79.3053 86.1518 79.3283 86.1472 79.3507C86.1427 79.373 86.1337 79.3942 86.1208 79.413C86.0979 79.4441 86.0667 79.468 86.0308 79.482C86.0048 79.4915 85.9771 79.4951 85.9496 79.4925C85.9221 79.4899 85.8955 79.4812 85.8718 79.467C85.6018 79.299 84.0568 78.843 83.1748 79.719Z" fill="#FAFAFA"/>
<path d="M86.3758 78.423C86.3512 78.4356 86.324 78.4422 86.2963 78.4422C86.2687 78.4422 86.2414 78.4356 86.2168 78.423C85.9618 78.264 84.5908 77.856 83.6938 78.522C83.6839 78.4291 83.6958 78.3351 83.7286 78.2476C83.7614 78.1601 83.8142 78.0815 83.8828 78.018C84.2909 77.8666 84.7252 77.7984 85.16 77.8175C85.5949 77.8365 86.0215 77.9425 86.4148 78.129C86.4394 78.1475 86.4586 78.1722 86.4705 78.2005C86.4824 78.2289 86.4865 78.2599 86.4826 78.2903C86.4786 78.3208 86.4667 78.3497 86.4479 78.3741C86.4291 78.3984 86.4043 78.4174 86.3758 78.429V78.423Z" fill="#FAFAFA"/>
<path d="M81.8998 75.195C81.8998 75.195 80.8228 79.44 79.8898 81.042C78.9568 82.644 78.4798 83.418 77.2798 84.588C77.0188 84.843 76.4338 85.308 76.2208 85.515C76.1717 85.5555 76.1322 85.6064 76.1051 85.664C76.078 85.7215 76.064 85.7844 76.064 85.848C76.064 85.9116 76.078 85.9745 76.1051 86.032C76.1322 86.0896 76.1717 86.1405 76.2208 86.181C76.6678 86.688 78.7198 86.97 79.9468 86.202C81.1738 85.434 82.3828 83.679 83.1298 83.04C83.4118 82.8 83.6758 82.554 83.9338 82.29C84.1918 82.026 84.1408 81.768 84.1858 81.465C84.2068 81.315 84.2188 80.91 84.2188 80.91C84.4378 80.199 84.9628 79.11 85.2478 78.411L81.8998 75.195Z" fill="#E2B3B5"/>
<path d="M84.3299 84.195C84.3267 84.3734 84.2932 84.5499 84.2309 84.717C84.0929 84.987 82.9979 85.509 82.5809 85.689C82.0112 85.9293 81.5536 86.3762 81.2999 86.94C80.7945 87.7967 80.0014 88.4463 79.0619 88.773C77.7926 89.2465 76.4091 89.3219 75.0959 88.989C73.4609 88.611 73.3769 87.633 73.3769 87.633C73.3769 87.633 73.3319 86.715 73.7519 86.589C74.1719 86.463 84.3299 84.195 84.3299 84.195Z" fill="#263238"/>
<path d="M84.2728 80.7C84.3178 80.724 84.3988 80.757 84.4318 80.949C84.4318 81.024 84.3358 81.795 84.3568 82.242C84.3778 82.689 84.5668 83.634 84.3298 84.207C83.4118 85.05 82.0318 85.206 81.3298 86.094C80.6278 86.982 79.9528 88.101 77.7688 88.425C75.5848 88.749 73.9828 87.981 73.6138 87.348C73.2448 86.715 73.6348 86.148 75.0568 85.47C76.5568 84.747 78.6148 82.47 78.6178 82.47C78.8994 82.1482 79.16 81.8085 79.3978 81.453C79.6031 81.0837 79.7805 80.6997 79.9288 80.304C79.9965 80.1197 80.1203 79.9613 80.2828 79.851C80.4656 79.7774 80.6667 79.7617 80.8588 79.806C81.1705 79.8337 81.4783 79.895 81.7768 79.989C82.0767 80.0871 82.3353 80.2824 82.5118 80.544C82.6288 80.736 82.6858 80.964 82.8118 81.144C82.9059 81.264 83.0314 81.3555 83.1744 81.4085C83.3174 81.4615 83.4722 81.4737 83.6218 81.444C83.7678 81.426 83.9044 81.3623 84.0121 81.2621C84.1198 81.162 84.1932 81.0303 84.2218 80.886C84.2423 80.825 84.2594 80.7629 84.2728 80.7Z" fill="#455A64"/>
<path d="M79.1999 87.966C79.1972 87.4649 79.0573 86.9741 78.7956 86.5468C78.5338 86.1195 78.1601 85.772 77.7149 85.542C76.1249 84.627 75.1109 85.116 74.5949 85.452C73.9799 85.851 73.0949 86.7 73.5719 87.375C74.0939 88.101 74.9699 88.476 76.6319 88.575C78.2939 88.674 79.1999 87.966 79.1999 87.966Z" fill="#FAFAFA"/>
<path d="M81.6659 83.022C81.6371 83.0197 81.6092 83.011 81.5843 82.9964C81.5594 82.9819 81.538 82.9619 81.5219 82.938C81.3509 82.671 80.2109 81.648 79.0499 81.912C78.9989 81.777 79.1009 81.645 79.3499 81.516C80.5499 81.468 81.6389 82.416 81.8489 82.749C81.8617 82.769 81.8702 82.7915 81.874 82.815C81.8777 82.8385 81.8766 82.8626 81.8707 82.8856C81.8648 82.9087 81.8542 82.9303 81.8396 82.9491C81.825 82.9679 81.8067 82.9835 81.7859 82.995C81.7498 83.0167 81.7078 83.0262 81.6659 83.022Z" fill="#FAFAFA"/>
<path d="M78.354 82.74C78.3769 82.654 78.4198 82.5747 78.4793 82.5085C78.5387 82.4423 78.613 82.391 78.696 82.359C79.15 82.3988 79.5915 82.5285 79.9948 82.7407C80.3981 82.9529 80.7551 83.2433 81.045 83.595C81.0578 83.6151 81.0663 83.6376 81.0701 83.6611C81.0738 83.6846 81.0727 83.7086 81.0668 83.7317C81.0609 83.7547 81.0503 83.7763 81.0357 83.7951C81.0212 83.8139 81.0029 83.8296 80.982 83.841C80.9399 83.8663 80.8896 83.8745 80.8416 83.8639C80.7936 83.8533 80.7515 83.8247 80.724 83.784C80.559 83.526 79.476 82.557 78.354 82.74Z" fill="#FAFAFA"/>
<path d="M76.4639 84.51C76.5856 84.3005 76.775 84.1386 77.0009 84.051C78.2009 84.033 79.2449 84.972 79.4489 85.29C79.4618 85.3099 79.4705 85.3322 79.4745 85.3556C79.4784 85.3789 79.4776 85.4029 79.472 85.4259C79.4663 85.449 79.4561 85.4706 79.4418 85.4895C79.4275 85.5085 79.4095 85.5243 79.3889 85.536C79.3543 85.5556 79.3144 85.564 79.2749 85.56C79.2459 85.5584 79.2178 85.5499 79.1927 85.5353C79.1677 85.5207 79.1465 85.5004 79.1309 85.476C78.9479 85.2 77.6999 84.072 76.4639 84.51Z" fill="#FAFAFA"/>
<path d="M80.0731 84.714C80.0441 84.7127 80.0159 84.7043 79.9908 84.6897C79.9657 84.6751 79.9445 84.6546 79.9291 84.63C79.7581 84.366 78.6421 83.367 77.4961 83.598C77.5289 83.5063 77.5821 83.4233 77.6518 83.3552C77.7214 83.2871 77.8057 83.2357 77.8981 83.205C78.3519 83.2454 78.7932 83.3755 79.1964 83.5876C79.5997 83.7998 79.9568 84.0899 80.2471 84.441C80.2601 84.4611 80.2688 84.4837 80.2728 84.5073C80.2768 84.5309 80.276 84.5551 80.2704 84.5784C80.2648 84.6016 80.2545 84.6235 80.2402 84.6427C80.2259 84.6619 80.2078 84.678 80.1871 84.69C80.1525 84.7096 80.1127 84.718 80.0731 84.714Z" fill="#FAFAFA"/>
<path d="M93.4497 51.492C91.5747 52.635 85.1307 55.665 82.4427 57.765C81.6657 58.365 81.3537 59.229 81.3687 61.158C81.3897 63.777 82.6857 72.801 82.6857 72.801C82.9257 73.326 83.4987 72.417 83.4987 72.417L94.2777 60.879L93.4497 51.492Z" fill="#459AE9"/>
<path opacity="0.3" d="M93.4497 51.492C91.5747 52.635 85.1307 55.665 82.4427 57.765C81.6657 58.365 81.3537 59.229 81.3687 61.158C81.3897 63.777 82.6857 72.801 82.6857 72.801C82.9257 73.326 83.4987 72.417 83.4987 72.417L94.2777 60.879L93.4497 51.492Z" fill="black"/>
<path opacity="0.3" d="M83.3399 70.08C85.7399 68.388 93.9989 57.519 93.9989 57.519C93.0779 56.598 92.7989 53.652 92.7989 53.652C92.3129 54.738 92.5829 56.463 92.8379 57.105C92.2229 57.552 88.7609 59.943 86.3609 61.533C85.6328 61.948 85.0948 62.6302 84.8609 63.435C84.1979 65.829 83.3309 69.582 83.3399 70.08Z" fill="black"/>
<path d="M93.4497 51.492L105.75 55.323C104.946 57.573 104.67 58.746 103.929 59.904C103.188 61.062 102.366 62.304 98.9727 63.63C95.7027 64.911 91.7337 66.18 90.9357 66.48C90.3357 66.705 89.9637 67.839 89.5737 69.315C89.1687 70.863 89.0397 72.093 87.2067 75.258C85.4067 78.36 85.0437 79.032 85.0437 79.032C85.0437 79.032 82.6677 79.077 81.2188 77.571C81.2188 77.571 84.2847 66.678 84.9087 64.722C85.2567 63.63 85.3107 63.045 86.7957 61.938C88.0707 60.987 93.6957 57.438 93.6957 57.438C93.6957 57.438 91.8357 54.426 93.4497 51.492Z" fill="#459AE9"/>
<path opacity="0.3" d="M93.4497 51.492L105.75 55.323C104.946 57.573 104.67 58.746 103.929 59.904C103.188 61.062 102.366 62.304 98.9727 63.63C95.7027 64.911 91.7337 66.18 90.9357 66.48C90.3357 66.705 89.9637 67.839 89.5737 69.315C89.1687 70.863 89.0397 72.093 87.2067 75.258C85.4067 78.36 85.0437 79.032 85.0437 79.032C85.0437 79.032 82.6677 79.077 81.2188 77.571C81.2188 77.571 84.2847 66.678 84.9087 64.722C85.2567 63.63 85.3107 63.045 86.7957 61.938C88.0707 60.987 93.6957 57.438 93.6957 57.438C93.6957 57.438 91.8357 54.426 93.4497 51.492Z" fill="black"/>
<path d="M94.0888 34.5C93.8518 34.359 93.7468 32.778 93.9988 31.65C94.2508 30.522 93.7288 30.246 93.4708 30.6C93.3222 30.7957 93.2141 31.019 93.1528 31.257C92.6013 31.3811 92.0935 31.6516 91.6828 32.04C91.0498 32.667 90.3058 33.432 90.5248 35.103C90.5941 35.6592 90.5554 36.2235 90.4108 36.765C89.5108 39.219 86.3128 42.291 85.5928 45.564C84.9268 48.564 87.2758 48.864 89.3278 47.964C91.6858 46.905 96.2038 42.894 96.2038 42.894L98.1628 36.321C96.9178 36.321 95.9908 36.522 94.3378 38.121C94.0618 38.388 92.9128 39.369 92.9128 39.369C93.2301 38.5651 93.624 37.7936 94.0888 37.065" fill="#E2B3B5"/>
<path d="M91.2449 43.683C90.9088 44.4414 90.5073 45.1692 90.0449 45.858C90.7168 45.4144 91.2501 44.7906 91.5839 44.058L91.2449 43.683Z" fill="#C38688"/>
<path d="M98.4331 36.318C97.0831 36.192 95.9911 36.402 94.9321 37.425C93.9571 38.37 92.9131 39.366 92.9131 39.366C92.2141 40.992 91.7131 42.57 91.2451 43.683C91.4764 44.5558 91.9055 45.3637 92.4991 46.044L97.9711 41.649L98.4331 36.318Z" fill="#FAFAFA"/>
<path d="M93.3749 36.321C93.7529 35.721 93.1979 35.139 93.1979 35.139L94.0979 34.539V34.5L90.4979 34.338C90.4859 34.5955 90.4969 34.8535 90.5309 35.109C90.5579 35.3681 90.5669 35.6287 90.5579 35.889L91.0259 36.168C91.0774 36.1961 91.1352 36.2108 91.1939 36.2108C91.2526 36.2108 91.3103 36.1961 91.3619 36.168L92.8769 35.385C93.3959 35.604 93.3749 36.321 93.3749 36.321Z" fill="#C38688"/>
<path d="M90.4711 31.308L96.7711 28.335C96.8248 28.3036 96.8859 28.2871 96.9481 28.2871C97.0103 28.2871 97.0713 28.3036 97.1251 28.335C97.2031 28.386 97.5271 28.587 97.6171 28.635C97.6678 28.6664 97.7093 28.7107 97.7372 28.7634C97.7652 28.8162 97.7786 28.8754 97.7761 28.935L97.9801 32.196C97.9806 32.3432 97.9406 32.4878 97.8644 32.6137C97.7882 32.7397 97.6787 32.8422 97.5481 32.91L91.2481 35.883C91.1964 35.9089 91.1394 35.9223 91.0816 35.9223C91.0238 35.9223 90.9667 35.9089 90.9151 35.883C90.8251 35.832 90.4741 35.616 90.3811 35.556C90.3387 35.5234 90.3043 35.4816 90.2804 35.4338C90.2565 35.386 90.2437 35.3334 90.2431 35.28C90.1921 34.461 90.0901 32.838 90.0391 32.019C90.0387 31.8722 90.0789 31.7282 90.1551 31.6028C90.2313 31.4773 90.3406 31.3753 90.4711 31.308Z" fill="#37474F"/>
<path d="M97.545 32.271C97.5413 32.3437 97.5196 32.4144 97.4819 32.4767C97.4442 32.5389 97.3917 32.5909 97.329 32.628L91.368 35.445V35.589L91.125 32.118C91.1283 32.0463 91.1496 31.9767 91.1868 31.9154C91.224 31.854 91.276 31.803 91.338 31.767L97.434 28.878L97.302 28.941L97.545 32.271Z" fill="#459AE9"/>
<path opacity="0.75" d="M97.545 32.271C97.5413 32.3437 97.5196 32.4144 97.4819 32.4767C97.4442 32.5389 97.3917 32.5909 97.329 32.628L91.368 35.445V35.589L91.125 32.118C91.1283 32.0463 91.1496 31.9767 91.1868 31.9154C91.224 31.854 91.276 31.803 91.338 31.767L97.434 28.878L97.302 28.941L97.545 32.271Z" fill="white"/>
<path d="M97.692 32.352C97.6875 32.4241 97.6655 32.4941 97.6278 32.5558C97.5902 32.6174 97.5381 32.669 97.476 32.706L91.377 35.589V35.445L97.338 32.628C97.4006 32.5909 97.4532 32.5389 97.4908 32.4766C97.5285 32.4144 97.5502 32.3437 97.554 32.271L97.32 28.944L97.452 28.881L97.692 32.352Z" fill="#263238"/>
<path d="M90.9331 35.895H90.9151C90.8251 35.844 90.4741 35.628 90.3811 35.568C90.3388 35.5354 90.3043 35.4936 90.2804 35.4458C90.2565 35.398 90.2438 35.3454 90.2431 35.292C90.1921 34.473 90.0901 32.85 90.0391 32.031C90.0371 31.8254 90.1157 31.6273 90.2581 31.479L90.7711 31.779C90.6266 31.9274 90.5468 32.1269 90.5491 32.334L90.7531 35.598C90.7529 35.6593 90.7696 35.7194 90.8013 35.7718C90.8331 35.8242 90.8787 35.8669 90.9331 35.895Z" fill="#263238"/>
<path d="M97.6201 28.635C97.5695 28.6108 97.5142 28.5982 97.4581 28.5982C97.402 28.5982 97.3467 28.6108 97.2961 28.635L90.9961 31.611C90.9155 31.6484 90.8431 31.7014 90.7831 31.767L90.2671 31.467C90.3286 31.4002 90.4018 31.3453 90.4831 31.305L96.7831 28.332C96.8368 28.3023 96.8972 28.2867 96.9586 28.2867C97.02 28.2867 97.0804 28.3023 97.1341 28.332C97.2001 28.386 97.5001 28.572 97.6201 28.635Z" fill="#455A64"/>
<path opacity="0.35" d="M90.9841 33.69C90.9459 33.7106 90.9141 33.7414 90.8924 33.779C90.8706 33.8166 90.8598 33.8596 90.8611 33.903C90.8598 33.92 90.8633 33.937 90.8712 33.952C90.8792 33.9671 90.8912 33.9796 90.906 33.9881C90.9208 33.9965 90.9376 34.0007 90.9547 33.9999C90.9717 33.9992 90.9881 33.9937 91.0021 33.984C91.0399 33.9629 91.0713 33.9319 91.093 33.8944C91.1146 33.8569 91.1257 33.8143 91.1251 33.771C91.1264 33.754 91.1229 33.737 91.115 33.7219C91.107 33.7069 91.095 33.6944 91.0802 33.6859C91.0655 33.6774 91.0486 33.6733 91.0316 33.674C91.0146 33.6748 90.9981 33.6803 90.9841 33.69Z" fill="black"/>
<path d="M94.2 34.5C94.389 34.344 94.458 33.855 94.779 33.414C95.151 32.907 96.009 33.039 95.742 33.45C95.475 33.861 95.382 34.233 95.187 35.28C94.992 36.327 94.572 36.48 94.104 37.08V34.557L94.2 34.5Z" fill="#E2B3B5"/>
<path d="M102.873 36.819C103.908 37.092 107.253 38.412 107.253 38.412C107.973 38.976 107.67 40.212 107.658 41.631C107.379 51.921 105.597 56.505 105.597 56.505C101.571 57.387 94.2181 54.828 92.8501 51.756C94.0801 49.887 94.9081 47.094 95.0821 41.61C95.2111 37.539 97.0621 36.309 98.2621 36.318C99.8134 36.3033 101.361 36.4715 102.873 36.819Z" fill="#EBEBEB"/>
<path d="M97.7429 28.353C97.8028 28.1167 97.8028 27.8693 97.7429 27.633C97.6709 27.378 97.5749 27.132 97.5119 26.877C97.4309 26.532 97.3379 26.187 97.2359 25.848C97.05 25.38 96.9367 24.8863 96.8999 24.384C96.896 24.2644 96.9161 24.1452 96.9588 24.0334C97.0016 23.9216 97.0662 23.8195 97.1489 23.733C97.2697 23.6348 97.4139 23.5697 97.5675 23.5439C97.721 23.5181 97.8786 23.5326 98.0249 23.586C98.3158 23.6973 98.5848 23.8587 98.8199 24.063C98.8019 23.6942 98.9075 23.33 99.1199 23.028C99.2295 22.8807 99.379 22.768 99.5508 22.7031C99.7225 22.6382 99.9093 22.624 100.089 22.662C100.425 22.755 100.656 23.058 100.926 23.28C101.418 23.685 102.066 23.829 102.684 23.988C103.328 24.1038 103.938 24.3632 104.469 24.747C104.787 24.9994 105.046 25.318 105.228 25.6806C105.411 26.0433 105.512 26.4413 105.525 26.847C105.525 27.147 105.399 27.888 105.351 28.284C105.276 28.884 105.213 29.484 105.117 30.063C104.625 33.063 103.644 35.241 100.617 35.019C99.4649 34.932 97.8569 34.218 97.5569 32.964C97.5214 32.7467 97.5023 32.5271 97.4999 32.307C97.4699 31.866 97.4579 31.407 97.4669 30.981C97.4856 30.0989 97.578 29.2198 97.7429 28.353Z" fill="#263238"/>
<path d="M105.537 26.856C105.537 26.856 106.119 26.877 106.437 27.636C106.704 28.296 106.827 29.337 106.179 30.936C105.495 32.631 104.958 33.162 104.586 33.792C104.319 34.245 103.893 35.097 103.893 35.097L104.082 33.105L104.253 31.722C104.253 31.722 103.401 31.527 103.155 30.144C102.876 28.59 103.17 28.395 103.17 28.395L105.537 26.856Z" fill="#455A64"/>
<path d="M104.181 31.56C104.233 31.5834 104.29 31.5935 104.347 31.5893C104.404 31.5851 104.46 31.5668 104.508 31.536C104.784 31.374 104.913 31.026 105.147 30.816C105.447 30.543 106.395 30.216 106.782 31.206C107.169 32.196 106.197 33.498 105.489 33.768C104.448 34.164 104.07 33.117 104.07 33.117L103.668 37.317C102.468 39.153 101.181 39.3 99.9508 39.213C98.7208 39.126 98.8138 37.983 99.6028 37.197L99.7078 35.829C99.1461 35.8762 98.581 35.8641 98.0218 35.793C97.1218 35.583 96.6868 34.86 96.4828 33.846C96.2776 32.6706 96.2292 31.4732 96.3388 30.285C96.448 29.1867 96.6794 28.104 97.0288 27.057C97.0288 27.057 97.5508 26.583 99.0658 26.559C100.137 26.559 101.487 26.469 102.048 27.141C102.087 27.4395 102.213 27.7198 102.41 27.9471C102.608 28.1744 102.868 28.3385 103.158 28.419C102.834 30.567 104.001 31.482 104.181 31.56Z" fill="#E2B3B5"/>
<path d="M102.087 27.315C101.865 26.907 101.076 26.715 100.62 26.781C99.9881 26.9145 99.3695 27.1053 98.7721 27.351C98.3256 27.5026 97.8575 27.5806 97.3861 27.582C96.9341 27.5907 96.4883 27.4766 96.0961 27.252C95.9194 27.1154 95.7755 26.9411 95.6748 26.7418C95.5741 26.5425 95.5192 26.3232 95.5141 26.1C95.5089 25.8788 95.5528 25.6591 95.6425 25.4569C95.7322 25.2546 95.8656 25.0747 96.0331 24.93C96.0374 25.0323 96.0671 25.1319 96.1195 25.2198C96.1718 25.3078 96.2452 25.3814 96.3331 25.434C96.5089 25.5367 96.7005 25.6097 96.9001 25.65C96.7507 25.5227 96.6375 25.3585 96.5717 25.1737C96.5059 24.9888 96.4898 24.79 96.5251 24.597C96.5827 24.3772 96.6905 24.1738 96.8398 24.0025C96.9892 23.8313 97.1762 23.697 97.3861 23.61C97.7461 23.508 98.1631 23.4 98.9611 24.06C99.7591 24.72 102.471 25.116 102.087 27.315Z" fill="#263238"/>
<path d="M99.708 35.817C99.708 35.817 101.781 35.556 102.522 35.217C102.958 35.0298 103.328 34.7163 103.584 34.317C103.445 34.7267 103.224 35.1042 102.936 35.427C102.366 36.057 99.666 36.351 99.666 36.351L99.708 35.817Z" fill="#C38688"/>
<path d="M100.563 30.513C100.56 30.5936 100.581 30.6731 100.623 30.7418C100.665 30.8105 100.727 30.8653 100.8 30.8994C100.873 30.9334 100.954 30.9453 101.034 30.9334C101.114 30.9216 101.188 30.8865 101.248 30.8327C101.308 30.7789 101.351 30.7086 101.371 30.6306C101.392 30.5526 101.388 30.4704 101.362 30.3941C101.336 30.3178 101.289 30.2509 101.225 30.2016C101.161 30.1524 101.084 30.1229 101.004 30.117C100.893 30.1113 100.784 30.1497 100.701 30.224C100.619 30.2982 100.569 30.4021 100.563 30.513Z" fill="#263238"/>
<path d="M100.83 28.995L101.7 29.469C101.761 29.348 101.773 29.2079 101.734 29.0781C101.694 28.9484 101.606 28.839 101.487 28.773C101.429 28.7443 101.367 28.7272 101.302 28.7228C101.238 28.7184 101.173 28.7268 101.112 28.7474C101.051 28.768 100.995 28.8005 100.947 28.843C100.898 28.8855 100.859 28.9372 100.83 28.995Z" fill="#263238"/>
<path d="M100.641 33.078L98.8799 33.6C98.9084 33.7179 98.9604 33.8288 99.0329 33.9261C99.1053 34.0234 99.1967 34.1051 99.3015 34.1662C99.4063 34.2272 99.5223 34.2665 99.6427 34.2816C99.7631 34.2967 99.8852 34.2873 100.002 34.254C100.241 34.1797 100.441 34.0153 100.56 33.7957C100.679 33.5761 100.708 33.3186 100.641 33.078Z" fill="#C38688"/>
<path d="M100.002 34.248C99.8458 34.2909 99.681 34.2909 99.5249 34.248C99.5484 34.0345 99.6537 33.8383 99.8187 33.7007C99.9837 33.5631 100.196 33.4948 100.41 33.51C100.489 33.5146 100.567 33.5318 100.641 33.561C100.603 33.7213 100.525 33.8689 100.413 33.9894C100.301 34.1099 100.159 34.1991 100.002 34.248Z" fill="#F28F8F"/>
<path d="M96.8998 29.1L97.8718 28.8C97.8565 28.7369 97.8287 28.6776 97.7899 28.6256C97.7512 28.5735 97.7024 28.5298 97.6464 28.4971C97.5904 28.4643 97.5283 28.4432 97.464 28.4349C97.3997 28.4266 97.3343 28.4314 97.2718 28.449C97.1363 28.4862 97.021 28.5756 96.9513 28.6976C96.8816 28.8196 96.8631 28.9643 96.8998 29.1Z" fill="#263238"/>
<path d="M97.2 30.252C97.1943 30.3069 97.1995 30.3624 97.2155 30.4152C97.2314 30.468 97.2578 30.5171 97.293 30.5596C97.3282 30.6021 97.3716 30.6371 97.4205 30.6626C97.4695 30.6881 97.523 30.7035 97.578 30.708C97.6624 30.7173 97.7476 30.7012 97.8227 30.6618C97.8979 30.6224 97.9595 30.5614 97.9998 30.4867C98.0401 30.412 98.0571 30.327 98.0487 30.2425C98.0403 30.1581 98.0069 30.078 97.9528 30.0127C97.8986 29.9474 97.8262 29.8997 97.7447 29.8758C97.6633 29.8519 97.5766 29.8529 97.4957 29.8786C97.4148 29.9043 97.3435 29.9536 97.2908 30.0201C97.2381 30.0866 97.2065 30.1674 97.2 30.252Z" fill="#263238"/>
<path d="M99.3447 29.775L99.0477 32.547L97.6587 31.956L99.3447 29.775Z" fill="#C38688"/>
<path d="M100.563 83.079V68.895C100.593 68.3831 100.742 67.8853 100.999 67.4411C101.255 66.9969 101.611 66.6185 102.039 66.336L115.728 58.437C115.876 58.3512 115.998 58.2282 116.083 58.0803C116.168 57.9324 116.213 57.7647 116.213 57.594C116.213 57.4233 116.168 57.2556 116.083 57.1077C115.998 56.9597 115.876 56.8367 115.728 56.751L115.392 56.559L116.553 48.96C116.652 48.4437 116.853 47.9525 117.145 47.5155C117.438 47.0785 117.815 46.7046 118.254 46.416L119.454 45.723C120.267 45.252 120.93 45.636 120.93 46.575V53.4L120.9 71.358C120.872 71.8699 120.723 72.368 120.467 72.812C120.21 73.256 119.853 73.6335 119.424 73.914L102.024 83.931C101.229 84.399 100.563 84.015 100.563 83.079Z" fill="#263238"/>
<path d="M96.4106 66.495V80.679C96.4106 80.709 96.4106 80.745 96.4106 80.775C96.4545 81.2671 96.6082 81.7431 96.8606 82.1678C97.1129 82.5925 97.4574 82.9552 97.8686 83.229H97.8836L99.0836 83.919C99.1187 83.9424 99.1558 83.9625 99.1946 83.979L99.2576 84.009H99.2756C99.3133 84.0274 99.3524 84.0424 99.3926 84.054C100.091 84.3091 100.853 84.3302 101.565 84.114C101.652 84.0879 101.738 84.0569 101.823 84.021C101.112 84.321 100.563 83.913 100.56 83.064V68.895C100.588 68.3827 100.737 67.8843 100.993 67.4399C101.249 66.9954 101.607 66.6173 102.036 66.336L104.718 64.788L115.725 58.437C115.872 58.3512 115.995 58.2282 116.08 58.0803C116.165 57.9324 116.21 57.7647 116.21 57.594C116.21 57.4233 116.165 57.2556 116.08 57.1077C115.995 56.9597 115.872 56.8368 115.725 56.751L114.504 56.046C114.046 55.8152 113.54 55.695 113.028 55.695C112.515 55.695 112.009 55.8152 111.552 56.046L100.563 62.4L97.8866 63.945C97.4583 64.2249 97.1015 64.6014 96.8452 65.0443C96.5888 65.4872 96.44 65.9841 96.4106 66.495Z" fill="#455A64"/>
<path d="M100.563 68.895V83.076C100.563 83.925 101.115 84.324 101.826 84.033C101.742 84.0689 101.656 84.0999 101.568 84.126C100.857 84.3422 100.094 84.3211 99.3961 84.066C99.3558 84.0544 99.3167 84.0394 99.2791 84.021H99.2611L99.1981 83.991C99.1593 83.9745 99.1221 83.9544 99.0871 83.931L97.8871 83.241H97.8721C97.4608 82.9672 97.1163 82.6045 96.864 82.1798C96.6117 81.755 96.4579 81.2791 96.4141 80.787C96.4141 80.757 96.4141 80.721 96.4141 80.691V66.495C96.432 65.9811 96.5807 65.4804 96.8461 65.04L101.001 67.44C100.733 67.8794 100.582 68.3804 100.563 68.895Z" fill="#37474F"/>
<path d="M112.761 52.8C112.362 49.674 112.029 48.048 111.618 45.951C110.661 41.085 110.886 39.687 107.367 38.772C107.367 38.772 106.092 39.894 106.038 42.774C105.999 44.949 106.638 46.146 106.638 46.146L108.138 53.346C106.839 54.546 103.509 57.162 102.696 57.591C101.601 58.173 100.386 58.398 99.2157 58.791C98.4387 59.058 97.7157 59.391 96.9537 59.709C96.9116 59.7214 96.8726 59.7429 96.8397 59.772C96.8086 59.8045 96.7876 59.8453 96.7791 59.8895C96.7705 59.9336 96.7749 59.9793 96.7917 60.021C96.8283 60.1039 96.8889 60.1739 96.9657 60.222C97.1491 60.344 97.3578 60.4228 97.576 60.4525C97.7943 60.4821 98.0164 60.4618 98.2257 60.393C98.5827 60.312 98.8887 60.123 99.3117 60.135C99.3927 60.135 99.4797 60.159 99.4467 60.261C99.4142 60.3315 99.3706 60.3963 99.3177 60.453C98.9719 60.7299 98.5677 60.9248 98.1357 61.023C97.7255 61.1384 97.3018 61.1989 96.8757 61.203C96.5323 61.1914 96.1885 61.2145 95.8497 61.272C95.7417 61.2934 95.6395 61.3373 95.5497 61.401C95.0847 61.764 95.8227 62.043 95.9727 62.301C96.0507 62.433 96.1887 62.667 96.2727 62.79C96.3749 62.8911 96.4977 62.9689 96.6327 63.018C96.8006 63.1242 96.9619 63.2404 97.1157 63.366C97.5145 63.6108 97.9772 63.731 98.4447 63.711C98.8414 63.7016 99.2366 63.6604 99.6267 63.588C100.449 63.4844 101.233 63.1794 101.91 62.7C102.188 62.4796 102.449 62.2379 102.69 61.977C102.9 61.758 103.107 61.533 103.332 61.323C103.701 61.0091 104.088 60.7157 104.49 60.444C105.075 60.105 108.429 58.518 111.792 56.172C113.268 55.137 112.938 54.168 112.761 52.8Z" fill="#E2B3B5"/>
<path d="M107.253 38.4C109.746 39.21 110.424 40.263 110.661 41.061C111.006 42.21 111.261 43.521 111.675 45.462C112.275 48.366 112.383 49.515 112.383 49.515C112.383 49.515 111.009 50.628 107.439 50.583L106.239 45.861C106.239 45.861 104.502 41.73 107.253 38.4Z" fill="#FAFAFA"/>
<path d="M110.892 85.416L112.803 84.312L110.892 83.76V85.416Z" fill="#459AE9"/>
<path opacity="0.6" d="M110.892 85.416L112.803 84.312L110.892 83.76V85.416Z" fill="white"/>
<path opacity="0.05" d="M110.892 85.416L112.803 84.312L110.892 83.76V85.416Z" fill="black"/>
<path d="M110.892 85.416L109.935 84.864V83.208L110.892 83.76V85.416Z" fill="#459AE9"/>
<path opacity="0.75" d="M110.892 85.416L109.935 84.864V83.208L110.892 83.76V85.416Z" fill="white"/>
<path d="M120.468 89.289V91.05L134.298 83.067V81.306L120.468 89.289Z" fill="#459AE9"/>
<path opacity="0.6" d="M120.468 89.289V91.05L134.298 83.067V81.306L120.468 89.289Z" fill="white"/>
<path opacity="0.1" d="M120.468 89.289V91.05L134.298 83.067V81.306L120.468 89.289Z" fill="black"/>
<path d="M120.468 91.0501L119.511 90.4981V88.7371L120.468 89.2891V91.0501Z" fill="#459AE9"/>
<path opacity="0.75" d="M120.468 91.0501L119.511 90.4981V88.7371L120.468 89.2891V91.0501Z" fill="white"/>
<path d="M135.255 67.509L121.422 75.492V89.841L135.255 81.858V67.509Z" fill="#459AE9"/>
<path opacity="0.6" d="M135.255 67.509L121.422 75.492V89.841L135.255 81.858V67.509Z" fill="white"/>
<path d="M121.422 75.492L108.978 68.307V82.656L121.422 89.841V75.492Z" fill="#459AE9"/>
<path opacity="0.75" d="M121.422 75.492L108.978 68.307V82.656L121.422 89.841V75.492Z" fill="white"/>
<path d="M108.978 68.307L122.811 60.324L135.255 67.509L121.422 75.492L108.978 68.307Z" fill="#459AE9"/>
<path opacity="0.85" d="M108.978 68.307L122.811 60.324L135.255 67.509L121.422 75.492L108.978 68.307Z" fill="white"/>
<path d="M120.468 80.46L109.935 74.379V82.104L120.468 88.185V80.46Z" fill="#459AE9"/>
<path opacity="0.7" d="M120.468 80.46L109.935 74.379V82.104L120.468 88.185V80.46Z" fill="white"/>
<path opacity="0.1" d="M109.935 82.1041L116.58 78.2161L120.468 80.4601V88.1851L109.935 82.1041Z" fill="black"/>
<path opacity="0.05" d="M109.935 82.104L116.58 78.216L109.935 74.379V82.104Z" fill="black"/>
<path d="M120.468 76.044L109.935 69.963V73.275L120.468 79.356V76.044Z" fill="#459AE9"/>
<path opacity="0.85" d="M120.468 76.044L109.935 69.963V73.275L120.468 79.356V76.044Z" fill="white"/>
<path d="M117.201 74.856C117.201 75.009 116.745 74.856 116.184 74.556L114.399 73.5C113.835 73.176 113.379 72.789 113.379 72.636V72.36L117.201 74.568V74.856Z" fill="#455A64"/>
<g opacity="0.1">
<path d="M128.349 69.387C129.265 69.4068 130.168 69.1609 130.947 68.679C131.547 68.277 131.886 67.779 131.886 67.26C131.886 66.741 131.553 66.243 130.947 65.841C130.159 65.3776 129.262 65.1332 128.348 65.1332C127.433 65.1332 126.536 65.3776 125.748 65.841C125.148 66.243 124.809 66.741 124.809 67.26C124.809 67.779 125.142 68.277 125.748 68.679C126.528 69.1613 127.432 69.4072 128.349 69.387Z" fill="black"/>
</g>
<path d="M126.024 67.089C126.024 67.0276 126.03 66.9663 126.042 66.906C126.192 66.2268 126.593 65.6291 127.164 65.232H129.513C130.084 65.6291 130.485 66.2268 130.635 66.906C130.647 66.9673 130.653 67.0296 130.653 67.092V67.122C130.624 67.3163 130.547 67.5003 130.429 67.6574C130.312 67.8146 130.156 67.9399 129.978 68.022C129.471 68.2794 128.91 68.4136 128.341 68.4136C127.773 68.4136 127.212 68.2794 126.705 68.022C126.526 67.9399 126.371 67.8146 126.253 67.6574C126.136 67.5003 126.059 67.3163 126.03 67.122C126.027 67.1111 126.025 67.1001 126.024 67.089Z" fill="#37474F"/>
<path d="M129.45 65.193C130.065 65.55 130.065 66.123 129.45 66.48C129.105 66.6545 128.724 66.7455 128.337 66.7455C127.95 66.7455 127.569 66.6545 127.224 66.48C126.624 66.123 126.624 65.55 127.224 65.193C127.569 65.0185 127.95 64.9276 128.337 64.9276C128.724 64.9276 129.105 65.0185 129.45 65.193Z" fill="#455A64"/>
<path d="M128.019 57.363H128.658V65.592C128.66 65.6225 128.653 65.6528 128.637 65.6787C128.62 65.7046 128.596 65.7247 128.568 65.736C128.498 65.7716 128.42 65.7902 128.342 65.7902C128.263 65.7902 128.185 65.7716 128.115 65.736C128.087 65.7247 128.063 65.7046 128.047 65.6787C128.03 65.6528 128.023 65.6225 128.025 65.592L128.019 57.363Z" fill="#263238"/>
<path d="M123.618 56.13L125.841 50.463H130.839L133.062 56.13C133.377 57.03 132.942 57.975 131.751 58.665C129.867 59.751 126.816 59.751 124.932 58.665C123.738 57.975 123.3 57.018 123.618 56.13Z" fill="#459AE9"/>
<path d="M130.146 51.819C129.586 52.1031 128.967 52.2512 128.338 52.2512C127.71 52.2512 127.091 52.1031 126.531 51.819C125.532 51.243 125.532 50.319 126.531 49.719C127.091 49.4349 127.71 49.2869 128.338 49.2869C128.967 49.2869 129.586 49.4349 130.146 49.719C131.145 50.307 131.145 51.243 130.146 51.819Z" fill="#459AE9"/>
<path opacity="0.3" d="M130.146 51.819C129.586 52.1031 128.967 52.2512 128.338 52.2512C127.71 52.2512 127.091 52.1031 126.531 51.819C125.532 51.243 125.532 50.319 126.531 49.719C127.091 49.4349 127.71 49.2869 128.338 49.2869C128.967 49.2869 129.586 49.4349 130.146 49.719C131.145 50.307 131.145 51.243 130.146 51.819Z" fill="white"/>
<path d="M128.337 51.957C128.916 51.9697 129.488 51.8344 129.999 51.564C130.386 51.339 130.599 51.06 130.599 50.775C130.576 50.6031 130.509 50.4401 130.404 50.3023C130.298 50.1644 130.159 50.0564 129.999 49.989C129.484 49.7306 128.915 49.5961 128.339 49.5961C127.762 49.5961 127.194 49.7306 126.678 49.989C126.518 50.0564 126.379 50.1644 126.274 50.3023C126.168 50.4401 126.101 50.6031 126.078 50.775C126.078 51.06 126.291 51.339 126.678 51.564C127.189 51.8342 127.76 51.9695 128.337 51.957Z" fill="#459AE9"/>
<path opacity="0.15" d="M128.337 51.957C128.916 51.9697 129.488 51.8344 129.999 51.564C130.386 51.339 130.599 51.06 130.599 50.775C130.576 50.6031 130.509 50.4401 130.404 50.3023C130.298 50.1644 130.159 50.0564 129.999 49.989C129.484 49.7306 128.915 49.5961 128.339 49.5961C127.762 49.5961 127.194 49.7306 126.678 49.989C126.518 50.0564 126.379 50.1644 126.274 50.3023C126.168 50.4401 126.101 50.6031 126.078 50.775C126.078 51.06 126.291 51.339 126.678 51.564C127.189 51.8342 127.76 51.9695 128.337 51.957Z" fill="black"/>
<path d="M77.1146 14.595L88.0826 20.925C88.1471 20.9672 88.2008 21.0239 88.2393 21.0906C88.2779 21.1573 88.3002 21.2321 88.3046 21.309V28.989C88.3 29.0655 88.2775 29.1398 88.239 29.2059C88.2004 29.2721 88.1468 29.3283 88.0826 29.37L87.2996 29.823C87.2313 29.8578 87.1557 29.8759 87.0791 29.8759C87.0025 29.8759 86.9269 29.8578 86.8586 29.823L75.8816 23.49C75.818 23.4472 75.7651 23.3902 75.7272 23.3236C75.6892 23.257 75.6671 23.1825 75.6626 23.106V15.414C75.6667 15.3378 75.689 15.2638 75.7276 15.198C75.7662 15.1322 75.8201 15.0767 75.8846 15.036L76.6736 14.592C76.7421 14.5577 76.8178 14.5401 76.8945 14.5406C76.9711 14.5411 77.0465 14.5598 77.1146 14.595Z" fill="#459AE9"/>
<path d="M87.0716 29.7V22.002C87.0672 21.9251 87.0449 21.8503 87.0063 21.7836C86.9678 21.7169 86.9141 21.6602 86.8496 21.618L75.8816 15.3C75.7616 15.228 75.6626 15.285 75.6626 15.426V23.1C75.6671 23.1765 75.6892 23.251 75.7272 23.3176C75.7651 23.3842 75.818 23.4412 75.8816 23.484L86.8496 29.82C86.9726 29.892 87.0716 29.835 87.0716 29.7Z" fill="#459AE9"/>
<path d="M87.0716 29.7V22.002C87.0672 21.9251 87.0449 21.8503 87.0063 21.7836C86.9678 21.7169 86.9141 21.6602 86.8496 21.618L75.8816 15.3C75.7616 15.228 75.6626 15.285 75.6626 15.426V23.1C75.6671 23.1765 75.6892 23.251 75.7272 23.3176C75.7651 23.3842 75.818 23.4412 75.8816 23.484L86.8496 29.82C86.9726 29.892 87.0716 29.835 87.0716 29.7Z" fill="#459AE9"/>
<path opacity="0.2" d="M86.8496 29.82C86.9186 29.8541 86.9946 29.8719 87.0716 29.8719C87.1486 29.8719 87.2246 29.8541 87.2936 29.82L88.0826 29.367C88.1469 29.3253 88.2004 29.2691 88.239 29.203C88.2776 29.1368 88.3 29.0625 88.3046 28.986V21.3C88.3025 21.2197 88.2775 21.1417 88.2326 21.075L86.9996 21.783C87.0396 21.8493 87.0623 21.9246 87.0656 22.002V29.7C87.0716 29.823 86.9786 29.895 86.8496 29.82Z" fill="black"/>
<path opacity="0.4" d="M75.6655 15.375C75.6835 15.264 75.7735 15.225 75.8815 15.288L86.8495 21.618C86.9145 21.6591 86.9682 21.7158 87.0055 21.783L88.2355 21.084C88.199 21.0187 88.1463 20.964 88.0825 20.925L77.1145 14.595C77.0462 14.5602 76.9707 14.5421 76.894 14.5421C76.8174 14.5421 76.7418 14.5602 76.6735 14.595L75.8995 15.033C75.8379 15.0694 75.7849 15.1189 75.7445 15.178C75.7041 15.2371 75.6771 15.3044 75.6655 15.375Z" fill="white"/>
<path d="M88.9077 26.904L90.1077 26.22C90.1338 26.2042 90.156 26.1827 90.1726 26.1572C90.1893 26.1317 90.2001 26.1028 90.2041 26.0726C90.2081 26.0423 90.2053 26.0116 90.1959 25.9826C90.1865 25.9536 90.1707 25.9271 90.1497 25.905L88.2747 23.565L87.0747 24.255L88.9467 26.595C88.9663 26.6171 88.9809 26.643 88.9896 26.6712C88.9984 26.6994 89.001 26.7291 88.9973 26.7583C88.9936 26.7876 88.9837 26.8157 88.9682 26.8409C88.9528 26.866 88.9321 26.8875 88.9077 26.904Z" fill="#459AE9"/>
<path opacity="0.4" d="M88.9077 26.904L90.1077 26.22C90.1338 26.2042 90.156 26.1827 90.1726 26.1572C90.1893 26.1317 90.2001 26.1028 90.2041 26.0726C90.2081 26.0423 90.2053 26.0116 90.1959 25.9826C90.1865 25.9536 90.1707 25.9271 90.1497 25.905L88.2747 23.565L87.0747 24.255L88.9467 26.595C88.9663 26.6171 88.9809 26.643 88.9896 26.6712C88.9984 26.6994 89.001 26.7291 88.9973 26.7583C88.9936 26.7876 88.9837 26.8157 88.9682 26.8409C88.9528 26.866 88.9321 26.8875 88.9077 26.904Z" fill="white"/>
<path d="M87.0718 24.255L88.9468 26.595C88.9741 26.6218 88.9931 26.6559 89.0014 26.6932C89.0098 26.7306 89.0071 26.7695 88.9938 26.8054C88.9805 26.8412 88.957 26.8725 88.9263 26.8953C88.8956 26.9181 88.859 26.9316 88.8208 26.934L87.0718 27.123V24.255Z" fill="#459AE9"/>
<path d="M84.4348 23.1C84.4348 23.4 84.2188 23.502 83.9548 23.346L77.8618 19.836C77.724 19.7465 77.6089 19.6262 77.5256 19.4846C77.4423 19.343 77.3931 19.1839 77.3818 19.02C77.3818 18.72 77.5978 18.618 77.8618 18.774L83.9548 22.29C84.0919 22.3788 84.2065 22.4982 84.2898 22.6387C84.3731 22.7792 84.4227 22.9371 84.4348 23.1Z" fill="#FAFAFA"/>
<path d="M85.7998 26.25C85.7998 26.55 85.5838 26.652 85.3198 26.496L77.8618 22.2C77.724 22.1105 77.6089 21.9902 77.5256 21.8486C77.4423 21.707 77.3931 21.5479 77.3818 21.384C77.3818 21.084 77.5978 20.982 77.8618 21.138L85.3138 25.437C85.4524 25.5255 85.5684 25.645 85.6528 25.7861C85.7371 25.9272 85.7875 26.086 85.7998 26.25Z" fill="#FAFAFA"/>
<path d="M38.9997 38.151L37.7997 35.937L38.7477 33.201V31.524L35.8467 33.201V34.875L37.0917 37.035C37.1115 37.069 37.1421 37.0954 37.1787 37.11L38.9997 38.151Z" fill="#459AE9"/>
<path opacity="0.2" d="M38.9997 38.151L37.7997 35.937L38.7477 33.201V31.524L35.8467 33.201V34.875L37.0917 37.035C37.1115 37.069 37.1421 37.0954 37.1787 37.11L38.9997 38.151Z" fill="black"/>
<path d="M46.4997 21.378C46.4818 21.0774 46.3938 20.7852 46.2428 20.5247C46.0917 20.2643 45.8818 20.0428 45.6297 19.878L44.9217 19.47C44.6523 19.3325 44.3542 19.2609 44.0517 19.2609C43.7493 19.2609 43.4511 19.3325 43.1817 19.47L29.3397 27.453C29.0872 27.6173 28.8769 27.8386 28.7257 28.0992C28.5746 28.3598 28.4869 28.6523 28.4697 28.953V37.437C28.4869 37.7378 28.5746 38.0303 28.7257 38.2908C28.8769 38.5514 29.0872 38.7728 29.3397 38.937L30.0477 39.348C30.3175 39.4841 30.6155 39.555 30.9177 39.555C31.2199 39.555 31.5179 39.4841 31.7877 39.348L37.6797 35.919L38.9247 38.073C38.9425 38.1037 38.9686 38.1287 39.0001 38.145C39.0315 38.1613 39.067 38.1683 39.1023 38.1652C39.1376 38.162 39.1713 38.1489 39.1993 38.1272C39.2274 38.1056 39.2487 38.0764 39.2607 38.043L40.5747 34.245L45.6237 31.359C45.8758 31.1942 46.0857 30.9728 46.2368 30.7123C46.3878 30.4518 46.4758 30.1596 46.4937 29.859L46.4997 21.378Z" fill="#459AE9"/>
<path opacity="0.2" d="M28.4697 37.443C28.4869 37.7438 28.5746 38.0362 28.7257 38.2968C28.8769 38.5574 29.0872 38.7788 29.3397 38.943L30.0477 39.354C30.2931 39.4765 30.5614 39.5459 30.8354 39.5578C31.1093 39.5697 31.3827 39.5238 31.6377 39.423C31.2297 39.579 30.9177 39.348 30.9177 38.85V30.372C30.9274 30.0698 31.0152 29.7752 31.1727 29.517L28.7247 28.101C28.5676 28.3604 28.4798 28.6559 28.4697 28.959V37.443Z" fill="black"/>
<path opacity="0.4" d="M46.4669 21.132C46.3649 20.763 46.0289 20.646 45.6269 20.877L31.7999 28.866C31.5472 29.0277 31.3405 29.252 31.1999 29.517L28.7549 28.104C28.8954 27.8397 29.1021 27.6164 29.3549 27.456L43.1909 19.464C43.4607 19.3279 43.7587 19.257 44.0609 19.257C44.3631 19.257 44.6611 19.3279 44.9309 19.464L45.6419 19.875C45.8567 20.0185 46.0404 20.2037 46.1821 20.4197C46.3238 20.6356 46.4207 20.8779 46.4669 21.132Z" fill="white"/>
<path d="M34.4515 31.236C34.1133 31.4558 33.8318 31.7524 33.63 32.1018C33.4282 32.4511 33.3119 32.8431 33.2905 33.246C33.2905 33.987 33.8095 34.287 34.4515 33.915C34.7898 33.6952 35.0713 33.3985 35.273 33.0492C35.4748 32.6999 35.5911 32.3078 35.6125 31.905C35.6125 31.164 35.0995 30.864 34.4515 31.236Z" fill="#FAFAFA"/>
<path d="M38.7298 28.761C38.3921 28.9813 38.111 29.2781 37.9093 29.6273C37.7076 29.9765 37.591 30.3683 37.5688 30.771C37.5688 31.509 38.0908 31.809 38.7298 31.44C39.0698 31.2212 39.353 30.925 39.5564 30.5756C39.7597 30.2262 39.8775 29.8336 39.8998 29.43C39.8998 28.689 39.3718 28.389 38.7298 28.761Z" fill="#FAFAFA"/>
<path d="M43.0106 26.283C42.6729 26.5033 42.3918 26.8001 42.19 27.1493C41.9883 27.4985 41.8717 27.8903 41.8496 28.293C41.8496 29.034 42.3686 29.334 43.0106 28.965C43.3484 28.7446 43.6295 28.4478 43.8312 28.0986C44.0329 27.7494 44.1495 27.3576 44.1716 26.955C44.1716 26.214 43.6526 25.914 43.0106 26.283Z" fill="#FAFAFA"/>
</svg>
