<svg width="151" height="150" viewBox="0 0 151 150" fill="none" xmlns="http://www.w3.org/2000/svg">
<path d="M74.9271 141.837C114.635 141.837 146.825 123.662 146.825 101.241C146.825 78.8204 114.635 60.645 74.9271 60.645C35.2189 60.645 3.02905 78.8204 3.02905 101.241C3.02905 123.662 35.2189 141.837 74.9271 141.837Z" fill="#E6E6E6"/>
<path opacity="0.8" d="M74.9271 141.837C114.635 141.837 146.825 123.662 146.825 101.241C146.825 78.8204 114.635 60.645 74.9271 60.645C35.2189 60.645 3.02905 78.8204 3.02905 101.241C3.02905 123.662 35.2189 141.837 74.9271 141.837Z" fill="#E6E6E6"/>
<path d="M81.2571 97.224L94.8441 89.382C94.9373 89.3357 95.04 89.3117 95.1441 89.3117C95.2482 89.3117 95.3508 89.3357 95.4441 89.382L115.325 100.875C115.362 100.888 115.394 100.912 115.417 100.944C115.44 100.976 115.452 101.014 115.452 101.054C115.452 101.093 115.44 101.131 115.417 101.163C115.394 101.195 115.362 101.219 115.325 101.232L101.741 109.074C101.646 109.123 101.54 109.148 101.434 109.148C101.327 109.148 101.221 109.123 101.126 109.074L81.2541 97.581C81.2171 97.5678 81.1852 97.5434 81.1627 97.5112C81.1402 97.4791 81.1283 97.4407 81.1287 97.4014C81.129 97.3622 81.1415 97.324 81.1645 97.2922C81.1875 97.2604 81.2199 97.2366 81.2571 97.224Z" fill="#CFCFCF"/>
<path d="M19.025 111.357L13.325 108.057C13.2505 108.032 13.1858 107.984 13.1399 107.92C13.094 107.857 13.0693 107.78 13.0693 107.702C13.0693 107.623 13.094 107.546 13.1399 107.483C13.1858 107.419 13.2505 107.371 13.325 107.346L82.574 67.368C82.7643 67.2704 82.9751 67.2194 83.189 67.2194C83.4029 67.2194 83.6137 67.2704 83.804 67.368L89.504 70.668C89.5785 70.693 89.6432 70.7408 89.6891 70.8046C89.735 70.8684 89.7596 70.9449 89.7596 71.0235C89.7596 71.1021 89.735 71.1787 89.6891 71.2425C89.6432 71.3062 89.5785 71.354 89.504 71.379L20.255 111.357C20.0641 111.453 19.8535 111.502 19.64 111.502C19.4265 111.502 19.2159 111.453 19.025 111.357Z" fill="#CFCFCF"/>
<path d="M78.1761 66.699L90.4521 59.607C90.6046 59.53 90.7732 59.4899 90.9441 59.4899C91.115 59.4899 91.2835 59.53 91.4361 59.607L106.52 68.307C106.58 68.3267 106.632 68.3649 106.669 68.4161C106.706 68.4673 106.726 68.5288 106.726 68.592C106.726 68.6552 106.706 68.7168 106.669 68.7679C106.632 68.8191 106.58 68.8573 106.52 68.877L94.2441 75.969C94.091 76.046 93.9219 76.0862 93.7506 76.0862C93.5792 76.0862 93.4102 76.046 93.2571 75.969L78.1761 67.269C78.116 67.2493 78.0638 67.2111 78.0267 67.1599C77.9897 67.1088 77.9697 67.0472 77.9697 66.984C77.9697 66.9208 77.9897 66.8593 78.0267 66.8081C78.0638 66.7569 78.116 66.7187 78.1761 66.699Z" fill="#CFCFCF"/>
<path d="M47.9359 125.85L63.4249 116.865C63.6109 116.771 63.8164 116.722 64.0249 116.722C64.2334 116.722 64.4389 116.771 64.6249 116.865L82.9009 127.419C82.9736 127.443 83.037 127.489 83.0819 127.551C83.1268 127.613 83.151 127.687 83.151 127.764C83.151 127.841 83.1268 127.915 83.0819 127.977C83.037 128.039 82.9736 128.085 82.9009 128.109L67.4269 137.109C67.2409 137.203 67.0354 137.252 66.8269 137.252C66.6184 137.252 66.4129 137.203 66.2269 137.109L47.9359 126.54C47.8632 126.516 47.7998 126.47 47.7549 126.408C47.71 126.346 47.6858 126.272 47.6858 126.195C47.6858 126.118 47.71 126.044 47.7549 125.982C47.7998 125.92 47.8632 125.874 47.9359 125.85Z" fill="#CFCFCF"/>
<path d="M28.325 121.371L24.92 119.4C24.8455 119.375 24.7807 119.327 24.7349 119.263C24.689 119.2 24.6643 119.123 24.6643 119.045C24.6643 118.966 24.689 118.889 24.7349 118.826C24.7807 118.762 24.8455 118.714 24.92 118.689L45.644 106.725C45.8347 106.629 46.0453 106.579 46.259 106.579C46.4726 106.579 46.6832 106.629 46.874 106.725L50.267 108.684C50.3414 108.709 50.4062 108.757 50.4521 108.821C50.4979 108.884 50.5226 108.961 50.5226 109.04C50.5226 109.118 50.4979 109.195 50.4521 109.258C50.4062 109.322 50.3414 109.37 50.267 109.395L29.543 121.371C29.3536 121.465 29.1452 121.513 28.934 121.513C28.7227 121.513 28.5143 121.465 28.325 121.371Z" fill="#CFCFCF"/>
<path d="M54.7789 106.227L51.389 104.271C51.3145 104.246 51.2497 104.198 51.2039 104.134C51.158 104.071 51.1333 103.994 51.1333 103.916C51.1333 103.837 51.158 103.76 51.2039 103.697C51.2497 103.633 51.3145 103.585 51.389 103.56L73.9489 90.51C74.1397 90.4138 74.3503 90.3636 74.564 90.3636C74.7776 90.3636 74.9882 90.4138 75.1789 90.51L78.569 92.469C78.6434 92.494 78.7082 92.5418 78.7541 92.6056C78.7999 92.6694 78.8246 92.7459 78.8246 92.8245C78.8246 92.9031 78.7999 92.9797 78.7541 93.0435C78.7082 93.1072 78.6434 93.155 78.569 93.18L56.0119 106.227C55.8211 106.325 55.6098 106.376 55.3955 106.376C55.1811 106.376 54.9698 106.325 54.7789 106.227Z" fill="#CFCFCF"/>
<path d="M127.925 115.95C135.712 115.95 142.025 113.801 142.025 111.15C142.025 108.499 135.712 106.35 127.925 106.35C120.138 106.35 113.825 108.499 113.825 111.15C113.825 113.801 120.138 115.95 127.925 115.95Z" fill="#CFCFCF"/>
<path d="M20.474 99.879C20.693 97.389 19.346 92.079 17.048 88.62C14.75 85.161 10.895 82.443 7.92499 83.175C5.15899 83.859 5.14099 87.408 8.19499 90.03C11.249 92.652 15.89 96.015 16.967 100.176L19.541 105.393L20.474 99.879Z" fill="#459AE9"/>
<path opacity="0.1" d="M20.474 99.879C20.693 97.389 19.346 92.079 17.048 88.62C14.75 85.161 10.895 82.443 7.92499 83.175C5.15899 83.859 5.14099 87.408 8.19499 90.03C11.249 92.652 15.89 96.015 16.967 100.176L19.541 105.393L20.474 99.879Z" fill="black"/>
<path d="M20.3599 103.299C20.3204 103.293 20.2839 103.274 20.2562 103.246C20.2285 103.217 20.2111 103.18 20.2069 103.14C19.2889 94.5 13.0249 87 9.04389 85.104C9.02041 85.0949 8.99906 85.0811 8.98115 85.0635C8.96325 85.0458 8.94919 85.0246 8.93985 85.0012C8.9305 84.9779 8.92607 84.9528 8.92684 84.9277C8.92761 84.9025 8.93356 84.8778 8.94431 84.8551C8.95507 84.8323 8.9704 84.812 8.98934 84.7955C9.00829 84.7789 9.03045 84.7664 9.05444 84.7588C9.07842 84.7512 9.10372 84.7487 9.12874 84.7513C9.15377 84.7539 9.17799 84.7616 9.19989 84.774C13.2529 86.7 19.6249 94.329 20.5699 103.101C20.5728 103.125 20.5709 103.149 20.5642 103.172C20.5576 103.195 20.5463 103.216 20.5312 103.235C20.5161 103.253 20.4973 103.268 20.4761 103.279C20.4549 103.291 20.4317 103.297 20.4079 103.299H20.3599Z" fill="white"/>
<path d="M18.614 108.624C18.338 107.19 16.832 104.724 14.237 102.582C11.363 100.206 7.58001 98.895 6.83301 97.182C5.93301 95.115 7.76001 93.399 10.868 94.062C13.976 94.725 19.118 99.498 19.433 106.026L18.614 108.624Z" fill="#459AE9"/>
<path d="M19.3521 107.211C19.3171 107.205 19.2846 107.189 19.2585 107.165C19.2324 107.141 19.2139 107.11 19.2051 107.076C17.2401 99.576 11.9121 96.528 9.36806 95.976C9.32112 95.9646 9.28047 95.9353 9.25471 95.8944C9.22896 95.8536 9.22011 95.8043 9.23006 95.757C9.23464 95.7335 9.24396 95.7111 9.25744 95.6913C9.27093 95.6715 9.28829 95.6546 9.30849 95.6417C9.32869 95.6288 9.35129 95.6202 9.37494 95.6163C9.39859 95.6124 9.42278 95.6133 9.44606 95.619C12.2601 96.237 17.5461 99.33 19.5591 106.989C19.571 107.036 19.5638 107.086 19.5391 107.129C19.5144 107.171 19.4742 107.201 19.4271 107.214C19.4021 107.218 19.3767 107.217 19.3521 107.211Z" fill="white"/>
<path d="M93.749 74.736V66.096L104.972 59.619V68.256L93.749 74.736Z" fill="#459AE9"/>
<path d="M93.7489 66.096L79.7209 57.999V66.636L93.7489 74.736V66.096Z" fill="#459AE9"/>
<path opacity="0.15" d="M93.7489 66.096L79.7209 57.999V66.636L93.7489 74.736V66.096Z" fill="black"/>
<path d="M93.7489 66.096L105.305 59.424L90.9439 51.129L79.3879 57.804L93.7489 66.096Z" fill="#459AE9"/>
<path opacity="0.45" d="M93.7489 66.096L105.305 59.424L90.9439 51.129L79.3879 57.804L93.7489 66.096Z" fill="white"/>
<path d="M93.749 66.096V68.256L105.305 61.587V59.424L93.749 66.096Z" fill="#459AE9"/>
<path opacity="0.2" d="M93.749 68.256L104.972 61.779V62.253L93.749 68.733V68.256Z" fill="black"/>
<path d="M79.3879 57.804L93.7489 66.096V68.256L79.3879 59.967V57.804Z" fill="#459AE9"/>
<path opacity="0.2" d="M79.3879 57.804L93.7489 66.096V68.256L79.3879 59.967V57.804Z" fill="black"/>
<path opacity="0.2" d="M93.7489 68.256L79.7209 60.159V60.633L93.7489 68.733V68.256Z" fill="black"/>
<path d="M97.445 67.41L101.279 65.196C101.444 65.103 101.579 65.178 101.579 65.37V67.635C101.573 67.739 101.543 67.8402 101.491 67.9303C101.439 68.0205 101.366 68.0971 101.279 68.154L97.445 70.368C97.28 70.464 97.145 70.386 97.145 70.194V67.929C97.1507 67.825 97.1809 67.7238 97.233 67.6336C97.2851 67.5435 97.3578 67.4669 97.445 67.41Z" fill="#455A64"/>
<path d="M97.691 67.668L101.033 65.739C101.144 65.673 101.231 65.739 101.231 65.853V67.551C101.228 67.6202 101.209 67.6876 101.174 67.7477C101.14 67.8077 101.091 67.8586 101.033 67.896L97.691 69.828C97.58 69.891 97.49 69.828 97.49 69.711V68.013C97.4935 67.9436 97.5136 67.8761 97.5486 67.8161C97.5835 67.7561 97.6324 67.7053 97.691 67.668Z" fill="#F5F5F5"/>
<g opacity="0.5">
<path d="M97.7839 68.115C97.7754 68.1151 97.767 68.1129 97.7596 68.1087C97.7522 68.1045 97.7461 68.0984 97.7419 68.091C97.7387 68.0855 97.7366 68.0794 97.7358 68.0731C97.7349 68.0668 97.7354 68.0604 97.737 68.0542C97.7387 68.0481 97.7416 68.0423 97.7455 68.0373C97.7494 68.0323 97.7543 68.0281 97.7599 68.025L100.925 66.204C100.93 66.2008 100.936 66.1987 100.943 66.1979C100.949 66.1971 100.955 66.1975 100.962 66.1992C100.968 66.2008 100.974 66.2037 100.979 66.2076C100.984 66.2116 100.988 66.2164 100.991 66.222C100.997 66.2333 100.998 66.2463 100.995 66.2585C100.991 66.2707 100.984 66.2812 100.973 66.288L97.8079 68.1C97.8051 68.104 97.8015 68.1074 97.7974 68.1099C97.7933 68.1125 97.7887 68.1142 97.7839 68.115Z" fill="#455A64"/>
<path d="M97.7839 68.532C97.7752 68.5328 97.7666 68.5309 97.7591 68.5266C97.7515 68.5223 97.7455 68.5158 97.7419 68.508C97.7387 68.5025 97.7366 68.4964 97.7358 68.4901C97.7349 68.4838 97.7354 68.4774 97.737 68.4712C97.7387 68.4651 97.7416 68.4593 97.7455 68.4543C97.7494 68.4493 97.7543 68.4451 97.7599 68.442L100.925 66.621C100.93 66.6178 100.936 66.6157 100.943 66.6149C100.949 66.6141 100.955 66.6145 100.962 66.6162C100.968 66.6178 100.974 66.6207 100.979 66.6246C100.984 66.6286 100.988 66.6334 100.991 66.639C100.994 66.6445 100.996 66.6506 100.997 66.6569C100.998 66.6632 100.997 66.6696 100.996 66.6758C100.994 66.6819 100.991 66.6876 100.987 66.6927C100.983 66.6977 100.978 66.7019 100.973 66.705L97.8169 68.526C97.8123 68.5296 97.8069 68.532 97.8011 68.5331C97.7954 68.5341 97.7894 68.5337 97.7839 68.532Z" fill="#455A64"/>
<path d="M97.7839 68.952C97.775 68.9521 97.7663 68.9496 97.7588 68.9448C97.7513 68.94 97.7454 68.9331 97.7419 68.925C97.7387 68.9195 97.7366 68.9134 97.7358 68.9071C97.7349 68.9008 97.7354 68.8943 97.737 68.8882C97.7387 68.8821 97.7416 68.8763 97.7455 68.8713C97.7494 68.8663 97.7543 68.8621 97.7599 68.859L100.925 67.038C100.936 67.0323 100.949 67.0309 100.961 67.0343C100.974 67.0376 100.984 67.0453 100.991 67.056C100.994 67.0615 100.996 67.0676 100.997 67.0739C100.998 67.0802 100.997 67.0866 100.996 67.0927C100.994 67.0989 100.991 67.1046 100.987 67.1097C100.983 67.1147 100.978 67.1189 100.973 67.122L97.8169 68.943C97.8124 68.9469 97.8071 68.9497 97.8014 68.9513C97.7957 68.9528 97.7897 68.9531 97.7839 68.952Z" fill="#455A64"/>
<path d="M97.7839 69.369C97.775 69.3691 97.7663 69.3667 97.7588 69.3619C97.7513 69.357 97.7454 69.3501 97.7419 69.342C97.7387 69.3365 97.7366 69.3304 97.7358 69.3241C97.7349 69.3178 97.7354 69.3114 97.737 69.3052C97.7387 69.2991 97.7416 69.2933 97.7455 69.2883C97.7494 69.2833 97.7543 69.2791 97.7599 69.276L100.925 67.455C100.936 67.4493 100.949 67.448 100.961 67.4513C100.974 67.4546 100.984 67.4624 100.991 67.473C100.994 67.4785 100.996 67.4846 100.997 67.4909C100.998 67.4972 100.997 67.5036 100.996 67.5098C100.994 67.5159 100.991 67.5217 100.987 67.5267C100.983 67.5317 100.978 67.5359 100.973 67.539L97.8169 69.36C97.8124 69.3639 97.8071 69.3667 97.8014 69.3683C97.7957 69.3699 97.7897 69.3701 97.7839 69.369Z" fill="#455A64"/>
</g>
<path d="M93.749 65.013V56.373L104.972 49.893V58.533L93.749 65.013Z" fill="#459AE9"/>
<path d="M93.7489 56.373L79.7209 48.273V56.913L93.7489 65.013V56.373Z" fill="#459AE9"/>
<path opacity="0.15" d="M93.7489 56.373L79.7209 48.273V56.913L93.7489 65.013V56.373Z" fill="black"/>
<path d="M93.7489 56.373L105.305 49.698L90.9439 41.406L79.3879 48.078L93.7489 56.373Z" fill="#459AE9"/>
<path opacity="0.6" d="M93.7489 56.373L105.305 49.698L90.9439 41.406L79.3879 48.078L93.7489 56.373Z" fill="white"/>
<path d="M93.749 56.373V58.533L105.305 51.861V49.698L93.749 56.373Z" fill="#459AE9"/>
<path opacity="0.2" d="M93.749 58.533L104.972 52.053V52.527L93.749 59.007V58.533Z" fill="black"/>
<path d="M79.3879 48.078L93.7489 56.373V58.533L79.3879 50.241V48.078Z" fill="#459AE9"/>
<path opacity="0.2" d="M79.3879 48.078L93.7489 56.373V58.533L79.3879 50.241V48.078Z" fill="black"/>
<path opacity="0.2" d="M93.7489 58.533L79.7209 50.433V50.907L93.7489 59.007V58.533Z" fill="black"/>
<path d="M97.445 57.684L101.279 55.473C101.444 55.377 101.579 55.455 101.579 55.644V57.9C101.573 58.0036 101.543 58.1044 101.491 58.194C101.439 58.2837 101.366 58.3598 101.279 58.416L97.445 60.63C97.28 60.726 97.145 60.648 97.145 60.459V58.2C97.1517 58.0966 97.1822 57.9962 97.2343 57.9067C97.2863 57.8172 97.3585 57.7409 97.445 57.684Z" fill="#455A64"/>
<path d="M97.691 57.942L101.033 56.013C101.144 55.95 101.231 56.013 101.231 56.127V57.828C101.228 57.8971 101.208 57.9643 101.173 58.0243C101.139 58.0843 101.091 58.1352 101.033 58.173L97.691 60.102C97.58 60.165 97.49 60.102 97.49 59.988V58.287C97.494 58.2178 97.5143 58.1504 97.5492 58.0905C97.5841 58.0305 97.6327 57.9797 97.691 57.942Z" fill="#F5F5F5"/>
<g opacity="0.5">
<path d="M97.7838 58.392C97.7753 58.3921 97.767 58.3899 97.7596 58.3857C97.7522 58.3815 97.7461 58.3754 97.7418 58.368C97.7352 58.3564 97.7334 58.3427 97.7368 58.3298C97.7401 58.3169 97.7484 58.3059 97.7598 58.299L100.925 56.478C100.936 56.4723 100.949 56.471 100.961 56.4743C100.973 56.4776 100.984 56.4854 100.991 56.496C100.994 56.5015 100.996 56.5076 100.997 56.5139C100.998 56.5202 100.997 56.5266 100.996 56.5328C100.994 56.5389 100.991 56.5447 100.987 56.5497C100.983 56.5547 100.978 56.5589 100.973 56.562L97.8168 58.386L97.7838 58.392Z" fill="#455A64"/>
<path d="M97.7839 58.8C97.7754 58.8001 97.7671 58.7979 97.7597 58.7937C97.7523 58.7895 97.7462 58.7834 97.7419 58.776C97.7383 58.7706 97.7358 58.7645 97.7347 58.7581C97.7337 58.7517 97.734 58.7451 97.7357 58.7389C97.7374 58.7326 97.7405 58.7268 97.7447 58.7218C97.7488 58.7168 97.754 58.7128 97.7599 58.71L100.925 56.895C100.936 56.8893 100.949 56.888 100.961 56.8913C100.974 56.8946 100.984 56.9024 100.991 56.913C100.994 56.9185 100.996 56.9246 100.997 56.9309C100.998 56.9372 100.997 56.9436 100.996 56.9498C100.994 56.9559 100.991 56.9617 100.987 56.9667C100.983 56.9717 100.978 56.9759 100.973 56.979L97.8079 58.8H97.7839Z" fill="#455A64"/>
<path d="M97.7839 59.226C97.7754 59.2261 97.7671 59.2239 97.7597 59.2197C97.7523 59.2155 97.7462 59.2094 97.7419 59.202C97.7383 59.1966 97.7358 59.1905 97.7347 59.1841C97.7337 59.1777 97.734 59.1711 97.7357 59.1649C97.7374 59.1586 97.7405 59.1528 97.7447 59.1478C97.7488 59.1428 97.754 59.1388 97.7599 59.136L100.925 57.3C100.936 57.2943 100.949 57.293 100.961 57.2963C100.974 57.2996 100.984 57.3074 100.991 57.318C100.994 57.3235 100.996 57.3296 100.997 57.3359C100.998 57.3422 100.997 57.3486 100.996 57.3548C100.994 57.3609 100.991 57.3667 100.987 57.3717C100.983 57.3767 100.978 57.3809 100.973 57.384L97.8169 59.208L97.7839 59.226Z" fill="#455A64"/>
<path d="M97.7839 59.643C97.7754 59.6431 97.7671 59.6409 97.7597 59.6367C97.7523 59.6325 97.7462 59.6264 97.7419 59.619C97.7383 59.6136 97.7358 59.6075 97.7347 59.6011C97.7337 59.5947 97.734 59.5881 97.7357 59.5819C97.7374 59.5756 97.7405 59.5698 97.7447 59.5648C97.7488 59.5598 97.754 59.5558 97.7599 59.553L100.925 57.729C100.936 57.7239 100.949 57.723 100.961 57.7262C100.973 57.7295 100.984 57.7369 100.991 57.747C100.994 57.7525 100.996 57.7586 100.997 57.7649C100.998 57.7712 100.997 57.7777 100.996 57.7838C100.994 57.7899 100.991 57.7957 100.987 57.8007C100.983 57.8057 100.978 57.8099 100.973 57.813L97.8169 59.637L97.7839 59.643Z" fill="#455A64"/>
</g>
<path d="M19.607 56.361C19.307 56.181 18.386 55.353 18.386 54.969V51.369C18.3965 51.1608 18.4564 50.9581 18.5607 50.7776C18.665 50.5971 18.8108 50.444 18.986 50.331L84.176 12.681C84.506 12.492 84.926 12.357 85.997 13.035C86.1614 13.151 86.2973 13.3028 86.3945 13.479C86.4917 13.6551 86.5476 13.8511 86.558 14.052V17.652C86.5468 17.86 86.4866 18.0625 86.3823 18.2429C86.2781 18.4232 86.1327 18.5764 85.958 18.69L20.768 56.34C20.5899 56.4349 20.3918 56.4863 20.19 56.49C19.9882 56.4936 19.7884 56.4494 19.607 56.361Z" fill="#459AE9"/>
<path opacity="0.5" d="M86.5519 13.953C86.5099 13.653 86.2519 13.53 85.9519 13.704L20.7679 51.342C20.5923 51.4539 20.447 51.6075 20.3449 51.789L18.5449 50.763C18.6473 50.5815 18.7938 50.4288 18.9709 50.319L84.1759 12.684C84.5059 12.492 84.9649 12.384 85.9939 13.035C86.1458 13.1406 86.274 13.2769 86.3701 13.435C86.4662 13.5931 86.5281 13.7695 86.5519 13.953Z" fill="white"/>
<path d="M20.654 109.854H20.63C20.6111 109.865 20.5909 109.873 20.57 109.878H20.528C20.5009 109.888 20.4727 109.895 20.444 109.899C20.4261 109.902 20.4079 109.902 20.39 109.899H20.297C20.0605 109.919 19.8228 109.878 19.607 109.779C18.482 109.299 18.386 108.771 18.386 108.39V59.313L20.186 60.339V109.455C20.186 109.725 20.321 109.884 20.516 109.884C20.5428 109.889 20.5702 109.889 20.597 109.884L20.654 109.854Z" fill="#EBEBEB"/>
<path opacity="0.1" d="M20.345 51.789C20.2359 51.9705 20.176 52.1773 20.171 52.389V60.348L18.371 59.322V51.357C18.3695 51.333 18.3695 51.309 18.371 51.285C18.371 51.234 18.386 51.186 18.395 51.135C18.4296 51.0053 18.4799 50.8804 18.545 50.763L20.345 51.789Z" fill="black"/>
<path d="M86.561 71.127C86.5495 71.335 86.4892 71.5373 86.385 71.7177C86.2807 71.898 86.1355 72.0513 85.961 72.165L20.768 109.8C20.438 109.992 20.168 109.836 20.168 109.455V55.584L21.818 54.633C22.148 54.441 22.685 51.531 23.018 51.333L37.325 43.08C37.658 42.888 38.438 45.036 38.768 44.844L86.555 17.244V71.127H86.561Z" fill="#F5F5F5"/>
<path d="M23.0209 69.531L35.3209 62.427C35.6509 62.238 35.9209 62.391 35.9209 62.775V97.773C35.909 97.9809 35.8485 98.183 35.7443 98.3633C35.6401 98.5436 35.4951 98.6969 35.3209 98.811L23.0209 105.915C22.6879 106.107 22.4209 105.951 22.4209 105.567V70.572C22.4317 70.3634 22.4916 70.1604 22.5959 69.9794C22.7002 69.7985 22.8458 69.6448 23.0209 69.531Z" fill="white"/>
<path d="M38.7741 72.132L59.7591 60C60.0891 59.811 60.3591 59.964 60.3591 60.348V83.64C60.3476 83.8484 60.2873 84.0512 60.1831 84.232C60.0789 84.4128 59.9336 84.5666 59.7591 84.681L38.7741 96.819C38.4441 97.011 38.1741 96.855 38.1741 96.474V73.17C38.1846 72.9618 38.2445 72.759 38.3488 72.5786C38.4531 72.3981 38.5989 72.245 38.7741 72.132Z" fill="white"/>
<path d="M62.726 58.2L83.726 46.062C84.056 45.87 84.326 46.023 84.326 46.407V69.711C84.3141 69.9188 84.2536 70.121 84.1494 70.3013C84.0452 70.4816 83.9002 70.6349 83.726 70.749L62.726 82.887C62.396 83.079 62.126 82.923 62.126 82.542V59.232C62.1374 59.0248 62.1977 58.8233 62.302 58.6439C62.4063 58.4645 62.5516 58.3124 62.726 58.2Z" fill="white"/>
<path d="M23.0209 60.435L83.7109 25.395C84.0409 25.203 84.3109 25.359 84.3109 25.743V32.154C84.299 32.3618 84.2385 32.564 84.1343 32.7443C84.0301 32.9246 83.8851 33.0779 83.7109 33.192L23.0209 68.232C22.6879 68.424 22.4209 68.268 22.4209 67.887V61.476C22.4317 61.2674 22.4916 61.0644 22.5959 60.8834C22.7002 60.7025 22.8458 60.5488 23.0209 60.435Z" fill="#455A64"/>
<path d="M61.8049 41.382V42.501C61.8049 42.729 61.9669 42.822 62.1649 42.708L79.8079 32.508V30.558L62.1649 40.758C62.06 40.8263 61.9728 40.9184 61.9102 41.0269C61.8476 41.1353 61.8116 41.257 61.8049 41.382Z" fill="#FAFAFA"/>
<path d="M81.7011 29.481C81.8991 29.367 82.0611 29.46 82.0611 29.688V30.807C82.0538 30.9318 82.0174 31.0532 81.9549 31.1616C81.8924 31.2699 81.8055 31.3621 81.7011 31.431L79.8081 32.523V30.573L81.7011 29.481Z" fill="#459AE9"/>
<path d="M81.56 31.014L81.35 30.948C81.3715 30.8585 81.3825 30.7669 81.383 30.675C81.3928 30.5898 81.3802 30.5035 81.3465 30.4246C81.3129 30.3457 81.2593 30.2769 81.191 30.225C81.1454 30.1986 81.0937 30.1848 81.041 30.1848C80.9884 30.1848 80.9366 30.1986 80.891 30.225C80.7565 30.328 80.6481 30.4613 80.5746 30.614C80.5012 30.7667 80.4646 30.9345 80.468 31.104C80.4583 31.1892 80.4709 31.2755 80.5046 31.3544C80.5382 31.4332 80.5918 31.502 80.66 31.554C80.701 31.5777 80.7476 31.5902 80.795 31.59C80.8564 31.5877 80.9162 31.5702 80.969 31.539C81.1283 31.4276 81.2472 31.2676 81.308 31.083L81.521 31.149H81.542C81.5588 31.1496 81.5752 31.1447 81.5888 31.1349C81.6024 31.1251 81.6124 31.1111 81.617 31.095C81.619 31.0769 81.6143 31.0586 81.6038 31.0437C81.5933 31.0288 81.5778 31.0182 81.56 31.014ZM80.885 31.419C80.8618 31.4324 80.8354 31.4395 80.8085 31.4395C80.7817 31.4395 80.7553 31.4324 80.732 31.419C80.6918 31.3807 80.6608 31.3338 80.641 31.2819C80.6213 31.23 80.6134 31.1743 80.618 31.119C80.616 30.977 80.6459 30.8364 80.7056 30.7076C80.7654 30.5788 80.8533 30.4651 80.963 30.375C80.9912 30.3578 81.0231 30.3475 81.056 30.345C81.0748 30.3405 81.0943 30.3405 81.113 30.345C81.1532 30.3833 81.1843 30.4301 81.2041 30.482C81.2238 30.534 81.2316 30.5896 81.227 30.645C81.2343 30.7917 81.2072 30.9381 81.1478 31.0725C81.0884 31.2069 80.9985 31.3256 80.885 31.419Z" fill="#FAFAFA"/>
<path d="M38.1741 61.476V69.186C38.1741 69.567 38.4411 69.723 38.7741 69.531L83.7111 43.587C83.8852 43.4729 84.0303 43.3196 84.1345 43.1393C84.2387 42.959 84.2991 42.7569 84.3111 42.549V34.839C84.3111 34.455 84.0411 34.302 83.7111 34.491L38.7741 60.435C38.599 60.5488 38.4534 60.7025 38.3491 60.8834C38.2448 61.0644 38.1848 61.2674 38.1741 61.476Z" fill="white"/>
<path d="M86.5579 17.256V22.011L20.1709 60.339V55.584L21.4039 54.87C21.7309 54.678 21.8419 54.39 22.0039 53.832L22.4209 52.38C22.5529 51.876 22.6909 51.531 23.0209 51.342L37.3249 43.08C37.6579 42.888 37.9249 42.867 38.1709 43.284L38.6839 44.217C38.8729 44.541 38.9659 44.733 39.2839 44.541L86.5579 17.256Z" fill="#E6E6E6"/>
<path d="M83.744 16.2C84.101 15.996 84.386 16.161 84.386 16.572C84.3743 16.7946 84.3101 17.0112 84.1985 17.2042C84.0869 17.3971 83.9311 17.5609 83.744 17.682C83.39 17.886 83.105 17.721 83.105 17.313C83.1166 17.0903 83.1804 16.8735 83.2915 16.6801C83.4025 16.4867 83.5575 16.3223 83.744 16.2Z" fill="white"/>
<path d="M81.029 17.76C81.383 17.553 81.671 17.721 81.671 18.129C81.6586 18.3514 81.594 18.5678 81.4825 18.7606C81.371 18.9535 81.2156 19.1173 81.029 19.239C80.675 19.446 80.387 19.278 80.387 18.87C80.3993 18.6475 80.4639 18.4312 80.5754 18.2383C80.687 18.0455 80.8423 17.8816 81.029 17.76Z" fill="white"/>
<path d="M78.3109 19.326C78.6649 19.122 78.9529 19.287 78.9529 19.695C78.9406 19.9178 78.876 20.1346 78.7645 20.3279C78.653 20.5213 78.4976 20.6857 78.3109 20.808C77.9569 21.012 77.6689 20.847 77.6689 20.436C77.6813 20.2136 77.7459 19.9972 77.8574 19.8043C77.9689 19.6115 78.1243 19.4476 78.3109 19.326Z" fill="white"/>
<path d="M28.0459 54.057V53.127C28.0571 52.9189 28.1173 52.7165 28.2216 52.5361C28.3258 52.3557 28.4712 52.2025 28.6459 52.089L82.5829 20.964C82.9129 20.772 83.1829 20.928 83.1829 21.312V22.239C83.1714 22.4474 83.1112 22.6501 83.0069 22.831C82.9027 23.0118 82.7575 23.1656 82.5829 23.28L28.6459 54.402C28.3249 54.6 28.0459 54.441 28.0459 54.057Z" fill="#FAFAFA"/>
<path d="M81.8059 23.451C81.79 23.4541 81.7737 23.4541 81.7579 23.451C81.7283 23.436 81.7045 23.4118 81.6899 23.382C81.6753 23.3522 81.6707 23.3185 81.6769 23.286L81.7309 22.842L81.5239 22.692C81.5049 22.6783 81.4895 22.6603 81.4791 22.6394C81.4686 22.6185 81.4634 22.5953 81.4639 22.572C81.4643 22.5358 81.4725 22.5002 81.4881 22.4676C81.5036 22.4349 81.5261 22.4061 81.5539 22.383L81.8719 22.14C81.8784 22.1319 81.8834 22.1228 81.8869 22.113L82.0279 21.648C82.0368 21.6101 82.0565 21.5757 82.0848 21.5491C82.1131 21.5224 82.1486 21.5046 82.1869 21.498C82.2132 21.4953 82.2396 21.5011 82.2623 21.5147C82.285 21.5282 82.3027 21.5486 82.3129 21.573L82.4299 21.825L82.6999 21.723C82.7242 21.7121 82.7514 21.7095 82.7774 21.7155C82.8034 21.7214 82.8267 21.7356 82.8439 21.756C82.8654 21.7884 82.8769 21.8265 82.8769 21.8655C82.8769 21.9044 82.8654 21.9425 82.8439 21.975L82.6249 22.395C82.6228 22.4039 82.6228 22.4131 82.6249 22.422L82.6789 22.812C82.6818 22.8475 82.6772 22.8833 82.6653 22.9169C82.6534 22.9505 82.6345 22.9812 82.6099 23.007C82.5941 23.0243 82.5745 23.0376 82.5526 23.0459C82.5307 23.0543 82.5072 23.0574 82.4839 23.055L82.2259 23.025L81.9469 23.382C81.931 23.4043 81.9098 23.4223 81.8851 23.4343C81.8605 23.4464 81.8333 23.4521 81.8059 23.451ZM81.6529 22.551L81.8629 22.701C81.8848 22.7186 81.9015 22.7419 81.911 22.7684C81.9205 22.7949 81.9226 22.8234 81.9169 22.851L81.8809 23.151L82.0699 22.911C82.0858 22.8888 82.1071 22.8711 82.1318 22.8595C82.1565 22.848 82.1837 22.843 82.2109 22.845L82.4719 22.875C82.4741 22.8661 82.4741 22.8569 82.4719 22.848L82.4179 22.458C82.4121 22.4093 82.4215 22.3601 82.4449 22.317L82.6459 21.939L82.4389 22.02C82.4086 22.0321 82.3748 22.032 82.3446 22.0197C82.3144 22.0074 82.2901 21.9838 82.2769 21.954L82.1809 21.756L82.0549 22.167C82.0425 22.2143 82.0151 22.2564 81.9769 22.287L81.6589 22.533C81.6561 22.5376 81.654 22.5427 81.6529 22.548V22.551Z" fill="#455A64"/>
<g opacity="0.3">
<path d="M22.9251 56.436L21.9831 56.979L22.3401 56.289C22.3548 56.2629 22.3625 56.2334 22.3625 56.2035C22.3625 56.1735 22.3548 56.1441 22.3401 56.118C22.3131 56.085 22.2651 56.118 22.2321 56.169L21.7251 57.153C21.7188 57.1644 21.7138 57.1765 21.7101 57.189C21.7072 57.2059 21.7072 57.2231 21.7101 57.24C21.7067 57.2538 21.7067 57.2682 21.7101 57.282C21.7133 57.2901 21.7185 57.2973 21.7251 57.303L22.2351 57.696C22.2424 57.7016 22.2514 57.7046 22.2606 57.7046C22.2698 57.7046 22.2788 57.7016 22.2861 57.696C22.3124 57.6789 22.3325 57.6536 22.3431 57.624C22.3701 57.561 22.3671 57.489 22.3431 57.465L21.9861 57.189L22.9251 56.667C22.949 56.6481 22.9682 56.6238 22.9812 56.5963C22.9942 56.5687 23.0007 56.5385 23.0001 56.508C22.9971 56.442 22.9641 56.4 22.9251 56.436Z" fill="black"/>
<path d="M23.7081 55.98L24.6501 55.437L24.2901 55.161C24.2744 55.1374 24.2661 55.1098 24.2661 55.0815C24.2661 55.0532 24.2744 55.0256 24.2901 55.002C24.3171 54.936 24.3651 54.903 24.3951 54.927L24.9081 55.32V55.341C24.9099 55.356 24.9099 55.3711 24.9081 55.386C24.9095 55.402 24.9095 55.418 24.9081 55.434C24.9081 55.434 24.9081 55.461 24.9081 55.473L24.3951 56.454C24.3857 56.4777 24.3688 56.4977 24.3471 56.511C24.3434 56.5149 24.339 56.518 24.3341 56.5202C24.3292 56.5223 24.3239 56.5234 24.3186 56.5234C24.3132 56.5234 24.3079 56.5223 24.303 56.5202C24.2981 56.518 24.2937 56.5149 24.2901 56.511C24.2753 56.4855 24.2675 56.4565 24.2675 56.427C24.2675 56.3975 24.2753 56.3685 24.2901 56.343L24.6501 55.653L23.7081 56.196C23.6661 56.22 23.6331 56.196 23.6331 56.124C23.6349 56.0961 23.6425 56.0689 23.6554 56.0441C23.6683 56.0193 23.6862 55.9975 23.7081 55.98Z" fill="black"/>
<path d="M26.7951 53.268C26.7951 53.211 26.7411 53.22 26.7171 53.268L26.5881 53.586C26.3661 53.562 26.1021 53.775 25.9221 54.156C25.6881 54.651 25.6881 55.233 25.9221 55.458C25.9785 55.5109 26.0515 55.5426 26.1287 55.5475C26.2059 55.5524 26.2824 55.5303 26.3451 55.485C26.5326 55.3591 26.6787 55.1806 26.7651 54.972C26.7802 54.9471 26.7882 54.9186 26.7882 54.8895C26.7882 54.8604 26.7802 54.8319 26.7651 54.807C26.7381 54.777 26.6901 54.807 26.6601 54.867C26.4861 55.236 26.2011 55.401 26.0271 55.233C25.8531 55.065 25.8531 54.633 26.0271 54.261C26.1531 53.997 26.3271 53.841 26.4861 53.832L26.3871 54.069C26.3631 54.132 26.3871 54.189 26.4261 54.165L26.8101 53.913C26.8254 53.9005 26.8373 53.8843 26.8446 53.8659C26.852 53.8475 26.8545 53.8276 26.8521 53.808L26.7951 53.268Z" fill="black"/>
<path d="M37.2172 45L37.5622 44.274C37.5819 44.2393 37.5923 44.2 37.5923 44.16C37.5923 44.12 37.5819 44.0808 37.5622 44.046C37.5202 44.007 37.4542 44.046 37.4152 44.133L37.0702 44.859L36.7282 44.529C36.6862 44.49 36.6202 44.529 36.5812 44.613C36.5602 44.6468 36.5491 44.6858 36.5491 44.7255C36.5491 44.7653 36.5602 44.8042 36.5812 44.838L36.9232 45.171L36.5812 45.9C36.5602 45.9338 36.5491 45.9727 36.5491 46.0125C36.5491 46.0523 36.5602 46.0912 36.5812 46.125C36.5911 46.1339 36.6039 46.1388 36.6172 46.1388C36.6305 46.1388 36.6433 46.1339 36.6532 46.125C36.6855 46.102 36.7114 46.071 36.7282 46.035L37.0702 45.309L37.4152 45.639C37.4254 45.6473 37.4381 45.6518 37.4512 45.6518C37.4643 45.6518 37.477 45.6473 37.4872 45.639C37.5208 45.6174 37.547 45.586 37.5622 45.549C37.5817 45.5147 37.5919 45.476 37.5919 45.4365C37.5919 45.3971 37.5817 45.3583 37.5622 45.324L37.2172 45Z" fill="black"/>
<path d="M83.8912 20.637C83.8545 20.6376 83.8182 20.6282 83.7865 20.6096C83.7548 20.5911 83.7287 20.5643 83.7112 20.532C83.6839 20.4846 83.6765 20.4284 83.6905 20.3755C83.7046 20.3227 83.739 20.2776 83.7862 20.25L85.4752 19.275C85.5226 19.2477 85.5788 19.2403 85.6317 19.2544C85.6845 19.2684 85.7296 19.3028 85.7572 19.35C85.7732 19.3743 85.784 19.4016 85.7888 19.4303C85.7937 19.4589 85.7926 19.4883 85.7856 19.5165C85.7785 19.5447 85.7657 19.5711 85.7479 19.5941C85.7301 19.6171 85.7077 19.6361 85.6822 19.65L83.9932 20.625C83.9606 20.6371 83.9257 20.6413 83.8912 20.637Z" fill="black"/>
<path d="M83.8912 21.6C83.8545 21.6006 83.8182 21.5912 83.7865 21.5727C83.7548 21.5542 83.7287 21.5273 83.7112 21.495C83.6839 21.4476 83.6765 21.3914 83.6905 21.3386C83.7046 21.2857 83.739 21.2406 83.7862 21.213L85.4752 20.238C85.5226 20.2107 85.5788 20.2033 85.6317 20.2174C85.6845 20.2314 85.7296 20.2658 85.7572 20.313C85.7732 20.3373 85.784 20.3646 85.7888 20.3933C85.7937 20.4219 85.7926 20.4513 85.7856 20.4795C85.7785 20.5077 85.7657 20.5341 85.7479 20.5571C85.7301 20.5801 85.7077 20.5991 85.6822 20.613L83.9932 21.6C83.9597 21.6082 83.9247 21.6082 83.8912 21.6Z" fill="black"/>
<path d="M83.8912 22.587C83.8545 22.5876 83.8182 22.5782 83.7865 22.5597C83.7548 22.5412 83.7287 22.5143 83.7112 22.482C83.6839 22.4346 83.6765 22.3784 83.6905 22.3256C83.7046 22.2727 83.739 22.2276 83.7862 22.2L85.4752 21.225C85.5226 21.1977 85.5788 21.1903 85.6317 21.2044C85.6845 21.2184 85.7296 21.2528 85.7572 21.3C85.7732 21.3243 85.784 21.3516 85.7888 21.3803C85.7937 21.4089 85.7926 21.4383 85.7856 21.4665C85.7785 21.4947 85.7657 21.5211 85.7479 21.5441C85.7301 21.5671 85.7077 21.5861 85.6822 21.6L83.9932 22.575C83.9606 22.5872 83.9257 22.5913 83.8912 22.587Z" fill="black"/>
</g>
<path d="M20.1711 55.584V60.339L18.3831 59.313V54.564L20.1711 55.584Z" fill="#E0E0E0"/>
<path opacity="0.15" d="M20.1711 55.584V60.339L18.3831 59.313V54.564L20.1711 55.584Z" fill="#CFCFCF"/>
<path d="M31.7 78.951V86.472L26.642 89.4V81.87L31.7 78.951ZM31.7 78.693C31.6549 78.6933 31.6107 78.7046 31.571 78.726L26.525 81.645C26.4861 81.6684 26.4539 81.7014 26.4313 81.7408C26.4088 81.7801 26.3966 81.8246 26.396 81.87V89.4C26.396 89.4687 26.4231 89.5346 26.4714 89.5835C26.5197 89.6324 26.5853 89.6602 26.654 89.661C26.7004 89.6608 26.7459 89.6484 26.786 89.625L31.829 86.7C31.8684 86.6772 31.9012 86.6444 31.9238 86.6049C31.9465 86.5654 31.9583 86.5205 31.958 86.475V78.951C31.9583 78.9054 31.9465 78.8606 31.9238 78.8211C31.9012 78.7816 31.8684 78.7488 31.829 78.726C31.7893 78.7046 31.745 78.6933 31.7 78.693Z" fill="#459AE9"/>
<path d="M30.9411 80.661V82.839L30.7821 82.926V82.26C30.7821 81.99 30.6561 81.834 30.4821 81.834C30.4022 81.8362 30.3245 81.86 30.2571 81.903L29.5071 82.335V85.572C29.5071 85.911 29.6391 86.124 29.8071 86.124C29.8625 86.1227 29.9165 86.1061 29.9631 86.076L30.4251 85.8V86.031L27.8961 87.489V87.258L28.3641 86.988C28.5174 86.8611 28.6396 86.7007 28.7212 86.5192C28.8029 86.3377 28.8418 86.1399 28.8351 85.941V82.71L28.0881 83.142C27.9271 83.2506 27.7942 83.3959 27.7003 83.566C27.6065 83.736 27.5543 83.9259 27.5481 84.12V84.786L27.3891 84.882V82.704L30.9291 80.661M30.9291 80.4C30.8836 80.3998 30.839 80.4123 30.8001 80.436L27.2601 82.479C27.2207 82.5018 27.1879 82.5346 27.1653 82.5741C27.1426 82.6136 27.1308 82.6584 27.1311 82.704V84.882C27.1311 84.9278 27.1434 84.9729 27.1666 85.0124C27.1898 85.052 27.2231 85.0846 27.2631 85.107C27.301 85.1303 27.3446 85.1428 27.3891 85.143C27.4368 85.1421 27.4833 85.1287 27.5241 85.104L27.6831 85.008C27.721 84.9847 27.7522 84.9521 27.7738 84.9132C27.7953 84.8743 27.8065 84.8305 27.8061 84.786V84.12C27.8129 83.9711 27.8534 83.8256 27.9246 83.6947C27.9958 83.5637 28.0958 83.4506 28.2171 83.364L28.5771 83.157V85.947C28.5824 86.1005 28.5546 86.2534 28.4956 86.3952C28.4366 86.537 28.3477 86.6645 28.2351 86.769L27.7671 87.042C27.7277 87.064 27.6949 87.0963 27.6722 87.1353C27.6495 87.1744 27.6377 87.2188 27.6381 87.264V87.495C27.6375 87.5406 27.6492 87.5855 27.6719 87.6251C27.6946 87.6647 27.7274 87.6975 27.7671 87.72C27.806 87.7436 27.8506 87.756 27.8961 87.756C27.9416 87.756 27.9862 87.7436 28.0251 87.72L30.5541 86.262C30.593 86.2385 30.6252 86.2056 30.6478 86.1662C30.6703 86.1268 30.6825 86.0824 30.6831 86.037V85.8C30.6831 85.7313 30.656 85.6654 30.6077 85.6165C30.5594 85.5676 30.4938 85.5398 30.4251 85.539C30.3787 85.5392 30.3332 85.5516 30.2931 85.575L29.8251 85.845H29.8071C29.7541 85.7545 29.732 85.6492 29.7441 85.545V82.5L30.3621 82.143C30.3905 82.1229 30.4235 82.1105 30.4581 82.107C30.4881 82.107 30.5121 82.185 30.5121 82.275V82.941C30.5118 82.9865 30.5236 83.0314 30.5463 83.0709C30.5689 83.1104 30.6017 83.1432 30.6411 83.166C30.68 83.1897 30.7246 83.2022 30.7701 83.202C30.8142 83.2017 30.8575 83.1903 30.8961 83.169L31.0551 83.082C31.0949 83.0587 31.1281 83.0254 31.1512 82.9854C31.1743 82.9454 31.1867 82.9002 31.1871 82.854V80.676C31.1877 80.6304 31.176 80.5854 31.1534 80.5459C31.1307 80.5063 31.0978 80.4735 31.0581 80.451C31.0193 80.4273 30.9746 80.4148 30.9291 80.415V80.4Z" fill="#459AE9"/>
<path d="M45.833 81.9C45.8142 81.9037 45.7949 81.9037 45.776 81.9C45.7609 81.8927 45.7474 81.8824 45.7364 81.8698C45.7253 81.8571 45.7169 81.8424 45.7115 81.8265C45.7062 81.8106 45.7042 81.7937 45.7054 81.777C45.7067 81.7602 45.7114 81.7439 45.719 81.729L47.219 78.681C47.2417 78.6454 47.2715 78.615 47.3067 78.5918C47.3418 78.5685 47.3815 78.5529 47.423 78.546C47.4626 78.5417 47.5026 78.5454 47.5407 78.5567C47.5788 78.568 47.6143 78.5868 47.645 78.612L48.923 79.452L49.091 79.485L48.971 79.437L50.492 75.735C50.5122 75.697 50.5408 75.6643 50.5757 75.6392C50.6106 75.6141 50.6508 75.5975 50.6932 75.5905C50.7356 75.5835 50.779 75.5865 50.8201 75.599C50.8612 75.6116 50.8988 75.6335 50.93 75.663L52.826 77.619C52.8499 77.6437 52.863 77.6768 52.8624 77.7111C52.8619 77.7454 52.8477 77.7781 52.823 77.802C52.7984 77.8259 52.7652 77.839 52.7309 77.8384C52.6966 77.8378 52.6639 77.8237 52.64 77.799L50.747 75.849L49.211 79.536C49.1943 79.5754 49.1693 79.6108 49.1377 79.6398C49.1062 79.6688 49.0688 79.6907 49.028 79.704C48.9868 79.7159 48.9436 79.7189 48.9011 79.7127C48.8587 79.7065 48.8181 79.6912 48.782 79.668L47.459 78.804L45.959 81.843C45.9456 81.8635 45.9266 81.8797 45.9043 81.8898C45.882 81.8999 45.8573 81.9034 45.833 81.9Z" fill="#459AE9"/>
<path d="M52.6759 73.023V79.845L45.8539 83.787V76.965L52.6729 73.023M52.8679 72.627C52.8485 72.6274 52.8297 72.6337 52.8139 72.645L52.5559 72.795L45.7249 76.749C45.6907 76.7703 45.6627 76.8003 45.6439 76.836C45.6212 76.8708 45.6087 76.9114 45.6079 76.953V84.099C45.6079 84.153 45.6349 84.183 45.6739 84.183C45.6918 84.1818 45.7092 84.1766 45.7249 84.168L52.8289 80.064C52.8638 80.0414 52.8929 80.0108 52.9137 79.9749C52.9346 79.9389 52.9466 79.8985 52.9489 79.857V72.714C52.9489 72.66 52.9219 72.627 52.8829 72.627H52.8679Z" fill="#459AE9"/>
<path d="M47.993 77.868C47.9268 77.8692 47.8616 77.8527 47.804 77.82C47.7353 77.7742 47.6801 77.7107 47.6443 77.6363C47.6084 77.562 47.5931 77.4793 47.6 77.397C47.6086 77.2092 47.6622 77.0262 47.7561 76.8633C47.8501 76.7004 47.9817 76.5625 48.14 76.461C48.2055 76.409 48.285 76.3779 48.3684 76.3716C48.4518 76.3654 48.5351 76.3844 48.6075 76.4261C48.68 76.4678 48.7382 76.5304 48.7747 76.6056C48.8111 76.6808 48.8241 76.7653 48.812 76.848C48.8019 77.0359 48.7478 77.2188 48.654 77.3819C48.5602 77.545 48.4293 77.6838 48.272 77.787C48.1875 77.8374 48.0914 77.8653 47.993 77.868ZM48.419 76.635C48.3669 76.6389 48.3164 76.6554 48.272 76.683C48.1524 76.7618 48.0527 76.8673 47.9809 76.9912C47.909 77.1151 47.867 77.254 47.858 77.397C47.8471 77.4331 47.8486 77.4719 47.8624 77.507C47.8762 77.5421 47.9014 77.5716 47.934 77.5907C47.9665 77.6097 48.0046 77.6173 48.042 77.6121C48.0793 77.6069 48.1139 77.5892 48.14 77.562C48.2596 77.4832 48.3593 77.3777 48.4312 77.2538C48.503 77.1299 48.5451 76.991 48.554 76.848C48.5593 76.8113 48.5551 76.774 48.542 76.7393C48.5289 76.7047 48.5072 76.674 48.479 76.65C48.4622 76.6414 48.4438 76.6362 48.425 76.635H48.419Z" fill="#459AE9"/>
<path d="M74.3989 60.645C75.2239 60.645 75.7609 61.461 75.7609 62.727C75.7216 63.8912 75.3883 65.0264 74.7919 66.027C74.5796 66.4012 74.3314 66.7538 74.0509 67.08C73.7477 67.4437 73.3857 67.754 72.9799 67.998C72.698 68.1797 72.3729 68.2832 72.0379 68.298C71.2129 68.298 70.6759 67.482 70.6759 66.219C70.7153 65.0553 71.0475 63.9203 71.6419 62.919C72.0702 62.1197 72.6948 61.4424 73.4569 60.951C73.7389 60.7696 74.0639 60.6661 74.3989 60.651M74.3989 60.393C74.0197 60.4057 73.6505 60.5174 73.3279 60.717C72.5278 61.2319 71.8722 61.9423 71.4229 62.781C70.804 63.8229 70.4592 65.0047 70.4209 66.216C70.4209 67.68 71.0899 68.556 72.0409 68.556C72.4202 68.5441 72.7896 68.4323 73.1119 68.232C73.542 67.9731 73.9263 67.6446 74.2489 67.26C75.3285 65.9885 75.9534 64.3934 76.0249 62.727C76.0249 61.263 75.3559 60.387 74.4019 60.387L74.3989 60.393Z" fill="#459AE9"/>
<path d="M72.5209 63.6L74.5279 63.78L74.4829 63.84L72.4459 66.375V63.834C72.4424 63.792 72.4473 63.7497 72.4601 63.7095C72.473 63.6694 72.4937 63.6321 72.5209 63.6ZM72.5209 63.342C72.3379 63.342 72.1909 63.555 72.1909 63.834V66.6C72.1909 66.762 72.2419 66.843 72.3199 66.843C72.3979 66.843 72.4579 66.792 72.5419 66.687L74.6929 64.014C74.8849 63.771 74.8849 63.564 74.6929 63.546L72.5419 63.354L72.5209 63.342Z" fill="#459AE9"/>
<path d="M82.844 97.185L101.093 107.739V96.549L82.844 85.992V97.185Z" fill="#EBEBEB"/>
<path d="M113.741 100.437L101.093 107.739V96.549L113.741 89.244V100.437Z" fill="#F5F5F5"/>
<path d="M82.844 85.992L95.495 78.69L113.741 89.244L101.093 96.549L82.844 85.992Z" fill="#FAFAFA"/>
<path opacity="0.1" d="M92.354 95.247L101.093 100.293L106.334 97.266L101.093 100.605L92.354 95.247Z" fill="black"/>
<path opacity="0.1" d="M87.1101 95.04L101.093 103.11L111.578 97.059L101.093 103.416L87.1101 95.04Z" fill="black"/>
<path opacity="0.1" d="M84.5989 90.147C84.5989 90.147 84.2989 91.779 84.4549 92.604C84.4549 92.604 86.7439 92.547 90.6049 93.615L84.5989 90.147Z" fill="black"/>
<path d="M84.599 90.147L90.605 93.615L83.96 91.695L84.599 90.147Z" fill="#FAFAFA"/>
<path opacity="0.1" d="M92.354 99.819L98.939 105.873C98.939 105.873 99.122 105.042 100.385 104.457L92.354 99.819Z" fill="black"/>
<path d="M92.354 99.819L98.537 105.027L100.385 104.457L92.354 99.819Z" fill="#FAFAFA"/>
<path opacity="0.1" d="M111.635 93.696L111.578 93.615L107.417 96.015L112.1 95.631C112.183 94.951 112.018 94.2638 111.635 93.696Z" fill="black"/>
<path d="M107.417 96.015L111.578 93.615L112.964 94.344L107.417 96.015Z" fill="#FAFAFA"/>
<g opacity="0.3">
<path d="M86.0601 86.772C86.0251 86.7712 85.9914 86.7591 85.9639 86.7375C85.9364 86.7159 85.9166 86.686 85.9075 86.6523C85.8983 86.6185 85.9004 86.5827 85.9133 86.5502C85.9262 86.5177 85.9493 86.4903 85.9791 86.472L96.4641 80.418C96.5016 80.3972 96.5458 80.3918 96.5872 80.403C96.6287 80.4142 96.6641 80.4411 96.6861 80.478C96.6968 80.4965 96.7037 80.5169 96.7065 80.5381C96.7093 80.5593 96.7079 80.5809 96.7023 80.6015C96.6967 80.6221 96.6871 80.6415 96.674 80.6584C96.6609 80.6753 96.6447 80.6894 96.6261 80.7L86.1411 86.754C86.1156 86.7655 86.088 86.7716 86.0601 86.772Z" fill="#455A64"/>
<path d="M87.8062 87.78C87.7712 87.7792 87.7375 87.7671 87.71 87.7455C87.6825 87.7239 87.6627 87.694 87.6535 87.6603C87.6444 87.6265 87.6465 87.5907 87.6594 87.5582C87.6723 87.5258 87.6954 87.4983 87.7252 87.48L98.2252 81.426C98.2435 81.412 98.2647 81.4021 98.2872 81.3969C98.3097 81.3918 98.333 81.3915 98.3557 81.3961C98.3783 81.4007 98.3997 81.4101 98.4184 81.4236C98.4371 81.4372 98.4527 81.4546 98.4641 81.4746C98.4756 81.4947 98.4826 81.517 98.4847 81.54C98.4868 81.563 98.484 81.5862 98.4764 81.608C98.4688 81.6298 98.4567 81.6497 98.4408 81.6665C98.4249 81.6832 98.4056 81.6963 98.3842 81.705L87.8992 87.759C87.8711 87.7755 87.8386 87.7829 87.8062 87.78Z" fill="#455A64"/>
<path d="M89.5551 88.8C89.5268 88.8004 89.4989 88.7935 89.4742 88.7798C89.4495 88.7661 89.4287 88.7462 89.4141 88.722C89.3932 88.6845 89.3878 88.6403 89.399 88.5988C89.4102 88.5574 89.4371 88.5219 89.4741 88.5L99.9591 82.446C99.9776 82.4353 99.998 82.4283 100.019 82.4255C100.04 82.4228 100.062 82.4242 100.083 82.4298C100.103 82.4354 100.123 82.445 100.139 82.458C100.156 82.4711 100.17 82.4874 100.181 82.506C100.192 82.5243 100.199 82.5445 100.201 82.5654C100.204 82.5864 100.203 82.6077 100.197 82.6281C100.191 82.6485 100.182 82.6676 100.169 82.6842C100.156 82.7008 100.14 82.7147 100.121 82.725L89.6361 88.779C89.6114 88.793 89.5834 88.8002 89.5551 88.8Z" fill="#455A64"/>
<path d="M91.304 89.799C91.269 89.7982 91.2353 89.7861 91.2078 89.7645C91.1803 89.7429 91.1605 89.713 91.1514 89.6793C91.1422 89.6455 91.1443 89.6097 91.1572 89.5772C91.1701 89.5448 91.1932 89.5173 91.223 89.499L101.708 83.445C101.745 83.4243 101.789 83.419 101.83 83.4302C101.871 83.4415 101.906 83.4683 101.927 83.505C101.948 83.5422 101.954 83.5861 101.943 83.6275C101.933 83.6689 101.906 83.7046 101.87 83.727L91.37 89.781C91.3497 89.7922 91.3271 89.7984 91.304 89.799Z" fill="#455A64"/>
<path d="M93.05 90.807C93.0215 90.8068 92.9935 90.7993 92.9688 90.7851C92.9441 90.7709 92.9235 90.7505 92.909 90.726C92.8883 90.6889 92.883 90.6452 92.8942 90.6042C92.9054 90.5633 92.9323 90.5284 92.969 90.507L103.454 84.453C103.472 84.4423 103.493 84.4353 103.514 84.4326C103.535 84.4298 103.557 84.4312 103.577 84.4368C103.598 84.4424 103.617 84.452 103.634 84.4651C103.651 84.4781 103.665 84.4944 103.676 84.513C103.687 84.5313 103.694 84.5515 103.696 84.5725C103.699 84.5934 103.698 84.6147 103.692 84.6351C103.686 84.6555 103.677 84.6746 103.664 84.6912C103.651 84.7079 103.634 84.7217 103.616 84.732L93.116 90.786C93.0958 90.7979 93.0733 90.805 93.05 90.807Z" fill="#455A64"/>
<path d="M94.7991 91.818C94.7641 91.8172 94.7304 91.8051 94.7029 91.7835C94.6754 91.7619 94.6556 91.732 94.6465 91.6983C94.6374 91.6645 94.6394 91.6287 94.6523 91.5962C94.6652 91.5637 94.6883 91.5363 94.7181 91.518L105.203 85.464C105.24 85.447 105.281 85.4444 105.32 85.4565C105.358 85.4686 105.391 85.4947 105.411 85.5297C105.432 85.5646 105.438 85.6058 105.43 85.6453C105.421 85.6848 105.398 85.7196 105.365 85.743L94.8801 91.8C94.855 91.8127 94.8272 91.8189 94.7991 91.818Z" fill="#455A64"/>
<path d="M96.5451 92.826C96.5167 92.8253 96.489 92.8175 96.4644 92.8033C96.4397 92.7892 96.419 92.7692 96.4041 92.745C96.3834 92.7079 96.3781 92.6642 96.3893 92.6232C96.4005 92.5823 96.4274 92.5474 96.4641 92.526L106.949 86.472C106.967 86.4589 106.988 86.4499 107.01 86.4453C107.032 86.4408 107.055 86.4409 107.077 86.4457C107.099 86.4505 107.12 86.4598 107.138 86.473C107.157 86.4863 107.172 86.5032 107.183 86.5227C107.194 86.5422 107.202 86.5638 107.204 86.5862C107.206 86.6086 107.204 86.6312 107.197 86.6527C107.191 86.6742 107.18 86.6941 107.165 86.711C107.15 86.7279 107.132 86.7415 107.111 86.751L96.6261 92.805C96.6015 92.8193 96.5735 92.8265 96.5451 92.826Z" fill="#455A64"/>
<path d="M98.294 93.834C98.2654 93.8344 98.2372 93.8272 98.2124 93.8129C98.1875 93.7986 98.167 93.778 98.153 93.753C98.1423 93.7347 98.1354 93.7145 98.1327 93.6936C98.1299 93.6726 98.1314 93.6513 98.137 93.6309C98.1426 93.6105 98.1522 93.5914 98.1652 93.5748C98.1783 93.5582 98.1945 93.5443 98.213 93.534L108.713 87.48C108.731 87.4669 108.752 87.4579 108.774 87.4533C108.796 87.4488 108.819 87.4489 108.841 87.4537C108.863 87.4584 108.884 87.4678 108.902 87.481C108.92 87.4943 108.936 87.5112 108.947 87.5307C108.958 87.5502 108.965 87.5718 108.968 87.5942C108.97 87.6166 108.968 87.6392 108.961 87.6607C108.955 87.6822 108.943 87.7021 108.929 87.719C108.914 87.7359 108.895 87.7495 108.875 87.759L98.375 93.813C98.3503 93.827 98.3224 93.8342 98.294 93.834Z" fill="#455A64"/>
<path d="M100.04 94.845C100.005 94.8442 99.9714 94.8321 99.9438 94.8105C99.9163 94.7889 99.8965 94.759 99.8874 94.7253C99.8783 94.6915 99.8804 94.6557 99.8933 94.6232C99.9062 94.5907 99.9293 94.5633 99.9591 94.545L110.459 88.491C110.496 88.4703 110.54 88.465 110.581 88.4762C110.622 88.4874 110.657 88.5143 110.678 88.551C110.689 88.5693 110.696 88.5895 110.698 88.6105C110.701 88.6314 110.7 88.6527 110.694 88.6731C110.688 88.6935 110.679 88.7126 110.666 88.7292C110.653 88.7459 110.637 88.7597 110.618 88.77L100.133 94.824C100.105 94.8404 100.072 94.8477 100.04 94.845Z" fill="#455A64"/>
</g>
<path d="M75.0679 71.265L54.1579 83.34C54.0157 83.4327 53.8973 83.5576 53.8123 83.7046C53.7273 83.8515 53.6782 84.0165 53.6689 84.186V104.1C53.6782 104.27 53.7273 104.435 53.8123 104.583C53.8972 104.73 54.0156 104.856 54.1579 104.949L54.9619 105.411C55.1135 105.488 55.281 105.528 55.4509 105.528C55.6209 105.528 55.7884 105.488 55.9399 105.411L76.8499 93.336C76.992 93.2432 77.1103 93.1183 77.1953 92.9713C77.2802 92.8244 77.3294 92.6595 77.3389 92.49V72.576C77.3297 72.4061 77.2806 72.2407 77.1956 72.0932C77.1107 71.9458 76.9923 71.8203 76.8499 71.727L76.0459 71.265C75.8944 71.1881 75.7269 71.148 75.5569 71.148C75.387 71.148 75.2195 71.1881 75.0679 71.265Z" fill="#459AE9"/>
<path opacity="0.3" d="M75.0679 71.265L54.1579 83.34C54.0157 83.4327 53.8973 83.5576 53.8123 83.7046C53.7273 83.8515 53.6782 84.0165 53.6689 84.186V104.1C53.6782 104.27 53.7273 104.435 53.8123 104.583C53.8972 104.73 54.0156 104.856 54.1579 104.949L54.9619 105.411C55.1135 105.488 55.281 105.528 55.4509 105.528C55.6209 105.528 55.7884 105.488 55.9399 105.411L76.8499 93.336C76.992 93.2432 77.1103 93.1183 77.1953 92.9713C77.2802 92.8244 77.3294 92.6595 77.3389 92.49V72.576C77.3297 72.4061 77.2806 72.2407 77.1956 72.0932C77.1107 71.9458 76.9923 71.8203 76.8499 71.727L76.0459 71.265C75.8944 71.1881 75.7269 71.148 75.5569 71.148C75.387 71.148 75.2195 71.1881 75.0679 71.265Z" fill="black"/>
<path d="M77.321 72.429C77.258 72.225 77.072 72.162 76.85 72.294L55.94 84.369C55.7947 84.4585 55.6757 84.5848 55.5949 84.735L53.825 83.7C53.9049 83.5492 54.0241 83.4227 54.1699 83.334L75.083 71.259C75.2345 71.1821 75.402 71.142 75.572 71.142C75.7419 71.142 75.9094 71.1821 76.061 71.259L76.8619 71.724C76.9816 71.805 77.0839 71.909 77.1627 72.0301C77.2415 72.1512 77.2953 72.2868 77.321 72.429Z" fill="#459AE9"/>
<path opacity="0.2" d="M77.321 72.429C77.258 72.225 77.072 72.162 76.85 72.294L55.94 84.369C55.7947 84.4585 55.6757 84.5848 55.5949 84.735L53.825 83.7C53.9049 83.5492 54.0241 83.4227 54.1699 83.334L75.083 71.259C75.2345 71.1821 75.402 71.142 75.572 71.142C75.7419 71.142 75.9094 71.1821 76.061 71.259L76.8619 71.724C76.9816 71.805 77.0839 71.909 77.1627 72.0301C77.2415 72.1512 77.2953 72.2868 77.321 72.429Z" fill="black"/>
<path d="M76.8499 72.3L55.9399 84.378C55.7977 84.4707 55.6792 84.5956 55.5943 84.7426C55.5093 84.8895 55.4602 85.0545 55.4509 85.224V105.147C55.4509 105.447 55.6699 105.585 55.9399 105.429L76.8499 93.354C76.992 93.2612 77.1103 93.1363 77.1953 92.9893C77.2802 92.8424 77.3294 92.6775 77.3389 92.508V72.576C77.3389 72.264 77.1199 72.135 76.8499 72.3Z" fill="#459AE9"/>
<path d="M64.5861 96.351C64.0599 96.3537 63.5424 96.2171 63.0861 95.955C61.8321 95.229 61.1121 93.585 61.1121 91.44C61.1511 89.3219 61.7293 87.2486 62.7921 85.416C63.1387 84.817 63.5404 84.2515 63.9921 83.727C64.5619 83.0528 65.239 82.4771 65.9961 82.023C67.3431 81.246 68.6661 81.153 69.7161 81.759C70.9731 82.485 71.6931 84.129 71.6931 86.259C71.6549 88.3786 71.0755 90.4533 70.0101 92.286C69.2529 93.6822 68.147 94.8584 66.8001 95.7C66.1322 96.1081 65.3685 96.3327 64.5861 96.351ZM64.5351 84.204C64.1148 84.6931 63.7412 85.2204 63.4191 85.779C62.4194 87.5011 61.8743 89.4492 61.8351 91.44C61.8351 93.318 62.4351 94.74 63.4461 95.322C64.2621 95.793 65.3241 95.7 66.4461 95.058C67.675 94.2837 68.685 93.2075 69.3801 91.932C70.3801 90.2101 70.9252 88.2619 70.9641 86.271C70.9641 84.396 70.3641 82.971 69.3531 82.392C68.5371 81.921 67.4751 82.014 66.3531 82.656C65.6651 83.0672 65.0507 83.5904 64.5351 84.204Z" fill="white"/>
<path d="M69.194 87.723L65.087 92.823C64.718 93.282 64.418 93.21 64.418 92.658V87.405C64.418 86.85 64.718 86.43 65.087 86.463L69.194 86.829C69.563 86.862 69.563 87.264 69.194 87.723Z" fill="white"/>
<path d="M48.0859 87.558V105.711C48.0802 105.815 48.05 105.916 47.9979 106.006C47.9458 106.097 47.8732 106.173 47.7859 106.23L29.7409 116.655C29.5759 116.748 29.4409 116.673 29.4409 116.481V115.533L47.1229 105.318V87.765L47.7799 87.387C47.9509 87.3 48.0859 87.369 48.0859 87.558Z" fill="#263238"/>
<path d="M47.1258 87.765V105.318L29.4438 115.533V98.331C29.4442 98.2248 29.4743 98.1209 29.5308 98.031C29.5786 97.9371 29.6512 97.8583 29.7408 97.803L47.1258 87.765Z" fill="#459AE9"/>
<path opacity="0.8" d="M47.1258 87.765V105.318L29.4438 115.533V98.331C29.4442 98.2248 29.4743 98.1209 29.5308 98.031C29.5786 97.9371 29.6512 97.8583 29.7408 97.803L47.1258 87.765Z" fill="white"/>
<path d="M42.7639 95.271C42.7452 95.2534 42.7252 95.2373 42.7039 95.223H42.6889L41.5699 94.575C41.4855 94.5283 41.3866 94.5154 41.2931 94.5388C41.1995 94.5622 41.1184 94.6201 41.0659 94.701L37.0819 104.52L34.4359 102.78L34.3819 102.744L33.2749 102.105C33.1921 102.054 33.0926 102.036 32.9974 102.057C32.9022 102.078 32.8188 102.135 32.7649 102.216L28.8799 110.016V115.2L30.0049 115.851L47.3659 105.822C47.4645 105.766 47.5465 105.685 47.6035 105.587C47.6604 105.489 47.6902 105.377 47.6899 105.264V100.347L42.7639 95.271Z" fill="#459AE9"/>
<path opacity="0.15" d="M42.7639 95.271C42.7452 95.2534 42.7252 95.2373 42.7039 95.223H42.6889L41.5699 94.575C41.4855 94.5283 41.3866 94.5154 41.2931 94.5388C41.1995 94.5622 41.1184 94.6201 41.0659 94.701L37.0819 104.52L34.4359 102.78L34.3819 102.744L33.2749 102.105C33.1921 102.054 33.0926 102.036 32.9974 102.057C32.9022 102.078 32.8188 102.135 32.7649 102.216L28.8799 110.016V115.2L30.0049 115.851L47.3659 105.822C47.4645 105.766 47.5465 105.685 47.6035 105.587C47.6604 105.489 47.6902 105.377 47.6899 105.264V100.347L42.7639 95.271Z" fill="black"/>
<path d="M30.0049 115.857V110.667L33.8629 102.846C33.8925 102.801 33.9314 102.763 33.9769 102.734C34.0225 102.705 34.0737 102.686 34.1272 102.679C34.1806 102.672 34.235 102.676 34.2867 102.691C34.3384 102.706 34.3862 102.733 34.4269 102.768L38.1289 105.204L42.1819 95.337C42.2126 95.2903 42.2532 95.2509 42.3008 95.2216C42.3484 95.1923 42.4019 95.1739 42.4574 95.1676C42.513 95.1613 42.5692 95.1673 42.6222 95.1852C42.6751 95.203 42.7235 95.2323 42.7639 95.271L47.6899 100.347V105.27C47.6902 105.383 47.6604 105.495 47.6035 105.593C47.5465 105.691 47.4645 105.772 47.3659 105.828L30.0049 115.857Z" fill="#459AE9"/>
<path opacity="0.15" d="M38.1289 105.204L36.9619 108.045L37.7029 104.925L38.1289 105.204Z" fill="black"/>
<path d="M48.812 86.442V86.406C48.7939 86.317 48.7581 86.2325 48.7065 86.1578C48.6549 86.083 48.5888 86.0195 48.512 85.971L47.984 85.671C47.8911 85.6236 47.7882 85.5989 47.684 85.5989C47.5797 85.5989 47.4769 85.6236 47.384 85.671L28.055 96.834C27.9666 96.8905 27.8935 96.9677 27.842 97.059C27.7872 97.1498 27.7562 97.253 27.752 97.359V120.06C27.7577 120.164 27.7878 120.265 27.8399 120.355C27.8921 120.446 27.9647 120.522 28.052 120.579L28.577 120.879C28.6587 120.92 28.7478 120.944 28.8391 120.95C28.9303 120.955 29.0218 120.943 29.108 120.912H29.129L29.177 120.888L48.512 109.722C48.5993 109.664 48.6719 109.587 48.724 109.497C48.7761 109.406 48.8062 109.304 48.812 109.2V86.49C48.815 86.475 48.812 86.457 48.812 86.442ZM48.086 105.711C48.0798 105.815 48.0494 105.916 47.9973 106.006C47.9453 106.096 47.8729 106.173 47.786 106.23L29.741 116.655C29.576 116.748 29.441 116.673 29.441 116.481V98.331C29.4441 98.2252 29.474 98.122 29.528 98.031C29.5776 97.9401 29.65 97.8636 29.738 97.809L47.783 87.384C47.948 87.288 48.083 87.363 48.083 87.558L48.086 105.711Z" fill="#37474F"/>
<path d="M29.1109 120.915C29.0247 120.946 28.9333 120.958 28.842 120.953C28.7508 120.947 28.6616 120.923 28.5799 120.882L28.0549 120.582C27.9676 120.525 27.895 120.449 27.8429 120.358C27.7908 120.268 27.7606 120.167 27.7549 120.063V97.356C27.7578 97.2498 27.7889 97.1463 27.8449 97.056L28.9699 97.707C28.9155 97.7978 28.8856 97.9012 28.8829 98.007V120.708C28.8799 120.873 28.9789 120.954 29.1109 120.915Z" fill="#263238"/>
<path d="M48.8119 86.442C48.8107 86.43 48.8107 86.418 48.8119 86.406C48.7729 86.28 48.6559 86.238 48.5119 86.319L29.1799 97.5C29.093 97.5566 29.0206 97.6327 28.9685 97.7224C28.9164 97.812 28.8861 97.9125 28.8799 98.016V120.72C28.8799 120.885 28.9819 120.963 29.1109 120.927H29.1349L29.1829 120.903L48.5179 109.737C48.605 109.68 48.6775 109.603 48.7296 109.513C48.7817 109.423 48.8119 109.322 48.8179 109.218V86.442H48.8119ZM48.0859 105.711C48.0802 105.815 48.05 105.916 47.9979 106.006C47.9458 106.097 47.8731 106.173 47.7859 106.23L29.7409 116.655C29.5759 116.748 29.4409 116.673 29.4409 116.481V98.331C29.4412 98.2248 29.4714 98.1209 29.5279 98.031C29.5756 97.9372 29.6483 97.8583 29.7379 97.803L47.1229 87.759L47.7799 87.381C47.9479 87.282 48.0799 87.363 48.0799 87.552L48.0859 105.711Z" fill="#455A64"/>
<path d="M36.503 98.028L36.941 97.287L36.041 96.765C35.9038 96.7018 35.752 96.6765 35.6017 96.6918C35.4513 96.7071 35.3078 96.7624 35.186 96.852C34.8349 97.0829 34.5431 97.3934 34.3346 97.7583C34.1261 98.1232 34.0067 98.5322 33.986 98.952C33.9705 99.1007 33.9945 99.2508 34.0556 99.3873C34.1167 99.5237 34.2128 99.6416 34.334 99.729L35.201 100.23L35.618 99.525C36.0639 99.1321 36.3737 98.608 36.503 98.028Z" fill="#459AE9"/>
<path opacity="0.15" d="M36.503 98.028L36.941 97.287L36.041 96.765C35.9038 96.7018 35.752 96.6765 35.6017 96.6918C35.4513 96.7071 35.3078 96.7624 35.186 96.852C34.8349 97.0829 34.5431 97.3934 34.3346 97.7583C34.1261 98.1232 34.0067 98.5322 33.986 98.952C33.9705 99.1007 33.9945 99.2508 34.0556 99.3873C34.1167 99.5237 34.2128 99.6416 34.334 99.729L35.201 100.23L35.618 99.525C36.0639 99.1321 36.3737 98.608 36.503 98.028Z" fill="black"/>
<path d="M36.0708 97.362C36.7398 96.975 37.2708 97.29 37.2708 98.061C37.2495 98.4806 37.1298 98.8893 36.9213 99.2541C36.7129 99.6189 36.4215 99.9296 36.0708 100.161C35.4018 100.545 34.8708 100.233 34.8708 99.459C34.8926 99.0399 35.0126 98.6318 35.221 98.2676C35.4295 97.9033 35.7206 97.5931 36.0708 97.362Z" fill="#459AE9"/>
<path d="M81.1729 127.563L66.5929 135.981L50.1709 126.48L64.7539 118.062L81.1729 127.563Z" fill="#459AE9"/>
<path opacity="0.5" d="M81.1729 127.563L66.5929 135.981L50.1709 126.48L64.7539 118.062L81.1729 127.563Z" fill="black"/>
<path d="M64.7539 106.65V118.062L50.1709 126.48V115.068L64.7539 106.65Z" fill="#459AE9"/>
<path opacity="0.23" d="M64.7539 106.65V118.062L50.1709 126.48V115.068L64.7539 106.65Z" fill="black"/>
<path d="M81.1729 116.151V127.563L64.7539 118.062V106.65L81.1729 116.151Z" fill="#459AE9"/>
<path opacity="0.4" d="M81.1729 116.151V127.563L64.7539 118.062V106.65L81.1729 116.151Z" fill="black"/>
<path d="M64.7539 106.65L64.7749 100.332L81.1549 109.845L81.1729 116.151L64.7539 106.65Z" fill="#459AE9"/>
<path opacity="0.2" d="M64.7539 106.65L64.7749 100.332L81.1549 109.845L81.1729 116.151L64.7539 106.65Z" fill="black"/>
<path d="M50.1708 115.068L48.4338 109.335L63.0138 100.917L64.7538 106.65L50.1708 115.068Z" fill="#459AE9"/>
<path opacity="0.1" d="M50.1708 115.068L48.4338 109.335L63.0138 100.917L64.7538 106.65L50.1708 115.068Z" fill="black"/>
<path d="M53.6481 126.039C53.5642 125.981 53.4938 125.906 53.442 125.819C53.3902 125.731 53.3581 125.633 53.3481 125.532L52.1241 105.447C52.1231 105.348 52.1464 105.251 52.1919 105.164C52.2374 105.076 52.3038 105.002 52.3851 104.946L64.8861 97.77C64.9738 97.725 65.071 97.7015 65.1696 97.7015C65.2682 97.7015 65.3653 97.725 65.4531 97.77C65.5369 97.827 65.6072 97.9016 65.659 97.9887C65.7108 98.0758 65.7429 98.1732 65.7531 98.274L66.9771 118.374C66.9797 118.472 66.9571 118.57 66.9114 118.657C66.8658 118.744 66.7985 118.818 66.7161 118.872L54.2151 126.042C54.1269 126.086 54.0297 126.108 53.9312 126.108C53.8327 126.107 53.7358 126.084 53.6481 126.039Z" fill="#F0F0F0"/>
<path d="M54.2149 126.042L66.7249 118.866C66.8073 118.812 66.8746 118.738 66.9203 118.651C66.966 118.564 66.9886 118.466 66.9859 118.368L65.7619 98.268C65.7619 98.082 65.6149 98.001 65.4619 98.091L52.9609 105.267C52.8784 105.321 52.8112 105.396 52.7655 105.484C52.7199 105.571 52.6973 105.669 52.6999 105.768L53.9239 125.853C53.9209 126.054 54.0589 126.132 54.2149 126.042Z" fill="#FAFAFA"/>
<path d="M65.5729 98.214C65.5909 98.214 65.6029 98.259 65.6029 98.289L66.8269 118.389C66.8279 118.46 66.8115 118.53 66.7791 118.592C66.7466 118.655 66.6991 118.709 66.6409 118.749L54.1399 125.925C54.1244 125.935 54.107 125.941 54.0889 125.943C54.0709 125.943 54.0619 125.898 54.0589 125.868L52.8349 105.783C52.835 105.712 52.8522 105.642 52.8851 105.578C52.918 105.515 52.9656 105.461 53.0239 105.42L65.5249 98.232C65.5403 98.2223 65.5578 98.2161 65.5759 98.214M65.5759 98.067C65.5324 98.0681 65.49 98.0805 65.4529 98.103L52.9519 105.279C52.8694 105.333 52.8022 105.408 52.7565 105.496C52.7109 105.583 52.6883 105.681 52.6909 105.78L53.9149 125.865C53.9149 126 53.9959 126.078 54.0919 126.078C54.1362 126.077 54.1795 126.064 54.2179 126.042L66.7249 118.866C66.8073 118.812 66.8746 118.738 66.9203 118.651C66.966 118.564 66.9885 118.466 66.9859 118.368L65.7619 98.268C65.7619 98.133 65.6809 98.055 65.5819 98.055L65.5759 98.067Z" fill="#EBEBEB"/>
<path d="M54.176 126.06C54.0918 126.095 54.0009 126.112 53.9096 126.108C53.8184 126.105 53.7291 126.081 53.648 126.039C53.5641 125.981 53.4938 125.906 53.4419 125.819C53.3901 125.731 53.3581 125.633 53.348 125.532L52.124 105.447C52.1189 105.343 52.1427 105.239 52.193 105.147L52.763 105.48C52.7135 105.567 52.6896 105.665 52.694 105.765L53.918 125.865C53.921 126.039 54.038 126.117 54.176 126.06Z" fill="#E0E0E0"/>
<path d="M59.2609 103.644L63.6649 101.082C63.8029 101.004 63.9229 101.082 63.9319 101.238V101.343C63.9343 101.43 63.9143 101.516 63.8739 101.594C63.8335 101.671 63.7739 101.736 63.7009 101.784L59.2969 104.346C59.1589 104.424 59.0389 104.346 59.0299 104.19V104.085C59.0278 103.998 59.0479 103.912 59.0884 103.835C59.1288 103.757 59.1882 103.692 59.2609 103.644Z" fill="#E0E0E0"/>
<path d="M59.3658 105.393L63.7728 102.831C63.9108 102.753 64.0308 102.831 64.0398 102.99V103.092C64.0417 103.179 64.0214 103.265 63.981 103.342C63.9407 103.419 63.8814 103.485 63.8088 103.533L59.4018 106.095C59.2668 106.173 59.1468 106.095 59.1348 105.939V105.834C59.1333 105.747 59.1537 105.661 59.194 105.584C59.2344 105.507 59.2935 105.441 59.3658 105.393Z" fill="#E0E0E0"/>
<path d="M59.474 107.142L63.878 104.58C64.016 104.502 64.136 104.58 64.145 104.739V104.841C64.1474 104.928 64.1278 105.014 64.0879 105.091C64.048 105.168 63.9892 105.234 63.917 105.282L59.525 107.844C59.387 107.922 59.267 107.844 59.258 107.688V107.583C59.2545 107.497 59.2725 107.412 59.3102 107.335C59.3479 107.258 59.4042 107.192 59.474 107.142Z" fill="#E0E0E0"/>
<path d="M55.0249 113.298L64.0879 108.081C64.2259 108 64.3459 108.081 64.3549 108.237V108.339C64.3561 108.426 64.3357 108.512 64.2953 108.589C64.255 108.666 64.1961 108.732 64.1239 108.78L55.0699 114C54.9349 114.078 54.8149 114 54.8029 113.844V113.742C54.7996 113.655 54.8182 113.569 54.857 113.492C54.8958 113.414 54.9535 113.347 55.0249 113.298Z" fill="#E0E0E0"/>
<path d="M54.9231 111.549L63.9861 106.332C64.1241 106.251 64.2441 106.332 64.2531 106.488V106.59C64.2549 106.677 64.2347 106.763 64.1943 106.84C64.1539 106.917 64.0946 106.983 64.0221 107.031L54.9651 112.248C54.8271 112.326 54.7071 112.248 54.6981 112.092V111.99C54.695 111.903 54.7141 111.818 54.7535 111.74C54.7928 111.663 54.8512 111.597 54.9231 111.549Z" fill="#E0E0E0"/>
<path d="M55.1359 115.059L64.1989 109.842C64.3369 109.764 64.4569 109.842 64.4659 109.998V110.1C64.4683 110.187 64.4483 110.273 64.4079 110.351C64.3674 110.428 64.3079 110.493 64.2349 110.541L55.1719 115.758C55.0339 115.839 54.9139 115.758 54.9049 115.602V115.5C54.9031 115.413 54.9233 115.327 54.9637 115.25C55.0041 115.173 55.0633 115.107 55.1359 115.059Z" fill="#E0E0E0"/>
<path d="M55.244 116.808L64.307 111.6C64.445 111.522 64.562 111.6 64.574 111.756V111.858C64.5758 111.945 64.5555 112.031 64.5152 112.108C64.4748 112.185 64.4155 112.251 64.343 112.299L55.28 117.516C55.142 117.597 55.022 117.516 55.013 117.36V117.258C55.009 117.169 55.0282 117.081 55.0687 117.002C55.1092 116.923 55.1696 116.856 55.244 116.808Z" fill="#E0E0E0"/>
<path d="M55.349 118.557L64.412 113.34C64.55 113.262 64.67 113.34 64.679 113.496V113.598C64.6814 113.685 64.6614 113.771 64.621 113.849C64.5806 113.926 64.521 113.991 64.448 114.039L55.385 119.259C55.247 119.337 55.127 119.259 55.118 119.1V118.998C55.1162 118.911 55.1364 118.825 55.1768 118.748C55.2172 118.671 55.2765 118.605 55.349 118.557Z" fill="#E0E0E0"/>
<path d="M55.457 120.3L64.52 115.083C64.658 115.005 64.775 115.083 64.787 115.239V115.341C64.7885 115.428 64.7682 115.515 64.7278 115.592C64.6875 115.67 64.6284 115.736 64.556 115.785L55.493 121.002C55.355 121.08 55.235 121.002 55.226 120.846V120.741C55.2236 120.654 55.2436 120.568 55.2841 120.49C55.3245 120.413 55.384 120.348 55.457 120.3Z" fill="#E0E0E0"/>
<path d="M55.5619 122.055L64.6249 116.838C64.7629 116.76 64.8829 116.838 64.8919 116.994V117.096C64.894 117.183 64.8739 117.27 64.8335 117.348C64.7931 117.425 64.7337 117.491 64.6609 117.54L55.5979 122.757C55.4599 122.835 55.3429 122.757 55.3309 122.601V122.496C55.3291 122.409 55.3493 122.323 55.3897 122.246C55.4301 122.169 55.4893 122.103 55.5619 122.055Z" fill="#E0E0E0"/>
<path d="M54.4041 106.146L58.0641 104.049L58.3311 108.441L54.6711 110.535L54.4041 106.146Z" fill="#459AE9"/>
<path d="M54.998 106.599L55.079 107.916L55.193 107.85L55.169 107.445C55.1728 107.318 55.2083 107.194 55.2722 107.085C55.3362 106.975 55.4265 106.884 55.535 106.818L56.075 106.518L56.195 108.477C56.2043 108.603 56.1817 108.73 56.1293 108.845C56.0769 108.961 55.9963 109.061 55.895 109.137L55.556 109.332V109.473L57.386 108.426V108.285L57.047 108.48C56.858 108.588 56.693 108.465 56.678 108.207L56.558 106.248L57.101 105.948C57.314 105.825 57.5 105.906 57.515 106.128L57.539 106.533L57.653 106.467L57.572 105.15L54.998 106.599Z" fill="#FAFAFA"/>
<path d="M58.856 129.045C58.7721 128.987 58.7018 128.912 58.65 128.825C58.5982 128.737 58.5661 128.639 58.556 128.538L57.332 108.453C57.3294 108.354 57.352 108.256 57.3976 108.169C57.4433 108.081 57.5105 108.006 57.593 107.952L70.094 100.776C70.1817 100.731 70.2789 100.708 70.3775 100.708C70.4761 100.708 70.5733 100.731 70.661 100.776C70.7444 100.833 70.8144 100.908 70.8661 100.995C70.9179 101.082 70.9503 101.179 70.961 101.28L72.185 121.365C72.1856 121.464 72.1619 121.561 72.1158 121.649C72.0698 121.736 72.0028 121.811 71.921 121.866L59.42 129.042C59.3328 129.087 59.2363 129.11 59.1383 129.111C59.0404 129.111 58.9436 129.089 58.856 129.045Z" fill="#F0F0F0"/>
<path d="M59.4201 129.048L71.9211 121.872C72.0029 121.817 72.0699 121.742 72.1159 121.655C72.162 121.567 72.1857 121.47 72.1851 121.371L70.9611 101.286C70.9611 101.1 70.8141 101.019 70.6611 101.109L58.1571 108.3C58.0752 108.355 58.0083 108.43 57.9623 108.517C57.9162 108.605 57.8924 108.702 57.8931 108.801L59.1171 128.886C59.1291 129.057 59.2641 129.138 59.4201 129.048Z" fill="#FAFAFA"/>
<path d="M70.7811 101.22C70.7991 101.22 70.8081 101.265 70.8111 101.295L72.0351 121.395C72.0366 121.466 72.0205 121.537 71.988 121.6C71.9555 121.663 71.9078 121.718 71.8491 121.758L59.3481 128.934C59.3326 128.944 59.3152 128.95 59.2971 128.952C59.2791 128.952 59.2701 128.907 59.2671 128.877L58.0431 108.777C58.0415 108.706 58.0577 108.635 58.0902 108.572C58.1226 108.509 58.1704 108.454 58.2291 108.414L70.7301 101.238C70.7455 101.228 70.763 101.222 70.7811 101.22ZM70.7811 101.073C70.7376 101.074 70.6952 101.086 70.6581 101.109L58.1571 108.3C58.0752 108.355 58.0083 108.43 57.9623 108.517C57.9162 108.605 57.8924 108.702 57.8931 108.801L59.1171 128.886C59.1171 129.021 59.1981 129.099 59.2971 129.099C59.3405 129.098 59.3829 129.086 59.4201 129.063L71.9211 121.887C72.0029 121.832 72.0699 121.757 72.1159 121.67C72.162 121.582 72.1857 121.485 72.1851 121.386L70.9611 101.301C70.9611 101.166 70.8801 101.088 70.7811 101.088V101.073Z" fill="#EBEBEB"/>
<path d="M59.384 129.066C59.3 129.103 59.2087 129.119 59.1172 129.115C59.0257 129.111 58.9363 129.086 58.856 129.042C58.7719 128.985 58.7014 128.911 58.6495 128.824C58.5976 128.736 58.5657 128.639 58.556 128.538L57.332 108.453C57.3269 108.349 57.3507 108.245 57.401 108.153L57.968 108.486C57.9196 108.573 57.8957 108.672 57.899 108.771L59.123 128.871C59.129 129.042 59.246 129.123 59.384 129.066Z" fill="#E0E0E0"/>
<path d="M64.466 106.65L68.873 104.1C69.011 104.022 69.131 104.1 69.14 104.256V104.361C69.1423 104.448 69.1224 104.534 69.0819 104.612C69.0415 104.689 68.9819 104.754 68.909 104.802L64.505 107.364C64.367 107.442 64.247 107.364 64.238 107.208V107.103C64.2335 107.014 64.2521 106.926 64.2921 106.846C64.332 106.767 64.392 106.699 64.466 106.65Z" fill="#E0E0E0"/>
<path d="M64.5741 108.399L68.9811 105.837C69.1161 105.759 69.2361 105.837 69.2481 105.993V106.098C69.2499 106.185 69.2297 106.271 69.1893 106.348C69.1489 106.425 69.0897 106.491 69.0171 106.539L64.6251 109.101C64.4871 109.179 64.3671 109.101 64.3581 108.945V108.84C64.3546 108.754 64.3726 108.669 64.4103 108.592C64.448 108.515 64.5043 108.449 64.5741 108.399Z" fill="#E0E0E0"/>
<path d="M64.682 110.148L69.086 107.586C69.224 107.508 69.344 107.586 69.353 107.742V107.847C69.3578 107.936 69.3393 108.024 69.2993 108.104C69.2593 108.183 69.1992 108.251 69.125 108.3L64.721 110.862C64.583 110.94 64.463 110.862 64.454 110.706V110.601C64.4495 110.512 64.4682 110.424 64.5081 110.344C64.5481 110.265 64.608 110.197 64.682 110.148Z" fill="#E0E0E0"/>
<path d="M60.2359 116.304L69.2989 111.084C69.4369 111.006 69.5569 111.084 69.5659 111.243V111.345C69.5683 111.432 69.5483 111.518 69.5078 111.596C69.4674 111.673 69.4079 111.738 69.3349 111.786L60.2779 117C60.1399 117.078 60.0199 117 60.0109 116.844V116.742C60.0089 116.656 60.0285 116.571 60.0678 116.494C60.1071 116.418 60.1648 116.352 60.2359 116.304Z" fill="#E0E0E0"/>
<path d="M60.1249 114.552L69.1909 109.335C69.3259 109.257 69.4459 109.335 69.4579 109.491V109.596C69.4597 109.683 69.4395 109.769 69.3991 109.846C69.3587 109.923 69.2995 109.989 69.2269 110.037L60.1639 115.254C60.0259 115.332 59.9059 115.254 59.8969 115.098V114.996C59.8948 114.909 59.9145 114.823 59.9544 114.745C59.9942 114.667 60.0528 114.601 60.1249 114.552Z" fill="#E0E0E0"/>
<path d="M60.344 118.065L69.407 112.848C69.545 112.77 69.665 112.848 69.674 113.004V113.106C69.6758 113.193 69.6556 113.279 69.6152 113.356C69.5748 113.433 69.5156 113.499 69.443 113.547L60.38 118.764C60.242 118.845 60.122 118.764 60.113 118.608V118.506C60.1106 118.419 60.1306 118.333 60.171 118.255C60.2115 118.178 60.271 118.113 60.344 118.065Z" fill="#E0E0E0"/>
<path d="M60.449 119.814L69.512 114.6C69.65 114.522 69.77 114.6 69.782 114.756V114.858C69.7838 114.945 69.7635 115.031 69.7232 115.108C69.6828 115.185 69.6235 115.251 69.551 115.299L60.485 120.516C60.35 120.597 60.23 120.516 60.218 120.36V120.258C60.2156 120.17 60.2356 120.084 60.276 120.006C60.3164 119.928 60.3759 119.862 60.449 119.814Z" fill="#E0E0E0"/>
<path d="M60.557 121.563L69.62 116.346C69.758 116.268 69.878 116.346 69.887 116.502V116.604C69.8889 116.691 69.8686 116.777 69.8282 116.854C69.7879 116.931 69.7286 116.997 69.656 117.045L60.593 122.262C60.455 122.343 60.335 122.262 60.326 122.106V122.004C60.3242 121.917 60.3445 121.831 60.3848 121.754C60.4252 121.677 60.4845 121.611 60.557 121.563Z" fill="#E0E0E0"/>
<path d="M60.662 123.3L69.725 118.095C69.86 118.017 69.98 118.095 69.992 118.251V118.353C69.9938 118.44 69.9736 118.526 69.9332 118.603C69.8928 118.68 69.8336 118.746 69.761 118.794L60.695 124.011C60.56 124.092 60.44 124.011 60.428 123.855V123.753C60.425 123.664 60.445 123.575 60.486 123.496C60.5269 123.417 60.5875 123.349 60.662 123.3Z" fill="#E0E0E0"/>
<path d="M60.7699 125.061L69.8329 119.844C69.9709 119.766 70.0909 119.844 70.0999 120V120.102C70.1023 120.189 70.0823 120.275 70.0419 120.353C70.0014 120.43 69.9419 120.495 69.8689 120.543L60.8119 125.76C60.6739 125.841 60.5539 125.76 60.5449 125.604V125.502C60.5424 125.416 60.5617 125.33 60.601 125.253C60.6404 125.176 60.6984 125.11 60.7699 125.061Z" fill="#E0E0E0"/>
<path d="M59.6121 109.152L63.2721 107.055L63.5391 111.447L59.8791 113.541L59.6121 109.152Z" fill="#459AE9"/>
<path d="M60.2061 109.605L60.2871 110.922L60.4011 110.856L60.3771 110.451C60.38 110.324 60.4151 110.2 60.4791 110.09C60.5431 109.981 60.634 109.889 60.7431 109.824L61.2831 109.524L61.4031 111.48C61.4123 111.607 61.3897 111.734 61.3373 111.85C61.2849 111.965 61.2044 112.066 61.1031 112.143L60.7641 112.338V112.479L62.5941 111.432V111.291L62.2551 111.486C62.0661 111.594 61.9011 111.486 61.8861 111.213L61.7661 109.254L62.3061 108.954C62.5221 108.831 62.7081 108.912 62.7231 109.134L62.7471 109.536L62.8611 109.473L62.7801 108.156L60.2061 109.605Z" fill="#FAFAFA"/>
<path d="M64.0489 132.048C63.9653 131.99 63.8952 131.915 63.8434 131.827C63.7916 131.74 63.7593 131.642 63.7489 131.541L62.5249 111.441C62.5222 111.342 62.5448 111.244 62.5905 111.157C62.6362 111.069 62.7034 110.994 62.7859 110.94L75.2869 103.764C75.3746 103.719 75.4718 103.695 75.5704 103.695C75.669 103.695 75.7661 103.719 75.8539 103.764C75.9372 103.821 76.0072 103.896 76.059 103.983C76.1108 104.07 76.1432 104.167 76.1539 104.268L77.3779 124.353C77.3785 124.452 77.3547 124.549 77.3087 124.637C77.2626 124.724 77.1957 124.799 77.1139 124.854L64.6249 132.051C64.5355 132.096 64.4367 132.12 64.3365 132.119C64.2363 132.119 64.1377 132.094 64.0489 132.048Z" fill="#F0F0F0"/>
<path d="M64.625 132.051L77.126 124.875C77.2079 124.82 77.2748 124.745 77.3208 124.658C77.3669 124.57 77.3907 124.473 77.39 124.374L76.166 104.289C76.166 104.103 76.016 104.022 75.866 104.112L63.353 111.3C63.27 111.354 63.2022 111.429 63.156 111.516C63.1098 111.604 63.0867 111.702 63.089 111.801L64.325 131.874C64.325 132.06 64.46 132.141 64.625 132.051Z" fill="#FAFAFA"/>
<path d="M75.977 104.223C75.995 104.223 76.004 104.268 76.007 104.298L77.225 124.383C77.2258 124.454 77.2093 124.524 77.1769 124.587C77.1445 124.651 77.0971 124.705 77.039 124.746L64.538 131.922C64.5226 131.932 64.5051 131.938 64.487 131.94C64.469 131.94 64.457 131.895 64.457 131.865L63.233 111.765C63.232 111.694 63.2484 111.624 63.2808 111.562C63.3133 111.499 63.3608 111.445 63.419 111.405L75.92 104.229C75.9355 104.219 75.9529 104.213 75.971 104.211M75.971 104.064C75.9276 104.065 75.8852 104.077 75.848 104.1L63.353 111.3C63.27 111.354 63.2022 111.429 63.156 111.516C63.1098 111.604 63.0867 111.702 63.089 111.801L64.325 131.874C64.325 132.009 64.406 132.087 64.505 132.087C64.5485 132.086 64.5909 132.074 64.628 132.051L77.129 124.875C77.2109 124.82 77.2778 124.745 77.3238 124.658C77.3699 124.57 77.3937 124.473 77.393 124.374L76.169 104.289C76.169 104.154 76.088 104.076 75.989 104.076L75.971 104.064Z" fill="#EBEBEB"/>
<path d="M64.58 132.069C64.4952 132.105 64.4036 132.121 64.3118 132.117C64.2199 132.113 64.1302 132.088 64.049 132.045C63.9654 131.988 63.8953 131.913 63.8435 131.826C63.7917 131.739 63.7595 131.642 63.749 131.541L62.525 111.441C62.5205 111.337 62.5433 111.234 62.591 111.141L63.1609 111.474C63.1125 111.561 63.0887 111.659 63.092 111.759L64.316 131.859C64.325 132.045 64.442 132.126 64.58 132.069Z" fill="#E0E0E0"/>
<path d="M69.6619 109.653L74.0689 107.1C74.2069 107.022 74.3269 107.1 74.3359 107.256V107.361C74.3377 107.448 74.3175 107.534 74.2771 107.611C74.2367 107.688 74.1775 107.754 74.1049 107.802L69.7009 110.364C69.5629 110.442 69.4429 110.364 69.4309 110.208V110.103C69.4281 110.015 69.4479 109.927 69.4883 109.848C69.5287 109.769 69.5884 109.702 69.6619 109.653Z" fill="#E0E0E0"/>
<path d="M69.7699 111.402L74.1739 108.84C74.3119 108.762 74.4319 108.84 74.4439 108.996V109.101C74.4457 109.188 74.4255 109.274 74.3851 109.351C74.3447 109.428 74.2855 109.494 74.2129 109.542L69.8059 112.104C69.6679 112.182 69.5479 112.104 69.5389 111.948V111.843C69.5371 111.756 69.5573 111.67 69.5977 111.593C69.6381 111.516 69.6974 111.45 69.7699 111.402Z" fill="#E0E0E0"/>
<path d="M69.875 113.151L74.282 110.589C74.42 110.511 74.54 110.589 74.549 110.745V110.85C74.5514 110.937 74.5314 111.023 74.491 111.101C74.4505 111.178 74.391 111.243 74.318 111.291L69.914 113.853C69.776 113.931 69.656 113.853 69.647 113.697V113.592C69.6459 113.505 69.6662 113.42 69.7059 113.343C69.7457 113.266 69.8038 113.2 69.875 113.151Z" fill="#E0E0E0"/>
<path d="M65.4318 119.304L74.4948 114.087C74.6328 114.009 74.7528 114.087 74.7618 114.243V114.348C74.7642 114.435 74.7442 114.521 74.7038 114.599C74.6634 114.676 74.6038 114.741 74.5308 114.789L65.4738 120C65.3358 120.078 65.2158 120 65.2068 119.844V119.742C65.2057 119.656 65.2256 119.571 65.2648 119.495C65.304 119.419 65.3614 119.353 65.4318 119.304Z" fill="#E0E0E0"/>
<path d="M65.324 117.555L74.39 112.338C74.525 112.26 74.645 112.338 74.657 112.494V112.599C74.6589 112.686 74.6386 112.772 74.5982 112.849C74.5578 112.926 74.4986 112.992 74.426 113.04L65.363 118.257C65.225 118.335 65.105 118.257 65.093 118.101V117.999C65.0923 117.912 65.113 117.826 65.1533 117.748C65.1936 117.671 65.2522 117.604 65.324 117.555Z" fill="#E0E0E0"/>
<path d="M65.54 121.068L74.603 115.851C74.741 115.77 74.861 115.851 74.87 116.007V116.109C74.8718 116.196 74.8516 116.282 74.8112 116.359C74.7708 116.436 74.7116 116.502 74.639 116.55L65.576 121.767C65.438 121.848 65.318 121.767 65.309 121.611V121.509C65.3066 121.422 65.3266 121.336 65.3671 121.258C65.4075 121.181 65.4671 121.116 65.54 121.068Z" fill="#E0E0E0"/>
<path d="M65.6449 122.817L74.7079 117.6C74.8459 117.522 74.9659 117.6 74.9749 117.756V117.858C74.9774 117.945 74.9577 118.031 74.9178 118.108C74.878 118.185 74.8191 118.251 74.7469 118.299L65.6809 123.516C65.5459 123.597 65.4259 123.516 65.4139 123.36V123.258C65.4121 123.171 65.4323 123.085 65.4727 123.008C65.5131 122.931 65.5724 122.865 65.6449 122.817Z" fill="#E0E0E0"/>
<path d="M65.7529 124.566L74.8249 119.349C74.9629 119.271 75.0829 119.349 75.0919 119.505V119.607C75.0937 119.694 75.0735 119.78 75.0331 119.857C74.9927 119.934 74.9335 120 74.8609 120.048L65.7949 125.265C65.6569 125.346 65.5369 125.265 65.5279 125.109V125.007C65.5249 124.92 65.5439 124.835 65.5833 124.757C65.6227 124.68 65.681 124.614 65.7529 124.566Z" fill="#E0E0E0"/>
<path d="M65.8579 126.315L74.9209 121.098C75.0589 121.02 75.1789 121.098 75.1879 121.254V121.356C75.1891 121.443 75.1687 121.529 75.1283 121.606C75.088 121.683 75.029 121.749 74.9569 121.797L65.8909 127.014C65.7559 127.095 65.6359 127.014 65.6239 126.858V126.756C65.6224 126.669 65.643 126.582 65.684 126.505C65.7249 126.428 65.7847 126.363 65.8579 126.315Z" fill="#E0E0E0"/>
<path d="M65.9661 128.064L75.0291 122.847C75.1671 122.769 75.2871 122.847 75.2961 123.003V123.105C75.2979 123.192 75.2776 123.278 75.2373 123.355C75.1969 123.432 75.1376 123.498 75.0651 123.546L66.0021 128.763C65.8641 128.844 65.7441 128.763 65.7351 128.607V128.505C65.7327 128.418 65.7527 128.332 65.7931 128.254C65.8335 128.177 65.8931 128.112 65.9661 128.064Z" fill="#E0E0E0"/>
<path d="M64.8049 112.155L68.4679 110.058L68.7349 114.45L65.0749 116.544L64.8049 112.155Z" fill="#459AE9"/>
<path d="M65.4019 112.608L65.4829 113.925L65.5969 113.856L65.5729 113.454C65.5758 113.327 65.6109 113.203 65.6749 113.093C65.7389 112.984 65.8298 112.892 65.9389 112.827L66.4789 112.527L66.5989 114.483C66.6081 114.61 66.5855 114.737 66.5331 114.853C66.4807 114.968 66.4002 115.069 66.2989 115.146L65.9599 115.341V115.482L67.7899 114.435V114.294L67.4479 114.489C67.2619 114.597 67.0969 114.474 67.0819 114.216L66.9619 112.257L67.5019 111.957C67.7179 111.834 67.9039 111.915 67.9159 112.137L67.9429 112.539L68.0569 112.476L67.9759 111.159L65.4019 112.608Z" fill="#FAFAFA"/>
<path d="M66.5929 124.569V135.981L50.1709 126.48V115.068L66.5929 124.569Z" fill="#459AE9"/>
<path opacity="0.38" d="M66.5929 124.569V135.981L50.1709 126.48V115.068L66.5929 124.569Z" fill="black"/>
<path d="M81.173 127.563V116.151L66.593 124.569V135.981L81.173 127.563Z" fill="#459AE9"/>
<path opacity="0.23" d="M81.173 127.563V116.151L66.593 124.569V135.981L81.173 127.563Z" fill="black"/>
<path opacity="0.7" d="M81.173 116.151L66.593 124.569V135.981L66.863 124.797L81.173 116.151Z" fill="white"/>
<path d="M66.593 124.569L67.961 119.043L82.409 110.7L81.173 116.151L66.593 124.569Z" fill="#459AE9"/>
<path opacity="0.3" d="M66.593 124.569L67.961 119.043L82.409 110.7L81.173 116.151L66.593 124.569Z" fill="black"/>
<path d="M50.1709 115.068L46.7419 110.331L63.1639 119.832L66.5929 124.569L50.1709 115.068Z" fill="#459AE9"/>
<path opacity="0.45" d="M50.1709 115.068L46.7419 110.331L63.1639 119.832L66.5929 124.569L50.1709 115.068Z" fill="black"/>
<path opacity="0.7" d="M46.7419 110.331L63.1639 119.832L66.5929 124.569L62.9809 119.997L46.7419 110.331Z" fill="white"/>
<g opacity="0.7">
<path d="M70.8859 132.6C70.8741 132.6 70.8624 132.598 70.8515 132.593C70.8405 132.589 70.8306 132.582 70.8223 132.574C70.8139 132.565 70.8073 132.555 70.8027 132.544C70.7982 132.534 70.7959 132.522 70.7959 132.51V130.5C70.7959 130.476 70.8054 130.453 70.8223 130.436C70.8391 130.419 70.862 130.41 70.8859 130.41C70.9095 130.411 70.932 130.42 70.9487 130.437C70.9654 130.454 70.9751 130.476 70.9759 130.5V132.51C70.9751 132.534 70.9654 132.556 70.9487 132.573C70.932 132.59 70.9095 132.599 70.8859 132.6Z" fill="white"/>
<path d="M70.625 131.184H70.592C70.5808 131.179 70.5707 131.173 70.5622 131.164C70.5537 131.156 70.547 131.145 70.5426 131.134C70.5381 131.123 70.5359 131.111 70.5362 131.099C70.5364 131.087 70.539 131.075 70.544 131.064L70.862 130.329L71.219 130.74C71.2355 130.757 71.2447 130.779 71.2447 130.803C71.2447 130.827 71.2355 130.849 71.219 130.866C71.2108 130.875 71.2011 130.881 71.1902 130.886C71.1794 130.891 71.1678 130.893 71.156 130.893C71.1442 130.893 71.1325 130.891 71.1217 130.886C71.1109 130.881 71.1011 130.875 71.093 130.866L70.922 130.671L70.718 131.145C70.7079 131.16 70.6937 131.171 70.6772 131.178C70.6607 131.185 70.6426 131.187 70.625 131.184Z" fill="white"/>
<path d="M71.714 132.114C71.6902 132.114 71.6673 132.105 71.6504 132.088C71.6335 132.071 71.624 132.048 71.624 132.024V130.017C71.6248 129.993 71.6345 129.971 71.6512 129.954C71.6679 129.937 71.6904 129.928 71.714 129.927C71.7258 129.927 71.7375 129.929 71.7485 129.934C71.7594 129.938 71.7693 129.945 71.7777 129.953C71.786 129.962 71.7926 129.972 71.7972 129.983C71.8017 129.993 71.804 130.005 71.804 130.017V132.024C71.8044 132.036 71.8024 132.048 71.798 132.059C71.7936 132.07 71.787 132.08 71.7786 132.089C71.7702 132.097 71.7601 132.104 71.749 132.108C71.7378 132.112 71.726 132.114 71.714 132.114Z" fill="white"/>
<path d="M71.4531 130.713H71.4171C71.3953 130.704 71.378 130.686 71.369 130.664C71.3601 130.642 71.3601 130.618 71.3691 130.596L71.6901 129.861L72.0441 130.269C72.0526 130.277 72.0594 130.287 72.064 130.298C72.0687 130.309 72.0711 130.32 72.0711 130.332C72.0711 130.344 72.0687 130.355 72.064 130.366C72.0594 130.377 72.0526 130.387 72.0441 130.395C72.0272 130.411 72.0046 130.421 71.9811 130.421C71.9575 130.421 71.9349 130.411 71.9181 130.395L71.7501 130.197L71.5431 130.674C71.5334 130.688 71.5198 130.7 71.5038 130.707C71.4879 130.714 71.4702 130.716 71.4531 130.713Z" fill="white"/>
</g>
<g opacity="0.7">
<path d="M68.4949 133.95C68.4611 133.95 68.4279 133.941 68.3989 133.923C68.3632 133.901 68.3343 133.869 68.3153 133.832C68.2962 133.794 68.2878 133.752 68.2909 133.71V133.464C68.2905 133.452 68.2925 133.44 68.2969 133.429C68.3013 133.418 68.3079 133.408 68.3163 133.399C68.3248 133.391 68.3349 133.384 68.346 133.38C68.3571 133.376 68.369 133.374 68.3809 133.374C68.4048 133.374 68.4277 133.383 68.4446 133.4C68.4614 133.417 68.4709 133.44 68.4709 133.464V133.71C68.4687 133.731 68.474 133.752 68.4859 133.77C68.5075 133.772 68.5288 133.765 68.5459 133.752C68.6011 133.7 68.6444 133.638 68.6729 133.568C68.7014 133.498 68.7143 133.422 68.7109 133.347V132.321C68.7109 132.297 68.7204 132.274 68.7373 132.257C68.7542 132.24 68.777 132.231 68.8009 132.231C68.8128 132.231 68.8247 132.233 68.8358 132.237C68.847 132.241 68.857 132.248 68.8655 132.256C68.8739 132.265 68.8805 132.275 68.8849 132.286C68.8893 132.297 68.8913 132.309 68.8909 132.321V133.347C68.8957 133.454 68.8752 133.561 68.8308 133.658C68.7865 133.756 68.7197 133.841 68.6359 133.908C68.5935 133.934 68.5448 133.949 68.4949 133.95Z" fill="white"/>
<path d="M67.553 133.122V132.966C67.5747 132.568 67.6898 132.181 67.8889 131.836C68.088 131.491 68.3655 131.198 68.699 130.98C68.8187 130.879 68.9668 130.817 69.1229 130.803C69.2791 130.79 69.4357 130.825 69.5711 130.904C69.7066 130.983 69.8143 131.102 69.8794 131.244C69.9446 131.387 69.964 131.546 69.935 131.7V131.754L67.553 133.122ZM69.236 130.998C69.0774 131.004 68.9232 131.051 68.789 131.136C68.504 131.323 68.2627 131.568 68.0815 131.857C67.9003 132.145 67.7835 132.469 67.739 132.807L69.755 131.643C69.7619 131.53 69.7399 131.417 69.6911 131.314C69.6422 131.212 69.5682 131.124 69.476 131.058C69.4024 131.018 69.3198 130.997 69.236 130.998Z" fill="white"/>
</g>
<path d="M115.925 111.705C115.805 111.705 115.808 112.047 115.844 112.2C115.88 112.353 116.351 112.875 117.209 113.082C118.067 113.289 119.264 113.163 119.777 113.16C120.29 113.157 121.166 113.43 121.673 113.52C122.18 113.61 123.104 113.466 123.416 113.19C123.467 113.134 123.506 113.067 123.53 112.995C123.554 112.922 123.562 112.846 123.554 112.77C123.554 112.431 123.527 112.362 123.488 112.362L115.925 111.705Z" fill="#37474F"/>
<path d="M123.407 111.348C123.422 111.417 123.434 111.483 123.443 111.552C123.507 111.896 123.517 112.249 123.473 112.596C123.404 112.71 123.312 112.809 123.202 112.885C123.093 112.961 122.968 113.013 122.837 113.037C122.266 113.186 121.664 113.172 121.1 112.998C120.672 112.881 120.23 112.821 119.786 112.818C119.192 112.86 118.595 112.86 118.001 112.818C117.554 112.779 117.116 112.671 116.702 112.497C116.37 112.343 116.1 112.082 115.934 111.756C115.921 111.513 115.983 111.272 116.11 111.064C116.238 110.857 116.425 110.693 116.648 110.595C117.066 110.405 117.526 110.325 117.983 110.364C118.484 110.385 118.856 110.466 119.3 110.451C119.609 110.457 119.917 110.395 120.2 110.271C120.334 110.175 120.438 110.043 120.5 109.89C120.575 109.734 120.608 109.59 120.749 109.59C120.749 109.59 122.849 109.626 123.05 109.653C123.251 109.68 123.302 110.529 123.326 110.694C123.35 110.859 123.344 110.961 123.371 111.087C123.398 111.213 123.392 111.264 123.407 111.348Z" fill="#455A64"/>
<path d="M118.925 110.364C118.892 110.343 118.855 110.328 118.817 110.319C118.616 110.28 118.454 110.475 118.361 110.619C118.31 110.714 118.27 110.815 118.244 110.919C118.2 111.045 118.192 111.182 118.223 111.312C118.223 111.345 118.256 111.384 118.289 111.378C118.322 111.372 118.328 111.333 118.334 111.303C118.358 111.118 118.416 110.939 118.505 110.775C118.537 110.704 118.582 110.64 118.637 110.586C118.696 110.531 118.767 110.49 118.844 110.466C118.874 110.466 119.009 110.466 118.979 110.4L118.952 110.373L118.925 110.364Z" fill="#FAFAFA"/>
<path d="M119.504 110.4C119.409 110.387 119.312 110.41 119.234 110.466C119.153 110.535 119.093 110.625 119.063 110.727C119.009 110.832 118.978 110.946 118.972 111.063C118.965 111.181 118.983 111.298 119.024 111.408C119.06 111.471 119.114 111.438 119.138 111.384C119.156 111.315 119.166 111.245 119.168 111.174C119.198 111.021 119.246 110.872 119.312 110.73C119.334 110.672 119.365 110.618 119.402 110.568C119.426 110.534 119.458 110.507 119.495 110.487C119.512 110.478 119.53 110.471 119.549 110.466H119.606C119.606 110.439 119.576 110.421 119.546 110.415L119.504 110.4Z" fill="#FAFAFA"/>
<path d="M120.101 110.238C120.033 110.257 119.971 110.296 119.924 110.349C119.885 110.402 119.855 110.462 119.837 110.526C119.789 110.669 119.756 110.817 119.741 110.967C119.732 111.071 119.754 111.175 119.804 111.267C119.825 111.303 119.867 111.342 119.906 111.324C119.945 111.306 119.945 111.24 119.951 111.201C119.957 111.162 119.951 111.057 119.951 110.988C119.961 110.726 120.055 110.474 120.218 110.268C120.218 110.268 120.236 110.244 120.233 110.232C120.23 110.22 120.2 110.211 120.182 110.214L120.101 110.238Z" fill="#FAFAFA"/>
<path d="M118.295 110.4C118.088 110.4 117.644 110.655 117.413 111.282C117.27 111.743 117.222 112.227 117.272 112.707C116.844 112.639 116.449 112.436 116.144 112.128C116.03 112.023 115.937 111.897 115.871 111.756C115.845 111.588 115.854 111.417 115.896 111.252C115.938 111.088 116.013 110.934 116.117 110.799C116.312 110.601 116.546 110.447 116.804 110.347C117.063 110.247 117.34 110.202 117.617 110.217C118.439 110.202 118.502 110.421 118.502 110.421L118.295 110.4Z" fill="#FAFAFA"/>
<path d="M123.143 108.252C123.143 108.252 123.077 109.326 122.993 109.824C122.945 110.106 122.672 110.538 121.793 110.52C121.572 110.536 121.352 110.479 121.166 110.358C120.981 110.237 120.84 110.057 120.767 109.848C120.715 109.194 120.699 108.538 120.719 107.883L123.143 108.252Z" fill="#FFA8A7"/>
<path d="M137.9 105.6L136.601 102.372L133.772 103.341C133.772 103.341 135.746 106.191 135.98 106.503C136.367 107.025 137.9 105.6 137.9 105.6Z" fill="#FFA8A7"/>
<path d="M139.184 106.5C139.199 106.63 139.199 106.76 139.184 106.89C139.148 107.34 139.115 107.79 139.082 108.243C139.071 108.422 139.046 108.599 139.007 108.774C138.979 108.987 138.971 109.202 138.983 109.416C138.983 109.641 138.983 109.866 138.968 110.091C138.956 110.191 138.956 110.291 138.968 110.391C138.992 110.484 137.546 111.312 136.961 111.63C136.928 111.651 136.893 111.668 136.856 111.681C136.693 111.737 136.518 111.745 136.35 111.706C136.182 111.667 136.029 111.581 135.908 111.459C135.788 111.159 135.762 110.829 135.832 110.513C135.902 110.198 136.065 109.911 136.301 109.689C136.301 109.689 136.376 109.689 136.361 109.122C136.361 108.717 136.361 108.303 136.319 107.898C136.29 107.643 136.224 107.393 136.124 107.157C135.996 106.947 135.912 106.713 135.878 106.47C135.91 106.294 135.989 106.129 136.106 105.993C136.199 105.845 136.318 105.715 136.457 105.609C136.756 105.367 137.106 105.195 137.48 105.105C137.556 105.086 137.635 105.086 137.711 105.105C137.825 105.141 137.894 105.255 137.972 105.351C138.163 105.546 138.384 105.71 138.626 105.837C138.869 105.968 139.059 106.18 139.16 106.437C139.172 106.449 139.181 106.479 139.184 106.5Z" fill="#455A64"/>
<path d="M136.307 109.686C136.236 109.771 136.174 109.862 136.121 109.959C135.863 110.414 135.79 110.951 135.917 111.459C134.897 111.366 134.63 110.778 134.63 110.778C134.628 110.597 134.677 110.419 134.77 110.264C134.863 110.109 134.997 109.983 135.158 109.899C135.228 109.854 135.303 109.815 135.38 109.782C135.671 109.652 135.996 109.619 136.307 109.686Z" fill="#FAFAFA"/>
<path d="M139.469 106.656C139.736 106.761 139.667 107.499 139.496 108.207C139.325 108.915 139.235 109.164 139.322 109.755C139.409 110.346 139.457 110.61 139.217 110.826C138.977 111.042 137.06 111.936 137.06 111.936C137.321 111.225 137.466 110.476 137.489 109.719C137.54 108.411 137.627 107.568 138.233 106.974C138.385 106.805 138.583 106.685 138.803 106.629C139.023 106.572 139.255 106.582 139.469 106.656Z" fill="#459AE9"/>
<path opacity="0.3" d="M139.469 106.656C139.736 106.761 139.667 107.499 139.496 108.207C139.325 108.915 139.235 109.164 139.322 109.755C139.409 110.346 139.457 110.61 139.217 110.826C138.977 111.042 137.06 111.936 137.06 111.936C137.321 111.225 137.466 110.476 137.489 109.719C137.54 108.411 137.627 107.568 138.233 106.974C138.385 106.805 138.583 106.685 138.803 106.629C139.023 106.572 139.255 106.582 139.469 106.656Z" fill="black"/>
<path d="M134.624 110.775C135.091 111.136 135.64 111.375 136.223 111.471C137.078 111.567 137.123 111.24 137.21 110.229C137.297 109.218 137.336 107.814 137.732 107.199C138.128 106.584 138.803 106.299 139.067 106.371C139.121 106.344 139.382 106.539 139.469 106.656C139.261 106.647 139.054 106.683 138.861 106.76C138.668 106.838 138.494 106.956 138.35 107.106C137.816 107.628 137.717 108.729 137.693 109.728C137.669 110.727 137.624 111.891 136.829 112.011C136.441 112.053 136.048 112.017 135.674 111.903C135.3 111.79 134.953 111.602 134.654 111.351C134.614 111.315 134.581 111.272 134.558 111.224C134.535 111.175 134.521 111.123 134.518 111.069C134.516 111.016 134.523 110.962 134.542 110.912C134.56 110.861 134.588 110.815 134.624 110.775Z" fill="#37474F"/>
<path d="M136.37 109.314C136.338 109.335 136.311 109.363 136.291 109.395C136.27 109.427 136.256 109.462 136.25 109.5C136.246 109.607 136.272 109.713 136.325 109.805C136.378 109.898 136.456 109.974 136.55 110.025C136.658 110.085 136.748 110.061 136.577 109.851C136.461 109.694 136.389 109.508 136.37 109.314Z" fill="#FAFAFA"/>
<path d="M136.352 108.6C136.31 108.64 136.284 108.695 136.28 108.753C136.321 108.976 136.447 109.174 136.631 109.305C136.817 109.389 136.718 109.182 136.631 109.086C136.526 108.931 136.433 108.769 136.352 108.6Z" fill="#FAFAFA"/>
<path d="M136.304 107.832C136.281 107.845 136.261 107.863 136.246 107.885C136.231 107.907 136.221 107.932 136.217 107.958C136.217 108.039 136.598 108.33 136.718 108.318C136.838 108.306 136.868 108.27 136.718 108.171C136.568 108.072 136.304 107.832 136.304 107.832Z" fill="#FAFAFA"/>
<path d="M134.681 104.829C134.681 104.829 128.501 95.61 128.315 94.887C128.129 94.164 126.956 86.637 126.956 86.637L124.538 95.505C124.682 96.3282 124.756 97.1623 124.757 97.998C124.737 99.4627 124.573 100.922 124.265 102.354C123.62 105.399 123.254 108.318 123.254 108.318C122.85 108.541 122.391 108.645 121.931 108.618C121.476 108.602 121.032 108.476 120.638 108.249C120.638 108.249 120.302 100.011 120.206 98.121C120.11 96.231 120.05 95.388 120.155 94.143C120.299 92.448 120.377 90.69 120.704 87.021C120.989 83.799 121.574 76.941 121.574 76.941L131.501 76.284C131.501 76.284 132.338 77.868 132.437 81.984C132.515 85.197 132.512 94.014 132.512 94.014C133.985 94.938 134.435 95.898 135.137 97.704C135.581 98.844 136.724 102.387 137.06 103.434C135.818 103.764 134.681 104.829 134.681 104.829Z" fill="#455A64"/>
<path d="M106.385 81.663L99.1999 83.736L97.7659 84.15C97.6773 84.1753 97.5825 84.1684 97.4985 84.1305C97.4145 84.0926 97.3466 84.0262 97.3069 83.943C97.2736 83.8806 97.2585 83.8102 97.2633 83.7397C97.2681 83.6691 97.2925 83.6014 97.3339 83.544L98.3269 82.2L102.695 76.284L104.174 78.447L106.385 81.663Z" fill="#F28F8F"/>
<path d="M104.18 78.438L98.405 83.064L97.304 83.943C97.2707 83.8806 97.2556 83.8102 97.2604 83.7397C97.2652 83.6691 97.2896 83.6014 97.331 83.544L98.324 82.2L102.692 76.284L104.18 78.438Z" fill="#FFA8A7"/>
<path d="M99.1999 83.736L97.7659 84.15C97.6773 84.1753 97.5825 84.1684 97.4985 84.1305C97.4145 84.0926 97.3466 84.0262 97.3069 83.943C97.2736 83.8806 97.2585 83.8102 97.2633 83.7396C97.2681 83.6691 97.2925 83.6013 97.3339 83.544L98.3269 82.2C98.2667 82.4919 98.2917 82.7949 98.3989 83.073C98.4764 83.235 98.5882 83.3781 98.7265 83.4926C98.8648 83.6071 99.0263 83.6901 99.1999 83.736Z" fill="#37474F"/>
<path d="M134.903 53.865L134.198 54.357L133.343 54.957L102.701 76.272C102.489 77.3013 102.673 78.3728 103.217 79.272C103.988 80.661 105.341 81.69 106.385 81.672L136.799 60.501L138.428 59.367C137.333 60.033 133.814 54.558 134.903 53.865Z" fill="#459AE9"/>
<path opacity="0.2" d="M134.903 53.865L134.198 54.357L133.343 54.957L102.701 76.272C102.489 77.3013 102.673 78.3728 103.217 79.272C103.988 80.661 105.341 81.69 106.385 81.672L136.799 60.501L138.428 59.367C137.333 60.033 133.814 54.558 134.903 53.865Z" fill="black"/>
<path d="M134.198 54.357L133.343 54.957L102.701 76.272C102.489 77.3013 102.673 78.3728 103.217 79.272L134.744 57.057L134.198 54.357Z" fill="#459AE9"/>
<path d="M132.209 55.728L130.625 56.829C130.157 57.129 130.544 58.311 131.225 59.508C132.125 61.098 133.55 62.712 134.171 62.31L135.329 61.497L135.746 61.197C135.125 61.599 133.7 59.982 132.797 58.392C132.143 57.246 131.765 56.109 132.152 55.758C132.167 55.742 132.187 55.7314 132.209 55.728Z" fill="#E0E0E0"/>
<path d="M132.806 58.401C132.152 57.255 131.774 56.118 132.161 55.767C132.171 55.7513 132.186 55.7388 132.203 55.731L130.625 56.829C130.157 57.129 130.544 58.311 131.225 59.508L132.797 58.401H132.806Z" fill="#FAFAFA"/>
<path d="M131.825 56.007C130.739 56.712 134.285 62.19 135.374 61.485L136.955 60.39C135.866 61.092 132.32 55.614 133.406 54.912L131.825 56.007Z" fill="#459AE9"/>
<path d="M134.903 53.865L133.343 54.948C132.269 55.632 135.644 60.948 136.799 60.489C136.822 60.4828 136.845 60.4727 136.865 60.459L138.428 59.355C137.333 60.033 133.814 54.558 134.903 53.865Z" fill="#E0E0E0"/>
<path d="M141.524 49.269L134.903 53.865C134.438 54.165 134.813 55.329 135.482 56.52C136.382 58.113 137.801 59.745 138.428 59.355L144.797 54.933C146.366 54.033 145.055 50.769 143.387 49.557C142.775 49.095 142.112 48.927 141.524 49.269Z" fill="#F28F8F"/>
<path d="M141.524 49.269L134.903 53.865C134.438 54.165 134.813 55.329 135.482 56.52L142.16 52.101C142.16 52.101 141.323 50.451 141.662 49.779C142.001 49.107 142.67 49.152 143.396 49.554C142.775 49.095 142.112 48.927 141.524 49.269Z" fill="#FFA8A7"/>
<path opacity="0.4" d="M133.397 54.9L131.825 56.007C131.36 56.307 131.747 57.486 132.425 58.677L134 57.57C133.325 56.382 132.935 55.2 133.397 54.9Z" fill="white"/>
<path d="M134.903 53.865L133.343 54.948C132.875 55.248 133.253 56.421 133.919 57.618L135.482 56.52C134.825 55.329 134.438 54.162 134.903 53.865Z" fill="#FAFAFA"/>
<path d="M124.844 62.928L125.18 66.588L128.453 66.399L128.207 62.34L124.844 62.928Z" fill="#FFA8A7"/>
<path d="M122.432 58.902C122.432 58.902 121.706 59.976 121.799 60.102C121.969 60.2127 122.157 60.2929 122.354 60.339L122.432 58.902Z" fill="#F28F8F"/>
<path d="M130.364 56.199C130.262 56.103 130.151 56.016 130.064 55.899C130.021 55.8545 129.982 55.8063 129.947 55.755C129.713 55.407 129.62 55.011 129.347 54.687C129.062 54.3696 128.706 54.123 128.309 53.967C127.589 53.7126 126.824 53.6105 126.062 53.667C125.303 53.7165 124.541 53.7165 123.782 53.667C123.444 53.5913 123.093 53.6037 122.762 53.703C122.576 53.798 122.422 53.9457 122.32 54.1277C122.217 54.3096 122.171 54.5177 122.186 54.726C122.227 55.143 122.409 55.5336 122.702 55.833C122.55 55.8799 122.419 55.9778 122.331 56.11C122.243 56.2423 122.204 56.4009 122.219 56.559C122.263 56.8753 122.404 57.1701 122.624 57.402C122.975 57.828 123.245 58.122 123.35 58.677C123.491 59.436 124.313 59.841 124.832 60.381C125.029 60.5709 125.217 60.7712 125.393 60.981L125.426 61.026C125.271 61.0501 125.113 61.0367 124.964 60.987C124.964 60.987 124.868 62.61 126.014 63.138C126.766 63.2812 127.541 63.24 128.273 63.018C129.085 62.3797 129.768 61.5927 130.286 60.699C131.042 59.448 131.624 57.381 130.364 56.199Z" fill="#263238"/>
<path d="M125.99 60.702C125.921 60.8003 125.831 60.8828 125.728 60.9443C125.625 61.0058 125.509 61.0449 125.39 61.059C125.235 61.0848 125.076 61.0714 124.928 61.02C124.928 61.02 124.856 62.25 125.594 62.913C125.441 62.973 125.294 63.021 125.186 63.057C124.529 63.252 123.263 63.162 123.02 62.931C122.657 62.586 122.066 61.677 122.399 59.058C122.475 58.2347 122.74 57.44 123.173 56.736C123.201 56.9217 123.275 57.0974 123.388 57.2472C123.501 57.397 123.65 57.5162 123.821 57.594C123.727 57.7217 123.662 57.8685 123.631 58.024C123.6 58.1795 123.603 58.34 123.641 58.494C123.767 58.8563 123.988 59.1784 124.28 59.427C124.295 59.4452 124.315 59.4587 124.337 59.466C124.376 59.481 124.544 59.466 124.568 59.433C124.802 59.094 125.123 58.698 125.75 58.908C126.488 59.157 126.446 60.042 125.99 60.702Z" fill="#FFA8A7"/>
<path d="M123.098 62.979C123.398 63.144 124.235 63.213 124.862 63.126L124.844 62.655C124.575 62.7696 124.296 62.8589 124.01 62.922C123.711 62.9871 123.403 63.0063 123.098 62.979Z" fill="#F28F8F"/>
<path d="M124.238 60.36C124.162 60.3342 124.091 60.2933 124.031 60.2397C123.971 60.1862 123.922 60.1211 123.888 60.0483C123.854 59.9755 123.834 59.8965 123.831 59.8161C123.828 59.7356 123.841 59.6554 123.869 59.58C123.927 59.427 124.043 59.303 124.192 59.235C124.341 59.167 124.51 59.1606 124.664 59.217L124.238 60.36Z" fill="#263238"/>
<path d="M126.947 86.67L127.787 83.07C127.787 83.07 129.218 83.172 130.976 81.765C130.976 81.765 130.772 83.022 128.291 83.607L127.469 87.135L127.727 91.506C127.727 91.506 126.959 86.751 126.947 86.67Z" fill="#37474F"/>
<path d="M131.243 65.451C130.928 64.506 130.454 64.155 129.995 64.068C129.432 64.0194 128.866 64.0194 128.303 64.068C128.201 64.593 126.503 64.968 124.985 64.425L123.455 64.665C122.105 65.289 121.799 66.846 121.082 68.439C120.824 68.9712 120.756 69.5759 120.889 70.1523C121.022 70.7287 121.348 71.2421 121.814 71.607C121.814 71.607 121.682 73.521 121.61 74.607C121.508 76.207 121.397 77.807 121.277 79.407C121.277 79.407 122.777 80.778 127.421 80.607C130.82 80.481 132.035 79.344 132.221 78.825C132.038 76.689 130.964 74.676 130.757 74.025C130.511 73.3705 130.441 72.6631 130.553 71.973C131.387 68.745 131.678 66.765 131.243 65.451Z" fill="#459AE9"/>
<path opacity="0.4" d="M131.243 65.451C130.928 64.506 130.454 64.155 129.995 64.068C129.432 64.0194 128.866 64.0194 128.303 64.068C128.201 64.593 126.503 64.968 124.985 64.425L123.455 64.665C122.105 65.289 121.799 66.846 121.082 68.439C120.824 68.9712 120.756 69.5759 120.889 70.1523C121.022 70.7287 121.348 71.2421 121.814 71.607C121.814 71.607 121.682 73.521 121.61 74.607C121.508 76.207 121.397 77.807 121.277 79.407C121.277 79.407 122.777 80.778 127.421 80.607C130.82 80.481 132.035 79.344 132.221 78.825C132.038 76.689 130.964 74.676 130.757 74.025C130.511 73.3705 130.441 72.6631 130.553 71.973C131.387 68.745 131.678 66.765 131.243 65.451Z" fill="white"/>
<path d="M124.025 64.605C121.394 64.746 121.223 65.325 120.017 67.776C119.381 69.072 118.376 71.676 117.773 72.93C116.447 73.53 113.387 74.022 112.181 73.761C111.941 73.7142 111.727 73.5794 111.581 73.383C111.197 72.843 110.819 72.765 110.354 72.378C109.994 72.078 109.889 71.808 109.784 71.859C109.669 71.9295 109.586 72.0407 109.549 72.1703C109.513 72.2999 109.527 72.4384 109.589 72.558C109.694 72.7891 109.832 73.0043 109.997 73.197C109.517 73.0227 109.064 72.7824 108.65 72.483C107.654 71.778 107.072 71.784 107.165 73.338C107.222 74.31 107.876 75.048 110.069 75.633C110.873 75.8667 111.693 76.0411 112.523 76.155C114.627 76.3048 116.741 76.1696 118.808 75.753C119.262 75.6352 119.669 75.382 119.975 75.027C120.818 74.157 122.756 70.338 122.756 70.338C124.244 68.022 124.37 65.91 124.025 64.605Z" fill="#FFA8A7"/>
</svg>
