<svg width="151" height="150" viewBox="0 0 151 150" fill="none" xmlns="http://www.w3.org/2000/svg">
<path d="M77.5261 128.937C114.51 128.937 144.492 112.92 144.492 93.162C144.492 73.404 114.51 57.387 77.5261 57.387C40.5418 57.387 10.5601 73.404 10.5601 93.162C10.5601 112.92 40.5418 128.937 77.5261 128.937Z" fill="#F5F5F5"/>
<path d="M50.5771 113.076L29.2261 100.662L65.3401 79.791L50.5771 113.076Z" fill="#E0E0E0"/>
<path d="M19.758 99.9L28.458 104.916C28.6388 105.008 28.8387 105.056 29.0415 105.056C29.2442 105.056 29.4441 105.008 29.625 104.916L41.625 97.914C41.6956 97.8906 41.757 97.8455 41.8005 97.7852C41.8441 97.7249 41.8675 97.6524 41.8675 97.578C41.8675 97.5036 41.8441 97.4311 41.8005 97.3708C41.757 97.3105 41.6956 97.2654 41.625 97.242L32.925 92.223C32.7441 92.1313 32.5442 92.0835 32.3415 92.0835C32.1387 92.0835 31.9388 92.1313 31.758 92.223L19.758 99.225C19.6877 99.2492 19.6268 99.2948 19.5836 99.3553C19.5405 99.4158 19.5173 99.4882 19.5173 99.5625C19.5173 99.6368 19.5405 99.7093 19.5836 99.7698C19.6268 99.8302 19.6877 99.8758 19.758 99.9Z" fill="#E0E0E0"/>
<path d="M20.7 99.12C20.1 98.154 18.249 97.092 15.819 96.567C13.389 96.042 10.947 95.4 11.505 93.981C12.105 92.46 14.367 92.385 16.578 93.291C18.993 94.281 20.778 96.729 20.811 98.271L20.7 99.12Z" fill="#459AE9"/>
<g opacity="0.1">
<path d="M20.7 99.12C20.1 98.154 18.249 97.092 15.819 96.567C13.389 96.042 10.947 95.4 11.505 93.981C12.105 92.46 14.367 92.385 16.578 93.291C18.993 94.281 20.778 96.729 20.811 98.271L20.7 99.12Z" fill="black"/>
</g>
<path d="M20.8889 98.682C20.8547 98.6817 20.8213 98.6716 20.7926 98.653C20.7639 98.6344 20.7411 98.6081 20.7269 98.577C18.7979 94.587 14.3249 93.942 12.9269 94.161C12.8792 94.1679 12.8307 94.1557 12.792 94.127C12.7532 94.0984 12.7273 94.0556 12.7199 94.008C12.7161 93.9845 12.7169 93.9606 12.7224 93.9374C12.7278 93.9143 12.7378 93.8925 12.7518 93.8732C12.7657 93.854 12.7833 93.8377 12.8036 93.8253C12.8239 93.8129 12.8464 93.8046 12.8699 93.801C14.3519 93.573 19.0469 94.242 21.0659 98.421C21.0867 98.4644 21.0895 98.5143 21.0738 98.5597C21.058 98.6052 21.025 98.6427 20.9819 98.664C20.9528 98.6774 20.9209 98.6836 20.8889 98.682Z" fill="white"/>
<path d="M20.6999 99.12C20.6999 99.12 19.5389 94.521 16.5959 92.049C15.7229 91.314 14.7959 90.393 14.1389 89.76C12.7409 88.398 13.3259 86.913 15.2609 86.943C18.1409 86.982 20.2469 89.406 21.1589 92.577C22.0709 95.748 20.6999 99.12 20.6999 99.12Z" fill="#459AE9"/>
<path d="M21.159 97.335C21.1135 97.3352 21.0694 97.3184 21.0356 97.2879C21.0017 97.2574 20.9805 97.2154 20.976 97.17C20.436 91.32 15.972 88.38 14.757 88.068C14.7105 88.0561 14.6706 88.0261 14.6461 87.9848C14.6216 87.9434 14.6146 87.8941 14.6265 87.8475C14.6385 87.801 14.6684 87.7611 14.7098 87.7366C14.7511 87.7121 14.8005 87.7051 14.847 87.717C16.323 88.095 20.784 91.146 21.339 97.137C21.3432 97.1851 21.3282 97.2329 21.2973 97.27C21.2664 97.3071 21.2221 97.3304 21.174 97.335H21.159Z" fill="white"/>
<path d="M28.752 104.178L20.556 99.444L20.553 81.864L28.752 86.598V104.178Z" fill="#263238"/>
<path d="M28.752 86.598L40.464 79.836V97.416L28.752 104.178V86.598Z" fill="#37474F"/>
<path d="M40.464 79.836L28.752 86.598L20.553 81.864L32.268 75.102L40.464 79.836Z" fill="#455A64"/>
<path d="M33.813 86.382L35.406 85.461C35.613 85.341 35.781 85.395 35.781 85.584C35.7658 85.6989 35.724 85.8086 35.6588 85.9044C35.5937 86.0002 35.5072 86.0795 35.406 86.136L33.813 87.057C33.606 87.177 33.438 87.123 33.438 86.934C33.4532 86.8191 33.495 86.7094 33.5601 86.6136C33.6252 86.5178 33.7118 86.4385 33.813 86.382Z" fill="#263238"/>
<path d="M29.709 95.514L39.078 90.105L39.294 90.228L39.078 96.615L39.294 96.741L29.925 102.15L29.709 102.024V95.514Z" fill="#263238"/>
<path d="M29.925 95.637L39.294 90.228V96.741L29.925 102.15V95.637Z" fill="#455A64"/>
<path d="M33.5969 94.62L35.1899 93.702C35.3969 93.582 35.5649 93.636 35.5649 93.822C35.5499 93.9373 35.5082 94.0475 35.4431 94.1439C35.378 94.2402 35.2913 94.3201 35.1899 94.377L33.5969 95.298C33.3899 95.418 33.2219 95.361 33.2219 95.175C33.2374 95.0598 33.2793 94.9498 33.3443 94.8535C33.4094 94.7572 33.4958 94.6773 33.5969 94.62Z" fill="#263238"/>
<path d="M29.709 87.414L39.078 82.005L39.294 82.128L39.078 88.515L39.294 88.641L29.925 94.05L29.709 93.924V87.414Z" fill="#263238"/>
<path d="M29.925 87.537L39.294 82.128V88.641L29.925 94.05V87.537Z" fill="#455A64"/>
<path d="M33.5969 86.52L35.1899 85.602C35.3969 85.482 35.5649 85.536 35.5649 85.722C35.5499 85.8373 35.5082 85.9475 35.4431 86.0439C35.378 86.1402 35.2913 86.2201 35.1899 86.277L33.5969 87.198C33.3899 87.318 33.2219 87.261 33.2219 87.075C33.2374 86.9598 33.2793 86.8498 33.3443 86.7535C33.4094 86.6572 33.4958 86.5773 33.5969 86.52Z" fill="#263238"/>
<path d="M28.752 85.851L20.556 81.117L20.553 63.534L28.752 68.268V85.851Z" fill="#263238"/>
<path d="M28.752 68.268L40.464 61.506V79.089L28.752 85.851V68.268Z" fill="#37474F"/>
<path d="M40.464 61.506L28.752 68.268L20.553 63.534L32.268 56.772L40.464 61.506Z" fill="#455A64"/>
<path d="M29.925 68.943L39.294 63.534L39.51 63.66V70.17L30.141 75.582L29.925 75.456V68.943Z" fill="#263238"/>
<path d="M33.813 68.052L35.406 67.131C35.613 67.011 35.781 67.068 35.781 67.254C35.7655 67.3692 35.7237 67.4792 35.6586 67.5755C35.5935 67.6718 35.5071 67.7517 35.406 67.809L33.813 68.727C33.606 68.847 33.438 68.793 33.438 68.607C33.453 68.4917 33.4947 68.3815 33.5598 68.2851C33.6249 68.1888 33.7116 68.1089 33.813 68.052Z" fill="#263238"/>
<path d="M29.709 77.184L39.078 71.775V78.288L39.294 78.411L29.925 83.82L29.709 83.697V77.184Z" fill="#263238"/>
<path d="M29.925 77.31L39.294 71.898V78.411L29.925 83.82V77.31Z" fill="#455A64"/>
<path d="M33.5969 76.293L35.1899 75.372C35.3969 75.252 35.5649 75.306 35.5649 75.495C35.5497 75.6098 35.5079 75.7196 35.4428 75.8154C35.3777 75.9112 35.2911 75.9905 35.1899 76.047L33.5969 76.968C33.3899 77.088 33.2219 77.034 33.2219 76.845C33.2371 76.7301 33.279 76.6204 33.3441 76.5246C33.4092 76.4288 33.4958 76.3495 33.5969 76.293Z" fill="#263238"/>
<path d="M29.925 68.943L39.294 63.534V70.047L29.925 75.456V68.943Z" fill="#263238"/>
<path d="M43.9801 66.75L38.8501 63.792V69.528L43.9801 72.489V66.75Z" fill="#263238"/>
<path d="M33.438 76.383V68.268L35.448 67.104L35.781 67.593L41.637 64.209V71.649L33.438 76.383Z" fill="#459AE9"/>
<g opacity="0.2">
<path d="M33.438 76.383V68.268L35.448 67.104L35.781 67.593L41.637 64.209V71.649L33.438 76.383Z" fill="black"/>
</g>
<path d="M33.438 76.383L34.023 69.282L42.222 64.548L41.637 71.649L33.438 76.383Z" fill="#459AE9"/>
<path d="M34.6079 72.162L30.1379 69.582V75.318L34.6079 77.898V72.162Z" fill="#37474F"/>
<path d="M34.6079 71.649L43.9799 66.24V72.75L34.6079 78.162V71.649Z" fill="#455A64"/>
<path d="M38.283 70.632L39.876 69.711C40.083 69.591 40.251 69.648 40.251 69.834C40.2355 69.9492 40.1936 70.0592 40.1286 70.1555C40.0635 70.2518 39.9771 70.3317 39.876 70.389L38.283 71.307C38.076 71.427 37.908 71.373 37.908 71.187C37.9234 71.0718 37.9653 70.9618 38.0304 70.8655C38.0954 70.7692 38.1819 70.6893 38.283 70.632Z" fill="#263238"/>
<path d="M34.6079 71.649L34.2959 71.469V77.982L34.6079 78.162V71.649Z" fill="#263238"/>
<path d="M34.2959 71.469L43.6679 66.06L43.9799 66.24L34.6079 71.649L34.2959 71.469Z" fill="#37474F"/>
<path d="M112.875 24.69L111.657 23.982L49.5 59.862V111.831C49.4834 111.992 49.5096 112.154 49.576 112.302C49.6424 112.449 49.7465 112.577 49.878 112.671L51.096 113.379C51.2437 113.447 51.4068 113.474 51.5686 113.459C51.7304 113.443 51.8852 113.384 52.017 113.289L111.567 78.9C111.945 78.6533 112.26 78.3211 112.485 77.9302C112.711 77.5393 112.841 77.1007 112.866 76.65L112.875 24.69Z" fill="#E6E6E6"/>
<path d="M50.718 112.539C50.718 113.367 51.297 113.703 52.017 113.289L111.567 78.9C111.945 78.6533 112.26 78.3211 112.485 77.9302C112.711 77.5393 112.841 77.1007 112.866 76.65V24.69L50.718 60.573V112.539Z" fill="#FAFAFA"/>
<path d="M112.575 25.2V76.656C112.55 77.0542 112.434 77.4413 112.234 77.7869C112.035 78.1325 111.758 78.4273 111.426 78.648L51.876 113.028C51.7462 113.11 51.5974 113.158 51.444 113.166C51.066 113.166 51.027 112.728 51.027 112.539V60.744L112.575 25.2ZM112.875 24.681L50.718 60.573V112.539C50.718 113.139 51.018 113.466 51.435 113.466C51.641 113.458 51.8414 113.397 52.017 113.289L111.567 78.9C111.945 78.6533 112.26 78.3211 112.485 77.9302C112.711 77.5393 112.841 77.1007 112.866 76.65V24.69L112.875 24.681Z" fill="#E0E0E0"/>
<path d="M50.718 60.573V66.198L112.866 30.315V24.69L50.718 60.573Z" fill="#459AE9"/>
<path d="M89.7119 40.263V41.463C89.7119 41.709 89.8889 41.811 90.1019 41.688L109.209 30.654V28.554L90.1019 39.6C89.9904 39.6732 89.8973 39.7711 89.8297 39.8861C89.762 40.001 89.7218 40.13 89.7119 40.263Z" fill="#FAFAFA"/>
<path d="M111.258 27.375C111.474 27.249 111.648 27.351 111.648 27.6V28.8C111.641 28.9353 111.602 29.067 111.534 29.1843C111.466 29.3017 111.372 29.4013 111.258 29.475L109.209 30.657V28.557L111.258 27.375Z" fill="#455A64"/>
<path d="M111.108 29.034L110.877 28.962C110.902 28.864 110.915 28.7632 110.916 28.662C110.926 28.5697 110.912 28.4764 110.875 28.3912C110.839 28.3059 110.78 28.2318 110.706 28.176C110.656 28.1462 110.598 28.1304 110.539 28.1304C110.481 28.1304 110.423 28.1462 110.373 28.176C110.228 28.2876 110.111 28.4318 110.031 28.5971C109.952 28.7623 109.913 28.9438 109.917 29.127C109.906 29.2193 109.92 29.3129 109.957 29.3982C109.994 29.4836 110.052 29.5577 110.127 29.613C110.17 29.6394 110.22 29.653 110.271 29.652C110.337 29.6506 110.401 29.632 110.457 29.598C110.632 29.4788 110.762 29.3046 110.826 29.103L111.057 29.175H111.075C111.093 29.1753 111.11 29.17 111.125 29.1597C111.139 29.1495 111.15 29.1349 111.156 29.118C111.157 29.1008 111.153 29.0837 111.145 29.0687C111.136 29.0538 111.123 29.0417 111.108 29.034ZM110.373 29.472C110.35 29.4895 110.323 29.5002 110.294 29.5028C110.265 29.5055 110.237 29.5 110.211 29.487C110.164 29.4447 110.129 29.3918 110.108 29.3327C110.086 29.2736 110.079 29.2103 110.088 29.148C110.085 28.9949 110.117 28.843 110.18 28.7038C110.244 28.5646 110.339 28.4416 110.457 28.344C110.489 28.3244 110.525 28.313 110.562 28.311C110.583 28.311 110.604 28.3172 110.622 28.329C110.668 28.3717 110.703 28.4248 110.724 28.4837C110.746 28.5426 110.753 28.6058 110.745 28.668C110.747 28.8214 110.715 28.9733 110.651 29.1125C110.586 29.2517 110.491 29.3746 110.373 29.472Z" fill="#FAFAFA"/>
<path d="M111.279 20.427C111.131 20.3546 110.966 20.3241 110.802 20.3389C110.638 20.3538 110.482 20.4133 110.349 20.511L50.799 54.9C50.4205 55.1461 50.1055 55.4783 49.8798 55.8693C49.6541 56.2603 49.5239 56.6991 49.5 57.15V59.871L50.718 60.582L112.875 24.69V21.969C112.893 21.8087 112.868 21.6464 112.802 21.4991C112.736 21.3519 112.632 21.2251 112.5 21.132C112.275 21 111.492 20.556 111.279 20.427Z" fill="#263238"/>
<path d="M50.718 57.852C50.7415 57.401 50.8714 56.962 51.0972 56.5709C51.323 56.1798 51.6382 55.8478 52.017 55.602L111.567 21.219C112.284 20.805 112.866 21.141 112.866 21.969V24.69L50.718 60.573V57.852Z" fill="#37474F"/>
<path d="M112.503 21.138C112.355 21.064 112.189 21.0324 112.024 21.0467C111.858 21.061 111.7 21.1206 111.567 21.219L52.017 55.599C51.6333 55.8384 51.3173 56.1719 51.099 56.568L49.875 55.863C50.0943 55.466 50.4113 55.1314 50.796 54.891L110.349 20.508C110.482 20.4108 110.639 20.3518 110.803 20.3375C110.967 20.3232 111.131 20.3542 111.279 20.427C111.492 20.556 112.272 21.003 112.479 21.129L112.503 21.138Z" fill="#455A64"/>
<path d="M105.555 26.1C105.379 26.2167 105.234 26.3731 105.129 26.5565C105.025 26.74 104.965 26.9453 104.955 27.156C104.955 27.543 105.228 27.702 105.555 27.507C105.731 27.3903 105.877 27.2339 105.981 27.0505C106.085 26.8671 106.145 26.6617 106.155 26.451C106.164 26.058 105.891 25.899 105.555 26.1Z" fill="#459AE9"/>
<path d="M107.688 24.867C107.512 24.9831 107.366 25.1389 107.262 25.3219C107.158 25.5048 107.098 25.7097 107.088 25.92C107.088 26.31 107.361 26.466 107.688 26.274C107.863 26.1569 108.009 26.0005 108.113 25.8171C108.217 25.6338 108.277 25.4286 108.288 25.218C108.297 24.828 108.024 24.672 107.688 24.867Z" fill="#459AE9"/>
<path d="M109.818 23.637C109.642 23.7537 109.496 23.9101 109.392 24.0935C109.288 24.277 109.228 24.4823 109.218 24.693C109.218 25.083 109.491 25.239 109.818 25.044C109.994 24.9278 110.14 24.7715 110.245 24.588C110.349 24.4045 110.408 24.1989 110.418 23.988C110.43 23.601 110.157 23.442 109.818 23.637Z" fill="#459AE9"/>
<path d="M52.017 113.289L62.904 107.004V59.16L50.718 66.198V112.539C50.718 113.367 51.297 113.7 52.017 113.289Z" fill="#F5F5F5"/>
<path d="M62.604 59.679V106.83L51.867 113.028C51.7372 113.11 51.5884 113.158 51.435 113.166C51.057 113.166 51.018 112.728 51.018 112.539V66.369L62.604 59.679ZM62.904 59.16L50.718 66.198V112.539C50.718 113.139 51.018 113.466 51.435 113.466C51.641 113.458 51.8414 113.397 52.017 113.289L62.904 107.004V59.16Z" fill="#E0E0E0"/>
<path d="M54.7621 66.675L60.5941 63.3C60.8071 63.174 60.9811 63.276 60.9811 63.525V64.032C60.9736 64.1669 60.9347 64.2982 60.8675 64.4154C60.8003 64.5326 60.7067 64.6324 60.5941 64.707L54.7621 68.076C54.5461 68.202 54.3721 68.1 54.3721 67.851V67.35C54.3801 67.2149 54.4195 67.0836 54.4872 66.9664C54.5549 66.8492 54.649 66.7494 54.7621 66.675Z" fill="#E0E0E0"/>
<path d="M53.154 68.055V68.562C53.1467 68.6973 53.1076 68.8289 53.0398 68.9462C52.972 69.0635 52.8776 69.1631 52.764 69.237L52.326 69.489C52.11 69.615 51.936 69.513 51.936 69.264V68.757C51.9434 68.6218 51.9825 68.4901 52.0503 68.3728C52.118 68.2556 52.2125 68.1559 52.326 68.082L52.764 67.83C52.98 67.704 53.154 67.8 53.154 68.055Z" fill="#459AE9"/>
<path d="M54.7621 69.48L60.5941 66.111C60.8071 65.985 60.9811 66.087 60.9811 66.333V66.84C60.9736 66.9753 60.9347 67.107 60.8676 67.2247C60.8004 67.3423 60.7068 67.4428 60.5941 67.518L54.7621 70.887C54.5461 71.01 54.3721 70.911 54.3721 70.662V70.155C54.3796 70.0198 54.4189 69.8883 54.4866 69.771C54.5544 69.6538 54.6487 69.5541 54.7621 69.48Z" fill="#E0E0E0"/>
<path d="M53.154 70.857V71.364C53.1469 71.4993 53.1079 71.631 53.0401 71.7484C52.9723 71.8657 52.8777 71.9653 52.764 72.039L52.326 72.294C52.11 72.417 51.936 72.318 51.936 72.069V71.562C51.9431 71.4267 51.9822 71.295 52.0499 71.1777C52.1177 71.0603 52.2123 70.9607 52.326 70.887L52.764 70.632C52.98 70.5 53.154 70.608 53.154 70.857Z" fill="#459AE9"/>
<path d="M54.7621 72.282L60.5941 68.913C60.8071 68.79 60.9811 68.889 60.9811 69.138V69.645C60.9741 69.78 60.9354 69.9115 60.8682 70.0287C60.8009 70.146 60.707 70.2458 60.5941 70.32L54.7621 73.689C54.5461 73.815 54.3721 73.713 54.3721 73.467V72.957C54.3803 72.822 54.4199 72.6907 54.4875 72.5736C54.5552 72.4564 54.6492 72.3566 54.7621 72.282Z" fill="#E0E0E0"/>
<path d="M53.154 73.662V74.169C53.1469 74.3043 53.1079 74.436 53.0401 74.5534C52.9723 74.6707 52.8777 74.7703 52.764 74.844L52.326 75.099C52.11 75.222 51.936 75.12 51.936 74.874V74.364C51.9438 74.2289 51.9832 74.0974 52.0509 73.9802C52.1186 73.863 52.2128 73.7633 52.326 73.689L52.764 73.437C52.98 73.314 53.154 73.413 53.154 73.662Z" fill="#459AE9"/>
<path d="M54.7621 81.582L60.5941 78.21C60.8071 78.087 60.9811 78.186 60.9811 78.435V78.942C60.9741 79.077 60.9354 79.2085 60.8682 79.3257C60.8009 79.443 60.707 79.5428 60.5941 79.617L54.7621 82.989C54.5461 83.112 54.3721 83.013 54.3721 82.764V82.257C54.3796 82.1218 54.4189 81.9903 54.4866 81.873C54.5544 81.7558 54.6487 81.6561 54.7621 81.582Z" fill="#E0E0E0"/>
<path d="M53.154 82.959V83.466C53.1469 83.6013 53.1079 83.733 53.0401 83.8503C52.9723 83.9677 52.8777 84.0673 52.764 84.141L52.326 84.396C52.11 84.519 51.936 84.42 51.936 84.171V83.664C51.9431 83.5287 51.9822 83.397 52.0499 83.2797C52.1177 83.1623 52.2123 83.0627 52.326 82.989L52.764 82.734C52.98 82.611 53.154 82.71 53.154 82.959Z" fill="#459AE9"/>
<path d="M54.7621 84.063L60.5941 80.7C60.8071 80.577 60.9811 80.676 60.9811 80.925V81.432C60.9741 81.567 60.9354 81.6984 60.8682 81.8157C60.8009 81.933 60.707 82.0328 60.5941 82.107L54.7621 85.47C54.5461 85.596 54.3721 85.494 54.3721 85.245V84.738C54.3803 84.603 54.4199 84.4717 54.4875 84.3546C54.5552 84.2374 54.6492 84.1376 54.7621 84.063Z" fill="#E0E0E0"/>
<path d="M53.154 85.443V85.95C53.1469 86.0853 53.1079 86.217 53.0401 86.3344C52.9723 86.4517 52.8777 86.5513 52.764 86.625L52.326 86.877C52.11 87.003 51.936 86.901 51.936 86.652V86.145C51.9438 86.0099 51.9832 85.8784 52.0509 85.7612C52.1186 85.644 52.2128 85.5443 52.326 85.47L52.764 85.218C52.98 85.095 53.154 85.2 53.154 85.443Z" fill="#459AE9"/>
<path d="M54.7621 86.547L60.5941 83.178C60.8071 83.052 60.9811 83.154 60.9811 83.403V83.91C60.9736 84.0449 60.9347 84.1762 60.8675 84.2934C60.8003 84.4105 60.7067 84.5104 60.5941 84.585L54.7621 87.954C54.5461 88.08 54.3721 87.978 54.3721 87.729V87.222C54.3801 87.0869 54.4195 86.9556 54.4872 86.8384C54.5549 86.7212 54.649 86.6214 54.7621 86.547Z" fill="#E0E0E0"/>
<path d="M53.154 87.927V88.434C53.1467 88.5693 53.1076 88.7009 53.0398 88.8182C52.972 88.9355 52.8776 89.0351 52.764 89.109L52.326 89.361C52.11 89.487 51.936 89.385 51.936 89.136V88.629C51.9434 88.4937 51.9825 88.3621 52.0503 88.2448C52.118 88.1276 52.2125 88.0279 52.326 87.954L52.764 87.702C52.98 87.576 53.154 87.678 53.154 87.927Z" fill="#459AE9"/>
<path d="M54.3721 75.345V76.218L55.1311 75.345H54.3721Z" fill="#459AE9"/>
<path d="M55.593 75.162C55.593 75.327 55.707 75.39 55.851 75.306L60.723 72.504C60.7984 72.4546 60.861 72.3881 60.9059 72.3099C60.9507 72.2317 60.9764 72.144 60.981 72.054C60.981 71.889 60.867 71.823 60.723 71.907L55.851 74.718C55.7761 74.7665 55.7137 74.832 55.6689 74.9091C55.624 74.9863 55.5981 75.0729 55.593 75.162Z" fill="#E0E0E0"/>
<path d="M54.3721 76.749V77.625L55.1311 76.749H54.3721Z" fill="#459AE9"/>
<path d="M55.593 76.569C55.593 76.731 55.707 76.797 55.851 76.713L60.723 73.908C60.7985 73.8594 60.8613 73.7935 60.9061 73.7158C60.951 73.638 60.9767 73.5507 60.981 73.461C60.981 73.296 60.867 73.23 60.723 73.314L55.851 76.125C55.7761 76.1735 55.7137 76.239 55.6689 76.3161C55.624 76.3933 55.5981 76.4799 55.593 76.569Z" fill="#E0E0E0"/>
<path d="M54.3721 78.156V79.032L55.1311 78.156H54.3721Z" fill="#459AE9"/>
<path d="M55.593 77.976C55.593 78.138 55.707 78.204 55.851 78.12L60.723 75.315C60.7985 75.2664 60.8613 75.2005 60.9061 75.1228C60.951 75.045 60.9767 74.9577 60.981 74.868C60.981 74.703 60.867 74.637 60.723 74.721L55.851 77.532C55.7761 77.5805 55.7137 77.646 55.6689 77.7231C55.624 77.8003 55.5981 77.8869 55.593 77.976Z" fill="#E0E0E0"/>
<path d="M54.3721 79.563V80.439L55.1311 79.563H54.3721Z" fill="#459AE9"/>
<path d="M55.593 79.383C55.593 79.545 55.707 79.611 55.851 79.527L60.723 76.722C60.7985 76.6734 60.8613 76.6075 60.9061 76.5298C60.951 76.452 60.9767 76.3647 60.981 76.275C60.981 76.11 60.867 76.044 60.723 76.128L55.851 78.939C55.7761 78.9875 55.7137 79.053 55.6689 79.1301C55.624 79.2073 55.5981 79.2939 55.593 79.383Z" fill="#E0E0E0"/>
<path d="M66.5579 60.837V68.169C66.5579 68.469 66.7739 68.601 67.0409 68.448L75.1019 63.792C75.2426 63.7011 75.3598 63.5781 75.4437 63.4331C75.5277 63.2881 75.5761 63.1253 75.5849 62.958V56.931C75.5849 56.631 75.3689 56.499 75.1019 56.652L70.4249 59.352C70.1579 59.505 69.9419 59.382 69.9419 59.076V58.884C69.9419 58.584 69.7289 58.452 69.4619 58.605L67.0409 60C66.9002 60.0917 66.7832 60.2153 66.6993 60.3607C66.6154 60.5062 66.5669 60.6693 66.5579 60.837Z" fill="#459AE9"/>
<path d="M68.145 69.552V70.023C68.145 70.251 68.307 70.344 68.505 70.23L74.553 66.738C74.6579 66.6697 74.7452 66.5776 74.8078 66.4691C74.8703 66.3607 74.9064 66.239 74.913 66.114V65.643C74.913 65.415 74.751 65.322 74.553 65.436L68.505 68.928C68.4001 68.9963 68.3128 69.0885 68.2503 69.1969C68.1877 69.3053 68.1517 69.427 68.145 69.552Z" fill="#E0E0E0"/>
<path d="M77.7749 54.402V61.734C77.7749 62.034 77.9909 62.163 78.2549 62.01L86.3159 57.357C86.4561 57.2656 86.5729 57.1425 86.6568 56.9976C86.7407 56.8527 86.7894 56.6902 86.7989 56.523V50.493C86.7989 50.193 86.5829 50.061 86.3159 50.214L81.6389 52.914C81.3719 53.067 81.1589 52.941 81.1589 52.635V52.443C81.1589 52.143 80.9429 52.014 80.6759 52.167L78.2549 53.565C78.1147 53.6569 77.9981 53.7806 77.9147 53.926C77.8313 54.0715 77.7834 54.2346 77.7749 54.402Z" fill="#459AE9"/>
<path d="M79.353 63.117V63.6C79.353 63.831 79.515 63.924 79.713 63.81L85.761 60.3C85.8658 60.2309 85.953 60.1381 86.0155 60.0293C86.078 59.9204 86.1141 59.7984 86.121 59.673V59.205C86.121 58.974 85.959 58.881 85.761 58.998L79.713 62.49C79.6082 62.5591 79.5211 62.6519 79.4586 62.7608C79.3961 62.8696 79.3599 62.9916 79.353 63.117Z" fill="#E0E0E0"/>
<path d="M66.5579 75.567V82.899C66.5579 83.199 66.7739 83.331 67.0409 83.178L75.1019 78.522C75.2407 78.4319 75.3566 78.3108 75.4405 78.1681C75.5243 78.0254 75.5738 77.8651 75.5849 77.7V71.67C75.5849 71.37 75.3689 71.241 75.1019 71.394L70.4249 74.094C70.1579 74.247 69.9419 74.124 69.9419 73.818V73.626C69.9419 73.326 69.7289 73.194 69.4619 73.347L67.0409 74.745C66.902 74.8351 66.7861 74.9563 66.7022 75.0989C66.6184 75.2416 66.569 75.4019 66.5579 75.567Z" fill="#459AE9"/>
<path d="M68.145 84.282V84.753C68.145 84.981 68.307 85.074 68.505 84.96L74.553 81.468C74.6576 81.3993 74.7446 81.3071 74.8071 81.1988C74.8696 81.0904 74.9059 80.9689 74.913 80.844V80.373C74.913 80.145 74.751 80.052 74.553 80.166L68.505 83.658C68.4001 83.7263 68.3128 83.8185 68.2503 83.9269C68.1877 84.0353 68.1517 84.157 68.145 84.282Z" fill="#E0E0E0"/>
<path d="M77.7749 69.129V76.461C77.7749 76.761 77.9909 76.893 78.2549 76.74L86.3159 72.084C86.4562 71.9934 86.5732 71.8709 86.6571 71.7265C86.7411 71.582 86.7896 71.4198 86.7989 71.253V65.223C86.7989 64.923 86.5829 64.791 86.3159 64.944L81.6389 67.644C81.3719 67.797 81.1589 67.671 81.1589 67.365V67.173C81.1589 66.873 80.9429 66.741 80.6759 66.897L78.2549 68.295C78.1149 68.3864 77.9984 68.5096 77.915 68.6545C77.8316 68.7994 77.7836 68.962 77.7749 69.129Z" fill="#459AE9"/>
<path d="M79.353 77.847V78.315C79.353 78.546 79.515 78.639 79.713 78.522L85.761 75.033C85.8658 74.9639 85.953 74.8711 86.0155 74.7623C86.078 74.6534 86.1141 74.5314 86.121 74.406V73.938C86.121 73.707 85.959 73.614 85.761 73.728L79.713 77.22C79.6082 77.2891 79.5211 77.3819 79.4586 77.4908C79.3961 77.5996 79.3599 77.7216 79.353 77.847Z" fill="#E0E0E0"/>
<path d="M89.1089 47.61V54.942C89.1089 55.242 89.3249 55.374 89.5889 55.221L97.6529 50.565C97.7927 50.4734 97.9091 50.3502 97.9925 50.2053C98.0758 50.0604 98.1239 49.8979 98.1329 49.731V43.704C98.1329 43.404 97.9169 43.272 97.6529 43.425L92.9729 46.125C92.7089 46.281 92.4929 46.155 92.4929 45.849V45.657C92.4929 45.357 92.2769 45.225 92.0099 45.378L89.5889 46.779C89.4493 46.8701 89.3331 46.9928 89.2497 47.1372C89.1663 47.2816 89.1181 47.4435 89.1089 47.61Z" fill="#459AE9"/>
<path d="M90.561 56.679V57.15C90.561 57.378 90.723 57.471 90.924 57.357L96.975 53.865C97.0807 53.7972 97.1687 53.7053 97.2318 53.5968C97.2949 53.4883 97.3313 53.3663 97.338 53.241V52.773C97.338 52.542 97.176 52.449 96.975 52.563L90.93 56.055C90.8233 56.1221 90.7341 56.2138 90.6699 56.3223C90.6058 56.4308 90.5684 56.5531 90.561 56.679Z" fill="#E0E0E0"/>
<path d="M100.185 41.529V48.861C100.185 49.161 100.401 49.29 100.668 49.137L108.729 44.484C108.869 44.3924 108.985 44.2692 109.069 44.1243C109.152 43.9794 109.2 43.8169 109.209 43.65V37.62C109.209 37.32 108.996 37.188 108.729 37.341L104.052 40.041C103.785 40.194 103.569 40.068 103.569 39.762V39.57C103.569 39.27 103.356 39.141 103.089 39.294L100.668 40.692C100.527 40.7832 100.41 40.9067 100.326 41.0522C100.242 41.1977 100.193 41.3612 100.185 41.529Z" fill="#459AE9"/>
<path d="M101.775 50.244V50.7C101.775 50.931 101.934 51.024 102.135 50.91L108.183 47.418C108.287 47.3492 108.374 47.2569 108.437 47.1486C108.499 47.0403 108.536 46.9188 108.543 46.794V46.323C108.543 46.092 108.381 45.999 108.183 46.116L102.135 49.605C102.028 49.675 101.94 49.7695 101.877 49.8807C101.814 49.9919 101.779 50.1165 101.775 50.244Z" fill="#E0E0E0"/>
<path d="M90.561 71.4V71.871C90.561 72.099 90.723 72.192 90.924 72.078L96.975 68.589C97.0807 68.5212 97.1687 68.4293 97.2318 68.3208C97.2949 68.2123 97.3313 68.0903 97.338 67.965V67.5C97.338 67.272 97.176 67.179 96.975 67.293L90.93 70.785C90.8245 70.8513 90.7361 70.9415 90.6719 71.0483C90.6078 71.1552 90.5698 71.2757 90.561 71.4Z" fill="#E0E0E0"/>
<path d="M90.7141 61.098L96.9751 57.477C97.2601 57.312 97.4941 57.447 97.4941 57.777V65.019C97.4843 65.1992 97.4323 65.3747 97.3421 65.531C97.2519 65.6874 97.1262 65.8203 96.9751 65.919L90.7141 69.54C90.4141 69.705 90.1951 69.573 90.1951 69.24V61.998C90.205 61.8178 90.2572 61.6425 90.3474 61.4862C90.4375 61.3299 90.5631 61.1969 90.7141 61.098Z" fill="#FAFAFA"/>
<path d="M90.4799 69.762C90.4063 69.7627 90.3339 69.7441 90.2699 69.708C90.1939 69.6573 90.1329 69.5871 90.0933 69.5048C90.0538 69.4225 90.037 69.331 90.0449 69.24V61.998C90.0553 61.791 90.1152 61.5895 90.2196 61.4105C90.324 61.2314 90.4698 61.08 90.6449 60.969L96.9179 57.348C96.9926 57.2959 97.08 57.2651 97.1709 57.2588C97.2617 57.2524 97.3526 57.2708 97.4339 57.312C97.5097 57.3623 97.5708 57.4319 97.6108 57.5136C97.6509 57.5953 97.6685 57.6862 97.6619 57.777V65.019C97.6514 65.226 97.5915 65.4275 97.4871 65.6065C97.3827 65.7856 97.2369 65.937 97.0619 66.048L90.7889 69.672C90.6954 69.7284 90.5889 69.7594 90.4799 69.762ZM97.2179 57.558C97.1621 57.5602 97.1081 57.5778 97.0619 57.609L90.7889 61.23C90.6602 61.3147 90.5531 61.4282 90.476 61.5615C90.3989 61.6948 90.354 61.8443 90.3449 61.998V69.24C90.3449 69.345 90.3719 69.42 90.4199 69.447C90.4566 69.4591 90.4956 69.4621 90.5338 69.4558C90.5719 69.4496 90.6079 69.4342 90.6389 69.411L96.9119 65.79C97.0401 65.7042 97.1468 65.59 97.2238 65.4563C97.3008 65.3226 97.346 65.173 97.3559 65.019V57.777C97.3604 57.7388 97.3557 57.7 97.3421 57.664C97.3286 57.628 97.3065 57.5957 97.2779 57.57C97.2591 57.5611 97.2385 57.557 97.2179 57.558Z" fill="#EBEBEB"/>
<path d="M97.7249 58.455L96.3269 59.262C96.1753 59.3604 96.0489 59.4931 95.9582 59.6495C95.8675 59.8059 95.815 59.9815 95.8049 60.162V61.776C95.8049 62.109 96.0389 62.244 96.3269 62.076L97.7249 61.269C97.8761 61.1703 98.0018 61.0374 98.092 60.881C98.1821 60.7246 98.2342 60.5492 98.2439 60.369V58.755C98.2439 58.425 98.0099 58.29 97.7249 58.455Z" fill="#459AE9"/>
<path d="M91.1909 61.881L94.3349 60.081C94.4759 60 94.5929 60.066 94.5929 60.234V60.333C94.5876 60.4229 94.5616 60.5103 94.5168 60.5883C94.4721 60.6664 94.4098 60.7331 94.3349 60.783L91.1909 62.583C91.0469 62.667 90.9299 62.601 90.9329 62.433V62.331C90.9375 62.241 90.9633 62.1533 91.0081 62.0751C91.0529 61.9969 91.1156 61.9304 91.1909 61.881Z" fill="#EBEBEB"/>
<path d="M91.1909 63.3L94.3349 61.5C94.4759 61.416 94.5929 61.485 94.5929 61.65V61.749C94.5883 61.839 94.5626 61.9267 94.5178 62.0049C94.4729 62.0831 94.4103 62.1496 94.3349 62.199L91.1909 63.999C91.0469 64.083 90.9299 63.999 90.9329 63.849V63.744C90.9384 63.655 90.9646 63.5686 91.0094 63.4915C91.0542 63.4144 91.1163 63.3488 91.1909 63.3Z" fill="#EBEBEB"/>
<path d="M91.1909 64.692L94.3349 62.892C94.4759 62.811 94.5929 62.877 94.5929 63.042V63.144C94.5876 63.2339 94.5616 63.3213 94.5168 63.3993C94.4721 63.4774 94.4098 63.5441 94.3349 63.594L91.1909 65.394C91.0469 65.478 90.9299 65.412 90.9329 65.244V65.142C90.9373 65.0519 90.9629 64.9642 91.0078 64.886C91.0526 64.8077 91.1154 64.7413 91.1909 64.692Z" fill="#EBEBEB"/>
<path d="M91.1909 66.096L96.4109 63.096C96.5549 63.015 96.6719 63.096 96.6719 63.246V63.348C96.6668 63.4382 96.6405 63.526 96.5951 63.6041C96.5498 63.6823 96.4867 63.7487 96.4109 63.798L91.1909 66.798C91.0469 66.879 90.9299 66.813 90.9329 66.648V66.543C90.938 66.4535 90.9639 66.3664 91.0087 66.2888C91.0536 66.2112 91.116 66.1451 91.1909 66.096Z" fill="#EBEBEB"/>
<path d="M91.1909 67.5L96.4109 64.5C96.5549 64.416 96.6719 64.5 96.6719 64.65V64.749C96.667 64.8393 96.6408 64.9271 96.5954 65.0053C96.5501 65.0836 96.4868 65.1499 96.4109 65.199L91.1909 68.199C91.0469 68.283 90.9299 68.214 90.9329 68.049V67.947C90.9372 67.8574 90.9629 67.77 91.0078 67.6923C91.0527 67.6145 91.1154 67.5486 91.1909 67.5Z" fill="#EBEBEB"/>
<path d="M101.529 65.073V65.541C101.529 65.772 101.691 65.865 101.889 65.751L107.937 62.259C108.042 62.1902 108.13 62.0976 108.192 61.9886C108.255 61.8797 108.291 61.7575 108.297 61.632V61.164C108.297 60.933 108.138 60.84 107.937 60.954L101.889 64.446C101.784 64.5152 101.697 64.6079 101.635 64.7168C101.572 64.8256 101.536 64.9476 101.529 65.073Z" fill="#E0E0E0"/>
<path d="M101.682 54.768L107.952 51.147C108.252 50.979 108.474 51.114 108.474 51.447V58.689C108.463 58.8694 108.411 59.0448 108.32 59.2011C108.229 59.3574 108.103 59.4903 107.952 59.589L101.682 63.21C101.382 63.375 101.16 63.24 101.16 62.91V55.668C101.17 55.4875 101.222 55.3118 101.313 55.1554C101.404 54.9989 101.53 54.8662 101.682 54.768Z" fill="#FAFAFA"/>
<path d="M101.448 63.429C101.374 63.4297 101.302 63.4111 101.238 63.375C101.162 63.3247 101.101 63.2551 101.061 63.1734C101.021 63.0917 101.003 63.0008 101.01 62.91V55.668C101.02 55.4605 101.08 55.2584 101.184 55.0788C101.288 54.8992 101.435 54.7473 101.61 54.636L107.88 51.015C107.953 50.9578 108.041 50.9237 108.134 50.9172C108.227 50.9108 108.319 50.9321 108.399 50.9786C108.48 51.025 108.544 51.0945 108.585 51.1779C108.625 51.2614 108.64 51.3551 108.627 51.447V58.689C108.617 58.8961 108.557 59.0976 108.452 59.2767C108.348 59.4558 108.202 59.6071 108.027 59.718L101.757 63.339C101.664 63.3954 101.557 63.4264 101.448 63.429ZM101.748 54.897C101.619 54.982 101.511 55.0959 101.433 55.2297C101.356 55.3635 101.31 55.5136 101.301 55.668V62.91C101.296 62.9482 101.301 62.987 101.315 63.023C101.328 63.0591 101.35 63.0913 101.379 63.117C101.416 63.1292 101.455 63.132 101.493 63.1252C101.532 63.1184 101.568 63.1022 101.598 63.078L107.868 59.457C107.997 59.3725 108.105 59.2591 108.182 59.1258C108.26 58.9925 108.305 58.8429 108.315 58.689V51.447C108.331 51.4078 108.333 51.3641 108.319 51.3239C108.305 51.2838 108.277 51.2501 108.24 51.2291C108.204 51.2081 108.16 51.2013 108.119 51.2099C108.077 51.2185 108.04 51.242 108.015 51.276L101.748 54.897Z" fill="#EBEBEB"/>
<path d="M108.69 52.125L107.292 52.932C107.141 53.0307 107.015 53.1636 106.925 53.32C106.835 53.4764 106.783 53.6518 106.773 53.832V55.446C106.773 55.776 107.007 55.911 107.292 55.746L108.69 54.939C108.841 54.8403 108.967 54.7074 109.058 54.5511C109.149 54.3948 109.201 54.2194 109.212 54.039V52.425C109.212 52.092 108.975 51.957 108.69 52.125Z" fill="#459AE9"/>
<path d="M102.159 55.548L105.3 53.748C105.444 53.664 105.561 53.748 105.561 53.898V54C105.557 54.0904 105.531 54.1784 105.485 54.2567C105.44 54.335 105.376 54.4013 105.3 54.45L102.159 56.25C102.015 56.334 101.898 56.265 101.898 56.1V55.995C101.904 55.9053 101.93 55.8181 101.975 55.7405C102.021 55.6629 102.084 55.597 102.159 55.548Z" fill="#EBEBEB"/>
<path d="M102.159 56.955L105.3 55.155C105.444 55.074 105.561 55.155 105.561 55.305V55.407C105.556 55.4972 105.529 55.585 105.484 55.6632C105.439 55.7413 105.376 55.8077 105.3 55.857L102.159 57.657C102.015 57.741 101.898 57.675 101.898 57.507V57.405C101.903 57.3147 101.929 57.2269 101.974 57.1487C102.02 57.0705 102.083 57.0041 102.159 56.955Z" fill="#EBEBEB"/>
<path d="M102.159 58.359L105.3 56.559C105.444 56.475 105.561 56.559 105.561 56.709V56.808C105.556 56.8983 105.53 56.9861 105.484 57.0643C105.439 57.1425 105.376 57.2089 105.3 57.258L102.159 59.058C102.015 59.139 101.898 59.073 101.898 58.908V58.8C101.904 58.7113 101.931 58.6254 101.977 58.5489C102.022 58.4724 102.084 58.4074 102.159 58.359Z" fill="#EBEBEB"/>
<path d="M102.159 59.766L107.379 56.766C107.523 56.682 107.64 56.751 107.64 56.916V57C107.635 57.0902 107.608 57.178 107.563 57.2561C107.518 57.3343 107.455 57.4007 107.379 57.45L102.159 60.45C102.015 60.534 101.898 60.465 101.898 60.3V60.198C101.905 60.1107 101.932 60.0263 101.978 59.9514C102.023 59.8764 102.085 59.813 102.159 59.766Z" fill="#EBEBEB"/>
<path d="M102.159 61.17L107.379 58.17C107.523 58.089 107.64 58.155 107.64 58.32V58.422C107.635 58.5122 107.608 58.6 107.563 58.6782C107.518 58.7563 107.455 58.8227 107.379 58.872L102.159 61.872C102.015 61.953 101.898 61.887 101.898 61.722V61.617C101.904 61.5273 101.93 61.4402 101.975 61.3625C102.021 61.2849 102.084 61.219 102.159 61.17Z" fill="#EBEBEB"/>
<path d="M90.561 86.349V86.82C90.561 87.048 90.723 87.141 90.924 87.027L96.975 83.535C97.0807 83.4672 97.1687 83.3753 97.2318 83.2668C97.2949 83.1583 97.3313 83.0363 97.338 82.911V82.44C97.338 82.212 97.176 82.119 96.975 82.233L90.93 85.725C90.8233 85.7921 90.7341 85.8838 90.6699 85.9923C90.6058 86.1009 90.5684 86.2231 90.561 86.349Z" fill="#E0E0E0"/>
<path d="M90.7139 76.044L96.9749 72.423C97.2599 72.258 97.4939 72.393 97.4939 72.723V79.965C97.4837 80.1451 97.4314 80.3204 97.3413 80.4767C97.2511 80.6329 97.1257 80.7659 96.9749 80.865L90.7019 84.486C90.4019 84.651 90.1829 84.519 90.1829 84.186V76.944C90.1937 76.7626 90.2475 76.5864 90.3398 76.43C90.4321 76.2735 90.5604 76.1412 90.7139 76.044Z" fill="#FAFAFA"/>
<path d="M90.4801 84.708C90.4066 84.7087 90.3341 84.6901 90.2701 84.654C90.1945 84.6029 90.1339 84.5326 90.0944 84.4504C90.0549 84.3682 90.0379 84.2769 90.0451 84.186V76.944C90.0555 76.737 90.1155 76.5355 90.2199 76.3565C90.3243 76.1775 90.4701 76.0261 90.6451 75.915L96.9121 72.3C96.985 72.2441 97.0728 72.2111 97.1645 72.2051C97.2562 72.1991 97.3476 72.2203 97.4272 72.2662C97.5068 72.3121 97.571 72.3806 97.6118 72.4629C97.6525 72.5453 97.6679 72.6379 97.6561 72.729V79.971C97.6456 80.178 97.5857 80.3795 97.4813 80.5585C97.3769 80.7376 97.2311 80.889 97.0561 81L90.7831 84.621C90.691 84.6751 90.5868 84.705 90.4801 84.708ZM97.2181 72.501C97.1626 72.5045 97.1089 72.522 97.0621 72.552L90.7891 76.176C90.6603 76.2605 90.553 76.374 90.4759 76.5073C90.3988 76.6407 90.354 76.7902 90.3451 76.944V84.186C90.3288 84.2252 90.3274 84.2689 90.3411 84.3091C90.3548 84.3492 90.3828 84.3829 90.4196 84.4039C90.4564 84.4249 90.4997 84.4318 90.5412 84.4231C90.5827 84.4145 90.6197 84.391 90.6451 84.357L96.9181 80.736C97.0463 80.6502 97.153 80.536 97.23 80.4023C97.307 80.2686 97.3522 80.119 97.3621 79.965V72.723C97.3666 72.6848 97.3619 72.646 97.3483 72.61C97.3348 72.574 97.3127 72.5417 97.2841 72.516C97.2639 72.5051 97.241 72.4999 97.2181 72.501Z" fill="#EBEBEB"/>
<path d="M97.7249 73.401L96.3269 74.208C96.1753 74.3064 96.0489 74.4391 95.9582 74.5955C95.8675 74.7519 95.815 74.9275 95.8049 75.108V76.722C95.8049 77.055 96.0389 77.187 96.3269 77.022L97.7249 76.215C97.8761 76.1163 98.0018 75.9834 98.092 75.827C98.1821 75.6706 98.2342 75.4952 98.2439 75.315V73.701C98.2439 73.371 98.0099 73.236 97.7249 73.401Z" fill="#459AE9"/>
<path d="M91.1909 76.827L94.3349 75.027C94.4759 74.946 94.5929 75.012 94.5929 75.177V75.279C94.5876 75.3689 94.5616 75.4563 94.5168 75.5343C94.4721 75.6124 94.4098 75.6791 94.3349 75.729L91.1909 77.529C91.0469 77.613 90.9299 77.547 90.9329 77.379V77.277C90.9373 77.1869 90.9629 77.0992 91.0078 77.021C91.0526 76.9427 91.1154 76.8763 91.1909 76.827Z" fill="#EBEBEB"/>
<path d="M91.1909 78.231L94.3349 76.431C94.4759 76.347 94.5929 76.416 94.5929 76.581V76.68C94.5881 76.77 94.5623 76.8575 94.5174 76.9357C94.4726 77.0139 94.4101 77.0804 94.3349 77.13L91.1909 78.93C91.0469 79.011 90.9299 78.945 90.9329 78.78V78.675C90.9384 78.586 90.9646 78.4996 91.0094 78.4225C91.0542 78.3454 91.1163 78.2798 91.1909 78.231Z" fill="#EBEBEB"/>
<path d="M91.1909 79.638L94.3349 77.838C94.4759 77.757 94.5929 77.823 94.5929 77.988V78.09C94.5876 78.1799 94.5616 78.2673 94.5168 78.3453C94.4721 78.4234 94.4098 78.4901 94.3349 78.54L91.1909 80.34C91.0469 80.424 90.9299 80.355 90.9329 80.19V80.1C90.9349 80.0078 90.9594 79.9174 91.0044 79.8369C91.0494 79.7563 91.1134 79.688 91.1909 79.638Z" fill="#EBEBEB"/>
<path d="M91.1909 81.042L96.4109 78.042C96.5549 77.961 96.6719 78.027 96.6719 78.192V78.3C96.6668 78.3902 96.6405 78.478 96.5951 78.5562C96.5498 78.6343 96.4867 78.7007 96.4109 78.75L91.1909 81.75C91.0469 81.831 90.9299 81.765 90.9329 81.6V81.495C90.937 81.4045 90.9626 81.3162 91.0074 81.2375C91.0523 81.1587 91.1152 81.0917 91.1909 81.042Z" fill="#EBEBEB"/>
<path d="M91.1909 82.449L96.4109 79.449C96.5549 79.365 96.6719 79.431 96.6719 79.599V79.698C96.6668 79.7882 96.6405 79.876 96.5951 79.9542C96.5498 80.0323 96.4867 80.0987 96.4109 80.148L91.1909 83.148C91.0469 83.232 90.9299 83.163 90.9329 82.998V82.896C90.9372 82.8064 90.9629 82.719 91.0078 82.6413C91.0527 82.5635 91.1154 82.4976 91.1909 82.449Z" fill="#EBEBEB"/>
<path d="M101.529 80.016V80.487C101.529 80.718 101.691 80.811 101.889 80.694L107.937 77.205C108.042 77.1362 108.13 77.0436 108.192 76.9346C108.255 76.8257 108.291 76.7035 108.297 76.578V76.11C108.297 75.879 108.138 75.786 107.937 75.9L101.889 79.392C101.785 79.4609 101.698 79.5531 101.635 79.6614C101.573 79.7698 101.536 79.8912 101.529 80.016Z" fill="#E0E0E0"/>
<path d="M101.682 69.714L107.952 66.093C108.252 65.925 108.474 66.06 108.474 66.393V73.632C108.464 73.8126 108.412 73.9882 108.321 74.1447C108.23 74.3011 108.104 74.4338 107.952 74.532L101.682 78.156C101.382 78.321 101.16 78.186 101.16 77.856V70.614C101.17 70.4334 101.222 70.2578 101.313 70.1013C101.404 69.9449 101.53 69.8122 101.682 69.714Z" fill="#FAFAFA"/>
<path d="M101.448 78.375C101.374 78.3757 101.302 78.3571 101.238 78.321C101.162 78.2707 101.101 78.2011 101.061 78.1194C101.021 78.0377 101.003 77.9468 101.01 77.856V70.614C101.02 70.4064 101.079 70.2043 101.184 70.0246C101.288 69.845 101.434 69.6931 101.61 69.582L107.88 65.961C107.953 65.9038 108.041 65.8697 108.134 65.8632C108.227 65.8568 108.319 65.8781 108.399 65.9246C108.48 65.971 108.544 66.0405 108.585 66.124C108.625 66.2074 108.64 66.3011 108.627 66.393V73.632C108.617 73.8396 108.558 74.0417 108.453 74.2214C108.349 74.401 108.202 74.5529 108.027 74.664L101.757 78.3C101.662 78.3511 101.556 78.377 101.448 78.375ZM101.748 69.843C101.619 69.928 101.511 70.0419 101.433 70.1757C101.356 70.3095 101.31 70.4596 101.301 70.614V77.856C101.296 77.8938 101.3 77.9323 101.314 77.9679C101.328 78.0036 101.35 78.0352 101.379 78.06C101.416 78.0729 101.455 78.0763 101.493 78.07C101.531 78.0637 101.567 78.0479 101.598 78.024L107.877 74.4C108.006 74.315 108.114 74.2011 108.191 74.0673C108.269 73.9335 108.314 73.7834 108.324 73.629V66.393C108.34 66.3538 108.342 66.3101 108.328 66.27C108.314 66.2298 108.286 66.1961 108.249 66.1751C108.213 66.1541 108.169 66.1473 108.128 66.1559C108.086 66.1645 108.049 66.188 108.024 66.222L101.748 69.843Z" fill="#EBEBEB"/>
<path d="M108.69 67.071L107.292 67.878C107.141 67.9767 107.015 68.1096 106.925 68.266C106.835 68.4224 106.783 68.5978 106.773 68.778V70.392C106.773 70.722 107.007 70.857 107.292 70.692L108.69 69.885C108.841 69.7863 108.967 69.6534 109.058 69.4971C109.149 69.3408 109.201 69.1654 109.212 68.985V67.371C109.212 67.038 108.975 66.9 108.69 67.071Z" fill="#459AE9"/>
<path d="M102.159 70.5L105.3 68.7C105.444 68.616 105.561 68.685 105.561 68.85V68.949C105.556 69.0393 105.53 69.1271 105.484 69.2053C105.439 69.2835 105.376 69.3499 105.3 69.399L102.159 71.199C102.015 71.28 101.898 71.199 101.898 71.049V70.944C101.904 70.8548 101.931 70.7683 101.976 70.6912C102.021 70.6141 102.084 70.5487 102.159 70.5Z" fill="#EBEBEB"/>
<path d="M102.159 71.901L105.3 70.101C105.444 70.02 105.561 70.101 105.561 70.251V70.353C105.556 70.4432 105.529 70.531 105.484 70.6092C105.439 70.6873 105.376 70.7537 105.3 70.803L102.159 72.603C102.015 72.687 101.898 72.618 101.898 72.453V72.351C101.902 72.2606 101.928 72.1726 101.974 72.0943C102.019 72.016 102.083 71.9497 102.159 71.901Z" fill="#EBEBEB"/>
<path d="M102.159 73.305L105.3 71.505C105.444 71.421 105.561 71.487 105.561 71.655V71.754C105.556 71.8442 105.529 71.932 105.484 72.0102C105.439 72.0883 105.376 72.1547 105.3 72.204L102.159 74.004C102.015 74.085 101.898 74.019 101.898 73.854V73.749C101.904 73.6598 101.931 73.5733 101.976 73.4962C102.021 73.4191 102.084 73.3537 102.159 73.305Z" fill="#EBEBEB"/>
<path d="M102.159 74.7L107.379 71.7C107.523 71.616 107.64 71.682 107.64 71.85V71.949C107.635 72.0392 107.608 72.127 107.563 72.2052C107.518 72.2833 107.455 72.3497 107.379 72.399L102.159 75.399C102.015 75.483 101.898 75.414 101.898 75.249V75.147C101.903 75.0571 101.929 74.9697 101.974 74.892C102.02 74.8143 102.083 74.7485 102.159 74.7Z" fill="#EBEBEB"/>
<path d="M102.159 76.116L107.379 73.116C107.523 73.032 107.64 73.101 107.64 73.266V73.365C107.636 73.4554 107.61 73.5434 107.564 73.6217C107.519 73.7 107.455 73.7663 107.379 73.815L102.159 76.815C102.015 76.896 101.898 76.83 101.898 76.665V76.56C101.904 76.4708 101.931 76.3843 101.976 76.3072C102.021 76.2301 102.084 76.1647 102.159 76.116Z" fill="#EBEBEB"/>
<path d="M68.145 99.3V99.768C68.145 99.999 68.307 100.092 68.508 99.978L74.553 96.486C74.6585 96.418 74.7463 96.326 74.8094 96.2176C74.8725 96.1091 74.909 95.9873 74.916 95.862V95.4C74.916 95.169 74.754 95.076 74.553 95.193L68.508 98.682C68.4037 98.7498 68.3165 98.8409 68.2535 98.9481C68.1905 99.0554 68.1534 99.1759 68.145 99.3Z" fill="#E0E0E0"/>
<path d="M68.2981 88.995L74.5711 85.374C74.8711 85.209 75.0901 85.341 75.0901 85.674V92.916C75.0796 93.0961 75.0273 93.2712 74.9371 93.4275C74.847 93.5837 74.7217 93.7168 74.5711 93.816L68.2981 97.437C67.9981 97.602 67.7791 97.467 67.7791 97.137V89.895C67.7883 89.7147 67.8402 89.5391 67.9304 89.3826C68.0206 89.2262 68.1466 89.0934 68.2981 88.995Z" fill="#FAFAFA"/>
<path d="M68.0638 97.656C67.9903 97.6567 67.9179 97.6381 67.8538 97.602C67.7783 97.5515 67.7177 97.4819 67.6781 97.4001C67.6386 97.3184 67.6216 97.2275 67.6288 97.137V89.895C67.6393 89.688 67.6992 89.4865 67.8036 89.3075C67.908 89.1284 68.0538 88.977 68.2288 88.866L74.5018 85.245C74.5744 85.1875 74.6625 85.1532 74.7548 85.1464C74.8471 85.1396 74.9393 85.1607 75.0195 85.2069C75.0997 85.2532 75.1641 85.3224 75.2045 85.4057C75.2448 85.489 75.2592 85.5824 75.2458 85.674V92.916C75.2354 93.123 75.1755 93.3245 75.0711 93.5035C74.9667 93.6826 74.8209 93.834 74.6458 93.945L68.3728 97.566C68.2794 97.6224 68.1729 97.6534 68.0638 97.656ZM68.3728 89.124C68.2441 89.2093 68.137 89.3234 68.06 89.4572C67.9829 89.591 67.938 89.7409 67.9288 89.895V97.137C67.9126 97.1762 67.9112 97.2199 67.9249 97.2601C67.9386 97.3002 67.9665 97.3339 68.0034 97.3549C68.0402 97.3759 68.0835 97.3828 68.125 97.3741C68.1665 97.3655 68.2034 97.342 68.2288 97.308L74.5018 93.684C74.63 93.5988 74.7368 93.4852 74.8138 93.352C74.8908 93.2188 74.936 93.0696 74.9458 92.916V85.674C74.9621 85.6348 74.9635 85.5911 74.9498 85.551C74.9361 85.5108 74.9082 85.4771 74.8713 85.4561C74.8345 85.4351 74.7912 85.4283 74.7497 85.4369C74.7082 85.4455 74.6713 85.4691 74.6458 85.503L68.3728 89.124Z" fill="#EBEBEB"/>
<path d="M75.3089 86.352L73.9109 87.159C73.7591 87.2572 73.6326 87.3899 73.5419 87.5463C73.4512 87.7028 73.3987 87.8784 73.3889 88.059V89.673C73.3889 90.003 73.6229 90.138 73.9109 89.973L75.3089 89.166C75.4597 89.0669 75.5852 88.9339 75.6753 88.7776C75.7654 88.6214 75.8177 88.4461 75.8279 88.266V86.652C75.8279 86.319 75.5939 86.187 75.3089 86.352Z" fill="#459AE9"/>
<path d="M68.7748 89.778L71.9188 87.978C72.0598 87.894 72.1768 87.963 72.1768 88.128V88.227C72.1723 88.317 72.1465 88.4047 72.1017 88.4829C72.0569 88.5611 71.9942 88.6276 71.9188 88.677L68.7748 90.477C68.6308 90.561 68.5168 90.477 68.5168 90.327V90.225C68.5212 90.1353 68.5468 90.048 68.5917 89.9703C68.6366 89.8925 68.6994 89.8266 68.7748 89.778Z" fill="#EBEBEB"/>
<path d="M68.7748 91.182L71.9188 89.382C72.0598 89.301 72.1768 89.367 72.1768 89.535V89.634C72.1716 89.7239 72.1455 89.8113 72.1008 89.8893C72.056 89.9674 71.9937 90.0341 71.9188 90.084L68.7748 91.884C68.6308 91.965 68.5168 91.884 68.5168 91.734V91.629C68.5219 91.5395 68.5479 91.4525 68.5927 91.3748C68.6375 91.2972 68.6999 91.2311 68.7748 91.182Z" fill="#EBEBEB"/>
<path d="M68.7748 92.589L71.9188 90.789C72.0598 90.705 72.1768 90.774 72.1768 90.939V91.038C72.1723 91.128 72.1465 91.2157 72.1017 91.2939C72.0569 91.3721 71.9942 91.4386 71.9188 91.488L68.7748 93.3C68.6308 93.384 68.5168 93.3 68.5168 93.15V93.045C68.5198 92.9538 68.5447 92.8647 68.5897 92.7852C68.6346 92.7058 68.6982 92.6385 68.7748 92.589Z" fill="#EBEBEB"/>
<path d="M68.7748 93.993L73.9948 90.993C74.1388 90.909 74.2558 90.993 74.2558 91.143V91.242C74.2514 91.3324 74.2254 91.4204 74.18 91.4987C74.1346 91.577 74.0711 91.6433 73.9948 91.692L68.7748 94.692C68.6308 94.776 68.5168 94.71 68.5168 94.542V94.44C68.5219 94.3505 68.5479 94.2635 68.5927 94.1858C68.6375 94.1082 68.6999 94.0421 68.7748 93.993Z" fill="#EBEBEB"/>
<path d="M68.7748 95.4L73.9948 92.4C74.1388 92.319 74.2558 92.4 74.2558 92.55V92.652C74.2507 92.7422 74.2244 92.83 74.179 92.9081C74.1337 92.9863 74.0706 93.0527 73.9948 93.102L68.7748 96.102C68.6308 96.183 68.5168 96.117 68.5168 95.952V95.847C68.5219 95.7575 68.5479 95.6704 68.5927 95.5928C68.6375 95.5152 68.6999 95.4491 68.7748 95.4Z" fill="#EBEBEB"/>
<path d="M79.113 92.967V93.438C79.113 93.666 79.275 93.762 79.473 93.645L85.521 90.153C85.6264 90.0852 85.7141 89.9932 85.7767 89.8847C85.8394 89.7761 85.8751 89.6542 85.881 89.529V89.061C85.881 88.83 85.722 88.737 85.521 88.851L79.473 92.343C79.3685 92.4117 79.2814 92.5039 79.2189 92.6122C79.1564 92.7206 79.1201 92.8421 79.113 92.967Z" fill="#E0E0E0"/>
<path d="M79.2749 82.662L85.5449 79.041C85.8449 78.876 86.0669 79.011 86.0669 79.341V86.583C86.0571 86.7636 86.0047 86.9392 85.9139 87.0957C85.8232 87.2521 85.6968 87.3848 85.5449 87.483L79.2749 91.104C78.9749 91.272 78.7529 91.137 78.7529 90.804V83.562C78.7635 83.3816 78.8162 83.2062 78.9068 83.0499C78.9975 82.8936 79.1236 82.7607 79.2749 82.662Z" fill="#FAFAFA"/>
<path d="M79.0319 91.326C78.9584 91.3267 78.8859 91.3081 78.8219 91.272C78.746 91.221 78.685 91.1508 78.645 91.0687C78.6049 90.9865 78.5873 90.8952 78.5939 90.804V83.562C78.6046 83.3551 78.6646 83.1537 78.769 82.9747C78.8734 82.7957 79.019 82.6442 79.1939 82.533L85.4609 78.9C85.5337 78.8431 85.6219 78.8092 85.7142 78.8027C85.8064 78.7961 85.8985 78.8172 85.9787 78.8632C86.0589 78.9093 86.1235 78.9782 86.1643 79.0612C86.2051 79.1441 86.2203 79.2374 86.2079 79.329V86.571C86.1982 86.7782 86.1386 86.9799 86.0341 87.1591C85.9296 87.3383 85.7834 87.4895 85.6079 87.6L79.3379 91.224C79.2465 91.2841 79.141 91.3193 79.0319 91.326ZM85.7699 79.122C85.7131 79.1236 85.658 79.1413 85.6109 79.173L79.3409 82.8C79.2118 82.8845 79.1043 82.9979 79.0267 83.1312C78.9491 83.2645 78.9036 83.4141 78.8939 83.568V90.81C78.8885 90.8483 78.8929 90.8873 78.9065 90.9235C78.9201 90.9596 78.9426 90.9918 78.9719 91.017C79.0086 91.0291 79.0477 91.0321 79.0858 91.0258C79.1239 91.0196 79.16 91.0042 79.1909 90.981L85.4609 87.36C85.59 87.2749 85.6975 87.1609 85.7751 87.0271C85.8527 86.8933 85.8981 86.7434 85.9079 86.589V79.341C85.9124 79.3028 85.9077 79.264 85.8941 79.228C85.8806 79.192 85.8585 79.1597 85.8299 79.134C85.8111 79.1255 85.7905 79.1214 85.7699 79.122Z" fill="#EBEBEB"/>
<path d="M86.2739 80.019L84.8759 80.826C84.7253 80.9252 84.5999 81.0583 84.5098 81.2145C84.4197 81.3708 84.3674 81.5459 84.3569 81.726V83.34C84.3569 83.673 84.5909 83.808 84.8759 83.64L86.2739 82.833C86.4258 82.7348 86.5522 82.6021 86.643 82.4456C86.7337 82.2892 86.7861 82.1136 86.7959 81.933V80.319C86.7959 79.989 86.5619 79.854 86.2739 80.019Z" fill="#459AE9"/>
<path d="M79.7429 83.445L82.8839 81.645C83.0279 81.564 83.1449 81.63 83.1449 81.798V81.9C83.1398 81.9902 83.1135 82.078 83.0681 82.1562C83.0228 82.2343 82.9597 82.3007 82.8839 82.35L79.7429 84.15C79.5989 84.231 79.4819 84.165 79.4819 83.997V83.895C79.4871 83.8048 79.5134 83.7171 79.5587 83.6389C79.6041 83.5607 79.6672 83.4943 79.7429 83.445Z" fill="#EBEBEB"/>
<path d="M79.7429 84.852L82.8839 83.052C83.0279 82.968 83.1449 83.037 83.1449 83.202V83.301C83.1405 83.3914 83.1145 83.4794 83.0691 83.5577C83.0237 83.636 82.9602 83.7023 82.8839 83.751L79.7429 85.551C79.5989 85.635 79.4819 85.566 79.4819 85.401V85.296C79.4873 85.2067 79.5137 85.1198 79.5591 85.0427C79.6045 84.9655 79.6675 84.9002 79.7429 84.852Z" fill="#EBEBEB"/>
<path d="M79.7429 86.256L82.8839 84.456C83.0279 84.375 83.1449 84.441 83.1449 84.606V84.708C83.1398 84.7982 83.1135 84.886 83.0681 84.9641C83.0228 85.0423 82.9597 85.1087 82.8839 85.158L79.7429 86.958C79.5989 87.042 79.4819 86.976 79.4819 86.808V86.7C79.488 86.6108 79.5147 86.5243 79.56 86.4472C79.6053 86.3701 79.668 86.3047 79.7429 86.256Z" fill="#EBEBEB"/>
<path d="M79.7429 87.66L84.9629 84.66C85.1069 84.579 85.2239 84.645 85.2239 84.81V84.9C85.2188 84.9902 85.1925 85.078 85.1471 85.1562C85.1018 85.2343 85.0387 85.3007 84.9629 85.35L79.7429 88.35C79.5989 88.431 79.4819 88.365 79.4819 88.2V88.095C79.4893 88.0074 79.5167 87.9226 79.562 87.8472C79.6072 87.7718 79.6691 87.7078 79.7429 87.66Z" fill="#EBEBEB"/>
<path d="M79.7429 89.067L84.9629 86.067C85.1069 85.983 85.2239 86.052 85.2239 86.217V86.316C85.219 86.4063 85.1928 86.4941 85.1474 86.5723C85.1021 86.6505 85.0389 86.7169 84.9629 86.766L79.7429 89.766C79.5989 89.85 79.4819 89.766 79.4819 89.616V89.514C79.4868 89.4241 79.5131 89.3367 79.5584 89.259C79.6038 89.1813 79.6671 89.1155 79.7429 89.067Z" fill="#EBEBEB"/>
<path d="M50.718 60.573L49.5 59.862V65.493L50.718 66.198V60.573Z" fill="#459AE9"/>
<path opacity="0.1" d="M50.718 60.573L49.5 59.862V65.493L50.718 66.198V60.573Z" fill="black"/>
<path d="M122.694 83.841C122.555 83.7781 122.403 83.7528 122.251 83.7675C122.099 83.7823 121.954 83.8366 121.83 83.925C121.476 84.155 121.181 84.4648 120.968 84.8295C120.756 85.1942 120.632 85.6036 120.606 86.025C120.59 86.1765 120.614 86.3295 120.677 86.4686C120.739 86.6077 120.837 86.7279 120.96 86.817L136.146 96.417C136.446 96.627 136.899 96.615 137.394 96.33C137.892 96.0079 138.306 95.573 138.604 95.0606C138.901 94.5481 139.074 93.9727 139.107 93.381C139.107 92.811 138.897 92.418 138.561 92.253L122.694 83.841Z" fill="#459AE9"/>
<path opacity="0.15" d="M120.606 86.037C120.606 86.814 121.149 87.132 121.824 86.745C122.178 86.515 122.473 86.2052 122.686 85.8405C122.898 85.4758 123.022 85.0663 123.048 84.645C123.048 83.868 122.505 83.55 121.83 83.937C121.476 84.167 121.181 84.4768 120.968 84.8415C120.756 85.2062 120.632 85.6156 120.606 86.037Z" fill="black"/>
<path d="M117.246 81.822C117.031 81.9616 116.851 82.1501 116.722 82.3722C116.594 82.5943 116.519 82.8437 116.505 83.1C116.495 83.1912 116.51 83.2833 116.548 83.3671C116.585 83.4508 116.644 83.5232 116.718 83.577L121.302 86.238C121.385 86.2767 121.477 86.2923 121.568 86.2834C121.66 86.2744 121.747 86.2411 121.821 86.187C122.039 86.0474 122.22 85.8578 122.349 85.6339C122.479 85.41 122.553 85.1583 122.565 84.9C122.576 84.8082 122.562 84.7153 122.524 84.6309C122.487 84.5464 122.427 84.4736 122.352 84.42L117.768 81.759C117.683 81.7221 117.59 81.7084 117.498 81.7195C117.407 81.7306 117.32 81.766 117.246 81.822Z" fill="#263238"/>
<path opacity="0.1" d="M122.397 86.247L138.021 95.847C137.836 96.039 137.626 96.2055 137.397 96.342C136.902 96.627 136.458 96.642 136.146 96.429L120.963 86.829C121.101 86.8928 121.254 86.9187 121.405 86.9039C121.556 86.8892 121.701 86.8343 121.824 86.745C122.042 86.6131 122.236 86.4446 122.397 86.247Z" fill="black"/>
<path d="M125.019 72.579C125.019 72.45 125.019 72.327 125.001 72.201C124.983 72.075 124.986 71.952 124.971 71.829C124.956 71.706 124.956 71.667 124.947 71.586C124.926 71.37 124.893 71.16 124.86 70.959C124.842 70.869 124.827 70.773 124.809 70.683C124.791 70.593 124.773 70.512 124.755 70.425C124.701 70.194 124.647 69.966 124.581 69.75C124.545 69.648 124.515 69.543 124.479 69.45C124.473 69.4343 124.468 69.4183 124.464 69.402C124.425 69.3 124.392 69.204 124.353 69.102C124.313 68.9917 124.267 68.8836 124.215 68.778C124.182 68.699 124.145 68.6219 124.104 68.547C124.083 68.4904 124.056 68.4361 124.023 68.385C123.993 68.319 123.957 68.253 123.921 68.19L123.894 68.145C123.864 68.088 123.828 68.034 123.795 67.977C123.762 67.92 123.747 67.905 123.726 67.869C123.564 67.6158 123.384 67.3751 123.186 67.149C123.15 67.113 123.117 67.074 123.084 67.038C123.051 67.002 123.027 66.978 123 66.948L122.889 66.84C122.787 66.7328 122.678 66.6326 122.562 66.54C122.51 66.4937 122.455 66.4506 122.397 66.411C122.34 66.366 122.283 66.324 122.223 66.285C122.134 66.2185 122.041 66.1574 121.944 66.102L121.869 66.054H121.854L118.554 64.137L118.53 64.122C117.676 63.6457 116.712 63.4016 115.734 63.414C114.276 63.414 112.632 63.894 110.889 64.899C104.889 68.355 100.047 76.761 100.047 83.679C100.047 87.126 101.247 89.55 103.203 90.687H103.221L106.521 92.601H106.539L106.593 92.631C106.68 92.679 106.764 92.724 106.851 92.766C106.938 92.808 107.067 92.865 107.178 92.91C107.289 92.955 107.376 92.988 107.478 93.018C107.531 93.0381 107.585 93.0542 107.64 93.066C107.695 93.0885 107.753 93.1056 107.811 93.117L107.988 93.162C108.03 93.1739 108.074 93.1829 108.117 93.189L108.351 93.231H108.405L108.687 93.267C110.304 93.438 112.182 92.982 114.192 91.824C120.192 88.365 125.034 79.956 125.034 73.044C125.028 72.9 125.025 72.744 125.019 72.579ZM117.756 67.689C117.991 68.5491 118.106 69.4375 118.098 70.329C118.098 76.428 113.634 84.156 108.354 87.204C107.583 87.6629 106.751 88.0094 105.882 88.233C105.647 87.3719 105.532 86.4825 105.54 85.59C105.54 79.491 110.001 71.763 115.284 68.715C116.055 68.2564 116.887 67.9109 117.756 67.689Z" fill="#459AE9"/>
<path opacity="0.1" d="M106.365 92.526L103.185 90.684C101.235 89.544 100.029 87.117 100.029 83.676C100.029 80.592 100.995 77.214 102.594 74.109L105.894 76.026C104.292 79.128 103.326 82.509 103.326 85.593C103.338 88.965 104.475 91.356 106.365 92.526Z" fill="black"/>
<path opacity="0.4" d="M125.019 72.579C125.019 72.45 125.019 72.327 125.001 72.201C124.983 72.075 124.986 71.952 124.971 71.829C124.956 71.706 124.956 71.667 124.947 71.586C124.926 71.37 124.893 71.16 124.86 70.959C124.842 70.869 124.827 70.773 124.809 70.683C124.791 70.593 124.773 70.512 124.755 70.425C124.701 70.194 124.647 69.966 124.581 69.75C124.545 69.648 124.515 69.543 124.479 69.45C124.473 69.4343 124.468 69.4183 124.464 69.402C124.425 69.3 124.392 69.204 124.353 69.102C124.312 68.9917 124.266 68.8836 124.215 68.778C124.182 68.699 124.145 68.6219 124.104 68.547C124.082 68.4904 124.055 68.4361 124.023 68.385C123.993 68.319 123.957 68.253 123.921 68.19L123.894 68.145C123.864 68.088 123.828 68.034 123.795 67.977C123.762 67.92 123.747 67.905 123.726 67.869C123.564 67.6158 123.384 67.3751 123.186 67.149C123.15 67.113 123.117 67.074 123.084 67.038C123.051 67.002 123.027 66.978 123 66.948L122.889 66.84C122.787 66.7328 122.678 66.6326 122.562 66.54C122.51 66.4937 122.454 66.4506 122.397 66.411C122.34 66.366 122.283 66.324 122.223 66.285C122.134 66.2185 122.041 66.1574 121.944 66.102C119.976 64.902 117.144 64.932 114.186 66.801C108.243 70.545 103.371 78.846 103.341 85.581C103.326 89.085 104.583 91.53 106.59 92.643C106.677 92.691 106.761 92.736 106.848 92.778C106.935 92.82 107.064 92.877 107.175 92.922C107.286 92.967 107.373 93 107.475 93.03C107.528 93.0501 107.582 93.0662 107.637 93.078C107.692 93.1005 107.749 93.1175 107.808 93.129L107.985 93.174C108.027 93.1859 108.07 93.1949 108.114 93.201L108.348 93.243H108.402L108.684 93.279C110.301 93.45 112.179 92.994 114.189 91.836C120.189 88.377 125.031 79.968 125.031 73.056C125.028 72.9 125.025 72.744 125.019 72.579ZM113.085 89.949C111.741 90.726 110.448 91.134 109.341 91.134C107.265 91.134 106.311 89.718 105.882 88.233C105.647 87.3719 105.532 86.4825 105.54 85.59C105.54 79.491 110.001 71.763 115.284 68.715C116.055 68.2564 116.887 67.9109 117.756 67.689C118.172 67.587 118.599 67.5337 119.028 67.53C122.46 67.53 122.826 71.406 122.826 73.074C122.826 79.173 118.368 86.901 113.085 89.949Z" fill="white"/>
<path opacity="0.1" d="M122.826 73.074C122.826 79.17 118.368 86.901 113.085 89.949C111.741 90.726 110.448 91.134 109.344 91.134C108.861 91.1534 108.381 91.0627 107.939 90.8688C107.496 90.675 107.104 90.383 106.791 90.015C106.737 89.952 106.686 89.886 106.635 89.82C106.584 89.754 106.536 89.685 106.494 89.613C106.46 89.5638 106.429 89.5127 106.401 89.46C106.38 89.427 106.359 89.394 106.341 89.361C106.323 89.328 106.299 89.277 106.275 89.235C106.251 89.193 106.236 89.157 106.218 89.118C106.2 89.079 106.179 89.04 106.161 88.998L106.071 88.782C106.035 88.692 106.002 88.602 105.972 88.509C105.942 88.416 105.909 88.326 105.885 88.233C106.754 88.0094 107.586 87.6629 108.357 87.204C113.637 84.156 118.101 76.428 118.101 70.329C118.109 69.4375 117.994 68.5491 117.759 67.689C118.175 67.587 118.602 67.5337 119.031 67.53C119.198 67.5306 119.366 67.5406 119.532 67.56L119.688 67.584C122.505 68.052 122.826 71.52 122.826 73.074Z" fill="black"/>
<path opacity="0.7" d="M120.93 72C120.93 78.099 116.472 85.827 111.189 88.875C109.845 89.652 108.552 90.075 107.445 90.075C107.225 90.0759 107.005 90.0578 106.788 90.021C106.734 89.958 106.683 89.892 106.632 89.826C106.581 89.76 106.533 89.691 106.491 89.619C106.457 89.5698 106.426 89.5187 106.398 89.466C106.377 89.433 106.356 89.4 106.338 89.367C106.32 89.334 106.296 89.283 106.272 89.241C106.248 89.199 106.233 89.163 106.215 89.124C106.197 89.085 106.176 89.046 106.158 89.004L106.068 88.788C106.032 88.698 105.999 88.608 105.969 88.515C105.939 88.422 105.906 88.332 105.882 88.239C106.751 88.0154 107.583 87.6689 108.354 87.21C113.634 84.162 118.098 76.434 118.098 70.335C118.106 69.4435 117.991 68.5551 117.756 67.695C118.173 67.593 118.599 67.5397 119.028 67.536C119.196 67.5366 119.363 67.5466 119.529 67.566L119.685 67.59C120.771 68.862 120.93 70.911 120.93 72Z" fill="white"/>
</svg>
