<svg width="184" height="60" viewBox="0 0 184 60" fill="none" xmlns="http://www.w3.org/2000/svg">
<g clip-path="url(#clip0_971_43)">
<path d="M6.66773 47.8397H0.814941V12.2117H21.1882V17.1344H6.66773V28.2711H20.2745V33.2181H6.66773V47.8397ZM49.1193 47.8397L45.5138 37.9457H31.7093L28.178 47.8397H21.9549L35.4629 12.0656H41.8836L55.3917 47.8397H49.1193ZM43.9579 32.9257L40.5748 23.2268C40.3279 22.5769 39.9821 21.5533 39.5377 20.1562C39.1095 18.7591 38.8132 17.7355 38.6486 17.0856C38.2041 19.084 37.5537 21.269 36.6977 23.641L33.438 32.9257H43.9579ZM86.7058 47.8397H79.8654L68.5304 31.7072L65.0484 34.5097V47.8397H59.1463V12.2117H65.0484V29.2216C66.6618 27.272 68.2671 25.3956 69.864 23.5922L79.6185 12.2117H86.3355C80.0301 19.5227 75.5109 24.7295 72.7779 27.8326L86.7058 47.8397ZM102.956 47.8397H97.054V17.2076H86.4353V12.2117H113.575V17.2076H102.956V47.8397ZM150.174 29.9771C150.174 35.7769 148.701 40.2851 145.754 43.502C142.823 46.7186 138.666 48.3271 133.282 48.3271C127.833 48.3271 123.643 46.735 120.713 43.5507C117.799 40.3502 116.342 35.8095 116.342 29.9282C116.342 24.0472 117.807 19.5308 120.737 16.3789C123.684 13.2272 127.883 11.6514 133.332 11.6514C138.699 11.6514 142.848 13.2516 145.778 16.4521C148.709 19.6526 150.174 24.1609 150.174 29.9771ZM122.614 29.9771C122.614 34.3635 123.511 37.694 125.306 39.9684C127.101 42.2266 129.759 43.3557 133.282 43.3557C136.789 43.3557 139.432 42.2347 141.21 39.9929C143.004 37.7507 143.901 34.4122 143.901 29.9771C143.901 25.6068 143.012 22.2926 141.234 20.0344C139.473 17.7762 136.839 16.647 133.332 16.647C129.792 16.647 127.117 17.7762 125.306 20.0344C123.511 22.2926 122.614 25.6068 122.614 29.9771ZM162.819 28.7828H166.917C169.667 28.7828 171.659 28.2792 172.895 27.272C174.129 26.2648 174.747 24.7701 174.747 22.7881C174.747 20.7735 174.08 19.3277 172.746 18.4503C171.412 17.5731 169.403 17.1344 166.721 17.1344H162.819V28.7828ZM162.819 33.608V47.8397H156.916V12.2117H167.116C171.774 12.2117 175.224 13.0728 177.462 14.795C179.702 16.5171 180.821 19.1164 180.821 22.5931C180.821 27.0283 178.483 30.1882 173.808 32.0727L184.007 47.8397H177.29L168.646 33.608H162.819Z" fill="#0E1557"/>
<path d="M36.8488 59.3807L36.1954 57.5875H33.6934L33.0533 59.3807H31.9253L34.3736 52.8967H35.5373L37.9858 59.3807H36.8488ZM35.9133 56.6776L35.3002 54.9196C35.2554 54.8018 35.1928 54.6164 35.1122 54.3631C35.0346 54.1098 34.9808 53.9244 34.9511 53.8066C34.8705 54.1687 34.7526 54.5647 34.5974 54.9947L34.0066 56.6776H35.9133ZM42.414 52.9232V53.8286H39.5985V59.3807H38.5288V52.9232H42.414ZM46.86 59.3807H43.1584V52.9232H46.86V53.8153H44.228V55.5734H46.6944V56.4567H44.228V58.4841H46.86V59.3807ZM53.1188 59.3807H52.0446V56.47H49.0278V59.3807H47.9579V52.9232H49.0278V55.5645H52.0446V52.9232H53.1188V59.3807ZM56.7816 59.3807H55.7118V53.8286H53.7871V52.9232H58.7061V53.8286H56.7816V59.3807ZM62.1765 53.7359C61.5617 53.7359 61.0784 53.9509 60.7263 54.3807C60.3742 54.8107 60.1981 55.404 60.1981 56.1607C60.1981 56.9528 60.3667 57.5521 60.7039 57.9585C61.0441 58.3648 61.5349 58.568 62.1765 58.568C62.4541 58.568 62.7226 58.5415 62.9821 58.4885C63.2418 58.4326 63.5119 58.3618 63.7923 58.2765V59.182C63.2791 59.3734 62.6972 59.469 62.0466 59.469C61.0889 59.469 60.3533 59.1834 59.84 58.6121C59.3268 58.038 59.0701 57.2178 59.0701 56.152C59.0701 55.4806 59.194 54.8932 59.4417 54.3896C59.6923 53.8861 60.0533 53.5003 60.5248 53.2323C60.9964 52.9644 61.5499 52.8304 62.1854 52.8304C62.8538 52.8304 63.4716 52.9688 64.0385 53.2456L63.6535 54.1246C63.4327 54.0215 63.1985 53.9317 62.9508 53.8551C62.7062 53.7757 62.4481 53.7359 62.1765 53.7359ZM67.1418 59.3807H66.0719V53.8286H64.1474V52.9232H69.0665V53.8286H67.1418V59.3807ZM69.7527 52.9232H71.6953C72.5965 52.9232 73.2468 53.0527 73.6467 53.3119C74.0495 53.5709 74.2511 53.9803 74.2511 54.5398C74.2511 54.9167 74.1526 55.2302 73.9557 55.4806C73.7586 55.7309 73.4752 55.8884 73.1052 55.9531V55.9974C73.5647 56.0827 73.9019 56.2521 74.1167 56.5052C74.3345 56.7555 74.4434 57.0957 74.4434 57.5255C74.4434 58.1057 74.2376 58.5607 73.8257 58.8904C73.417 59.2173 72.8471 59.3807 72.116 59.3807H69.7527V52.9232ZM70.8224 55.591H71.8519C72.2995 55.591 72.6262 55.5217 72.8321 55.3834C73.038 55.2421 73.1409 55.0036 73.1409 54.6678C73.1409 54.3646 73.029 54.1452 72.8052 54.0097C72.5844 53.8743 72.2323 53.8066 71.749 53.8066H70.8224V55.591ZM70.8224 56.4478V58.493H71.9594C72.407 58.493 72.7441 58.4091 72.9709 58.2411C73.2007 58.0703 73.3156 57.8024 73.3156 57.4373C73.3156 57.1016 73.1991 56.8527 72.9664 56.6908C72.7336 56.5289 72.3801 56.4478 71.9056 56.4478H70.8224ZM81.2932 56.1431C81.2932 57.1943 81.0261 58.0115 80.4919 58.5945C79.9608 59.1775 79.2073 59.469 78.2316 59.469C77.2438 59.469 76.4844 59.1805 75.9532 58.6034C75.4252 58.0232 75.1611 57.2002 75.1611 56.1343C75.1611 55.0683 75.4266 54.2497 75.9578 53.6784C76.4919 53.1073 77.2529 52.8215 78.2405 52.8215C79.2133 52.8215 79.9653 53.1116 80.4965 53.6917C81.0275 54.2718 81.2932 55.0889 81.2932 56.1431ZM76.2979 56.1431C76.2979 56.9382 76.4606 57.5418 76.7858 57.9541C77.1111 58.3634 77.593 58.568 78.2316 58.568C78.8671 58.568 79.346 58.3648 79.6683 57.9585C79.9936 57.5521 80.1562 56.9471 80.1562 56.1431C80.1562 55.3509 79.9951 54.7503 79.6729 54.3411C79.3535 53.9317 78.8762 53.7271 78.2405 53.7271C77.599 53.7271 77.1141 53.9317 76.7858 54.3411C76.4606 54.7503 76.2979 55.3509 76.2979 56.1431ZM89.5989 59.3807H88.5247V56.47H85.5078V59.3807H84.4382V52.9232H85.5078V55.5645H88.5247V52.9232H89.5989V59.3807ZM94.7029 59.3807H91.0013V52.9232H94.7029V53.8153H92.0711V55.5734H94.5372V56.4567H92.0711V58.4841H94.7029V59.3807ZM100.134 54.8754C100.134 55.5498 99.9099 56.0665 99.4623 56.4258C99.0147 56.785 98.3776 56.9647 97.5511 56.9647H96.8707V59.3807H95.801V52.9232H97.6854C98.503 52.9232 99.1146 53.0881 99.5205 53.4179C99.9292 53.7476 100.134 54.2335 100.134 54.8754ZM96.8707 56.0768H97.4392C97.9882 56.0768 98.3911 55.9826 98.6476 55.7942C98.9043 55.6058 99.0326 55.3113 99.0326 54.9108C99.0326 54.5398 98.9177 54.2629 98.6879 54.0805C98.4581 53.8978 98.1001 53.8066 97.6136 53.8066H96.8707V56.0768ZM106.097 52.9232L104.034 57.5168C103.78 58.0792 103.547 58.4871 103.335 58.7403C103.124 58.9905 102.877 59.1745 102.597 59.2925C102.319 59.4102 101.982 59.469 101.585 59.469C101.239 59.469 100.918 59.4249 100.623 59.3366V58.3869C100.915 58.5017 101.221 58.5591 101.54 58.5591C101.812 58.5591 102.039 58.4944 102.221 58.3648C102.406 58.2324 102.573 57.9953 102.722 57.6537L100.31 52.9232H101.464L103.062 56.1607C103.206 56.467 103.294 56.6716 103.326 56.7747H103.371C103.389 56.6982 103.434 56.576 103.506 56.4081L104.978 52.9232H106.097ZM111.465 59.3807H110.234L108.596 56.7393L106.944 59.3807H105.799L107.969 56.0327L105.937 52.9232H107.128L108.641 55.3658L110.154 52.9232H111.308L109.263 56.0503L111.465 59.3807ZM117.836 56.1431C117.836 57.1943 117.569 58.0115 117.035 58.5945C116.503 59.1775 115.75 59.469 114.774 59.469C113.787 59.469 113.027 59.1805 112.496 58.6034C111.968 58.0232 111.704 57.2002 111.704 56.1343C111.704 55.0683 111.969 54.2497 112.501 53.6784C113.035 53.1073 113.796 52.8215 114.783 52.8215C115.756 52.8215 116.508 53.1116 117.039 53.6917C117.57 54.2718 117.836 55.0889 117.836 56.1431ZM112.841 56.1431C112.841 56.9382 113.003 57.5418 113.329 57.9541C113.654 58.3634 114.136 58.568 114.774 58.568C115.41 58.568 115.889 58.3648 116.211 57.9585C116.536 57.5521 116.699 56.9471 116.699 56.1431C116.699 55.3509 116.538 54.7503 116.216 54.3411C115.896 53.9317 115.419 53.7271 114.783 53.7271C114.142 53.7271 113.657 53.9317 113.329 54.3411C113.003 54.7503 112.841 55.3509 112.841 56.1431ZM121.749 59.3807L119.852 53.9877H119.816C119.866 54.7885 119.892 55.5395 119.892 56.2403V59.3807H118.921V52.9232H120.429L122.246 58.06H122.273L124.144 52.9232H125.657V59.3807H124.627V56.1872C124.627 55.8662 124.635 55.4481 124.65 54.9328C124.668 54.4175 124.683 54.1054 124.694 53.9966H124.659L122.694 59.3807H121.749ZM132.869 56.1431C132.869 57.1943 132.602 58.0115 132.068 58.5945C131.537 59.1775 130.783 59.469 129.807 59.469C128.82 59.469 128.06 59.1805 127.529 58.6034C127.001 58.0232 126.737 57.2002 126.737 56.1343C126.737 55.0683 127.003 54.2497 127.534 53.6784C128.068 53.1073 128.829 52.8215 129.816 52.8215C130.789 52.8215 131.541 53.1116 132.072 53.6917C132.603 54.2718 132.869 55.0889 132.869 56.1431ZM127.874 56.1431C127.874 56.9382 128.037 57.5418 128.362 57.9541C128.687 58.3634 129.169 58.568 129.807 58.568C130.443 58.568 130.922 58.3648 131.244 57.9585C131.57 57.5521 131.732 56.9471 131.732 56.1431C131.732 55.3509 131.571 54.7503 131.249 54.3411C130.929 53.9317 130.452 53.7271 129.816 53.7271C129.175 53.7271 128.69 53.9317 128.362 54.3411C128.037 54.7503 127.874 55.3509 127.874 56.1431ZM136.738 53.7359C136.123 53.7359 135.64 53.9509 135.287 54.3807C134.935 54.8107 134.759 55.404 134.759 56.1607C134.759 56.9528 134.928 57.5521 135.265 57.9585C135.605 58.3648 136.096 58.568 136.738 58.568C137.015 58.568 137.284 58.5415 137.543 58.4885C137.803 58.4326 138.073 58.3618 138.354 58.2765V59.182C137.84 59.3734 137.258 59.469 136.608 59.469C135.65 59.469 134.914 59.1834 134.401 58.6121C133.888 58.038 133.631 57.2178 133.631 56.152C133.631 55.4806 133.755 54.8932 134.003 54.3896C134.253 53.8861 134.615 53.5003 135.086 53.2323C135.558 52.9644 136.111 52.8304 136.747 52.8304C137.415 52.8304 138.033 52.9688 138.6 53.2456L138.215 54.1246C137.994 54.0215 137.76 53.9317 137.512 53.8551C137.267 53.7757 137.009 53.7359 136.738 53.7359ZM141.703 59.3807H140.633V53.8286H138.709V52.9232H143.628V53.8286H141.703V59.3807ZM144.314 59.3807V52.9232H145.384V59.3807H144.314Z" fill="#978B50"/>
<path d="M18.5957 59.0164H29.9189" stroke="#21CEB9" stroke-width="2"/>
<path d="M19.5747 51.3044L19.5747 58.261" stroke="#21CEB9" stroke-width="2"/>
<path d="M157.574 51.3044L157.574 58.8044" stroke="#21CEB9" stroke-width="2"/>
<path d="M147.787 59.0164H158.553" stroke="#21CEB9" stroke-width="2"/>
<path d="M18.5957 0.983643H158.553" stroke="#21CEB9" stroke-width="2"/>
<path d="M19.5747 0.983643V8.8525" stroke="#21CEB9" stroke-width="2"/>
<path d="M157.574 0.983643L157.574 8.8525" stroke="#21CEB9" stroke-width="2"/>
</g>
<defs>
<clipPath id="clip0_971_43">
<rect width="184" height="60" fill="white"/>
</clipPath>
</defs>
</svg>
