<svg width="198" height="65" viewBox="0 0 198 65" fill="none" xmlns="http://www.w3.org/2000/svg">
<g clip-path="url(#clip0_923_16)">
<path d="M7.85241 51.8261H1.57666V13.2291H23.4222V18.562H7.85241V30.6268H22.4425V35.9861H7.85241V51.8261ZM53.3718 51.8261L49.5057 41.1076H34.7036L30.9171 51.8261H24.2443L38.7285 13.0708H45.6132L60.0975 51.8261H53.3718ZM47.8374 35.6693L44.2098 25.1621C43.9451 24.4581 43.5743 23.3492 43.0977 21.8356C42.6386 20.3221 42.3209 19.2132 42.1445 18.5092C41.6678 20.674 40.9704 23.0412 40.0525 25.6109L36.5572 35.6693H47.8374ZM93.6746 51.8261H86.3398L74.1856 34.3492L70.4521 37.3852V51.8261H64.1234V13.2291H70.4521V31.6565C72.182 29.5445 73.9033 27.5117 75.6156 25.558L86.0751 13.2291H93.2775C86.5164 21.1493 81.6706 26.7901 78.7401 30.1517L93.6746 51.8261ZM111.099 51.8261H104.771V18.6413H93.3845V13.2291H122.485V18.6413H111.099V51.8261ZM161.729 32.4749C161.729 38.758 160.15 43.642 156.989 47.127C153.847 50.6116 149.39 52.3541 143.617 52.3541C137.774 52.3541 133.281 50.6293 130.139 47.1797C127.015 43.7124 125.452 38.7933 125.452 32.422C125.452 26.0509 127.023 21.1581 130.166 17.7436C133.325 14.3292 137.827 12.6221 143.67 12.6221C149.425 12.6221 153.874 14.3556 157.016 17.8228C160.158 21.2901 161.729 26.174 161.729 32.4749ZM132.178 32.4749C132.178 37.2269 133.14 40.8349 135.064 43.2988C136.989 45.7452 139.839 46.9685 143.617 46.9685C147.377 46.9685 150.211 45.754 152.117 43.3254C154.041 40.8964 155.003 37.2796 155.003 32.4749C155.003 27.7405 154.05 24.1501 152.144 21.7037C150.255 19.2573 147.43 18.034 143.67 18.034C139.875 18.034 137.006 19.2573 135.064 21.7037C133.14 24.1501 132.178 27.7405 132.178 32.4749ZM175.288 31.1812H179.682C182.631 31.1812 184.767 30.6356 186.092 29.5445C187.415 28.4533 188.078 26.834 188.078 24.6868C188.078 22.5044 187.363 20.9381 185.933 19.9876C184.502 19.0373 182.348 18.562 179.472 18.562H175.288V31.1812ZM175.288 36.4085V51.8261H168.958V13.2291H179.896C184.89 13.2291 188.59 14.162 190.989 16.0276C193.391 17.8933 194.591 20.7092 194.591 24.4756C194.591 29.2804 192.084 32.7037 187.071 34.7452L198.007 51.8261H190.805L181.536 36.4085H175.288Z" fill="#0E1557"/>
<path d="M40.2148 64.3291L39.5143 62.3864H36.8314L36.145 64.3291H34.9355L37.5608 57.3047H38.8086L41.434 64.3291H40.2148ZM39.2118 61.4006L38.5544 59.4961C38.5063 59.3686 38.4392 59.1677 38.3527 58.8933C38.2695 58.6189 38.2119 58.418 38.18 58.2904C38.0936 58.6827 37.9672 59.1117 37.8008 59.5776L37.1673 61.4006H39.2118ZM46.1822 57.3334V58.3142H43.1633V64.3291H42.0163V57.3334H46.1822ZM50.9495 64.3291H46.9804V57.3334H50.9495V58.2999H48.1274V60.2044H50.7719V61.1614H48.1274V63.3577H50.9495V64.3291ZM57.6607 64.3291H56.5088V61.1758H53.274V64.3291H52.1268V57.3334H53.274V60.1948H56.5088V57.3334H57.6607V64.3291ZM61.5881 64.3291H60.441V58.3142H58.3772V57.3334H63.6517V58.3142H61.5881V64.3291ZM67.3729 58.2139C66.7137 58.2139 66.1955 58.4467 65.8179 58.9124C65.4403 59.3782 65.2515 60.0209 65.2515 60.8407C65.2515 61.6989 65.4324 62.348 65.7938 62.7883C66.1587 63.2284 66.6849 63.4486 67.3729 63.4486C67.6705 63.4486 67.9585 63.4199 68.2367 63.3624C68.5152 63.3019 68.8048 63.2252 69.1054 63.1328V64.1138C68.5552 64.3211 67.9312 64.4247 67.2336 64.4247C66.2067 64.4247 65.4179 64.1153 64.8675 63.4964C64.3172 62.8745 64.042 61.9859 64.042 60.8312C64.042 60.1039 64.1749 59.4676 64.4404 58.922C64.7092 58.3766 65.0963 57.9586 65.6018 57.6683C66.1075 57.378 66.701 57.2329 67.3824 57.2329C68.0991 57.2329 68.7616 57.3828 69.3695 57.6827L68.9566 58.6349C68.7199 58.5232 68.4687 58.4259 68.2032 58.343C67.9408 58.257 67.6641 58.2139 67.3729 58.2139ZM72.697 64.3291H71.5498V58.3142H69.4862V57.3334H74.7608V58.3142H72.697V64.3291ZM75.4966 57.3334H77.5796C78.5459 57.3334 79.2432 57.4737 79.672 57.7545C80.104 58.0351 80.32 58.4786 80.32 59.0847C80.32 59.4931 80.2145 59.8327 80.0033 60.1039C79.792 60.3751 79.4881 60.5457 79.0914 60.6158V60.6638C79.584 60.7562 79.9457 60.9397 80.176 61.2139C80.4095 61.4851 80.5263 61.8536 80.5263 62.3193C80.5263 62.9478 80.3056 63.4407 79.864 63.7979C79.4257 64.152 78.8146 64.3291 78.0307 64.3291H75.4966V57.3334ZM76.6436 60.2235H77.7475C78.2274 60.2235 78.5777 60.1485 78.7985 59.9986C79.0194 59.8455 79.1297 59.5872 79.1297 59.2234C79.1297 58.895 79.0097 58.6572 78.7697 58.5104C78.533 58.3638 78.1554 58.2904 77.6372 58.2904H76.6436V60.2235ZM76.6436 61.1518V63.3673H77.8627C78.3427 63.3673 78.7041 63.2764 78.9473 63.0945C79.1937 62.9095 79.317 62.6192 79.317 62.2236C79.317 61.86 79.1921 61.5904 78.9426 61.415C78.693 61.2396 78.3139 61.1518 77.8051 61.1518H76.6436ZM87.8711 60.8216C87.8711 61.9604 87.5847 62.8458 87.0119 63.4773C86.4425 64.1089 85.6344 64.4247 84.5883 64.4247C83.5291 64.4247 82.7148 64.1121 82.1452 63.487C81.579 62.8584 81.2958 61.9668 81.2958 60.8122C81.2958 59.6573 81.5806 58.7704 82.1501 58.1515C82.7228 57.5328 83.5388 57.2233 84.5978 57.2233C85.6409 57.2233 86.4472 57.5375 87.0168 58.1659C87.5862 58.7944 87.8711 59.6796 87.8711 60.8216ZM82.5148 60.8216C82.5148 61.683 82.6892 62.3369 83.038 62.7836C83.3867 63.2269 83.9035 63.4486 84.5883 63.4486C85.2697 63.4486 85.7832 63.2284 86.1288 62.7883C86.4775 62.348 86.6519 61.6926 86.6519 60.8216C86.6519 59.9635 86.4792 59.3128 86.1337 58.8694C85.7912 58.4259 85.2794 58.2042 84.5978 58.2042C83.9099 58.2042 83.39 58.4259 83.038 58.8694C82.6892 59.3128 82.5148 59.9635 82.5148 60.8216ZM96.777 64.3291H95.6251V61.1758H92.3903V64.3291H91.2433V57.3334H92.3903V60.1948H95.6251V57.3334H96.777V64.3291ZM102.25 64.3291H98.2807V57.3334H102.25V58.2999H99.4278V60.2044H102.072V61.1614H99.4278V63.3577H102.25V64.3291ZM108.073 59.4483C108.073 60.1789 107.833 60.7387 107.353 61.1279C106.873 61.5171 106.19 61.7117 105.304 61.7117H104.574V64.3291H103.427V57.3334H105.448C106.325 57.3334 106.98 57.512 107.416 57.8694C107.854 58.2266 108.073 58.7529 108.073 59.4483ZM104.574 60.7498H105.184C105.773 60.7498 106.205 60.6478 106.48 60.4436C106.755 60.2395 106.892 59.9205 106.892 59.4867C106.892 59.0847 106.769 58.7848 106.523 58.5871C106.276 58.3893 105.893 58.2904 105.371 58.2904H104.574V60.7498ZM114.467 57.3334L112.255 62.3098C111.983 62.9191 111.733 63.3609 111.506 63.6353C111.279 63.9063 111.015 64.1057 110.714 64.2334C110.417 64.361 110.055 64.4247 109.63 64.4247C109.258 64.4247 108.915 64.3769 108.598 64.2812V63.2524C108.911 63.3768 109.239 63.439 109.582 63.439C109.873 63.439 110.116 63.3689 110.311 63.2285C110.51 63.085 110.689 62.8282 110.849 62.4582L108.262 57.3334H109.5L111.213 60.8407C111.367 61.1725 111.461 61.3942 111.497 61.5059H111.545C111.564 61.4229 111.612 61.2906 111.689 61.1087L113.268 57.3334H114.467ZM120.224 64.3291H118.904L117.147 61.4675L115.376 64.3291H114.147L116.475 60.702L114.296 57.3334H115.573L117.195 59.9795L118.817 57.3334H120.055L117.862 60.7211L120.224 64.3291ZM127.055 60.8216C127.055 61.9604 126.768 62.8458 126.195 63.4773C125.626 64.1089 124.818 64.4247 123.772 64.4247C122.713 64.4247 121.898 64.1121 121.329 63.487C120.762 62.8584 120.479 61.9668 120.479 60.8122C120.479 59.6573 120.764 58.7704 121.334 58.1515C121.906 57.5328 122.722 57.2233 123.781 57.2233C124.824 57.2233 125.631 57.5375 126.2 58.1659C126.77 58.7944 127.055 59.6796 127.055 60.8216ZM121.698 60.8216C121.698 61.683 121.873 62.3369 122.222 62.7836C122.57 63.2269 123.087 63.4486 123.772 63.4486C124.453 63.4486 124.967 63.2284 125.312 62.7883C125.661 62.348 125.836 61.6926 125.836 60.8216C125.836 59.9635 125.663 59.3128 125.317 58.8694C124.975 58.4259 124.463 58.2042 123.781 58.2042C123.094 58.2042 122.574 58.4259 122.222 58.8694C121.873 59.3128 121.698 59.9635 121.698 60.8216ZM131.251 64.3291L129.216 58.4866H129.177C129.232 59.3542 129.259 60.1677 129.259 60.9269V64.3291H128.218V57.3334H129.835L131.784 62.8983H131.812L133.819 57.3334H135.441V64.3291H134.337V60.8694C134.337 60.5217 134.345 60.0687 134.361 59.5105C134.38 58.9522 134.396 58.6141 134.409 58.4962H134.371L132.263 64.3291H131.251ZM143.174 60.8216C143.174 61.9604 142.888 62.8458 142.315 63.4773C141.745 64.1089 140.938 64.4247 139.891 64.4247C138.832 64.4247 138.018 64.1121 137.448 63.487C136.882 62.8584 136.599 61.9668 136.599 60.8122C136.599 59.6573 136.884 58.7704 137.453 58.1515C138.026 57.5328 138.842 57.2233 139.901 57.2233C140.944 57.2233 141.75 57.5375 142.32 58.1659C142.889 58.7944 143.174 59.6796 143.174 60.8216ZM137.818 60.8216C137.818 61.683 137.992 62.3369 138.341 62.7836C138.69 63.2269 139.207 63.4486 139.891 63.4486C140.573 63.4486 141.086 63.2284 141.432 62.7883C141.781 62.348 141.955 61.6926 141.955 60.8216C141.955 59.9635 141.782 59.3128 141.437 58.8694C141.094 58.4259 140.582 58.2042 139.901 58.2042C139.213 58.2042 138.693 58.4259 138.341 58.8694C137.992 59.3128 137.818 59.9635 137.818 60.8216ZM147.322 58.2139C146.663 58.2139 146.145 58.4467 145.767 58.9124C145.39 59.3782 145.201 60.0209 145.201 60.8407C145.201 61.6989 145.382 62.348 145.743 62.7883C146.108 63.2284 146.634 63.4486 147.322 63.4486C147.62 63.4486 147.908 63.4199 148.186 63.3624C148.465 63.3019 148.754 63.2252 149.055 63.1328V64.1138C148.505 64.3211 147.881 64.4247 147.183 64.4247C146.156 64.4247 145.367 64.1153 144.817 63.4964C144.267 62.8745 143.992 61.9859 143.992 60.8312C143.992 60.1039 144.124 59.4676 144.39 58.922C144.659 58.3766 145.046 57.9586 145.551 57.6683C146.057 57.378 146.65 57.2329 147.332 57.2329C148.049 57.2329 148.711 57.3828 149.319 57.6827L148.906 58.6349C148.669 58.5232 148.418 58.4259 148.153 58.343C147.89 58.257 147.613 58.2139 147.322 58.2139ZM152.646 64.3291H151.499V58.3142H149.436V57.3334H154.71V58.3142H152.646V64.3291ZM155.446 64.3291V57.3334H156.593V64.3291H155.446Z" fill="#978B50"/>
<path d="M21 64H33.1415" stroke="#21CEB9" stroke-width="2"/>
<path d="M22 56L22 63.5362" stroke="#21CEB9" stroke-width="2"/>
<path d="M170 55.5797L170 63.7047" stroke="#21CEB9" stroke-width="2"/>
<path d="M159 64H171" stroke="#21CEB9" stroke-width="2"/>
<path d="M21 1L171 1.00001" stroke="#21CEB9" stroke-width="2"/>
<path d="M22 0.968994V9.41701" stroke="#21CEB9" stroke-width="2"/>
<path d="M170 1L170 9.47826" stroke="#21CEB9" stroke-width="2"/>
</g>
<defs>
<clipPath id="clip0_923_16">
<rect width="198" height="65" fill="white"/>
</clipPath>
</defs>
</svg>
