<svg width="151" height="150" viewBox="0 0 151 150" fill="none" xmlns="http://www.w3.org/2000/svg">
<path d="M32.4 124.86C56.61 139.488 95.859 139.488 120.066 124.86C144.273 110.232 144.273 86.511 120.066 71.883C95.859 57.255 56.61 57.255 32.4 71.883C8.19003 86.511 8.19303 110.229 32.4 124.86Z" fill="#F0F0F0"/>
<path d="M41.4387 87.7644C41.4387 87.7644 40.9287 83.2644 38.6937 79.7874C36.4587 76.3104 33.3897 74.1264 30.5247 73.9044C27.6597 73.6824 25.3467 76.3044 28.4247 78.1254C31.5027 79.9464 36.9357 81.7794 39.4407 88.5504L41.4387 87.7644Z" fill="#459AE9"/>
<path d="M41.4387 87.7644C41.4387 87.7644 40.9287 83.2644 38.6937 79.7874C36.4587 76.3104 33.3897 74.1264 30.5247 73.9044C27.6597 73.6824 25.3467 76.3044 28.4247 78.1254C31.5027 79.9464 36.9357 81.7794 39.4407 88.5504L41.4387 87.7644Z" fill="#263238"/>
<path d="M40.5988 86.5974C40.6085 86.6004 40.619 86.6004 40.6288 86.5974C40.6475 86.5902 40.6645 86.5792 40.6789 86.5653C40.6933 86.5513 40.7047 86.5346 40.7126 86.5162C40.7204 86.4977 40.7245 86.4779 40.7245 86.4578C40.7245 86.4377 40.7205 86.4179 40.7128 86.3994C37.6918 78.9564 31.9378 75.8454 29.3128 75.2424C29.2931 75.238 29.2727 75.2375 29.2528 75.241C29.2329 75.2445 29.2139 75.2519 29.1969 75.2628C29.1799 75.2737 29.1652 75.2878 29.1537 75.3044C29.1421 75.321 29.134 75.3397 29.1298 75.3594C29.1216 75.3987 29.1288 75.4397 29.1501 75.4738C29.1713 75.5079 29.2049 75.5324 29.2438 75.5424C31.8118 76.1424 37.4518 79.1874 40.4278 86.5134C40.4421 86.5451 40.467 86.5707 40.4982 86.586C40.5294 86.6014 40.5649 86.6054 40.5988 86.5974Z" fill="white"/>
<path d="M25.2986 86.6874C25.5566 87.2724 26.1986 87.5874 26.7986 87.8154C27.3986 88.0434 28.0376 88.3104 28.3586 88.8624C29.0036 89.9814 27.9446 91.5624 28.6376 92.6364C28.7996 92.8539 29.0042 93.0363 29.2388 93.1724C29.4734 93.3085 29.7333 93.3956 30.0026 93.4284C30.4471 93.4923 30.8947 93.5324 31.3436 93.5484C31.5574 93.5462 31.7708 93.5301 31.9826 93.5004C32.6033 93.3608 33.2527 93.4293 33.8306 93.6954C34.7306 94.1964 34.9916 95.3154 35.5286 96.1794C35.8629 96.6906 36.3043 97.1231 36.8223 97.4469C37.3403 97.7706 37.9225 97.9779 38.5286 98.0544C38.9276 98.1084 39.6686 98.1804 40.0736 97.9524C40.1027 97.9374 40.1308 97.9204 40.1576 97.9014C40.2146 97.8384 40.2836 97.7574 40.3136 97.7154C40.3197 97.707 40.3247 97.698 40.3286 97.6884C40.4876 97.1094 40.2296 96.5064 40.2206 95.9094C40.2175 95.8734 40.2175 95.8373 40.2206 95.8014C40.2446 95.1054 40.2656 94.4154 40.2806 93.7194C40.3126 92.4454 40.3256 91.1684 40.3196 89.8884C40.3196 89.0574 40.4096 88.1514 40.0586 87.3684C39.6716 86.5104 38.7026 86.4894 38.3396 85.6464C38.1926 85.3104 38.1146 84.9504 37.9736 84.6114C37.7535 84.1134 37.4011 83.6854 36.9546 83.3738C36.5082 83.0623 35.9848 82.8791 35.4416 82.8444C33.7556 82.7574 32.2406 84.1254 30.5546 83.9994C30.1204 83.9412 29.6897 83.859 29.2646 83.7534C27.8966 83.4984 26.3186 83.8884 25.5506 85.0434C25.3776 85.276 25.2641 85.5475 25.2202 85.8341C25.1763 86.1206 25.2032 86.4136 25.2986 86.6874Z" fill="#37474F"/>
<path d="M40.4664 95.0214C40.4846 95.0169 40.5018 95.0087 40.5168 94.9975C40.5319 94.9862 40.5445 94.9721 40.554 94.9559C40.5635 94.9396 40.5697 94.9217 40.5722 94.9031C40.5746 94.8844 40.5733 94.8655 40.5684 94.8474C38.2404 86.0964 29.0244 84.8334 26.8674 85.0044C26.8486 85.0055 26.8302 85.0104 26.8133 85.0188C26.7964 85.0271 26.7814 85.0388 26.7691 85.053C26.7568 85.0673 26.7475 85.0839 26.7417 85.1018C26.7359 85.1197 26.7338 85.1386 26.7354 85.1574C26.7385 85.1951 26.7562 85.23 26.7849 85.2547C26.8135 85.2794 26.8507 85.2919 26.8884 85.2894C28.9884 85.1394 38.0124 86.3754 40.2924 94.9314C40.3047 94.9656 40.3295 94.9938 40.3617 95.0105C40.394 95.0272 40.4314 95.0311 40.4664 95.0214Z" fill="white"/>
<path d="M30.2185 90.5904C30.2474 90.5849 30.2737 90.5702 30.2935 90.5484C31.1456 89.8119 32.1492 89.2719 33.2333 88.9665C34.3173 88.6611 35.4553 88.5979 36.5665 88.7814C36.5863 88.7873 36.6071 88.7889 36.6275 88.786C36.6479 88.7832 36.6675 88.7759 36.6849 88.7649C36.7023 88.7538 36.7171 88.7391 36.7284 88.7218C36.7396 88.7045 36.747 88.685 36.75 88.6646C36.7531 88.6442 36.7517 88.6234 36.746 88.6035C36.7403 88.5837 36.7304 88.5654 36.717 88.5497C36.7035 88.534 36.6869 88.5214 36.6682 88.5127C36.6495 88.5041 36.6291 88.4995 36.6085 88.4994C35.4528 88.3081 34.2692 88.3746 33.1422 88.6941C32.0153 89.0136 30.9728 89.5781 30.0895 90.3474C30.0631 90.3748 30.0483 90.4113 30.0483 90.4494C30.0483 90.4874 30.0631 90.524 30.0895 90.5514C30.106 90.5681 30.1265 90.5805 30.149 90.5873C30.1716 90.5941 30.1954 90.5952 30.2185 90.5904Z" fill="white"/>
<path d="M40.7666 101.372C40.7967 101.786 40.9238 102.186 41.1375 102.541C41.3512 102.896 41.6455 103.195 41.9966 103.415L76.4966 123.326C76.8782 123.52 77.3001 123.621 77.7281 123.621C78.1561 123.621 78.578 123.52 78.9596 123.326L126.144 96.0834C126.515 95.8867 126.826 95.5925 127.043 95.2322C127.26 94.872 127.375 94.4594 127.375 94.0389C127.375 93.6184 127.26 93.2058 127.043 92.8455C126.826 92.4853 126.515 92.191 126.144 91.9944L91.6556 72.0834C91.2741 71.8911 90.8528 71.791 90.4256 71.791C89.9984 71.791 89.5771 71.8911 89.1956 72.0834L42.0086 99.3264C41.6549 99.5453 41.358 99.8448 41.1421 100.2C40.9262 100.556 40.7976 100.958 40.7666 101.372Z" fill="#459AE9"/>
<path opacity="0.7" d="M77.7266 120.956V123.62C77.2968 123.627 76.8724 123.523 76.4936 123.32L42.0086 103.415C41.6469 103.226 41.342 102.944 41.1252 102.598C40.9084 102.252 40.7874 101.855 40.7746 101.447C40.7618 101.039 40.8576 100.635 41.0523 100.276C41.247 99.9168 41.5335 99.6161 41.8826 99.4044C41.3306 99.8004 41.3726 100.379 42.0086 100.745L76.5086 120.656C76.8824 120.858 77.3017 120.962 77.7266 120.956Z" fill="black"/>
<path d="M39.6238 99.3714C39.279 99.1375 38.9947 98.8252 38.7939 98.4602C38.5931 98.0952 38.4817 97.6878 38.4688 97.2714V56.1294C38.4921 55.7027 38.6156 55.2876 38.8293 54.9175C39.043 54.5474 39.3409 54.2329 39.6988 53.9994L86.8857 26.7564C87.2418 26.5332 87.6519 26.4113 88.072 26.4036C88.4922 26.3959 88.9065 26.5028 89.2704 26.7129C89.6343 26.9229 89.9342 27.2281 90.1377 27.5957C90.3413 27.9634 90.4409 28.3795 90.4257 28.7994V69.9534C90.4029 70.3802 90.2795 70.7956 90.0658 71.1657C89.8521 71.5358 89.554 71.8503 89.1957 72.0834L42.0087 99.3264C41.6428 99.521 41.2361 99.6266 40.8216 99.6344C40.4072 99.6422 39.9968 99.5521 39.6238 99.3714Z" fill="#459AE9"/>
<path opacity="0.7" d="M41.8618 99.4044C41.5091 99.563 41.1261 99.6425 40.7394 99.6374C40.3528 99.6322 39.972 99.5424 39.6238 99.3744C39.2792 99.1403 38.995 98.828 38.7942 98.463C38.5935 98.098 38.4819 97.6907 38.4688 97.2744V56.1294C38.4854 55.7054 38.6093 55.2925 38.8288 54.9294L41.1387 56.2614C40.9184 56.6243 40.7935 57.0371 40.7757 57.4614V98.6184C40.7667 99.3444 41.2528 99.6714 41.8618 99.4044Z" fill="black"/>
<path opacity="0.5" d="M40.7666 57.4644V98.6184C40.7666 99.4014 41.3156 99.7194 41.9966 99.3264L89.1836 72.0834C89.5418 71.8502 89.8399 71.5358 90.0536 71.1656C90.2674 70.7955 90.3907 70.3802 90.4136 69.9534V28.7994C90.4136 28.0134 89.8616 27.6954 89.1836 28.0884L42.0086 55.3314C41.6479 55.5637 41.3474 55.878 41.1315 56.2488C40.9157 56.6195 40.7906 57.036 40.7666 57.4644Z" fill="black"/>
<path d="M42.0088 100.748L76.5088 120.659C76.8904 120.853 77.3123 120.954 77.7403 120.954C78.1683 120.954 78.5902 120.853 78.9718 120.659L126.141 93.4044C126.822 93.0114 126.822 92.3754 126.141 91.9824L91.6558 72.0834C91.2743 71.8911 90.853 71.791 90.4258 71.791C89.9986 71.791 89.5773 71.8911 89.1958 72.0834L42.0088 99.3264C41.3278 99.7194 41.3278 100.355 42.0088 100.748Z" fill="#459AE9"/>
<path opacity="0.3" d="M42.0088 100.748L76.5088 120.659C76.8904 120.853 77.3123 120.954 77.7403 120.954C78.1683 120.954 78.5902 120.853 78.9718 120.659L126.141 93.4044C126.822 93.0114 126.822 92.3754 126.141 91.9824L91.6558 72.0834C91.2743 71.8911 90.853 71.791 90.4258 71.791C89.9986 71.791 89.5773 71.8911 89.1958 72.0834L42.0088 99.3264C41.3278 99.7194 41.3278 100.355 42.0088 100.748Z" fill="black"/>
<path d="M42.6717 57.6144L88.1667 31.3554C88.5747 31.1214 88.9047 31.3134 88.9047 31.7844V67.4094C88.8907 67.6654 88.8166 67.9146 88.6884 68.1366C88.5602 68.3586 88.3814 68.5474 88.1667 68.6874L42.6717 94.9464C42.2637 95.1804 41.9307 94.9914 41.9307 94.5204V58.9044C41.9438 58.6462 42.0178 58.3948 42.1466 58.1706C42.2754 57.9465 42.4553 57.7559 42.6717 57.6144Z" fill="#FAFAFA"/>
<path opacity="0.3" d="M46.0107 99.6834L89.8107 74.3964C90.0014 74.3002 90.2121 74.25 90.4257 74.25C90.6394 74.25 90.85 74.3002 91.0407 74.3964L93.2817 75.6894C93.3562 75.7144 93.421 75.7622 93.4668 75.826C93.5127 75.8897 93.5374 75.9663 93.5374 76.0449C93.5374 76.1235 93.5127 76.2001 93.4668 76.2638C93.421 76.3276 93.3562 76.3754 93.2817 76.4004L49.4667 101.684C49.276 101.781 49.0654 101.831 48.8517 101.831C48.6381 101.831 48.4275 101.781 48.2367 101.684L46.0017 100.394C45.9275 100.368 45.8634 100.32 45.8183 100.256C45.7732 100.191 45.7495 100.114 45.7505 100.036C45.7515 99.9571 45.7772 99.8808 45.8239 99.8176C45.8706 99.7544 45.9359 99.7074 46.0107 99.6834Z" fill="black"/>
<path opacity="0.3" d="M51.7856 103.004L95.5856 77.7174C95.7759 77.6197 95.9867 77.5688 96.2006 77.5688C96.4145 77.5688 96.6253 77.6197 96.8156 77.7174L110.595 85.6734C110.669 85.6984 110.734 85.7462 110.78 85.8099C110.826 85.8737 110.85 85.9503 110.85 86.0289C110.85 86.1074 110.826 86.184 110.78 86.2478C110.734 86.3116 110.669 86.3594 110.595 86.3844L66.8456 111.647C66.6543 111.743 66.4432 111.793 66.2291 111.793C66.015 111.793 65.8039 111.743 65.6126 111.647L51.7856 103.724C51.7059 103.704 51.6354 103.657 51.585 103.592C51.5346 103.527 51.5073 103.447 51.5073 103.364C51.5073 103.282 51.5346 103.202 51.585 103.137C51.6354 103.072 51.7059 103.025 51.7856 103.004Z" fill="black"/>
<path d="M91.0466 89.1054L92.4176 88.3134C92.4746 88.2804 92.4716 88.2234 92.4176 88.1874L90.8336 87.2724C90.7996 87.2555 90.7621 87.2467 90.7241 87.2467C90.6861 87.2467 90.6486 87.2555 90.6146 87.2724L89.2436 88.0644C89.1836 88.1004 89.1866 88.1544 89.2436 88.1904L90.8306 89.1084C90.8645 89.1243 90.9015 89.1324 90.9389 89.1319C90.9764 89.1313 91.0132 89.1223 91.0466 89.1054ZM88.3466 85.9614L86.9666 86.7504C86.9066 86.7864 86.9096 86.8404 86.9666 86.8794L88.5536 87.7944C88.5876 87.8113 88.6251 87.8201 88.6631 87.8201C88.7011 87.8201 88.7386 87.8113 88.7726 87.7944L90.1436 87.0024C90.2006 86.9694 90.1976 86.9124 90.1436 86.8764L88.5596 85.9614C88.5258 85.9438 88.4882 85.9346 88.4501 85.9346C88.412 85.9346 88.3744 85.9438 88.3406 85.9614H88.3466ZM83.9156 88.5174L81.5936 89.8584C81.5366 89.8914 81.5396 89.9484 81.5936 89.9844L83.1806 90.8844C83.2141 90.9013 83.2511 90.91 83.2886 90.91C83.3261 90.91 83.3631 90.9013 83.3966 90.8844L85.7186 89.5434C85.7756 89.5104 85.7726 89.4534 85.7186 89.4174L84.1346 88.5174C84.0998 88.4995 84.0612 88.4901 84.0221 88.4901C83.983 88.4901 83.9444 88.4995 83.9096 88.5174H83.9156ZM86.3366 87.1044L84.9626 87.8964C84.9056 87.9294 84.9086 87.9864 84.9626 88.0224L86.5496 88.9224C86.5836 88.9393 86.6211 88.9481 86.6591 88.9481C86.6971 88.9481 86.7346 88.9393 86.7686 88.9224L88.1396 88.1304C88.1966 88.0974 88.1936 88.0404 88.1396 88.0044L86.5556 87.0894C86.5204 87.0748 86.4823 87.0685 86.4443 87.0711C86.4063 87.0737 86.3694 87.0851 86.3366 87.1044ZM80.9666 90.2244L79.5836 91.0044C79.5266 91.0404 79.5296 91.0974 79.5836 91.1334L81.1676 92.0484C81.2016 92.0653 81.2391 92.0741 81.2771 92.0741C81.3151 92.0741 81.3526 92.0653 81.3866 92.0484L82.7576 91.2564C82.8176 91.2234 82.8146 91.1664 82.7576 91.1304L81.1706 90.2304C81.1392 90.2142 81.1046 90.2053 81.0693 90.2043C81.034 90.2033 80.9989 90.2101 80.9666 90.2244ZM78.9626 91.3794L77.5916 92.1714C77.5346 92.2044 77.5376 92.2614 77.5916 92.2974L79.1756 93.2124C79.2094 93.23 79.247 93.2392 79.2851 93.2392C79.3232 93.2392 79.3608 93.23 79.3946 93.2124L80.7656 92.4204C80.8256 92.3874 80.8226 92.3304 80.7656 92.2944L79.1666 91.3854C79.1334 91.368 79.0967 91.3584 79.0593 91.3574C79.0219 91.3564 78.9847 91.3639 78.9506 91.3794H78.9626ZM85.1996 95.1024L86.5736 94.3104C86.6306 94.2774 86.6276 94.2204 86.5736 94.1844L84.9866 93.2694C84.9528 93.2518 84.9152 93.2426 84.8771 93.2426C84.839 93.2426 84.8014 93.2518 84.7676 93.2694L83.3666 94.0584C83.3096 94.0914 83.3126 94.1484 83.3666 94.1844L84.9506 95.0844C84.9854 95.1072 85.0253 95.1208 85.0668 95.1239C85.1082 95.127 85.1498 95.1196 85.1876 95.1024H85.1996ZM83.1956 96.2604L84.5666 95.4684C84.6266 95.4354 84.6236 95.3784 84.5666 95.3424L82.9796 94.4424C82.9456 94.4255 82.9081 94.4167 82.8701 94.4167C82.8321 94.4167 82.7946 94.4255 82.7606 94.4424L81.3716 95.2044C81.3146 95.2374 81.3176 95.2944 81.3716 95.3304L82.9556 96.2484C82.9898 96.2687 83.0284 96.2803 83.0681 96.2824C83.1078 96.2845 83.1475 96.2769 83.1836 96.2604H83.1956ZM81.1916 97.4184L82.5626 96.6264C82.6226 96.5934 82.6196 96.5364 82.5626 96.5004L80.9666 95.5854C80.9328 95.5678 80.8952 95.5586 80.8571 95.5586C80.819 95.5586 80.7814 95.5678 80.7476 95.5854L79.3766 96.3774C79.3196 96.4104 79.3226 96.4674 79.3766 96.5034L80.9606 97.4184C80.9946 97.4353 81.0321 97.4441 81.0701 97.4441C81.1081 97.4441 81.1456 97.4353 81.1796 97.4184H81.1916ZM79.1666 98.5734L80.5376 97.7844C80.5976 97.7484 80.5916 97.6914 80.5376 97.6554L78.9506 96.7404C78.9166 96.7235 78.8791 96.7147 78.8411 96.7147C78.8031 96.7147 78.7656 96.7235 78.7316 96.7404L77.3666 97.5294C77.3096 97.5624 77.3126 97.6194 77.3666 97.6554L78.9506 98.5704C78.9838 98.588 79.0207 98.5974 79.0582 98.5979C79.0958 98.5984 79.1329 98.59 79.1666 98.5734ZM89.0336 90.2634L90.4046 89.4714C90.4616 89.4384 90.4586 89.3814 90.4046 89.3454L88.8206 88.4304C88.7866 88.4135 88.7491 88.4047 88.7111 88.4047C88.6731 88.4047 88.6356 88.4135 88.6016 88.4304L87.2306 89.2044C87.1706 89.2374 87.1736 89.2944 87.2306 89.3304L88.8176 90.2454C88.8509 90.2661 88.8888 90.2786 88.9279 90.2817C88.9671 90.2848 89.0064 90.2786 89.0426 90.2634H89.0336ZM87.1826 93.9474L90.2426 92.1804C90.3026 92.1474 90.2966 92.0904 90.2426 92.0544L86.3906 89.8314C86.3566 89.8145 86.3191 89.8057 86.2811 89.8057C86.2431 89.8057 86.2056 89.8145 86.1716 89.8314L84.5906 90.7464C84.5306 90.7794 84.5336 90.8364 84.5906 90.8724L86.6306 92.0484C86.6936 92.0844 86.6966 92.1414 86.6306 92.1744L85.3646 92.9064C85.3076 92.9394 85.3106 92.9964 85.3646 93.0324L86.9516 93.9474C86.9881 93.9684 87.0295 93.9795 87.0716 93.9795C87.1137 93.9795 87.1551 93.9684 87.1916 93.9474H87.1826ZM76.9376 92.5374L75.5666 93.3294C75.5096 93.3624 75.5126 93.4194 75.5666 93.4554L77.1506 94.3704C77.1846 94.3873 77.2221 94.3961 77.2601 94.3961C77.2981 94.3961 77.3356 94.3873 77.3696 94.3704L78.7406 93.5784C78.8006 93.5454 78.7976 93.4884 78.7406 93.4524L77.1536 92.5374C77.1213 92.5217 77.086 92.5136 77.0501 92.5136C77.0142 92.5136 76.9789 92.5217 76.9466 92.5374H76.9376ZM74.9426 93.7044L73.5716 94.4964C73.5146 94.5294 73.5176 94.5864 73.5716 94.6224L75.1556 95.5374C75.1894 95.555 75.227 95.5642 75.2651 95.5642C75.3032 95.5642 75.3408 95.555 75.3746 95.5374L76.7456 94.7484C76.8056 94.7124 76.7996 94.6554 76.7456 94.6194L75.1586 93.7194C75.1261 93.7006 75.0898 93.6894 75.0523 93.6868C75.0149 93.6842 74.9774 93.6902 74.9426 93.7044ZM64.9286 106.679C64.9624 106.697 65 106.706 65.0381 106.706C65.0762 106.706 65.1138 106.697 65.1476 106.679L66.5186 105.89C66.5756 105.854 66.5726 105.797 66.5186 105.761L64.9316 104.846C64.8982 104.829 64.8612 104.82 64.8236 104.82C64.7861 104.82 64.749 104.829 64.7156 104.846L63.3416 105.638C63.2846 105.671 63.2876 105.728 63.3416 105.764L64.9286 106.679ZM58.9076 102.962L57.5366 103.751C57.4796 103.787 57.4826 103.841 57.5366 103.88L59.1206 104.795C59.1546 104.812 59.1921 104.821 59.2301 104.821C59.2681 104.821 59.3056 104.812 59.3396 104.795L60.7106 104.003C60.7706 103.97 60.7676 103.913 60.7106 103.877L59.1236 102.962C59.0909 102.944 59.0542 102.933 59.0167 102.932C58.9791 102.93 58.9417 102.938 58.9076 102.953V102.962ZM62.1356 105.677C62.1696 105.694 62.2071 105.703 62.2451 105.703C62.2831 105.703 62.3206 105.694 62.3546 105.677L63.7256 104.885C63.7826 104.852 63.7796 104.795 63.7256 104.759L62.1416 103.844C62.1076 103.827 62.0701 103.819 62.0321 103.819C61.9941 103.819 61.9566 103.827 61.9226 103.844L60.5516 104.636C60.4916 104.672 60.4946 104.726 60.5516 104.762L62.1356 105.677ZM68.4656 107.381L69.8366 106.592C69.8966 106.556 69.8936 106.499 69.8366 106.463L68.2496 105.548C68.2156 105.531 68.1781 105.523 68.1401 105.523C68.1021 105.523 68.0646 105.531 68.0306 105.548L66.6596 106.34C66.6026 106.373 66.6056 106.43 66.6596 106.466L68.2436 107.381C68.2785 107.398 68.317 107.406 68.3557 107.404C68.3944 107.403 68.4322 107.392 68.4656 107.372V107.381ZM66.2426 108.536C66.2766 108.553 66.3141 108.562 66.3521 108.562C66.3901 108.562 66.4276 108.553 66.4616 108.536L67.8326 107.744C67.8926 107.711 67.8866 107.654 67.8326 107.618L66.2456 106.703C66.2116 106.686 66.1741 106.678 66.1361 106.678C66.0981 106.678 66.0606 106.686 66.0266 106.703L64.6556 107.495C64.5986 107.531 64.6016 107.585 64.6556 107.621L66.2426 108.536ZM60.9116 101.804L59.5406 102.596C59.4836 102.629 59.4866 102.686 59.5406 102.722L61.1276 103.637C61.1609 103.655 61.198 103.664 61.2356 103.664C61.2732 103.664 61.3103 103.655 61.3436 103.637L62.7176 102.848C62.7746 102.812 62.7716 102.758 62.7176 102.719L61.1306 101.819C61.0978 101.8 61.0609 101.789 61.0229 101.786C60.9849 101.783 60.9468 101.79 60.9116 101.804ZM70.9346 96.0174L69.5666 96.8004C69.5066 96.8334 69.5126 96.8904 69.5666 96.9264L71.1536 97.8414C71.1876 97.8583 71.2251 97.8671 71.2631 97.8671C71.3011 97.8671 71.3386 97.8583 71.3726 97.8414L72.7436 97.0494C72.8006 97.0164 72.7976 96.9594 72.7436 96.9234L71.1596 96.0084C71.1248 95.9905 71.0862 95.9811 71.0471 95.9811C71.008 95.9811 70.9694 95.9905 70.9346 96.0084V96.0174ZM62.9186 100.646L61.5446 101.438C61.4876 101.471 61.4906 101.528 61.5446 101.564L63.1316 102.479C63.1656 102.496 63.2031 102.505 63.2411 102.505C63.2791 102.505 63.3166 102.496 63.3506 102.479L64.7216 101.687C64.7786 101.654 64.7756 101.597 64.7216 101.561L63.1346 100.646C63.1018 100.628 63.0652 100.618 63.0277 100.616C62.9902 100.615 62.9528 100.622 62.9186 100.637V100.646ZM72.9386 94.8594L71.5676 95.6514C71.5076 95.6874 71.5136 95.7414 71.5676 95.7774L73.1546 96.6954C73.1886 96.7123 73.2261 96.7211 73.2641 96.7211C73.3021 96.7211 73.3396 96.7123 73.3736 96.6954L74.7446 95.9034C74.8046 95.8704 74.7986 95.8134 74.7446 95.7774L73.1666 94.8564C73.1319 94.837 73.093 94.8264 73.0533 94.8254C73.0136 94.8243 72.9743 94.8329 72.9386 94.8504V94.8594ZM68.9306 97.1754L67.5596 97.9674C67.4996 98.0004 67.5026 98.0574 67.5596 98.0934L69.1466 98.9934C69.1806 99.0103 69.2181 99.0191 69.2561 99.0191C69.2941 99.0191 69.3316 99.0103 69.3656 98.9934L70.7366 98.2014C70.7936 98.1654 70.7906 98.1114 70.7366 98.0754L69.1526 97.1574C69.1175 97.1414 69.0791 97.1338 69.0405 97.1354C69.002 97.137 68.9643 97.1476 68.9306 97.1664V97.1754ZM66.9266 98.3334L65.5556 99.1044C65.4956 99.1374 65.4986 99.1944 65.5556 99.2304L67.1426 100.145C67.1764 100.163 67.214 100.172 67.2521 100.172C67.2902 100.172 67.3278 100.163 67.3616 100.145L68.7326 99.3534C68.7896 99.3204 68.7866 99.2634 68.7326 99.2274L67.1486 98.3274C67.1147 98.3088 67.0767 98.2988 67.038 98.2983C66.9993 98.2977 66.961 98.3067 66.9266 98.3244V98.3334ZM64.9226 99.4884L63.5666 100.271C63.5066 100.304 63.5096 100.361 63.5666 100.397L65.1536 101.315C65.1876 101.332 65.2251 101.341 65.2631 101.341C65.3011 101.341 65.3386 101.332 65.3726 101.315L66.7436 100.523C66.8006 100.49 66.7976 100.433 66.7436 100.397L65.1596 99.4824C65.1235 99.462 65.0829 99.451 65.0415 99.4505C65.0001 99.4499 64.9592 99.4599 64.9226 99.4794V99.4884ZM75.1676 100.898L76.5386 100.106C76.5956 100.073 76.5926 100.016 76.5386 99.9804L74.9546 99.0654C74.9206 99.0485 74.8831 99.0397 74.8451 99.0397C74.8071 99.0397 74.7696 99.0485 74.7356 99.0654L73.3646 99.8574C73.3046 99.8904 73.3106 99.9474 73.3646 99.9834L74.9516 100.898C74.9848 100.916 75.0215 100.925 75.0589 100.926C75.0963 100.927 75.1335 100.92 75.1676 100.904V100.898ZM92.7716 83.4114L91.3976 84.2034C91.3406 84.2364 91.3436 84.2934 91.3976 84.3294L92.9846 85.2294C93.0186 85.2463 93.0561 85.2551 93.0941 85.2551C93.1321 85.2551 93.1696 85.2463 93.2036 85.2294L94.5746 84.4374C94.6316 84.4014 94.6286 84.3474 94.5746 84.3114L92.9876 83.3934C92.9535 83.3776 92.9161 83.3703 92.8785 83.3718C92.841 83.3734 92.8043 83.3839 92.7716 83.4024V83.4114ZM90.3446 84.8124L88.9736 85.6044C88.9136 85.6374 88.9166 85.6944 88.9736 85.7304L90.5606 86.6454C90.5944 86.663 90.632 86.6722 90.6701 86.6722C90.7082 86.6722 90.7458 86.663 90.7796 86.6454L92.1506 85.8564C92.2076 85.8204 92.2046 85.7634 92.1506 85.7274L90.5666 84.8064C90.5324 84.7885 90.4945 84.7789 90.456 84.7784C90.4174 84.7779 90.3792 84.7864 90.3446 84.8034V84.8124ZM94.7666 82.2444L93.3956 83.0364C93.3356 83.0694 93.3386 83.1264 93.3956 83.1624L94.9826 84.0774C95.0166 84.0943 95.0541 84.1031 95.0921 84.1031C95.1301 84.1031 95.1676 84.0943 95.2016 84.0774L96.5726 83.2854C96.6296 83.2524 96.6266 83.1954 96.5726 83.1594L94.9886 82.2444C94.9542 82.227 94.9162 82.2179 94.8776 82.2179C94.839 82.2179 94.801 82.227 94.7666 82.2444ZM84.3926 92.9424L85.7636 92.1504C85.8206 92.1174 85.8176 92.0604 85.7636 92.0244L84.1796 91.1244C84.1456 91.1075 84.1081 91.0987 84.0701 91.0987C84.0321 91.0987 83.9946 91.1075 83.9606 91.1244L82.5866 91.9044C82.5296 91.9404 82.5326 91.9944 82.5866 92.0304L84.1736 92.9484C84.2093 92.9659 84.2486 92.9744 84.2883 92.9734C84.328 92.9724 84.3669 92.9617 84.4016 92.9424H84.3926ZM96.9926 81.0924C96.9586 81.0755 96.9211 81.0667 96.8831 81.0667C96.8451 81.0667 96.8076 81.0755 96.7736 81.0924L95.4026 81.8844C95.3426 81.9204 95.3456 81.9744 95.4026 82.0104L96.9896 82.9284C97.0236 82.9453 97.0611 82.9541 97.0991 82.9541C97.1371 82.9541 97.1746 82.9453 97.2086 82.9284L98.5796 82.1364C98.6366 82.1034 98.6336 82.0464 98.5796 82.0104L96.9926 81.0924ZM77.1656 99.7314L78.5366 98.9394C78.5966 98.9064 78.5906 98.8494 78.5366 98.8134L76.9496 97.9134C76.9156 97.8965 76.8781 97.8877 76.8401 97.8877C76.8021 97.8877 76.7646 97.8965 76.7306 97.9134L75.3596 98.7054C75.2996 98.7414 75.3056 98.7954 75.3596 98.8314L76.9436 99.7494C76.9802 99.7651 77.0201 99.7716 77.0598 99.7685C77.0995 99.7653 77.1379 99.7526 77.1716 99.7314H77.1656ZM101.745 85.5414L103.116 84.7494C103.173 84.7164 103.17 84.6594 103.116 84.6234L101.532 83.7084C101.498 83.6915 101.46 83.6827 101.422 83.6827C101.384 83.6827 101.347 83.6915 101.313 83.7084L99.9416 84.5004C99.8816 84.5334 99.8876 84.5904 99.9416 84.6264L101.529 85.5264C101.562 85.5469 101.599 85.5589 101.638 85.5615C101.676 85.5642 101.715 85.5572 101.751 85.5414H101.745ZM97.4756 85.3914L98.8466 84.5994C98.9036 84.5664 98.9006 84.5094 98.8466 84.4734L97.2626 83.5584C97.2286 83.5415 97.1911 83.5327 97.1531 83.5327C97.1151 83.5327 97.0776 83.5415 97.0436 83.5584L95.6666 84.3444C95.6066 84.3774 95.6096 84.4344 95.6666 84.4704L97.2536 85.3704C97.2871 85.3921 97.3253 85.4054 97.365 85.409C97.4047 85.4127 97.4447 85.4066 97.4816 85.3914H97.4756ZM99.2576 82.3914C99.2236 82.3745 99.1861 82.3657 99.1481 82.3657C99.1101 82.3657 99.0726 82.3745 99.0386 82.3914L97.6676 83.1834C97.6076 83.2194 97.6106 83.2734 97.6676 83.3094L99.2546 84.2274C99.2886 84.2443 99.3261 84.2531 99.3641 84.2531C99.4021 84.2531 99.4396 84.2443 99.4736 84.2274L100.845 83.4354C100.902 83.4024 100.899 83.3454 100.845 83.3094L99.2576 82.3914ZM99.6776 82.1484L103.53 84.3714C103.563 84.389 103.601 84.3982 103.639 84.3982C103.677 84.3982 103.715 84.389 103.749 84.3714L105.12 83.5794C105.18 83.5464 105.174 83.4894 105.12 83.4534L101.268 81.2304C101.234 81.2128 101.196 81.2036 101.158 81.2036C101.12 81.2036 101.082 81.2128 101.049 81.2304L99.6776 82.0224C99.6176 82.0644 99.6236 82.1214 99.6836 82.1574L99.6776 82.1484ZM95.0366 84.7044L93.6656 85.4964C93.6056 85.5294 93.6086 85.5864 93.6656 85.6224L95.2526 86.5374C95.2864 86.555 95.324 86.5642 95.3621 86.5642C95.4002 86.5642 95.4378 86.555 95.4716 86.5374L96.8426 85.7484C96.8996 85.7124 96.8966 85.6584 96.8426 85.6194L95.2556 84.7044C95.2216 84.6875 95.1841 84.6787 95.1461 84.6787C95.1081 84.6787 95.0706 84.6875 95.0366 84.7044ZM79.9496 93.4044L78.5666 94.2114C78.5096 94.2444 78.5126 94.3014 78.5666 94.3374L80.1506 95.2524C80.1846 95.2693 80.2221 95.2781 80.2601 95.2781C80.2981 95.2781 80.3356 95.2693 80.3696 95.2524L81.7406 94.4604C81.8006 94.4244 81.7976 94.3704 81.7406 94.3344L80.1536 93.4164C80.1214 93.4023 80.0865 93.3952 80.0513 93.3957C80.0161 93.3963 79.9814 93.4043 79.9496 93.4194V93.4044ZM99.5276 86.6784C99.5616 86.6953 99.5991 86.7041 99.6371 86.7041C99.6751 86.7041 99.7126 86.6953 99.7466 86.6784L101.118 85.8864C101.175 85.8534 101.172 85.7964 101.118 85.7604L99.5336 84.8604C99.4998 84.8428 99.4622 84.8336 99.4241 84.8336C99.386 84.8336 99.3484 84.8428 99.3146 84.8604L97.9436 85.6524C97.8836 85.6854 97.8866 85.7424 97.9436 85.7784L99.5276 86.6784ZM81.9536 92.2464L80.5826 93.0384C80.5256 93.0714 80.5286 93.1284 80.5826 93.1644L82.1666 94.0944C82.2001 94.1113 82.2371 94.1201 82.2746 94.1201C82.3121 94.1201 82.3491 94.1113 82.3826 94.0944L83.7566 93.3024C83.8136 93.2694 83.8106 93.2124 83.7566 93.1764L82.1666 92.2674C82.1338 92.2505 82.0977 92.2412 82.0608 92.2401C82.0239 92.2391 81.9873 92.2463 81.9536 92.2614V92.2464ZM66.9326 105.497C66.9666 105.514 67.0041 105.523 67.0421 105.523C67.0801 105.523 67.1176 105.514 67.1516 105.497L68.5226 104.705C68.5796 104.672 68.5766 104.615 68.5226 104.579L66.9386 103.664C66.9046 103.647 66.8671 103.639 66.8291 103.639C66.7911 103.639 66.7536 103.647 66.7196 103.664L65.3486 104.456C65.2886 104.489 65.2916 104.546 65.3486 104.582L66.9326 105.497ZM63.9176 102.662L62.5466 103.454C62.4866 103.487 62.4896 103.544 62.5466 103.58L64.1336 104.48C64.1674 104.498 64.205 104.507 64.2431 104.507C64.2812 104.507 64.3188 104.498 64.3526 104.48L65.7236 103.688C65.7806 103.655 65.7776 103.598 65.7236 103.562L64.1396 102.647C64.103 102.634 64.0636 102.629 64.0248 102.634C63.9861 102.64 63.9493 102.654 63.9176 102.677V102.662ZM69.1556 104.345L70.5266 103.553C70.5836 103.52 70.5806 103.463 70.5266 103.427L68.9426 102.527C68.9086 102.51 68.8711 102.502 68.8331 102.502C68.7951 102.502 68.7576 102.51 68.7236 102.527L67.3436 103.304C67.2836 103.337 67.2866 103.394 67.3436 103.43L68.9306 104.348C68.9644 104.368 69.0025 104.38 69.0417 104.382C69.0808 104.384 69.1199 104.376 69.1556 104.36V104.345ZM71.1596 103.187L72.5306 102.395C72.5876 102.362 72.5846 102.305 72.5306 102.269L70.9466 101.354C70.9128 101.337 70.8752 101.328 70.8371 101.328C70.799 101.328 70.7614 101.337 70.7276 101.354L69.3566 102.146C69.2966 102.179 69.2996 102.236 69.3566 102.272L70.9436 103.172C70.9746 103.194 71.0104 103.208 71.048 103.214C71.0855 103.219 71.1238 103.215 71.1596 103.202V103.187ZM73.1636 102.032L74.5346 101.24C74.5916 101.204 74.5886 101.15 74.5346 101.114L72.9506 100.196C72.9166 100.179 72.8791 100.171 72.8411 100.171C72.8031 100.171 72.7656 100.179 72.7316 100.196L71.3666 101C71.3066 101.033 71.3096 101.09 71.3666 101.126L72.9536 102.041C72.9864 102.058 73.0225 102.068 73.0594 102.069C73.0963 102.07 73.1329 102.062 73.1666 102.047L73.1636 102.032ZM65.9216 101.504L64.5506 102.296C64.4906 102.329 64.4936 102.386 64.5506 102.422L66.1376 103.337C66.1716 103.354 66.2091 103.363 66.2471 103.363C66.2851 103.363 66.3226 103.354 66.3566 103.337L67.7276 102.545C67.7846 102.509 67.7816 102.455 67.7276 102.419L66.1436 101.501C66.1078 101.487 66.069 101.481 66.0304 101.484C65.9919 101.487 65.9546 101.499 65.9216 101.519V101.504ZM67.9256 100.346L66.5666 101.153C66.5066 101.186 66.5096 101.243 66.5666 101.279L68.1536 102.194C68.1876 102.211 68.2251 102.22 68.2631 102.22C68.3011 102.22 68.3386 102.211 68.3726 102.194L69.7436 101.402C69.8006 101.369 69.7976 101.312 69.7436 101.276L68.1596 100.361C68.1237 100.342 68.0835 100.332 68.0426 100.332C68.0018 100.332 67.9615 100.342 67.9256 100.361V100.346ZM75.9416 95.7174L74.5706 96.5094C74.5136 96.5424 74.5166 96.5994 74.5706 96.6354L76.1546 97.5504C76.1884 97.568 76.226 97.5772 76.2641 97.5772C76.3022 97.5772 76.3398 97.568 76.3736 97.5504L77.7446 96.7584C77.8046 96.7254 77.8016 96.6684 77.7446 96.6324L76.1666 95.7384C76.1323 95.7195 76.094 95.7092 76.0548 95.7081C76.0157 95.7071 75.9769 95.7154 75.9416 95.7324V95.7174ZM73.9376 96.8754L72.5666 97.6824C72.5096 97.7154 72.5126 97.7724 72.5666 97.8084L74.1506 98.7234C74.1846 98.7403 74.2221 98.7491 74.2601 98.7491C74.2981 98.7491 74.3356 98.7403 74.3696 98.7234L75.7406 97.9314C75.8006 97.8984 75.7976 97.8414 75.7406 97.8054L74.1536 96.8904C74.1202 96.8733 74.0832 96.8643 74.0456 96.8643C74.008 96.8643 73.971 96.8733 73.9376 96.8904V96.8754ZM77.9456 94.5624L76.5746 95.3514C76.5176 95.3874 76.5206 95.4444 76.5746 95.4804L78.1586 96.3804C78.1926 96.3973 78.2301 96.4061 78.2681 96.4061C78.3061 96.4061 78.3436 96.3973 78.3776 96.3804L79.7486 95.5884C79.8086 95.5554 79.8056 95.4984 79.7486 95.4624L78.1616 94.5474C78.1258 94.5347 78.0875 94.5308 78.0499 94.5361C78.0124 94.5413 77.9766 94.5554 77.9456 94.5774V94.5624ZM69.9296 99.1884L68.5586 100.004C68.4986 100.04 68.5046 100.094 68.5586 100.13L70.1456 101.048C70.1796 101.065 70.2171 101.074 70.2551 101.074C70.2931 101.074 70.3306 101.065 70.3646 101.048L71.7356 100.256C71.7926 100.223 71.7896 100.166 71.7356 100.13L70.1516 99.2304C70.1194 99.2087 70.0824 99.1949 70.0438 99.1902C70.0053 99.1855 69.9661 99.19 69.9296 99.2034V99.1884ZM71.9336 98.0334L70.5626 98.8254C70.5056 98.8584 70.5086 98.9154 70.5626 98.9514L72.1466 99.8514C72.1804 99.869 72.218 99.8782 72.2561 99.8782C72.2942 99.8782 72.3318 99.869 72.3656 99.8514L73.7366 99.0624C73.7966 99.0264 73.7906 98.9694 73.7366 98.9334L72.1496 98.0184C72.1137 98.0064 72.0756 98.0029 72.0381 98.0081C72.0006 98.0133 71.9649 98.0271 71.9336 98.0484V98.0334ZM70.4666 106.217L71.8376 105.425C71.8976 105.392 71.8946 105.335 71.8376 105.299L70.2506 104.399C70.2168 104.382 70.1792 104.373 70.1411 104.373C70.103 104.373 70.0654 104.382 70.0316 104.399L68.6666 105.17C68.6096 105.203 68.6126 105.26 68.6666 105.296L70.2506 106.211C70.2838 106.229 70.3205 106.238 70.3579 106.239C70.3953 106.24 70.4325 106.233 70.4666 106.217ZM58.7066 105.017L57.1196 104.102C57.0856 104.085 57.0481 104.077 57.0101 104.077C56.9721 104.077 56.9346 104.085 56.9006 104.102L55.5296 104.894C55.4726 104.927 55.4756 104.984 55.5296 105.02L57.1136 105.935C57.1476 105.952 57.1851 105.961 57.2231 105.961C57.2611 105.961 57.2986 105.952 57.3326 105.935L58.7036 105.143C58.7666 105.122 58.7666 105.065 58.7096 105.029L58.7066 105.017ZM61.7066 105.899L60.1196 104.984C60.0861 104.967 60.0491 104.959 60.0116 104.959C59.9741 104.959 59.9371 104.967 59.9036 104.984L57.8036 106.202C57.7466 106.235 57.7496 106.292 57.8036 106.328L59.3876 107.228C59.4216 107.245 59.4591 107.254 59.4971 107.254C59.5351 107.254 59.5726 107.245 59.6066 107.228L61.7066 106.01C61.7666 106.004 61.7666 105.947 61.7126 105.911L61.7066 105.899ZM56.2706 103.247L54.6836 102.332C54.6496 102.315 54.6121 102.307 54.5741 102.307C54.5361 102.307 54.4986 102.315 54.4646 102.332L52.7846 103.304C52.7246 103.337 52.7276 103.394 52.7846 103.43L54.3716 104.345C54.4056 104.362 54.4431 104.371 54.4811 104.371C54.5191 104.371 54.5566 104.362 54.5906 104.345L56.2766 103.37C56.3426 103.352 56.3396 103.304 56.2766 103.259L56.2706 103.247ZM57.5636 102.5C57.5974 102.518 57.635 102.527 57.6731 102.527C57.7112 102.527 57.7488 102.518 57.7826 102.5L59.1536 101.708C59.2136 101.675 59.2076 101.618 59.1536 101.582L57.5666 100.682C57.5326 100.665 57.4951 100.657 57.4571 100.657C57.4191 100.657 57.3816 100.665 57.3476 100.682L55.9766 101.474C55.9196 101.507 55.9226 101.564 55.9766 101.6L57.5636 102.5ZM64.5056 106.904L62.9186 106.004C62.8848 105.987 62.8472 105.978 62.8091 105.978C62.771 105.978 62.7334 105.987 62.6996 106.004L60.0626 107.504C60.0056 107.537 60.0086 107.594 60.0626 107.63L61.6496 108.545C61.6831 108.562 61.7201 108.571 61.7576 108.571C61.7951 108.571 61.8321 108.562 61.8656 108.545L64.5056 107.021C64.5716 107.006 64.5686 106.949 64.5056 106.904ZM65.8226 108.761L64.2356 107.846C64.2016 107.829 64.1641 107.821 64.1261 107.821C64.0881 107.821 64.0506 107.829 64.0166 107.846L62.3276 108.821C62.2706 108.854 62.2736 108.911 62.3276 108.947L63.9146 109.862C63.9486 109.879 63.9861 109.888 64.0241 109.888C64.0621 109.888 64.0996 109.879 64.1336 109.862L65.8196 108.887C65.8886 108.863 65.8826 108.806 65.8226 108.77V108.761ZM72.4706 93.8994C72.5046 93.9163 72.5421 93.9251 72.5801 93.9251C72.6181 93.9251 72.6556 93.9163 72.6896 93.8994L74.0606 93.1074C74.1206 93.0714 74.1176 93.0174 74.0606 92.9814L72.4736 92.0634C72.4396 92.0465 72.4021 92.0377 72.3641 92.0377C72.3261 92.0377 72.2886 92.0465 72.2546 92.0634L70.8836 92.8554C70.8266 92.8884 70.8296 92.9454 70.8836 92.9814L72.4706 93.8994ZM68.4626 96.2124C68.4964 96.23 68.534 96.2392 68.5721 96.2392C68.6102 96.2392 68.6478 96.23 68.6816 96.2124L70.0526 95.4204C70.1126 95.3874 70.1096 95.3304 70.0526 95.2944L68.4656 94.3794C68.4316 94.3625 68.3941 94.3537 68.3561 94.3537C68.3181 94.3537 68.2806 94.3625 68.2466 94.3794L66.8666 95.1804C66.8096 95.2134 66.8126 95.2704 66.8666 95.3064L68.4626 96.2124ZM59.5736 101.354C59.6076 101.371 59.6451 101.38 59.6831 101.38C59.7211 101.38 59.7586 101.371 59.7926 101.354L61.1636 100.562C61.2236 100.529 61.2206 100.472 61.1636 100.436L59.5766 99.5184C59.5426 99.5015 59.5051 99.4927 59.4671 99.4927C59.4291 99.4927 59.3916 99.5015 59.3576 99.5184L57.9806 100.304C57.9236 100.337 57.9266 100.394 57.9806 100.43L59.5736 101.354ZM70.4666 95.0544C70.5006 95.0713 70.5381 95.0801 70.5761 95.0801C70.6141 95.0801 70.6516 95.0713 70.6856 95.0544L72.0566 94.2624C72.1166 94.2294 72.1136 94.1724 72.0566 94.1364L70.4666 93.2364C70.4328 93.2188 70.3952 93.2096 70.3571 93.2096C70.319 93.2096 70.2814 93.2188 70.2476 93.2364L68.8766 94.0254C68.8196 94.0614 68.8226 94.1184 68.8766 94.1544L70.4666 95.0544ZM66.4586 97.3674C66.4926 97.3843 66.5301 97.3931 66.5681 97.3931C66.6061 97.3931 66.6436 97.3843 66.6776 97.3674L68.0486 96.5754C68.1086 96.5424 68.1026 96.4854 68.0486 96.4494L66.4616 95.5314C66.4276 95.5145 66.3901 95.5057 66.3521 95.5057C66.3141 95.5057 66.2766 95.5145 66.2426 95.5314L64.8716 96.3234C64.8146 96.3564 64.8176 96.4134 64.8716 96.4494L66.4586 97.3674ZM66.9236 108.905C66.8896 108.888 66.8521 108.88 66.8141 108.88C66.7761 108.88 66.7386 108.888 66.7046 108.905L64.6046 110.123C64.5446 110.156 64.5476 110.213 64.6046 110.249L66.1916 111.164C66.2256 111.181 66.2631 111.19 66.3011 111.19C66.3391 111.19 66.3766 111.181 66.4106 111.164L68.5106 109.946C68.5676 109.913 68.5646 109.856 68.5106 109.82L66.9236 108.905ZM63.5816 99.0294C63.6156 99.0463 63.6531 99.0551 63.6911 99.0551C63.7291 99.0551 63.7666 99.0463 63.8006 99.0294L65.1716 98.2374C65.2316 98.2044 65.2286 98.1474 65.1716 98.1114L63.5666 97.2114C63.5328 97.1938 63.4952 97.1846 63.4571 97.1846C63.419 97.1846 63.3814 97.1938 63.3476 97.2114L61.9766 98.0004C61.9196 98.0364 61.9226 98.0904 61.9766 98.1294L63.5816 99.0294ZM61.5776 100.184C61.6116 100.201 61.6491 100.21 61.6871 100.21C61.7251 100.21 61.7626 100.201 61.7966 100.184L63.1676 99.3924C63.2276 99.3594 63.2246 99.3024 63.1676 99.2664L61.5806 98.3514C61.5466 98.3345 61.5091 98.3257 61.4711 98.3257C61.4331 98.3257 61.3956 98.3345 61.3616 98.3514L59.9906 99.1434C59.9336 99.1764 59.9366 99.2334 59.9906 99.2694L61.5776 100.184ZM104.067 87.4794C104.033 87.4625 103.995 87.4537 103.957 87.4537C103.919 87.4537 103.882 87.4625 103.848 87.4794L100.467 89.4264C100.407 89.4594 100.413 89.5164 100.467 89.5524L102.054 90.4524C102.087 90.47 102.125 90.4792 102.163 90.4792C102.201 90.4792 102.239 90.47 102.273 90.4524L105.648 88.5054C105.708 88.4724 105.702 88.4154 105.648 88.3794L104.067 87.4794ZM99.6356 90.0384C99.6018 90.0208 99.5642 90.0116 99.5261 90.0116C99.488 90.0116 99.4504 90.0208 99.4166 90.0384L98.0456 90.8304C97.9886 90.8634 97.9916 90.9204 98.0456 90.9564L99.6296 91.8714C99.6634 91.889 99.701 91.8982 99.7391 91.8982C99.7772 91.8982 99.8148 91.889 99.8486 91.8714L101.22 91.0794C101.28 91.0464 101.277 90.9894 101.22 90.9534L99.6356 90.0384ZM72.4856 105.059L73.8596 104.267C73.9166 104.234 73.9136 104.177 73.8596 104.141L72.2666 103.226C72.2326 103.209 72.1951 103.201 72.1571 103.201C72.1191 103.201 72.0816 103.209 72.0476 103.226L70.6766 104.018C70.6196 104.051 70.6226 104.108 70.6766 104.144L72.2606 105.062C72.2941 105.078 72.3306 105.086 72.3674 105.085C72.4043 105.085 72.4406 105.076 72.4736 105.059H72.4856ZM95.6276 92.3544C95.5936 92.3375 95.5561 92.3287 95.5181 92.3287C95.4801 92.3287 95.4426 92.3375 95.4086 92.3544L94.0376 93.1464C93.9776 93.1794 93.9836 93.2364 94.0376 93.2724L95.6216 94.1724C95.6556 94.1893 95.6931 94.1981 95.7311 94.1981C95.7691 94.1981 95.8066 94.1893 95.8406 94.1724L97.2116 93.3804C97.2716 93.3474 97.2656 93.2904 97.2116 93.2544L95.6276 92.3544ZM106.071 86.3244C106.037 86.3075 105.999 86.2987 105.961 86.2987C105.923 86.2987 105.886 86.3075 105.852 86.3244L104.469 87.1044C104.412 87.1374 104.415 87.1944 104.469 87.2304L106.053 88.1454C106.087 88.1623 106.124 88.1711 106.162 88.1711C106.2 88.1711 106.238 88.1623 106.272 88.1454L107.643 87.3534C107.703 87.3204 107.697 87.2634 107.643 87.2274L106.071 86.3244ZM109.671 86.0814L105.819 83.8584C105.785 83.8408 105.747 83.8316 105.709 83.8316C105.671 83.8316 105.633 83.8408 105.6 83.8584L104.229 84.6474C104.172 84.6834 104.175 84.7404 104.229 84.7764L108.078 86.9994C108.112 87.0163 108.149 87.0251 108.187 87.0251C108.225 87.0251 108.263 87.0163 108.297 86.9994L109.668 86.2074C109.716 86.1744 109.713 86.1174 109.65 86.0814H109.671ZM88.1456 96.6774C88.1121 96.6605 88.0751 96.6517 88.0376 96.6517C88.0001 96.6517 87.9631 96.6605 87.9296 96.6774L86.2406 97.6524C86.1806 97.6854 86.1866 97.7424 86.2406 97.7784L87.8276 98.6934C87.8614 98.711 87.899 98.7202 87.9371 98.7202C87.9752 98.7202 88.0128 98.711 88.0466 98.6934L89.7356 97.7184C89.7926 97.6854 89.7896 97.6284 89.7356 97.5924L88.1456 96.6774ZM93.2096 93.7524C93.1756 93.7355 93.1381 93.7267 93.1001 93.7267C93.0621 93.7267 93.0246 93.7355 92.9906 93.7524L90.8906 94.9704C90.8336 95.0034 90.8366 95.0604 90.8906 95.0964L92.4746 96.0114C92.5086 96.0283 92.5461 96.0371 92.5841 96.0371C92.6221 96.0371 92.6596 96.0283 92.6936 96.0114L94.7936 94.7934C94.8536 94.7604 94.8506 94.7034 94.7936 94.6674L93.2096 93.7524ZM83.5046 99.3564C83.4708 99.3388 83.4332 99.3296 83.3951 99.3296C83.357 99.3296 83.3194 99.3388 83.2856 99.3564L71.9666 105.869C71.9096 105.902 71.9126 105.959 71.9666 105.995L73.5506 106.895C73.5846 106.912 73.6221 106.921 73.6601 106.921C73.6981 106.921 73.7356 106.912 73.7696 106.895L85.0556 100.376C85.1156 100.343 85.1126 100.286 85.0556 100.25L83.5046 99.3564ZM71.5856 106.238C71.5518 106.221 71.5142 106.212 71.4761 106.212C71.438 106.212 71.4004 106.221 71.3666 106.238L69.6566 107.204C69.5996 107.237 69.6026 107.294 69.6566 107.33L71.2436 108.245C71.277 108.262 71.314 108.271 71.3516 108.271C71.3892 108.271 71.4262 108.262 71.4596 108.245L73.1486 107.27C73.2056 107.237 73.2026 107.18 73.1486 107.144L71.5856 106.238ZM85.8266 98.0184C85.7928 98.0008 85.7552 97.9916 85.7171 97.9916C85.679 97.9916 85.6414 98.0008 85.6076 98.0184L83.9186 98.9934C83.8616 99.0264 83.8646 99.0834 83.9186 99.1194L85.5026 100.034C85.5366 100.051 85.5741 100.06 85.6121 100.06C85.6501 100.06 85.6876 100.051 85.7216 100.034L87.4106 99.0594C87.4676 99.0264 87.4646 98.9694 87.4106 98.9334L85.8266 98.0184ZM69.2636 107.579C69.2296 107.562 69.1921 107.554 69.1541 107.554C69.1161 107.554 69.0786 107.562 69.0446 107.579L67.3586 108.554C67.2986 108.587 67.3046 108.644 67.3586 108.68L68.9456 109.595C68.9796 109.612 69.0171 109.621 69.0551 109.621C69.0931 109.621 69.1306 109.612 69.1646 109.595L70.8506 108.62C70.9106 108.587 70.9076 108.53 70.8506 108.494L69.2636 107.579ZM90.4676 95.3364C90.4336 95.3195 90.3961 95.3107 90.3581 95.3107C90.3201 95.3107 90.2826 95.3195 90.2486 95.3364L88.5596 96.3114C88.5026 96.3444 88.5056 96.4014 88.5596 96.4374L90.1466 97.3374C90.1804 97.355 90.218 97.3642 90.2561 97.3642C90.2942 97.3642 90.3318 97.355 90.3656 97.3374L92.0516 96.3654C92.1116 96.3294 92.1056 96.2724 92.0516 96.2364L90.4676 95.3364ZM97.6406 91.1964C97.6066 91.1795 97.5691 91.1707 97.5311 91.1707C97.4931 91.1707 97.4556 91.1795 97.4216 91.1964L96.0506 91.9884C95.9936 92.0214 95.9966 92.0784 96.0506 92.1144L97.6346 93.0324C97.6686 93.0493 97.7061 93.0581 97.7441 93.0581C97.7821 93.0581 97.8196 93.0493 97.8536 93.0324L99.2246 92.2404C99.2846 92.2074 99.2786 92.1504 99.2246 92.1144L97.6406 91.1964ZM102.012 88.0044L103.383 87.2124C103.44 87.1794 103.437 87.1224 103.383 87.0864L101.799 86.1714C101.765 86.1538 101.727 86.1446 101.689 86.1446C101.651 86.1446 101.613 86.1538 101.58 86.1714L100.209 86.9634C100.149 86.9964 100.155 87.0534 100.209 87.0894L101.796 88.0044C101.829 88.0208 101.866 88.0294 101.904 88.0294C101.941 88.0294 101.978 88.0208 102.012 88.0044ZM93.0506 87.9444L94.4216 87.1554C94.4786 87.1194 94.4756 87.0624 94.4216 87.0264L92.8376 86.1114C92.8038 86.0938 92.7662 86.0846 92.7281 86.0846C92.69 86.0846 92.6524 86.0938 92.6186 86.1114L91.2476 86.9034C91.1876 86.9364 91.1936 86.9934 91.2476 87.0294L92.8346 87.9444C92.8678 87.962 92.9047 87.9714 92.9422 87.9719C92.9798 87.9724 93.0169 87.964 93.0506 87.9474V87.9444ZM88.5086 95.8044L92.5166 93.4914C92.5766 93.4584 92.5736 93.4014 92.5166 93.3654L90.9296 92.4504C90.8956 92.4335 90.8581 92.4247 90.8201 92.4247C90.7821 92.4247 90.7446 92.4335 90.7106 92.4504L86.6966 94.7544C86.6396 94.7904 86.6426 94.8474 86.6966 94.8834L88.2806 95.7984C88.3153 95.8177 88.3542 95.8284 88.3939 95.8294C88.4336 95.8304 88.4729 95.8219 88.5086 95.8044ZM99.7886 89.1624C99.8224 89.18 99.86 89.1892 99.8981 89.1892C99.9362 89.1892 99.9738 89.18 100.008 89.1624L101.379 88.3734C101.436 88.3374 101.433 88.2804 101.379 88.2444L99.7946 87.3294C99.7606 87.3125 99.7231 87.3037 99.6851 87.3037C99.6471 87.3037 99.6096 87.3125 99.5756 87.3294L98.2046 88.1214C98.1446 88.1544 98.1476 88.2114 98.2046 88.2474L99.7886 89.1624ZM97.7426 87.8574L99.1136 87.0684C99.1706 87.0324 99.1676 86.9754 99.1136 86.9394L97.5296 86.0244C97.4956 86.0075 97.4581 85.9987 97.4201 85.9987C97.3821 85.9987 97.3446 86.0075 97.3106 86.0244L95.9306 86.8044C95.8706 86.8374 95.8736 86.8944 95.9306 86.9304L97.5176 87.8454C97.5514 87.8654 97.5897 87.8767 97.629 87.8783C97.6682 87.8799 97.7073 87.8717 97.7426 87.8544V87.8574ZM86.5046 96.9624L87.8756 96.1704C87.9356 96.1374 87.9296 96.0804 87.8756 96.0444L86.2886 95.1294C86.2546 95.1125 86.2171 95.1037 86.1791 95.1037C86.1411 95.1037 86.1036 95.1125 86.0696 95.1294L84.6986 95.9214C84.6386 95.9544 84.6446 96.0114 84.6986 96.0474L86.2826 96.9624C86.3173 96.9793 86.3554 96.9879 86.394 96.9873C86.4325 96.9868 86.4704 96.9772 86.5046 96.9594V96.9624ZM95.3666 91.7184C95.4006 91.7353 95.4381 91.7441 95.4761 91.7441C95.5141 91.7441 95.5516 91.7353 95.5856 91.7184L96.9566 90.9264C97.0166 90.8934 97.0106 90.8364 96.9566 90.8004L95.3666 89.8884C95.3326 89.8715 95.2951 89.8627 95.2571 89.8627C95.2191 89.8627 95.1816 89.8715 95.1476 89.8884L93.7766 90.6804C93.7166 90.7164 93.7226 90.7704 93.7766 90.8064L95.3666 91.7184ZM76.4936 102.746L77.8646 101.954C77.9216 101.918 77.9186 101.864 77.8646 101.828L76.2626 100.904C76.2286 100.887 76.1911 100.879 76.1531 100.879C76.1151 100.879 76.0776 100.887 76.0436 100.904L74.6666 101.699C74.6066 101.732 74.6096 101.789 74.6666 101.825L76.2536 102.74C76.2887 102.76 76.3281 102.771 76.3684 102.772C76.4086 102.773 76.4486 102.764 76.4846 102.746H76.4936ZM78.4976 101.588L79.8686 100.796C79.9256 100.763 79.9226 100.706 79.8686 100.67L78.2666 99.7554C78.2326 99.7385 78.1951 99.7297 78.1571 99.7297C78.1191 99.7297 78.0816 99.7385 78.0476 99.7554L76.6766 100.547C76.6166 100.58 76.6196 100.637 76.6766 100.673L78.2636 101.588C78.2984 101.606 78.337 101.616 78.3761 101.616C78.4152 101.616 78.4538 101.606 78.4886 101.588H78.4976ZM74.4776 103.904L75.8516 103.112C75.9086 103.079 75.9056 103.022 75.8516 102.986L74.2646 102.071C74.2308 102.054 74.1932 102.045 74.1551 102.045C74.117 102.045 74.0794 102.054 74.0456 102.071L72.6746 102.863C72.6176 102.896 72.6206 102.953 72.6746 102.989L74.2616 103.904C74.295 103.921 74.332 103.93 74.3696 103.93C74.4072 103.93 74.4442 103.921 74.4776 103.904ZM82.4966 99.2754L83.8676 98.4864C83.9246 98.4504 83.9216 98.3934 83.8676 98.3574L82.2836 97.4424C82.2496 97.4255 82.2121 97.4167 82.1741 97.4167C82.1361 97.4167 82.0986 97.4255 82.0646 97.4424L80.6936 98.2344C80.6336 98.2674 80.6366 98.3244 80.6936 98.3604L82.2806 99.2754C82.3143 99.292 82.3514 99.3004 82.389 99.2999C82.4265 99.2994 82.4634 99.29 82.4966 99.2724V99.2754ZM80.4926 100.433L81.8636 99.6414C81.9206 99.6084 81.9176 99.5514 81.8636 99.5154L80.2796 98.6004C80.2456 98.5835 80.2081 98.5747 80.1701 98.5747C80.1321 98.5747 80.0946 98.5835 80.0606 98.6004L78.6896 99.3924C78.6296 99.4284 78.6326 99.4824 78.6896 99.5184L80.2766 100.436C80.3107 100.452 80.3479 100.459 80.3853 100.458C80.4227 100.457 80.4594 100.448 80.4926 100.43V100.433ZM84.5006 98.1204L85.8716 97.3284C85.9286 97.2954 85.9256 97.2384 85.8716 97.2024L84.2876 96.3024C84.2538 96.2848 84.2162 96.2756 84.1781 96.2756C84.14 96.2756 84.1024 96.2848 84.0686 96.3024L82.6976 97.0944C82.6376 97.1274 82.6436 97.1844 82.6976 97.2204L84.2846 98.1354C84.3196 98.1491 84.3573 98.1546 84.3947 98.1514C84.4321 98.1483 84.4684 98.1367 84.5006 98.1174V98.1204ZM93.6686 81.0024C93.7026 81.0193 93.7401 81.0281 93.7781 81.0281C93.8161 81.0281 93.8536 81.0193 93.8876 81.0024L95.2586 80.2104C95.3186 80.1774 95.3156 80.1204 95.2586 80.0844L94.8356 79.8414C94.8016 79.8245 94.7641 79.8157 94.7261 79.8157C94.6881 79.8157 94.6506 79.8245 94.6166 79.8414L93.2456 80.6334C93.1886 80.6664 93.1916 80.7234 93.2456 80.7594L93.6686 81.0024ZM83.8076 87.3654C83.8416 87.3823 83.8791 87.3911 83.9171 87.3911C83.9551 87.3911 83.9926 87.3823 84.0266 87.3654L85.3976 86.5734C85.4576 86.5404 85.4546 86.4834 85.3976 86.4474L83.8106 85.5324C83.7766 85.5155 83.7391 85.5067 83.7011 85.5067C83.6631 85.5067 83.6256 85.5155 83.5916 85.5324L82.2206 86.3244C82.1636 86.3574 82.1666 86.4144 82.2206 86.4504L83.8076 87.3654ZM87.8156 85.0524C87.8494 85.07 87.887 85.0792 87.9251 85.0792C87.9632 85.0792 88.0008 85.07 88.0346 85.0524L89.4056 84.2604C89.4656 84.2274 89.4626 84.1704 89.4056 84.1344L87.8186 83.2194C87.7848 83.2018 87.7472 83.1926 87.7091 83.1926C87.671 83.1926 87.6334 83.2018 87.5996 83.2194L86.2286 84.0114C86.1716 84.0444 86.1746 84.1014 86.2286 84.1374L87.8156 85.0524ZM81.3596 88.7784C81.3936 88.7953 81.4311 88.8041 81.4691 88.8041C81.5071 88.8041 81.5446 88.7953 81.5786 88.7784L82.9526 87.9864C83.0096 87.9534 83.0066 87.8964 82.9526 87.8604L81.3656 86.9604C81.3316 86.9435 81.2941 86.9347 81.2561 86.9347C81.2181 86.9347 81.1806 86.9435 81.1466 86.9604L79.7666 87.7344C79.7096 87.7674 79.7126 87.8244 79.7666 87.8604L81.3596 88.7784ZM85.8116 86.2044C85.8456 86.2213 85.8831 86.2301 85.9211 86.2301C85.9591 86.2301 85.9966 86.2213 86.0306 86.2044L87.4016 85.4124C87.4616 85.3794 87.4586 85.3224 87.4016 85.2864L85.8146 84.3864C85.7806 84.3695 85.7431 84.3607 85.7051 84.3607C85.6671 84.3607 85.6296 84.3695 85.5956 84.3864L84.2246 85.1784C84.1676 85.2144 84.1706 85.2684 84.2246 85.3044L85.8116 86.2044ZM77.3666 91.0914C77.4006 91.1083 77.4381 91.1171 77.4761 91.1171C77.5141 91.1171 77.5516 91.1083 77.5856 91.0914L78.9566 90.2994C79.0166 90.2664 79.0136 90.2094 78.9566 90.1734L77.3696 89.2584C77.3358 89.2408 77.2982 89.2316 77.2601 89.2316C77.222 89.2316 77.1844 89.2408 77.1506 89.2584L75.7796 90.0474C75.7226 90.0834 75.7256 90.1404 75.7796 90.1764L77.3666 91.0914ZM79.3706 89.9334C79.4046 89.9503 79.4421 89.9591 79.4801 89.9591C79.5181 89.9591 79.5556 89.9503 79.5896 89.9334L80.9606 89.1414C81.0206 89.1054 81.0176 89.0514 80.9606 89.0154L79.3736 88.0974C79.3396 88.0805 79.3021 88.0717 79.2641 88.0717C79.2261 88.0717 79.1886 88.0805 79.1546 88.0974L77.7626 88.9044C77.7056 88.9374 77.7086 88.9944 77.7626 89.0304L79.3706 89.9334ZM89.6666 83.3124C89.7004 83.33 89.738 83.3392 89.7761 83.3392C89.8142 83.3392 89.8518 83.33 89.8856 83.3124L91.2566 82.5234C91.3166 82.4874 91.3136 82.4334 91.2566 82.3944L90.8336 82.1514C90.7996 82.1345 90.7621 82.1257 90.7241 82.1257C90.6861 82.1257 90.6486 82.1345 90.6146 82.1514L89.2436 82.9434C89.1866 82.9764 89.1896 83.0334 89.2436 83.0694L89.6666 83.3124ZM95.6666 79.8414C95.7004 79.859 95.738 79.8682 95.7761 79.8682C95.8142 79.8682 95.8518 79.859 95.8856 79.8414L97.2596 79.0494C97.3166 79.0164 97.3136 78.9594 97.2596 78.9234L96.8366 78.6804C96.8028 78.6628 96.7652 78.6536 96.7271 78.6536C96.689 78.6536 96.6514 78.6628 96.6176 78.6804L95.2466 79.4694C95.1896 79.5054 95.1926 79.5624 95.2466 79.5984L95.6666 79.8414ZM98.9996 81.7644C99.0334 81.782 99.071 81.7912 99.1091 81.7912C99.1472 81.7912 99.1848 81.782 99.2186 81.7644L100.59 80.9724C100.647 80.9394 100.644 80.8824 100.59 80.8464L99.0056 79.9464C98.9718 79.9288 98.9342 79.9196 98.8961 79.9196C98.858 79.9196 98.8204 79.9288 98.7866 79.9464L97.4156 80.7384C97.3556 80.7714 97.3586 80.8284 97.4156 80.8644L98.9996 81.7644ZM104.01 86.8494L105.381 86.0574C105.441 86.0244 105.435 85.9674 105.381 85.9314L103.794 85.0314C103.76 85.0145 103.722 85.0057 103.684 85.0057C103.646 85.0057 103.609 85.0145 103.575 85.0314L102.204 85.8234C102.144 85.8564 102.15 85.9134 102.204 85.9494L103.788 86.8644C103.824 86.8813 103.864 86.8888 103.904 86.8862C103.943 86.8835 103.982 86.8709 104.016 86.8494H104.01ZM91.6646 82.1544C91.6986 82.1713 91.7361 82.1801 91.7741 82.1801C91.8121 82.1801 91.8496 82.1713 91.8836 82.1544L93.2546 81.3624C93.3146 81.3294 93.3116 81.2724 93.2546 81.2364L92.8316 80.9934C92.7978 80.9758 92.7602 80.9666 92.7221 80.9666C92.684 80.9666 92.6464 80.9758 92.6126 80.9934L91.2416 81.7854C91.1846 81.8184 91.1876 81.8754 91.2416 81.9114L91.6646 82.1544ZM75.3476 92.2464C75.3816 92.2633 75.4191 92.2721 75.4571 92.2721C75.4951 92.2721 75.5326 92.2633 75.5666 92.2464L76.9376 91.4544C76.9976 91.4214 76.9946 91.3644 76.9376 91.3284L75.3506 90.4134C75.3166 90.3965 75.2791 90.3877 75.2411 90.3877C75.2031 90.3877 75.1656 90.3965 75.1316 90.4134L73.7666 91.2054C73.7096 91.2384 73.7126 91.2954 73.7666 91.3314L75.3476 92.2464Z" fill="#263238"/>
<path opacity="0.3" d="M84.2367 104.279L97.7667 96.4644C97.9955 96.3489 98.2483 96.2887 98.5047 96.2887C98.761 96.2887 99.0138 96.3489 99.2427 96.4644L107.004 100.946C107.412 101.18 107.412 101.561 107.004 101.798L93.4707 109.598C93.2422 109.715 92.9893 109.776 92.7327 109.776C92.4761 109.776 92.2231 109.715 91.9947 109.598L84.2367 105.131C83.8287 104.894 83.8287 104.504 84.2367 104.279Z" fill="black"/>
<path d="M39.6238 99.3684C39.7432 99.4366 39.8701 99.491 40.0018 99.5304C39.8697 99.4934 39.7427 99.44 39.6238 99.3714C39.5827 99.3499 39.5435 99.3248 39.5068 99.2964C39.5443 99.3228 39.5834 99.3468 39.6238 99.3684Z" fill="#459AE9"/>
<path opacity="0.3" d="M90.4136 28.6044C90.3266 27.9684 89.8136 27.7344 89.1926 28.0944L42.0086 55.3314C41.6465 55.5522 41.347 55.862 41.1386 56.2314L38.8286 54.9024C39.0358 54.5273 39.3352 54.2114 39.6986 53.9844L86.8856 26.7534C87.2271 26.5387 87.6189 26.4175 88.0219 26.4018C88.425 26.3861 88.825 26.4764 89.1822 26.6638C89.5394 26.8512 89.8411 27.129 90.0572 27.4696C90.2733 27.8101 90.3962 28.2014 90.4136 28.6044Z" fill="black"/>
<path d="M41.7778 99.4854C41.7837 99.484 41.7899 99.484 41.7958 99.4854H41.7778Z" fill="#459AE9"/>
<path opacity="0.5" d="M127.374 94.0404C127.343 94.4535 127.215 94.8535 127.002 95.2083C126.788 95.5632 126.494 95.8629 126.144 96.0834L78.9566 123.326C78.5778 123.53 78.1534 123.633 77.7236 123.626V120.965C78.1534 120.972 78.5778 120.868 78.9566 120.665L126.144 93.4044C126.777 93.0354 126.819 92.4594 126.267 92.0634C126.586 92.2907 126.85 92.5859 127.042 92.9277C127.233 93.2696 127.347 93.6496 127.374 94.0404Z" fill="black"/>
</svg>
