<svg width="151" height="150" viewBox="0 0 151 150" fill="none" xmlns="http://www.w3.org/2000/svg">
<path d="M75.5003 144.924C113.258 144.924 143.867 127.252 143.867 105.453C143.867 83.6538 113.258 65.982 75.5003 65.982C37.7423 65.982 7.1333 83.6538 7.1333 105.453C7.1333 127.252 37.7423 144.924 75.5003 144.924Z" fill="#FAFAFA"/>
<path d="M122.147 135.411C133.497 135.411 142.697 130.099 142.697 123.546C142.697 116.993 133.497 111.681 122.147 111.681C110.798 111.681 101.597 116.993 101.597 123.546C101.597 130.099 110.798 135.411 122.147 135.411Z" fill="#EBEBEB"/>
<path d="M38.9571 142.566L16.6281 129.666C15.9651 129.285 15.9651 128.664 16.6281 128.283L72.6741 95.931C73.0461 95.7426 73.4572 95.6443 73.8741 95.6443C74.2911 95.6443 74.7022 95.7426 75.0741 95.931L97.4031 108.831C98.0661 109.215 98.0661 109.833 97.4031 110.214L41.3541 142.566C40.9826 142.754 40.572 142.852 40.1556 142.852C39.7392 142.852 39.3287 142.754 38.9571 142.566Z" fill="#EBEBEB"/>
<path d="M68.2042 95.931L8.83418 127.665C8.15618 128.058 8.15618 128.694 8.83418 129.084L13.3702 131.7C13.7505 131.894 14.1716 131.996 14.5987 131.996C15.0258 131.996 15.4468 131.894 15.8272 131.7L75.2002 99.969C75.8782 99.576 75.8782 98.943 75.2002 98.55L70.6642 95.931C70.2835 95.7362 69.8619 95.6346 69.4342 95.6346C69.0065 95.6346 68.5849 95.7362 68.2042 95.931Z" fill="#EBEBEB"/>
<path d="M87.7551 27.309L88.2651 27.615L98.7531 21.558L98.2401 21.255L87.7551 27.309Z" fill="#FAFAFA"/>
<path d="M98.2401 21.255L88.2651 27.012V16.566L98.2431 10.812L98.2401 21.255Z" fill="white"/>
<path d="M99.7162 8.841L87.3022 16.008V29.283L99.7162 22.116V8.841ZM98.7533 21.558L88.2533 27.615V16.566L98.7533 10.512V21.558Z" fill="#F0F0F0"/>
<path d="M98.7532 21.558L98.2402 21.255L98.2432 10.812L98.7532 10.512V21.558Z" fill="#E0E0E0"/>
<path d="M99.7162 8.84101L99.1972 8.54401L86.7832 15.714L87.3022 16.011L99.7162 8.84101Z" fill="#FAFAFA"/>
<path d="M86.7832 15.714L87.3022 16.011V29.283L86.7832 28.986V15.714Z" fill="#E0E0E0"/>
<path d="M97.8533 20.943L88.6553 26.253V23.598L90.9533 18.288L92.3873 19.614L91.8713 21.84L95.0483 15.048L97.8533 18.288V20.943Z" fill="#F0F0F0"/>
<path d="M92.3004 15.723C92.1019 15.8519 91.9368 16.0259 91.8184 16.2308C91.7 16.4357 91.6319 16.6657 91.6194 16.902C91.6194 17.334 91.9194 17.502 92.3004 17.295C92.4988 17.1662 92.664 16.9922 92.7824 16.7873C92.9007 16.5824 92.9689 16.3523 92.9814 16.116C92.9814 15.681 92.6754 15.507 92.3004 15.723Z" fill="#F0F0F0"/>
<path d="M87.7551 43.626L88.2651 43.932L98.7531 37.875L98.2401 37.572L87.7551 43.626Z" fill="#FAFAFA"/>
<path d="M98.2401 37.572L88.2651 43.329V32.883L98.2431 27.129L98.2401 37.572Z" fill="white"/>
<path d="M99.7162 25.158L87.3022 32.325V45.6L99.7162 38.433V25.158ZM98.7533 37.875L88.2533 43.929V32.883L98.7533 26.829V37.875Z" fill="#F0F0F0"/>
<path d="M98.7532 37.875L98.2402 37.572L98.2432 27.129L98.7532 26.829V37.875Z" fill="#E0E0E0"/>
<path d="M99.7162 25.158L99.1972 24.861L86.7832 32.028L87.3022 32.325L99.7162 25.158Z" fill="#FAFAFA"/>
<path d="M86.7832 32.028L87.3022 32.325V45.6L86.7832 45.303V32.028Z" fill="#E0E0E0"/>
<path d="M97.8533 37.26L88.6553 42.57V39.9151L90.9533 34.605L92.3873 35.931L91.8713 38.1571L95.0483 31.3651L97.8533 34.605V37.26Z" fill="#F0F0F0"/>
<path d="M92.3004 32.0401C92.1019 32.1689 91.9368 32.3429 91.8184 32.5478C91.7 32.7527 91.6319 32.9828 91.6194 33.2191C91.6194 33.6511 91.9194 33.8191 92.3004 33.6121C92.4988 33.4832 92.664 33.3092 92.7824 33.1043C92.9007 32.8994 92.9689 32.6694 92.9814 32.4331C92.9814 31.9981 92.6754 31.8241 92.3004 32.0401Z" fill="#F0F0F0"/>
<path d="M87.9383 107.859C87.9383 107.859 86.4383 101.361 89.7383 95.019C91.5833 91.476 95.0903 89.553 96.8963 89.427C98.9213 89.289 100.874 91.119 98.9423 93.441C97.1033 95.649 93.7673 96.498 91.4813 102.303C89.9813 106.131 89.9963 108.996 89.9963 108.996L87.9383 107.859Z" fill="#459AE9"/>
<path opacity="0.5" d="M87.9383 107.859C87.9383 107.859 86.4383 101.361 89.7383 95.019C91.5833 91.476 95.0903 89.553 96.8963 89.427C98.9213 89.289 100.874 91.119 98.9423 93.441C97.1033 95.649 93.7673 96.498 91.4813 102.303C89.9813 106.131 89.9963 108.996 89.9963 108.996L87.9383 107.859Z" fill="white"/>
<path d="M89.2552 106.23C89.2702 106.231 89.2852 106.229 89.2993 106.224C89.3135 106.219 89.3265 106.211 89.3376 106.201C89.3488 106.191 89.3578 106.179 89.3643 106.165C89.3707 106.152 89.3745 106.137 89.3752 106.122C88.9492 98.964 93.6262 93.069 97.0822 91.167C97.0953 91.1622 97.1071 91.1542 97.1165 91.1438C97.1259 91.1334 97.1326 91.121 97.1362 91.1074C97.1397 91.0939 97.1399 91.0797 97.1368 91.066C97.1337 91.0524 97.1273 91.0397 97.1182 91.029C97.0963 91.0059 97.0673 90.9907 97.0358 90.9858C97.0043 90.9809 96.9721 90.9866 96.9442 91.002C93.4372 92.931 88.6912 98.901 89.1232 106.137C89.1254 106.152 89.1306 106.166 89.1385 106.179C89.1464 106.192 89.1568 106.203 89.1692 106.212C89.1815 106.221 89.1955 106.227 89.2103 106.23C89.2251 106.233 89.2404 106.233 89.2552 106.23Z" fill="white"/>
<path d="M89.9872 108.996C90.3892 107.358 91.6462 105.378 94.1872 103.635C96.7282 101.892 100.187 100.335 99.8062 98.721C99.4252 97.107 96.7552 97.08 94.8352 97.911C92.9152 98.742 88.4692 102.564 88.9102 108.411L89.9872 108.996Z" fill="#459AE9"/>
<path opacity="0.65" d="M89.9872 108.996C90.3892 107.358 91.6462 105.378 94.1872 103.635C96.7282 101.892 100.187 100.335 99.8062 98.721C99.4252 97.107 96.7552 97.08 94.8352 97.911C92.9152 98.742 88.4692 102.564 88.9102 108.411L89.9872 108.996Z" fill="white"/>
<path d="M89.6004 106.833C89.6274 106.833 89.6537 106.824 89.6753 106.808C89.6969 106.792 89.7127 106.769 89.7204 106.743C90.2994 103.278 95.5974 99.036 97.9554 98.421C97.9697 98.4194 97.9835 98.4147 97.9959 98.4072C98.0082 98.3996 98.0187 98.3895 98.0267 98.3775C98.0347 98.3655 98.04 98.3519 98.0422 98.3377C98.0444 98.3234 98.0434 98.3089 98.0394 98.295C98.0257 98.2671 98.0022 98.2453 97.9735 98.2337C97.9447 98.222 97.9126 98.2214 97.8834 98.232C95.4114 98.877 90.0834 103.119 89.4834 106.722C89.4834 106.776 89.5254 106.827 89.5944 106.833H89.6004Z" fill="white"/>
<path d="M11.7742 128.589C11.7884 128.431 11.8427 128.279 11.9319 128.148C12.0211 128.017 12.1424 127.91 12.2842 127.839L62.9662 95.979V49.353L69.2512 41.577C70.3303 40.1065 70.956 38.3525 71.0512 36.531V10.257C71.0512 8.68801 69.9712 8.08801 68.6512 8.91601L12.2842 43.938C12.1424 44.0093 12.0211 44.1156 11.9319 44.2469C11.8427 44.3781 11.7884 44.5299 11.7742 44.688V128.589Z" fill="#459AE9"/>
<path opacity="0.3" d="M67.5711 17.262C67.5711 15.693 66.4581 15.039 65.0871 15.798L13.4871 44.355C12.9661 44.6158 12.3756 44.7041 11.8011 44.607C11.7997 44.634 11.7997 44.661 11.8011 44.688V128.508C11.8291 128.366 11.8883 128.233 11.9745 128.117C12.0606 128.001 12.1716 127.906 12.2991 127.839L62.9811 95.979V49.353L67.5861 43.653L67.5711 17.262Z" fill="black"/>
<path d="M12.2362 129.258C12.6107 129.44 13.0223 129.532 13.4386 129.529C13.855 129.525 14.2648 129.425 14.6362 129.237L66.2362 100.68C67.6102 99.921 68.7202 98.034 68.7202 96.48V18.243C68.7202 16.677 67.6102 16.02 66.2362 16.779L14.6362 45.336C14.2651 45.5248 13.8553 45.6252 13.439 45.6293C13.0226 45.6335 12.611 45.5413 12.2362 45.36C12.1077 45.3006 11.9973 45.2082 11.9162 45.0923C11.835 44.9764 11.786 44.841 11.7742 44.7V128.589C11.7838 128.732 11.8319 128.869 11.9132 128.987C11.9945 129.105 12.1061 129.198 12.2362 129.258Z" fill="#459AE9"/>
<path opacity="0.3" d="M12.2362 129.258C12.6107 129.44 13.0223 129.532 13.4386 129.529C13.855 129.525 14.2648 129.425 14.6362 129.237L66.2362 100.68C67.6102 99.921 68.7202 98.034 68.7202 96.48V18.243C68.7202 16.677 67.6102 16.02 66.2362 16.779L14.6362 45.336C14.2651 45.5248 13.8553 45.6252 13.439 45.6293C13.0226 45.6335 12.611 45.5413 12.2362 45.36C12.1077 45.3006 11.9973 45.2082 11.9162 45.0923C11.835 44.9764 11.786 44.841 11.7742 44.7V128.589C11.7838 128.732 11.8319 128.869 11.9132 128.987C11.9945 129.105 12.1061 129.198 12.2362 129.258Z" fill="white"/>
<path opacity="0.3" d="M13.4002 45.627C12.9987 45.6376 12.6012 45.5457 12.2452 45.36C12.115 45.3019 12.0028 45.21 11.92 45.094C11.8372 44.978 11.7869 44.842 11.7742 44.7V128.589C11.7838 128.732 11.8319 128.869 11.9132 128.987C11.9945 129.105 12.1061 129.198 12.2362 129.258C12.592 129.445 12.9895 129.538 13.3912 129.528L13.4002 45.627Z" fill="white"/>
<path d="M20.3001 44.67C20.2813 44.67 20.2627 44.6737 20.2454 44.681C20.2281 44.6883 20.2124 44.6989 20.1993 44.7123C20.1862 44.7258 20.1759 44.7417 20.169 44.7591C20.162 44.7766 20.1587 44.7952 20.1591 44.814V123.357C20.1591 123.397 20.1749 123.435 20.203 123.463C20.2312 123.491 20.2693 123.507 20.3091 123.507C20.3489 123.507 20.387 123.491 20.4152 123.463C20.4433 123.435 20.4591 123.397 20.4591 123.357V44.814C20.4597 44.7936 20.4559 44.7733 20.4479 44.7546C20.4399 44.7358 20.4279 44.719 20.4128 44.7053C20.3977 44.6916 20.3798 44.6814 20.3603 44.6753C20.3409 44.6692 20.3203 44.6674 20.3001 44.67ZM15.6891 47.334C15.6517 47.334 15.6158 47.3488 15.5894 47.3753C15.563 47.4017 15.5481 47.4376 15.5481 47.475V126.021C15.5481 126.058 15.563 126.094 15.5894 126.121C15.6158 126.147 15.6517 126.162 15.6891 126.162C15.7265 126.162 15.7624 126.147 15.7888 126.121C15.8152 126.094 15.8301 126.058 15.8301 126.021V47.475C15.8301 47.4386 15.8161 47.4036 15.7909 47.3773C15.7658 47.3511 15.7314 47.3355 15.6951 47.334H15.6891ZM17.9961 46.002C17.9584 46.002 17.9222 46.0167 17.8953 46.0431C17.8684 46.0695 17.8529 46.1053 17.8521 46.143V124.689C17.8529 124.727 17.8684 124.763 17.8953 124.789C17.9222 124.815 17.9584 124.83 17.9961 124.83C18.0335 124.83 18.0694 124.815 18.0958 124.789C18.1222 124.762 18.1371 124.726 18.1371 124.689V46.143C18.1371 46.1066 18.1231 46.0716 18.0979 46.0453C18.0728 46.0191 18.0384 46.0035 18.0021 46.002H17.9961Z" fill="#459AE9"/>
<path d="M25.0822 49.182L23.8972 48.498L77.1562 17.748L78.3442 18.432L25.0822 49.182Z" fill="#F0F0F0"/>
<path d="M78.3443 18.432V100.23L25.0613 130.992L25.0823 49.182L78.3443 18.432Z" fill="#FAFAFA"/>
<path d="M78.0593 18.921V100.068L25.3463 130.5L25.3673 49.344L78.0593 18.921ZM78.3593 18.432L25.0823 49.182L25.0613 130.992L78.3443 100.23V18.432H78.3593Z" fill="#EBEBEB"/>
<path d="M25.0822 49.182L25.0612 130.992L23.9092 130.326L23.8972 48.498L25.0612 49.167L25.0822 49.182Z" fill="#E0E0E0"/>
<path d="M93.2541 107.526V108.9L39.9921 139.644L39.3921 139.305C35.7985 137.221 32.8146 134.23 30.7384 130.632C28.6622 127.034 27.5662 122.954 27.5601 118.8V55.329L80.8191 24.579L82.0191 25.263V88.047C82.0187 91.994 83.0566 95.8716 85.0286 99.2907C87.0007 102.71 89.8374 105.55 93.2541 107.526Z" fill="#F0F0F0"/>
<path d="M82.007 88.047V25.263L28.748 56.013V118.8C28.7486 122.748 29.7879 126.626 31.7615 130.045C33.7352 133.464 36.5737 136.304 39.992 138.279L93.254 107.529C89.8347 105.554 86.9953 102.714 85.0211 99.2945C83.0469 95.8747 82.0074 91.9957 82.007 88.047ZM29 118.8V56.163L81.743 25.716V88.047C81.7496 91.9638 82.7643 95.8129 84.6895 99.224C86.6146 102.635 89.3854 105.493 92.7351 107.523L39.992 137.973C36.6515 136.008 33.8809 133.206 31.9533 129.844C30.0258 126.482 29.0079 122.676 29 118.8Z" fill="#E0E0E0"/>
<path d="M92.7352 107.523L39.9922 137.973C36.6517 136.008 33.8811 133.206 31.9535 129.844C30.026 126.482 29.0081 122.676 29.0002 118.8V56.163L81.7432 25.716V88.047C81.7498 91.9638 82.7645 95.813 84.6897 99.224C86.6148 102.635 89.3856 105.493 92.7352 107.523Z" fill="#FAFAFA"/>
<path d="M28.7452 118.8V56.013L27.5452 55.329V118.8C27.5514 122.955 28.648 127.036 30.7254 130.635C32.8027 134.234 35.7881 137.224 39.3832 139.308L39.9832 139.647V138.279C36.5659 136.303 33.7286 133.463 31.756 130.044C29.7835 126.625 28.7451 122.747 28.7452 118.8Z" fill="#E0E0E0"/>
<path opacity="0.15" d="M39.9922 138.276V139.644L93.2572 108.897V107.526L39.9922 138.276Z" fill="black"/>
<path d="M65.4111 41.841L78.1221 34.5C78.4221 34.32 78.6891 34.449 78.6891 34.8C78.675 34.9905 78.6164 35.175 78.5179 35.3386C78.4194 35.5023 78.2838 35.6404 78.1221 35.742L65.4111 43.083C65.0961 43.263 64.8411 43.134 64.8411 42.783C64.854 42.5919 64.9125 42.4067 65.0117 42.2428C65.1108 42.0789 65.2478 41.9411 65.4111 41.841Z" fill="#E0E0E0"/>
<path d="M65.4111 46.761L78.1221 39.42C78.4221 39.24 78.6891 39.369 78.6891 39.72C78.675 39.9105 78.6164 40.095 78.5179 40.2586C78.4194 40.4222 78.2838 40.5604 78.1221 40.662L65.4111 48C65.0961 48.18 64.8411 48.051 64.8411 47.7C64.8545 47.5094 64.9132 47.3248 65.0123 47.1614C65.1115 46.9981 65.2482 46.8608 65.4111 46.761Z" fill="#E0E0E0"/>
<path d="M70.1691 41.553L78.1221 36.96C78.4221 36.78 78.6891 36.909 78.6891 37.26C78.6751 37.4505 78.6165 37.635 78.518 37.7986C78.4195 37.9623 78.2839 38.1005 78.1221 38.202L70.1691 42.795C69.8691 42.975 69.5991 42.846 69.5991 42.495C69.6121 42.3039 69.6705 42.1187 69.7697 41.9548C69.8689 41.7909 70.0058 41.6531 70.1691 41.553Z" fill="#E0E0E0"/>
<path d="M35.0152 73.935L76.5592 49.95C76.8742 49.77 77.1262 49.899 77.1262 50.25C77.1136 50.4408 77.0556 50.6259 76.957 50.7897C76.8583 50.9536 76.722 51.0915 76.5592 51.192L35.0152 75.192C34.7152 75.375 34.4482 75.246 34.4482 74.892C34.4604 74.699 34.5182 74.5117 34.6167 74.3453C34.7153 74.179 34.8519 74.0383 35.0152 73.935Z" fill="#E0E0E0"/>
<path d="M35.0152 76.395L76.5592 52.395C76.8742 52.215 77.1262 52.344 77.1262 52.695C77.1136 52.8858 77.0556 53.0709 76.957 53.2347C76.8583 53.3986 76.722 53.5365 76.5592 53.637L35.0152 77.625C34.7152 77.808 34.4482 77.679 34.4482 77.325C34.4645 77.1367 34.5242 76.9548 34.6226 76.7934C34.721 76.6321 34.8554 76.4957 35.0152 76.395Z" fill="#E0E0E0"/>
<path d="M35.0152 78.855L76.5592 54.855C76.8742 54.675 77.1262 54.804 77.1262 55.155C77.1136 55.3458 77.0556 55.5309 76.957 55.6947C76.8583 55.8586 76.722 55.9965 76.5592 56.097L35.0152 80.1C34.7152 80.283 34.4482 80.154 34.4482 79.8C34.4623 79.6091 34.5209 79.4242 34.6194 79.2601C34.7178 79.0959 34.8534 78.9572 35.0152 78.855Z" fill="#E0E0E0"/>
<path d="M35.0152 81.3149L76.5592 57.3149C76.8742 57.1349 77.1262 57.2639 77.1262 57.6149C77.1136 57.8058 77.0556 57.9908 76.957 58.1547C76.8583 58.3186 76.722 58.4565 76.5592 58.5569L35.0152 82.5449C34.7152 82.7279 34.4482 82.5989 34.4482 82.2449C34.4641 82.0566 34.5236 81.8744 34.622 81.713C34.7204 81.5516 34.855 81.4153 35.0152 81.3149Z" fill="#E0E0E0"/>
<path d="M35.0152 86.283L76.5592 62.283C76.8742 62.1 77.1262 62.229 77.1262 62.583C77.1129 62.774 77.0546 62.9592 76.956 63.1235C76.8575 63.2877 76.7215 63.4263 76.5592 63.528L35.0152 87.513C34.7152 87.693 34.4482 87.564 34.4482 87.213C34.4641 87.0246 34.5236 86.8425 34.622 86.6811C34.7204 86.5196 34.855 86.3834 35.0152 86.283Z" fill="#E0E0E0"/>
<path d="M35.0152 88.743L76.5592 64.758C76.8742 64.575 77.1262 64.704 77.1262 65.043C77.1129 65.234 77.0546 65.4192 76.956 65.5834C76.8575 65.7477 76.7215 65.8863 76.5592 65.988L35.0152 89.988C34.7152 90.168 34.4482 90.039 34.4482 89.688C34.4618 89.497 34.5202 89.3119 34.6187 89.1477C34.7173 88.9835 34.8531 88.8448 35.0152 88.743Z" fill="#E0E0E0"/>
<path d="M35.0152 91.2L76.5592 67.218C76.8742 67.035 77.1262 67.164 77.1262 67.503C77.1129 67.694 77.0546 67.8792 76.956 68.0435C76.8575 68.2077 76.7215 68.3463 76.5592 68.448L35.0152 92.43C34.7152 92.613 34.4482 92.484 34.4482 92.13C34.465 91.9418 34.5249 91.7601 34.6232 91.5988C34.7215 91.4375 34.8557 91.3011 35.0152 91.2Z" fill="#E0E0E0"/>
<path d="M35.0152 93.66L76.5592 69.678C76.8742 69.495 77.1262 69.624 77.1262 69.978C77.1129 70.1691 77.0546 70.3543 76.956 70.5185C76.8575 70.6827 76.7215 70.8213 76.5592 70.923L35.0152 94.89C34.7152 95.073 34.4482 94.944 34.4482 94.605C34.4627 94.4142 34.5216 94.2295 34.62 94.0654C34.7184 93.9014 34.8538 93.7626 35.0152 93.66Z" fill="#E0E0E0"/>
<path d="M35.0152 98.628L76.5592 74.643C76.8742 74.463 77.1262 74.589 77.1262 74.943C77.1136 75.1338 77.0556 75.3189 76.957 75.4827C76.8583 75.6466 76.722 75.7845 76.5592 75.885L35.0152 99.885C34.7152 100.065 34.4482 99.936 34.4482 99.585C34.46 99.3919 34.5175 99.2044 34.6161 99.038C34.7147 98.8716 34.8515 98.731 35.0152 98.628Z" fill="#E0E0E0"/>
<path d="M35.0152 101.1L76.5592 77.0999C76.8742 76.9199 77.1262 77.0459 77.1262 77.3999C77.1136 77.5908 77.0556 77.7758 76.957 77.9397C76.8583 78.1036 76.722 78.2415 76.5592 78.342L35.0152 102.318C34.7152 102.498 34.4482 102.369 34.4482 102.018C34.4659 101.832 34.5262 101.652 34.6245 101.493C34.7229 101.334 34.8566 101.199 35.0152 101.1Z" fill="#E0E0E0"/>
<path d="M35.0152 103.548L57.2812 90.684C57.5812 90.504 57.8482 90.633 57.8482 90.984C57.8342 91.1744 57.7756 91.3589 57.6771 91.5226C57.5786 91.6862 57.443 91.8244 57.2812 91.926L35.0152 104.79C34.7152 104.97 34.4482 104.841 34.4482 104.49C34.4623 104.299 34.5209 104.115 34.6194 103.951C34.7179 103.788 34.8535 103.65 35.0152 103.548Z" fill="#E0E0E0"/>
<path d="M35.0152 107.919L49.8082 99.366C50.1082 99.186 50.3752 99.312 50.3752 99.666C50.3626 99.8568 50.3046 100.042 50.206 100.206C50.1073 100.37 49.971 100.508 49.8082 100.608L35.0152 109.161C34.7152 109.341 34.4482 109.212 34.4482 108.861C34.4623 108.671 34.5209 108.486 34.6194 108.322C34.7179 108.159 34.8535 108.021 35.0152 107.919Z" fill="#459AE9"/>
<path d="M37.7001 65.466C37.7034 65.408 37.7198 65.3516 37.7481 65.301C37.7672 65.2629 37.7962 65.2308 37.8321 65.208L38.2011 64.992C38.2141 64.9822 38.2299 64.977 38.2461 64.977C38.2624 64.977 38.2781 64.9822 38.2911 64.992C38.305 65.0078 38.3152 65.0265 38.3209 65.0467C38.3266 65.067 38.3277 65.0883 38.3241 65.109C38.3135 65.3215 38.2824 65.5325 38.2311 65.739C38.1746 65.9673 38.0931 66.1886 37.9881 66.399C37.8748 66.6212 37.7348 66.8287 37.5711 67.017C37.4017 67.2167 37.1987 67.3853 36.9711 67.515C36.8052 67.6223 36.6136 67.6834 36.4161 67.692C36.2635 67.6922 36.1165 67.6343 36.0051 67.53C35.8784 67.4009 35.7884 67.2404 35.7441 67.065C35.6755 66.8329 35.6371 66.5929 35.6301 66.351C35.6301 66.177 35.6301 65.977 35.6301 65.751C35.6301 65.525 35.6301 65.325 35.6301 65.151C35.642 64.8671 35.6802 64.5849 35.7441 64.308C35.8007 64.0426 35.8883 63.7849 36.0051 63.54C36.1133 63.3107 36.2515 63.0968 36.4161 62.904C36.5728 62.718 36.7606 62.5607 36.9711 62.439C37.1505 62.3211 37.357 62.2509 37.5711 62.235C37.7293 62.2368 37.8815 62.2954 38.0001 62.4C38.1151 62.5018 38.1993 62.6338 38.2431 62.781C38.2971 62.9491 38.3284 63.1236 38.3361 63.3C38.3394 63.354 38.328 63.4079 38.3031 63.456C38.2838 63.4989 38.2526 63.5353 38.2131 63.561L37.8441 63.774C37.831 63.7819 37.816 63.7861 37.8006 63.7861C37.7853 63.7861 37.7702 63.7819 37.7571 63.774C37.7407 63.7615 37.7277 63.745 37.7193 63.7261C37.7109 63.7073 37.7074 63.6866 37.7091 63.666C37.6998 63.584 37.6775 63.504 37.6431 63.429C37.6143 63.3634 37.5675 63.3072 37.5081 63.267C37.4416 63.2295 37.365 63.2138 37.2891 63.222C37.1821 63.238 37.0798 63.2769 36.9891 63.336C36.8743 63.4044 36.7727 63.4928 36.6891 63.597C36.6 63.7048 36.5253 63.8238 36.4671 63.951C36.4053 64.084 36.36 64.224 36.3321 64.368C36.2999 64.514 36.2808 64.6626 36.2751 64.812C36.2751 64.995 36.2751 65.193 36.2751 65.412C36.2751 65.631 36.2751 65.823 36.2751 65.997C36.2782 66.1269 36.2973 66.2558 36.3321 66.381C36.354 66.4764 36.4005 66.5643 36.4671 66.636C36.5263 66.6949 36.6056 66.7292 36.6891 66.732C36.7958 66.7292 36.8996 66.697 36.9891 66.639C37.1 66.5712 37.2009 66.4884 37.2891 66.393C37.3738 66.302 37.4473 66.2013 37.5081 66.093C37.5669 65.9915 37.6142 65.8839 37.6491 65.772C37.6765 65.672 37.6935 65.5695 37.7001 65.466Z" fill="#459AE9"/>
<path d="M38.7471 63.336C38.7568 63.0678 38.7889 62.8009 38.8431 62.538C38.8984 62.2806 38.9819 62.0301 39.0921 61.791C39.2005 61.56 39.3387 61.3442 39.5031 61.149C39.6717 60.9508 39.875 60.7851 40.1031 60.66C40.2752 60.5456 40.4756 60.4812 40.6821 60.474C40.7579 60.4737 40.8329 60.4883 40.9029 60.5172C40.973 60.546 41.0366 60.5884 41.0901 60.642C41.2114 60.7713 41.2981 60.9292 41.3421 61.101C41.403 61.3251 41.4363 61.5558 41.4411 61.788C41.4411 61.875 41.4411 61.971 41.4411 62.088C41.4411 62.205 41.4411 62.307 41.4411 62.421C41.4411 62.535 41.4411 62.646 41.4411 62.754C41.4411 62.862 41.4411 62.964 41.4411 63.054C41.433 63.3223 41.4009 63.5894 41.3451 63.852C41.2898 64.1094 41.2063 64.3599 41.0961 64.599C40.9889 64.8313 40.8495 65.0474 40.6821 65.241C40.5185 65.4343 40.3226 65.5977 40.1031 65.724C39.9239 65.8402 39.7165 65.9055 39.5031 65.913C39.3501 65.9124 39.2031 65.8534 39.0921 65.748C38.9717 65.6173 38.886 65.4585 38.8431 65.286C38.7849 65.0625 38.7527 64.8329 38.7471 64.602C38.7471 64.515 38.7471 64.419 38.7471 64.302V63.636C38.7411 63.528 38.7441 63.426 38.7471 63.336ZM40.8111 62.178C40.8214 62.0596 40.8082 61.9403 40.7721 61.827C40.7361 61.7137 40.678 61.6087 40.6011 61.518C40.4691 61.407 40.3011 61.413 40.0881 61.536C39.8632 61.6722 39.6845 61.8729 39.5751 62.112C39.4404 62.3933 39.3678 62.7002 39.3621 63.012C39.3621 63.195 39.3621 63.393 39.3621 63.612C39.3621 63.831 39.3621 64.026 39.3621 64.212C39.3526 64.3301 39.3665 64.449 39.4031 64.5617C39.4396 64.6745 39.4981 64.7789 39.5751 64.869C39.7041 64.977 39.8751 64.968 40.0881 64.845C40.3114 64.7095 40.4898 64.5113 40.6011 64.275C40.7359 63.9939 40.8075 63.6867 40.8111 63.375C40.8111 63.192 40.8111 62.994 40.8111 62.775C40.8111 62.556 40.8171 62.352 40.8111 62.178Z" fill="#459AE9"/>
<path d="M44.0993 63.327C44.0483 63.357 44.0093 63.36 43.9823 63.327L43.9223 63.264L42.6443 61.08V63.972C42.6434 64.0259 42.6312 64.0791 42.6083 64.128C42.5908 64.1711 42.5604 64.2078 42.5213 64.233L42.1523 64.446C42.1402 64.4565 42.1248 64.4623 42.1088 64.4623C42.0928 64.4623 42.0773 64.4565 42.0653 64.446C42.0519 64.4303 42.0419 64.4122 42.0357 64.3926C42.0295 64.373 42.0273 64.3524 42.0293 64.332V59.799C42.0297 59.745 42.042 59.6917 42.0653 59.643C42.0827 59.5998 42.1131 59.5631 42.1523 59.538L42.4733 59.352C42.5243 59.322 42.5633 59.322 42.5903 59.352L42.6503 59.418L43.9253 61.602V58.71C43.9264 58.6557 43.9398 58.6024 43.9643 58.554C43.9806 58.5101 44.0112 58.4731 44.0513 58.449L44.4203 58.236C44.4315 58.225 44.4466 58.2188 44.4623 58.2188C44.478 58.2188 44.493 58.225 44.5043 58.236C44.5187 58.2503 44.5297 58.2678 44.5365 58.287C44.5432 58.3062 44.5456 58.3267 44.5433 58.347V62.883C44.5432 62.9364 44.5298 62.989 44.5043 63.036C44.4878 63.0796 44.4585 63.1173 44.4203 63.144L44.0993 63.327Z" fill="#459AE9"/>
<path d="M47.3782 56.52C47.3903 56.5094 47.4057 56.5036 47.4217 56.5036C47.4377 56.5036 47.4532 56.5094 47.4652 56.52C47.4783 56.5351 47.4883 56.5528 47.4945 56.5718C47.5007 56.5909 47.503 56.611 47.5012 56.631V57.132C47.5007 57.185 47.4885 57.2373 47.4652 57.285C47.4469 57.3284 47.4168 57.3658 47.3782 57.393L46.5592 57.867V61.713C46.5588 61.7673 46.5454 61.8208 46.5202 61.869C46.503 61.9122 46.4725 61.949 46.4332 61.974L46.0642 62.187C46.0527 62.1973 46.0377 62.203 46.0222 62.203C46.0067 62.203 45.9918 62.1973 45.9802 62.187C45.9657 62.172 45.9547 62.154 45.9479 62.1343C45.9412 62.1146 45.9389 62.0937 45.9412 62.073V58.227L45.1222 58.701C45.1102 58.7115 45.0947 58.7173 45.0787 58.7173C45.0627 58.7173 45.0473 58.7115 45.0352 58.701C45.0219 58.6853 45.0118 58.6672 45.0056 58.6476C44.9995 58.628 44.9973 58.6074 44.9992 58.587V58.089C44.9997 58.0359 45.012 57.9837 45.0352 57.936C45.0536 57.8925 45.0837 57.8551 45.1222 57.828L47.3782 56.52Z" fill="#459AE9"/>
<path d="M49.2562 55.434C49.6372 55.215 49.9252 55.185 50.1232 55.341C50.3212 55.497 50.4232 55.821 50.4232 56.301C50.4256 56.6282 50.3739 56.9536 50.2702 57.264C50.1725 57.5553 50.0198 57.8252 49.8202 58.059L50.4502 59.43C50.4542 59.4528 50.4542 59.4761 50.4502 59.499C50.4495 59.5426 50.4393 59.5856 50.4202 59.625C50.4053 59.6604 50.3803 59.6907 50.3482 59.7119L49.9612 59.9369C49.9012 59.9729 49.8562 59.9729 49.8262 59.9369C49.8 59.9128 49.7795 59.883 49.7662 59.85L49.1662 58.5599L48.5662 58.9109V60.546C48.5654 60.5999 48.5532 60.6531 48.5302 60.7019C48.5128 60.7451 48.4824 60.7818 48.4432 60.807L48.0742 61.0199C48.0625 61.0311 48.0469 61.0374 48.0307 61.0374C48.0145 61.0374 47.999 61.0311 47.9872 61.0199C47.9741 61.0048 47.9642 60.9872 47.958 60.9681C47.9518 60.949 47.9495 60.9289 47.9512 60.909V56.376C47.9517 56.3219 47.964 56.2687 47.9872 56.2199C48.0047 56.1768 48.0351 56.1401 48.0742 56.115L49.2562 55.434ZM48.5722 58.041L49.2352 57.6599C49.402 57.5682 49.544 57.4375 49.6492 57.2789C49.7626 57.0924 49.817 56.8759 49.8052 56.658C49.8052 56.394 49.7542 56.2499 49.6492 56.2199C49.5028 56.2 49.3544 56.2376 49.2352 56.325L48.5722 56.7V58.041Z" fill="#459AE9"/>
<path d="M52.5142 53.556C52.5622 53.526 52.5982 53.526 52.6222 53.556C52.6541 53.5977 52.6766 53.6458 52.6882 53.697L53.8042 57.489C53.8062 57.5049 53.8062 57.5211 53.8042 57.537C53.8027 57.5903 53.7893 57.6425 53.7652 57.69C53.7479 57.7341 53.7176 57.7718 53.6782 57.798L53.3512 57.987C53.2912 58.02 53.2462 58.026 53.2222 57.987C53.1988 57.9627 53.1823 57.9327 53.1742 57.9L52.9762 57.234L51.5362 58.068L51.3412 58.968C51.3295 59.0177 51.3124 59.066 51.2902 59.112C51.2626 59.1696 51.2174 59.2169 51.1612 59.247L50.8342 59.436C50.8225 59.4472 50.8069 59.4534 50.7907 59.4534C50.7745 59.4534 50.7589 59.4472 50.7472 59.436C50.7341 59.4208 50.7241 59.4032 50.7179 59.3842C50.7118 59.3651 50.7095 59.345 50.7112 59.325C50.7096 59.307 50.7096 59.289 50.7112 59.271L51.8302 54.189C51.8434 54.115 51.8645 54.0426 51.8932 53.973C51.9158 53.921 51.9548 53.8779 52.0042 53.85L52.5142 53.556ZM52.7632 56.493L52.2622 54.78L51.7612 57.072L52.7632 56.493Z" fill="#459AE9"/>
<path d="M56.1203 54.828C56.1258 54.7705 56.1421 54.7145 56.1683 54.663C56.1882 54.6255 56.217 54.5936 56.2523 54.57L56.6213 54.357C56.6342 54.3472 56.65 54.342 56.6663 54.342C56.6825 54.342 56.6983 54.3472 56.7113 54.357C56.7257 54.3725 56.7364 54.3911 56.7426 54.4114C56.7489 54.4316 56.7504 54.453 56.7473 54.474C56.7341 54.6864 56.702 54.8973 56.6513 55.104C56.5971 55.333 56.5155 55.5546 56.4083 55.764C56.2979 55.9914 56.1609 56.2048 56.0003 56.4C55.8292 56.598 55.6264 56.7663 55.4003 56.898C55.2343 57.0053 55.0427 57.0664 54.8453 57.075C54.6922 57.0744 54.5452 57.0154 54.4343 56.91C54.309 56.7809 54.2191 56.6218 54.1733 56.448C54.1061 56.2156 54.0688 55.9757 54.0623 55.734C54.0623 55.557 54.0623 55.365 54.0623 55.149C54.0623 54.933 54.0623 54.735 54.0623 54.549C54.0733 54.2652 54.1105 53.983 54.1733 53.706C54.233 53.4425 54.3205 53.1861 54.4343 52.941C54.5436 52.7114 54.6817 52.4967 54.8453 52.302C55.0029 52.1178 55.1905 51.9616 55.4003 51.84C55.579 51.7207 55.7859 51.6504 56.0003 51.636C56.15 51.6332 56.2961 51.6819 56.4143 51.774C56.5302 51.8762 56.6146 52.0094 56.6573 52.158C56.7113 52.3262 56.7436 52.5006 56.7533 52.677C56.7546 52.7312 56.7422 52.7849 56.7173 52.833C56.698 52.8751 56.6667 52.9106 56.6273 52.935L56.2583 53.151C56.2449 53.1583 56.23 53.1622 56.2148 53.1622C56.1995 53.1622 56.1846 53.1583 56.1713 53.151C56.1443 53.151 56.1293 53.1 56.1233 53.043C56.1163 52.9605 56.0939 52.8801 56.0573 52.806C56.0283 52.7412 55.9815 52.686 55.9223 52.647C55.8568 52.6067 55.7793 52.5908 55.7033 52.602C55.5964 52.6167 55.494 52.6546 55.4033 52.713C55.2889 52.7832 55.1875 52.8725 55.1033 52.977C55.0151 53.0844 54.9406 53.2023 54.8813 53.328C54.8211 53.4616 54.7758 53.6014 54.7463 53.745C54.714 53.892 54.6949 54.0416 54.6893 54.192C54.6893 54.372 54.6893 54.573 54.6893 54.792C54.6893 55.011 54.6893 55.203 54.6893 55.377C54.6921 55.5069 54.7112 55.6359 54.7463 55.761C54.7686 55.8561 54.8151 55.944 54.8813 56.016C54.9405 56.0753 55.0196 56.1106 55.1033 56.115C55.2102 56.1113 55.314 56.0781 55.4033 56.019C55.5148 55.9521 55.6158 55.8692 55.7033 55.773C55.8688 55.5971 55.9919 55.3857 56.0633 55.155C56.0939 55.0483 56.113 54.9387 56.1203 54.828Z" fill="#459AE9"/>
<path d="M59.4051 49.578C59.4163 49.567 59.4314 49.5609 59.4471 49.5609C59.4628 49.5609 59.4778 49.567 59.4891 49.578C59.5033 49.5925 59.5142 49.6099 59.521 49.6291C59.5277 49.6483 59.5301 49.6688 59.5281 49.689V50.187C59.5284 50.2415 59.515 50.2951 59.4891 50.343C59.4726 50.3858 59.4432 50.4225 59.4051 50.448L58.5831 50.922V54.771C58.5826 54.824 58.5703 54.8763 58.5471 54.924C58.5287 54.9674 58.4986 55.0048 58.4601 55.032L58.0911 55.245C58.0785 55.2545 58.0633 55.2596 58.0476 55.2596C58.0318 55.2596 58.0166 55.2545 58.0041 55.245C57.9909 55.2293 57.9809 55.2111 57.9747 55.1916C57.9685 55.172 57.9663 55.1514 57.9681 55.131V51.3L57.1461 51.774C57.1335 51.7835 57.1183 51.7886 57.1026 51.7886C57.0868 51.7886 57.0716 51.7835 57.0591 51.774C57.0459 51.7583 57.0359 51.7401 57.0297 51.7206C57.0235 51.701 57.0213 51.6804 57.0231 51.66V51.162C57.0235 51.109 57.0358 51.0567 57.0591 51.009C57.0765 50.965 57.1068 50.9274 57.1461 50.901L59.4051 49.578Z" fill="#459AE9"/>
<path opacity="0.2" d="M71.8402 91.545V90.261C69.0022 91.902 66.6892 96.318 66.6892 100.104L67.6522 99.549C67.6522 96.468 69.5332 92.88 71.8402 91.545ZM75.5542 94.986C75.5542 92.256 73.8892 90.996 71.8402 92.178C69.7912 93.36 68.1292 96.543 68.1292 99.273C68.1292 102.003 69.7942 103.263 71.8402 102.081C73.8862 100.899 75.5542 97.716 75.5542 94.986ZM68.6002 99C68.6002 96.627 70.0492 93.855 71.8312 92.826C71.9572 92.754 72.0802 92.697 72.2002 92.643L68.6242 99.48C68.6182 99.321 68.6002 99.162 68.6002 99ZM68.7382 100.167L72.7672 92.472C73.8082 92.292 74.6272 92.919 74.9332 94.137L70.9252 101.793C69.8902 101.982 69.0622 101.367 68.7472 100.161L68.7382 100.167ZM75.0382 94.827C75.0382 94.968 75.0562 95.127 75.0562 95.271C75.0562 97.647 73.6042 100.416 71.8222 101.445C71.7126 101.509 71.5994 101.566 71.4832 101.616L75.0382 94.827ZM71.8402 88.986C68.4742 90.93 65.7322 96.165 65.7322 100.656C65.7322 105.147 68.4742 107.22 71.8402 105.273C75.2062 103.326 77.9512 98.1 77.9512 93.6C77.9512 89.1 75.2002 87.042 71.8402 88.986ZM71.8402 104.631C68.7382 106.431 66.2152 104.514 66.2152 100.377C66.2152 96.24 68.7382 91.419 71.8402 89.628C74.9422 87.837 77.4682 89.745 77.4682 93.882C77.4682 98.019 74.9452 102.84 71.8402 104.631ZM76.0402 94.71C76.0402 97.791 74.1592 101.382 71.8402 102.714V103.998C74.6812 102.357 76.9942 97.944 76.9942 94.155L76.0402 94.71Z" fill="#459AE9"/>
<path d="M61.49 112.71L38.579 125.946C38.5249 125.981 38.4632 126.004 38.399 126.011C38.3347 126.018 38.2697 126.009 38.2091 125.987C38.1486 125.964 38.0944 125.927 38.0507 125.879C38.0071 125.832 37.9753 125.774 37.958 125.712V125.673C37.9201 125.531 37.9288 125.38 37.9828 125.243C38.0368 125.106 38.1332 124.989 38.258 124.911L61.169 111.672C61.2225 111.639 61.283 111.619 61.3456 111.614C61.4082 111.608 61.4712 111.617 61.5295 111.641C61.5879 111.664 61.6399 111.701 61.6815 111.748C61.7231 111.795 61.7531 111.851 61.769 111.912V111.951C61.8112 112.091 61.8068 112.24 61.7565 112.377C61.7062 112.514 61.6126 112.631 61.49 112.71Z" fill="#E0E0E0"/>
<path d="M55.9791 119.001L39.9351 128.301C39.8782 128.336 39.8144 128.358 39.748 128.366C39.6817 128.374 39.6144 128.368 39.5508 128.347C39.4872 128.327 39.4288 128.293 39.3796 128.247C39.3305 128.202 39.2917 128.147 39.2661 128.085V128.064C39.2108 127.93 39.2059 127.781 39.2522 127.643C39.2985 127.506 39.393 127.39 39.5181 127.317L55.5651 118.017C55.6212 117.982 55.6843 117.96 55.7499 117.953C55.8155 117.945 55.882 117.952 55.9445 117.973C56.0071 117.995 56.0641 118.03 56.1116 118.075C56.1591 118.121 56.1958 118.177 56.2191 118.239V118.26C56.2738 118.392 56.2797 118.539 56.2357 118.675C56.1917 118.811 56.1007 118.926 55.9791 119.001Z" fill="#E0E0E0"/>
<path d="M82.3072 103.902L66.2632 113.202C66.2064 113.238 66.1426 113.26 66.0761 113.269C66.0096 113.277 65.9421 113.27 65.8784 113.25C65.8146 113.229 65.7561 113.195 65.7071 113.149C65.658 113.104 65.6194 113.048 65.5942 112.986V112.965C65.5389 112.831 65.534 112.682 65.5803 112.544C65.6266 112.407 65.7211 112.291 65.8462 112.218L81.8902 102.918C81.9467 102.884 82.01 102.862 82.0757 102.855C82.1413 102.848 82.2078 102.855 82.2704 102.876C82.333 102.897 82.3902 102.932 82.438 102.977C82.4859 103.023 82.5231 103.078 82.5472 103.14V103.161C82.6019 103.293 82.6078 103.44 82.5638 103.576C82.5198 103.712 82.4288 103.827 82.3072 103.902Z" fill="#E0E0E0"/>
<path d="M52.0732 111.3C51.7878 111.986 51.3472 112.596 50.7862 113.082C50.7351 113.137 50.6712 113.178 50.6002 113.202C50.4892 113.223 50.4532 113.13 50.4382 113.004C50.4256 112.795 50.4387 112.586 50.4772 112.38C50.5252 111.969 50.5852 111.561 50.6512 111.153C50.7632 110.497 50.8832 109.842 51.0112 109.188C51.1282 108.912 51.2392 108.633 51.3442 108.348C51.6495 107.525 51.905 106.685 52.1092 105.831C52.3102 104.991 52.4962 104.076 52.3432 103.209C52.3282 103.125 52.2172 103.059 52.1752 103.152C51.8152 103.95 51.6892 104.916 51.5092 105.795L50.8792 108.855C50.8642 108.924 50.8521 108.99 50.8372 109.059C50.6371 109.543 50.4192 110.014 50.1832 110.472C50.0452 110.742 49.9012 111.006 49.7512 111.264C49.621 111.517 49.4705 111.759 49.3012 111.987C49.0702 112.263 48.7702 112.176 48.6322 111.825C48.6031 111.75 48.5829 111.671 48.5722 111.591C48.7874 111.373 48.9666 111.121 49.1032 110.847C49.2714 110.54 49.4148 110.22 49.5322 109.89C49.6543 109.536 49.7476 109.173 49.8112 108.804C49.8502 108.561 49.9402 108.189 49.7932 107.985C49.6462 107.781 49.4362 107.964 49.3222 108.156C49.1415 108.473 48.986 108.804 48.8572 109.146C48.5634 109.852 48.4046 110.607 48.3892 111.372C48.3877 111.401 48.3877 111.43 48.3892 111.459C48.3652 111.477 48.3442 111.498 48.3172 111.516C48.2544 111.57 48.177 111.604 48.0949 111.613C48.0128 111.623 47.9296 111.608 47.856 111.571C47.7824 111.533 47.7216 111.474 47.6814 111.402C47.6412 111.33 47.6233 111.247 47.6302 111.165C47.6302 111.048 47.4892 111 47.4412 111.102C47.2792 111.462 47.2672 111.912 47.0722 112.245C46.9822 112.395 46.8172 112.581 46.6702 112.473C46.6317 112.441 46.6012 112.4 46.5809 112.355C46.5606 112.309 46.5511 112.259 46.5532 112.209C46.5712 112.155 46.5922 112.104 46.6072 112.05C46.6462 111.936 46.4932 111.855 46.4392 111.933C46.3894 112.001 46.3612 112.083 46.3582 112.167C46.2652 112.434 46.1662 112.698 46.0582 112.953C46.0146 112.68 46.0146 112.401 46.0582 112.128C46.0762 112.02 45.8932 111.948 45.8722 112.065C45.7976 112.43 45.6974 112.789 45.5722 113.139C45.5092 113.316 45.4372 113.49 45.3592 113.661C45.2885 113.859 45.1873 114.044 45.0592 114.21C44.9992 114.27 44.9121 114.327 44.8372 114.282C44.7621 114.237 44.7502 114.051 44.7472 113.934C44.7472 113.739 44.7471 113.541 44.7621 113.334C44.7912 112.949 44.8524 112.566 44.9452 112.191C44.9752 112.062 44.7922 111.978 44.7532 112.107C44.5787 112.704 44.3632 113.289 44.1082 113.856C43.9852 114.129 43.8562 114.399 43.7122 114.654C43.6461 114.774 43.4722 115.041 43.3282 115.035C43.3582 114.981 43.3852 114.927 43.4152 114.876C43.7398 114.265 44.0176 113.63 44.2462 112.977C44.4851 112.319 44.6413 111.634 44.7112 110.937C44.728 110.844 44.7214 110.748 44.6921 110.658C44.6628 110.568 44.6116 110.486 44.5432 110.421C44.6123 110.069 44.6204 109.708 44.5672 109.353C44.4502 108.726 43.9851 108.495 43.5291 108.639C42.9831 108.81 42.5512 109.359 42.1732 109.878C41.4183 110.918 40.8208 112.063 40.4002 113.277C40.1797 113.911 40.0023 114.56 39.8692 115.218C39.7432 115.842 39.5692 116.598 39.7852 117.213C40.2952 118.677 41.7141 117.33 42.2871 116.613C42.626 116.175 42.9271 115.71 43.1872 115.221C43.2689 115.245 43.3562 115.244 43.4372 115.217C43.5182 115.19 43.5891 115.139 43.6402 115.071C43.8318 114.838 43.9866 114.577 44.0992 114.297C44.2582 113.967 44.3991 113.628 44.5371 113.28C44.5371 113.409 44.5371 113.538 44.5371 113.667C44.5111 113.885 44.5368 114.106 44.6122 114.312C44.6426 114.369 44.6893 114.416 44.7464 114.447C44.8035 114.478 44.8685 114.492 44.9332 114.486C45.2542 114.456 45.4432 113.943 45.5842 113.622C45.6927 113.374 45.7859 113.119 45.8632 112.86C45.8835 112.994 45.9146 113.127 45.9562 113.256C45.9598 113.274 45.969 113.291 45.9826 113.304C45.9961 113.316 46.0132 113.325 46.0317 113.327C46.0501 113.33 46.0689 113.327 46.0854 113.318C46.102 113.31 46.1155 113.296 46.1242 113.28C46.2462 113.018 46.3572 112.751 46.4572 112.479C46.4987 112.55 46.5599 112.608 46.6333 112.645C46.7067 112.682 46.7893 112.697 46.8712 112.689C47.3122 112.581 47.3902 111.954 47.5312 111.462C47.5905 111.575 47.6811 111.669 47.7922 111.732C47.8917 111.785 48.0041 111.809 48.1166 111.801C48.2291 111.793 48.3371 111.753 48.4282 111.687C48.4692 111.882 48.5661 112.06 48.7072 112.2C48.7863 112.286 48.8959 112.339 49.0128 112.346C49.1297 112.353 49.2449 112.315 49.3342 112.239C49.5731 111.988 49.7697 111.701 49.9162 111.387C50.1022 111.063 50.2822 110.73 50.4532 110.391L50.6452 109.992C50.5342 110.547 50.4322 111.105 50.3451 111.666C50.3092 111.903 50.2762 112.14 50.2492 112.38C50.2156 112.578 50.2035 112.779 50.2132 112.98C50.2492 113.31 50.4592 113.493 50.7082 113.391C50.8678 113.307 51.0111 113.196 51.1312 113.061C51.2922 112.907 51.4407 112.741 51.5752 112.563C51.852 112.193 52.0818 111.79 52.2592 111.363C52.3132 111.264 52.1242 111.177 52.0732 111.3ZM51.6562 106.014C51.7582 105.519 51.8542 105.024 51.9562 104.532C52.021 104.211 52.1052 103.895 52.2082 103.584C52.2241 104.122 52.1676 104.66 52.0402 105.183C51.9082 105.783 51.7402 106.401 51.5782 106.983C51.4762 107.316 51.3681 107.643 51.2542 107.967C51.3891 107.319 51.5242 106.662 51.6562 106.008V106.014ZM42.6052 115.788C42.3049 116.27 41.9406 116.709 41.5222 117.093C41.3321 117.261 41.1226 117.406 40.8982 117.525C40.6822 117.639 40.4452 117.723 40.2412 117.543C39.8482 117.198 39.8932 116.484 39.9742 115.947C40.0601 115.393 40.1783 114.844 40.3282 114.303C40.6171 113.245 41.0299 112.225 41.5582 111.264C41.8175 110.792 42.1081 110.338 42.4282 109.905C42.7702 109.449 43.1752 108.945 43.6762 108.843C44.3902 108.699 44.4352 109.542 44.2942 110.385C44.0708 110.434 43.872 110.56 43.7332 110.742C43.3433 111.264 43.0803 111.87 42.9652 112.512C42.917 112.718 42.881 112.926 42.8572 113.136C42.6787 113.256 42.4716 113.326 42.2572 113.34C41.9422 113.34 41.9872 112.815 42.0202 112.533C42.057 112.224 42.1336 111.922 42.2482 111.633C42.2782 111.561 42.1552 111.456 42.1222 111.531C41.9842 111.852 41.8903 112.19 41.8432 112.536C41.7742 112.824 41.8115 113.128 41.9482 113.391C42.1102 113.607 42.3772 113.556 42.5842 113.496C42.6671 113.469 42.7483 113.437 42.8272 113.4C42.7985 113.771 42.8137 114.145 42.8722 114.513C42.8946 114.706 42.9483 114.895 43.0312 115.071C42.8992 115.311 42.7522 115.551 42.6052 115.782V115.788ZM44.2462 110.64C44.1703 111.023 44.0609 111.398 43.9192 111.762C43.7446 112.221 43.4639 112.632 43.1002 112.962C43.174 112.507 43.3009 112.062 43.4782 111.636C43.5792 111.371 43.722 111.124 43.9012 110.904C43.9831 110.802 44.0853 110.718 44.2012 110.658L44.2462 110.64ZM43.1541 114.84C43.1301 114.753 43.1152 114.651 43.1002 114.582C43.0721 114.435 43.0531 114.287 43.0432 114.138C43.0162 113.849 43.0162 113.557 43.0432 113.268C43.1396 113.203 43.2308 113.131 43.3162 113.052C43.7745 112.584 44.1042 112.005 44.2732 111.372C44.3362 111.171 44.3992 110.946 44.4502 110.715C44.4502 110.733 44.4502 110.751 44.4502 110.778C44.4561 110.849 44.4561 110.92 44.4502 110.991C44.3785 111.576 44.2488 112.153 44.0632 112.713C43.8258 113.45 43.5215 114.164 43.1541 114.846V114.84ZM48.6112 110.7C48.7052 110.097 48.8766 109.51 49.1212 108.951C49.2241 108.673 49.3622 108.41 49.5322 108.168C49.5472 108.147 49.6342 108.054 49.6612 108.078C49.6882 108.102 49.6791 108.171 49.6791 108.189C49.6866 108.261 49.6866 108.333 49.6791 108.405C49.6592 108.567 49.6322 108.729 49.5982 108.891C49.4744 109.533 49.2496 110.152 48.9322 110.724C48.8279 110.923 48.7043 111.111 48.5632 111.285C48.5652 111.089 48.5812 110.894 48.6112 110.7ZM58.2772 107.805L58.1842 107.784C58.2082 107.316 58.2112 106.845 58.2022 106.383C58.1872 105.483 58.1302 104.61 58.0312 103.734C58.0312 103.644 58.0102 103.554 57.9952 103.464C58.0402 103.194 58.0792 102.924 58.1092 102.651C58.1632 102.12 58.1992 101.451 57.8092 101.136C57.7582 101.094 57.6772 101.097 57.6652 101.19C57.6073 101.803 57.6387 102.422 57.7582 103.026C57.7582 103.128 57.7852 103.233 57.7972 103.326C57.7288 103.759 57.6387 104.189 57.5272 104.613C57.388 105.156 57.2136 105.689 57.0052 106.209C56.9032 106.467 56.7922 106.722 56.6752 106.971C56.575 107.242 56.3925 107.475 56.1532 107.637C56.1039 107.532 56.0822 107.417 56.0902 107.301C56.0902 107.19 55.9462 107.115 55.9162 107.241C55.9099 107.27 55.9019 107.3 55.8922 107.328C55.9162 107.028 55.9492 106.728 55.9942 106.428C56.0092 106.329 55.8502 106.245 55.8232 106.35C55.7413 106.69 55.6268 107.022 55.4812 107.34C55.4054 107.506 55.3192 107.668 55.2232 107.823C55.1692 107.913 55.0522 108.123 54.9532 108.099C54.7282 108.069 54.8962 107.199 54.9532 107.019C54.9532 106.965 54.9802 106.914 54.9952 106.86C55.1092 106.599 55.2142 106.329 55.2952 106.053C55.3342 105.945 55.1872 105.846 55.1392 105.945C55.0528 106.123 54.9787 106.306 54.9172 106.494C54.6552 107.119 54.3411 107.721 53.9782 108.294C53.7592 108.636 53.4712 109.167 53.1082 109.224C52.8982 109.254 52.8292 109.068 52.8232 108.828C53.1923 108.426 53.5126 107.982 53.7772 107.505C53.9722 107.151 54.9262 105.198 54.0442 105.282C53.6602 105.318 53.4202 105.819 53.2522 106.218C53.042 106.713 52.8812 107.227 52.7722 107.754C52.7212 108.006 52.6762 108.264 52.6492 108.522C52.6446 108.598 52.6446 108.674 52.6492 108.75C52.3727 109.046 52.066 109.313 51.7342 109.545C51.6622 109.593 51.7702 109.734 51.8332 109.692C52.1323 109.489 52.4124 109.259 52.6702 109.005C52.682 109.072 52.7032 109.136 52.7332 109.197C52.9492 109.605 53.3872 109.404 53.6332 109.149C54.0066 108.716 54.3231 108.237 54.5752 107.724C54.6262 107.628 54.6772 107.532 54.7252 107.424C54.6832 107.724 54.6652 108.132 54.8812 108.246C55.0972 108.36 55.3582 108 55.4812 107.769C55.5733 107.604 55.6555 107.434 55.7272 107.259C55.7272 107.364 55.7122 107.469 55.7092 107.559C55.7062 107.649 55.7842 107.718 55.8412 107.679C55.8918 107.642 55.9363 107.598 55.9732 107.547C55.995 107.625 56.0273 107.7 56.0692 107.769C56.0808 107.786 56.0971 107.8 56.1162 107.809C56.1353 107.817 56.1565 107.82 56.1772 107.817C56.6842 107.667 56.9572 106.896 57.1822 106.35C57.4245 105.765 57.625 105.163 57.7822 104.55C57.8242 104.379 57.8662 104.205 57.9022 104.031C57.9382 104.406 57.9682 104.781 57.9862 105.156C58.0427 106.008 58.0497 106.862 58.0072 107.715C57.5819 107.724 57.1703 107.866 56.8312 108.123C56.3355 108.436 55.8955 108.829 55.5292 109.287C55.1714 109.748 54.9914 110.322 55.0222 110.904C55.0582 111.459 55.3222 111.936 55.7512 112.065C56.6512 112.341 57.4192 111.165 57.7642 110.22C58.0124 109.486 58.1568 108.72 58.1932 107.946C58.2261 107.943 58.2592 107.943 58.2922 107.946C58.4002 108.039 58.4002 107.844 58.2772 107.814V107.805ZM52.9252 108.009C53.0042 107.589 53.1156 107.176 53.2582 106.773C53.3691 106.352 53.5743 105.963 53.8582 105.633C53.9152 105.579 54.0682 105.462 54.1372 105.507C54.2062 105.552 54.2302 105.729 54.2122 105.861C54.1766 106.087 54.1172 106.308 54.0352 106.521C53.8861 106.917 53.7002 107.299 53.4802 107.661C53.2914 107.977 53.0777 108.278 52.8412 108.561C52.8592 108.342 52.9012 108.135 52.9252 108.018V108.009ZM57.8871 102.726C57.8164 102.299 57.7963 101.865 57.8272 101.433C58.0102 101.769 57.9472 102.315 57.8871 102.735V102.726ZM57.8332 109.074C57.6442 110.121 57.2182 111.318 56.4142 111.774C56.327 111.837 56.2264 111.879 56.1202 111.897C56.0141 111.915 55.9052 111.908 55.8021 111.877C55.699 111.846 55.6045 111.792 55.526 111.718C55.4474 111.645 55.3869 111.554 55.3492 111.453C55.2534 111.192 55.2143 110.913 55.2345 110.635C55.2546 110.357 55.3336 110.087 55.4662 109.842C55.7859 109.303 56.2265 108.846 56.7532 108.507C57.0976 108.214 57.5217 108.03 57.9712 107.979C57.9438 108.349 57.8977 108.718 57.8332 109.083V109.074Z" fill="#455A64"/>
<path d="M27.7161 120.132C27.7596 121.794 27.989 123.447 28.4001 125.058L34.8531 121.347L36.5721 116.349L34.8531 116.022L27.7161 120.132Z" fill="#E0E0E0"/>
<path d="M34.2743 115.017L21.5903 122.34V127.665L34.2743 120.342L36.5783 116.349L34.2743 115.017Z" fill="#459AE9"/>
<path d="M26.4534 120.771C26.4565 120.768 26.4602 120.765 26.4643 120.763C26.4684 120.762 26.4729 120.761 26.4774 120.761C26.4819 120.761 26.4863 120.762 26.4905 120.763C26.4946 120.765 26.4983 120.768 26.5014 120.771C26.5095 120.779 26.5156 120.789 26.5192 120.8C26.5229 120.811 26.524 120.823 26.5224 120.834V123.375C26.5226 123.404 26.5154 123.433 26.5014 123.459C26.493 123.484 26.476 123.505 26.4534 123.519L26.2464 123.639C26.2398 123.645 26.2312 123.648 26.2224 123.648C26.2135 123.648 26.205 123.645 26.1984 123.639C26.1903 123.631 26.1842 123.621 26.1805 123.61C26.1769 123.599 26.1758 123.587 26.1774 123.576V122.538L25.4004 122.982V124.02C25.401 124.05 25.3937 124.08 25.3794 124.107C25.3691 124.131 25.3525 124.152 25.3314 124.167L25.1244 124.287C25.1175 124.292 25.1091 124.295 25.1004 124.295C25.0917 124.295 25.0832 124.292 25.0764 124.287C25.0683 124.279 25.0622 124.269 25.0585 124.258C25.0549 124.247 25.0538 124.235 25.0554 124.224V121.68C25.0552 121.65 25.0624 121.62 25.0764 121.593C25.0858 121.569 25.1025 121.548 25.1244 121.533L25.3314 121.413C25.3382 121.408 25.3467 121.405 25.3554 121.405C25.3641 121.405 25.3725 121.408 25.3794 121.413C25.3872 121.422 25.3931 121.433 25.3967 121.444C25.4004 121.455 25.4016 121.467 25.4004 121.479V122.487L26.1714 122.043V121.032C26.1715 121.002 26.1787 120.972 26.1924 120.945C26.2025 120.921 26.2191 120.9 26.2404 120.885L26.4534 120.771Z" fill="white"/>
<path d="M28.1004 122.073C28.107 122.067 28.1155 122.064 28.1244 122.064C28.1332 122.064 28.1418 122.067 28.1484 122.073C28.1619 122.09 28.1684 122.111 28.1664 122.133V122.415C28.1662 122.444 28.16 122.473 28.1484 122.499C28.1389 122.523 28.1221 122.544 28.1004 122.559L26.9784 123.207C26.9718 123.213 26.9632 123.216 26.9544 123.216C26.9455 123.216 26.937 123.213 26.9304 123.207C26.9223 123.199 26.9162 123.189 26.9125 123.178C26.9089 123.167 26.9078 123.155 26.9094 123.144V120.6C26.9092 120.57 26.9164 120.54 26.9304 120.513C26.9396 120.488 26.9564 120.467 26.9784 120.453L28.1004 119.823C28.107 119.817 28.1155 119.814 28.1244 119.814C28.1332 119.814 28.1418 119.817 28.1484 119.823C28.1634 119.84 28.171 119.863 28.1694 119.886V120.165C28.1678 120.195 28.1607 120.225 28.1484 120.252C28.1381 120.275 28.1214 120.295 28.1004 120.309L27.2754 120.786V121.41L28.0434 120.969C28.0465 120.966 28.0502 120.963 28.0543 120.961C28.0585 120.96 28.0629 120.959 28.0674 120.959C28.0719 120.959 28.0763 120.96 28.0805 120.961C28.0846 120.963 28.0883 120.966 28.0914 120.969C28.0995 120.977 28.1056 120.987 28.1092 120.998C28.1129 121.009 28.114 121.021 28.1124 121.032V121.311C28.1122 121.341 28.105 121.371 28.0914 121.398C28.082 121.422 28.0652 121.442 28.0434 121.455L27.2754 121.899V122.553L28.1004 122.073Z" fill="white"/>
<path d="M29.2254 119.169C29.4384 119.046 29.6004 119.028 29.7114 119.118C29.7757 119.191 29.8236 119.276 29.8521 119.369C29.8806 119.461 29.8888 119.559 29.8764 119.655C29.8772 119.839 29.8478 120.021 29.7894 120.195C29.7348 120.357 29.6504 120.508 29.5404 120.639L29.9004 121.407C29.9028 121.42 29.9028 121.433 29.9004 121.446C29.9001 121.471 29.894 121.496 29.8824 121.518C29.8735 121.537 29.8601 121.553 29.8434 121.566L29.6244 121.692C29.5914 121.71 29.5674 121.713 29.5494 121.692C29.5346 121.678 29.5234 121.66 29.5164 121.641L29.1804 120.918L28.8414 121.116V122.031C28.8416 122.061 28.8343 122.091 28.8204 122.118C28.811 122.143 28.7942 122.163 28.7724 122.178L28.5654 122.298C28.5588 122.304 28.5502 122.307 28.5414 122.307C28.5325 122.307 28.524 122.304 28.5174 122.298C28.5095 122.29 28.5035 122.281 28.4999 122.27C28.4963 122.26 28.495 122.249 28.4964 122.238V119.7C28.4962 119.67 28.5034 119.64 28.5174 119.613C28.5267 119.588 28.5435 119.568 28.5654 119.553L29.2254 119.169ZM28.8414 120.63L29.2134 120.417C29.3051 120.364 29.384 120.291 29.4444 120.204C29.5069 120.098 29.5371 119.976 29.5314 119.853C29.5314 119.706 29.5014 119.625 29.4444 119.61C29.404 119.603 29.3627 119.605 29.323 119.615C29.2833 119.624 29.246 119.642 29.2134 119.667L28.8414 119.883V120.63Z" fill="white"/>
<path d="M31.4004 120.177C31.4038 120.174 31.4077 120.171 31.4121 120.169C31.4165 120.167 31.4212 120.166 31.4259 120.166C31.4307 120.166 31.4353 120.167 31.4397 120.169C31.4441 120.171 31.4481 120.174 31.4514 120.177C31.4654 120.195 31.4719 120.217 31.4694 120.24V120.519C31.469 120.549 31.4628 120.578 31.4514 120.606C31.4411 120.63 31.4232 120.65 31.4004 120.663L30.2814 121.311C30.2781 121.314 30.2741 121.317 30.2697 121.319C30.2653 121.321 30.2607 121.322 30.2559 121.322C30.2512 121.322 30.2465 121.321 30.2421 121.319C30.2377 121.317 30.2338 121.314 30.2304 121.311C30.2164 121.293 30.21 121.271 30.2124 121.248V118.707C30.2129 118.677 30.219 118.648 30.2304 118.62C30.2407 118.596 30.2587 118.576 30.2814 118.563L31.3824 117.927C31.389 117.921 31.3976 117.918 31.4064 117.918C31.4153 117.918 31.4238 117.921 31.4304 117.927C31.4455 117.944 31.453 117.967 31.4514 117.99V118.269C31.4502 118.299 31.443 118.329 31.4304 118.356C31.4193 118.379 31.4028 118.4 31.3824 118.416L30.5574 118.89V119.517L31.3254 119.073C31.332 119.067 31.3406 119.064 31.3494 119.064C31.3583 119.064 31.3668 119.067 31.3734 119.073C31.3812 119.081 31.3871 119.091 31.3907 119.102C31.3943 119.113 31.3956 119.125 31.3944 119.136V119.415C31.3946 119.445 31.3874 119.475 31.3734 119.502C31.3623 119.525 31.3458 119.546 31.3254 119.562L30.5544 120V120.651L31.4004 120.177Z" fill="white"/>
<path d="M116.339 120.84L114.56 120.162L115.148 118.959L116.24 119.985L116.339 120.84Z" fill="black"/>
<path d="M118.196 117.633C118.196 117.633 118.262 118.794 118.277 119.16C118.292 119.526 116.726 120.66 116.339 120.84L116.24 120C115.883 120.42 115.581 120.884 115.34 121.38C115.04 121.899 114.65 122.88 113.822 123.552C112.595 124.545 110.684 125.052 108.737 125.103C106.79 125.154 105.677 124.68 105.137 124.257C104.597 123.834 104.411 123.336 104.552 122.844C104.693 122.352 118.196 117.633 118.196 117.633Z" fill="#263238"/>
<path d="M113 113.649L112.979 112.977C112.619 112.977 112.571 113.94 112.046 114.792C111.28 116.068 110.353 117.24 109.289 118.281C107.306 120.081 105.539 121.191 104.657 121.998C103.457 123.075 105.536 124.809 108.713 124.644C110.288 124.563 113.093 123.783 113.885 122.844C114.677 121.905 115.166 120.465 115.802 119.793C116.438 119.121 117.791 118.443 118.187 117.621C118.406 117.171 118.295 116.121 118.172 115.221C118.058 114.399 118.037 113.139 117.572 113.241L117.536 113.661C117.347 114.021 116.906 114.612 115.631 114.819C115.01 114.936 113.114 114.984 113 113.649Z" fill="#37474F"/>
<path opacity="0.15" d="M114.623 114.861C114.023 114.807 113.366 114.603 113.123 114.054V114.036C113.157 114.269 113.138 114.507 113.065 114.731C112.993 114.955 112.87 115.16 112.706 115.329C112.136 115.989 108.524 120.66 108.524 120.66C108.524 120.66 111.884 116.811 112.526 116.085C113.48 115.014 113.78 114.885 114.647 114.864L114.623 114.861Z" fill="black"/>
<path opacity="0.15" d="M113.825 116.1C113.833 116.149 113.86 116.193 113.9 116.223C113.939 116.253 113.989 116.266 114.038 116.261C114.088 116.256 114.133 116.232 114.165 116.194C114.198 116.156 114.214 116.108 114.212 116.058C114.206 116.007 114.18 115.96 114.139 115.928C114.099 115.896 114.047 115.881 113.996 115.887C113.971 115.89 113.946 115.897 113.924 115.909C113.902 115.922 113.882 115.938 113.866 115.958C113.85 115.978 113.838 116 113.831 116.025C113.824 116.049 113.822 116.075 113.825 116.1Z" fill="black"/>
<path opacity="0.15" d="M112.883 117.132C112.887 117.17 112.903 117.205 112.927 117.234C112.952 117.263 112.984 117.284 113.021 117.294C113.057 117.305 113.096 117.304 113.132 117.293C113.168 117.282 113.2 117.26 113.224 117.23C113.247 117.201 113.262 117.165 113.265 117.127C113.268 117.089 113.261 117.051 113.242 117.018C113.224 116.985 113.197 116.958 113.163 116.94C113.13 116.922 113.092 116.915 113.054 116.919C113.029 116.922 113.004 116.929 112.982 116.941C112.96 116.953 112.94 116.97 112.924 116.99C112.908 117.01 112.896 117.032 112.889 117.057C112.882 117.081 112.88 117.107 112.883 117.132Z" fill="black"/>
<path opacity="0.15" d="M111.938 118.164C111.944 118.215 111.97 118.262 112.011 118.294C112.051 118.326 112.103 118.341 112.154 118.335C112.179 118.332 112.204 118.325 112.226 118.312C112.248 118.3 112.268 118.284 112.284 118.264C112.3 118.244 112.311 118.221 112.318 118.197C112.326 118.173 112.328 118.147 112.325 118.122C112.322 118.097 112.315 118.072 112.302 118.05C112.29 118.028 112.274 118.008 112.254 117.992C112.234 117.977 112.211 117.965 112.187 117.958C112.163 117.951 112.137 117.948 112.112 117.951C112.086 117.953 112.062 117.961 112.039 117.973C112.016 117.985 111.996 118.001 111.98 118.021C111.964 118.041 111.952 118.064 111.945 118.088C111.937 118.113 111.935 118.139 111.938 118.164Z" fill="black"/>
<path opacity="0.15" d="M110.996 119.196C111.002 119.247 111.028 119.294 111.069 119.326C111.109 119.358 111.161 119.373 111.212 119.367C111.237 119.364 111.262 119.357 111.284 119.345C111.306 119.332 111.326 119.316 111.342 119.296C111.358 119.276 111.37 119.254 111.377 119.229C111.384 119.205 111.386 119.179 111.383 119.154C111.375 119.105 111.348 119.061 111.308 119.031C111.269 119.001 111.219 118.988 111.17 118.993C111.12 118.998 111.075 119.022 111.043 119.06C111.01 119.098 110.994 119.146 110.996 119.196Z" fill="black"/>
<path opacity="0.15" d="M110.054 120.228C110.06 120.279 110.086 120.325 110.126 120.357C110.166 120.389 110.216 120.404 110.267 120.399C110.293 120.397 110.318 120.389 110.34 120.377C110.363 120.365 110.383 120.349 110.399 120.329C110.415 120.309 110.427 120.286 110.435 120.262C110.442 120.237 110.444 120.211 110.441 120.186C110.435 120.135 110.409 120.089 110.37 120.057C110.33 120.025 110.279 120.01 110.228 120.015C110.203 120.017 110.178 120.025 110.155 120.037C110.133 120.049 110.113 120.065 110.096 120.085C110.08 120.105 110.068 120.128 110.061 120.152C110.054 120.177 110.051 120.203 110.054 120.228Z" fill="black"/>
<path d="M114.023 116.157C114.038 116.156 114.052 116.15 114.063 116.141C114.075 116.132 114.084 116.12 114.089 116.106C114.094 116.092 114.095 116.077 114.092 116.063C114.088 116.049 114.081 116.036 114.071 116.025C114.032 115.986 113.102 115.08 111.881 115.143C111.861 115.145 111.842 115.155 111.829 115.171C111.815 115.186 111.808 115.207 111.809 115.227C111.81 115.237 111.813 115.247 111.817 115.256C111.822 115.266 111.828 115.274 111.836 115.28C111.844 115.287 111.853 115.292 111.863 115.295C111.873 115.299 111.883 115.3 111.893 115.299C113.045 115.239 113.957 116.127 113.966 116.136C113.974 116.143 113.983 116.149 113.992 116.153C114.002 116.156 114.013 116.158 114.023 116.157Z" fill="#263238"/>
<path d="M113.081 117.186C113.099 117.184 113.117 117.176 113.129 117.162C113.136 117.155 113.142 117.146 113.146 117.137C113.15 117.127 113.152 117.117 113.152 117.107C113.152 117.096 113.15 117.086 113.146 117.076C113.142 117.067 113.136 117.058 113.129 117.051C113.09 117.012 112.16 116.106 110.936 116.172C110.926 116.173 110.916 116.176 110.907 116.18C110.897 116.185 110.889 116.191 110.883 116.199C110.876 116.207 110.871 116.216 110.868 116.226C110.864 116.235 110.863 116.246 110.864 116.256C110.866 116.276 110.875 116.295 110.89 116.308C110.905 116.322 110.925 116.329 110.945 116.328C112.097 116.268 113.012 117.153 113.021 117.162C113.029 117.17 113.038 117.176 113.048 117.181C113.059 117.185 113.07 117.187 113.081 117.186Z" fill="#263238"/>
<path d="M112.139 118.221C112.148 118.221 112.158 118.219 112.166 118.214C112.174 118.21 112.181 118.204 112.187 118.197C112.195 118.19 112.2 118.181 112.204 118.172C112.208 118.162 112.21 118.152 112.21 118.141C112.21 118.131 112.208 118.121 112.204 118.111C112.2 118.102 112.195 118.093 112.187 118.086C112.148 118.05 111.218 117.144 109.994 117.207C109.974 117.209 109.955 117.219 109.942 117.235C109.928 117.25 109.921 117.27 109.922 117.291C109.924 117.311 109.933 117.33 109.948 117.343C109.963 117.357 109.983 117.364 110.003 117.363C111.155 117.303 112.07 118.191 112.079 118.197C112.086 118.206 112.096 118.212 112.106 118.216C112.117 118.221 112.128 118.222 112.139 118.221Z" fill="#263238"/>
<path d="M111.2 119.253C111.209 119.253 111.219 119.251 111.227 119.246C111.235 119.242 111.242 119.236 111.248 119.229C111.255 119.222 111.261 119.214 111.265 119.204C111.269 119.195 111.271 119.185 111.271 119.175C111.271 119.165 111.269 119.155 111.265 119.146C111.261 119.136 111.255 119.128 111.248 119.121C111.209 119.082 110.279 118.176 109.055 118.239C109.045 118.24 109.035 118.243 109.026 118.247C109.017 118.252 109.008 118.258 109.002 118.266C108.995 118.274 108.99 118.283 108.987 118.293C108.984 118.302 108.982 118.313 108.983 118.323C108.984 118.333 108.986 118.343 108.99 118.352C108.995 118.361 109.001 118.37 109.008 118.376C109.016 118.383 109.025 118.388 109.034 118.391C109.044 118.395 109.054 118.396 109.064 118.395C110.216 118.335 111.128 119.223 111.137 119.232C111.146 119.24 111.156 119.246 111.166 119.249C111.177 119.253 111.189 119.254 111.2 119.253Z" fill="#263238"/>
<path d="M110.252 120.3C110.272 120.298 110.29 120.29 110.303 120.276C110.317 120.261 110.325 120.241 110.325 120.221C110.325 120.2 110.317 120.18 110.303 120.165C109.711 119.603 108.927 119.289 108.11 119.286C108.089 119.288 108.07 119.297 108.056 119.313C108.042 119.329 108.034 119.349 108.035 119.37C108.036 119.38 108.039 119.39 108.043 119.399C108.048 119.409 108.054 119.417 108.062 119.423C108.07 119.43 108.079 119.435 108.089 119.438C108.099 119.442 108.109 119.443 108.119 119.442C109.271 119.382 110.183 120.267 110.192 120.276C110.2 120.284 110.209 120.29 110.22 120.294C110.23 120.298 110.241 120.3 110.252 120.3Z" fill="#263238"/>
<path d="M130.901 126.447C131.171 127.965 131.528 128.952 132.179 129.783C132.83 130.614 133.994 130.71 134.861 130.527C136.076 130.272 137.261 129.426 137.741 127.686C138.02 126.639 137.828 125.439 137.423 124.047L130.901 126.447Z" fill="#263238"/>
<path d="M134.282 114.783C134.711 114.765 135.083 116.805 135.575 118.83C136.1 121.002 136.922 122.154 137.318 123.615C137.867 125.637 137.834 126.582 137.258 127.917C136.682 129.252 133.694 130.878 132.221 129.24C131.021 127.905 130.784 126.294 130.631 124.224C130.542 122.463 130.365 120.708 130.1 118.965C129.833 117.429 129.548 115.944 129.899 115.728C129.953 115.953 130.016 116.238 130.073 116.457C130.115 116.625 130.259 117.456 130.499 117.435C130.495 117.239 130.473 117.045 130.433 116.853C130.387 116.681 130.409 116.497 130.493 116.34C130.608 116.204 130.766 116.11 130.94 116.073C131.35 115.935 131.766 115.819 132.188 115.725C132.398 115.679 132.61 115.645 132.824 115.623C133.196 115.563 133.572 115.534 133.949 115.536C134.002 115.546 134.052 115.567 134.096 115.598C134.14 115.629 134.177 115.669 134.204 115.716C134.236 115.79 134.253 115.869 134.255 115.95C134.273 116.093 134.308 116.233 134.36 116.367C134.381 116.427 134.432 116.496 134.492 116.475C134.552 116.454 134.552 116.391 134.546 116.34C134.519 116.091 134.465 115.914 134.42 115.626C134.399 115.494 134.354 115.326 134.339 115.179C134.324 115.032 134.3 114.915 134.282 114.783Z" fill="#37474F"/>
<path opacity="0.15" d="M135.8 124.311C135.807 124.34 135.804 124.37 135.793 124.398C135.783 124.425 135.764 124.449 135.74 124.466C135.716 124.483 135.687 124.493 135.657 124.493C135.628 124.494 135.598 124.486 135.573 124.47C135.548 124.454 135.529 124.431 135.517 124.404C135.505 124.377 135.501 124.347 135.506 124.318C135.511 124.289 135.524 124.262 135.545 124.24C135.565 124.219 135.591 124.204 135.62 124.197C135.639 124.193 135.659 124.192 135.679 124.195C135.699 124.199 135.717 124.206 135.734 124.217C135.751 124.227 135.765 124.241 135.776 124.257C135.788 124.273 135.796 124.292 135.8 124.311Z" fill="black"/>
<path opacity="0.15" d="M135.5 122.904C135.506 122.933 135.504 122.963 135.493 122.991C135.483 123.018 135.464 123.042 135.44 123.059C135.415 123.076 135.387 123.086 135.357 123.086C135.328 123.087 135.298 123.079 135.273 123.063C135.248 123.047 135.229 123.024 135.217 122.997C135.205 122.97 135.201 122.94 135.206 122.911C135.211 122.882 135.224 122.855 135.245 122.833C135.265 122.812 135.291 122.797 135.32 122.79C135.339 122.786 135.359 122.785 135.379 122.788C135.398 122.792 135.417 122.799 135.434 122.81C135.451 122.82 135.465 122.834 135.476 122.85C135.488 122.866 135.496 122.885 135.5 122.904Z" fill="black"/>
<path opacity="0.15" d="M135.2 121.575C135.206 121.604 135.204 121.634 135.193 121.662C135.183 121.689 135.164 121.713 135.14 121.73C135.115 121.747 135.087 121.756 135.057 121.757C135.027 121.758 134.998 121.75 134.973 121.734C134.948 121.718 134.929 121.695 134.917 121.668C134.904 121.641 134.901 121.611 134.906 121.582C134.911 121.553 134.924 121.526 134.945 121.504C134.965 121.483 134.991 121.468 135.02 121.461C135.039 121.457 135.059 121.456 135.079 121.459C135.098 121.463 135.117 121.47 135.134 121.48C135.151 121.491 135.165 121.505 135.176 121.521C135.188 121.537 135.196 121.556 135.2 121.575Z" fill="black"/>
<path opacity="0.15" d="M134.9 120.267C134.906 120.296 134.904 120.326 134.893 120.354C134.883 120.381 134.864 120.405 134.84 120.422C134.815 120.439 134.787 120.448 134.757 120.449C134.727 120.45 134.698 120.442 134.673 120.426C134.648 120.41 134.628 120.387 134.616 120.36C134.604 120.333 134.601 120.303 134.606 120.274C134.611 120.245 134.624 120.218 134.645 120.196C134.665 120.175 134.691 120.16 134.72 120.153C134.739 120.149 134.759 120.148 134.779 120.151C134.798 120.155 134.817 120.162 134.834 120.173C134.851 120.183 134.865 120.197 134.876 120.213C134.888 120.229 134.896 120.248 134.9 120.267Z" fill="black"/>
<path opacity="0.15" d="M131.558 120.879C131.565 120.908 131.562 120.938 131.551 120.966C131.541 120.993 131.522 121.017 131.498 121.034C131.474 121.051 131.445 121.06 131.415 121.061C131.386 121.062 131.356 121.054 131.331 121.038C131.306 121.022 131.287 120.999 131.275 120.972C131.263 120.945 131.259 120.915 131.264 120.886C131.269 120.857 131.282 120.83 131.303 120.808C131.323 120.787 131.349 120.772 131.378 120.765C131.398 120.761 131.418 120.76 131.437 120.763C131.457 120.767 131.475 120.774 131.492 120.785C131.509 120.795 131.523 120.809 131.535 120.825C131.546 120.841 131.554 120.86 131.558 120.879Z" fill="black"/>
<path opacity="0.15" d="M131.852 122.199C131.856 122.218 131.857 122.238 131.854 122.257C131.85 122.277 131.843 122.295 131.832 122.312C131.822 122.328 131.808 122.342 131.792 122.353C131.776 122.364 131.757 122.372 131.738 122.376C131.709 122.383 131.679 122.38 131.651 122.369C131.623 122.359 131.599 122.34 131.582 122.316C131.565 122.291 131.556 122.262 131.555 122.232C131.555 122.203 131.563 122.173 131.579 122.148C131.595 122.123 131.618 122.104 131.646 122.092C131.673 122.08 131.703 122.077 131.733 122.082C131.762 122.088 131.789 122.102 131.81 122.122C131.831 122.143 131.846 122.17 131.852 122.199Z" fill="black"/>
<path opacity="0.15" d="M132.146 123.525C132.152 123.554 132.15 123.584 132.139 123.612C132.129 123.639 132.11 123.663 132.086 123.68C132.061 123.697 132.033 123.706 132.003 123.707C131.974 123.708 131.944 123.7 131.919 123.684C131.894 123.668 131.875 123.645 131.863 123.618C131.851 123.591 131.847 123.561 131.852 123.532C131.857 123.503 131.87 123.476 131.891 123.454C131.911 123.433 131.937 123.418 131.966 123.411C131.985 123.407 132.005 123.406 132.025 123.409C132.044 123.413 132.063 123.42 132.08 123.431C132.097 123.441 132.111 123.455 132.122 123.471C132.134 123.487 132.142 123.506 132.146 123.525Z" fill="black"/>
<path opacity="0.15" d="M132.458 124.935C132.462 124.955 132.462 124.975 132.459 124.995C132.455 125.015 132.447 125.033 132.436 125.05C132.425 125.067 132.411 125.082 132.395 125.093C132.378 125.104 132.359 125.112 132.34 125.117C132.32 125.121 132.3 125.121 132.28 125.117C132.26 125.113 132.241 125.106 132.224 125.095C132.207 125.084 132.193 125.07 132.182 125.053C132.17 125.036 132.162 125.018 132.158 124.998C132.15 124.958 132.157 124.917 132.18 124.883C132.202 124.849 132.237 124.825 132.277 124.817C132.316 124.808 132.358 124.816 132.392 124.838C132.426 124.86 132.45 124.895 132.458 124.935Z" fill="black"/>
<path opacity="0.15" d="M133.796 125.457L131.465 115.653L132.014 115.575L133.796 125.457Z" fill="black"/>
<path d="M135.68 124.419H135.656C134.645 124.32 132.974 124.62 132.356 125.019C132.348 125.025 132.338 125.028 132.328 125.03C132.319 125.032 132.308 125.032 132.299 125.029C132.289 125.027 132.28 125.023 132.271 125.017C132.263 125.011 132.256 125.004 132.251 124.995C132.241 124.978 132.238 124.957 132.242 124.938C132.247 124.918 132.258 124.901 132.275 124.89C132.932 124.464 134.618 124.158 135.677 124.266C135.697 124.266 135.716 124.274 135.73 124.288C135.744 124.302 135.752 124.321 135.752 124.341C135.752 124.361 135.744 124.38 135.73 124.394C135.716 124.408 135.697 124.416 135.677 124.416L135.68 124.419Z" fill="#263238"/>
<path d="M135.368 123C135.355 123.003 135.342 123.003 135.329 123C134.534 122.733 132.749 123.147 132.029 123.6C132.012 123.61 131.991 123.614 131.972 123.609C131.952 123.605 131.935 123.593 131.924 123.576C131.919 123.568 131.915 123.558 131.913 123.548C131.912 123.538 131.912 123.528 131.914 123.518C131.916 123.509 131.92 123.499 131.926 123.491C131.932 123.483 131.94 123.476 131.948 123.471C132.686 122.991 134.528 122.571 135.368 122.85C135.385 122.853 135.4 122.863 135.411 122.876C135.422 122.889 135.428 122.906 135.428 122.924C135.428 122.941 135.422 122.958 135.411 122.971C135.4 122.984 135.385 122.994 135.368 122.997V123Z" fill="#263238"/>
<path d="M135.074 121.683C135.061 121.687 135.046 121.687 135.032 121.683C134.237 121.416 132.452 121.83 131.732 122.283C131.715 122.29 131.696 122.292 131.679 122.286C131.661 122.281 131.646 122.27 131.635 122.254C131.625 122.239 131.621 122.22 131.623 122.202C131.626 122.183 131.635 122.166 131.648 122.154C132.389 121.677 134.231 121.254 135.068 121.533C135.078 121.536 135.087 121.54 135.095 121.547C135.103 121.553 135.109 121.561 135.114 121.57C135.118 121.579 135.121 121.589 135.121 121.599C135.122 121.61 135.12 121.62 135.116 121.629C135.114 121.641 135.109 121.652 135.101 121.661C135.094 121.67 135.085 121.678 135.074 121.683Z" fill="#263238"/>
<path d="M134.783 120.372H134.741C133.946 120.105 132.161 120.519 131.441 120.972C131.433 120.978 131.424 120.981 131.414 120.983C131.404 120.985 131.394 120.985 131.384 120.983C131.375 120.981 131.365 120.977 131.357 120.972C131.349 120.966 131.342 120.959 131.336 120.951C131.331 120.943 131.327 120.933 131.325 120.924C131.323 120.914 131.323 120.904 131.325 120.894C131.327 120.884 131.331 120.875 131.336 120.867C131.342 120.859 131.349 120.852 131.357 120.846C132.098 120.366 133.94 119.946 134.777 120.222C134.787 120.225 134.796 120.23 134.804 120.237C134.812 120.243 134.818 120.252 134.823 120.261C134.827 120.27 134.83 120.28 134.83 120.291C134.831 120.301 134.829 120.311 134.825 120.321C134.823 120.332 134.818 120.343 134.811 120.352C134.803 120.361 134.794 120.368 134.783 120.372Z" fill="#263238"/>
<path d="M131.966 64.8C132.962 77.433 133.574 94.635 133.574 94.635C133.664 95.595 134.588 99.69 135.05 104.421C135.539 109.413 135.935 118.764 135.935 118.764C135.935 118.764 132.443 120.642 129.614 119.7C129.614 119.7 126.581 103.95 125.132 98.067C123.758 92.499 121.61 81.945 121.61 81.945L120.149 92.4C120.149 92.4 120.341 96 120.236 98.52C120.11 101.451 118.241 115.533 118.241 115.533C118.241 115.533 114.443 117.759 111.5 115.5C111.5 115.5 110.99 96.078 110.9 92.553C110.738 85.638 111.545 72.237 111.8 63.312L131.966 64.8Z" fill="#263238"/>
<path d="M126.83 79.344C127.094 82.37 127.389 85.395 127.715 88.419C127.873 89.927 128.038 91.437 128.21 92.949L128.468 95.214L128.6 96.345C128.642 96.723 128.72 97.095 128.777 97.47C129.275 100.47 130.043 105.912 130.577 108.903C131.111 111.894 131.699 114.876 132.317 117.852C131.917 114.84 131.485 111.834 131.021 108.834C130.553 105.834 129.821 100.386 129.305 97.392C129.245 97.017 129.167 96.645 129.122 96.27L128.984 95.139L128.699 92.88C128.511 91.374 128.311 89.869 128.099 88.365C127.711 85.353 127.288 82.346 126.83 79.344Z" fill="black"/>
<path d="M112.841 78.486C112.523 81.309 112.355 84.15 112.241 86.988C112.127 89.826 112.007 92.688 112.115 95.511C112.223 98.334 112.256 103.11 112.364 105.951C112.472 108.792 112.598 111.627 112.766 114.462C112.812 111.62 112.821 108.78 112.793 105.942C112.775 103.104 112.724 98.346 112.664 95.508L112.613 93.381L112.598 92.847V92.319V91.257L112.652 87L112.721 82.743C112.748 81.324 112.793 79.905 112.841 78.486Z" fill="black"/>
<path d="M121.61 81.948L120.377 75.03C120.377 75.03 116.948 74.529 115.19 72.951C115.19 72.951 116.324 75.051 119.558 75.855L120.8 81.969L120.149 92.4L121.61 81.948Z" fill="black"/>
<path d="M106.7 43.2C106.724 42.6 107 42.126 107.726 41.64C108.293 41.3078 108.792 40.871 109.196 40.353C109.595 39.819 110.273 38.823 110.681 38.49C111.089 38.157 110.6 37.683 109.883 37.767C109.166 37.851 107.543 38.667 107.153 39.531C106.763 40.395 106.505 42.228 106.7 43.2Z" fill="#F28F8F"/>
<path d="M116.03 40.347C114.38 40.473 112.406 40.473 110.696 43.629C108.932 46.89 107.465 49.461 107.465 49.461C107.121 47.9533 106.889 46.4221 106.772 44.88C106.631 42.618 106.691 41.628 107.408 40.329C108.427 38.9153 109.346 37.4328 110.159 35.892C108.894 35.957 107.636 36.1306 106.4 36.411C106.204 36.4542 106.033 36.5727 105.923 36.741C105.86 36.867 105.863 37.02 105.803 37.149C105.704 37.3242 105.545 37.4582 105.356 37.527C104.978 37.707 104.537 37.866 104.357 38.244C104.258 38.454 104.258 38.703 104.174 38.919C104.03 39.282 103.685 39.519 103.415 39.765C103.118 40.1032 102.926 40.5199 102.86 40.965C102.284 43.293 102.128 45.66 102.128 49.269C102.128 51.774 102.278 55.203 103.136 57.099C103.994 58.995 105.719 61.137 108.251 58.599C110.783 56.061 115.199 49.026 115.199 49.026L116.03 40.347Z" fill="#FFA8A7"/>
<path d="M107.687 39.9C107.26 40.0644 106.863 40.2975 106.511 40.59C106.61 40.7869 106.663 41.0039 106.666 41.2243C106.668 41.4447 106.621 41.6628 106.526 41.862C106.226 42.63 105.65 42.927 105.794 43.662C105.787 43.4262 105.845 43.1931 105.964 42.9893C106.083 42.7855 106.257 42.6194 106.466 42.51C107.3 42 107.786 40.344 107.687 39.9Z" fill="#F28F8F"/>
<path d="M115.856 40.242C114.287 40.41 112.679 40.497 111.131 42.618C109.583 44.739 107.408 49.218 107.408 49.218L107.465 49.47C107.465 49.47 108.74 51.09 108.998 54.288C109.081 55.2116 108.971 56.1423 108.673 57.0206C108.376 57.8989 107.898 58.7053 107.27 59.388C107.039 59.5316 106.787 59.6389 106.523 59.706C106.523 59.706 107.153 60.168 108.068 59.523C108.983 58.878 116.03 48.768 116.03 48.768L115.856 40.242Z" fill="#F0F0F0"/>
<path d="M107.366 49.011L107.465 49.461C107.465 49.461 108.296 52.371 107.237 54.579C106.178 56.787 104.651 57.012 103.856 56.943C102.983 56.868 102.695 55.803 102.695 55.803L102.533 55.056C102.425 55.1428 102.347 55.2625 102.312 55.3971C102.277 55.5317 102.286 55.6741 102.338 55.803C102.672 56.731 103.073 57.6334 103.538 58.503C104.021 59.376 105.638 60.636 107.03 59.868C108.422 59.1 109.289 57.213 109.289 54.705C109.289 52.197 108.713 50.598 108.323 50.064C107.933 49.53 107.24 48.39 107.24 48.39L107.366 49.011Z" fill="#E0E0E0"/>
<path d="M132.275 41.562C132.275 41.562 134.486 43.392 133.442 47.889C132.772 50.8235 132.304 53.8005 132.041 56.799C131.879 59.169 132.146 67.161 132.146 67.161C128.561 71.445 113.57 70.35 111.71 66.45C111.71 66.45 111.497 51.288 112.853 45.918C113.621 42.876 114.701 41.118 115.853 40.242L120.953 39.042L125.582 38.985L132.275 41.562Z" fill="#E6E6E6"/>
<path d="M130.211 15.924C130.322 15.7442 130.396 15.5443 130.43 15.3357C130.464 15.1271 130.456 14.9139 130.407 14.7083C130.358 14.5027 130.27 14.3087 130.146 14.1375C130.022 13.9662 129.866 13.8209 129.686 13.71C129.506 13.5991 129.306 13.5247 129.098 13.4911C128.889 13.4575 128.676 13.4652 128.47 13.514C128.265 13.5627 128.071 13.6515 127.9 13.7752C127.728 13.8989 127.583 14.0552 127.472 14.235L126.623 15.615C126.56 15.7423 126.531 15.8844 126.541 16.0263C126.551 16.1683 126.599 16.3049 126.68 16.422C126.886 16.7606 127.169 17.0458 127.505 17.2543C127.842 17.4628 128.223 17.5888 128.618 17.622C128.758 17.6415 128.9 17.6241 129.03 17.5714C129.161 17.5188 129.275 17.4328 129.362 17.322L130.211 15.942V15.924Z" fill="#455A64"/>
<path d="M128.618 17.616C128.758 17.6356 128.9 17.6181 129.03 17.5655C129.161 17.5128 129.275 17.4268 129.362 17.316L130.211 15.936C130.355 15.7029 130.436 15.437 130.449 15.1635C130.461 14.89 130.403 14.6179 130.28 14.373C130.424 14.805 130.016 15.459 129.545 16.224C129.074 16.989 128.495 17.355 127.337 16.707C126.494 16.236 126.596 15.72 126.716 15.474L126.623 15.627C126.56 15.7544 126.531 15.8964 126.541 16.0383C126.551 16.1803 126.599 16.3169 126.68 16.434C126.888 16.7693 127.171 17.0509 127.508 17.2562C127.845 17.4616 128.225 17.5848 128.618 17.616Z" fill="#37474F"/>
<path d="M130.124 22.527C130.8 21.399 131.004 20.05 130.692 18.7726C130.38 17.4951 129.577 16.3921 128.458 15.7025C127.338 15.013 125.991 14.7926 124.71 15.089C123.429 15.3854 122.316 16.1748 121.613 17.286C121.226 17.916 121.253 18.786 121.79 19.791C122.861 21.774 125.555 23.433 127.808 23.496C128.933 23.529 129.734 23.157 130.124 22.527Z" fill="#459AE9"/>
<path d="M129.947 20.022C128.876 18.042 126.182 16.38 123.929 16.317C122.804 16.284 122 16.659 121.613 17.286L102.908 47.649C102.521 48.279 102.551 49.149 103.085 50.154C104.156 52.137 106.85 53.796 109.103 53.862C110.228 53.892 111.032 53.52 111.419 52.893L130.124 22.527C130.511 21.9 130.481 21.015 129.947 20.022Z" fill="#459AE9"/>
<path opacity="0.2" d="M129.947 20.022C128.876 18.042 126.182 16.38 123.929 16.317C122.804 16.284 122 16.659 121.613 17.286L102.908 47.649C102.521 48.279 102.551 49.149 103.085 50.154C104.156 52.137 106.85 53.796 109.103 53.862C110.228 53.892 111.032 53.52 111.419 52.893L130.124 22.527C130.511 21.9 130.481 21.015 129.947 20.022Z" fill="white"/>
<path d="M108.047 55.764C105.731 55.698 102.962 53.991 101.861 51.954C101.312 50.934 101.282 50.025 101.681 49.38L103.118 47.043C103.517 46.398 104.342 46.014 105.5 46.047C107.816 46.113 110.585 47.82 111.686 49.857C112.235 50.877 112.265 51.786 111.866 52.434L110.429 54.768C110.03 55.413 109.205 55.8 108.047 55.764Z" fill="#459AE9"/>
<path opacity="0.35" d="M108.047 55.764C105.731 55.698 102.962 53.991 101.861 51.954C101.312 50.934 101.282 50.025 101.681 49.38L103.118 47.043C103.517 46.398 104.342 46.014 105.5 46.047C107.816 46.113 110.585 47.82 111.686 49.857C112.235 50.877 112.265 51.786 111.866 52.434L110.429 54.768C110.03 55.413 109.205 55.8 108.047 55.764Z" fill="white"/>
<path d="M104.06 48.384C106.376 48.45 109.145 50.154 110.246 52.194C110.798 53.211 110.825 54.12 110.426 54.768C110.027 55.416 109.205 55.797 108.047 55.7641C105.731 55.6981 102.962 53.991 101.861 51.954C101.312 50.934 101.282 50.0251 101.681 49.3801C102.08 48.7351 102.902 48.351 104.06 48.384Z" fill="#459AE9"/>
<path opacity="0.15" d="M104.06 48.384C106.376 48.45 109.145 50.154 110.246 52.194C110.798 53.211 110.825 54.12 110.426 54.768C110.027 55.416 109.205 55.797 108.047 55.7641C105.731 55.6981 102.962 53.991 101.861 51.954C101.312 50.934 101.282 50.0251 101.681 49.3801C102.08 48.7351 102.902 48.351 104.06 48.384Z" fill="black"/>
<path d="M85.0643 77.661C85.4093 77.103 86.1233 76.761 87.1283 76.8C89.1323 76.857 91.5323 78.333 92.4863 80.1C92.9633 80.982 92.9873 81.771 92.6423 82.329L91.4933 83.457C91.2628 83.6617 90.9923 83.8164 90.6991 83.9114C90.4058 84.0064 90.096 84.0397 89.7893 84.009C87.9413 83.958 85.7333 82.596 84.8543 80.97C84.6893 80.7097 84.58 80.4181 84.533 80.1135C84.486 79.8089 84.5024 79.4979 84.5813 79.2L85.0643 77.661Z" fill="#459AE9"/>
<g opacity="0.15">
<path d="M85.0643 77.661C85.4093 77.103 86.1233 76.761 87.1283 76.8C89.1323 76.857 91.5323 78.333 92.4863 80.1C92.9633 80.982 92.9873 81.771 92.6423 82.329L91.4933 83.457C91.2628 83.6617 90.9923 83.8164 90.6991 83.9114C90.4058 84.0064 90.096 84.0397 89.7893 84.009C87.9413 83.958 85.7333 82.596 84.8543 80.97C84.6893 80.7097 84.58 80.4181 84.533 80.1135C84.486 79.8089 84.5024 79.4979 84.5813 79.2L85.0643 77.661Z" fill="black"/>
</g>
<path d="M87.1282 76.8C89.1322 76.857 91.5322 78.333 92.4862 80.1C92.9632 80.982 92.9872 81.771 92.6422 82.329L109.511 54.945C109.856 54.384 109.832 53.595 109.355 52.713C108.401 50.946 106.004 49.47 103.997 49.413C102.995 49.383 102.278 49.713 101.933 50.274L85.0642 77.661C85.4002 77.1 86.1232 76.77 87.1282 76.8Z" fill="#459AE9"/>
<path d="M91.3463 83.556C91.6673 83.058 91.6463 82.356 91.2143 81.546C90.3593 79.965 88.1993 78.648 86.3933 78.603C85.4933 78.582 84.8603 78.87 84.5543 79.371V79.386C83.4803 81.144 81.3683 86.454 81.6203 89.1L81.6683 89.13C81.677 89.2747 81.7191 89.4153 81.7913 89.541C81.9841 89.8517 82.2477 90.1124 82.5605 90.3017C82.8734 90.491 83.2266 90.6035 83.5913 90.63C83.7299 90.6353 83.868 90.6107 83.9963 90.558C86.4623 89.598 90.2783 85.29 91.3463 83.556Z" fill="#459AE9"/>
<path opacity="0.2" d="M109.355 52.713C109.175 52.3859 108.959 52.0791 108.713 51.798L91.8442 79.2C92.0911 79.4806 92.3064 79.7874 92.4862 80.115C92.5162 80.172 92.5402 80.229 92.5672 80.286L109.439 52.899C109.4 52.827 109.4 52.77 109.355 52.713ZM112.091 50.961C112.075 50.8668 112.053 50.7736 112.025 50.682L128.663 23.682C130.847 20.139 130.838 18.648 130.046 17.181C130.517 18.63 128.516 21.855 128.246 22.281L111.476 49.5C111.551 49.617 111.62 49.734 111.686 49.851L110.246 52.188C110.436 52.5323 110.573 52.9036 110.651 53.289L112.091 50.961ZM82.7722 90.432L83.6482 90.039C83.6482 90.039 84.2842 90.105 86.1802 88.38C88.0762 86.655 89.2192 84.78 91.2142 81.546C91.0012 81.1655 90.7378 80.8153 90.4312 80.505C90.4102 80.547 88.1872 84.855 85.4002 87.9C84.5725 88.8218 83.6413 89.6452 82.6252 90.354C82.6732 90.381 82.7212 90.408 82.7722 90.432Z" fill="white"/>
<path d="M82.3222 89.223L81.6232 90.357C81.3232 90.852 80.8282 92.25 81.2212 92.493C81.6142 92.736 82.6432 91.668 82.9492 91.173L83.6482 90.042C83.6482 90.042 83.6332 89.742 83.1112 89.442C82.5892 89.142 82.3222 89.223 82.3222 89.223Z" fill="#455A64"/>
<path d="M81.7282 92.4C81.7151 92.3295 81.6874 92.2625 81.6469 92.2034C81.6063 92.1443 81.5538 92.0943 81.4928 92.0567C81.4317 92.0191 81.3634 91.9947 81.2924 91.9851C81.2213 91.9755 81.149 91.981 81.0802 92.001C81.0562 92.235 81.1012 92.421 81.2212 92.496C81.3412 92.571 81.5242 92.523 81.7282 92.4Z" fill="#263238"/>
<path d="M110.15 35.892C110.579 35.892 111.371 36.354 111.992 36.759C112.613 37.164 113.192 37.194 112.988 37.659C112.896 37.7895 112.772 37.8932 112.627 37.9596C112.482 38.026 112.322 38.0528 112.163 38.037C111.819 38.0231 111.478 37.9594 111.152 37.848C111.887 38.481 112.052 38.733 111.833 38.955C111.533 39.276 110.987 39.237 110.543 39.018C110.792 39.273 111.074 39.405 110.945 39.648C110.816 39.891 110.363 39.966 109.835 39.87C109.497 39.8116 109.172 39.6971 108.872 39.531C108.311 39.681 107.687 39.897 107.687 39.897C108.268 38.4284 109.101 37.0729 110.15 35.892Z" fill="#FFA8A7"/>
<path d="M110.543 39C110.243 38.829 109.943 38.613 109.643 38.436C109.339 38.2768 108.987 38.2382 108.656 38.328C108.311 38.37 107.966 38.436 107.621 38.502C107.276 38.568 106.931 38.622 106.58 38.667C106.916 38.571 107.258 38.487 107.603 38.403C107.948 38.319 108.29 38.253 108.641 38.202C108.819 38.1768 108.999 38.1668 109.178 38.172C109.364 38.1824 109.542 38.2448 109.694 38.352C110 38.562 110.264 38.79 110.543 39Z" fill="#F28F8F"/>
<path d="M111.152 37.836C110.885 37.665 110.618 37.494 110.345 37.335C110.207 37.26 110.069 37.173 109.934 37.116C109.789 37.0744 109.637 37.0601 109.487 37.074C109.187 37.074 108.86 37.131 108.548 37.17C108.236 37.209 107.918 37.251 107.6 37.278C107.9 37.197 108.218 37.131 108.533 37.071C108.847 37.0101 109.165 36.9691 109.484 36.948C109.65 36.9357 109.818 36.956 109.976 37.008C110.122 37.0776 110.263 37.1588 110.396 37.251C110.661 37.4282 110.914 37.6237 111.152 37.836Z" fill="#F28F8F"/>
<path d="M126.782 25.47C126.782 25.47 127.781 25.47 128.513 26.694C128.882 27.294 129.191 28.437 128.513 31.794C128.254 33.0957 127.8 34.3508 127.166 35.517C126.983 35.8945 126.66 36.1861 126.266 36.33L126.17 33.801L126.152 32.037C126.152 32.037 124.925 30.567 124.721 29.31C124.46 27.696 124.76 27.009 124.76 27.009L126.782 25.47Z" fill="#37474F"/>
<path d="M127.133 25.533C126.794 24.129 124.886 22.554 121.403 22.59C118.55 22.623 116.948 23.706 116.066 25.428C115.184 27.15 115.973 29.256 115.973 29.256L124.871 28.098L127.133 25.533Z" fill="#37474F"/>
<path d="M128.522 34.377C127.565 34.95 126.593 34.101 126.593 34.101L126.731 39.318C126.731 39.318 126.692 40.329 125.147 41.313C122.957 42.708 121.997 43.071 121.109 44.469C120.233 42.273 119.333 41.067 120.677 39.276L120.605 38.076C120.084 38.1428 119.557 38.1598 119.033 38.127C117.863 38.019 117.077 37.146 116.651 35.913C116.024 34.089 115.631 31.134 116.129 27.93C116.219 27.3086 116.522 26.7379 116.987 26.316C119.159 24.393 121.808 25.533 123.794 26.163C124.601 26.3885 125.461 26.3302 126.23 25.998C125.603 26.787 125.33 27.528 125.525 31.116C125.664 31.3548 125.847 31.5646 126.065 31.734C126.512 32.076 126.797 31.101 127.13 30.708C127.293 30.5514 127.49 30.4349 127.706 30.3677C127.922 30.3005 128.151 30.2845 128.374 30.3209C128.597 30.3572 128.809 30.445 128.992 30.5773C129.176 30.7096 129.326 30.8827 129.431 31.083C129.59 31.3585 129.692 31.6627 129.732 31.9781C129.773 32.2934 129.75 32.6136 129.665 32.9201C129.581 33.2266 129.436 33.5132 129.24 33.7633C129.044 34.0134 128.8 34.222 128.522 34.377Z" fill="#FFA8A7"/>
<path d="M121.862 29.055L123.176 29.529C123.236 29.3499 123.225 29.1543 123.143 28.9836C123.062 28.8129 122.918 28.6804 122.741 28.614C122.654 28.5832 122.563 28.5703 122.471 28.5759C122.379 28.5816 122.29 28.6058 122.207 28.647C122.125 28.6882 122.052 28.7455 121.993 28.8157C121.934 28.8858 121.889 28.9672 121.862 29.055Z" fill="#37474F"/>
<path d="M117.011 29.433L118.337 28.956C118.31 28.8683 118.266 28.7869 118.206 28.7169C118.147 28.6468 118.074 28.5896 117.991 28.5486C117.909 28.5077 117.82 28.4839 117.728 28.4786C117.636 28.4733 117.544 28.4868 117.458 28.518C117.281 28.5845 117.136 28.7164 117.052 28.8866C116.969 29.0568 116.955 29.2523 117.011 29.433Z" fill="#37474F"/>
<path d="M122.684 30.402C122.688 30.5148 122.658 30.6261 122.598 30.7218C122.538 30.8175 122.451 30.8933 122.348 30.9396C122.245 30.9859 122.131 31.0006 122.02 30.9819C121.909 30.9632 121.805 30.9118 121.723 30.8344C121.641 30.757 121.584 30.6569 121.559 30.5469C121.534 30.4369 121.542 30.3219 121.582 30.2165C121.622 30.1111 121.693 30.02 121.785 29.9547C121.877 29.8895 121.986 29.853 122.099 29.85C122.174 29.8476 122.248 29.86 122.318 29.8865C122.388 29.913 122.452 29.953 122.506 30.0043C122.561 30.0556 122.605 30.1172 122.635 30.1854C122.666 30.2537 122.682 30.3273 122.684 30.402Z" fill="#263238"/>
<path d="M118.448 30.462C118.451 30.5742 118.422 30.6848 118.362 30.7801C118.303 30.8754 118.217 30.9511 118.115 30.9977C118.013 31.0443 117.9 31.0598 117.789 31.0422C117.678 31.0246 117.575 30.9747 117.492 30.8987C117.41 30.8228 117.352 30.7241 117.325 30.6152C117.298 30.5063 117.304 30.3919 117.342 30.2863C117.38 30.1807 117.448 30.0887 117.538 30.0218C117.628 29.9549 117.736 29.916 117.848 29.91C117.926 29.8976 118.005 29.9028 118.08 29.9254C118.155 29.948 118.224 29.9874 118.282 30.0405C118.34 30.0936 118.385 30.1592 118.413 30.2322C118.442 30.3052 118.454 30.3838 118.448 30.462Z" fill="#263238"/>
<path d="M120.524 29.274L120.287 32.916L118.331 32.334C118.824 31.1629 119.573 30.1172 120.524 29.274Z" fill="#F28F8F"/>
<path d="M125.54 30.825C125.453 33.309 124.601 33.492 123.722 33.645C122.555 33.852 121.973 33.228 119.885 33.255C118.619 33.27 118.226 33.651 117.509 33.957C116.981 34.182 116.546 34.122 116.336 33.657C116.046 32.7949 115.9 31.8907 115.904 30.981C115.816 32.3377 115.867 33.6998 116.057 35.046C116.243 36.21 116.681 37.203 117.332 37.746C118.232 38.49 120.101 38.775 122.432 38.232C124.763 37.689 125.63 36.708 125.903 35.88C126.779 33.18 126.407 31.932 126.707 31.422C127.007 30.912 125.54 30.825 125.54 30.825Z" fill="#37474F"/>
<path d="M120.179 33.996C121.379 33.957 121.763 34.167 121.829 34.983C121.925 36.15 121.874 36.543 121.427 36.609C120.902 36.69 120.527 36.726 120.494 36.393C120.444 36.1428 120.467 35.8835 120.56 35.646C120.743 35.418 120.677 35.388 120.155 35.406C119.633 35.424 119.639 35.517 119.798 35.676C119.912 35.793 119.906 36.192 119.909 36.423C119.912 36.654 119.855 36.774 119.102 36.723C118.445 36.669 118.55 36.141 118.55 35.136C118.55 34.449 118.829 34.041 120.179 33.996Z" fill="#FFA8A7"/>
<path d="M121.31 34.164L119.372 34.464C119.385 34.5927 119.424 34.7174 119.487 34.8306C119.55 34.9438 119.635 35.0431 119.737 35.1227C119.838 35.2023 119.956 35.2604 120.081 35.2937C120.206 35.3269 120.336 35.3345 120.464 35.316C120.727 35.2717 120.963 35.1266 121.121 34.9115C121.279 34.6965 121.347 34.4283 121.31 34.164Z" fill="#B16668"/>
<path d="M121.058 34.461C121.138 34.4565 121.217 34.4626 121.295 34.479C121.26 34.6861 121.16 34.8771 121.012 35.0254C120.863 35.1737 120.671 35.2722 120.464 35.307C120.36 35.3251 120.253 35.3251 120.149 35.307C120.163 35.0763 120.265 34.8597 120.434 34.7022C120.604 34.5446 120.827 34.4583 121.058 34.461Z" fill="#F28F8F"/>
<path d="M120.164 44.289C120.164 44.289 119.3 42.663 119.297 42.024L120.329 40.947L120.665 43.608L120.164 44.289Z" fill="#459AE9"/>
<path opacity="0.2" d="M120.164 44.289C120.164 44.289 119.3 42.663 119.297 42.024L120.329 40.947L120.665 43.608L120.164 44.289Z" fill="black"/>
<path d="M121.58 43.71L123.344 42.498L124.826 43.485L122.114 44.886L121.58 43.71Z" fill="#459AE9"/>
<path opacity="0.2" d="M121.58 43.71L123.344 42.498L124.826 43.485L122.114 44.886L121.58 43.71Z" fill="black"/>
<path d="M122.825 60.096C122.657 54.396 121.385 47.157 121.484 45.771L120.515 45.681C119.852 47.346 118.373 56.586 118.442 60.522C118.4 61.896 119.741 64.422 120.665 64.464C121.589 64.506 122.849 60.93 122.825 60.096Z" fill="#459AE9"/>
<path opacity="0.1" d="M122.825 60.096C122.657 54.396 121.385 47.157 121.484 45.771L120.515 45.681C119.852 47.346 118.373 56.586 118.442 60.522C118.4 61.896 119.741 64.422 120.665 64.464C121.589 64.506 122.849 60.93 122.825 60.096Z" fill="white"/>
<path opacity="0.5" d="M120.44 45.9C120.47 45.813 120.488 45.756 120.515 45.69L121.484 45.78C121.477 45.9219 121.477 46.0641 121.484 46.206C121.112 46.2208 120.745 46.1133 120.44 45.9Z" fill="black"/>
<path d="M121.604 43.575C121.301 43.5301 120.994 43.5191 120.689 43.542C120.463 43.751 120.284 44.0056 120.164 44.289C120.178 44.7731 120.298 45.2481 120.515 45.681C120.661 45.7651 120.822 45.8166 120.99 45.8322C121.157 45.8477 121.326 45.8268 121.484 45.771C121.802 45.5336 122.043 45.2082 122.177 44.835C122.157 44.3564 121.952 43.9044 121.604 43.575Z" fill="#459AE9"/>
<path opacity="0.1" d="M121.604 43.575C121.301 43.5301 120.994 43.5191 120.689 43.542C120.463 43.751 120.284 44.0056 120.164 44.289C120.178 44.7731 120.298 45.2481 120.515 45.681C120.661 45.7651 120.822 45.8166 120.99 45.8322C121.157 45.8477 121.326 45.8268 121.484 45.771C121.802 45.5336 122.043 45.2082 122.177 44.835C122.157 44.3564 121.952 43.9044 121.604 43.575Z" fill="white"/>
<path d="M121.586 43.572C121.616 43.572 121.658 43.644 121.688 43.65C122.36 43.278 122.465 43.155 122.645 43.203C122.984 43.296 123.8 44.703 124.004 45.153C124.208 45.603 124.172 45.603 124.79 45.183C125.875 44.4368 126.82 43.5045 127.58 42.429C128.057 41.738 128.427 40.9783 128.675 40.176C128.675 40.176 127.955 39.204 127.742 38.832C127.331 38.112 127.103 37.824 126.692 37.89V38.361C126.626 38.994 125.975 39.603 125.102 40.374C124.229 41.145 122.81 41.874 122.477 42.216C122.126 42.6298 121.827 43.0853 121.586 43.572Z" fill="#F5F5F5"/>
<path d="M118.4 44.145C118.502 44.4 119.3 42.378 119.699 42.414C119.891 42.429 120.335 42.969 120.701 43.542H120.977C120.766 43.0531 120.62 42.5388 120.542 42.012C120.452 41.328 120.701 39.285 120.701 39.285L120.641 38.496L120.287 38.511C120.158 38.6568 120.042 38.8145 119.942 38.982C119.558 39.63 118.553 41.13 118.442 41.898C118.302 42.6393 118.288 43.399 118.4 44.145Z" fill="#F5F5F5"/>
<path d="M124.436 55.422C123.974 54.924 123.58 54.366 123.266 53.763C122.861 52.998 122.714 52.482 122.414 51.855L122.114 51.255C122.094 51.2025 122.062 51.1552 122.021 51.117C121.968 51.0823 121.906 51.0651 121.843 51.0678C121.78 51.0705 121.72 51.093 121.67 51.132C121.497 51.2465 121.357 51.4028 121.261 51.5864C121.165 51.77 121.117 51.9749 121.121 52.182C121.135 52.5955 121.201 53.0057 121.316 53.403C121.373 53.667 121.631 54.642 121.631 54.642L124.436 55.422Z" fill="#F28F8F"/>
<path d="M137 45.0721C136.013 42.7441 134.774 42.3931 131.486 41.4481C129.704 44.4931 131.033 50.4091 131.033 50.4091L132.533 57.4051C132.533 57.4051 127.4 57.2461 126.494 56.8291C125.588 56.4121 123.026 54.3211 122.18 53.7061C121.025 52.8721 120.539 53.0731 120.032 53.2201C118.373 53.7091 118.019 53.9041 117.692 54.1831C117.597 54.271 117.525 54.3818 117.483 54.5051C117.442 54.6284 117.432 54.7601 117.455 54.8881C117.011 55.0051 116.336 55.0861 116.351 55.8361C116.342 56.0377 116.361 56.2398 116.408 56.4361C116.296 56.4705 116.201 56.544 116.138 56.6431C115.823 57.1291 116.672 58.5421 117.131 58.8511C117.455 59.0701 117.866 59.0461 118.394 58.8991C118.841 58.7731 118.565 58.3381 118.565 58.3381L119.207 58.2871C120.722 59.0761 121.061 60.8791 122.942 61.0531C123.708 61.0897 124.47 61.1738 125.225 61.3051C129.332 62.0821 133.367 64.4701 136.904 64.2871C140.357 64.1071 140.009 62.3011 139.772 60.2041C139.577 58.3321 138.131 47.7301 137 45.0721Z" fill="#FFA8A7"/>
<path d="M132.398 56.7L132.548 57.396C134.156 57.579 135.989 58.467 136.478 59.265C136.004 57.966 135.233 57.06 132.398 56.7Z" fill="#F28F8F"/>
<path d="M131.414 41.217C132.614 41.574 134.735 41.931 135.659 42.852C136.583 43.773 137.201 44.313 137.927 47.352C138.653 50.391 139.541 57.624 139.928 58.908C140.315 60.192 140.63 61.05 139.928 61.833C139.061 59.514 136.607 57.534 132.551 57.396C131.882 57.396 132.038 56.565 131.801 55.794C131.564 55.023 130.682 50.475 130.301 48.963C129.92 47.451 129.365 42.822 131.414 41.217Z" fill="#F0F0F0"/>
<path d="M132.062 57.0601L131.966 57.3601C133.353 57.7548 134.632 58.4607 135.704 59.4241C137.291 60.9421 137.651 62.1871 137.732 62.9821C137.813 63.7771 137.732 64.2511 137.132 64.2751L136.583 64.2961C136.583 64.2961 136.697 64.5961 137.735 64.5121C138.635 64.4401 139.505 64.1881 139.931 63.2611C140.126 62.8941 140.237 62.4885 140.256 62.0735C140.275 61.6585 140.202 61.2445 140.042 60.8611C139.742 60.0271 138.947 58.5541 136.481 57.5341C134.456 56.7001 132.062 57.0601 132.062 57.0601Z" fill="#E0E0E0"/>
<path d="M117.47 54.9001L119.426 54.2131L117.473 54.6001C117.452 54.6989 117.451 54.8009 117.47 54.9001Z" fill="#F28F8F"/>
<path d="M116.423 56.433L118.7 55.8L116.384 56.151C116.387 56.2462 116.4 56.3408 116.423 56.433Z" fill="#F28F8F"/>
<path d="M116.87 57.411C116.962 57.5186 117.083 57.5977 117.218 57.639C117.352 57.6844 117.491 57.7106 117.632 57.717L117.599 57.699C117.677 57.813 117.761 57.924 117.842 58.032L117.884 57.963C117.818 57.9603 117.752 57.9715 117.691 57.9958C117.629 58.02 117.574 58.0569 117.527 58.104C117.441 58.1947 117.386 58.3101 117.368 58.434C117.412 58.3245 117.481 58.2268 117.569 58.149C117.655 58.0818 117.761 58.0467 117.869 58.05H117.959L117.908 57.975C117.827 57.861 117.746 57.75 117.662 57.642V57.624H117.641C117.507 57.6193 117.373 57.6012 117.242 57.57C117.108 57.5465 116.98 57.4921 116.87 57.411Z" fill="#F28F8F"/>
<path d="M117.524 57.624C117.808 57.6212 118.091 57.6022 118.373 57.567C118.373 57.567 118.412 57.729 118.721 57.972C118.882 58.082 119.049 58.1822 119.222 58.272L118.58 58.323C118.477 58.2208 118.354 58.1412 118.219 58.0895C118.084 58.0379 117.939 58.0152 117.794 58.023L117.524 57.624Z" fill="#F28F8F"/>
</svg>
