<svg width="151" height="150" viewBox="0 0 151 150" fill="none" xmlns="http://www.w3.org/2000/svg">
<path d="M75.1 146.568C114.535 146.568 146.503 127.55 146.503 104.091C146.503 80.6316 114.535 61.614 75.1 61.614C35.6652 61.614 3.69702 80.6316 3.69702 104.091C3.69702 127.55 35.6652 146.568 75.1 146.568Z" fill="#F5F5F5"/>
<path d="M113.638 101.745L137.176 88.167C138.106 87.633 138.106 86.763 137.176 86.226L103.21 66.576C102.689 66.3112 102.112 66.1732 101.527 66.1732C100.942 66.1732 100.366 66.3112 99.8443 66.576L76.3003 80.154C75.3703 80.691 75.3703 81.561 76.3003 82.095L110.266 101.745C110.789 102.011 111.366 102.149 111.952 102.149C112.538 102.149 113.116 102.011 113.638 101.745Z" fill="#E0E0E0"/>
<path d="M53.7372 134.88L18.4662 114.546C17.4732 113.973 17.4732 113.046 18.4662 112.47L67.5372 84.135C68.095 83.852 68.7117 83.7045 69.3372 83.7045C69.9627 83.7045 70.5794 83.852 71.1372 84.135L106.408 104.469C107.401 105.042 107.401 105.969 106.408 106.545L57.3342 134.88C56.7768 135.163 56.1606 135.31 55.5357 135.31C54.9108 135.31 54.2946 135.163 53.7372 134.88Z" fill="#E0E0E0"/>
<path d="M72.8621 131.643L72.8951 131.604L74.6711 129.654V129.639C74.6805 129.627 74.6916 129.615 74.7041 129.606L74.7221 129.585C74.9771 129.342 75.3791 129.321 75.8321 129.585C76.2363 129.848 76.5729 130.202 76.8148 130.619C77.0566 131.036 77.1968 131.504 77.2241 131.985C77.2241 132.501 77.0141 132.837 76.6871 132.942H76.6661L76.5671 132.963H76.5431L73.9721 133.524C73.8153 133.55 73.6545 133.516 73.5221 133.428C73.2909 133.277 73.0984 133.074 72.9603 132.834C72.8222 132.595 72.7423 132.327 72.7271 132.051C72.7258 131.904 72.7732 131.76 72.8621 131.643Z" fill="#E0E0E0"/>
<path d="M114.43 113.682L76.9993 135.315L71.8153 136.371C71.7858 136.377 71.7552 136.374 71.7271 136.363C71.699 136.352 71.6746 136.334 71.6567 136.31C71.6388 136.285 71.6281 136.257 71.6259 136.227C71.6237 136.197 71.6301 136.167 71.6443 136.14L73.2673 133.161L110.701 111.525C111.724 110.934 115.231 113.22 114.43 113.682Z" fill="#E0E0E0"/>
<path d="M93.1301 131.352C93.5051 132.372 94.5941 133.008 96.4121 133.245L128.836 114.363L132.202 110.952C132.244 110.91 132.27 110.856 132.277 110.798C132.283 110.739 132.27 110.68 132.239 110.63C132.208 110.581 132.162 110.542 132.106 110.522C132.051 110.502 131.991 110.501 131.935 110.52L125.737 112.572L93.1301 131.352Z" fill="#E0E0E0"/>
<path d="M132.325 87.2219L111.448 99.0119L79.3872 80.6129L100.261 68.8229L132.325 87.2219Z" fill="#459AE9"/>
<path opacity="0.6" d="M132.325 87.2219L111.448 99.0119L79.3872 80.6129L100.261 68.8229L132.325 87.2219Z" fill="black"/>
<path d="M111.22 98.1509L131.395 86.6999C130.894 85.2779 130.93 84.8459 131.5 82.9529L111.448 94.2989C111.448 94.2989 111.082 94.2599 111.22 98.1509Z" fill="#F5F5F5"/>
<path d="M112.426 92.733C111.89 93.0791 111.444 93.5471 111.124 94.0988C110.804 94.6505 110.619 95.2701 110.584 95.907V98.4C110.584 99.567 111.409 100.041 112.426 99.459L132.322 88.155V87.237L112.678 98.337C112.078 98.685 111.571 98.403 111.574 97.701L111.589 95.493C111.611 95.1105 111.724 94.7387 111.916 94.4077C112.109 94.0767 112.377 93.7958 112.699 93.588L132.319 82.488V81.447L112.426 92.733Z" fill="#459AE9"/>
<path opacity="0.5" d="M112.426 92.733C111.89 93.0791 111.444 93.5471 111.124 94.0988C110.804 94.6505 110.619 95.2701 110.584 95.907V98.4C110.584 99.567 111.409 100.041 112.426 99.459L132.322 88.155V87.237L112.678 98.337C112.078 98.685 111.571 98.403 111.574 97.701L111.589 95.493C111.611 95.1105 111.724 94.7387 111.916 94.4077C112.109 94.0767 112.377 93.7958 112.699 93.588L132.319 82.488V81.447L112.426 92.733Z" fill="black"/>
<path d="M132.322 81.432L100.261 63.033L80.3682 74.334C79.8322 74.6801 79.3857 75.1481 79.0651 75.6997C78.7444 76.2513 78.5588 76.8709 78.5232 77.508V79.989C78.5232 80.571 78.7272 80.982 79.0632 81.174L111.124 99.57C110.788 99.378 110.584 98.97 110.584 98.388V95.904C110.62 95.2672 110.805 94.6479 111.125 94.0964C111.445 93.5448 111.891 93.0766 112.426 92.73L132.322 81.432Z" fill="#459AE9"/>
<path opacity="0.35" d="M132.322 81.432L100.261 63.033L80.3682 74.334C79.8322 74.6801 79.3857 75.1481 79.0651 75.6997C78.7444 76.2513 78.5588 76.8709 78.5232 77.508V79.989C78.5232 80.571 78.7272 80.982 79.0632 81.174L111.124 99.57C110.788 99.378 110.584 98.97 110.584 98.388V95.904C110.62 95.2672 110.805 94.6479 111.125 94.0964C111.445 93.5448 111.891 93.0766 112.426 92.73L132.322 81.432Z" fill="black"/>
<path d="M111.121 94.0979C110.791 94.6423 110.605 95.2618 110.581 95.8979V98.3999C110.581 98.9819 110.785 99.3899 111.121 99.5819L79.0632 81.1739C78.7272 80.9819 78.5232 80.5739 78.5232 79.9889V77.5079C78.5474 76.8718 78.7332 76.2523 79.0632 75.7079L111.121 94.0979Z" fill="#459AE9"/>
<path opacity="0.45" d="M111.121 94.0979C110.791 94.6423 110.605 95.2618 110.581 95.8979V98.3999C110.581 98.9819 110.785 99.3899 111.121 99.5819L79.0632 81.1739C78.7272 80.9819 78.5232 80.5739 78.5232 79.9889V77.5079C78.5474 76.8718 78.7332 76.2523 79.0632 75.7079L111.121 94.0979Z" fill="black"/>
<path d="M83.3953 78.162C82.7953 80.757 82.7953 81.762 83.3953 83.673L84.9193 84.555C84.3193 82.653 84.3193 81.639 84.9193 79.044L83.3953 78.162Z" fill="#459AE9"/>
<path d="M104.422 90.246C103.822 92.841 103.822 93.822 104.422 95.724L105.949 96.606C105.349 94.701 105.349 93.72 105.949 91.128L104.422 90.246Z" fill="#459AE9"/>
<path d="M136.537 81.123L115.66 92.913L83.5991 74.514L104.473 62.724L136.537 81.123Z" fill="#459AE9"/>
<path opacity="0.4" d="M136.537 81.123L115.66 92.913L83.5991 74.514L104.473 62.724L136.537 81.123Z" fill="black"/>
<path d="M115.432 92.049L135.607 80.589C135.106 79.167 135.142 78.531 135.709 76.638L115.66 87.981C115.66 87.981 115.3 88.158 115.432 92.049Z" fill="#F5F5F5"/>
<path d="M116.638 86.427C116.102 86.7733 115.656 87.2414 115.335 87.7929C115.015 88.3445 114.829 88.964 114.793 89.601V92.286C114.793 93.453 115.618 93.927 116.638 93.342L136.534 82.041V81.123L116.89 92.223C116.29 92.574 115.783 92.289 115.783 91.59L115.801 89.19C115.823 88.8077 115.934 88.436 116.127 88.105C116.319 87.774 116.587 87.493 116.908 87.285L136.531 76.185V75.144L116.638 86.427Z" fill="#459AE9"/>
<path opacity="0.25" d="M116.638 86.427C116.102 86.7733 115.656 87.2414 115.335 87.7929C115.015 88.3445 114.829 88.964 114.793 89.601V92.286C114.793 93.453 115.618 93.927 116.638 93.342L136.534 82.041V81.123L116.89 92.223C116.29 92.574 115.783 92.289 115.783 91.59L115.801 89.19C115.823 88.8077 115.934 88.436 116.127 88.105C116.319 87.774 116.587 87.493 116.908 87.285L136.531 76.185V75.144L116.638 86.427Z" fill="black"/>
<path d="M136.534 75.129L104.473 56.73L84.5771 68.031C84.0414 68.3771 83.5952 68.8452 83.275 69.3968C82.9549 69.9485 82.7699 70.5681 82.7351 71.205V73.905C82.7351 74.487 82.9391 74.895 83.2751 75.087L115.336 93.486C115 93.294 114.796 92.886 114.796 92.301V89.616C114.831 88.9791 115.016 88.3595 115.336 87.8078C115.656 87.2562 116.102 86.7881 116.638 86.442L136.534 75.129Z" fill="#459AE9"/>
<path d="M115.333 87.795C115.002 88.339 114.816 88.9587 114.793 89.5949V92.28C114.793 92.862 114.997 93.2729 115.333 93.4649L83.2751 75.072C82.9391 74.88 82.7351 74.472 82.7351 73.89V71.19C82.7585 70.5537 82.9444 69.934 83.2751 69.39L115.333 87.795Z" fill="#459AE9"/>
<path opacity="0.15" d="M115.333 87.795C115.002 88.339 114.816 88.9587 114.793 89.5949V92.28C114.793 92.862 114.997 93.2729 115.333 93.4649L83.2751 75.072C82.9391 74.88 82.7351 74.472 82.7351 73.89V71.19C82.7585 70.5537 82.9444 69.934 83.2751 69.39L115.333 87.795Z" fill="black"/>
<path d="M87.6041 71.856C87.0041 74.451 87.0041 75.672 87.6041 77.574L89.1311 78.456C88.5311 76.551 88.5311 75.333 89.1311 72.738L87.6041 71.856Z" fill="#459AE9"/>
<path d="M108.634 83.955C108.034 86.55 108.034 87.726 108.634 89.628L110.161 90.51C109.561 88.608 109.561 87.423 110.161 84.828L108.634 83.955Z" fill="#459AE9"/>
<g opacity="0.4">
<path d="M87.6041 71.856C87.0041 74.451 87.0041 75.672 87.6041 77.574L89.1311 78.456C88.5311 76.551 88.5311 75.333 89.1311 72.738L87.6041 71.856Z" fill="white"/>
<path d="M108.634 83.955C108.034 86.55 108.034 87.726 108.634 89.628L110.161 90.51C109.561 88.608 109.561 87.423 110.161 84.828L108.634 83.955Z" fill="white"/>
</g>
<path d="M23.6501 113.523L56.0771 131.946L103.111 104.946L70.6871 86.523L23.6501 113.523Z" fill="#459AE9"/>
<path opacity="0.4" d="M23.6501 113.523L56.0771 131.946L103.111 104.946L70.6871 86.523L23.6501 113.523Z" fill="black"/>
<path d="M56.3202 131.025L24.6432 112.953C25.1802 111.432 25.1382 110.751 24.5322 108.729L56.0772 126.678C56.0772 126.678 56.4672 126.867 56.3202 131.025Z" fill="#F5F5F5"/>
<path d="M55.0301 125.016C55.6027 125.386 56.0798 125.885 56.4224 126.474C56.7649 127.064 56.9632 127.726 57.0011 128.406V131.274C57.0011 132.525 56.1191 133.029 55.0301 132.405L23.6531 114.504V113.523L54.7631 131.196C55.4141 131.571 55.9421 131.268 55.9421 130.518L55.9241 127.941C55.9012 127.533 55.7822 127.136 55.5768 126.782C55.3714 126.429 55.0854 126.129 54.7421 125.907L23.6531 108.225V107.115L55.0301 125.016Z" fill="#459AE9"/>
<path opacity="0.3" d="M55.0301 125.016C55.6027 125.386 56.0798 125.885 56.4224 126.474C56.7649 127.064 56.9632 127.726 57.0011 128.406V131.274C57.0011 132.525 56.1191 133.029 55.0301 132.405L23.6531 114.504V113.523L54.7631 131.196C55.4141 131.571 55.9421 131.268 55.9421 130.518L55.9241 127.941C55.9012 127.533 55.7822 127.136 55.5768 126.782C55.3714 126.429 55.0854 126.129 54.7421 125.907L23.6531 108.225V107.115L55.0301 125.016Z" fill="black"/>
<path d="M23.6531 107.115L70.6871 80.115L102.064 98.016C102.637 98.3855 103.114 98.8853 103.456 99.4745C103.799 100.064 103.997 100.726 104.035 101.406V104.274C104.035 104.898 103.816 105.336 103.459 105.54L56.4221 132.54C56.7791 132.336 56.9981 131.895 56.9981 131.274V128.4C56.9603 127.72 56.7624 127.058 56.4204 126.469C56.0784 125.88 55.602 125.38 55.0301 125.01L23.6531 107.115Z" fill="#459AE9"/>
<path opacity="0.2" d="M23.6531 107.115L70.6871 80.115L102.064 98.016C102.637 98.3855 103.114 98.8853 103.456 99.4745C103.799 100.064 103.997 100.726 104.035 101.406V104.274C104.035 104.898 103.816 105.336 103.459 105.54L56.4221 132.54C56.7791 132.336 56.9981 131.895 56.9981 131.274V128.4C56.9603 127.72 56.7624 127.058 56.4204 126.469C56.0784 125.88 55.602 125.38 55.0301 125.01L23.6531 107.115Z" fill="black"/>
<path d="M56.425 126.477C56.7791 127.06 56.9775 127.724 57.001 128.406V131.277C57.001 131.898 56.782 132.339 56.425 132.543L103.462 105.543C103.819 105.339 104.038 104.901 104.038 104.277V101.4C104.013 100.718 103.815 100.055 103.462 99.471L56.425 126.477Z" fill="#459AE9"/>
<path d="M56.425 126.477C56.7796 127.06 56.978 127.724 57.001 128.406V131.277C57.001 131.898 56.782 132.336 56.425 132.543L103.459 105.543C103.819 105.339 104.035 104.898 104.038 104.277V101.4C104.015 100.718 103.817 100.054 103.462 99.471L56.425 126.477Z" fill="#459AE9"/>
<path d="M98.8302 102.108C99.4692 104.88 99.4602 106.182 98.8302 108.216L97.1982 109.158C97.8282 107.124 97.8372 105.822 97.1982 103.05L98.8302 102.108Z" fill="#459AE9"/>
<path d="M63.5831 122.367C64.2221 125.139 64.2131 126.402 63.5831 128.436L61.9541 129.369C62.5811 127.335 62.5901 126.069 61.9541 123.303L63.5831 122.367Z" fill="#459AE9"/>
<g opacity="0.4">
<path d="M98.83 102.108C99.469 104.88 99.46 106.182 98.83 108.216L97.198 109.158C97.828 107.124 97.837 105.822 97.198 103.05L98.83 102.108Z" fill="white"/>
<path d="M63.5831 122.367C64.2221 125.139 64.2131 126.402 63.5831 128.436L61.9541 129.369C62.5811 127.335 62.5901 126.069 61.9541 123.303L63.5831 122.367Z" fill="white"/>
</g>
<path d="M19.4951 107.292L51.9221 125.715L98.9561 98.715L66.5321 80.292L19.4951 107.292Z" fill="#459AE9"/>
<path opacity="0.2" d="M19.4951 107.292L51.9221 125.715L98.9561 98.715L66.5321 80.292L19.4951 107.292Z" fill="white"/>
<path d="M52.1652 124.8L20.5002 106.722C21.0372 105.201 20.9952 104.739 20.3892 102.717L51.9342 120.663C51.9342 120.663 52.3002 120.636 52.1652 124.8Z" fill="#F5F5F5"/>
<path d="M50.875 119.004C51.4477 119.374 51.9248 119.873 52.2673 120.462C52.6099 121.052 52.8082 121.714 52.846 122.394V125.043C52.846 126.294 51.964 126.798 50.875 126.174L19.498 108.273V107.292L50.608 124.965C51.259 125.34 51.787 125.037 51.787 124.287L51.769 121.929C51.7462 121.52 51.6272 121.123 51.4218 120.769C51.2164 120.415 50.9304 120.115 50.587 119.892L19.498 102.213V101.1L50.875 119.004Z" fill="#459AE9"/>
<path opacity="0.4" d="M50.875 119.004C51.4477 119.374 51.9248 119.873 52.2673 120.462C52.6099 121.052 52.8082 121.714 52.846 122.394V125.043C52.846 126.294 51.964 126.798 50.875 126.174L19.498 108.273V107.292L50.608 124.965C51.259 125.34 51.787 125.037 51.787 124.287L51.769 121.929C51.7462 121.52 51.6272 121.123 51.4218 120.769C51.2164 120.415 50.9304 120.115 50.587 119.892L19.498 102.213V101.1L50.875 119.004Z" fill="white"/>
<path d="M19.4951 101.1L66.5321 74.1L97.9001 92.004C98.4749 92.3734 98.954 92.8738 99.2981 93.4641C99.6423 94.0544 99.8417 94.7178 99.8801 95.4V98.049C99.8801 98.673 99.6611 99.111 99.3011 99.315L52.2671 126.3C52.6241 126.093 52.8431 125.655 52.8431 125.034V122.4C52.8054 121.719 52.6074 121.057 52.2655 120.468C51.9235 119.878 51.4471 119.378 50.8751 119.007L19.4951 101.1Z" fill="#459AE9"/>
<path opacity="0.85" d="M19.4951 101.1L66.5321 74.1L97.9001 92.004C98.4749 92.3734 98.954 92.8738 99.2981 93.4641C99.6423 94.0544 99.8417 94.7178 99.8801 95.4V98.049C99.8801 98.673 99.6611 99.111 99.3011 99.315L52.2671 126.3C52.6241 126.093 52.8431 125.655 52.8431 125.034V122.4C52.8054 121.719 52.6074 121.057 52.2655 120.468C51.9235 119.878 51.4471 119.378 50.8751 119.007L19.4951 101.1Z" fill="white"/>
<path d="M52.27 120.465C52.6246 121.048 52.823 121.712 52.846 122.394V125.046C52.846 125.667 52.627 126.105 52.27 126.312L99.304 99.3119C99.664 99.1079 99.883 98.6699 99.883 98.0459V95.3999C99.8588 94.7179 99.6594 94.0536 99.304 93.4709L52.27 120.465Z" fill="#459AE9"/>
<path opacity="0.6" d="M52.27 120.465C52.6246 121.048 52.823 121.712 52.846 122.394V125.046C52.846 125.667 52.627 126.105 52.27 126.312L99.304 99.3119C99.664 99.1079 99.883 98.6699 99.883 98.0459V95.3999C99.8588 94.7179 99.6594 94.0536 99.304 93.4709L52.27 120.465Z" fill="white"/>
<path d="M94.6752 96.0959C95.3142 98.8679 95.3052 99.9509 94.6752 101.985L93.0432 102.927C93.6732 100.893 93.6822 99.8099 93.0432 97.0349L94.6752 96.0959Z" fill="white"/>
<path d="M59.4281 116.346C60.0671 119.118 60.0581 120.168 59.4281 122.202L57.7961 123.141C58.4261 121.11 58.4351 120.06 57.7961 117.288L59.4281 116.346Z" fill="white"/>
<path d="M110.83 109.377C110.858 109.858 110.998 110.326 111.24 110.743C111.482 111.16 111.818 111.514 112.222 111.777C112.457 111.932 112.742 111.993 113.02 111.945C112.976 111.992 112.925 112.032 112.87 112.065L113.203 111.873H113.224L113.272 111.84C113.294 111.824 113.315 111.806 113.335 111.786L113.371 111.75L113.404 111.711C113.451 111.648 113.49 111.578 113.518 111.504C113.527 111.481 113.535 111.458 113.542 111.435C113.545 111.424 113.545 111.413 113.542 111.402C113.549 111.383 113.555 111.363 113.557 111.342C113.585 111.228 113.598 111.111 113.596 110.994C113.569 110.513 113.429 110.045 113.187 109.629C112.946 109.212 112.61 108.857 112.207 108.594C112.02 108.475 111.804 108.409 111.583 108.402H111.496L111.415 108.417H111.367H111.34L111.283 108.441L111.229 108.468L110.929 108.633C110.977 108.609 111.027 108.591 111.079 108.579C110.895 108.802 110.806 109.089 110.83 109.377Z" fill="#459AE9"/>
<path d="M74.8691 129.48L76.8281 132.9L77.1611 132.708L112.861 112.083C112.916 112.05 112.967 112.01 113.011 111.963C113.195 111.746 113.287 111.467 113.269 111.183C113.241 110.702 113.101 110.234 112.859 109.817C112.617 109.4 112.281 109.046 111.877 108.783C111.69 108.667 111.476 108.602 111.256 108.594C111.197 108.594 111.137 108.6 111.079 108.612C111.027 108.624 110.977 108.642 110.929 108.666H110.905L74.8691 129.48Z" fill="#F0F0F0"/>
<path d="M75.8499 129.579C75.0819 129.135 74.4609 129.495 74.4609 130.38C74.4881 130.861 74.628 131.329 74.8692 131.746C75.1105 132.163 75.4465 132.517 75.8499 132.78C76.6179 133.224 77.2419 132.864 77.2419 131.976C77.2142 131.495 77.0738 131.028 76.832 130.611C76.5902 130.195 76.2537 129.841 75.8499 129.579Z" fill="#459AE9"/>
<path d="M95.5901 118.983L95.6351 118.956C95.6892 118.938 95.7465 118.934 95.8027 118.942C95.8589 118.95 95.9124 118.972 95.9591 119.004C96.1027 119.098 96.2222 119.224 96.3082 119.373C96.3942 119.521 96.4441 119.688 96.4541 119.859C96.4585 119.915 96.4503 119.97 96.43 120.022C96.4098 120.074 96.378 120.121 96.3371 120.159L96.2771 120.195L75.1451 132.393L73.7561 131.589L95.5901 118.983Z" fill="#455A64"/>
<path d="M77.1161 131.253L75.1541 132.387L73.7651 131.583L76.4231 130.05C76.7354 130.398 76.9715 130.808 77.1161 131.253Z" fill="#37474F"/>
<path d="M72.163 132.57L73.774 130.8L73.816 130.752C73.9283 130.661 74.0687 130.611 74.2135 130.611C74.3583 130.611 74.4987 130.661 74.611 130.752C74.8966 130.939 75.1343 131.19 75.3047 131.485C75.4751 131.781 75.5736 132.112 75.592 132.453C75.6109 132.591 75.5846 132.732 75.517 132.854C75.4494 132.976 75.3442 133.073 75.217 133.131L75.154 133.146L72.793 133.659C72.7043 133.673 72.6136 133.653 72.538 133.605C72.4078 133.52 72.2995 133.405 72.2218 133.27C72.1442 133.135 72.0994 132.983 72.091 132.828C72.0803 132.736 72.1061 132.643 72.163 132.57Z" fill="#459AE9"/>
<path opacity="0.1" d="M72.163 132.57L73.774 130.8L73.816 130.752C73.9283 130.661 74.0687 130.611 74.2135 130.611C74.3583 130.611 74.4987 130.661 74.611 130.752C74.8966 130.939 75.1343 131.19 75.3047 131.485C75.4751 131.781 75.5736 132.112 75.592 132.453C75.6109 132.591 75.5846 132.732 75.517 132.854C75.4494 132.976 75.3442 133.073 75.217 133.131L75.154 133.146L72.793 133.659C72.7043 133.673 72.6136 133.653 72.538 133.605C72.4078 133.52 72.2995 133.405 72.2218 133.27C72.1442 133.135 72.0994 132.983 72.091 132.828C72.0803 132.736 72.1061 132.643 72.163 132.57Z" fill="black"/>
<path d="M72.0732 132.828C72.0819 132.983 72.1271 133.134 72.2054 133.269C72.2836 133.403 72.3925 133.518 72.5232 133.602C72.5976 133.65 72.6874 133.67 72.7752 133.656L73.9752 133.398C74.1612 133.356 74.2752 133.179 74.2752 132.897C74.2621 132.648 74.1906 132.406 74.0666 132.191C73.9425 131.975 73.7694 131.791 73.5612 131.655C73.4796 131.591 73.3786 131.555 73.2747 131.555C73.1707 131.555 73.0697 131.591 72.9882 131.655L72.9552 131.691L72.1572 132.567C72.1261 132.602 72.1026 132.644 72.0881 132.689C72.0737 132.734 72.0686 132.781 72.0732 132.828Z" fill="#459AE9"/>
<path opacity="0.1" d="M72.52 132.567C72.274 132.426 72.073 132.54 72.073 132.825C72.0814 132.98 72.1262 133.132 72.2038 133.267C72.2815 133.402 72.3898 133.517 72.52 133.602C72.769 133.743 72.967 133.629 72.967 133.344C72.9589 133.188 72.9141 133.037 72.8365 132.902C72.7588 132.767 72.6504 132.652 72.52 132.567Z" fill="black"/>
<path d="M107.935 111.846C107.991 111.819 108.052 111.808 108.114 111.814C108.175 111.82 108.233 111.842 108.283 111.879C108.426 111.972 108.546 112.098 108.631 112.246C108.717 112.394 108.766 112.56 108.775 112.731C108.782 112.793 108.772 112.855 108.746 112.912C108.72 112.969 108.679 113.017 108.628 113.052L96.346 120.153C96.3869 120.115 96.4187 120.068 96.439 120.016C96.4593 119.964 96.4675 119.909 96.463 119.853C96.4531 119.682 96.4031 119.515 96.3171 119.367C96.2312 119.218 96.1116 119.092 95.968 118.998C95.9214 118.966 95.8679 118.944 95.8117 118.936C95.7555 118.928 95.6981 118.933 95.644 118.95L107.935 111.846Z" fill="#FAFAFA"/>
<path d="M107.8 112.164C107.81 112.334 107.86 112.5 107.945 112.648C108.031 112.796 108.149 112.922 108.292 113.016C108.341 113.052 108.399 113.074 108.46 113.079C108.521 113.085 108.582 113.075 108.637 113.049C108.688 113.014 108.729 112.966 108.755 112.91C108.781 112.854 108.791 112.792 108.784 112.731C108.775 112.56 108.726 112.394 108.64 112.246C108.555 112.098 108.435 111.972 108.292 111.879C108.245 111.838 108.186 111.812 108.123 111.806C108.061 111.8 107.998 111.813 107.944 111.845C107.889 111.876 107.846 111.924 107.82 111.981C107.795 112.039 107.787 112.102 107.8 112.164Z" fill="#F5F5F5"/>
<path d="M108.892 110.058H108.91H108.931L110.983 108.858L111.031 108.831C111.17 108.777 111.32 108.759 111.467 108.777C111.615 108.795 111.756 108.85 111.877 108.936C112.242 109.173 112.545 109.494 112.762 109.871C112.98 110.248 113.105 110.67 113.128 111.105C113.144 111.261 113.119 111.418 113.054 111.56C112.989 111.703 112.887 111.825 112.759 111.915L110.683 113.115C110.542 113.174 110.389 113.196 110.237 113.179C110.085 113.162 109.941 113.107 109.816 113.019C109.452 112.781 109.149 112.461 108.932 112.084C108.714 111.707 108.589 111.284 108.565 110.85C108.549 110.701 108.571 110.551 108.628 110.413C108.685 110.274 108.776 110.152 108.892 110.058Z" fill="#459AE9"/>
<path opacity="0.05" d="M108.892 110.058H108.91H108.931L110.983 108.858L111.031 108.831C111.17 108.777 111.32 108.759 111.467 108.777C111.615 108.795 111.756 108.85 111.877 108.936C112.242 109.173 112.545 109.494 112.762 109.871C112.98 110.248 113.105 110.67 113.128 111.105C113.144 111.261 113.119 111.418 113.054 111.56C112.989 111.703 112.887 111.825 112.759 111.915L110.683 113.115C110.542 113.174 110.389 113.196 110.237 113.179C110.085 113.162 109.941 113.107 109.816 113.019C109.452 112.781 109.149 112.461 108.932 112.084C108.714 111.707 108.589 111.284 108.565 110.85C108.549 110.701 108.571 110.551 108.628 110.413C108.685 110.274 108.776 110.152 108.892 110.058Z" fill="black"/>
<path opacity="0.1" d="M109.801 110.13C109.111 109.731 108.55 110.052 108.55 110.85C108.574 111.284 108.699 111.707 108.917 112.084C109.134 112.461 109.437 112.781 109.801 113.019C110.491 113.418 111.052 113.094 111.052 112.296C111.028 111.862 110.903 111.44 110.685 111.063C110.468 110.687 110.165 110.367 109.801 110.13Z" fill="black"/>
<path d="M71.5 133.317L72.349 132.807C72.3739 132.792 72.4025 132.784 72.4315 132.784C72.4606 132.784 72.4892 132.792 72.514 132.807C72.5809 132.851 72.6365 132.91 72.6766 132.979C72.7167 133.048 72.7401 133.126 72.745 133.206C72.7478 133.234 72.7429 133.263 72.7307 133.289C72.7186 133.315 72.6997 133.337 72.676 133.353L71.83 133.866C71.782 133.892 71.7285 133.905 71.674 133.905C71.6031 133.906 71.5338 133.884 71.4768 133.841C71.4198 133.799 71.3783 133.739 71.3585 133.671C71.3388 133.603 71.3419 133.53 71.3675 133.464C71.393 133.398 71.4396 133.342 71.5 133.305V133.317Z" fill="#455A64"/>
<path d="M71.4552 133.356L71.5002 133.32C71.5248 133.312 71.551 133.31 71.5766 133.314C71.6022 133.318 71.6264 133.329 71.6472 133.344C71.7143 133.388 71.7702 133.447 71.8103 133.516C71.8505 133.585 71.8737 133.663 71.8782 133.743C71.881 133.771 71.8764 133.799 71.8648 133.824C71.8532 133.849 71.835 133.871 71.8122 133.887H71.7942H71.7792C71.7459 133.9 71.7101 133.907 71.6742 133.905C71.5874 133.905 71.5043 133.871 71.4429 133.809C71.3816 133.748 71.3472 133.665 71.3472 133.578C71.3484 133.535 71.3586 133.494 71.3773 133.455C71.3959 133.417 71.4224 133.383 71.4552 133.356Z" fill="#263238"/>
<path d="M125.977 110.268L131.5 109.2C131.535 109.193 131.572 109.197 131.605 109.211C131.638 109.226 131.665 109.251 131.683 109.282C131.701 109.313 131.709 109.35 131.705 109.386C131.701 109.421 131.686 109.455 131.662 109.482L127.9 113.7L125.977 110.268Z" fill="#FFA8A7"/>
<path d="M131.653 109.467C131.671 109.44 131.681 109.409 131.683 109.377C131.684 109.345 131.676 109.313 131.66 109.286C131.644 109.258 131.621 109.235 131.592 109.22C131.564 109.205 131.532 109.198 131.5 109.2L130.423 109.413C130.571 109.504 130.692 109.634 130.77 109.789C130.848 109.945 130.882 110.119 130.867 110.292V110.388L131.653 109.467Z" fill="#263238"/>
<path d="M100.807 129.225L101.257 128.967L101.803 128.667L127.9 113.7C128.083 113.093 128.028 112.439 127.747 111.87C127.357 110.994 126.598 110.304 125.968 110.262L99.8681 125.208L98.8271 125.808C99.5381 125.463 101.5 128.865 100.807 129.225Z" fill="#455A64"/>
<path d="M102.526 128.244L103.534 127.665C103.834 127.506 103.66 126.765 103.312 126.021C102.853 125.019 101.947 124.047 101.554 124.254L100.81 124.68L100.549 124.839C100.942 124.629 101.848 125.601 102.307 126.606C102.64 127.329 102.808 128.034 102.556 128.223C102.553 128.228 102.548 128.233 102.543 128.237C102.538 128.24 102.532 128.243 102.526 128.244Z" fill="#EBEBEB"/>
<path d="M102.778 128.1C103.468 127.734 101.488 124.326 100.798 124.692L99.79 125.271C100.48 124.905 102.46 128.313 101.767 128.679L102.778 128.1Z" fill="#459AE9"/>
<path d="M100.807 129.225L101.803 128.655C102.484 128.301 100.603 124.995 99.883 125.214L99.841 125.229L98.842 125.811C99.538 125.463 101.5 128.865 100.807 129.225Z" fill="#EBEBEB"/>
<path opacity="0.15" d="M131.677 109.281L131.5 109.2L127.498 111.39L100.267 126.99C100.228 126.93 100.195 126.924 100.171 126.966C100.771 127.884 101.203 129.039 100.816 129.24L101.266 128.982L101.812 128.682L127.9 113.7L131.641 109.464C131.664 109.44 131.68 109.41 131.686 109.378C131.693 109.345 131.689 109.312 131.677 109.281Z" fill="black"/>
<path d="M96.5801 131.643L100.807 129.225C101.107 129.072 100.939 128.349 100.597 127.596C100.141 126.591 99.2381 125.61 98.8421 125.811L94.6001 128.241C93.7571 128.727 94.5311 130.557 95.4701 131.373C95.8181 131.682 96.2081 131.817 96.5801 131.643Z" fill="#F28F8F"/>
<path opacity="0.1" d="M96.832 130.332C96.589 129.381 95.818 128.445 95.107 128.247C95.0027 128.208 94.8904 128.196 94.7801 128.21C94.6697 128.225 94.5647 128.266 94.474 128.331C93.838 128.931 94.5791 130.599 95.4671 131.373C95.6006 131.522 95.7753 131.628 95.9692 131.678C96.1631 131.727 96.3673 131.718 96.556 131.652C96.874 131.466 97 130.98 96.832 130.332Z" fill="black"/>
<path d="M78.892 28.407L83.437 26.031C83.437 26.031 86.32 26.769 91.138 26.484C98.263 26.061 102.421 23.052 101.362 18.828C100.276 14.499 95.512 12.798 87.019 13.128C76.396 13.542 73.819 20.745 80.161 25.002L78.892 28.407Z" fill="#459AE9"/>
<path opacity="0.7" d="M78.892 28.407L83.437 26.031C83.437 26.031 86.32 26.769 91.138 26.484C98.263 26.061 102.421 23.052 101.362 18.828C100.276 14.499 95.512 12.798 87.019 13.128C76.396 13.542 73.819 20.745 80.161 25.002L78.892 28.407Z" fill="white"/>
<path d="M83.7641 21.096C84.3904 21.096 84.8981 20.5883 84.8981 19.962C84.8981 19.3357 84.3904 18.828 83.7641 18.828C83.1378 18.828 82.6301 19.3357 82.6301 19.962C82.6301 20.5883 83.1378 21.096 83.7641 21.096Z" fill="white"/>
<path d="M89.092 21.096C89.7183 21.096 90.226 20.5883 90.226 19.962C90.226 19.3357 89.7183 18.828 89.092 18.828C88.4657 18.828 87.958 19.3357 87.958 19.962C87.958 20.5883 88.4657 21.096 89.092 21.096Z" fill="white"/>
<path d="M94.4199 21.096C95.0462 21.096 95.5539 20.5883 95.5539 19.962C95.5539 19.3357 95.0462 18.828 94.4199 18.828C93.7936 18.828 93.2859 19.3357 93.2859 19.962C93.2859 20.5883 93.7936 21.096 94.4199 21.096Z" fill="white"/>
<path d="M21.781 96.984C21.781 97.758 22.363 98.256 23.08 98.67L52.435 115.62C52.837 115.824 53.2816 115.931 53.7325 115.931C54.1834 115.931 54.628 115.824 55.03 115.62L102.4 88.278C103.117 87.864 103.699 87.33 103.699 86.556C103.699 85.782 103.117 85.299 102.403 84.885L73.03 67.938C72.6285 67.7338 72.1844 67.6274 71.734 67.6274C71.2836 67.6274 70.8395 67.7338 70.438 67.938L23.08 95.28C22.363 95.7 21.781 96.207 21.781 96.984Z" fill="#37474F"/>
<path d="M23.08 96.777L52.435 113.724C52.837 113.928 53.2816 114.035 53.7325 114.035C54.1834 114.035 54.628 113.928 55.03 113.724L102.4 86.382C103.114 85.971 103.114 85.299 102.4 84.882L73.03 67.938C72.6285 67.7338 72.1844 67.6274 71.734 67.6274C71.2835 67.6274 70.8395 67.7338 70.438 67.938L23.08 95.28C22.363 95.7 22.363 96.363 23.08 96.777Z" fill="#455A64"/>
<path d="M53.734 114.039V115.929C53.2825 115.941 52.8354 115.838 52.435 115.629L23.08 98.67C22.363 98.256 21.781 97.77 21.781 96.984C21.781 96.255 22.303 95.748 22.981 95.337C22.423 95.73 22.414 96.39 23.083 96.777L52.438 113.727C52.8364 113.94 53.2825 114.047 53.734 114.039Z" fill="#263238"/>
<path d="M21.22 95.4809C20.65 95.2169 20.497 94.7669 20.44 93.9809L17.896 56.7509C17.8943 56.3142 18.0035 55.8841 18.2134 55.5011C18.4233 55.118 18.727 54.7946 19.096 54.5609L66.454 27.207C67.168 26.793 67.693 26.5679 68.356 27.0209C69.019 27.4739 69.031 27.7229 69.085 28.5209L71.629 65.7539C71.631 66.1908 71.5219 66.6209 71.312 67.004C71.1021 67.3871 70.7983 67.7105 70.429 67.9439L23.074 95.2829C22.357 95.6999 21.952 95.8169 21.22 95.4809Z" fill="#37474F"/>
<path d="M69.1 28.518C69.046 27.723 68.422 27.414 67.705 27.825L20.332 55.17C19.9513 55.3995 19.6402 55.7282 19.432 56.121L18.208 55.5C18.4184 55.1088 18.729 54.7806 19.108 54.549L66.451 27.207C67.168 26.793 67.696 26.565 68.356 27.021C69.016 27.477 69.031 27.723 69.1 28.518Z" fill="#455A64"/>
<path d="M22.9781 95.337C22.3241 95.721 21.9131 95.769 21.2201 95.478C20.6891 95.256 20.4971 94.767 20.4431 93.978L17.8961 56.739C17.8779 56.307 17.9819 55.8786 18.1961 55.503L19.4321 56.118C19.2202 56.4945 19.1163 56.9222 19.1321 57.354L21.6791 94.59C21.7271 95.328 22.3661 95.7 22.9781 95.337Z" fill="#263238"/>
<path d="M21.1541 56.592L66.7301 30.3C67.1591 30.051 67.5341 30.237 67.5671 30.714L69.9401 65.448C69.9414 65.7098 69.8764 65.9676 69.751 66.1974C69.6256 66.4272 69.444 66.6215 69.2231 66.762L23.6471 93.054C23.2181 93.303 22.8431 93.117 22.8101 92.64L20.4341 57.9C20.4349 57.6391 20.5013 57.3826 20.6271 57.1541C20.7529 56.9255 20.9341 56.7322 21.1541 56.592Z" fill="black"/>
<path d="M21.1541 56.592C20.9332 56.7328 20.7515 56.927 20.6256 57.1567C20.4998 57.3864 20.4339 57.6441 20.4341 57.906L22.7711 92.061L67.8251 66.057C68.046 65.9165 68.2276 65.7222 68.353 65.4924C68.4784 65.2626 68.5434 65.0048 68.5421 64.743L66.2081 30.6L21.1541 56.592Z" fill="#459AE9"/>
<path opacity="0.8" d="M21.1541 56.592C20.9332 56.7328 20.7515 56.927 20.6256 57.1567C20.4998 57.3864 20.4339 57.6441 20.4341 57.906L22.7711 92.061L67.8251 66.057C68.046 65.9165 68.2276 65.7222 68.353 65.4924C68.4784 65.2626 68.5434 65.0048 68.5421 64.743L66.2081 30.6L21.1541 56.592Z" fill="white"/>
<path d="M27.1001 95.499L70.6001 70.374C70.7898 70.2778 70.9994 70.2277 71.2121 70.2277C71.4248 70.2277 71.6344 70.2778 71.8241 70.374L73.4111 71.274C73.4845 71.2996 73.5481 71.3475 73.5932 71.4109C73.6382 71.4744 73.6624 71.5502 73.6624 71.628C73.6624 71.7058 73.6382 71.7816 73.5932 71.845C73.5481 71.9085 73.4845 71.9563 73.4111 71.982L29.8871 97.092C29.6974 97.1882 29.4878 97.2383 29.2751 97.2383C29.0624 97.2383 28.8528 97.1882 28.6631 97.092L27.0851 96.192C27.0159 96.1633 26.957 96.1143 26.9161 96.0516C26.8752 95.9889 26.8542 95.9152 26.8558 95.8404C26.8574 95.7655 26.8816 95.6928 26.9252 95.6319C26.9688 95.571 27.0297 95.5247 27.1001 95.499Z" fill="#263238"/>
<path d="M31.357 98.019L74.878 72.8999C75.0463 72.8034 75.235 72.7477 75.4288 72.7373C75.6226 72.7269 75.8162 72.7621 75.994 72.8399L87.322 79.3799C87.601 79.5419 87.556 79.8299 87.217 80.0249L43.747 105.117C43.5786 105.213 43.3901 105.269 43.1964 105.28C43.0027 105.291 42.8091 105.257 42.631 105.18L31.255 98.6699C30.973 98.5019 31.021 98.214 31.357 98.019Z" fill="#263238"/>
<path d="M69.0702 83.448L70.4322 82.662C70.4892 82.626 70.4952 82.575 70.4322 82.545L69.1272 81.795C69.0965 81.7794 69.0626 81.7713 69.0282 81.7713C68.9938 81.7713 68.9598 81.7794 68.9292 81.795L67.5672 82.581C67.5102 82.614 67.5042 82.665 67.5672 82.695L68.8722 83.448C68.9028 83.4635 68.9368 83.4716 68.9712 83.4716C69.0056 83.4716 69.0395 83.4635 69.0702 83.448ZM67.0782 80.724L65.7162 81.513C65.6592 81.546 65.6532 81.597 65.7162 81.627L67.0002 82.38C67.0307 82.396 67.0647 82.4044 67.0992 82.4044C67.1336 82.4044 67.1676 82.396 67.1982 82.38L68.5602 81.594C68.6172 81.561 68.6232 81.51 68.5602 81.48L67.2552 80.727C67.2275 80.7142 67.1975 80.7073 67.167 80.7068C67.1365 80.7063 67.1062 80.7121 67.0782 80.724ZM62.6772 83.268L60.3702 84.6C60.3132 84.636 60.3072 84.687 60.3702 84.717L61.6752 85.467C61.7058 85.4825 61.7398 85.4906 61.7742 85.4906C61.8086 85.4906 61.8425 85.4825 61.8732 85.467L64.1802 84.135C64.2372 84.102 64.2432 84.051 64.1802 84.021L62.8782 83.268C62.8468 83.2528 62.8125 83.245 62.7777 83.245C62.7429 83.245 62.7085 83.2528 62.6772 83.268ZM65.0772 81.876L63.7122 82.662C63.6552 82.695 63.6492 82.746 63.7122 82.776L65.0172 83.529C65.0478 83.5445 65.0818 83.5526 65.1162 83.5526C65.1506 83.5526 65.1845 83.5445 65.2152 83.529L66.5772 82.74C66.6342 82.707 66.6402 82.656 66.5772 82.626L65.2722 81.873C65.2431 81.8606 65.2119 81.8545 65.1803 81.855C65.1488 81.8555 65.1177 81.8627 65.0892 81.876H65.0772ZM59.7432 84.96L58.3782 85.749C58.3212 85.782 58.3152 85.833 58.3782 85.863L59.6802 86.616C59.7107 86.632 59.7447 86.6404 59.7792 86.6404C59.8136 86.6404 59.8476 86.632 59.8782 86.616L61.2402 85.83C61.3002 85.797 61.3032 85.746 61.2402 85.716L59.9382 84.963C59.9081 84.9474 59.8748 84.9391 59.841 84.9386C59.8072 84.938 59.7737 84.9454 59.7432 84.96ZM57.7512 86.1L56.3892 86.886C56.3292 86.919 56.3262 86.97 56.3892 87L57.6912 87.753C57.7218 87.7685 57.7558 87.7766 57.7902 87.7766C57.8246 87.7766 57.8585 87.7685 57.8892 87.753L59.2512 86.964C59.3112 86.931 59.3142 86.88 59.2512 86.85L57.9492 86.1C57.9185 86.0844 57.8846 86.0763 57.8502 86.0763C57.8158 86.0763 57.7818 86.0844 57.7512 86.1ZM62.8512 89.169L64.2132 88.383C64.2732 88.35 64.2762 88.299 64.2132 88.269L62.9112 87.516C62.8805 87.5004 62.8466 87.4923 62.8122 87.4923C62.7778 87.4923 62.7438 87.5004 62.7132 87.516L61.3482 88.305C61.2912 88.338 61.2852 88.389 61.3482 88.419L62.6502 89.172C62.6814 89.1915 62.7172 89.2026 62.754 89.2042C62.7908 89.2057 62.8274 89.1977 62.8602 89.181L62.8512 89.169ZM60.8592 90.321L62.2212 89.532C62.2812 89.499 62.2842 89.448 62.2212 89.418L60.9192 88.668C60.8885 88.6524 60.8546 88.6443 60.8202 88.6443C60.7858 88.6443 60.7518 88.6524 60.7212 88.668L59.3592 89.454C59.2992 89.487 59.2962 89.538 59.3592 89.568L60.6612 90.321C60.692 90.3399 60.727 90.3509 60.7631 90.353C60.7993 90.3551 60.8353 90.3482 60.8682 90.333L60.8592 90.321ZM58.8672 91.47L60.2322 90.684C60.2892 90.651 60.2952 90.6 60.2322 90.57L58.9302 89.817C58.8995 89.8014 58.8656 89.7933 58.8312 89.7933C58.7968 89.7933 58.7628 89.8014 58.7322 89.817L57.4002 90.621C57.3402 90.654 57.3372 90.705 57.4002 90.735L58.7022 91.488C58.73 91.4989 58.7599 91.504 58.7898 91.503C58.8197 91.502 58.8491 91.4948 58.8762 91.482L58.8672 91.47ZM56.8782 92.619L58.2402 91.833C58.2972 91.8 58.3032 91.749 58.2402 91.719L56.9352 90.966C56.9045 90.9504 56.8706 90.9423 56.8362 90.9423C56.8018 90.9423 56.7678 90.9504 56.7372 90.966L55.3752 91.755C55.3182 91.788 55.3122 91.839 55.3752 91.869L56.6802 92.619C56.711 92.6379 56.746 92.6489 56.7821 92.651C56.8183 92.6531 56.8543 92.6462 56.8872 92.631L56.8782 92.619ZM67.0782 84.585L68.4402 83.799C68.4972 83.766 68.5032 83.715 68.4402 83.685L67.1352 82.932C67.1045 82.9164 67.0706 82.9083 67.0362 82.9083C67.0018 82.9083 66.9678 82.9164 66.9372 82.932L65.5752 83.718C65.5182 83.751 65.5122 83.805 65.5752 83.832L66.8802 84.6C66.9108 84.6155 66.9448 84.6236 66.9792 84.6236C67.0136 84.6236 67.0475 84.6155 67.0782 84.6V84.585ZM64.8522 88.02L67.9002 86.277C67.9572 86.244 67.9632 86.193 67.9002 86.163L64.7352 84.336C64.7045 84.3204 64.6706 84.3123 64.6362 84.3123C64.6018 84.3123 64.5678 84.3204 64.5372 84.336L62.9652 85.236C62.9052 85.269 62.9022 85.32 62.9652 85.35L64.6392 86.316C64.6932 86.346 64.6872 86.397 64.6392 86.43L63.3792 87.156C63.3222 87.192 63.3162 87.243 63.3792 87.273L64.6842 88.023C64.7102 88.0355 64.7384 88.0427 64.7673 88.0442C64.7961 88.0458 64.8249 88.0416 64.8522 88.032V88.02ZM55.7592 87.249L54.4002 88.047C54.3402 88.08 54.3372 88.131 54.4002 88.161L55.7022 88.914C55.7328 88.9295 55.7668 88.9376 55.8012 88.9376C55.8356 88.9376 55.8695 88.9295 55.9002 88.914L57.2652 88.128C57.3222 88.095 57.3282 88.044 57.2652 88.014L55.9632 87.261C55.9317 87.2444 55.8967 87.2358 55.8612 87.2358C55.8256 87.2358 55.7906 87.2444 55.7592 87.261V87.249ZM53.7672 88.398L52.4052 89.184C52.3482 89.22 52.3422 89.271 52.4052 89.301L53.7102 90.051C53.7408 90.0665 53.7748 90.0746 53.8092 90.0746C53.8436 90.0746 53.8775 90.0665 53.9082 90.051L55.2702 89.265C55.3272 89.232 55.3332 89.181 55.2702 89.151L53.9652 88.398C53.9335 88.3842 53.8991 88.3782 53.8647 88.3803C53.8303 88.3823 53.7969 88.3925 53.7672 88.41V88.398ZM42.7482 100.674C42.7788 100.69 42.8128 100.698 42.8472 100.698C42.8816 100.698 42.9155 100.69 42.9462 100.674L44.3082 99.888C44.3652 99.855 44.3712 99.804 44.3082 99.774L43.0032 99.021C42.9725 99.0054 42.9386 98.9973 42.9042 98.9973C42.8698 98.9973 42.8358 99.0054 42.8052 99.021L41.4432 99.807C41.3862 99.843 41.3802 99.894 41.4432 99.921L42.7482 100.674ZM37.8342 97.596L36.4722 98.4C36.4152 98.433 36.4092 98.484 36.4722 98.514L37.7772 99.267C37.8081 99.2816 37.8419 99.2892 37.8762 99.2892C37.9104 99.2892 37.9442 99.2816 37.9752 99.267L39.3372 98.481C39.3942 98.448 39.4002 98.397 39.3372 98.367L38.0322 97.614C38.0019 97.5975 37.9683 97.5883 37.9339 97.5873C37.8995 97.5863 37.8653 97.5933 37.8342 97.608V97.596ZM40.3602 99.903C40.3908 99.9185 40.4248 99.9266 40.4592 99.9266C40.4936 99.9266 40.5275 99.9185 40.5582 99.903L41.9202 99.114C41.9802 99.081 41.9832 99.03 41.9202 99L40.6182 98.247C40.5876 98.2309 40.5536 98.2226 40.5192 98.2226C40.4847 98.2226 40.4507 98.2309 40.4202 98.247L39.0582 99.033C38.9982 99.066 38.9952 99.117 39.0582 99.147L40.3602 99.903ZM45.8562 101.139L47.2182 100.353C47.2752 100.317 47.2812 100.266 47.2182 100.236L45.9132 99.486C45.8825 99.4704 45.8486 99.4623 45.8142 99.4623C45.7798 99.4623 45.7458 99.4704 45.7152 99.486L44.3532 100.272C44.2962 100.305 44.2902 100.356 44.3532 100.386L45.6582 101.139C45.6879 101.156 45.7213 101.167 45.7557 101.169C45.7901 101.171 45.8245 101.165 45.8562 101.151V101.139ZM43.6662 102.294C43.6968 102.31 43.7308 102.318 43.7652 102.318C43.7996 102.318 43.8335 102.31 43.8642 102.294L45.2262 101.508C45.2832 101.475 45.2892 101.424 45.2262 101.394L43.9242 100.641C43.8935 100.625 43.8596 100.617 43.8252 100.617C43.7908 100.617 43.7568 100.625 43.7262 100.641L42.3612 101.427C42.3042 101.46 42.2982 101.511 42.3612 101.541L43.6662 102.294ZM39.8262 96.447L38.4642 97.233C38.4072 97.269 38.4012 97.32 38.4642 97.347L39.7692 98.1C39.7998 98.1155 39.8338 98.1236 39.8682 98.1236C39.9026 98.1236 39.9365 98.1155 39.9672 98.1L41.3292 97.314C41.3862 97.281 41.3922 97.23 41.3292 97.2L40.0242 96.447C39.9925 96.4332 39.9581 96.4272 39.9237 96.4293C39.8893 96.4313 39.8559 96.4415 39.8262 96.459V96.447ZM49.7832 90.699L48.4212 91.5C48.3642 91.533 48.3582 91.584 48.4212 91.614L49.7262 92.367C49.7568 92.3825 49.7908 92.3906 49.8252 92.3906C49.8596 92.3906 49.8935 92.3825 49.9242 92.367L51.2862 91.581C51.3432 91.545 51.3492 91.494 51.2862 91.464L49.9812 90.714C49.9507 90.6979 49.9169 90.6893 49.8825 90.6888C49.8481 90.6883 49.8141 90.6959 49.7832 90.711V90.699ZM41.8182 95.31L40.4562 96.096C40.3992 96.129 40.3932 96.18 40.4562 96.21L41.7612 96.963C41.7918 96.9785 41.8258 96.9866 41.8602 96.9866C41.8946 96.9866 41.9285 96.9785 41.9592 96.963L43.3212 96.177C43.3782 96.141 43.3842 96.09 43.3212 96.06L42.0162 95.31C41.9855 95.2944 41.9516 95.2863 41.9172 95.2863C41.8828 95.2863 41.8488 95.2944 41.8182 95.31ZM51.7752 89.562L50.4132 90.348C50.3562 90.381 50.3502 90.432 50.4132 90.462L51.7182 91.215C51.7487 91.231 51.7827 91.2394 51.8172 91.2394C51.8516 91.2394 51.8856 91.231 51.9162 91.215L53.2782 90.429C53.3352 90.396 53.3412 90.345 53.2782 90.315L51.9732 89.562C51.9426 89.5459 51.9086 89.5376 51.8742 89.5376C51.8397 89.5376 51.8057 89.5459 51.7752 89.562ZM47.8002 91.86L46.4352 92.646C46.3782 92.679 46.3722 92.73 46.4352 92.76L47.7372 93.513C47.7678 93.5285 47.8018 93.5366 47.8362 93.5366C47.8706 93.5366 47.9045 93.5285 47.9352 93.513L49.2972 92.727C49.3572 92.694 49.3602 92.643 49.2972 92.613L47.9952 91.86C47.9649 91.8449 47.9315 91.8371 47.8977 91.8371C47.8638 91.8371 47.8305 91.8449 47.8002 91.86ZM45.8022 93L44.4402 93.789C44.3802 93.822 44.3772 93.873 44.4402 93.903L45.7422 94.656C45.7731 94.6706 45.8069 94.6783 45.8412 94.6783C45.8754 94.6783 45.9092 94.6706 45.9402 94.656L47.3022 93.87C47.3622 93.837 47.3652 93.786 47.3022 93.756L46.0002 93C45.9695 92.9844 45.9356 92.9763 45.9012 92.9763C45.8668 92.9763 45.8328 92.9844 45.8022 93ZM43.8102 94.152L42.4482 94.938C42.3882 94.971 42.3852 95.022 42.4482 95.052L43.7502 95.805C43.7808 95.8205 43.8148 95.8286 43.8492 95.8286C43.8836 95.8286 43.9175 95.8205 43.9482 95.805L45.3132 95.016C45.3702 94.983 45.3762 94.932 45.3132 94.902L44.0112 94.149C43.9793 94.1342 43.9442 94.1276 43.9091 94.1297C43.8741 94.1318 43.8401 94.1425 43.8102 94.161V94.152ZM52.9002 94.932L54.2622 94.146C54.3192 94.11 54.3252 94.059 54.2622 94.029L52.9572 93.279C52.9265 93.2634 52.8926 93.2553 52.8582 93.2553C52.8238 93.2553 52.7898 93.2634 52.7592 93.279L51.4002 94.071C51.3432 94.104 51.3372 94.155 51.4002 94.185L52.7052 94.938C52.7359 94.9521 52.7695 94.9589 52.8034 94.9579C52.8372 94.9568 52.8703 94.948 52.9002 94.932ZM71.4792 78.183L70.1172 78.969C70.0572 79.005 70.0542 79.056 70.1172 79.086L71.4192 79.836C71.4498 79.8515 71.4838 79.8596 71.5182 79.8596C71.5526 79.8596 71.5865 79.8515 71.6172 79.836L72.9792 79.05C73.0392 79.017 73.0422 78.966 72.9792 78.936L71.6772 78.183C71.6469 78.1679 71.6135 78.1601 71.5797 78.1601C71.5458 78.1601 71.5125 78.1679 71.4822 78.183H71.4792ZM69.0792 79.575L67.7172 80.361C67.6602 80.397 67.6542 80.448 67.7172 80.475L69.0222 81.228C69.0528 81.2435 69.0868 81.2516 69.1212 81.2516C69.1556 81.2516 69.1895 81.2435 69.2202 81.228L70.5822 80.442C70.6392 80.409 70.6452 80.358 70.5822 80.328L69.2772 79.575C69.2453 79.5579 69.2098 79.549 69.1737 79.549C69.1375 79.549 69.102 79.5579 69.0702 79.575H69.0792ZM73.4832 77.034L72.1002 77.82C72.0432 77.853 72.0372 77.904 72.1002 77.934L73.4022 78.687C73.4328 78.7025 73.4668 78.7106 73.5012 78.7106C73.5356 78.7106 73.5695 78.7025 73.6002 78.687L74.9622 77.901C75.0222 77.868 75.0252 77.814 74.9622 77.787L73.6602 77.034C73.6311 77.0203 73.5993 77.0132 73.5672 77.0132C73.535 77.0132 73.5033 77.0203 73.4742 77.034H73.4832ZM62.4732 87.261L63.8382 86.472C63.8952 86.439 63.9012 86.388 63.8382 86.358L62.5332 85.605C62.5022 85.5903 62.4684 85.5827 62.4342 85.5827C62.3999 85.5827 62.3661 85.5903 62.3352 85.605L60.9762 86.4C60.9192 86.433 60.9132 86.484 60.9762 86.514L62.2782 87.267C62.3077 87.2797 62.3397 87.2857 62.3718 87.2847C62.404 87.2837 62.4355 87.2756 62.4642 87.261H62.4732ZM75.6732 75.861C75.6422 75.8463 75.6084 75.8387 75.5742 75.8387C75.5399 75.8387 75.5061 75.8463 75.4752 75.861L74.1132 76.647C74.0562 76.68 74.0502 76.731 74.1132 76.761L75.4182 77.514C75.4488 77.5295 75.4828 77.5376 75.5172 77.5376C75.5516 77.5376 75.5855 77.5295 75.6162 77.514L76.9782 76.725C77.0352 76.692 77.0412 76.641 76.9782 76.611L75.6732 75.861ZM54.8952 93.78L56.2572 92.994C56.3142 92.961 56.3202 92.91 56.2572 92.88L54.9522 92.127C54.9216 92.1109 54.8876 92.1026 54.8532 92.1026C54.8187 92.1026 54.7847 92.1109 54.7542 92.127L53.3922 92.913C53.3352 92.946 53.3292 92.997 53.3922 93.027L54.6972 93.78C54.7277 93.796 54.7617 93.8044 54.7962 93.8044C54.8306 93.8044 54.8646 93.796 54.8952 93.78ZM79.3152 79.68L80.6802 78.9C80.7372 78.867 80.7432 78.816 80.6802 78.786L79.3752 78.033C79.3446 78.0169 79.3106 78.0086 79.2762 78.0086C79.2417 78.0086 79.2077 78.0169 79.1772 78.033L77.8152 78.819C77.7582 78.852 77.7522 78.903 77.8152 78.933L79.1172 79.686C79.1481 79.7013 79.1824 79.7088 79.2169 79.7078C79.2514 79.7067 79.2852 79.6972 79.3152 79.68ZM75.4632 79.755L76.8252 78.969C76.8822 78.936 76.8882 78.885 76.8252 78.855L75.5202 78.102C75.4895 78.0864 75.4556 78.0783 75.4212 78.0783C75.3868 78.0783 75.3528 78.0864 75.3222 78.102L73.9722 78.9C73.9152 78.933 73.9092 78.984 73.9722 79.014L75.2772 79.767C75.3073 79.778 75.3394 79.7826 75.3714 79.7806C75.4035 79.7785 75.4347 79.7698 75.4632 79.755ZM77.5242 76.953C77.4935 76.9374 77.4596 76.9293 77.4252 76.9293C77.3908 76.9293 77.3568 76.9374 77.3262 76.953L75.9642 77.739C75.9072 77.772 75.9012 77.826 75.9642 77.853L77.2692 78.606C77.2998 78.6215 77.3338 78.6296 77.3682 78.6296C77.4026 78.6296 77.4365 78.6215 77.4672 78.606L78.8292 77.82C78.8862 77.787 78.8922 77.736 78.8292 77.706L77.5242 76.953ZM77.9442 76.71L81.1002 78.537C81.1308 78.5525 81.1648 78.5606 81.1992 78.5606C81.2336 78.5606 81.2675 78.5525 81.2982 78.537L82.6602 77.751C82.7202 77.718 82.7232 77.667 82.6602 77.637L79.4952 75.81C79.4645 75.7944 79.4306 75.7863 79.3962 75.7863C79.3618 75.7863 79.3278 75.7944 79.2972 75.81L77.9352 76.596C77.8992 76.629 77.8932 76.68 77.9442 76.71ZM73.3452 79.26L71.9802 80.046C71.9232 80.079 71.9172 80.13 71.9802 80.16L73.2852 80.913C73.3158 80.9285 73.3498 80.9366 73.3842 80.9366C73.4186 80.9366 73.4525 80.9285 73.4832 80.913L74.8452 80.124C74.9022 80.091 74.9082 80.04 74.8452 80.01L73.5432 79.257C73.5125 79.2411 73.4783 79.2331 73.4438 79.2337C73.4092 79.2342 73.3754 79.2432 73.3452 79.26ZM58.3452 87.912L56.9832 88.698C56.9262 88.734 56.9202 88.785 56.9832 88.815L58.2882 89.565C58.3188 89.5805 58.3528 89.5886 58.3872 89.5886C58.4216 89.5886 58.4555 89.5805 58.4862 89.565L59.8482 88.779C59.9052 88.746 59.9112 88.695 59.8482 88.665L58.5522 87.9C58.5215 87.8844 58.4876 87.8763 58.4532 87.8763C58.4188 87.8763 58.3848 87.8844 58.3542 87.9L58.3452 87.912ZM77.1192 80.838C77.1498 80.8535 77.1838 80.8616 77.2182 80.8616C77.2526 80.8616 77.2865 80.8535 77.3172 80.838L78.6792 80.049C78.7362 80.016 78.7422 79.965 78.6792 79.935L77.3742 79.182C77.3432 79.1673 77.3094 79.1597 77.2752 79.1597C77.2409 79.1597 77.2071 79.1673 77.1762 79.182L75.8142 79.968C75.7572 80.001 75.7512 80.052 75.8142 80.082L77.1192 80.838ZM60.3372 86.763L58.9752 87.549C58.9182 87.582 58.9122 87.633 58.9752 87.663L60.2802 88.416C60.3108 88.4315 60.3448 88.4396 60.3792 88.4396C60.4136 88.4396 60.4475 88.4315 60.4782 88.416L61.8402 87.63C61.8972 87.597 61.9032 87.543 61.8402 87.516L60.5352 86.763C60.5057 86.7488 60.4734 86.7415 60.4407 86.7415C60.4079 86.7415 60.3757 86.7488 60.3462 86.763H60.3372ZM44.7372 99.537C44.7678 99.5525 44.8018 99.5606 44.8362 99.5606C44.8706 99.5606 44.9045 99.5525 44.9352 99.537L46.2972 98.751C46.3542 98.715 46.3602 98.664 46.2972 98.634L44.9922 97.884C44.9615 97.8684 44.9276 97.8603 44.8932 97.8603C44.8588 97.8603 44.8248 97.8684 44.7942 97.884L43.4322 98.67C43.3752 98.703 43.3692 98.754 43.4322 98.784L44.7372 99.537ZM42.4212 97.11L41.0562 97.899C40.9992 97.932 40.9932 97.983 41.0562 98.013L42.3582 98.766C42.3891 98.7806 42.4229 98.7883 42.4572 98.7883C42.4914 98.7883 42.5252 98.7806 42.5562 98.766L43.9182 97.98C43.9782 97.947 43.9812 97.896 43.9182 97.866L42.6162 97.113C42.5865 97.0979 42.5538 97.0898 42.5205 97.0893C42.4872 97.0888 42.4543 97.0958 42.4242 97.11H42.4212ZM46.9212 98.382L48.2862 97.593C48.3432 97.56 48.3492 97.509 48.2862 97.479L46.9842 96.726C46.9536 96.7099 46.9196 96.7016 46.8852 96.7016C46.8507 96.7016 46.8167 96.7099 46.7862 96.726L45.4242 97.512C45.3642 97.545 45.3612 97.596 45.4242 97.626L46.7262 98.379C46.757 98.3955 46.7913 98.4044 46.8263 98.4049C46.8613 98.4054 46.8958 98.3975 46.9272 98.382H46.9212ZM48.9132 97.23L50.2752 96.444C50.3352 96.411 50.3382 96.36 50.2752 96.33L49.0002 95.577C48.9695 95.5614 48.9356 95.5533 48.9012 95.5533C48.8668 95.5533 48.8328 95.5614 48.8022 95.577L47.4402 96.366C47.3802 96.399 47.3772 96.45 47.4402 96.48L48.7422 97.233C48.7704 97.2441 48.8006 97.2496 48.831 97.2491C48.8613 97.2486 48.8913 97.2421 48.9192 97.23H48.9132ZM50.9052 96.081L52.2672 95.295C52.3272 95.262 52.3302 95.211 52.2672 95.181L50.9652 94.428C50.9345 94.4124 50.9006 94.4043 50.8662 94.4043C50.8318 94.4043 50.7978 94.4124 50.7672 94.428L49.4022 95.214C49.3452 95.247 49.3392 95.301 49.4022 95.328L50.7042 96.081C50.736 96.098 50.7715 96.107 50.8077 96.107C50.8438 96.107 50.8793 96.098 50.9112 96.081H50.9052ZM44.4072 95.961L43.0452 96.747C42.9882 96.78 42.9822 96.831 43.0452 96.861L44.3502 97.614C44.3808 97.6295 44.4148 97.6376 44.4492 97.6376C44.4836 97.6376 44.5175 97.6295 44.5482 97.614L45.9102 96.828C45.9672 96.795 45.9732 96.744 45.9102 96.714L44.6052 95.961C44.5753 95.9464 44.5424 95.9388 44.5092 95.9388C44.4759 95.9388 44.4431 95.9464 44.4132 95.961H44.4072ZM46.3992 94.812L45.0372 95.598C44.9802 95.631 44.9742 95.682 45.0372 95.712L46.3422 96.465C46.3728 96.4805 46.4068 96.4886 46.4412 96.4886C46.4756 96.4886 46.5095 96.4805 46.5402 96.465L47.9022 95.676C47.9592 95.643 47.9652 95.592 47.9022 95.562L46.6002 94.8C46.5699 94.7849 46.5365 94.7771 46.5027 94.7771C46.4688 94.7771 46.4355 94.7849 46.4052 94.8L46.3992 94.812ZM54.3672 90.213L53.0022 90.999C52.9452 91.032 52.9392 91.083 53.0022 91.113L54.3042 91.866C54.3348 91.8815 54.3688 91.8896 54.4032 91.8896C54.4376 91.8896 54.4715 91.8815 54.5022 91.866L55.8642 91.077C55.9242 91.044 55.9272 90.993 55.8642 90.963L54.5622 90.21C54.5322 90.1971 54.4999 90.1907 54.4673 90.1912C54.4348 90.1918 54.4027 90.1992 54.3732 90.213H54.3672ZM52.3752 91.362L51.0132 92.148C50.9532 92.181 50.9502 92.232 51.0132 92.262L52.3152 93.015C52.3458 93.0305 52.3798 93.0386 52.4142 93.0386C52.4486 93.0386 52.4825 93.0305 52.5132 93.015L53.8752 92.229C53.9352 92.196 53.9382 92.145 53.8752 92.115L52.5732 91.362C52.5433 91.3474 52.5104 91.3398 52.4772 91.3398C52.4439 91.3398 52.4111 91.3474 52.3812 91.362H52.3752ZM56.3562 89.061L55.0002 89.85C54.9432 89.883 54.9372 89.934 55.0002 89.964L56.3052 90.717C56.3357 90.733 56.3697 90.7414 56.4042 90.7414C56.4386 90.7414 56.4726 90.733 56.5032 90.717L57.8652 89.931C57.9222 89.898 57.9282 89.847 57.8652 89.817L56.5602 89.064C56.5297 89.0479 56.4959 89.0393 56.4615 89.0388C56.4271 89.0383 56.3931 89.0459 56.3622 89.061H56.3562ZM48.4002 93.663L47.0382 94.449C46.9812 94.482 46.9752 94.533 47.0382 94.563L48.3432 95.316C48.3737 95.332 48.4077 95.3404 48.4422 95.3404C48.4766 95.3404 48.5106 95.332 48.5412 95.316L49.9032 94.53C49.9602 94.497 49.9662 94.446 49.9032 94.416L48.5982 93.663C48.5676 93.6469 48.5336 93.6386 48.4992 93.6386C48.4647 93.6386 48.4307 93.6469 48.4002 93.663ZM50.3922 92.511L49.0272 93.3C48.9672 93.336 48.9642 93.387 49.0272 93.417L50.3292 94.167C50.3598 94.1825 50.3938 94.1906 50.4282 94.1906C50.4626 94.1906 50.4965 94.1825 50.5272 94.167L51.8922 93.381C51.9492 93.348 51.9552 93.297 51.8922 93.267L50.5872 92.514C50.5567 92.4979 50.5229 92.4893 50.4885 92.4888C50.4541 92.4883 50.4201 92.4959 50.3892 92.511H50.3922ZM47.8512 100.011L49.2132 99.225C49.2702 99.192 49.2762 99.141 49.2132 99.111L47.9082 98.358C47.8776 98.3419 47.8436 98.3336 47.8092 98.3336C47.7747 98.3336 47.7407 98.3419 47.7102 98.358L46.3482 99.144C46.2912 99.177 46.2852 99.228 46.3482 99.258L47.6532 100.011C47.6843 100.025 47.7182 100.031 47.7521 100.029C47.786 100.027 47.819 100.016 47.8482 99.999L47.8512 100.011ZM37.3512 99.516L36.0492 98.763C36.0182 98.7483 35.9844 98.7407 35.9502 98.7407C35.9159 98.7407 35.8821 98.7483 35.8512 98.763L34.4862 99.549C34.4292 99.582 34.4232 99.633 34.4862 99.663L35.7882 100.416C35.8188 100.432 35.8528 100.44 35.8872 100.44C35.9216 100.44 35.9555 100.432 35.9862 100.416L37.3482 99.627C37.3932 99.6 37.3962 99.534 37.3452 99.504L37.3512 99.516ZM39.9462 100.167L38.6442 99.417C38.6135 99.4014 38.5796 99.3933 38.5452 99.3933C38.5108 99.3933 38.4768 99.4014 38.4462 99.417L36.3462 100.617C36.2892 100.65 36.2832 100.701 36.3462 100.731L37.6512 101.484C37.6818 101.5 37.7158 101.508 37.7502 101.508C37.7846 101.508 37.8185 101.5 37.8492 101.484L39.9492 100.284C40.0002 100.236 40.0002 100.2 39.9402 100.155L39.9462 100.167ZM35.4072 98.031L34.1022 97.278C34.0715 97.2624 34.0376 97.2543 34.0032 97.2543C33.9688 97.2543 33.9348 97.2624 33.9042 97.278L32.2272 98.247C32.1702 98.28 32.1642 98.331 32.2272 98.361L33.5322 99.114C33.5628 99.1295 33.5968 99.1376 33.6312 99.1376C33.6656 99.1376 33.6995 99.1295 33.7302 99.114L35.4072 98.145C35.4462 98.1 35.4522 98.049 35.4012 98.019L35.4072 98.031ZM36.6912 97.287C36.7218 97.3025 36.7558 97.3106 36.7902 97.3106C36.8246 97.3106 36.8585 97.3025 36.8892 97.287L38.2512 96.501C38.3112 96.468 38.3142 96.417 38.2512 96.387L36.9492 95.634C36.9185 95.6184 36.8846 95.6103 36.8502 95.6103C36.8158 95.6103 36.7818 95.6184 36.7512 95.634L35.3892 96.42C35.3292 96.456 35.3232 96.507 35.3892 96.534L36.6912 97.287ZM42.3342 100.941L41.0292 100.188C40.9985 100.172 40.9646 100.164 40.9302 100.164C40.8958 100.164 40.8618 100.172 40.8312 100.188L38.2002 101.7C38.1432 101.733 38.1372 101.784 38.2002 101.814L39.5052 102.567C39.5357 102.583 39.5697 102.591 39.6042 102.591C39.6386 102.591 39.6726 102.583 39.7032 102.567L42.3222 101.067C42.3732 101.01 42.3792 100.959 42.3282 100.929L42.3342 100.941ZM43.2522 102.561L41.9502 101.808C41.9195 101.792 41.8856 101.784 41.8512 101.784C41.8168 101.784 41.7828 101.792 41.7522 101.808L40.0752 102.777C40.0152 102.81 40.0122 102.861 40.0752 102.891L41.3772 103.644C41.4078 103.66 41.4418 103.668 41.4762 103.668C41.5106 103.668 41.5445 103.66 41.5752 103.644L43.2522 102.675C43.3002 102.63 43.3002 102.579 43.2462 102.549L43.2522 102.561ZM51.4992 88.74C51.5298 88.7555 51.5638 88.7636 51.5982 88.7636C51.6326 88.7636 51.6665 88.7555 51.6972 88.74L53.0592 87.951C53.1162 87.918 53.1222 87.867 53.0592 87.837L51.7542 87.084C51.7236 87.0679 51.6896 87.0596 51.6552 87.0596C51.6207 87.0596 51.5867 87.0679 51.5562 87.084L50.2002 87.861C50.1432 87.894 50.1372 87.945 50.2002 87.975L51.4992 88.74ZM47.5002 91.026C47.5308 91.0415 47.5648 91.0496 47.5992 91.0496C47.6336 91.0496 47.6675 91.0415 47.6982 91.026L49.0602 90.24C49.1202 90.207 49.1232 90.156 49.0602 90.126L47.7582 89.373C47.7275 89.3574 47.6936 89.3493 47.6592 89.3493C47.6248 89.3493 47.5908 89.3574 47.5602 89.373L46.1982 90.159C46.1382 90.192 46.1322 90.243 46.1982 90.273L47.5002 91.026ZM38.6682 96.126C38.6988 96.1415 38.7328 96.1496 38.7672 96.1496C38.8016 96.1496 38.8355 96.1415 38.8662 96.126L40.2282 95.34C40.2852 95.304 40.2912 95.253 40.2282 95.226L38.9262 94.473C38.8955 94.4574 38.8616 94.4493 38.8272 94.4493C38.7928 94.4493 38.7588 94.4574 38.7282 94.473L37.3632 95.259C37.3062 95.292 37.3002 95.343 37.3632 95.373L38.6682 96.126ZM49.4922 89.877C49.5228 89.8925 49.5568 89.9006 49.5912 89.9006C49.6256 89.9006 49.6595 89.8925 49.6902 89.877L51.0522 89.091C51.1092 89.055 51.1152 89.004 51.0522 88.974L49.7502 88.224C49.7195 88.2084 49.6856 88.2003 49.6512 88.2003C49.6168 88.2003 49.5828 88.2084 49.5522 88.224L48.1872 89.01C48.1302 89.043 48.1242 89.094 48.1872 89.124L49.4922 89.877ZM45.5082 92.178C45.5391 92.1926 45.5729 92.2002 45.6072 92.2002C45.6414 92.2002 45.6752 92.1926 45.7062 92.178L47.0682 91.392C47.1282 91.359 47.1342 91.308 47.0682 91.278L45.7662 90.525C45.7355 90.5094 45.7016 90.5013 45.6672 90.5013C45.6328 90.5013 45.5988 90.5094 45.5682 90.525L44.2062 91.314C44.1462 91.347 44.1432 91.398 44.2062 91.428L45.5082 92.178ZM44.2152 102.63C44.1845 102.614 44.1506 102.606 44.1162 102.606C44.0818 102.606 44.0478 102.614 44.0172 102.63L41.9172 103.83C41.8602 103.866 41.8542 103.917 41.9172 103.947L43.2192 104.697C43.2498 104.713 43.2838 104.721 43.3182 104.721C43.3526 104.721 43.3865 104.713 43.4172 104.697L45.5172 103.497C45.5742 103.464 45.5802 103.413 45.5172 103.383L44.2152 102.63ZM42.6522 93.828C42.6831 93.8426 42.7169 93.8502 42.7512 93.8502C42.7854 93.8502 42.8192 93.8426 42.8502 93.828L44.2122 93.042C44.2692 93.009 44.2752 92.958 44.2122 92.928L42.9072 92.175C42.8765 92.1594 42.8426 92.1513 42.8082 92.1513C42.7738 92.1513 42.7398 92.1594 42.7092 92.175L41.3472 92.964C41.2902 92.997 41.2842 93.048 41.3472 93.078L42.6522 93.828ZM40.6602 94.977C40.6908 94.9925 40.7248 95.0006 40.7592 95.0006C40.7936 95.0006 40.8275 94.9925 40.8582 94.977L42.2202 94.188C42.2772 94.155 42.2832 94.104 42.2202 94.074L40.9152 93.321C40.8844 93.3056 40.8505 93.2977 40.8162 93.2977C40.7818 93.2977 40.7479 93.3056 40.7172 93.321L39.3552 94.107C39.2982 94.14 39.2922 94.191 39.3552 94.221L40.6602 94.977ZM81.1122 81.327C81.0816 81.3109 81.0476 81.3026 81.0132 81.3026C80.9787 81.3026 80.9447 81.3109 80.9142 81.327L77.5602 83.262C77.5002 83.295 77.4972 83.346 77.5602 83.376L78.8622 84.129C78.8928 84.1445 78.9268 84.1526 78.9612 84.1526C78.9956 84.1526 79.0295 84.1445 79.0602 84.129L82.4112 82.2C82.4712 82.167 82.4742 82.116 82.4112 82.086L81.1122 81.327ZM76.7082 83.871C76.6775 83.8554 76.6436 83.8473 76.6092 83.8473C76.5748 83.8473 76.5408 83.8554 76.5102 83.871L75.1482 84.657C75.0912 84.69 75.0852 84.741 75.1482 84.771L76.4532 85.524C76.4838 85.5395 76.5178 85.5476 76.5522 85.5476C76.5866 85.5476 76.6205 85.5395 76.6512 85.524L78.0132 84.735C78.0702 84.702 78.0762 84.651 78.0132 84.621L76.7082 83.871ZM49.8282 98.85L51.1932 98.064C51.2502 98.031 51.2562 97.98 51.1932 97.95L49.9002 97.2C49.8695 97.1844 49.8356 97.1763 49.8012 97.1763C49.7668 97.1763 49.7328 97.1844 49.7022 97.2L48.3402 97.989C48.2832 98.022 48.2772 98.073 48.3402 98.103L49.6452 98.853C49.6752 98.8675 49.7082 98.8748 49.7415 98.8743C49.7749 98.8738 49.8076 98.8655 49.8372 98.85H49.8282ZM72.7272 86.169C72.6965 86.1534 72.6626 86.1453 72.6282 86.1453C72.5938 86.1453 72.5598 86.1534 72.5292 86.169L71.1642 86.958C71.1072 86.991 71.1012 87.042 71.1642 87.072L72.4662 87.825C72.4971 87.8396 72.5309 87.8473 72.5652 87.8473C72.5994 87.8473 72.6332 87.8396 72.6642 87.825L74.0262 87.039C74.0862 87.006 74.0892 86.955 74.0262 86.925L72.7272 86.169ZM83.1042 80.169C83.0735 80.1534 83.0396 80.1453 83.0052 80.1453C82.9708 80.1453 82.9368 80.1534 82.9062 80.169L81.5412 80.958C81.4842 80.991 81.4782 81.042 81.5412 81.072L82.8462 81.822C82.8768 81.8375 82.9108 81.8456 82.9452 81.8456C82.9796 81.8456 83.0135 81.8375 83.0442 81.822L84.4062 81.036C84.4632 81.003 84.4692 80.952 84.4062 80.922L83.1042 80.169ZM86.4042 79.773L83.2392 77.943C83.2087 77.9267 83.1747 77.9182 83.1402 77.9182C83.1056 77.9182 83.0716 77.9267 83.0412 77.943L81.6762 78.729C81.6192 78.762 81.6132 78.813 81.6762 78.843L84.8352 80.7C84.8658 80.7155 84.8998 80.7236 84.9342 80.7236C84.9686 80.7236 85.0025 80.7155 85.0332 80.7L86.3952 79.914C86.4522 79.863 86.4582 79.8 86.4072 79.782L86.4042 79.773ZM65.2902 90.456C65.2596 90.4399 65.2256 90.4316 65.1912 90.4316C65.1567 90.4316 65.1227 90.4399 65.0922 90.456L63.4152 91.422C63.3582 91.455 63.3522 91.506 63.4152 91.536L64.7202 92.289C64.7508 92.3045 64.7848 92.3126 64.8192 92.3126C64.8536 92.3126 64.8875 92.3045 64.9182 92.289L66.5952 91.32C66.6522 91.287 66.6582 91.236 66.5952 91.206L65.2902 90.456ZM70.3212 87.552C70.2905 87.5364 70.2566 87.5283 70.2222 87.5283C70.1878 87.5283 70.1538 87.5364 70.1232 87.552L68.0232 88.752C67.9662 88.785 67.9602 88.836 68.0232 88.866L69.3282 89.619C69.3587 89.635 69.3927 89.6434 69.4272 89.6434C69.4616 89.6434 69.4956 89.635 69.5262 89.619L71.6262 88.419C71.6832 88.386 71.6892 88.335 71.6262 88.305L70.3212 87.552ZM60.6792 93.12C60.6485 93.1044 60.6146 93.0963 60.5802 93.0963C60.5458 93.0963 60.5118 93.1044 60.4812 93.12L49.2672 99.6C49.2102 99.636 49.2042 99.687 49.2672 99.717L50.5722 100.467C50.6028 100.483 50.6368 100.491 50.6712 100.491C50.7056 100.491 50.7395 100.483 50.7702 100.467L61.9842 93.993C62.0442 93.96 62.0472 93.909 61.9842 93.879L60.6792 93.12ZM48.8352 99.957C48.8045 99.9414 48.7706 99.9333 48.7362 99.9333C48.7018 99.9333 48.6678 99.9414 48.6372 99.957L46.9602 100.926C46.9002 100.959 46.8942 101.01 46.9602 101.04L48.2622 101.793C48.2928 101.809 48.3268 101.817 48.3612 101.817C48.3956 101.817 48.4295 101.809 48.4602 101.793L50.1372 100.824C50.1942 100.791 50.2002 100.74 50.1372 100.71L48.8352 99.957ZM62.9862 91.8C62.9555 91.7844 62.9216 91.7763 62.8872 91.7763C62.8528 91.7763 62.8188 91.7844 62.7882 91.8L61.1112 92.769C61.0542 92.802 61.0482 92.853 61.1112 92.883L62.4162 93.636C62.4468 93.6515 62.4808 93.6596 62.5152 93.6596C62.5496 93.6596 62.5835 93.6515 62.6142 93.636L64.2912 92.667C64.3482 92.634 64.3542 92.583 64.2912 92.553L62.9862 91.8ZM46.5312 101.301C46.5005 101.285 46.4666 101.277 46.4322 101.277C46.3978 101.277 46.3638 101.285 46.3332 101.301L44.6562 102.27C44.5992 102.303 44.5932 102.354 44.6562 102.384L45.9612 103.137C45.9918 103.153 46.0258 103.161 46.0602 103.161C46.0946 103.161 46.1285 103.153 46.1592 103.137L47.8362 102.168C47.8932 102.135 47.8992 102.084 47.8362 102.054L46.5312 101.301ZM67.6002 89.133C67.5692 89.1183 67.5354 89.1107 67.5012 89.1107C67.4669 89.1107 67.4331 89.1183 67.4022 89.133L65.7252 90.099C65.6652 90.135 65.6622 90.186 65.7252 90.216L67.0272 90.966C67.0578 90.9815 67.0918 90.9896 67.1262 90.9896C67.1606 90.9896 67.1945 90.9815 67.2252 90.966L68.8902 90C68.9502 89.967 68.9532 89.916 68.8902 89.886L67.6002 89.133ZM74.7252 85.02C74.6945 85.0044 74.6606 84.9963 74.6262 84.9963C74.5918 84.9963 74.5578 85.0044 74.5272 85.02L73.1652 85.8C73.1082 85.833 73.1022 85.884 73.1652 85.914L74.4702 86.667C74.5008 86.6825 74.5348 86.6906 74.5692 86.6906C74.6036 86.6906 74.6375 86.6825 74.6682 86.667L76.0302 85.881C76.0872 85.848 76.0932 85.797 76.0302 85.767L74.7252 85.02ZM79.1862 81.9L80.5512 81.114C80.6082 81.081 80.6142 81.03 80.5512 81L79.2492 80.247C79.2185 80.2314 79.1846 80.2233 79.1502 80.2233C79.1158 80.2233 79.0818 80.2314 79.0512 80.247L77.6892 81.033C77.6292 81.069 77.6262 81.12 77.6892 81.147L79.0002 81.9C79.0293 81.9136 79.061 81.9207 79.0932 81.9207C79.1253 81.9207 79.1571 81.9136 79.1862 81.9ZM71.0592 82.293L72.4242 81.504C72.4812 81.471 72.4872 81.42 72.4242 81.39L71.1192 80.637C71.0886 80.6209 71.0546 80.6126 71.0202 80.6126C70.9857 80.6126 70.9517 80.6209 70.9212 80.637L69.5592 81.423C69.4992 81.456 69.4962 81.507 69.5592 81.537L70.8612 82.29C70.8911 82.3069 70.9247 82.3166 70.9591 82.3181C70.9935 82.3197 71.0278 82.3131 71.0592 82.299V82.293ZM65.7702 89.652L69.7542 87.354C69.8112 87.318 69.8172 87.267 69.7542 87.237L68.4492 86.487C68.4185 86.4714 68.3846 86.4633 68.3502 86.4633C68.3158 86.4633 68.2818 86.4714 68.2512 86.487L64.2822 88.8C64.2222 88.836 64.2192 88.887 64.2822 88.914L65.5842 89.667C65.6143 89.6783 65.6467 89.6829 65.6788 89.6803C65.711 89.6777 65.7422 89.668 65.7702 89.652ZM76.9992 83.052C77.0293 83.0675 77.0627 83.0756 77.0967 83.0756C77.1306 83.0756 77.164 83.0675 77.1942 83.052L78.5592 82.266C78.6162 82.233 78.6222 82.182 78.5592 82.152L77.2542 81.399C77.2235 81.3834 77.1896 81.3753 77.1552 81.3753C77.1208 81.3753 77.0868 81.3834 77.0562 81.399L75.7002 82.2C75.6432 82.233 75.6372 82.284 75.7002 82.314L76.9992 83.052ZM75.3342 81.969L76.6962 81.183C76.7532 81.15 76.7592 81.099 76.6962 81.069L75.4002 80.328C75.3695 80.3124 75.3356 80.3043 75.3012 80.3043C75.2668 80.3043 75.2328 80.3124 75.2022 80.328L73.8402 81.114C73.7832 81.147 73.7772 81.198 73.8402 81.228L75.1452 81.981C75.1747 81.9951 75.207 82.0024 75.2397 82.0024C75.2724 82.0024 75.3047 81.9951 75.3342 81.981V81.969ZM63.7782 90.789L65.1432 90.003C65.2002 89.97 65.2062 89.919 65.1432 89.889L63.8412 89.136C63.8105 89.1204 63.7766 89.1123 63.7422 89.1123C63.7078 89.1123 63.6738 89.1204 63.6432 89.136L62.2812 89.925C62.2212 89.958 62.2182 90.009 62.2812 90.039L63.5832 90.792C63.6125 90.8091 63.6456 90.8189 63.6795 90.8205C63.7135 90.8221 63.7474 90.8154 63.7782 90.801V90.789ZM72.5952 85.593C72.6258 85.6085 72.6598 85.6166 72.6942 85.6166C72.7286 85.6166 72.7625 85.6085 72.7932 85.593L74.1552 84.804C74.2152 84.771 74.2182 84.72 74.1552 84.69L72.8532 83.937C72.8227 83.9207 72.7887 83.9122 72.7542 83.9122C72.7196 83.9122 72.6856 83.9207 72.6552 83.937L71.2902 84.723C71.2332 84.756 71.2272 84.807 71.2902 84.837L72.5952 85.593ZM53.8212 96.54L55.1832 95.751C55.2432 95.718 55.2462 95.667 55.1832 95.637L53.8812 94.884C53.8502 94.8693 53.8164 94.8617 53.7822 94.8617C53.7479 94.8617 53.7141 94.8693 53.6832 94.884L52.3332 95.7C52.2732 95.733 52.2702 95.784 52.3332 95.814L53.6352 96.567C53.6653 96.5783 53.6977 96.5829 53.7298 96.5803C53.762 96.5777 53.7932 96.568 53.8212 96.552V96.54ZM55.8132 95.388L57.1752 94.602C57.2352 94.569 57.2382 94.518 57.1752 94.488L55.9002 93.747C55.8695 93.7314 55.8356 93.7233 55.8012 93.7233C55.7668 93.7233 55.7328 93.7314 55.7022 93.747L54.3372 94.536C54.2802 94.569 54.2742 94.62 54.3372 94.65L55.6422 95.403C55.6693 95.4143 55.6985 95.4199 55.728 95.4194C55.7574 95.4189 55.7864 95.4123 55.8132 95.4V95.388ZM51.8292 97.689L53.1942 96.903C53.2512 96.87 53.2572 96.819 53.1942 96.789L51.8922 96.036C51.8615 96.0204 51.8276 96.0123 51.7932 96.0123C51.7588 96.0123 51.7248 96.0204 51.6942 96.036L50.3322 96.822C50.2722 96.855 50.2692 96.906 50.3322 96.936L51.6342 97.689C51.6635 97.7059 51.6964 97.7158 51.7302 97.7179C51.7641 97.72 51.7979 97.7142 51.8292 97.701V97.689ZM59.8002 93.102L61.1622 92.316C61.2192 92.283 61.2252 92.229 61.1622 92.202L59.8572 91.449C59.8265 91.4334 59.7926 91.4253 59.7582 91.4253C59.7238 91.4253 59.6898 91.4334 59.6592 91.449L58.3002 92.241C58.2432 92.274 58.2372 92.325 58.3002 92.355L59.6052 93.108C59.6359 93.1221 59.6695 93.1289 59.7034 93.1279C59.7372 93.1268 59.7703 93.118 59.8002 93.102ZM57.8082 94.251L59.1702 93.465C59.2272 93.432 59.2332 93.381 59.1702 93.351L57.8652 92.598C57.8345 92.5824 57.8006 92.5743 57.7662 92.5743C57.7318 92.5743 57.6978 92.5824 57.6672 92.598L56.3052 93.384C56.2482 93.42 56.2422 93.471 56.3052 93.501L57.6102 94.251C57.6404 94.266 57.6738 94.2739 57.7077 94.2739C57.7415 94.2739 57.7749 94.266 57.8052 94.251H57.8082ZM61.7892 91.953L63.1542 91.164C63.2112 91.131 63.2172 91.08 63.1542 91.05L61.8582 90.3C61.8272 90.2853 61.7934 90.2777 61.7592 90.2777C61.7249 90.2777 61.6911 90.2853 61.6602 90.3L60.2982 91.086C60.2412 91.119 60.2352 91.17 60.2982 91.2L61.6032 91.953C61.6317 91.9666 61.663 91.9736 61.6947 91.9736C61.7263 91.9736 61.7576 91.9666 61.7862 91.953H61.7892ZM72.6582 75.957C72.6888 75.9725 72.7228 75.9806 72.7572 75.9806C72.7916 75.9806 72.8255 75.9725 72.8562 75.957L74.2182 75.168C74.2782 75.135 74.2812 75.084 74.2182 75.054L73.8732 74.853C73.8422 74.8383 73.8084 74.8307 73.7742 74.8307C73.7399 74.8307 73.7061 74.8383 73.6752 74.853L72.3102 75.639C72.2532 75.672 72.2472 75.723 72.3102 75.753L72.6582 75.957ZM62.7582 82.224C62.7888 82.2395 62.8228 82.2476 62.8572 82.2476C62.8916 82.2476 62.9255 82.2395 62.9562 82.224L64.3182 81.435C64.3752 81.402 64.3812 81.351 64.3182 81.321L63.0132 80.571C62.9825 80.5554 62.9486 80.5473 62.9142 80.5473C62.8798 80.5473 62.8458 80.5554 62.8152 80.571L61.4532 81.357C61.3962 81.39 61.3902 81.441 61.4532 81.471L62.7582 82.224ZM66.7392 79.923C66.7698 79.9385 66.8038 79.9466 66.8382 79.9466C66.8726 79.9466 66.9065 79.9385 66.9372 79.923L68.2992 79.137C68.3592 79.104 68.3622 79.053 68.2992 79.023L67.0002 78.264C66.9695 78.2484 66.9356 78.2403 66.9012 78.2403C66.8668 78.2403 66.8328 78.2484 66.8022 78.264L65.4402 79.05C65.3802 79.086 65.3772 79.137 65.4402 79.167L66.7392 79.923ZM60.3252 83.628C60.3558 83.6435 60.3898 83.6516 60.4242 83.6516C60.4586 83.6516 60.4925 83.6435 60.5232 83.628L61.8852 82.839C61.9422 82.806 61.9482 82.755 61.8852 82.725L60.5832 81.972C60.5522 81.9573 60.5184 81.9497 60.4842 81.9497C60.4499 81.9497 60.4161 81.9573 60.3852 81.972L59.0202 82.758C58.9632 82.791 58.9572 82.842 59.0202 82.872L60.3252 83.628ZM64.7472 81.075C64.7776 81.0912 64.8116 81.0998 64.8462 81.0998C64.8807 81.0998 64.9147 81.0912 64.9452 81.075L66.3102 80.289C66.3672 80.256 66.3732 80.205 66.3102 80.175L65.0082 79.422C64.9775 79.4064 64.9436 79.3983 64.9092 79.3983C64.8748 79.3983 64.8408 79.4064 64.8102 79.422L63.4482 80.211C63.3882 80.244 63.3852 80.295 63.4482 80.325L64.7472 81.075ZM56.3472 85.926C56.3778 85.9415 56.4118 85.9496 56.4462 85.9496C56.4806 85.9496 56.5145 85.9415 56.5452 85.926L57.9072 85.14C57.9672 85.107 57.9732 85.056 57.9072 85.026L56.6052 84.273C56.5745 84.2574 56.5406 84.2493 56.5062 84.2493C56.4718 84.2493 56.4378 84.2574 56.4072 84.273L55.0452 85.059C54.9852 85.095 54.9822 85.146 55.0452 85.176L56.3472 85.926ZM58.3392 84.777C58.3698 84.7925 58.4038 84.8006 58.4382 84.8006C58.4726 84.8006 58.5065 84.7925 58.5372 84.777L59.8992 83.991C59.9592 83.958 59.9622 83.907 59.8992 83.877L58.6002 83.118C58.5695 83.1024 58.5356 83.0943 58.5012 83.0943C58.4668 83.0943 58.4328 83.1024 58.4022 83.118L57.0402 83.904C56.9802 83.937 56.9742 83.988 57.0402 84.018L58.3392 84.777ZM68.6772 78.255C68.7078 78.2705 68.7418 78.2786 68.7762 78.2786C68.8106 78.2786 68.8445 78.2705 68.8752 78.255L70.2402 77.469C70.2972 77.436 70.3032 77.385 70.2402 77.355L69.8922 77.154C69.8615 77.1384 69.8276 77.1303 69.7932 77.1303C69.7588 77.1303 69.7248 77.1384 69.6942 77.154L68.3322 77.943C68.2722 77.976 68.2692 78.027 68.3322 78.057L68.6772 78.255ZM74.6532 74.808C74.6839 74.8233 74.7178 74.8313 74.7522 74.8313C74.7865 74.8313 74.8204 74.8233 74.8512 74.808L76.2132 74.022C76.2702 73.989 76.2762 73.938 76.2132 73.908L75.8652 73.707C75.8346 73.6909 75.8006 73.6826 75.7662 73.6826C75.7317 73.6826 75.6977 73.6909 75.6672 73.707L74.3052 74.493C74.2482 74.526 74.2422 74.577 74.3052 74.607L74.6532 74.808ZM77.3922 76.389C77.4227 76.405 77.4567 76.4134 77.4912 76.4134C77.5256 76.4134 77.5596 76.405 77.5902 76.389L78.9522 75.603C79.0092 75.57 79.0152 75.519 78.9522 75.489L77.6472 74.736C77.6165 74.7204 77.5826 74.7123 77.5482 74.7123C77.5138 74.7123 77.4798 74.7204 77.4492 74.736L76.0872 75.525C76.0302 75.558 76.0242 75.609 76.0872 75.639L77.3922 76.389ZM81.1842 80.757L82.5462 79.971C82.6062 79.935 82.6092 79.884 82.5462 79.857L81.2442 79.104C81.2135 79.0884 81.1796 79.0803 81.1452 79.0803C81.1108 79.0803 81.0768 79.0884 81.0462 79.104L79.6842 79.89C79.6242 79.923 79.6212 79.974 79.6842 80.004L80.9862 80.757C81.0161 80.7715 81.0489 80.7791 81.0822 80.7791C81.1154 80.7791 81.1483 80.7715 81.1782 80.757H81.1842ZM70.6842 77.106C70.7148 77.1215 70.7488 77.1296 70.7832 77.1296C70.8176 77.1296 70.8515 77.1215 70.8822 77.106L72.2442 76.32C72.3042 76.287 72.3072 76.233 72.2442 76.206L71.8992 76.005C71.8685 75.9894 71.8346 75.9813 71.8002 75.9813C71.7658 75.9813 71.7318 75.9894 71.7012 76.005L70.3272 76.8C70.2702 76.833 70.2642 76.884 70.3272 76.914L70.6842 77.106ZM54.3702 87.078C54.4006 87.0942 54.4346 87.1028 54.4692 87.1028C54.5037 87.1028 54.5377 87.0942 54.5682 87.078L55.9332 86.292C55.9902 86.259 55.9962 86.208 55.9332 86.178L54.6282 85.425C54.5976 85.4089 54.5636 85.4006 54.5292 85.4006C54.4947 85.4006 54.4607 85.4089 54.4302 85.425L53.0682 86.211C53.0112 86.244 53.0052 86.295 53.0682 86.325L54.3702 87.078Z" fill="#455A64"/>
<path d="M60.0552 98.409L60.3522 98.58L68.2212 103.125L82.2162 95.043L82.5072 94.878L74.3412 90.165L60.0552 98.409Z" fill="#263238"/>
<path d="M82.0361 95.148L74.3411 90.7079L60.5291 98.685L68.2211 103.125L82.0361 95.148Z" fill="#37474F"/>
<path d="M42.025 17.04C39.565 15.429 36.394 15.717 34.678 17.016C32.278 18.84 31.432 20.847 31 24.816C30.4 30.408 29.77 32.016 29.107 33.285C28.8243 33.8425 28.4337 34.3383 27.9578 34.7436C27.482 35.1489 26.9303 35.4557 26.335 35.646C26.8097 35.9363 27.3507 36.1005 27.9067 36.1231C28.4627 36.1456 29.0153 36.0258 29.512 35.775C28.948 38.475 28.162 40.74 28.861 43.593C29.332 45.513 30.334 47.688 31.813 49.065C33.073 50.238 34.876 50.595 36.391 51.258C35.368 49.065 34.819 46.995 35.527 44.529C36.307 41.808 38.131 39.492 38.938 36.75C40.06 32.958 41.338 29.028 41.659 25.071C41.926 21.735 42.052 19.332 42.025 17.04Z" fill="#263238"/>
<path d="M40.7979 17.541C40.4049 17.172 38.6679 17.412 37.6179 18.663C36.5679 19.914 35.9439 21.732 37.2189 22.707C38.4129 23.622 43.0539 18.753 40.7979 17.541Z" fill="#459AE9"/>
<path d="M55.0449 23.031C55.9089 22.713 56.2779 21.6 56.0199 20.715C55.7619 19.83 55.0389 19.158 54.2679 18.651C52.503 17.5115 50.3966 17.0215 48.3099 17.265C46.3745 16.649 44.3123 16.5457 42.3249 16.965C41.0319 17.2642 39.8685 17.9693 39.0049 18.977C38.1412 19.9848 37.6227 21.2424 37.5249 22.566C34.4439 23.292 33.0969 27.066 34.9989 31.116C36.3819 34.044 39.4989 36.069 39.8859 37.527L51.5679 28.449C52.0239 29.16 53.4339 29.193 54.0099 28.911C54.5859 28.629 54.9459 27.585 54.5619 27.069C55.0978 27.1326 55.637 26.9808 56.0609 26.6469C56.4849 26.313 56.7588 25.8244 56.8224 25.2885C56.8861 24.7526 56.7343 24.2134 56.4004 23.7895C56.0664 23.3656 55.5778 23.0916 55.0419 23.028L55.0449 23.031Z" fill="#263238"/>
<path d="M42.325 16.968C41.0531 17.3049 39.9175 18.0294 39.076 19.041C38.6565 19.5365 38.3201 20.0968 38.08 20.7C37.8455 21.3018 37.7058 21.9364 37.666 22.581V22.68L37.57 22.704C36.8454 22.8735 36.1831 23.2436 35.659 23.772C35.1411 24.3061 34.7602 24.9576 34.549 25.671C34.156 27.1272 34.2263 28.6696 34.75 30.084C35.2618 31.5129 36.0578 32.8233 37.09 33.936C37.591 34.512 38.119 35.064 38.626 35.637C38.881 35.937 39.136 36.21 39.364 36.537C39.6045 36.8372 39.7857 37.1802 39.898 37.548C39.7646 37.1907 39.5663 36.8612 39.313 36.576C39.0713 36.2814 38.815 35.999 38.545 35.73C38.008 35.184 37.462 34.647 36.946 34.08C36.4214 33.5172 35.94 32.9154 35.506 32.28C35.0752 31.6334 34.7303 30.9336 34.48 30.198C34.2103 29.4591 34.0486 28.6851 34 27.9C33.9362 27.1174 34.0197 26.3298 34.246 25.578C34.4769 24.8196 34.8887 24.1288 35.446 23.565C36.0121 23.0049 36.7242 22.6151 37.501 22.44L37.396 22.563C37.501 21.2154 38.0448 19.9392 38.944 18.93C39.3883 18.4332 39.9075 18.0091 40.483 17.673C41.0523 17.3345 41.6753 17.0961 42.325 16.968Z" fill="black"/>
<path d="M85.1349 42.243C85.7769 41.697 85.8939 41.556 86.7579 40.863C87.3999 40.35 87.9129 39.933 88.0779 39.633C88.4019 39.033 88.0989 38.454 87.8289 38.55C87.2859 38.742 86.6439 39.201 85.3929 40.05C84.0159 40.995 83.0439 41.928 82.9719 41.778C83.4159 41.1615 83.9064 40.5798 84.4389 40.038C86.1249 38.217 86.4549 37.887 86.7639 37.302C87.4179 36.084 86.4999 35.883 86.0979 36.135C85.6389 36.435 85.1409 36.972 83.9349 38.169C82.6269 39.468 81.4869 40.791 81.3819 40.713C81.2769 40.635 83.0889 38.652 84.1749 37.2C85.1799 35.853 84.5259 35.283 84.2379 35.238C83.9499 35.193 83.5809 35.583 83.0949 36.105C82.2159 37.062 79.6599 40.2 79.1259 40.8C78.5919 41.4 78.1869 41.616 78.1179 40.647C78.0519 39.747 78.0969 38.769 77.7009 38.142C77.0379 37.095 76.3059 37.353 76.3029 38.052C76.3029 39.042 76.0659 40.152 75.8919 41.733C75.7989 42.558 75.8139 43.533 75.7959 44.115C75.6939 46.122 74.0109 47.16 72.6099 48.126C71.2089 49.092 67.3929 51.267 67.3929 51.267C67.3929 51.267 60.2769 43.938 58.2009 42.144C55.7349 40.008 55.0299 39.858 51.5469 39.885L56.4729 52.554C56.4729 52.554 63.1689 58.749 65.4429 60.072C67.7169 61.395 68.6409 60.672 71.4039 58.221C73.5249 56.34 77.0169 52.029 77.8599 51.072C78.7029 50.115 79.0599 49.497 80.0469 49.137C81.3759 48.651 82.0599 47.982 82.9449 46.968C83.3679 46.485 84.0669 45.513 84.7119 44.868C85.5836 44.0405 86.5043 43.2661 87.4689 42.549C88.0509 42.06 88.1409 41.049 87.3249 41.373C85.7769 41.973 84.2259 43.281 84.1749 43.194C84.1239 43.107 84.6999 42.615 85.1349 42.243Z" fill="#FFBDA7"/>
<path d="M78.658 42.3C79.369 43.347 79.528 45.822 78.835 47.295C80.266 45.9 80.116 43.377 78.658 42.3Z" fill="#F0997A"/>
<path d="M67.393 51.279C66.214 52.05 64.807 54.279 65.209 56.571C64.696 54.879 64.252 52.767 66.838 50.661L67.393 51.279Z" fill="#F0997A"/>
<path d="M33.3999 43.602L36.1449 42.504C36.1449 42.504 40.2399 41.442 43.6449 40.704C47.2449 40.251 50.3379 39.912 50.3379 39.912L51.5529 39.891C51.5529 39.891 54.2529 42.267 56.2299 44.46C58.2069 46.653 59.9439 48.486 60.0549 51.255C60.2019 54.996 57.7989 56.355 57.7989 56.355L57.9459 61.122L61.0689 69.957L30.8889 87.375C31.8069 76.62 34.1889 74.847 35.5359 67.392C35.2779 63.492 33.3369 58.14 33.0069 55.422C31.8549 46.035 33.3999 43.602 33.3999 43.602Z" fill="#459AE9"/>
<path d="M39.778 38.916C39.892 37.599 40.078 34.98 40.078 34.98C39.751 35.415 37.978 36.018 36.778 34.314C35.38 32.349 35.602 30.942 36.577 30C37.687 28.926 39.631 29.202 40.441 30.9C40.948 32.1 41.941 30.684 40.942 28.8C40.609 25.482 44.842 27.681 47.479 20.763C50.14 20.613 51.745 21.363 53.038 23.577C53.638 24.579 54.337 26.022 54.193 30.201C54.007 35.523 53.206 37.197 51.343 38.088C50.485 38.499 49.603 38.655 47.95 38.532L47.935 39.042C47.9324 39.1603 47.9385 39.2786 47.953 39.396C47.9608 39.5433 48.0227 39.6826 48.1268 39.7872C48.2308 39.8918 48.3697 39.9544 48.517 39.963C49.1264 39.9869 49.7368 39.9698 50.344 39.912C50.344 39.912 51.7 43.32 47.2 44.289C43.4165 45.0953 39.4683 44.4587 36.13 42.504C36.7995 42.1606 37.4441 41.7706 38.059 41.337C39.448 40.332 39.7 39.741 39.778 38.916Z" fill="#FFBDA7"/>
<path d="M38.0531 34.062C38.0579 34.1899 38.1004 34.3136 38.1754 34.4173C38.2504 34.521 38.3544 34.6003 38.4744 34.6449C38.5943 34.6896 38.7248 34.6978 38.8494 34.6684C38.974 34.639 39.0871 34.5734 39.1744 34.4798C39.2617 34.3862 39.3194 34.2688 39.3401 34.1425C39.3608 34.0162 39.3436 33.8866 39.2907 33.77C39.2378 33.6534 39.1516 33.5551 39.043 33.4875C38.9343 33.4199 38.808 33.386 38.6801 33.39C38.5946 33.3923 38.5104 33.4116 38.4324 33.4468C38.3544 33.4819 38.2842 33.5322 38.2259 33.5948C38.1675 33.6573 38.1222 33.7308 38.0925 33.811C38.0629 33.8913 38.0495 33.9766 38.0531 34.062Z" fill="#FAFAFA"/>
<path d="M46.5519 33.351L49.4439 34.251C49.392 34.4438 49.3022 34.6243 49.1796 34.7819C49.057 34.9396 48.9042 35.0711 48.7302 35.1689C48.5561 35.2667 48.3642 35.3288 48.1658 35.3515C47.9675 35.3741 47.7666 35.357 47.5749 35.301C47.1852 35.1715 46.8609 34.8959 46.6702 34.5323C46.4794 34.1687 46.437 33.7452 46.5519 33.351Z" fill="#B16668"/>
<path d="M46.7409 34.017C47.1258 34.0043 47.5032 34.1258 47.8085 34.3605C48.1138 34.5953 48.3282 34.9288 48.4149 35.304C48.1409 35.3864 47.8488 35.3864 47.5749 35.304C47.2994 35.2137 47.0545 35.0487 46.8675 34.8272C46.6805 34.6058 46.5588 34.3367 46.5159 34.05C46.5901 34.0344 46.6653 34.0234 46.7409 34.017Z" fill="#F28F8F"/>
<path d="M53.0739 26.121L51.2529 25.686C51.2756 25.5662 51.3223 25.4522 51.3903 25.351C51.4583 25.2498 51.5462 25.1634 51.6486 25.0972C51.751 25.031 51.8658 24.9863 51.986 24.9658C52.1062 24.9453 52.2294 24.9495 52.3479 24.978C52.5923 25.0394 52.8037 25.1921 52.9388 25.4048C53.0739 25.6174 53.1222 25.8738 53.0739 26.121Z" fill="#263238"/>
<path d="M44.2001 26.028L45.9731 25.359C45.9365 25.2395 45.8754 25.1289 45.7937 25.0343C45.712 24.9398 45.6115 24.8632 45.4987 24.8096C45.3858 24.756 45.263 24.7264 45.138 24.7229C45.0131 24.7194 44.8888 24.7419 44.7731 24.789C44.5377 24.8837 44.3474 25.0647 44.2409 25.2949C44.1344 25.5251 44.1198 25.7873 44.2001 26.028Z" fill="#263238"/>
<path d="M51.286 28.482C51.2755 28.687 51.3435 28.8882 51.4761 29.0449C51.6088 29.2015 51.7961 29.3016 52 29.325C52.1006 29.3358 52.2023 29.3261 52.2991 29.2966C52.3959 29.2672 52.4857 29.2185 52.5633 29.1535C52.6409 29.0886 52.7046 29.0087 52.7505 28.9185C52.7965 28.8284 52.8239 28.73 52.831 28.629C52.842 28.422 52.7726 28.2188 52.6373 28.0617C52.502 27.9046 52.3113 27.8058 52.105 27.786C52.0053 27.777 51.9049 27.7879 51.8095 27.8182C51.7141 27.8484 51.6257 27.8974 51.5494 27.9622C51.4732 28.027 51.4106 28.1063 51.3654 28.1956C51.3201 28.2848 51.2931 28.3822 51.286 28.482Z" fill="#263238"/>
<path d="M44.9409 28.521C44.9283 28.7282 44.9967 28.9322 45.1315 29.0901C45.2664 29.2479 45.4573 29.3472 45.6639 29.367C45.7646 29.3782 45.8665 29.3688 45.9635 29.3395C46.0604 29.3102 46.1505 29.2616 46.2281 29.1965C46.3058 29.1315 46.3695 29.0514 46.4153 28.9611C46.4612 28.8708 46.4883 28.7721 46.4949 28.671C46.5075 28.4641 46.4391 28.2604 46.3041 28.1031C46.1692 27.9458 45.9783 27.8471 45.7719 27.828C45.6716 27.8173 45.5701 27.8268 45.4735 27.8561C45.3769 27.8854 45.2871 27.9338 45.2096 27.9984C45.1321 28.0631 45.0683 28.1427 45.0222 28.2324C44.976 28.3222 44.9484 28.4203 44.9409 28.521Z" fill="#263238"/>
<path d="M47.9379 38.535C46.2148 38.3719 44.5351 37.9004 42.9789 37.143C42.1245 36.6513 41.4481 35.9014 41.0469 35.001C41.0664 35.5194 41.1952 36.0279 41.4247 36.4931C41.6543 36.9584 41.9794 37.37 42.3789 37.701C43.8789 38.961 47.9409 39.387 47.9409 39.387C47.9235 39.2698 47.9175 39.1513 47.9229 39.033L47.9379 38.535Z" fill="#F0997A"/>
<path d="M45.793 57C47.257 55.755 48.001 55.263 48.706 55.017C49.411 54.771 51.856 53.565 52.804 53.265C53.404 53.073 53.704 54.03 52.978 54.747C52.411 55.299 50.896 56.073 50.236 56.49C49.576 56.907 48.337 58.623 48.337 58.623L45.793 57Z" fill="#F0997A"/>
<path d="M42.472 67.932C37.672 70.656 33.472 74.049 28.819 74.748C24.283 75.426 24.142 71.67 24.223 68.871C24.325 65.337 26.305 54.255 27.334 50.571C28.426 46.65 29.134 45.204 33.385 43.608C36.895 45.909 36.085 53.508 35.338 56.409C34.543 59.436 33.256 65.091 33.256 65.091C33.256 65.091 38.788 63.348 40.117 62.646C41.446 61.944 43.672 58.956 44.551 57.999C45.751 56.697 46.39 56.82 47.041 56.877C49.18 57.063 49.657 57.21 50.122 57.477C50.2605 57.5599 50.3758 57.6766 50.4571 57.8162C50.5384 57.9557 50.5831 58.1135 50.587 58.275C51.154 58.311 51.994 58.239 52.162 59.157C52.2245 59.3978 52.2518 59.6463 52.243 59.895C52.3869 59.9108 52.5206 59.9766 52.621 60.081C53.125 60.594 52.438 62.523 51.958 63.012C51.619 63.357 51.112 63.429 50.437 63.381C49.861 63.339 50.089 62.742 50.089 62.742L49.294 62.841C47.65 64.173 47.569 66.141 45.325 66.819C44.3234 67.0445 43.3616 67.4197 42.472 67.932Z" fill="#FFBDA7"/>
<path d="M50.587 58.26L48.04 57.9H50.5C50.552 58.0132 50.5815 58.1355 50.587 58.26Z" fill="#F0997A"/>
<path d="M52.243 59.8799L49.324 59.6879L52.225 59.5439C52.2433 59.6549 52.2494 59.7676 52.243 59.8799Z" fill="#F0997A"/>
<path d="M51.94 61.179C51.856 61.3331 51.7288 61.4592 51.574 61.542C51.422 61.631 51.2585 61.6987 51.088 61.743L51.124 61.713C51.058 61.869 50.983 62.013 50.911 62.175L50.845 62.103C50.9245 62.083 51.0073 62.0802 51.088 62.0947C51.1687 62.1092 51.2454 62.1406 51.313 62.187C51.4396 62.2772 51.5359 62.4038 51.589 62.55C51.5143 62.4275 51.4115 62.3246 51.289 62.25C51.167 62.187 51.0265 62.17 50.893 62.202L50.782 62.232L50.827 62.127C50.896 61.971 50.965 61.827 51.043 61.665V61.641H51.067C51.2288 61.6009 51.3865 61.5456 51.538 61.476C51.6937 61.4103 51.8315 61.3085 51.94 61.179Z" fill="#F0997A"/>
<path d="M51.1959 61.602C50.851 61.6687 50.5024 61.7147 50.1519 61.74C50.1041 61.961 49.9913 62.1626 49.8279 62.319C49.6605 62.4988 49.4822 62.6681 49.2939 62.826L50.0889 62.727C50.0889 62.727 50.2629 62.358 50.9709 62.175L51.1959 61.602Z" fill="#F0997A"/>
<path d="M33.4961 64.038L33.2561 65.085C31.2131 65.751 29.0561 67.341 28.6331 68.508C28.9001 66.681 29.9021 65.244 33.4961 64.038Z" fill="#F0997A"/>
<path d="M54.9251 26.508L54.6251 26.469C53.6201 26.364 52.2821 26.34 51.4751 26.607C50.4311 26.955 50.0711 27.339 49.4621 27.354C48.8021 27.354 48.3671 26.985 47.1371 26.652C46.1351 26.388 44.4371 26.436 43.0871 26.577L42.6581 26.625C42.5111 26.6649 42.3819 26.7532 42.2915 26.8758C42.2011 26.9983 42.1548 27.1478 42.1601 27.3C42.2087 27.5967 42.3493 27.8706 42.5621 28.083C42.6268 28.1799 42.6736 28.2876 42.7001 28.401C42.8381 28.953 42.9191 30.03 43.2011 30.624C43.3346 30.9198 43.5217 31.1884 43.7531 31.416C43.8402 31.4993 43.9345 31.5746 44.0351 31.641L44.2001 31.743C44.3534 31.8264 44.5154 31.8928 44.6831 31.941L44.7641 31.962L44.8901 31.992L45.0251 32.013C45.164 32.0359 45.3043 32.0489 45.4451 32.052H45.6251H45.8471C47.5361 31.941 48.1961 31.086 48.5651 30.252C48.9341 29.418 48.7841 28.317 49.4981 28.299H49.5641C49.585 28.2959 49.6062 28.2959 49.6271 28.299C50.1521 28.407 50.1401 29.418 50.5061 30.141C50.6461 30.4282 50.8292 30.6922 51.0491 30.924C51.0889 30.9663 51.1309 31.0063 51.1751 31.044L51.2411 31.098L51.3101 31.152L51.3731 31.197L51.4421 31.242L51.4961 31.272L51.5321 31.293C51.7242 31.3987 51.9317 31.4736 52.1471 31.515H52.2011C52.4398 31.5561 52.6828 31.5661 52.9241 31.545C53.3661 31.539 53.7931 31.3837 54.1357 31.1043C54.4783 30.8249 54.7163 30.4378 54.8111 30.006C54.9701 29.466 54.9611 28.53 55.0151 28.041C55.0241 27.9509 55.055 27.8644 55.1051 27.789C55.2424 27.5805 55.3163 27.3367 55.3181 27.087C55.3001 26.799 55.0961 26.529 54.9251 26.508ZM48.1271 29.508C48.0544 29.9351 47.8725 30.3361 47.5991 30.672C47.3706 30.9209 47.0922 31.1188 46.782 31.2527C46.4719 31.3866 46.1369 31.4535 45.7991 31.449C45.4544 31.4907 45.1047 31.4421 44.7845 31.308C44.4642 31.1739 44.1842 30.9589 43.9721 30.684C43.9511 30.657 43.9331 30.627 43.9151 30.6C43.895 30.5744 43.877 30.5474 43.8611 30.519C43.8439 30.4944 43.8288 30.4683 43.8161 30.441L43.7771 30.372L43.7501 30.315C43.7409 30.2986 43.7328 30.2816 43.7261 30.264C43.7261 30.237 43.6991 30.21 43.6871 30.18C43.6541 30.096 43.6241 30.015 43.5971 29.934C43.5821 29.886 43.5671 29.835 43.5551 29.787C43.5431 29.739 43.5101 29.622 43.4951 29.55V29.505C43.4951 29.505 43.4951 29.478 43.4951 29.463C43.3661 28.881 43.2161 27.744 43.5191 27.486C43.8221 27.228 44.5931 26.958 45.8351 27.06H45.9671C46.1536 27.0785 46.3389 27.1076 46.5221 27.147C46.5941 27.147 46.6661 27.177 46.7381 27.195C46.9195 27.237 47.0979 27.2911 47.2721 27.357L47.4371 27.42C47.5001 27.444 47.5571 27.474 47.6141 27.501L47.6501 27.519L47.7131 27.552C47.8522 27.6188 47.9758 27.7138 48.0761 27.831C48.2861 28.155 48.2411 28.872 48.1271 29.499V29.508ZM54.5441 29.013C54.5021 29.421 54.4091 30.318 53.7071 30.756C53.4712 30.8999 53.203 30.9825 52.9271 30.996C52.6042 31.0439 52.2743 31.0015 51.974 30.8733C51.6738 30.7452 51.4149 30.5364 51.2261 30.27L51.1931 30.222C51.1796 30.204 51.1676 30.1849 51.1571 30.165C51.1491 30.1557 51.1421 30.1457 51.1361 30.135L51.0881 30.051L51.0371 29.952C51.0371 29.934 51.0221 29.919 51.0161 29.901C51.0149 29.8921 51.0149 29.883 51.0161 29.874C51.0088 29.8616 51.0028 29.8486 50.9981 29.835V29.802C50.9464 29.671 50.9033 29.5367 50.8691 29.4C50.7191 28.8 50.6201 28.11 50.8091 27.777C50.9981 27.444 51.7751 27.084 52.5191 26.976C52.6901 26.952 52.8491 26.937 52.9991 26.931H53.3411H53.4191L53.5481 26.946C53.6289 26.9549 53.7091 26.9689 53.7881 26.988H53.8421H53.8571H53.8961H53.9531L54.0251 27.012L54.1391 27.057H54.1601C54.2555 27.0991 54.3445 27.1546 54.4241 27.222C54.6251 27.483 54.5951 28.5 54.5441 29.004V29.013Z" fill="#37474F"/>
<path d="M42.4361 26.889L38.5901 29.4C39.002 29.4597 39.3877 29.6379 39.7001 29.913L42.6521 27.903L42.4361 26.889Z" fill="#37474F"/>
<path d="M51.814 31.632L49.474 32.805L48.874 29.085C48.8832 28.9446 48.9209 28.8075 48.9849 28.6822C49.0489 28.5568 49.1377 28.4459 49.246 28.356L51.814 31.632Z" fill="#F0997A"/>
<path opacity="0.9" d="M24.241 90.123L24.208 90.108L23.308 89.577C23.1867 89.5071 23.083 89.4105 23.0045 89.2946C22.926 89.1788 22.8749 89.0465 22.855 88.908C22.855 88.866 22.855 88.824 22.855 88.782V87.264C22.8657 86.9292 22.9696 86.604 23.155 86.325L24.223 86.94C24.0192 87.3287 23.9219 87.7645 23.941 88.203V89.601C23.9427 89.6739 23.9569 89.7459 23.983 89.814C24.0308 89.9437 24.122 90.0528 24.241 90.123Z" fill="#263238"/>
<path opacity="0.6" d="M68.92 61.272C68.8243 61.2356 68.7211 61.2233 68.6196 61.2364C68.518 61.2495 68.4213 61.2875 68.338 61.347L24.808 86.4C24.7236 86.4505 24.6433 86.5077 24.568 86.571C24.5164 86.6131 24.4682 86.6592 24.424 86.709C24.3493 86.7843 24.2848 86.869 24.232 86.961L23.146 86.337C23.2002 86.2501 23.2614 86.1678 23.329 86.091L23.398 86.016L23.47 85.947L23.545 85.884C23.5943 85.8443 23.6465 85.8082 23.701 85.776L67.234 60.72C67.3235 60.6543 67.4296 60.6147 67.5403 60.6057C67.651 60.5967 67.762 60.6186 67.861 60.669C68.02 60.765 68.734 61.173 68.92 61.272Z" fill="#455A64"/>
<path d="M27.2139 87.414V86.349C27.2139 86.271 27.2619 86.19 27.3099 86.19H28.2489C28.3089 86.19 28.3089 86.325 28.2489 86.397L27.3099 87.468C27.2619 87.513 27.2139 87.489 27.2139 87.414Z" fill="white"/>
<path d="M29.3979 86.151V85.086C29.3979 85.011 29.4459 84.93 29.4939 84.93H30.4329C30.4929 84.93 30.4929 85.065 30.4329 85.134L29.4999 86.199C29.4459 86.253 29.3979 86.229 29.3979 86.151Z" fill="white"/>
<path d="M30.55 85.596C30.511 85.62 30.478 85.596 30.478 85.542V84.45C30.4787 84.423 30.4856 84.3965 30.498 84.3726C30.5105 84.3487 30.5283 84.328 30.55 84.312C30.589 84.291 30.622 84.312 30.622 84.366V85.461C30.6213 85.4875 30.6145 85.5135 30.602 85.537C30.5895 85.5604 30.5717 85.5806 30.55 85.596Z" fill="white"/>
<path d="M26.11 88.05V87C26.11 86.925 26.062 86.901 26.014 86.952L25.078 88.026C25.015 88.098 25.015 88.233 25.078 88.233H26.014C26.062 88.2 26.11 88.125 26.11 88.05Z" fill="white"/>
<path d="M24.958 88.824C24.9796 88.8086 24.9974 88.7884 25.0099 88.765C25.0224 88.7416 25.0293 88.7155 25.03 88.689V87.6C25.03 87.549 24.997 87.525 24.958 87.546C24.9363 87.562 24.9185 87.5827 24.906 87.6067C24.8935 87.6306 24.8867 87.657 24.886 87.684V88.776C24.886 88.824 24.919 88.848 24.958 88.824Z" fill="white"/>
<path d="M67.096 63.741C67.0739 63.7402 67.053 63.7311 67.0374 63.7155C67.0218 63.6999 67.0127 63.679 67.012 63.657V63.171C67.0124 63.1564 67.0164 63.1422 67.0238 63.1296C67.0311 63.117 67.0415 63.1065 67.054 63.099L67.444 62.874C67.4631 62.863 67.4858 62.86 67.5071 62.8656C67.5284 62.8712 67.5467 62.885 67.558 62.904C67.5633 62.9132 67.5668 62.9234 67.5682 62.934C67.5696 62.9446 67.5689 62.9554 67.5661 62.9657C67.5633 62.976 67.5585 62.9857 67.5519 62.9942C67.5454 63.0026 67.5373 63.0097 67.528 63.015L67.177 63.219V63.657C67.177 63.6787 67.1685 63.6997 67.1534 63.7153C67.1383 63.731 67.1177 63.7402 67.096 63.741Z" fill="white"/>
<path d="M68.158 63.126C68.1362 63.126 68.1153 63.1176 68.0996 63.1025C68.0839 63.0874 68.0748 63.0668 68.074 63.045V62.7L67.81 62.853C67.7908 62.864 67.7682 62.867 67.7468 62.8614C67.7255 62.8558 67.7072 62.842 67.696 62.823C67.6906 62.8138 67.6871 62.8036 67.6857 62.793C67.6844 62.7824 67.6851 62.7716 67.6879 62.7613C67.6907 62.751 67.6955 62.7413 67.702 62.7328C67.7085 62.7244 67.7167 62.7173 67.726 62.712L68.116 62.487C68.1287 62.4796 68.1432 62.4758 68.158 62.4758C68.1727 62.4758 68.1872 62.4796 68.2 62.487C68.212 62.494 68.222 62.5041 68.2289 62.5162C68.2358 62.5283 68.2392 62.5421 68.239 62.556V63.045C68.239 63.0665 68.2304 63.0871 68.2153 63.1023C68.2001 63.1175 68.1795 63.126 68.158 63.126Z" fill="white"/>
<path d="M67.7679 64.272C67.7536 64.2722 67.7395 64.2687 67.7269 64.2619C67.7143 64.255 67.7036 64.2451 67.6959 64.233C67.685 64.2139 67.682 64.1912 67.6876 64.1698C67.6932 64.1485 67.707 64.1303 67.7259 64.119L68.0739 63.918V63.477C68.0747 63.4552 68.0839 63.4346 68.0996 63.4195C68.1152 63.4044 68.1362 63.396 68.1579 63.396C68.1794 63.396 68.2 63.4045 68.2152 63.4197C68.2304 63.4349 68.2389 63.4555 68.2389 63.477V63.966C68.2391 63.9803 68.2356 63.9945 68.2288 64.0071C68.222 64.0197 68.212 64.0303 68.1999 64.038L67.8099 64.263L67.7679 64.272Z" fill="white"/>
<path d="M67.096 64.662C67.0821 64.665 67.0678 64.665 67.054 64.662C67.0415 64.6545 67.0311 64.644 67.0238 64.6314C67.0164 64.6188 67.0124 64.6046 67.012 64.59V64.104C67.0127 64.082 67.0218 64.061 67.0374 64.0455C67.053 64.0299 67.0739 64.0208 67.096 64.02C67.1177 64.0208 67.1383 64.03 67.1534 64.0457C67.1685 64.0613 67.177 64.0823 67.177 64.104V64.446L67.444 64.293C67.4534 64.2858 67.4643 64.2807 67.4759 64.278C67.4875 64.2753 67.4996 64.2751 67.5112 64.2774C67.5229 64.2797 67.534 64.2845 67.5437 64.2914C67.5534 64.2983 67.5615 64.3072 67.5675 64.3175C67.5735 64.3277 67.5772 64.3392 67.5785 64.351C67.5797 64.3629 67.5784 64.3749 67.5747 64.3862C67.571 64.3975 67.5649 64.4078 67.5568 64.4166C67.5487 64.4254 67.5389 64.4323 67.528 64.437L67.138 64.662C67.1241 64.6647 67.1098 64.6647 67.096 64.662Z" fill="white"/>
<path d="M40.4109 79.443V78.9L32.1639 83.664C32.0859 83.708 32.0194 83.7697 31.9699 83.8443C31.9203 83.9189 31.8892 84.0041 31.8789 84.093C31.8789 84.24 32.0049 84.285 32.1639 84.192L40.4109 79.443Z" fill="#459AE9"/>
<path opacity="0.5" d="M63.7869 65.439C63.7476 65.446 63.71 65.4602 63.6759 65.481L40.4109 78.9V79.431L63.6759 66C63.7576 65.9523 63.8273 65.8866 63.8799 65.808C63.9035 65.7699 63.9235 65.7297 63.9399 65.688C63.9541 65.6506 63.9612 65.611 63.9609 65.571C63.962 65.5495 63.9579 65.528 63.9488 65.5085C63.9397 65.4889 63.926 65.4719 63.9088 65.4589C63.8917 65.4459 63.8716 65.4373 63.8503 65.4338C63.8291 65.4303 63.8073 65.4321 63.7869 65.439Z" fill="white"/>
<path d="M40.825 78.975C40.8213 79.1295 40.782 79.281 40.7102 79.4179C40.6384 79.5547 40.536 79.6732 40.411 79.764C40.183 79.893 40 79.764 40 79.449C40.0022 79.2949 40.0405 79.1436 40.1119 79.007C40.1833 78.8705 40.2857 78.7527 40.411 78.663C40.636 78.531 40.825 78.669 40.825 78.975Z" fill="#459AE9"/>
<path opacity="0.5" d="M40.825 78.975C40.8213 79.1295 40.782 79.281 40.7102 79.4179C40.6384 79.5547 40.536 79.6732 40.411 79.764C40.183 79.893 40 79.764 40 79.449C40.0022 79.2949 40.0405 79.1436 40.1119 79.007C40.1833 78.8705 40.2857 78.7527 40.411 78.663C40.636 78.531 40.825 78.669 40.825 78.975Z" fill="white"/>
<path d="M40.678 79.059C40.6761 79.1589 40.6509 79.257 40.6046 79.3455C40.5583 79.434 40.492 79.5105 40.411 79.569C40.264 79.653 40.144 79.569 40.144 79.365C40.1458 79.2655 40.1708 79.1678 40.2172 79.0797C40.2636 78.9917 40.33 78.9157 40.411 78.858C40.558 78.774 40.678 78.861 40.678 79.059Z" fill="#459AE9"/>
</svg>
